# Blender 4.5.3 LTS
# www.blender.org
o C1_BASE
v 23.221046 -8.875001 10.000000
v 21.784988 -5.705551 11.000000
v 31.687462 -1.500238 11.000000
v 20.994852 -2.316840 10.000000
v 31.553741 -0.926736 11.000000
v 20.881002 1.160905 10.000000
v 20.881002 1.160905 11.000000
v 21.447815 4.594038 11.000000
v 31.734924 1.837615 11.000000
v 22.673508 7.850624 10.000000
v 22.673508 7.850624 11.000000
v 33.388474 4.779480 10.000000
v 24.510975 10.805515 10.000000
v 24.510975 10.805515 11.000000
v 33.911644 5.338062 10.000000
v 26.889610 13.345156 10.000000
v 26.889610 13.345156 11.000000
v 43.469971 5.113214 11.000000
v 43.469971 5.113214 10.000000
v 33.998962 -17.145185 10.000000
v 33.998962 -17.145184 11.000000
v 30.742374 -15.919492 10.000000
v 30.742374 -15.919492 11.000000
v 27.787483 -14.082023 10.000000
v 25.247843 -11.703388 11.000000
v 43.931061 4.681355 10.000000
v 43.931061 4.681355 11.000000
v 44.741779 3.550000 10.000000
v 45.316200 2.282220 11.000000
v 45.677795 -0.464362 10.000000
v 45.677795 -0.464362 11.000000
v 44.960796 -3.140249 10.000000
v 44.960796 -3.140249 11.000000
v 44.225807 -4.322206 10.000000
v 44.225807 -4.322206 11.000000
v 43.812466 -4.763528 10.000000
v 43.812466 -4.763528 11.000000
v 31.942360 2.388756 11.000000
v 33.715485 -5.112707 11.000000
v 34.289566 -3.026010 11.000000
v 31.780525 -0.080361 11.000000
v 49.262444 8.732753 10.000000
v 21.784988 -5.705551 10.000000
v 23.221046 -8.875001 11.000000
v 20.994852 -2.316840 11.000000
v 21.447815 4.594038 10.000000
v 29.717999 15.371951 10.000000
v 29.717999 15.371951 11.000000
v 32.887447 16.808010 11.000000
v 27.787483 -14.082023 11.000000
v 49.867882 -7.983251 11.000000
v 34.270794 -5.632809 11.000000
v 49.262444 8.732753 11.000000
v 31.932495 2.238248 11.000000
v 35.595707 -0.394601 11.000000
v 34.991631 -0.474129 11.000000
v 35.087807 -0.124545 11.000000
v 25.247843 -11.703388 10.000000
v 33.797638 3.598691 10.000000
v 43.490955 5.135352 10.000000
v 44.741779 3.550000 11.000000
v 45.316200 2.282220 10.000000
v 45.632256 0.926736 10.000000
v 45.632256 0.926736 11.000000
v 45.451073 -1.837615 10.000000
v 45.451073 -1.837615 11.000000
v 43.846939 -4.795434 10.000000
v 43.833893 -4.783357 11.000000
v 32.887447 16.808010 10.000000
v 49.867889 -7.983255 10.000000
v 45.316200 2.282220 10.000000
v 45.632256 0.926736 10.000000
v 49.262444 8.732753 10.000000
v 49.262444 8.732753 10.000000
v 43.469971 5.113214 10.000000
v 43.469971 5.113214 10.000000
v 49.867889 -7.983255 10.000000
v 49.867889 -7.983255 10.000000
v 43.812466 -4.763528 10.000000
v 23.221046 -8.875001 11.000000
v 25.247843 -11.703388 11.000000
v 20.994852 -2.316840 10.000000
v 20.881002 1.160905 10.000000
v 20.881002 1.160905 11.000000
v 21.447815 4.594038 11.000000
v 22.673508 7.850624 11.000000
v 22.673508 7.850624 10.000000
v 24.510975 10.805515 10.000000
v 24.510975 10.805515 11.000000
v 26.889610 13.345156 10.000000
v 26.889610 13.345156 11.000000
v 33.998962 -17.145185 10.000000
v 33.998962 -17.145185 10.000000
v 33.998962 -17.145184 11.000000
v 33.998962 -17.145184 11.000000
v 30.742374 -15.919492 10.000000
v 27.787483 -14.082023 10.000000
v 27.787483 -14.082023 11.000000
v 43.931061 4.681355 11.000000
v 43.469971 5.113214 11.000000
v 43.469971 5.113214 11.000000
v 43.469971 5.113214 11.000000
v 43.931061 4.681355 10.000000
v 44.741779 3.550000 10.000000
v 44.741779 3.550000 10.000000
v 23.221046 -8.875001 10.000000
v 21.784988 -5.705551 10.000000
v 21.784988 -5.705551 11.000000
v 20.994852 -2.316840 11.000000
v 21.447815 4.594038 10.000000
v 29.717999 15.371951 10.000000
v 29.717999 15.371951 11.000000
v 32.887447 16.808010 10.000000
v 32.887447 16.808010 10.000000
v 32.887447 16.808010 11.000000
v 32.887447 16.808010 11.000000
v 30.742374 -15.919492 11.000000
v 49.867882 -7.983251 11.000000
v 49.867882 -7.983251 11.000000
v 43.812466 -4.763528 11.000000
v 25.247843 -11.703388 10.000000
v 49.262444 8.732753 11.000000
v 49.262444 8.732753 11.000000
v 43.490955 5.135352 10.000000
v 44.741779 3.550000 11.000000
v 45.316200 2.282220 11.000000
v 45.632256 0.926736 11.000000
v 45.677795 -0.464362 10.000000
v 45.677795 -0.464362 11.000000
v 45.451073 -1.837615 10.000000
v 45.451073 -1.837615 11.000000
v 44.960796 -3.140249 10.000000
v 44.960796 -3.140249 11.000000
vn -0.0000 -0.0000 -1.0000
vn -0.9469 -0.3214 -0.0000
vn -0.0000 -0.0000 1.0000
vn -0.8969 0.4423 -0.0000
vn -0.7934 0.6088 -0.0000
vn -0.6593 0.7518 -0.0000
vn -0.7258 0.6879 -0.0000
vn -0.0205 0.0194 -0.9996
vn 0.5000 -0.8660 -0.0000
vn -0.4423 -0.8969 -0.0000
vn 0.7519 0.6591 0.0140
vn 0.9469 0.3214 -0.0000
vn 0.9979 -0.0654 -0.0000
vn 0.8888 -0.4584 -0.0000
vn 0.8868 -0.4621 0.0085
vn 0.4695 0.8829 -0.0000
vn 0.4423 0.8969 -0.0000
vn -0.0225 0.0213 -0.9995
vn 0.8295 -0.5586 0.0006
vn 0.8246 -0.5655 0.0176
vn 0.9914 0.1305 -0.0000
vn 0.5299 -0.8480 -0.0000
vn -0.8660 -0.5000 -0.0000
vn -0.7518 -0.6593 -0.0000
vn -0.9914 -0.1305 -0.0000
vn -0.9979 0.0654 -0.0000
vn -0.9659 0.2588 -0.0000
vn -0.3523 -0.9359 -0.0000
vn -0.3522 -0.9359 -0.0000
vn -0.6088 -0.7934 -0.0000
vn 0.6833 0.7295 0.0305
vn 0.8541 0.5191 -0.0316
vn -0.5000 0.8660 -0.0000
vn -0.4127 0.9109 -0.0000
vn 0.7825 0.6195 -0.0631
vn 0.8660 0.5000 -0.0000
vn 0.9659 -0.2588 -0.0000
vt 0.138808 0.919975
vt 0.172299 0.934818
vt 0.138808 0.934818
vt 0.172299 0.919975
vt 0.203847 0.934818
vt 0.203847 0.919975
vt 0.232239 0.934818
vt 0.232239 0.919975
vt 0.258859 0.934828
vt 0.232239 0.934817
vt 0.258859 0.919985
vt 0.289140 0.934836
vt 0.289140 0.919993
vt 0.321918 0.934840
vt 0.321918 0.919998
vt 0.355934 0.934842
vt 0.355934 0.919999
vt 0.389879 0.934840
vt 0.389879 0.919997
vt 0.422451 0.934835
vt 0.011230 0.919975
vt 0.039622 0.934818
vt 0.011230 0.934818
vt 0.039622 0.919975
vt 0.071170 0.934818
vt 0.554380 0.261738
vt 0.462178 0.195585
vt 0.479026 0.186385
vt 0.442700 0.169729
vt 0.445248 0.167147
vt 0.408888 0.203995
vt 0.401603 0.201785
vt 0.424099 0.188580
vt 0.440367 0.164096
vt 0.455978 0.201785
vt 0.450339 0.203496
vt 0.482764 0.181830
vt 0.481509 0.182668
vt 0.071170 0.919975
vt 0.104661 0.934818
vt 0.104661 0.919975
vt 0.107932 0.150009
vt 0.122434 0.159699
vt 0.110155 0.157337
vt 0.764809 0.919975
vt 0.831308 0.934818
vt 0.764809 0.934818
vt 0.894009 0.919975
vt 0.831308 0.934819
vt 0.831309 0.919975
vt 0.894010 0.934818
vt 0.894029 0.919975
vt 0.900192 0.919975
vt 0.913810 0.934818
vt 0.913798 0.919975
vt 0.926918 0.934818
vt 0.926907 0.919975
vt 0.939026 0.934818
vt 0.939015 0.919975
vt 0.949669 0.934818
vt 0.949669 0.919975
vt 0.959928 0.934818
vt 0.949684 0.934818
vt 0.959912 0.919975
vt 0.971737 0.934818
vt 0.971722 0.919975
vt 0.990475 0.934818
vt 0.448700 0.068305
vt 0.245003 0.114751
vt 0.236682 0.096679
vt 0.422451 0.919992
vt 0.592881 0.204117
vt 0.576468 0.234824
vt 0.602988 0.170799
vt 0.527466 0.283827
vt 0.496759 0.300240
vt 0.463440 0.310347
vt 0.428790 0.313760
vt 0.394140 0.310347
vt 0.360822 0.300240
vt 0.330115 0.283827
vt 0.303201 0.261739
vt 0.606401 0.136149
vt 0.602988 0.101499
vt 0.361398 0.114751
vt 0.276286 0.283827
vt 0.245579 0.300240
vt 0.212261 0.310347
vt 0.177611 0.313760
vt 0.142961 0.310347
vt 0.109642 0.300240
vt 0.078936 0.283827
vt 0.052021 0.261739
vt 0.029933 0.234824
vt 0.013520 0.204117
vt 0.003413 0.170799
vt 0.000000 0.136149
vt 0.003413 0.101499
vt 0.157701 0.068305
vt 0.303201 0.261739
vt 0.831308 0.919975
vt 0.894009 0.934818
vt 0.949657 0.919975
vt 0.990484 0.919975
vt 0.363154 0.108961
vt 0.369719 0.096679
vt 0.378554 0.085913
vt 0.389320 0.077078
vt 0.401603 0.070512
vt 0.414930 0.066470
vt 0.428790 0.065104
vt 0.442650 0.066470
vt 0.177611 0.065104
vt 0.163751 0.066470
vt 0.191471 0.066470
vt 0.204798 0.070512
vt 0.217081 0.077078
vt 0.227847 0.085913
vt 0.243247 0.108961
vt 0.451085 -0.000000
vt 0.303201 0.078386
vt 0.155316 0.000000
vt 0.303201 0.078386
vt 0.599952 0.919975
vt 0.764809 0.919975
vt 0.599952 0.934819
vt 0.764809 0.934818
vt 0.422451 0.919975
vt 0.599952 0.934818
vt 0.422451 0.934819
vt 0.599952 0.919975
vt 0.991421 0.934817
vt 0.991719 0.934817
vt 0.990484 0.934808
vt 0.991964 0.934814
vt 0.991964 0.919975
s 1
g off
f 80/1/23 107/2/2 106/3/23
f 2/4/2 82/5/25 107/2/2
f 109/6/25 83/7/26 82/5/25
f 84/8/26 110/9/27 83/10/26
f 85/11/27 10/12/4 110/9/27
f 86/13/4 13/14/5 10/12/4
f 89/15/5 16/16/6 13/14/5
f 91/17/6 111/18/33 16/16/6
f 112/19/33 113/20/34 111/18/33
f 94/21/29 22/22/10 92/23/28
f 117/24/10 97/25/30 22/22/10
f 8/26/3 41/27/3 9/28/3
f 41/27/3 56/29/3 57/30/3
f 39/31/3 52/32/3 40/33/3
f 55/34/3 57/30/3 56/29/3
f 41/27/3 5/35/3 3/36/3
f 38/37/3 9/28/3 54/38/3
f 98/39/30 121/40/24 97/25/30
f 81/41/24 106/3/23 121/40/24
f 15/42/1 59/43/1 12/44/1
f 122/45/22 76/46/22 73/47/22
f 118/48/16 36/49/16 37/50/16
f 124/51/35 101/52/31 27/53/11
f 27/53/11 105/54/32 124/51/35
f 125/55/36 71/56/12 105/54/32
f 29/57/12 72/58/21 71/56/12
f 127/59/21 128/60/13 72/58/21
f 31/61/13 130/62/37 128/63/13
f 131/64/37 32/65/14 130/62/37
f 33/66/15 67/67/19 32/65/14
f 100/68/3 57/30/3 55/34/3
f 79/69/1 59/43/1 132/70/1
f 80/1/23 2/4/2 107/2/2
f 2/4/2 109/6/25 82/5/25
f 109/6/25 84/8/26 83/7/26
f 84/8/26 85/11/27 110/9/27
f 85/11/27 86/13/4 10/12/4
f 86/13/4 89/15/5 13/14/5
f 89/15/5 91/17/6 16/16/6
f 91/17/6 112/19/33 111/18/33
f 112/19/33 116/71/34 113/20/34
f 94/21/29 117/24/10 22/22/10
f 117/24/10 98/39/30 97/25/30
f 14/72/3 11/73/3 38/37/3
f 11/73/3 8/26/3 38/37/3
f 38/37/3 17/74/3 14/72/3
f 8/26/3 7/75/3 41/27/3
f 7/75/3 45/76/3 5/35/3
f 40/33/3 108/77/3 44/78/3
f 45/76/3 108/77/3 3/36/3
f 39/31/3 44/78/3 25/79/3
f 25/79/3 50/80/3 39/31/3
f 50/80/3 23/81/3 52/32/3
f 23/81/3 95/82/3 52/32/3
f 50/80/3 52/32/3 39/31/3
f 108/77/3 40/33/3 3/36/3
f 44/78/3 39/31/3 40/33/3
f 38/37/3 48/83/3 17/74/3
f 115/84/3 48/83/3 100/68/3
f 95/82/3 120/85/3 52/32/3
f 100/68/3 48/83/3 38/37/3
f 45/76/3 3/36/3 5/35/3
f 7/75/3 5/35/3 41/27/3
f 9/28/3 38/37/3 8/26/3
f 57/30/3 100/68/3 38/37/3
f 54/38/3 9/28/3 57/30/3
f 41/27/3 3/36/3 56/29/3
f 56/29/3 3/36/3 40/33/3
f 52/32/3 120/85/3 40/33/3
f 55/34/3 56/29/3 40/33/3
f 9/28/3 41/27/3 57/30/3
f 40/33/3 120/85/3 55/34/3
f 38/37/3 54/38/3 57/30/3
f 98/39/30 81/41/24 121/40/24
f 81/41/24 80/1/23 106/3/23
f 96/86/1 24/87/1 59/43/1
f 24/87/1 58/88/1 59/43/1
f 58/88/1 1/89/1 59/43/1
f 1/89/1 43/90/1 59/43/1
f 43/90/1 4/91/1 59/43/1
f 4/91/1 6/92/1 59/43/1
f 6/92/1 46/93/1 59/43/1
f 46/93/1 87/94/1 59/43/1
f 87/94/1 88/95/1 12/44/1
f 88/95/1 90/96/1 12/44/1
f 90/96/1 47/97/1 15/42/1
f 47/97/1 114/98/1 15/42/1
f 15/42/1 114/98/1 75/99/1
f 90/96/1 15/42/1 12/44/1
f 93/100/1 96/86/1 79/69/1
f 59/43/1 79/69/1 96/86/1
f 87/94/1 12/44/1 59/43/1
f 15/42/1 75/99/1 59/43/1
f 122/45/22 102/101/22 76/46/22
f 118/48/16 77/102/16 36/49/16
f 27/53/11 125/55/36 105/54/32
f 125/55/36 29/57/12 71/56/12
f 29/57/12 127/59/21 72/58/21
f 127/59/21 31/103/13 128/60/13
f 31/61/13 131/64/37 130/62/37
f 131/64/37 33/66/15 32/65/14
f 33/66/15 68/104/20 67/67/19
f 120/85/3 35/105/3 55/34/3
f 35/105/3 133/106/3 55/34/3
f 133/106/3 66/107/3 55/34/3
f 66/107/3 129/108/3 55/34/3
f 129/108/3 64/109/3 55/34/3
f 64/109/3 126/110/3 55/34/3
f 126/110/3 61/111/3 55/34/3
f 61/111/3 99/112/3 55/34/3
f 99/112/3 100/68/3 55/34/3
f 59/43/1 75/99/1 104/113/1
f 75/99/1 103/114/1 104/113/1
f 104/113/1 62/115/1 59/43/1
f 62/115/1 63/116/1 59/43/1
f 63/116/1 30/117/1 59/43/1
f 30/117/1 65/118/1 59/43/1
f 65/118/1 132/70/1 59/43/1
f 132/70/1 34/119/1 79/69/1
f 100/68/3 123/120/3 115/84/3
f 79/69/1 78/121/1 93/100/1
f 114/98/1 74/122/1 75/99/1
f 120/85/3 95/82/3 119/123/3
f 49/124/17 53/125/17 69/126/17
f 42/127/17 69/126/17 53/125/17
f 51/128/9 20/129/9 70/130/9
f 20/129/9 51/128/9 21/131/9
f 19/132/8 60/133/18 28/134/3
f 28/134/3 26/135/3 19/132/8
f 19/132/8 18/136/7 60/133/18
