# Blender 4.5.3 LTS
# www.blender.org
o C1_C3_VL_UW
v 8.784462 19.957056 9.590911
v 8.884398 20.124969 9.575189
v 8.962178 20.298784 9.528625
v 9.014814 20.471819 9.453012
v 9.040283 20.637426 9.351252
v 9.037606 20.789242 9.227257
v 9.006886 20.921429 9.085792
v 8.949305 21.028908 8.932294
v 8.867072 21.107552 8.772661
v 8.763351 21.154335 8.613029
v 8.642126 21.167461 8.459531
v 8.508057 21.146427 8.318066
v 8.366294 21.092037 8.194071
v 8.222286 21.006386 8.092311
v 8.081569 20.892763 8.016697
v 7.949548 20.755535 7.970134
v 7.831297 20.599974 7.954412
v 7.731361 20.432060 7.970134
v 7.653581 20.258245 8.016697
v 7.600945 20.085209 8.092311
v 7.575476 19.919601 8.194071
v 7.578153 19.767788 8.318066
v 7.608872 19.635601 8.459531
v 7.666454 19.528120 8.613029
v 7.748687 19.449476 8.772661
v 7.852407 19.402693 8.932294
v 7.973633 19.389566 9.085792
v 8.107702 19.410603 9.227257
v 8.249465 19.464991 9.351252
v 8.393473 19.550642 9.453012
v 8.534190 19.664267 9.528625
v 8.666211 19.801495 9.575189
v 20.316582 12.178541 -0.181750
v 20.416519 12.346455 -0.197472
v 20.494299 12.520269 -0.244035
v 20.546934 12.693305 -0.319650
v 20.572405 12.858912 -0.421410
v 20.569727 13.010727 -0.545405
v 20.539007 13.142914 -0.686869
v 20.481424 13.250394 -0.840367
v 20.399193 13.329038 -1.000000
v 20.295471 13.375821 -1.159633
v 20.174248 13.388947 -1.313131
v 20.040176 13.367912 -1.454595
v 19.898415 13.313524 -1.578590
v 19.754408 13.227872 -1.680350
v 19.613689 13.114248 -1.755965
v 19.481668 12.977019 -1.802528
v 19.363419 12.821459 -1.818250
v 19.263481 12.653545 -1.802528
v 19.185701 12.479731 -1.755965
v 19.133066 12.306695 -1.680350
v 19.107595 12.141088 -1.578590
v 19.110273 11.989273 -1.454595
v 19.140993 11.857086 -1.313131
v 19.198576 11.749606 -1.159633
v 19.280807 11.670962 -1.000000
v 19.384529 11.624179 -0.840367
v 19.505753 11.611053 -0.686869
v 19.639824 11.632088 -0.545405
v 19.781586 11.686476 -0.421410
v 19.925592 11.772128 -0.319650
v 20.066311 11.885752 -0.244035
v 20.198332 12.022981 -0.197472
v 14.650457 16.235712 4.688858
v 14.728239 16.409527 4.642295
v 14.780874 16.582561 4.566681
v 14.806343 16.748169 4.464921
v 14.803667 16.899982 4.340926
v 14.772947 17.032171 4.199461
v 14.715364 17.139652 4.045963
v 14.633133 17.218294 3.886331
v 14.529411 17.265079 3.726698
v 14.408186 17.278206 3.573200
v 14.274117 17.257170 3.431735
v 14.132355 17.202782 3.307740
v 13.988347 17.117130 3.205980
v 13.847630 17.003506 3.130366
v 13.715608 16.866276 3.083803
v 13.597357 16.710716 3.068080
v 13.497421 16.542803 3.083803
v 13.419641 16.368988 3.130366
v 13.367004 16.195951 3.205980
v 13.341536 16.030346 3.307740
v 13.344213 15.878531 3.431735
v 13.374933 15.746344 3.573200
v 13.432515 15.638863 3.726698
v 13.514747 15.560220 3.886331
v 13.618468 15.513435 4.045963
v 13.739693 15.500309 4.199461
v 13.873763 15.521345 4.340926
v 14.015526 15.575733 4.464921
v 14.159533 15.661385 4.566681
v 14.300251 15.775009 4.642295
v 14.432272 15.912237 4.688858
v 14.550522 16.067799 4.704581
v 17.348757 14.180365 2.333273
v 17.448692 14.348279 2.317551
v 17.526474 14.522093 2.270988
v 17.579109 14.695129 2.195373
v 17.604580 14.860736 2.093613
v 17.601902 15.012550 1.969619
v 17.571182 15.144737 1.828154
v 17.513599 15.252218 1.674656
v 17.431368 15.330861 1.515023
v 17.327646 15.377645 1.355391
v 17.206421 15.390772 1.201892
v 17.072351 15.369736 1.060428
v 16.930590 15.315348 0.936433
v 16.786583 15.229696 0.834673
v 16.645864 15.116072 0.759059
v 16.513844 14.978844 0.712496
v 16.395592 14.823282 0.696773
v 16.295656 14.655369 0.712496
v 16.217876 14.481554 0.759059
v 16.165241 14.308518 0.834673
v 16.139771 14.142912 0.936433
v 16.142448 13.991097 1.060428
v 16.173168 13.858910 1.201892
v 16.230751 13.751430 1.355391
v 16.312983 13.672786 1.515023
v 16.416704 13.626002 1.674656
v 16.537928 13.612876 1.828154
v 16.671997 13.633911 1.969619
v 16.813761 13.688300 2.093613
v 16.957767 13.773952 2.195373
v 17.098486 13.887575 2.270988
v 17.230507 14.024804 2.317551
v 11.767427 18.180340 7.132024
v 11.845208 18.354155 7.085461
v 11.897844 18.527191 7.009846
v 11.923313 18.692799 6.908086
v 11.920636 18.844612 6.784091
v 11.889916 18.976799 6.642627
v 11.832335 19.084280 6.489129
v 11.750102 19.162924 6.329496
v 11.646381 19.209707 6.169863
v 11.525156 19.222834 6.016365
v 11.391087 19.201797 5.874900
v 11.249324 19.147409 5.750906
v 11.105316 19.061758 5.649146
v 10.964599 18.948133 5.573531
v 10.832578 18.810905 5.526968
v 10.714327 18.655344 5.511246
v 10.614391 18.487431 5.526968
v 10.536611 18.313616 5.573531
v 10.483974 18.140581 5.649146
v 10.458506 17.974974 5.750906
v 10.461183 17.823158 5.874900
v 10.491902 17.690971 6.016365
v 10.549484 17.583492 6.169863
v 10.631717 17.504848 6.329496
v 10.735437 17.458065 6.489129
v 10.856663 17.444939 6.642627
v 10.990732 17.465973 6.784091
v 11.132495 17.520363 6.908086
v 11.276503 17.606014 7.009846
v 11.417220 17.719637 7.085461
v 11.549241 17.856867 7.132024
v 11.667492 18.012426 7.147746
vn -0.6784 0.4576 0.5749
vn 0.4195 -0.4012 0.8143
vn 0.2937 -0.5483 0.7830
vn 0.1567 -0.6743 0.7216
vn 0.0137 -0.7744 0.6325
vn -0.1299 -0.8448 0.5191
vn -0.2685 -0.8827 0.3857
vn -0.3968 -0.8867 0.2375
vn -0.5098 -0.8566 0.0802
vn -0.6032 -0.7935 -0.0802
vn -0.6735 -0.7000 -0.2375
vn -0.7178 -0.5796 -0.3857
vn -0.7346 -0.4369 -0.5191
vn -0.7232 -0.2774 -0.6325
vn -0.6839 -0.1073 -0.7216
vn -0.6184 0.0670 -0.7830
vn -0.5291 0.2387 -0.8143
vn -0.4195 0.4012 -0.8143
vn -0.2937 0.5483 -0.7830
vn -0.1567 0.6743 -0.7216
vn -0.0137 0.7744 -0.6325
vn 0.1299 0.8448 -0.5191
vn 0.2685 0.8827 -0.3857
vn 0.3968 0.8867 -0.2375
vn 0.5098 0.8566 -0.0802
vn 0.6032 0.7935 0.0802
vn 0.6735 0.7000 0.2375
vn 0.7178 0.5796 0.3857
vn 0.7346 0.4369 0.5191
vn 0.7232 0.2774 0.6325
vn 0.6839 0.1073 0.7216
vn 0.6184 -0.0670 0.7830
vn 0.5291 -0.2387 0.8143
vn 0.6784 -0.4576 -0.5749
vn -0.6784 0.4575 0.5749
vt 0.408378 0.055678
vt 0.443116 0.408378
vt 0.090416 0.443116
vt 0.749397 0.040847
vt 0.813890 -0.000000
vt 0.813890 0.040847
vt 0.749397 0.086235
vt 0.813890 0.086235
vt 0.749397 0.134418
vt 0.813890 0.134418
vt 0.749397 0.183544
vt 0.813890 0.183544
vt 0.749397 0.231727
vt 0.813890 0.231727
vt 0.749397 0.277115
vt 0.813890 0.277115
vt 0.749397 0.317962
vt 0.813890 0.317962
vt 0.749397 0.352700
vt 0.813890 0.352700
vt 0.498793 0.040847
vt 0.563287 0.000000
vt 0.563287 0.040847
vt 0.498793 0.086235
vt 0.563287 0.086235
vt 0.498793 0.134418
vt 0.563287 0.134418
vt 0.498793 0.183545
vt 0.563287 0.183545
vt 0.498793 0.231727
vt 0.563287 0.231727
vt 0.498793 0.277115
vt 0.563287 0.277115
vt 0.498793 0.317962
vt 0.563287 0.317962
vt 0.498793 0.352700
vt 0.563287 0.352700
vt 0.749397 0.393548
vt 0.813890 0.352700
vt 0.813890 0.393548
vt 0.749397 0.438935
vt 0.813890 0.438935
vt 0.749397 0.487118
vt 0.813890 0.487118
vt 0.749397 0.536245
vt 0.813890 0.536245
vt 0.749397 0.584427
vt 0.813890 0.584427
vt 0.749397 0.629815
vt 0.813890 0.629815
vt 0.749397 0.670662
vt 0.813890 0.670662
vt 0.749397 0.705400
vt 0.813890 0.705400
vt 0.498793 0.393548
vt 0.563287 0.352700
vt 0.563287 0.393548
vt 0.498793 0.438935
vt 0.563287 0.438935
vt 0.498793 0.487118
vt 0.563287 0.487118
vt 0.498793 0.536245
vt 0.563287 0.536245
vt 0.498793 0.584428
vt 0.563287 0.584428
vt 0.498793 0.629815
vt 0.563287 0.629815
vt 0.498793 0.670662
vt 0.563287 0.670662
vt 0.498793 0.705400
vt 0.563287 0.705400
vt 0.443116 0.589209
vt 0.408378 0.941909
vt 0.055678 0.907171
vt 0.624095 0.705400
vt 0.686746 0.670662
vt 0.686746 0.705400
vt 0.624095 0.670662
vt 0.686746 0.629815
vt 0.624095 0.629815
vt 0.686746 0.584428
vt 0.624095 0.584428
vt 0.686746 0.536245
vt 0.624095 0.536245
vt 0.686746 0.487118
vt 0.624095 0.487118
vt 0.686746 0.438935
vt 0.624095 0.438935
vt 0.686746 0.393548
vt 0.624095 0.393548
vt 0.686746 0.352700
vt 0.874698 0.705400
vt 0.937349 0.670662
vt 0.937349 0.705400
vt 0.874698 0.670662
vt 0.937349 0.629815
vt 0.874698 0.629815
vt 0.937349 0.584427
vt 0.874698 0.584427
vt 0.937349 0.536245
vt 0.874698 0.536245
vt 0.937349 0.487118
vt 0.874698 0.487118
vt 0.937349 0.438935
vt 0.874698 0.438935
vt 0.937349 0.393548
vt 0.874698 0.393548
vt 0.937349 0.352700
vt 0.624095 0.352700
vt 0.686746 0.317962
vt 0.686746 0.352700
vt 0.624095 0.317962
vt 0.686746 0.277115
vt 0.624095 0.277115
vt 0.686746 0.231727
vt 0.624095 0.231727
vt 0.686746 0.183545
vt 0.624095 0.183545
vt 0.686746 0.134418
vt 0.624095 0.134418
vt 0.686746 0.086235
vt 0.624095 0.086235
vt 0.686746 0.040847
vt 0.624095 0.040847
vt 0.686746 0.000000
vt 0.874698 0.352700
vt 0.937349 0.317962
vt 0.937349 0.352700
vt 0.874698 0.317962
vt 0.937349 0.277115
vt 0.874698 0.277115
vt 0.937349 0.231727
vt 0.874698 0.231727
vt 0.937349 0.183545
vt 0.874698 0.183545
vt 0.937349 0.134418
vt 0.874698 0.134418
vt 0.937349 0.086235
vt 0.874698 0.086235
vt 0.937349 0.040847
vt 0.874698 0.040847
vt 0.937349 -0.000000
vt 0.624095 0.352700
vt 0.874698 0.352700
vt 0.624095 0.000000
vt 0.874698 -0.000000
vt 1.000000 0.000000
vt 1.000000 0.040847
vt 1.000000 0.086235
vt 1.000000 0.134418
vt 1.000000 0.183545
vt 1.000000 0.231727
vt 1.000000 0.277115
vt 1.000000 0.317962
vt 1.000000 0.352700
vt 0.749397 0.000000
vt 0.749397 0.040848
vt 0.749397 0.086235
vt 0.749397 0.134418
vt 0.749397 0.183545
vt 0.749397 0.231727
vt 0.749397 0.277115
vt 0.749397 0.317962
vt 0.749397 0.352700
vt 1.000000 0.352700
vt 1.000000 0.393548
vt 1.000000 0.438935
vt 1.000000 0.487118
vt 1.000000 0.536245
vt 1.000000 0.584427
vt 1.000000 0.629815
vt 1.000000 0.670662
vt 1.000000 0.705400
vt 0.749397 0.352700
vt 0.749397 0.393548
vt 0.749397 0.438935
vt 0.749397 0.487118
vt 0.749397 0.536245
vt 0.749397 0.584428
vt 0.749397 0.629815
vt 0.749397 0.670662
vt 0.749397 0.705400
vt 0.055678 0.408378
vt 0.028384 0.367530
vt 0.009584 0.322143
vt -0.000000 0.273960
vt -0.000000 0.224833
vt 0.009584 0.176650
vt 0.028384 0.131263
vt 0.055678 0.090416
vt 0.090416 0.055678
vt 0.131263 0.028384
vt 0.176650 0.009584
vt 0.224833 -0.000000
vt 0.273960 -0.000000
vt 0.322143 0.009584
vt 0.367530 0.028384
vt 0.443116 0.090416
vt 0.470409 0.131263
vt 0.489209 0.176650
vt 0.498793 0.224833
vt 0.498793 0.273960
vt 0.489209 0.322143
vt 0.470409 0.367530
vt 0.408378 0.443116
vt 0.367530 0.470409
vt 0.322143 0.489209
vt 0.273960 0.498793
vt 0.224833 0.498793
vt 0.176650 0.489209
vt 0.131263 0.470409
vt 0.749397 -0.000000
vt 0.498793 0.000000
vt 0.749397 0.352700
vt 0.498793 0.352700
vt 0.028384 0.866324
vt 0.000000 0.723626
vt 0.009584 0.820936
vt 0.000000 0.772753
vt 0.009584 0.675444
vt 0.028384 0.630056
vt 0.055678 0.589209
vt 0.090416 0.554471
vt 0.131263 0.527178
vt 0.273960 0.498793
vt 0.176650 0.508377
vt 0.224833 0.498793
vt 0.322143 0.508377
vt 0.367530 0.527178
vt 0.408378 0.554471
vt 0.470409 0.630056
vt 0.498793 0.772753
vt 0.489209 0.675444
vt 0.498793 0.723626
vt 0.489209 0.820936
vt 0.470409 0.866324
vt 0.443116 0.907171
vt 0.367530 0.969202
vt 0.224833 0.997587
vt 0.322143 0.988002
vt 0.273960 0.997587
vt 0.176650 0.988002
vt 0.131263 0.969202
vt 0.090416 0.941909
s 0
f 16/1/1 24/2/1 32/3/1
f 64/4/2 97/5/2 128/6/2
f 63/7/3 128/6/3 127/8/3
f 62/9/4 127/8/4 126/10/4
f 61/11/5 126/10/5 125/12/5
f 60/13/6 125/12/6 124/14/6
f 59/15/7 124/14/7 123/16/7
f 58/17/8 123/16/8 122/18/8
f 57/19/9 122/18/9 121/20/9
f 56/21/10 121/22/10 120/23/10
f 55/24/11 120/23/11 119/25/11
f 54/26/12 119/25/12 118/27/12
f 53/28/13 118/27/13 117/29/13
f 52/30/14 117/29/14 116/31/14
f 51/32/15 116/31/15 115/33/15
f 50/34/16 115/33/16 114/35/16
f 49/36/17 114/35/17 113/37/17
f 48/38/18 113/39/18 112/40/18
f 47/41/19 112/40/19 111/42/19
f 46/43/20 111/42/20 110/44/20
f 45/45/21 110/44/21 109/46/21
f 44/47/22 109/46/22 108/48/22
f 43/49/23 108/48/23 107/50/23
f 42/51/24 107/50/24 106/52/24
f 41/53/25 106/52/25 105/54/25
f 40/55/26 105/56/26 104/57/26
f 39/58/27 104/57/27 103/59/27
f 38/60/28 103/59/28 102/61/28
f 37/62/29 102/61/29 101/63/29
f 36/64/30 101/63/30 100/65/30
f 35/66/31 100/65/31 99/67/31
f 34/68/32 99/67/32 98/69/32
f 33/70/33 98/69/33 97/71/33
f 49/72/34 41/73/34 33/74/34
f 96/75/33 129/76/33 160/77/33
f 65/78/32 130/79/32 129/76/32
f 66/80/31 131/81/31 130/79/31
f 67/82/30 132/83/30 131/81/30
f 68/84/29 133/85/29 132/83/29
f 69/86/28 134/87/28 133/85/28
f 70/88/27 135/89/27 134/87/27
f 71/90/26 136/91/26 135/89/26
f 72/92/25 137/93/25 136/94/25
f 73/95/24 138/96/24 137/93/24
f 74/97/23 139/98/23 138/96/23
f 75/99/22 140/100/22 139/98/22
f 76/101/21 141/102/21 140/100/21
f 77/103/20 142/104/20 141/102/20
f 78/105/19 143/106/19 142/104/19
f 79/107/18 144/108/18 143/106/18
f 80/109/17 145/110/17 144/111/17
f 81/112/16 146/113/16 145/110/16
f 82/114/15 147/115/15 146/113/15
f 83/116/14 148/117/14 147/115/14
f 84/118/13 149/119/13 148/117/13
f 85/120/12 150/121/12 149/119/12
f 86/122/11 151/123/11 150/121/11
f 87/124/10 152/125/10 151/123/10
f 88/126/9 153/127/9 152/128/9
f 89/129/8 154/130/8 153/127/8
f 90/131/7 155/132/7 154/130/7
f 91/133/6 156/134/6 155/132/6
f 92/135/5 157/136/5 156/134/5
f 93/137/4 158/138/4 157/136/4
f 94/139/3 159/140/3 158/138/3
f 95/141/2 160/142/2 159/140/2
f 97/71/33 65/78/33 96/75/33
f 98/69/32 66/80/32 65/78/32
f 99/67/31 67/82/31 66/80/31
f 100/65/30 68/84/30 67/82/30
f 101/63/29 69/86/29 68/84/29
f 102/61/28 70/88/28 69/86/28
f 103/59/27 71/90/27 70/88/27
f 104/57/26 72/143/26 71/90/26
f 105/54/25 73/95/25 72/92/25
f 106/52/24 74/97/24 73/95/24
f 107/50/23 75/99/23 74/97/23
f 108/48/22 76/101/22 75/99/22
f 109/46/21 77/103/21 76/101/21
f 110/44/20 78/105/20 77/103/20
f 111/42/19 79/107/19 78/105/19
f 112/40/18 80/144/18 79/107/18
f 113/37/17 81/112/17 80/109/17
f 114/35/16 82/114/16 81/112/16
f 115/33/15 83/116/15 82/114/15
f 116/31/14 84/118/14 83/116/14
f 117/29/13 85/120/13 84/118/13
f 118/27/12 86/122/12 85/120/12
f 119/25/11 87/124/11 86/122/11
f 120/23/10 88/145/10 87/124/10
f 121/20/9 89/129/9 88/126/9
f 122/18/8 90/131/8 89/129/8
f 123/16/7 91/133/7 90/131/7
f 124/14/6 92/135/6 91/133/6
f 125/12/5 93/137/5 92/135/5
f 126/10/4 94/139/4 93/137/4
f 127/8/3 95/141/3 94/139/3
f 128/6/2 96/146/2 95/141/2
f 159/140/2 1/147/2 32/148/2
f 158/138/3 32/148/3 31/149/3
f 157/136/4 31/149/4 30/150/4
f 156/134/5 30/150/5 29/151/5
f 155/132/6 29/151/6 28/152/6
f 154/130/7 28/152/7 27/153/7
f 153/127/8 27/153/8 26/154/8
f 152/128/9 26/154/9 25/155/9
f 151/123/10 25/156/10 24/157/10
f 150/121/11 24/157/11 23/158/11
f 149/119/12 23/158/12 22/159/12
f 148/117/13 22/159/13 21/160/13
f 147/115/14 21/160/14 20/161/14
f 146/113/15 20/161/15 19/162/15
f 145/110/16 19/162/16 18/163/16
f 144/111/17 18/163/17 17/164/17
f 143/106/18 17/165/18 16/166/18
f 142/104/19 16/166/19 15/167/19
f 141/102/20 15/167/20 14/168/20
f 140/100/21 14/168/21 13/169/21
f 139/98/22 13/169/22 12/170/22
f 138/96/23 12/170/23 11/171/23
f 137/93/24 11/171/24 10/172/24
f 136/94/25 10/172/25 9/173/25
f 135/89/26 9/174/26 8/175/26
f 134/87/27 8/175/27 7/176/27
f 133/85/28 7/176/28 6/177/28
f 132/83/29 6/177/29 5/178/29
f 131/81/30 5/178/30 4/179/30
f 130/79/31 4/179/31 3/180/31
f 129/76/32 3/180/32 2/181/32
f 160/77/33 2/181/33 1/182/33
f 32/3/1 1/183/1 2/184/1
f 2/184/1 3/185/1 4/186/1
f 4/186/1 5/187/1 6/188/1
f 6/188/1 7/189/1 8/190/1
f 8/190/1 9/191/1 10/192/1
f 10/192/1 11/193/1 12/194/1
f 12/194/1 13/195/1 14/196/1
f 14/196/1 15/197/1 16/1/1
f 16/1/1 17/198/1 18/199/1
f 18/199/1 19/200/1 20/201/1
f 20/201/1 21/202/1 22/203/1
f 22/203/1 23/204/1 24/2/1
f 24/2/1 25/205/1 26/206/1
f 26/206/1 27/207/1 28/208/1
f 28/208/1 29/209/1 30/210/1
f 30/210/1 31/211/1 32/3/1
f 32/3/1 2/184/1 8/190/1
f 2/184/1 4/186/1 8/190/1
f 4/186/35 6/188/35 8/190/35
f 8/190/1 10/192/1 16/1/1
f 10/192/1 12/194/1 16/1/1
f 12/194/1 14/196/1 16/1/1
f 16/1/1 18/199/1 24/2/1
f 18/199/35 20/201/35 24/2/35
f 20/201/1 22/203/1 24/2/1
f 24/2/1 26/206/1 32/3/1
f 26/206/1 28/208/1 32/3/1
f 28/208/1 30/210/1 32/3/1
f 32/3/1 8/190/1 16/1/1
f 64/4/2 33/212/2 97/5/2
f 63/7/3 64/4/3 128/6/3
f 62/9/4 63/7/4 127/8/4
f 61/11/5 62/9/5 126/10/5
f 60/13/6 61/11/6 125/12/6
f 59/15/7 60/13/7 124/14/7
f 58/17/8 59/15/8 123/16/8
f 57/19/9 58/17/9 122/18/9
f 56/21/10 57/213/10 121/22/10
f 55/24/11 56/21/11 120/23/11
f 54/26/12 55/24/12 119/25/12
f 53/28/13 54/26/13 118/27/13
f 52/30/14 53/28/14 117/29/14
f 51/32/15 52/30/15 116/31/15
f 50/34/16 51/32/16 115/33/16
f 49/36/17 50/34/17 114/35/17
f 48/38/18 49/214/18 113/39/18
f 47/41/19 48/38/19 112/40/19
f 46/43/20 47/41/20 111/42/20
f 45/45/21 46/43/21 110/44/21
f 44/47/22 45/45/22 109/46/22
f 43/49/23 44/47/23 108/48/23
f 42/51/24 43/49/24 107/50/24
f 41/53/25 42/51/25 106/52/25
f 40/55/26 41/215/26 105/56/26
f 39/58/27 40/55/27 104/57/27
f 38/60/28 39/58/28 103/59/28
f 37/62/29 38/60/29 102/61/29
f 36/64/30 37/62/30 101/63/30
f 35/66/31 36/64/31 100/65/31
f 34/68/32 35/66/32 99/67/32
f 33/70/33 34/68/33 98/69/33
f 33/74/34 64/216/34 61/217/34
f 64/216/34 63/218/34 61/217/34
f 63/218/34 62/219/34 61/217/34
f 61/217/34 60/220/34 59/221/34
f 59/221/34 58/222/34 61/217/34
f 58/222/34 57/223/34 61/217/34
f 57/223/34 56/224/34 53/225/34
f 56/224/34 55/226/34 53/225/34
f 55/226/34 54/227/34 53/225/34
f 53/225/34 52/228/34 51/229/34
f 51/229/34 50/230/34 53/225/34
f 50/230/34 49/72/34 53/225/34
f 49/72/34 48/231/34 45/232/34
f 48/231/34 47/233/34 45/232/34
f 47/233/34 46/234/34 45/232/34
f 45/232/34 44/235/34 43/236/34
f 43/236/34 42/237/34 45/232/34
f 42/237/34 41/73/34 45/232/34
f 41/73/34 40/238/34 37/239/34
f 40/238/34 39/240/34 37/239/34
f 39/240/34 38/241/34 37/239/34
f 37/239/34 36/242/34 35/243/34
f 35/243/34 34/244/34 37/239/34
f 34/244/34 33/74/34 37/239/34
f 33/74/34 61/217/34 57/223/34
f 57/223/34 53/225/34 49/72/34
f 49/72/34 45/232/34 41/73/34
f 41/73/34 37/239/34 33/74/34
f 33/74/34 57/223/34 49/72/34
f 96/75/33 65/78/33 129/76/33
f 65/78/32 66/80/32 130/79/32
f 66/80/31 67/82/31 131/81/31
f 67/82/30 68/84/30 132/83/30
f 68/84/29 69/86/29 133/85/29
f 69/86/28 70/88/28 134/87/28
f 70/88/27 71/90/27 135/89/27
f 71/90/26 72/143/26 136/91/26
f 72/92/25 73/95/25 137/93/25
f 73/95/24 74/97/24 138/96/24
f 74/97/23 75/99/23 139/98/23
f 75/99/22 76/101/22 140/100/22
f 76/101/21 77/103/21 141/102/21
f 77/103/20 78/105/20 142/104/20
f 78/105/19 79/107/19 143/106/19
f 79/107/18 80/144/18 144/108/18
f 80/109/17 81/112/17 145/110/17
f 81/112/16 82/114/16 146/113/16
f 82/114/15 83/116/15 147/115/15
f 83/116/14 84/118/14 148/117/14
f 84/118/13 85/120/13 149/119/13
f 85/120/12 86/122/12 150/121/12
f 86/122/11 87/124/11 151/123/11
f 87/124/10 88/145/10 152/125/10
f 88/126/9 89/129/9 153/127/9
f 89/129/8 90/131/8 154/130/8
f 90/131/7 91/133/7 155/132/7
f 91/133/6 92/135/6 156/134/6
f 92/135/5 93/137/5 157/136/5
f 93/137/4 94/139/4 158/138/4
f 94/139/3 95/141/3 159/140/3
f 95/141/2 96/146/2 160/142/2
f 97/71/33 98/69/33 65/78/33
f 98/69/32 99/67/32 66/80/32
f 99/67/31 100/65/31 67/82/31
f 100/65/30 101/63/30 68/84/30
f 101/63/29 102/61/29 69/86/29
f 102/61/28 103/59/28 70/88/28
f 103/59/27 104/57/27 71/90/27
f 104/57/26 105/56/26 72/143/26
f 105/54/25 106/52/25 73/95/25
f 106/52/24 107/50/24 74/97/24
f 107/50/23 108/48/23 75/99/23
f 108/48/22 109/46/22 76/101/22
f 109/46/21 110/44/21 77/103/21
f 110/44/20 111/42/20 78/105/20
f 111/42/19 112/40/19 79/107/19
f 112/40/18 113/39/18 80/144/18
f 113/37/17 114/35/17 81/112/17
f 114/35/16 115/33/16 82/114/16
f 115/33/15 116/31/15 83/116/15
f 116/31/14 117/29/14 84/118/14
f 117/29/13 118/27/13 85/120/13
f 118/27/12 119/25/12 86/122/12
f 119/25/11 120/23/11 87/124/11
f 120/23/10 121/22/10 88/145/10
f 121/20/9 122/18/9 89/129/9
f 122/18/8 123/16/8 90/131/8
f 123/16/7 124/14/7 91/133/7
f 124/14/6 125/12/6 92/135/6
f 125/12/5 126/10/5 93/137/5
f 126/10/4 127/8/4 94/139/4
f 127/8/3 128/6/3 95/141/3
f 128/6/2 97/5/2 96/146/2
f 159/140/2 160/142/2 1/147/2
f 158/138/3 159/140/3 32/148/3
f 157/136/4 158/138/4 31/149/4
f 156/134/5 157/136/5 30/150/5
f 155/132/6 156/134/6 29/151/6
f 154/130/7 155/132/7 28/152/7
f 153/127/8 154/130/8 27/153/8
f 152/128/9 153/127/9 26/154/9
f 151/123/10 152/125/10 25/156/10
f 150/121/11 151/123/11 24/157/11
f 149/119/12 150/121/12 23/158/12
f 148/117/13 149/119/13 22/159/13
f 147/115/14 148/117/14 21/160/14
f 146/113/15 147/115/15 20/161/15
f 145/110/16 146/113/16 19/162/16
f 144/111/17 145/110/17 18/163/17
f 143/106/18 144/108/18 17/165/18
f 142/104/19 143/106/19 16/166/19
f 141/102/20 142/104/20 15/167/20
f 140/100/21 141/102/21 14/168/21
f 139/98/22 140/100/22 13/169/22
f 138/96/23 139/98/23 12/170/23
f 137/93/24 138/96/24 11/171/24
f 136/94/25 137/93/25 10/172/25
f 135/89/26 136/91/26 9/174/26
f 134/87/27 135/89/27 8/175/27
f 133/85/28 134/87/28 7/176/28
f 132/83/29 133/85/29 6/177/29
f 131/81/30 132/83/30 5/178/30
f 130/79/31 131/81/31 4/179/31
f 129/76/32 130/79/32 3/180/32
f 160/77/33 129/76/33 2/181/33
