# Blender 4.5.3 LTS
# www.blender.org
o C1_C2_VR_UW
v 7.819652 -20.607828 7.931647
v 7.937881 -20.763401 7.947387
v 8.069842 -20.900673 7.994001
v 8.210462 -21.014362 8.069699
v 8.354336 -21.100103 8.171572
v 8.495937 -21.154602 8.295703
v 8.629823 -21.175760 8.437324
v 8.750848 -21.162769 8.590990
v 8.854361 -21.116125 8.750799
v 8.936385 -21.037622 8.910608
v 8.993767 -20.930277 9.064275
v 9.024302 -20.798214 9.205895
v 9.026818 -20.646507 9.330027
v 9.001216 -20.480991 9.431899
v 8.948482 -20.308022 9.507597
v 8.870641 -20.134249 9.554212
v 8.770684 -19.966349 9.569951
v 8.652454 -19.810774 9.554212
v 8.520494 -19.673504 9.507597
v 8.379874 -19.559814 9.431899
v 8.236000 -19.474072 9.330027
v 8.094398 -19.419575 9.205895
v 7.960513 -19.398415 9.064275
v 7.839488 -19.411407 8.910608
v 7.735975 -19.458050 8.750799
v 7.653951 -19.536552 8.590990
v 7.596569 -19.643898 8.437324
v 7.566033 -19.775963 8.295703
v 7.563518 -19.927668 8.171572
v 7.589120 -20.093185 8.069699
v 7.641854 -20.266153 7.994001
v 7.719695 -20.439928 7.947387
v 19.364483 -12.820740 -1.819152
v 19.482714 -12.976315 -1.803412
v 19.614674 -13.113584 -1.756798
v 19.755293 -13.227274 -1.681100
v 19.899168 -13.313015 -1.579228
v 20.040770 -13.367513 -1.455096
v 20.174654 -13.388673 -1.313476
v 20.295679 -13.375681 -1.159809
v 20.399193 -13.329038 -1.000000
v 20.481216 -13.250534 -0.840191
v 20.538599 -13.143188 -0.686524
v 20.569136 -13.011126 -0.544904
v 20.571650 -12.859421 -0.420772
v 20.546049 -12.693903 -0.318900
v 20.493315 -12.520934 -0.243202
v 20.415472 -12.347160 -0.196588
v 20.315517 -12.179260 -0.180848
v 20.197287 -12.023685 -0.196588
v 20.065327 -11.886416 -0.243202
v 19.924707 -11.772726 -0.318900
v 19.780832 -11.686985 -0.420772
v 19.639231 -11.632487 -0.544904
v 19.505346 -11.611327 -0.686524
v 19.384321 -11.624319 -0.840191
v 19.280807 -11.670962 -1.000000
v 19.198784 -11.749466 -1.159809
v 19.141401 -11.856812 -1.313476
v 19.110865 -11.988874 -1.455096
v 19.108351 -12.140579 -1.579228
v 19.133951 -12.306097 -1.681100
v 19.186686 -12.479066 -1.756798
v 19.264528 -12.652840 -1.803412
v 13.710298 -16.869858 3.071987
v 13.842258 -17.007128 3.118602
v 13.982878 -17.120819 3.194300
v 14.126753 -17.206558 3.296172
v 14.268353 -17.261057 3.420303
v 14.402239 -17.282217 3.561924
v 14.523264 -17.269226 3.715591
v 14.626777 -17.222582 3.875400
v 14.708801 -17.144077 4.035208
v 14.766183 -17.036732 4.188876
v 14.796719 -16.904671 4.330496
v 14.799234 -16.752964 4.454628
v 14.773632 -16.587448 4.556499
v 14.720898 -16.414478 4.632197
v 14.643057 -16.240704 4.678812
v 14.543100 -16.072803 4.694551
v 14.424870 -15.917230 4.678812
v 14.292910 -15.779960 4.632197
v 14.152290 -15.666269 4.556499
v 14.008415 -15.580528 4.454628
v 13.866816 -15.526031 4.330496
v 13.732929 -15.504871 4.188876
v 13.611904 -15.517862 4.035208
v 13.508391 -15.564507 3.875400
v 13.426367 -15.643009 3.715591
v 13.368985 -15.750355 3.561924
v 13.338449 -15.882418 3.420303
v 13.335934 -16.034122 3.296172
v 13.361536 -16.199640 3.194300
v 13.414270 -16.372610 3.118602
v 13.492111 -16.546383 3.071987
v 13.592068 -16.714283 3.056248
v 16.478275 -14.767511 0.618548
v 16.596506 -14.923086 0.634288
v 16.728466 -15.060356 0.680902
v 16.869085 -15.174046 0.756600
v 17.012960 -15.259788 0.858472
v 17.154562 -15.314285 0.982603
v 17.288446 -15.335444 1.124224
v 17.409472 -15.322453 1.277891
v 17.512985 -15.275809 1.437700
v 17.595009 -15.197307 1.597508
v 17.652391 -15.089961 1.751176
v 17.682926 -14.957898 1.892796
v 17.685442 -14.806192 2.016928
v 17.659840 -14.640675 2.118800
v 17.607105 -14.467706 2.194498
v 17.529264 -14.293932 2.241112
v 17.429308 -14.126032 2.256852
v 17.311079 -13.970458 2.241112
v 17.179119 -13.833188 2.194498
v 17.038498 -13.719498 2.118800
v 16.894625 -13.633757 2.016928
v 16.753023 -13.579259 1.892796
v 16.619137 -13.558100 1.751176
v 16.498112 -13.571091 1.597508
v 16.394600 -13.617735 1.437700
v 16.312576 -13.696238 1.277891
v 16.255194 -13.803583 1.124224
v 16.224657 -13.935646 0.982603
v 16.222141 -14.087351 0.858472
v 16.247744 -14.252869 0.756600
v 16.300478 -14.425838 0.680902
v 16.378319 -14.599611 0.634288
v 10.824089 -18.816629 5.509687
v 10.956050 -18.953899 5.556302
v 11.096669 -19.067589 5.631999
v 11.240543 -19.153332 5.733871
v 11.382145 -19.207829 5.858003
v 11.516030 -19.228989 5.999623
v 11.637055 -19.215996 6.153291
v 11.740568 -19.169353 6.313099
v 11.822593 -19.090851 6.472908
v 11.879974 -18.983505 6.626575
v 11.910510 -18.851442 6.768196
v 11.913025 -18.699738 6.892327
v 11.887424 -18.534218 6.994199
v 11.834689 -18.361250 7.069897
v 11.756848 -18.187477 7.116511
v 11.656892 -18.019577 7.132252
v 11.538662 -17.864002 7.116511
v 11.406701 -17.726732 7.069897
v 11.266082 -17.613041 6.994199
v 11.122208 -17.527300 6.892327
v 10.980606 -17.472803 6.768196
v 10.846721 -17.451643 6.626575
v 10.725696 -17.464634 6.472908
v 10.622183 -17.511278 6.313099
v 10.540158 -17.589781 6.153291
v 10.482777 -17.697126 5.999623
v 10.452241 -17.829189 5.858003
v 10.449725 -17.980896 5.733871
v 10.475327 -18.146412 5.631999
v 10.528062 -18.319382 5.556302
v 10.605903 -18.493156 5.509687
v 10.705859 -18.661057 5.493948
vn -0.6791 -0.4581 0.5736
vn -0.5280 -0.2379 -0.8152
vn -0.6174 -0.0663 -0.7839
vn -0.6830 0.1079 -0.7224
vn -0.7223 0.2780 -0.6332
vn -0.7339 0.4374 -0.5197
vn -0.7173 0.5800 -0.3861
vn -0.6731 0.7002 -0.2378
vn -0.6031 0.7936 -0.0803
vn -0.5099 0.8565 0.0803
vn -0.3971 0.8864 0.2378
vn -0.2690 0.8823 0.3861
vn -0.1306 0.8443 0.5197
vn 0.0128 0.7739 0.6332
vn 0.1558 0.6737 0.7224
vn 0.2927 0.5476 0.7839
vn 0.4184 0.4005 0.8152
vn 0.5280 0.2379 0.8152
vn 0.6174 0.0663 0.7839
vn 0.6830 -0.1079 0.7224
vn 0.7223 -0.2780 0.6332
vn 0.7339 -0.4374 0.5197
vn 0.7173 -0.5800 0.3861
vn 0.6731 -0.7002 0.2378
vn 0.6031 -0.7936 0.0803
vn 0.5099 -0.8565 -0.0803
vn 0.3971 -0.8864 -0.2378
vn 0.2690 -0.8823 -0.3861
vn 0.1306 -0.8443 -0.5197
vn -0.0128 -0.7739 -0.6332
vn -0.1558 -0.6737 -0.7224
vn -0.2927 -0.5476 -0.7839
vn -0.4184 -0.4005 -0.8152
vn 0.6791 0.4581 -0.5736
vn -0.6791 -0.4580 0.5736
vn -0.7173 0.5799 -0.3861
vn 0.7173 -0.5799 0.3861
vt 0.408378 0.055678
vt 0.443116 0.408378
vt 0.090416 0.443116
vt 0.498793 0.086235
vt 0.561444 0.040847
vt 0.561444 0.086235
vt 0.498793 0.134418
vt 0.561444 0.134418
vt 0.498793 0.183545
vt 0.561444 0.183545
vt 0.498793 0.231727
vt 0.561444 0.231727
vt 0.498793 0.277115
vt 0.561444 0.277115
vt 0.498793 0.317962
vt 0.561444 0.317962
vt 0.498793 0.352700
vt 0.561444 0.352700
vt 0.498793 0.393548
vt 0.561444 0.352700
vt 0.561444 0.393548
vt 0.498793 0.438935
vt 0.561444 0.438935
vt 0.498793 0.487118
vt 0.561444 0.487118
vt 0.498793 0.536245
vt 0.561444 0.536245
vt 0.498793 0.584428
vt 0.561444 0.584428
vt 0.498793 0.629815
vt 0.561444 0.629815
vt 0.498793 0.670662
vt 0.561444 0.670662
vt 0.498793 0.705400
vt 0.561444 0.705400
vt 0.749397 0.040847
vt 0.812047 0.000000
vt 0.812047 0.040847
vt 0.749397 0.086235
vt 0.812047 0.086235
vt 0.749397 0.134418
vt 0.812047 0.134418
vt 0.749397 0.183545
vt 0.812047 0.183545
vt 0.749397 0.231727
vt 0.812047 0.231727
vt 0.749397 0.277115
vt 0.812047 0.277115
vt 0.749397 0.317962
vt 0.812047 0.317962
vt 0.749397 0.352700
vt 0.812047 0.352700
vt 0.749397 0.393548
vt 0.812048 0.352700
vt 0.812048 0.393548
vt 0.749397 0.438935
vt 0.812048 0.438935
vt 0.749397 0.487118
vt 0.812048 0.487118
vt 0.749397 0.536245
vt 0.812048 0.536245
vt 0.749397 0.584428
vt 0.812048 0.584428
vt 0.749397 0.629815
vt 0.812047 0.629815
vt 0.749397 0.670662
vt 0.812047 0.670662
vt 0.749397 0.705400
vt 0.812047 0.705400
vt 0.498793 0.040847
vt 0.561444 -0.000000
vt 0.443116 0.589209
vt 0.408378 0.941909
vt 0.055678 0.907171
vt 0.624095 0.040847
vt 0.686746 0.000000
vt 0.686746 0.040847
vt 0.874698 0.705400
vt 0.937349 0.670662
vt 0.937349 0.705400
vt 0.874698 0.670662
vt 0.937349 0.629815
vt 0.874698 0.629815
vt 0.937349 0.584428
vt 0.874698 0.584428
vt 0.937349 0.536245
vt 0.874698 0.536245
vt 0.937349 0.487118
vt 0.874698 0.487118
vt 0.937349 0.438935
vt 0.874698 0.438935
vt 0.937349 0.393548
vt 0.874698 0.393548
vt 0.937349 0.352700
vt 0.874698 0.352700
vt 0.937349 0.317962
vt 0.937349 0.352700
vt 0.874698 0.317962
vt 0.937349 0.277115
vt 0.874698 0.277115
vt 0.937349 0.231727
vt 0.874698 0.231727
vt 0.937349 0.183545
vt 0.874698 0.183545
vt 0.937349 0.134418
vt 0.874698 0.134418
vt 0.937349 0.086235
vt 0.874698 0.086235
vt 0.937349 0.040847
vt 0.874698 0.040847
vt 0.937349 0.000000
vt 0.624095 0.705400
vt 0.686746 0.670662
vt 0.686746 0.705400
vt 0.624095 0.670662
vt 0.686746 0.629815
vt 0.624095 0.629815
vt 0.686746 0.584428
vt 0.624095 0.584428
vt 0.686746 0.536245
vt 0.624095 0.536245
vt 0.686746 0.487118
vt 0.624095 0.487118
vt 0.686746 0.438935
vt 0.624095 0.438935
vt 0.686746 0.393548
vt 0.624095 0.393548
vt 0.686746 0.352700
vt 0.624095 0.352700
vt 0.686746 0.317962
vt 0.686746 0.352700
vt 0.624095 0.317962
vt 0.686746 0.277115
vt 0.624095 0.277115
vt 0.686746 0.231727
vt 0.624095 0.231727
vt 0.686746 0.183545
vt 0.624095 0.183545
vt 0.686746 0.134418
vt 0.624095 0.134418
vt 0.686746 0.086235
vt 0.624095 0.086235
vt 0.624095 0.000000
vt 0.874698 0.352700
vt 0.874698 0.000000
vt 0.624095 0.352700
vt 0.749397 0.040847
vt 0.749397 0.086235
vt 0.749397 0.134418
vt 0.749397 0.183545
vt 0.749397 0.231727
vt 0.749397 0.277115
vt 0.749397 0.352700
vt 0.749397 0.438935
vt 0.749397 0.487118
vt 0.749397 0.536245
vt 0.749397 0.584428
vt 0.749397 0.629815
vt 0.749397 0.670662
vt 0.749397 0.705400
vt 1.000000 0.000000
vt 1.000000 0.040848
vt 1.000000 0.086235
vt 1.000000 0.134418
vt 1.000000 0.183545
vt 1.000000 0.231727
vt 1.000000 0.277115
vt 1.000000 0.317962
vt 1.000000 0.352700
vt 1.000000 0.352700
vt 1.000000 0.393548
vt 1.000000 0.438935
vt 1.000000 0.487118
vt 1.000000 0.536245
vt 1.000000 0.584428
vt 1.000000 0.629815
vt 1.000000 0.670662
vt 1.000000 0.705400
vt 0.749397 0.000000
vt 0.055678 0.408378
vt 0.028384 0.367530
vt 0.009584 0.322143
vt -0.000000 0.273960
vt 0.000000 0.224833
vt 0.009584 0.176650
vt 0.028384 0.131263
vt 0.055678 0.090416
vt 0.090416 0.055678
vt 0.131263 0.028384
vt 0.176650 0.009584
vt 0.224833 -0.000000
vt 0.273960 -0.000000
vt 0.322143 0.009584
vt 0.367530 0.028384
vt 0.443116 0.090416
vt 0.470409 0.131263
vt 0.489209 0.176650
vt 0.498793 0.224833
vt 0.498793 0.273960
vt 0.489209 0.322143
vt 0.470409 0.367530
vt 0.408378 0.443116
vt 0.367530 0.470409
vt 0.322143 0.489209
vt 0.273960 0.498793
vt 0.224833 0.498793
vt 0.176650 0.489209
vt 0.131263 0.470409
vt 0.498793 0.352700
vt 0.749397 -0.000000
vt 0.498793 -0.000000
vt 0.028384 0.866324
vt 0.000000 0.723627
vt 0.009584 0.820936
vt 0.000000 0.772753
vt 0.009584 0.675444
vt 0.028384 0.630056
vt 0.055678 0.589209
vt 0.090416 0.554471
vt 0.131263 0.527178
vt 0.273960 0.498793
vt 0.176650 0.508377
vt 0.224833 0.498793
vt 0.322143 0.508377
vt 0.367530 0.527178
vt 0.408378 0.554471
vt 0.470409 0.630056
vt 0.498793 0.772753
vt 0.489209 0.675444
vt 0.498793 0.723627
vt 0.489209 0.820936
vt 0.470409 0.866324
vt 0.443116 0.907171
vt 0.367530 0.969202
vt 0.224833 0.997587
vt 0.322143 0.988002
vt 0.273960 0.997587
vt 0.176650 0.988002
vt 0.131263 0.969202
vt 0.090416 0.941909
s 0
f 16/1/1 24/2/1 32/3/1
f 64/4/2 97/5/2 128/6/2
f 63/7/3 128/6/3 127/8/3
f 62/9/4 127/8/4 126/10/4
f 61/11/5 126/10/5 125/12/5
f 60/13/6 125/12/6 124/14/6
f 59/15/7 124/14/7 123/16/7
f 58/17/8 123/16/8 122/18/8
f 57/19/9 122/20/9 121/21/9
f 56/22/10 121/21/10 120/23/10
f 55/24/11 120/23/11 119/25/11
f 54/26/12 119/25/12 118/27/12
f 53/28/13 118/27/13 117/29/13
f 52/30/14 117/29/14 116/31/14
f 51/32/15 116/31/15 115/33/15
f 50/34/16 115/33/16 114/35/16
f 49/36/17 114/37/17 113/38/17
f 48/39/18 113/38/18 112/40/18
f 47/41/19 112/40/19 111/42/19
f 46/43/20 111/42/20 110/44/20
f 45/45/21 110/44/21 109/46/21
f 44/47/22 109/46/22 108/48/22
f 43/49/23 108/48/23 107/50/23
f 42/51/24 107/50/24 106/52/24
f 41/53/25 106/54/25 105/55/25
f 40/56/26 105/55/26 104/57/26
f 39/58/27 104/57/27 103/59/27
f 38/60/28 103/59/28 102/61/28
f 37/62/29 102/61/29 101/63/29
f 36/64/30 101/63/30 100/65/30
f 35/66/31 100/65/31 99/67/31
f 34/68/32 99/67/32 98/69/32
f 33/70/33 98/71/33 97/5/33
f 49/72/34 41/73/34 33/74/34
f 96/75/33 129/76/33 160/77/33
f 65/78/32 130/79/32 129/80/32
f 66/81/31 131/82/31 130/79/31
f 67/83/30 132/84/30 131/82/30
f 68/85/29 133/86/29 132/84/29
f 69/87/28 134/88/28 133/86/28
f 70/89/27 135/90/27 134/88/27
f 71/91/26 136/92/26 135/90/26
f 72/93/25 137/94/25 136/92/25
f 73/95/24 138/96/24 137/97/24
f 74/98/23 139/99/23 138/96/23
f 75/100/22 140/101/22 139/99/22
f 76/102/21 141/103/21 140/101/21
f 77/104/20 142/105/20 141/103/20
f 78/106/19 143/107/19 142/105/19
f 79/108/18 144/109/18 143/107/18
f 80/110/17 145/111/17 144/109/17
f 81/112/16 146/113/16 145/114/16
f 82/115/15 147/116/15 146/113/15
f 83/117/14 148/118/14 147/116/14
f 84/119/13 149/120/13 148/118/13
f 85/121/12 150/122/12 149/120/12
f 86/123/11 151/124/11 150/122/11
f 87/125/10 152/126/10 151/124/10
f 88/127/9 153/128/9 152/126/9
f 89/129/8 154/130/8 153/131/8
f 90/132/7 155/133/7 154/130/7
f 91/134/6 156/135/6 155/133/6
f 92/136/5 157/137/5 156/135/5
f 93/138/4 158/139/4 157/137/4
f 94/140/3 159/141/3 158/139/3
f 95/142/2 160/77/2 159/141/2
f 97/5/33 65/143/33 96/75/33
f 98/69/32 66/81/32 65/78/32
f 99/67/31 67/83/31 66/81/31
f 100/65/30 68/85/30 67/83/30
f 101/63/29 69/87/29 68/85/29
f 102/61/28 70/89/28 69/87/28
f 103/59/27 71/91/27 70/89/27
f 104/57/26 72/93/26 71/91/26
f 105/55/25 73/144/25 72/93/25
f 106/52/24 74/98/24 73/95/24
f 107/50/23 75/100/23 74/98/23
f 108/48/22 76/102/22 75/100/22
f 109/46/21 77/104/21 76/102/21
f 110/44/20 78/106/20 77/104/20
f 111/42/19 79/108/19 78/106/19
f 112/40/18 80/110/18 79/108/18
f 113/38/17 81/145/17 80/110/17
f 114/35/16 82/115/16 81/112/16
f 115/33/15 83/117/15 82/115/15
f 116/31/14 84/119/14 83/117/14
f 117/29/13 85/121/13 84/119/13
f 118/27/12 86/123/12 85/121/12
f 119/25/11 87/125/11 86/123/11
f 120/23/10 88/127/10 87/125/10
f 121/21/9 89/146/9 88/127/9
f 122/18/8 90/132/8 89/129/8
f 123/16/7 91/134/7 90/132/7
f 124/14/6 92/136/6 91/134/6
f 125/12/5 93/138/5 92/136/5
f 126/10/4 94/140/4 93/138/4
f 127/8/3 95/142/3 94/140/3
f 128/6/2 96/75/2 95/142/2
f 159/141/2 1/147/2 32/148/2
f 158/139/3 32/148/3 31/149/3
f 157/137/4 31/149/4 30/150/4
f 156/135/5 30/150/5 29/151/5
f 155/133/6 29/151/6 28/152/6
f 154/130/7 28/152/7 27/49/7
f 153/131/8 27/49/8 26/51/8
f 152/126/9 26/153/9 25/53/9
f 151/124/10 25/53/10 24/154/10
f 150/122/11 24/154/11 23/155/11
f 149/120/12 23/155/12 22/156/12
f 148/118/13 22/156/13 21/157/13
f 147/116/14 21/157/14 20/158/14
f 146/113/15 20/158/15 19/159/15
f 145/114/16 19/159/16 18/160/16
f 144/109/17 18/161/17 17/162/17
f 143/107/18 17/162/18 16/163/18
f 142/105/19 16/163/19 15/164/19
f 141/103/20 15/164/20 14/165/20
f 140/101/21 14/165/21 13/166/21
f 139/99/22 13/166/22 12/167/22
f 138/96/23 12/167/23 11/168/23
f 137/97/24 11/168/24 10/169/24
f 136/92/25 10/170/25 9/171/25
f 135/90/26 9/171/26 8/172/26
f 134/88/27 8/172/27 7/173/27
f 133/86/28 7/173/28 6/174/28
f 132/84/29 6/174/29 5/175/29
f 131/82/30 5/175/30 4/176/30
f 130/79/31 4/176/31 3/177/31
f 129/80/32 3/177/32 2/178/32
f 160/77/33 2/179/33 1/147/33
f 32/3/1 1/180/1 2/181/1
f 2/181/1 3/182/1 4/183/1
f 4/183/1 5/184/1 6/185/1
f 6/185/1 7/186/1 8/187/1
f 8/187/1 9/188/1 10/189/1
f 10/189/1 11/190/1 12/191/1
f 12/191/1 13/192/1 14/193/1
f 14/193/1 15/194/1 16/1/1
f 16/1/1 17/195/1 18/196/1
f 18/196/1 19/197/1 20/198/1
f 20/198/1 21/199/1 22/200/1
f 22/200/1 23/201/1 24/2/1
f 24/2/1 25/202/1 26/203/1
f 26/203/1 27/204/1 28/205/1
f 28/205/1 29/206/1 30/207/1
f 30/207/1 31/208/1 32/3/1
f 32/3/1 2/181/1 8/187/1
f 2/181/1 4/183/1 8/187/1
f 4/183/35 6/185/35 8/187/35
f 8/187/1 10/189/1 16/1/1
f 10/189/1 12/191/1 16/1/1
f 12/191/1 14/193/1 16/1/1
f 16/1/1 18/196/1 24/2/1
f 18/196/1 20/198/1 24/2/1
f 20/198/1 22/200/1 24/2/1
f 24/2/1 26/203/1 32/3/1
f 26/203/1 28/205/1 32/3/1
f 28/205/1 30/207/1 32/3/1
f 32/3/1 8/187/1 16/1/1
f 64/4/2 33/70/2 97/5/2
f 63/7/3 64/4/3 128/6/3
f 62/9/4 63/7/4 127/8/4
f 61/11/5 62/9/5 126/10/5
f 60/13/6 61/11/6 125/12/6
f 59/15/36 60/13/36 124/14/36
f 58/17/8 59/15/8 123/16/8
f 57/19/9 58/209/9 122/20/9
f 56/22/10 57/19/10 121/21/10
f 55/24/11 56/22/11 120/23/11
f 54/26/12 55/24/12 119/25/12
f 53/28/13 54/26/13 118/27/13
f 52/30/14 53/28/14 117/29/14
f 51/32/15 52/30/15 116/31/15
f 50/34/16 51/32/16 115/33/16
f 49/36/17 50/210/17 114/37/17
f 48/39/18 49/36/18 113/38/18
f 47/41/19 48/39/19 112/40/19
f 46/43/20 47/41/20 111/42/20
f 45/45/21 46/43/21 110/44/21
f 44/47/22 45/45/22 109/46/22
f 43/49/37 44/47/37 108/48/37
f 42/51/24 43/49/24 107/50/24
f 41/53/25 42/153/25 106/54/25
f 40/56/26 41/53/26 105/55/26
f 39/58/27 40/56/27 104/57/27
f 38/60/28 39/58/28 103/59/28
f 37/62/29 38/60/29 102/61/29
f 36/64/30 37/62/30 101/63/30
f 35/66/31 36/64/31 100/65/31
f 34/68/32 35/66/32 99/67/32
f 33/70/33 34/211/33 98/71/33
f 33/74/34 64/212/34 61/213/34
f 64/212/34 63/214/34 61/213/34
f 63/214/34 62/215/34 61/213/34
f 61/213/34 60/216/34 59/217/34
f 59/217/34 58/218/34 61/213/34
f 58/218/34 57/219/34 61/213/34
f 57/219/34 56/220/34 53/221/34
f 56/220/34 55/222/34 53/221/34
f 55/222/34 54/223/34 53/221/34
f 53/221/34 52/224/34 51/225/34
f 51/225/34 50/226/34 53/221/34
f 50/226/34 49/72/34 53/221/34
f 49/72/34 48/227/34 45/228/34
f 48/227/34 47/229/34 45/228/34
f 47/229/34 46/230/34 45/228/34
f 45/228/34 44/231/34 43/232/34
f 43/232/34 42/233/34 45/228/34
f 42/233/34 41/73/34 45/228/34
f 41/73/34 40/234/34 37/235/34
f 40/234/34 39/236/34 37/235/34
f 39/236/34 38/237/34 37/235/34
f 37/235/34 36/238/34 35/239/34
f 35/239/34 34/240/34 37/235/34
f 34/240/34 33/74/34 37/235/34
f 33/74/34 61/213/34 57/219/34
f 57/219/34 53/221/34 49/72/34
f 49/72/34 45/228/34 41/73/34
f 41/73/34 37/235/34 33/74/34
f 33/74/34 57/219/34 49/72/34
f 96/75/33 65/143/33 129/76/33
f 65/78/32 66/81/32 130/79/32
f 66/81/31 67/83/31 131/82/31
f 67/83/30 68/85/30 132/84/30
f 68/85/29 69/87/29 133/86/29
f 69/87/28 70/89/28 134/88/28
f 70/89/27 71/91/27 135/90/27
f 71/91/26 72/93/26 136/92/26
f 72/93/25 73/144/25 137/94/25
f 73/95/24 74/98/24 138/96/24
f 74/98/37 75/100/37 139/99/37
f 75/100/22 76/102/22 140/101/22
f 76/102/21 77/104/21 141/103/21
f 77/104/20 78/106/20 142/105/20
f 78/106/19 79/108/19 143/107/19
f 79/108/18 80/110/18 144/109/18
f 80/110/17 81/145/17 145/111/17
f 81/112/16 82/115/16 146/113/16
f 82/115/15 83/117/15 147/116/15
f 83/117/14 84/119/14 148/118/14
f 84/119/13 85/121/13 149/120/13
f 85/121/12 86/123/12 150/122/12
f 86/123/11 87/125/11 151/124/11
f 87/125/10 88/127/10 152/126/10
f 88/127/9 89/146/9 153/128/9
f 89/129/8 90/132/8 154/130/8
f 90/132/36 91/134/36 155/133/36
f 91/134/6 92/136/6 156/135/6
f 92/136/5 93/138/5 157/137/5
f 93/138/4 94/140/4 158/139/4
f 94/140/3 95/142/3 159/141/3
f 95/142/2 96/75/2 160/77/2
f 97/5/33 98/71/33 65/143/33
f 98/69/32 99/67/32 66/81/32
f 99/67/31 100/65/31 67/83/31
f 100/65/30 101/63/30 68/85/30
f 101/63/29 102/61/29 69/87/29
f 102/61/28 103/59/28 70/89/28
f 103/59/27 104/57/27 71/91/27
f 104/57/26 105/55/26 72/93/26
f 105/55/25 106/54/25 73/144/25
f 106/52/24 107/50/24 74/98/24
f 107/50/37 108/48/37 75/100/37
f 108/48/22 109/46/22 76/102/22
f 109/46/21 110/44/21 77/104/21
f 110/44/20 111/42/20 78/106/20
f 111/42/19 112/40/19 79/108/19
f 112/40/18 113/38/18 80/110/18
f 113/38/17 114/37/17 81/145/17
f 114/35/16 115/33/16 82/115/16
f 115/33/15 116/31/15 83/117/15
f 116/31/14 117/29/14 84/119/14
f 117/29/13 118/27/13 85/121/13
f 118/27/12 119/25/12 86/123/12
f 119/25/11 120/23/11 87/125/11
f 120/23/10 121/21/10 88/127/10
f 121/21/9 122/20/9 89/146/9
f 122/18/8 123/16/8 90/132/8
f 123/16/36 124/14/36 91/134/36
f 124/14/6 125/12/6 92/136/6
f 125/12/5 126/10/5 93/138/5
f 126/10/4 127/8/4 94/140/4
f 127/8/3 128/6/3 95/142/3
f 128/6/2 97/5/2 96/75/2
f 159/141/2 160/77/2 1/147/2
f 158/139/3 159/141/3 32/148/3
f 157/137/4 158/139/4 31/149/4
f 156/135/5 157/137/5 30/150/5
f 155/133/6 156/135/6 29/151/6
f 154/130/36 155/133/36 28/152/36
f 153/131/8 154/130/8 27/49/8
f 152/126/9 153/128/9 26/153/9
f 151/124/10 152/126/10 25/53/10
f 150/122/11 151/124/11 24/154/11
f 149/120/12 150/122/12 23/155/12
f 148/118/13 149/120/13 22/156/13
f 147/116/14 148/118/14 21/157/14
f 146/113/15 147/116/15 20/158/15
f 145/114/16 146/113/16 19/159/16
f 144/109/17 145/111/17 18/161/17
f 143/107/18 144/109/18 17/162/18
f 142/105/19 143/107/19 16/163/19
f 141/103/20 142/105/20 15/164/20
f 140/101/21 141/103/21 14/165/21
f 139/99/22 140/101/22 13/166/22
f 138/96/37 139/99/37 12/167/37
f 137/97/24 138/96/24 11/168/24
f 136/92/25 137/94/25 10/170/25
f 135/90/26 136/92/26 9/171/26
f 134/88/27 135/90/27 8/172/27
f 133/86/28 134/88/28 7/173/28
f 132/84/29 133/86/29 6/174/29
f 131/82/30 132/84/30 5/175/30
f 130/79/31 131/82/31 4/176/31
f 129/80/32 130/79/32 3/177/32
f 160/77/33 129/76/33 2/179/33
