# Blender 4.5.3 LTS
# www.blender.org
o C1_C2_VL_AIR
v -14.680350 -35.607830 -9.931645
v -14.562119 -35.763405 -9.947385
v -14.430161 -35.900673 -9.993999
v -14.289540 -36.014362 -10.069697
v -14.145665 -36.100105 -10.171570
v -14.004065 -36.154602 -10.295700
v -13.870179 -36.175762 -10.437321
v -13.749154 -36.162769 -10.590989
v -13.645641 -36.116127 -10.750797
v -13.563617 -36.037624 -10.910605
v -13.506235 -35.930279 -11.064274
v -13.475698 -35.798218 -11.205894
v -13.473184 -35.646511 -11.330025
v -13.498785 -35.480991 -11.431897
v -13.551520 -35.308022 -11.507595
v -13.629361 -35.134251 -11.554210
v -13.729318 -34.966351 -11.569949
v -13.847548 -34.810776 -11.554210
v -13.979507 -34.673504 -11.507595
v -14.120128 -34.559814 -11.431897
v -14.264003 -34.474072 -11.330025
v -14.405603 -34.419575 -11.205894
v -14.539489 -34.398415 -11.064274
v -14.660514 -34.411407 -10.910605
v -14.764027 -34.458050 -10.750797
v -14.846051 -34.536552 -10.590989
v -14.903433 -34.643898 -10.437321
v -14.933969 -34.775963 -10.295700
v -14.936484 -34.927666 -10.171570
v -14.910883 -35.093185 -10.069697
v -14.858148 -35.266155 -9.993999
v -14.780307 -35.439926 -9.947385
v -3.135517 -27.820740 -0.180848
v -3.017287 -27.976315 -0.196588
v -2.885327 -28.113585 -0.243203
v -2.744707 -28.227274 -0.318901
v -2.600832 -28.313017 -0.420773
v -2.459231 -28.367514 -0.544904
v -2.325346 -28.388674 -0.686524
v -2.204321 -28.375681 -0.840192
v -2.100808 -28.329039 -1.000001
v -2.018784 -28.250536 -1.159809
v -1.961401 -28.143188 -1.313477
v -1.930866 -28.011127 -1.455097
v -1.928351 -27.859423 -1.579228
v -1.953952 -27.693905 -1.681101
v -2.006687 -27.520933 -1.756799
v -2.084528 -27.347162 -1.803413
v -2.184484 -27.179260 -1.819153
v -2.302715 -27.023685 -1.803413
v -2.434675 -26.886417 -1.756799
v -2.575294 -26.772726 -1.681101
v -2.719170 -26.686985 -1.579228
v -2.860770 -26.632486 -1.455097
v -2.994655 -26.611328 -1.313477
v -3.115680 -26.624319 -1.159809
v -3.219194 -26.670963 -1.000001
v -3.301218 -26.749466 -0.840192
v -3.358600 -26.856812 -0.686524
v -3.389136 -26.988874 -0.544904
v -3.391651 -27.140579 -0.420773
v -3.366049 -27.306097 -0.318901
v -3.313314 -27.479067 -0.243203
v -3.235474 -27.652840 -0.196588
v -8.789703 -31.869860 -5.071986
v -8.657743 -32.007126 -5.118601
v -8.517123 -32.120819 -5.194299
v -8.373248 -32.206558 -5.296171
v -8.231647 -32.261059 -5.420302
v -8.097763 -32.282219 -5.561923
v -7.976738 -32.269226 -5.715590
v -7.873224 -32.222580 -5.875399
v -7.791201 -32.144081 -6.035207
v -7.733818 -32.036736 -6.188875
v -7.703281 -31.904671 -6.330495
v -7.700767 -31.752966 -6.454627
v -7.726369 -31.587448 -6.556499
v -7.779104 -31.414478 -6.632196
v -7.856944 -31.240705 -6.678811
v -7.956901 -31.072805 -6.694551
v -8.075131 -30.917229 -6.678811
v -8.207090 -30.779961 -6.632196
v -8.347711 -30.666271 -6.556499
v -8.491586 -30.580528 -6.454627
v -8.633186 -30.526031 -6.330495
v -8.767072 -30.504871 -6.188875
v -8.888097 -30.517864 -6.035207
v -8.991610 -30.564507 -5.875399
v -9.073634 -30.643009 -5.715590
v -9.131017 -30.750355 -5.561923
v -9.161552 -30.882418 -5.420302
v -9.164067 -31.034122 -5.296171
v -9.138466 -31.199640 -5.194299
v -9.085731 -31.372612 -5.118601
v -9.007890 -31.546383 -5.071986
v -8.907933 -31.714285 -5.056247
v -6.021725 -29.767513 -2.618547
v -5.903495 -29.923088 -2.634287
v -5.771535 -30.060356 -2.680902
v -5.630915 -30.174047 -2.756599
v -5.487040 -30.259789 -2.858472
v -5.345439 -30.314285 -2.982603
v -5.211555 -30.335445 -3.124223
v -5.090529 -30.322453 -3.277891
v -4.987016 -30.275810 -3.437700
v -4.904992 -30.197308 -3.597508
v -4.847610 -30.089962 -3.751176
v -4.817074 -29.957899 -3.892797
v -4.814559 -29.806194 -4.016928
v -4.840160 -29.640676 -4.118800
v -4.892896 -29.467707 -4.194498
v -4.970736 -29.293934 -4.241112
v -5.070693 -29.126032 -4.256852
v -5.188923 -28.970457 -4.241112
v -5.320883 -28.833189 -4.194498
v -5.461503 -28.719498 -4.118800
v -5.605378 -28.633757 -4.016928
v -5.746978 -28.579258 -3.892797
v -5.880863 -28.558100 -3.751176
v -6.001888 -28.571091 -3.597508
v -6.105402 -28.617735 -3.437700
v -6.187426 -28.696238 -3.277891
v -6.244808 -28.803583 -3.124223
v -6.275344 -28.935646 -2.982603
v -6.277859 -29.087351 -2.858472
v -6.252257 -29.252869 -2.756599
v -6.199522 -29.425838 -2.680902
v -6.121682 -29.599611 -2.634287
v -11.675911 -33.816631 -7.509686
v -11.543952 -33.953899 -7.556300
v -11.403332 -34.067593 -7.631998
v -11.259457 -34.153332 -7.733870
v -11.117856 -34.207832 -7.858001
v -10.983971 -34.228989 -7.999622
v -10.862946 -34.215996 -8.153290
v -10.759433 -34.169353 -8.313098
v -10.677408 -34.090851 -8.472906
v -10.620027 -33.983505 -8.626574
v -10.589490 -33.851444 -8.768194
v -10.586975 -33.699738 -8.892326
v -10.612577 -33.534222 -8.994198
v -10.665312 -33.361252 -9.069896
v -10.743153 -33.187477 -9.116510
v -10.843109 -33.019577 -9.132250
v -10.961340 -32.864002 -9.116510
v -11.093299 -32.726734 -9.069896
v -11.233919 -32.613041 -8.994198
v -11.377794 -32.527302 -8.892326
v -11.519395 -32.472801 -8.768194
v -11.653280 -32.451645 -8.626574
v -11.774305 -32.464638 -8.472906
v -11.877818 -32.511280 -8.313098
v -11.959843 -32.589783 -8.153290
v -12.017224 -32.697128 -7.999622
v -12.047761 -32.829189 -7.858001
v -12.050276 -32.980896 -7.733870
v -12.024673 -33.146412 -7.631998
v -11.971939 -33.319382 -7.556300
v -11.894098 -33.493156 -7.509686
v -11.794142 -33.661057 -7.493946
vn -0.6791 -0.4581 -0.5736
vn -0.5280 -0.2379 0.8152
vn -0.6174 -0.0663 0.7839
vn -0.6830 0.1079 0.7224
vn -0.7223 0.2780 0.6332
vn -0.7339 0.4374 0.5197
vn -0.7173 0.5800 0.3861
vn -0.6731 0.7002 0.2378
vn -0.6031 0.7936 0.0803
vn -0.5099 0.8565 -0.0803
vn -0.3971 0.8864 -0.2378
vn -0.2690 0.8823 -0.3861
vn -0.1306 0.8443 -0.5197
vn 0.0128 0.7739 -0.6332
vn 0.1558 0.6737 -0.7224
vn 0.2927 0.5476 -0.7839
vn 0.4184 0.4005 -0.8152
vn 0.5280 0.2379 -0.8152
vn 0.6174 0.0663 -0.7839
vn 0.6830 -0.1079 -0.7224
vn 0.7223 -0.2780 -0.6332
vn 0.7339 -0.4374 -0.5197
vn 0.7173 -0.5800 -0.3861
vn 0.6731 -0.7002 -0.2378
vn 0.6031 -0.7936 -0.0803
vn 0.5099 -0.8565 0.0803
vn 0.3971 -0.8864 0.2378
vn 0.2690 -0.8823 0.3861
vn 0.1306 -0.8443 0.5197
vn -0.0128 -0.7739 0.6332
vn -0.1558 -0.6737 0.7224
vn -0.2927 -0.5476 0.7839
vn -0.4184 -0.4005 0.8152
vn 0.6791 0.4581 0.5736
vt 0.258279 0.207097
vt 0.415452 0.015582
vt 0.606967 0.172754
vt 0.857650 0.992714
vt 0.783166 0.954802
vt 0.857273 0.954529
vt 0.924343 0.992468
vt 0.923966 0.954282
vt 0.981062 0.992258
vt 0.980684 0.954073
vt 0.468862 0.688655
vt 0.401791 0.650716
vt 0.468485 0.650470
vt 0.542968 0.688381
vt 0.542590 0.650196
vt 0.621639 0.688091
vt 0.621261 0.649905
vt 0.701851 0.687794
vt 0.701473 0.649609
vt 0.780521 0.687504
vt 0.780143 0.649318
vt 0.854627 0.687230
vt 0.854249 0.649045
vt 0.921321 0.686984
vt 0.920943 0.648798
vt 0.978039 0.686775
vt 0.977662 0.648589
vt 0.470374 0.841397
vt 0.403302 0.803458
vt 0.469996 0.803211
vt 0.544480 0.841123
vt 0.544102 0.802938
vt 0.623151 0.840833
vt 0.622773 0.802647
vt 0.703362 0.840536
vt 0.702984 0.802351
vt 0.782033 0.840246
vt 0.781655 0.802060
vt 0.856139 0.839972
vt 0.855761 0.801787
vt 0.922832 0.839726
vt 0.922454 0.801540
vt 0.979551 0.839516
vt 0.979173 0.801331
vt 0.467351 0.535913
vt 0.400280 0.497974
vt 0.466973 0.497728
vt 0.541457 0.535639
vt 0.541079 0.497454
vt 0.620127 0.535349
vt 0.619750 0.497163
vt 0.700339 0.535053
vt 0.699962 0.496867
vt 0.779010 0.534762
vt 0.778632 0.496577
vt 0.853116 0.534488
vt 0.852738 0.496303
vt 0.919810 0.534242
vt 0.919432 0.496057
vt 0.976528 0.534033
vt 0.976150 0.495847
vt 0.471885 0.994139
vt 0.404813 0.956200
vt 0.471507 0.955953
vt 0.545991 0.993865
vt 0.545613 0.955680
vt 0.624662 0.993574
vt 0.624284 0.955389
vt 0.704873 0.993278
vt 0.704495 0.955093
vt 0.783544 0.992988
vt 0.798483 0.015582
vt 0.955656 0.207097
vt 0.764140 0.364270
vt 0.782788 0.916617
vt 0.703740 0.878722
vt 0.782411 0.878431
vt 0.704117 0.916907
vt 0.623528 0.879018
vt 0.623906 0.917204
vt 0.544858 0.879309
vt 0.545235 0.917494
vt 0.470751 0.879582
vt 0.471129 0.917768
vt 0.404058 0.879829
vt 0.975773 0.457662
vt 0.918676 0.419686
vt 0.975395 0.419476
vt 0.919054 0.457871
vt 0.851982 0.419932
vt 0.852360 0.458118
vt 0.777877 0.420206
vt 0.778254 0.458391
vt 0.699206 0.420496
vt 0.699584 0.458682
vt 0.618994 0.420793
vt 0.619372 0.458978
vt 0.540324 0.421083
vt 0.540701 0.459268
vt 0.466218 0.421357
vt 0.466596 0.459542
vt 0.399524 0.421603
vt 0.978795 0.763145
vt 0.921699 0.725169
vt 0.978418 0.724960
vt 0.922077 0.763355
vt 0.855006 0.725416
vt 0.855384 0.763601
vt 0.780899 0.725689
vt 0.781277 0.763875
vt 0.702229 0.725980
vt 0.702606 0.764165
vt 0.622017 0.726276
vt 0.622395 0.764462
vt 0.543346 0.726567
vt 0.543724 0.764752
vt 0.469240 0.726840
vt 0.469618 0.765026
vt 0.402547 0.727087
vt 0.977284 0.610403
vt 0.920188 0.572428
vt 0.976906 0.572218
vt 0.920565 0.610613
vt 0.853494 0.572674
vt 0.853871 0.610859
vt 0.779388 0.572948
vt 0.779766 0.611133
vt 0.700717 0.573238
vt 0.701095 0.611424
vt 0.620505 0.573534
vt 0.620883 0.611720
vt 0.541835 0.573825
vt 0.542213 0.612010
vt 0.467729 0.574099
vt 0.468107 0.612284
vt 0.401035 0.574345
vt 0.980307 0.915887
vt 0.923210 0.877911
vt 0.979929 0.877702
vt 0.923588 0.916097
vt 0.856517 0.878158
vt 0.856895 0.916343
vt 0.404436 0.918014
vt 0.399902 0.459789
vt 0.402924 0.765272
vt 0.401413 0.612530
vt 0.400657 0.536159
vt 0.467351 0.535913
vt 0.541457 0.535639
vt 0.402169 0.688901
vt 0.468862 0.688655
vt 0.542969 0.688381
vt 0.621640 0.688091
vt 0.701851 0.687794
vt 0.780522 0.687504
vt 0.854628 0.687230
vt 0.921321 0.686984
vt 0.978040 0.686775
vt 0.399146 0.383418
vt 0.465840 0.383171
vt 0.539946 0.382898
vt 0.618616 0.382607
vt 0.698828 0.382311
vt 0.777499 0.382020
vt 0.851605 0.381747
vt 0.918299 0.381500
vt 0.975017 0.381291
vt 0.403680 0.841643
vt 0.544480 0.841123
vt 0.623151 0.840833
vt 0.449795 0.364270
vt 0.415452 0.364270
vt 0.381769 0.357570
vt 0.350040 0.344428
vt 0.321485 0.325348
vt 0.297201 0.301064
vt 0.278121 0.272509
vt 0.264979 0.240780
vt 0.258279 0.172755
vt 0.264979 0.139072
vt 0.278121 0.107343
vt 0.297201 0.078788
vt 0.321485 0.054504
vt 0.350040 0.035424
vt 0.381769 0.022282
vt 0.449795 0.015582
vt 0.483478 0.022282
vt 0.515206 0.035424
vt 0.543761 0.054504
vt 0.568045 0.078788
vt 0.587125 0.107343
vt 0.600267 0.139071
vt 0.606967 0.207097
vt 0.600267 0.240780
vt 0.587125 0.272509
vt 0.568045 0.301064
vt 0.543761 0.325348
vt 0.515206 0.344428
vt 0.483477 0.357570
vt 0.402169 0.688901
vt 0.400657 0.536159
vt 0.405191 0.994385
vt 0.730457 0.357570
vt 0.698729 0.344428
vt 0.670174 0.325348
vt 0.645889 0.301064
vt 0.626810 0.272509
vt 0.613667 0.240780
vt 0.606967 0.207097
vt 0.606967 0.172755
vt 0.613667 0.139072
vt 0.670173 0.054504
vt 0.626810 0.107343
vt 0.645889 0.078788
vt 0.698728 0.035424
vt 0.730457 0.022282
vt 0.764140 0.015582
vt 0.832166 0.022282
vt 0.863894 0.035424
vt 0.892449 0.054504
vt 0.916734 0.078788
vt 0.935814 0.107343
vt 0.948956 0.139071
vt 0.955656 0.172754
vt 0.948956 0.240780
vt 0.892450 0.325348
vt 0.935813 0.272509
vt 0.916734 0.301064
vt 0.863895 0.344428
vt 0.832166 0.357570
vt 0.798483 0.364270
s 0
f 8/1/1 24/3/1 16/2/1
f 64/4/2 128/6/2 97/5/2
f 63/7/3 127/8/3 128/6/3
f 62/9/4 126/10/4 127/8/4
f 61/11/5 125/13/5 126/12/5
f 60/14/6 124/15/6 125/13/6
f 59/16/7 123/17/7 124/15/7
f 58/18/8 122/19/8 123/17/8
f 57/20/9 121/21/9 122/19/9
f 56/22/10 120/23/10 121/21/10
f 55/24/11 119/25/11 120/23/11
f 54/26/12 118/27/12 119/25/12
f 53/28/13 117/30/13 118/29/13
f 52/31/14 116/32/14 117/30/14
f 51/33/15 115/34/15 116/32/15
f 50/35/16 114/36/16 115/34/16
f 49/37/17 113/38/17 114/36/17
f 48/39/18 112/40/18 113/38/18
f 47/41/19 111/42/19 112/40/19
f 46/43/20 110/44/20 111/42/20
f 45/45/21 109/47/21 110/46/21
f 44/48/22 108/49/22 109/47/22
f 43/50/23 107/51/23 108/49/23
f 42/52/24 106/53/24 107/51/24
f 41/54/25 105/55/25 106/53/25
f 40/56/26 104/57/26 105/55/26
f 39/58/27 103/59/27 104/57/27
f 38/60/28 102/61/28 103/59/28
f 37/62/29 101/64/29 102/63/29
f 36/65/30 100/66/30 101/64/30
f 35/67/31 99/68/31 100/66/31
f 34/69/32 98/70/32 99/68/32
f 33/71/33 97/5/33 98/70/33
f 49/72/34 33/74/34 41/73/34
f 96/75/33 160/77/33 129/76/33
f 65/78/32 129/76/32 130/79/32
f 66/80/31 130/79/31 131/81/31
f 67/82/30 131/81/30 132/83/30
f 68/84/29 132/83/29 133/85/29
f 69/86/28 133/88/28 134/87/28
f 70/89/27 134/87/27 135/90/27
f 71/91/26 135/90/26 136/92/26
f 72/93/25 136/92/25 137/94/25
f 73/95/24 137/94/24 138/96/24
f 74/97/23 138/96/23 139/98/23
f 75/99/22 139/98/22 140/100/22
f 76/101/21 140/100/21 141/102/21
f 77/103/20 141/105/20 142/104/20
f 78/106/19 142/104/19 143/107/19
f 79/108/18 143/107/18 144/109/18
f 80/110/17 144/109/17 145/111/17
f 81/112/16 145/111/16 146/113/16
f 82/114/15 146/113/15 147/115/15
f 83/116/14 147/115/14 148/117/14
f 84/118/13 148/117/13 149/119/13
f 85/120/12 149/122/12 150/121/12
f 86/123/11 150/121/11 151/124/11
f 87/125/10 151/124/10 152/126/10
f 88/127/9 152/126/9 153/128/9
f 89/129/8 153/128/8 154/130/8
f 90/131/7 154/130/7 155/132/7
f 91/133/6 155/132/6 156/134/6
f 92/135/5 156/134/5 157/136/5
f 93/137/4 157/139/4 158/138/4
f 94/140/3 158/138/3 159/141/3
f 95/142/2 159/141/2 160/77/2
f 97/5/33 96/75/33 65/78/33
f 98/70/32 65/78/32 66/80/32
f 99/68/31 66/80/31 67/82/31
f 100/66/30 67/82/30 68/84/30
f 101/64/29 68/84/29 69/143/29
f 102/61/28 69/86/28 70/89/28
f 103/59/27 70/89/27 71/91/27
f 104/57/26 71/91/26 72/93/26
f 105/55/25 72/93/25 73/95/25
f 106/53/24 73/95/24 74/97/24
f 107/51/23 74/97/23 75/99/23
f 108/49/22 75/99/22 76/101/22
f 109/47/21 76/101/21 77/144/21
f 110/44/20 77/103/20 78/106/20
f 111/42/19 78/106/19 79/108/19
f 112/40/18 79/108/18 80/110/18
f 113/38/17 80/110/17 81/112/17
f 114/36/16 81/112/16 82/114/16
f 115/34/15 82/114/15 83/116/15
f 116/32/14 83/116/14 84/118/14
f 117/30/13 84/118/13 85/145/13
f 118/27/12 85/120/12 86/123/12
f 119/25/11 86/123/11 87/125/11
f 120/23/10 87/125/10 88/127/10
f 121/21/9 88/127/9 89/129/9
f 122/19/8 89/129/8 90/131/8
f 123/17/7 90/131/7 91/133/7
f 124/15/6 91/133/6 92/135/6
f 125/13/5 92/135/5 93/146/5
f 126/10/4 93/137/4 94/140/4
f 127/8/3 94/140/3 95/142/3
f 128/6/2 95/142/2 96/75/2
f 159/141/2 32/39/2 1/37/2
f 158/138/3 31/41/3 32/39/3
f 157/139/4 30/43/4 31/41/4
f 156/134/5 29/148/5 30/147/5
f 155/132/6 28/149/6 29/148/6
f 154/130/7 27/50/7 28/149/7
f 153/128/8 26/52/8 27/50/8
f 152/126/9 25/54/9 26/52/9
f 151/124/10 24/56/10 25/54/10
f 150/121/11 23/58/11 24/56/11
f 149/122/12 22/60/12 23/58/12
f 148/117/13 21/151/13 22/150/13
f 147/115/14 20/152/14 21/151/14
f 146/113/15 19/153/15 20/152/15
f 145/111/16 18/154/16 19/153/16
f 144/109/17 17/155/17 18/154/17
f 143/107/18 16/156/18 17/155/18
f 142/104/19 15/157/19 16/156/19
f 141/105/20 14/158/20 15/157/20
f 140/100/21 13/160/21 14/159/21
f 139/98/22 12/161/22 13/160/22
f 138/96/23 11/162/23 12/161/23
f 137/94/24 10/163/24 11/162/24
f 136/92/25 9/164/25 10/163/25
f 135/90/26 8/165/26 9/164/26
f 134/87/27 7/166/27 8/165/27
f 133/88/28 6/167/28 7/166/28
f 132/83/29 5/28/29 6/168/29
f 131/81/30 4/169/30 5/28/30
f 130/79/31 3/170/31 4/169/31
f 129/76/32 2/35/32 3/170/32
f 160/77/33 1/37/33 2/35/33
f 32/171/1 2/173/1 1/172/1
f 2/173/1 32/171/1 3/174/1
f 3/174/1 32/171/1 4/175/1
f 4/175/1 6/177/1 5/176/1
f 6/177/1 4/175/1 7/178/1
f 7/178/1 4/175/1 8/1/1
f 8/1/1 10/180/1 9/179/1
f 10/180/1 8/1/1 11/181/1
f 11/181/1 8/1/1 12/182/1
f 12/182/1 14/184/1 13/183/1
f 14/184/1 16/2/1 15/185/1
f 16/2/1 18/187/1 17/186/1
f 18/187/1 16/2/1 19/188/1
f 19/188/1 16/2/1 20/189/1
f 20/189/1 22/191/1 21/190/1
f 22/191/1 20/189/1 23/192/1
f 23/192/1 20/189/1 24/3/1
f 24/3/1 26/194/1 25/193/1
f 26/194/1 24/3/1 27/195/1
f 27/195/1 24/3/1 28/196/1
f 28/196/1 30/198/1 29/197/1
f 30/198/1 32/171/1 31/199/1
f 12/182/1 8/1/1 14/184/1
f 14/184/1 8/1/1 16/2/1
f 28/196/1 24/3/1 30/198/1
f 30/198/1 24/3/1 32/171/1
f 32/171/1 8/1/1 4/175/1
f 16/2/1 24/3/1 20/189/1
f 32/171/1 24/3/1 8/1/1
f 64/4/2 97/5/2 33/71/2
f 63/7/3 128/6/3 64/4/3
f 62/9/4 127/8/4 63/7/4
f 61/11/5 126/12/5 62/200/5
f 60/14/6 125/13/6 61/11/6
f 59/16/7 124/15/7 60/14/7
f 58/18/8 123/17/8 59/16/8
f 57/20/9 122/19/9 58/18/9
f 56/22/10 121/21/10 57/20/10
f 55/24/11 120/23/11 56/22/11
f 54/26/12 119/25/12 55/24/12
f 53/28/13 118/29/13 54/168/13
f 52/31/14 117/30/14 53/28/14
f 51/33/15 116/32/15 52/31/15
f 50/35/16 115/34/16 51/33/16
f 49/37/17 114/36/17 50/35/17
f 48/39/18 113/38/18 49/37/18
f 47/41/19 112/40/19 48/39/19
f 46/43/20 111/42/20 47/41/20
f 45/45/21 110/46/21 46/201/21
f 44/48/22 109/47/22 45/45/22
f 43/50/23 108/49/23 44/48/23
f 42/52/24 107/51/24 43/50/24
f 41/54/25 106/53/25 42/52/25
f 40/56/26 105/55/26 41/54/26
f 39/58/27 104/57/27 40/56/27
f 38/60/28 103/59/28 39/58/28
f 37/62/29 102/63/29 38/202/29
f 36/65/30 101/64/30 37/62/30
f 35/67/31 100/66/31 36/65/31
f 34/69/32 99/68/32 35/67/32
f 33/71/33 98/70/33 34/69/33
f 33/74/34 63/204/34 64/203/34
f 63/204/34 61/206/34 62/205/34
f 61/206/34 59/208/34 60/207/34
f 59/208/34 61/206/34 58/209/34
f 58/209/34 61/206/34 57/210/34
f 57/210/34 53/212/34 56/211/34
f 56/211/34 53/212/34 55/213/34
f 55/213/34 53/212/34 54/214/34
f 53/212/34 51/216/34 52/215/34
f 51/216/34 49/72/34 50/217/34
f 49/72/34 47/219/34 48/218/34
f 47/219/34 45/221/34 46/220/34
f 45/221/34 43/223/34 44/222/34
f 43/223/34 45/221/34 42/224/34
f 42/224/34 45/221/34 41/73/34
f 41/73/34 37/226/34 40/225/34
f 40/225/34 37/226/34 39/227/34
f 39/227/34 37/226/34 38/228/34
f 37/226/34 35/230/34 36/229/34
f 35/230/34 33/74/34 34/231/34
f 33/74/34 57/210/34 63/204/34
f 63/204/34 57/210/34 61/206/34
f 53/212/34 57/210/34 51/216/34
f 51/216/34 57/210/34 49/72/34
f 49/72/34 41/73/34 47/219/34
f 47/219/34 41/73/34 45/221/34
f 37/226/34 41/73/34 35/230/34
f 35/230/34 41/73/34 33/74/34
f 33/74/34 49/72/34 57/210/34
f 96/75/33 129/76/33 65/78/33
f 65/78/32 130/79/32 66/80/32
f 66/80/31 131/81/31 67/82/31
f 67/82/30 132/83/30 68/84/30
f 68/84/29 133/85/29 69/143/29
f 69/86/28 134/87/28 70/89/28
f 70/89/27 135/90/27 71/91/27
f 71/91/26 136/92/26 72/93/26
f 72/93/25 137/94/25 73/95/25
f 73/95/24 138/96/24 74/97/24
f 74/97/23 139/98/23 75/99/23
f 75/99/22 140/100/22 76/101/22
f 76/101/21 141/102/21 77/144/21
f 77/103/20 142/104/20 78/106/20
f 78/106/19 143/107/19 79/108/19
f 79/108/18 144/109/18 80/110/18
f 80/110/17 145/111/17 81/112/17
f 81/112/16 146/113/16 82/114/16
f 82/114/15 147/115/15 83/116/15
f 83/116/14 148/117/14 84/118/14
f 84/118/13 149/119/13 85/145/13
f 85/120/12 150/121/12 86/123/12
f 86/123/11 151/124/11 87/125/11
f 87/125/10 152/126/10 88/127/10
f 88/127/9 153/128/9 89/129/9
f 89/129/8 154/130/8 90/131/8
f 90/131/7 155/132/7 91/133/7
f 91/133/6 156/134/6 92/135/6
f 92/135/5 157/136/5 93/146/5
f 93/137/4 158/138/4 94/140/4
f 94/140/3 159/141/3 95/142/3
f 95/142/2 160/77/2 96/75/2
f 97/5/33 65/78/33 98/70/33
f 98/70/32 66/80/32 99/68/32
f 99/68/31 67/82/31 100/66/31
f 100/66/30 68/84/30 101/64/30
f 101/64/29 69/143/29 102/63/29
f 102/61/28 70/89/28 103/59/28
f 103/59/27 71/91/27 104/57/27
f 104/57/26 72/93/26 105/55/26
f 105/55/25 73/95/25 106/53/25
f 106/53/24 74/97/24 107/51/24
f 107/51/23 75/99/23 108/49/23
f 108/49/22 76/101/22 109/47/22
f 109/47/21 77/144/21 110/46/21
f 110/44/20 78/106/20 111/42/20
f 111/42/19 79/108/19 112/40/19
f 112/40/18 80/110/18 113/38/18
f 113/38/17 81/112/17 114/36/17
f 114/36/16 82/114/16 115/34/16
f 115/34/15 83/116/15 116/32/15
f 116/32/14 84/118/14 117/30/14
f 117/30/13 85/145/13 118/29/13
f 118/27/12 86/123/12 119/25/12
f 119/25/11 87/125/11 120/23/11
f 120/23/10 88/127/10 121/21/10
f 121/21/9 89/129/9 122/19/9
f 122/19/8 90/131/8 123/17/8
f 123/17/7 91/133/7 124/15/7
f 124/15/6 92/135/6 125/13/6
f 125/13/5 93/146/5 126/12/5
f 126/10/4 94/140/4 127/8/4
f 127/8/3 95/142/3 128/6/3
f 128/6/2 96/75/2 97/5/2
f 159/141/2 1/37/2 160/77/2
f 158/138/3 32/39/3 159/141/3
f 157/139/4 31/41/4 158/138/4
f 156/134/5 30/147/5 157/136/5
f 155/132/6 29/148/6 156/134/6
f 154/130/7 28/149/7 155/132/7
f 153/128/8 27/50/8 154/130/8
f 152/126/9 26/52/9 153/128/9
f 151/124/10 25/54/10 152/126/10
f 150/121/11 24/56/11 151/124/11
f 149/122/12 23/58/12 150/121/12
f 148/117/13 22/150/13 149/119/13
f 147/115/14 21/151/14 148/117/14
f 146/113/15 20/152/15 147/115/15
f 145/111/16 19/153/16 146/113/16
f 144/109/17 18/154/17 145/111/17
f 143/107/18 17/155/18 144/109/18
f 142/104/19 16/156/19 143/107/19
f 141/105/20 15/157/20 142/104/20
f 140/100/21 14/159/21 141/102/21
f 139/98/22 13/160/22 140/100/22
f 138/96/23 12/161/23 139/98/23
f 137/94/24 11/162/24 138/96/24
f 136/92/25 10/163/25 137/94/25
f 135/90/26 9/164/26 136/92/26
f 134/87/27 8/165/27 135/90/27
f 133/88/28 7/166/28 134/87/28
f 132/83/29 6/168/29 133/85/29
f 131/81/30 5/28/30 132/83/30
f 130/79/31 4/169/31 131/81/31
f 129/76/32 3/170/32 130/79/32
f 160/77/33 2/35/33 129/76/33
