# Blender 4.5.3 LTS
# www.blender.org
o C1_C2_VR_AIR
v 30.909317 -5.033652 -11.569951
v 31.027546 -5.189226 -11.554212
v 31.159508 -5.326496 -11.507597
v 31.300125 -5.440186 -11.431899
v 31.444000 -5.525928 -11.330027
v 31.585602 -5.580425 -11.205895
v 31.719486 -5.601584 -11.064275
v 31.840511 -5.588593 -10.910608
v 31.944025 -5.541950 -10.750799
v 32.026051 -5.463447 -10.590990
v 32.083431 -5.356101 -10.437324
v 32.113968 -5.224038 -10.295703
v 32.116482 -5.072333 -10.171572
v 32.090881 -4.906815 -10.069699
v 32.038147 -4.733846 -9.994001
v 31.960304 -4.560072 -9.947387
v 31.860348 -4.392172 -9.931647
v 31.742119 -4.236598 -9.947387
v 31.610157 -4.099328 -9.994001
v 31.469540 -3.985638 -10.069699
v 31.325665 -3.899897 -10.171572
v 31.184063 -3.845399 -10.295703
v 31.050179 -3.824240 -10.437324
v 30.929153 -3.837231 -10.590990
v 30.825640 -3.883875 -10.750799
v 30.743614 -3.962378 -10.910608
v 30.686234 -4.069723 -11.064275
v 30.655697 -4.201786 -11.205895
v 30.653183 -4.353492 -11.330027
v 30.678783 -4.519009 -11.431899
v 30.731518 -4.691978 -11.507597
v 30.809361 -4.865752 -11.554212
v 19.364483 -12.820740 -1.819152
v 19.482714 -12.976315 -1.803412
v 19.614674 -13.113584 -1.756798
v 19.755293 -13.227274 -1.681100
v 19.899168 -13.313015 -1.579228
v 20.040770 -13.367513 -1.455096
v 20.174654 -13.388673 -1.313476
v 20.295679 -13.375681 -1.159809
v 20.399193 -13.329038 -1.000000
v 20.481216 -13.250534 -0.840191
v 20.538599 -13.143188 -0.686524
v 20.569136 -13.011126 -0.544904
v 20.571650 -12.859421 -0.420772
v 20.546049 -12.693903 -0.318900
v 20.493315 -12.520934 -0.243202
v 20.415472 -12.347160 -0.196588
v 20.315517 -12.179260 -0.180848
v 20.197287 -12.023685 -0.196588
v 20.065327 -11.886416 -0.243202
v 19.924707 -11.772726 -0.318900
v 19.780832 -11.686985 -0.420772
v 19.639231 -11.632487 -0.544904
v 19.505346 -11.611327 -0.686524
v 19.384321 -11.624319 -0.840191
v 19.280807 -11.670962 -1.000000
v 19.198784 -11.749466 -1.159809
v 19.141401 -11.856812 -1.313476
v 19.110865 -11.988874 -1.455096
v 19.108351 -12.140579 -1.579228
v 19.133951 -12.306097 -1.681100
v 19.186686 -12.479066 -1.756798
v 19.264528 -12.652840 -1.803412
v 25.136900 -8.927197 -6.694551
v 25.255131 -9.082770 -6.678812
v 25.387091 -9.220040 -6.632197
v 25.527710 -9.333731 -6.556499
v 25.671585 -9.419472 -6.454628
v 25.813185 -9.473969 -6.330496
v 25.947071 -9.495129 -6.188876
v 26.068096 -9.482138 -6.035208
v 26.171608 -9.435493 -5.875400
v 26.253633 -9.356991 -5.715591
v 26.311016 -9.249645 -5.561924
v 26.341551 -9.117582 -5.420303
v 26.344067 -8.965877 -5.296172
v 26.318464 -8.800360 -5.194300
v 26.265730 -8.627390 -5.118602
v 26.187889 -8.453616 -5.071987
v 26.087933 -8.285716 -5.056248
v 25.969704 -8.130142 -5.071987
v 25.837742 -7.992872 -5.118602
v 25.697123 -7.879182 -5.194300
v 25.553247 -7.793441 -5.296172
v 25.411648 -7.738943 -5.420303
v 25.277761 -7.717783 -5.561924
v 25.156736 -7.730775 -5.715591
v 25.053223 -7.777419 -5.875400
v 24.971199 -7.855922 -6.035208
v 24.913818 -7.963267 -6.188876
v 24.883282 -8.095330 -6.330496
v 24.880766 -8.247036 -6.454628
v 24.906368 -8.412553 -6.556499
v 24.959103 -8.585522 -6.632197
v 25.036943 -8.759295 -6.678812
v 22.368921 -11.029542 -4.241112
v 22.500881 -11.166812 -4.194498
v 22.641502 -11.280502 -4.118800
v 22.785376 -11.366243 -4.016928
v 22.926977 -11.420741 -3.892796
v 23.060863 -11.441900 -3.751176
v 23.181889 -11.428909 -3.597508
v 23.285400 -11.382265 -3.437700
v 23.367424 -11.303762 -3.277891
v 23.424807 -11.196417 -3.124224
v 23.455343 -11.064354 -2.982603
v 23.457859 -10.912649 -2.858472
v 23.432257 -10.747131 -2.756600
v 23.379522 -10.574162 -2.680902
v 23.301682 -10.400389 -2.634288
v 23.201725 -10.232489 -2.618548
v 23.083494 -10.076914 -2.634288
v 22.951534 -9.939644 -2.680902
v 22.810915 -9.825954 -2.756600
v 22.667040 -9.740212 -2.858472
v 22.525438 -9.685715 -2.982603
v 22.391554 -9.664556 -3.124224
v 22.270529 -9.677547 -3.277891
v 22.167015 -9.724191 -3.437700
v 22.084991 -9.802693 -3.597508
v 22.027609 -9.910039 -3.751176
v 21.997074 -10.042102 -3.892796
v 21.994558 -10.193808 -4.016928
v 22.020161 -10.359325 -4.118800
v 22.072895 -10.532294 -4.194498
v 22.150736 -10.706068 -4.241112
v 22.250692 -10.873968 -4.256852
v 28.023109 -6.980424 -9.132252
v 28.141338 -7.135998 -9.116511
v 28.273300 -7.273268 -9.069897
v 28.413918 -7.386958 -8.994200
v 28.557793 -7.472700 -8.892327
v 28.699394 -7.527197 -8.768196
v 28.833279 -7.548357 -8.626575
v 28.954304 -7.535365 -8.472908
v 29.057817 -7.488722 -8.313099
v 29.139843 -7.410219 -8.153291
v 29.197224 -7.302873 -7.999623
v 29.227760 -7.170810 -7.858003
v 29.230274 -7.019105 -7.733871
v 29.204674 -6.853587 -7.631999
v 29.151939 -6.680618 -7.556302
v 29.074097 -6.506845 -7.509687
v 28.974140 -6.338944 -7.493948
v 28.855911 -6.183370 -7.509687
v 28.723949 -6.046100 -7.556302
v 28.583332 -5.932410 -7.631999
v 28.439457 -5.846669 -7.733871
v 28.297855 -5.792171 -7.858003
v 28.163971 -5.771011 -7.999623
v 28.042946 -5.784003 -8.153291
v 27.939432 -5.830647 -8.313099
v 27.857407 -5.909150 -8.472908
v 27.800026 -6.016495 -8.626575
v 27.769489 -6.148558 -8.768196
v 27.766975 -6.300263 -8.892327
v 27.792576 -6.465781 -8.994200
v 27.845310 -6.638750 -9.069897
v 27.923153 -6.812524 -9.116511
vn -0.4184 -0.4005 -0.8152
vn -0.2927 -0.5476 -0.7839
vn -0.1558 -0.6737 -0.7224
vn -0.0128 -0.7739 -0.6332
vn 0.1306 -0.8443 -0.5197
vn 0.2690 -0.8823 -0.3861
vn 0.3971 -0.8864 -0.2378
vn 0.5099 -0.8565 -0.0803
vn 0.6031 -0.7936 0.0803
vn 0.6731 -0.7002 0.2378
vn 0.7173 -0.5800 0.3861
vn 0.7339 -0.4374 0.5197
vn 0.7223 -0.2780 0.6332
vn 0.6830 -0.1079 0.7224
vn 0.6174 0.0663 0.7839
vn 0.5280 0.2379 0.8152
vn 0.4184 0.4005 0.8152
vn 0.2927 0.5476 0.7839
vn 0.1558 0.6737 0.7224
vn 0.0128 0.7739 0.6332
vn -0.1306 0.8443 0.5197
vn -0.2690 0.8823 0.3861
vn -0.3971 0.8864 0.2378
vn -0.5099 0.8565 0.0803
vn -0.6031 0.7936 -0.0803
vn -0.6731 0.7002 -0.2378
vn -0.7173 0.5800 -0.3861
vn -0.7339 0.4374 -0.5197
vn -0.7223 0.2780 -0.6332
vn -0.6830 0.1079 -0.7224
vn 0.6791 0.4581 -0.5736
vn -0.6174 -0.0663 -0.7839
vn -0.5280 -0.2379 -0.8152
vn -0.6791 -0.4581 0.5736
vn 0.6791 0.4580 -0.5736
vn -0.7173 0.5799 -0.3861
vn 0.7173 -0.5799 0.3861
vt 0.498793 0.311853
vt 0.561444 0.266465
vt 0.561444 0.311853
vt 0.498793 0.266465
vt 0.561444 0.218282
vt 0.498793 0.218282
vt 0.561444 0.169156
vt 0.498793 0.169156
vt 0.561444 0.120973
vt 0.498793 0.120973
vt 0.561444 0.075585
vt 0.498793 0.075585
vt 0.561444 0.034738
vt 0.498793 0.034738
vt 0.561444 -0.000000
vt 0.498793 0.705400
vt 0.561444 0.664553
vt 0.561444 0.705400
vt 0.498793 0.664553
vt 0.561444 0.619165
vt 0.498793 0.619165
vt 0.561444 0.570983
vt 0.498793 0.570983
vt 0.561444 0.521856
vt 0.498793 0.521856
vt 0.561444 0.473673
vt 0.498793 0.473673
vt 0.561444 0.428286
vt 0.498793 0.428286
vt 0.561444 0.387438
vt 0.498793 0.387438
vt 0.561444 0.352700
vt 0.749397 0.352700
vt 0.812047 0.311853
vt 0.812047 0.352700
vt 0.749397 0.311853
vt 0.812047 0.266465
vt 0.749397 0.266465
vt 0.812047 0.218282
vt 0.749397 0.218282
vt 0.812047 0.169156
vt 0.749397 0.169156
vt 0.812047 0.120973
vt 0.749397 0.120973
vt 0.812047 0.075585
vt 0.749397 0.075585
vt 0.812047 0.034738
vt 0.749397 0.034738
vt 0.812047 0.000000
vt 0.749397 0.705400
vt 0.812047 0.664553
vt 0.812047 0.705400
vt 0.749397 0.664553
vt 0.812047 0.619165
vt 0.749397 0.619165
vt 0.812048 0.570983
vt 0.749397 0.570983
vt 0.812048 0.521856
vt 0.749397 0.521856
vt 0.812048 0.473673
vt 0.749397 0.473673
vt 0.812048 0.428286
vt 0.749397 0.428286
vt 0.812048 0.387438
vt 0.367530 0.028384
vt 0.470409 0.367530
vt 0.131263 0.470409
vt 0.749397 0.387438
vt 0.812048 0.352700
vt 0.498793 0.352700
vt 0.561444 0.352700
vt 0.367530 0.527178
vt 0.470409 0.866324
vt 0.131263 0.969202
vt 0.624095 0.352700
vt 0.686746 0.311853
vt 0.686746 0.352700
vt 0.874698 0.387438
vt 0.937349 0.352700
vt 0.937349 0.387438
vt 0.874698 0.428286
vt 0.937349 0.428286
vt 0.874698 0.473673
vt 0.937349 0.473673
vt 0.874698 0.521856
vt 0.937349 0.521856
vt 0.874698 0.570983
vt 0.937349 0.570983
vt 0.874698 0.619165
vt 0.937349 0.619166
vt 0.874698 0.664553
vt 0.937349 0.664553
vt 0.874698 0.705400
vt 0.937349 0.705400
vt 0.874698 0.034738
vt 0.937349 0.000000
vt 0.937349 0.034738
vt 0.874698 0.075585
vt 0.937349 0.075585
vt 0.874698 0.120973
vt 0.937349 0.120973
vt 0.874698 0.169156
vt 0.937349 0.169156
vt 0.874698 0.218282
vt 0.937349 0.218282
vt 0.874698 0.266465
vt 0.937349 0.266465
vt 0.874698 0.311853
vt 0.937349 0.311853
vt 0.874698 0.352700
vt 0.937349 0.352700
vt 0.624095 0.387438
vt 0.686746 0.352700
vt 0.686746 0.387438
vt 0.624095 0.428286
vt 0.686746 0.428286
vt 0.624095 0.473673
vt 0.686746 0.473673
vt 0.624095 0.521856
vt 0.686746 0.521856
vt 0.624095 0.570983
vt 0.686746 0.570983
vt 0.624095 0.619165
vt 0.686746 0.619165
vt 0.624095 0.664553
vt 0.686746 0.664553
vt 0.624095 0.705400
vt 0.686746 0.705400
vt 0.624095 0.034738
vt 0.686746 0.000000
vt 0.686746 0.034738
vt 0.624095 0.075585
vt 0.686746 0.075585
vt 0.624095 0.120973
vt 0.686746 0.120973
vt 0.624095 0.169156
vt 0.686746 0.169156
vt 0.624095 0.218282
vt 0.686746 0.218282
vt 0.624095 0.266465
vt 0.686746 0.266465
vt 0.624095 0.311853
vt 0.749397 0.311853
vt 0.749397 0.218282
vt 0.749397 0.169156
vt 0.749397 0.120973
vt 0.749397 0.075585
vt 0.749397 0.034738
vt 0.749397 0.000000
vt 0.749397 0.352700
vt 1.000000 0.311853
vt 1.000000 0.352700
vt 1.000000 0.266465
vt 1.000000 0.218282
vt 1.000000 0.169156
vt 1.000000 0.120973
vt 1.000000 0.075585
vt 1.000000 0.034738
vt 1.000000 0.000000
vt 1.000000 0.664553
vt 1.000000 0.705400
vt 1.000000 0.619166
vt 1.000000 0.570983
vt 1.000000 0.521856
vt 1.000000 0.473673
vt 1.000000 0.428286
vt 1.000000 0.387438
vt 1.000000 0.352700
vt 0.874698 0.352700
vt 0.874698 0.000000
vt 0.624095 0.352700
vt 0.624095 0.000000
vt 0.498793 -0.000000
vt 0.498793 0.352700
vt 0.749397 -0.000000
vt 0.090416 0.443116
vt 0.055678 0.408378
vt 0.028384 0.367530
vt 0.009584 0.322143
vt -0.000000 0.273960
vt 0.000000 0.224833
vt 0.009584 0.176650
vt 0.028384 0.131263
vt 0.055678 0.090416
vt 0.090416 0.055678
vt 0.131263 0.028384
vt 0.176650 0.009584
vt 0.224833 -0.000000
vt 0.273960 -0.000000
vt 0.322143 0.009584
vt 0.408378 0.055678
vt 0.489209 0.176650
vt 0.443116 0.090416
vt 0.470409 0.131263
vt 0.498793 0.224833
vt 0.498793 0.273960
vt 0.489209 0.322143
vt 0.443116 0.408378
vt 0.322143 0.489209
vt 0.408378 0.443116
vt 0.367530 0.470409
vt 0.273960 0.498793
vt 0.224833 0.498793
vt 0.176650 0.489209
vt 0.090416 0.941909
vt 0.055678 0.907171
vt 0.028384 0.866324
vt 0.009584 0.820936
vt 0.000000 0.772753
vt 0.000000 0.723627
vt 0.009584 0.675444
vt 0.028384 0.630056
vt 0.055678 0.589209
vt 0.090416 0.554471
vt 0.131263 0.527178
vt 0.176650 0.508377
vt 0.224833 0.498793
vt 0.273960 0.498793
vt 0.322143 0.508377
vt 0.408378 0.554471
vt 0.489209 0.675444
vt 0.443116 0.589209
vt 0.470409 0.630056
vt 0.498793 0.723627
vt 0.498793 0.772753
vt 0.489209 0.820936
vt 0.443116 0.907171
vt 0.322143 0.988002
vt 0.408378 0.941909
vt 0.367530 0.969202
vt 0.273960 0.997587
vt 0.224833 0.997587
vt 0.176650 0.988002
s 0
f 1/1/1 130/2/1 129/3/1
f 2/4/2 131/5/2 130/2/2
f 3/6/3 132/7/3 131/5/3
f 4/8/4 133/9/4 132/7/4
f 5/10/5 134/11/5 133/9/5
f 6/12/6 135/13/6 134/11/6
f 7/14/7 136/15/7 135/13/7
f 8/16/8 137/17/8 136/18/8
f 9/19/9 138/20/9 137/17/9
f 10/21/10 139/22/10 138/20/10
f 11/23/11 140/24/11 139/22/11
f 12/25/12 141/26/12 140/24/12
f 13/27/13 142/28/13 141/26/13
f 14/29/14 143/30/14 142/28/14
f 15/31/15 144/32/15 143/30/15
f 16/33/16 145/34/16 144/35/16
f 17/36/17 146/37/17 145/34/17
f 18/38/18 147/39/18 146/37/18
f 19/40/19 148/41/19 147/39/19
f 20/42/20 149/43/20 148/41/20
f 21/44/21 150/45/21 149/43/21
f 22/46/22 151/47/22 150/45/22
f 23/48/23 152/49/23 151/47/23
f 24/50/24 153/51/24 152/52/24
f 25/53/25 154/54/25 153/51/25
f 26/55/26 155/56/26 154/54/26
f 27/57/27 156/58/27 155/56/27
f 28/59/28 157/60/28 156/58/28
f 29/61/29 158/62/29 157/60/29
f 30/63/30 159/64/30 158/62/30
f 19/65/31 11/66/31 3/67/31
f 31/68/32 160/69/32 159/64/32
f 32/70/33 129/3/33 160/71/33
f 47/72/34 55/73/34 63/74/34
f 96/75/33 128/76/33 127/77/33
f 95/78/32 127/79/32 126/80/32
f 94/81/30 126/80/30 125/82/30
f 93/83/29 125/82/29 124/84/29
f 92/85/28 124/84/28 123/86/28
f 91/87/27 123/86/27 122/88/27
f 90/89/26 122/88/26 121/90/26
f 89/91/25 121/90/25 120/92/25
f 88/93/24 120/92/24 119/94/24
f 87/95/23 119/96/23 118/97/23
f 86/98/22 118/97/22 117/99/22
f 85/100/21 117/99/21 116/101/21
f 84/102/20 116/101/20 115/103/20
f 83/104/19 115/103/19 114/105/19
f 82/106/18 114/105/18 113/107/18
f 81/108/17 113/107/17 112/109/17
f 80/110/16 112/109/16 111/111/16
f 79/112/15 111/113/15 110/114/15
f 78/115/14 110/114/14 109/116/14
f 77/117/13 109/116/13 108/118/13
f 76/119/12 108/118/12 107/120/12
f 75/121/11 107/120/11 106/122/11
f 74/123/10 106/122/10 105/124/10
f 73/125/9 105/124/9 104/126/9
f 72/127/8 104/126/8 103/128/8
f 71/129/7 103/130/7 102/131/7
f 70/132/6 102/131/6 101/133/6
f 69/134/5 101/133/5 100/135/5
f 68/136/4 100/135/4 99/137/4
f 67/138/3 99/137/3 98/139/3
f 66/140/2 98/139/2 97/141/2
f 65/142/1 97/141/1 128/76/1
f 128/76/1 34/38/1 33/143/1
f 97/141/2 35/144/2 34/38/2
f 98/139/3 36/145/3 35/144/3
f 99/137/4 37/146/4 36/145/4
f 100/135/5 38/147/5 37/146/5
f 101/133/6 39/148/6 38/147/6
f 102/131/7 40/149/7 39/148/7
f 103/128/8 41/53/8 40/50/8
f 104/126/9 42/55/9 41/53/9
f 105/124/10 43/57/10 42/55/10
f 106/122/11 44/59/11 43/57/11
f 107/120/12 45/61/12 44/59/12
f 108/118/13 46/63/13 45/61/13
f 109/116/14 47/68/14 46/63/14
f 110/114/15 48/150/15 47/68/15
f 111/111/16 49/151/16 48/152/16
f 112/109/17 50/153/17 49/151/17
f 113/107/18 51/154/18 50/153/18
f 114/105/19 52/155/19 51/154/19
f 115/103/20 53/156/20 52/155/20
f 116/101/21 54/157/21 53/156/21
f 117/99/22 55/158/22 54/157/22
f 118/97/23 56/159/23 55/158/23
f 119/94/24 57/160/24 56/161/24
f 120/92/25 58/162/25 57/160/25
f 121/90/26 59/163/26 58/162/26
f 122/88/27 60/164/27 59/163/27
f 123/86/28 61/165/28 60/164/28
f 124/84/29 62/166/29 61/165/29
f 125/82/30 63/167/30 62/166/30
f 126/80/32 64/168/32 63/167/32
f 127/77/33 33/143/33 64/33/33
f 160/71/33 65/142/33 96/75/33
f 159/64/32 96/169/32 95/78/32
f 158/62/30 95/78/30 94/81/30
f 157/60/29 94/81/29 93/83/29
f 156/58/28 93/83/28 92/85/28
f 155/56/27 92/85/27 91/87/27
f 154/54/26 91/87/26 90/89/26
f 153/51/25 90/89/25 89/91/25
f 152/52/24 89/91/24 88/93/24
f 151/47/23 88/170/23 87/95/23
f 150/45/22 87/95/22 86/98/22
f 149/43/21 86/98/21 85/100/21
f 148/41/20 85/100/20 84/102/20
f 147/39/19 84/102/19 83/104/19
f 146/37/18 83/104/18 82/106/18
f 145/34/17 82/106/17 81/108/17
f 144/35/16 81/108/16 80/110/16
f 143/30/15 80/171/15 79/112/15
f 142/28/14 79/112/14 78/115/14
f 141/26/13 78/115/13 77/117/13
f 140/24/12 77/117/12 76/119/12
f 139/22/11 76/119/11 75/121/11
f 138/20/10 75/121/10 74/123/10
f 137/17/9 74/123/9 73/125/9
f 136/18/8 73/125/8 72/127/8
f 135/13/7 72/172/7 71/129/7
f 134/11/6 71/129/6 70/132/6
f 133/9/5 70/132/5 69/134/5
f 132/7/4 69/134/4 68/136/4
f 131/5/3 68/136/3 67/138/3
f 130/2/2 67/138/2 66/140/2
f 129/3/1 66/140/1 65/142/1
f 1/1/1 2/4/1 130/2/1
f 2/4/2 3/6/2 131/5/2
f 3/6/3 4/8/3 132/7/3
f 4/8/4 5/10/4 133/9/4
f 5/10/5 6/12/5 134/11/5
f 6/12/6 7/14/6 135/13/6
f 7/14/7 8/173/7 136/15/7
f 8/16/8 9/19/8 137/17/8
f 9/19/9 10/21/9 138/20/9
f 10/21/10 11/23/10 139/22/10
f 11/23/11 12/25/11 140/24/11
f 12/25/12 13/27/12 141/26/12
f 13/27/13 14/29/13 142/28/13
f 14/29/14 15/31/14 143/30/14
f 15/31/15 16/174/15 144/32/15
f 16/33/16 17/36/16 145/34/16
f 17/36/17 18/38/17 146/37/17
f 18/38/18 19/40/18 147/39/18
f 19/40/19 20/42/19 148/41/19
f 20/42/20 21/44/20 149/43/20
f 21/44/21 22/46/21 150/45/21
f 22/46/22 23/48/22 151/47/22
f 23/48/23 24/175/23 152/49/23
f 24/50/24 25/53/24 153/51/24
f 25/53/25 26/55/25 154/54/25
f 26/55/26 27/57/26 155/56/26
f 27/57/27 28/59/27 156/58/27
f 28/59/28 29/61/28 157/60/28
f 29/61/29 30/63/29 158/62/29
f 30/63/30 31/68/30 159/64/30
f 3/67/31 2/176/31 1/177/31
f 1/177/31 32/178/31 3/67/31
f 32/178/31 31/179/31 3/67/31
f 31/179/31 30/180/31 29/181/31
f 29/181/31 28/182/31 27/183/31
f 27/183/31 26/184/31 25/185/31
f 25/185/31 24/186/31 27/183/31
f 24/186/31 23/187/31 27/183/31
f 23/187/31 22/188/31 21/189/31
f 21/189/31 20/190/31 19/65/31
f 19/65/31 18/191/31 15/192/31
f 18/191/31 17/193/31 15/192/31
f 17/193/31 16/194/31 15/192/31
f 15/192/31 14/195/31 13/196/31
f 13/196/31 12/197/31 11/66/31
f 11/66/31 10/198/31 7/199/31
f 10/198/35 9/200/35 7/199/35
f 9/200/31 8/201/31 7/199/31
f 7/199/31 6/202/31 5/203/31
f 5/203/31 4/204/31 3/67/31
f 31/179/31 29/181/31 3/67/31
f 29/181/31 27/183/31 3/67/31
f 23/187/31 21/189/31 27/183/31
f 21/189/31 19/65/31 27/183/31
f 15/192/31 13/196/31 19/65/31
f 13/196/31 11/66/31 19/65/31
f 7/199/31 5/203/31 11/66/31
f 5/203/31 3/67/31 11/66/31
f 3/67/31 27/183/31 19/65/31
f 31/68/32 32/150/32 160/69/32
f 32/70/33 1/1/33 129/3/33
f 63/74/34 64/205/34 33/206/34
f 33/206/34 34/207/34 63/74/34
f 34/207/34 35/208/34 63/74/34
f 35/208/34 36/209/34 37/210/34
f 37/210/34 38/211/34 39/212/34
f 39/212/34 40/213/34 41/214/34
f 41/214/34 42/215/34 39/212/34
f 42/215/34 43/216/34 39/212/34
f 43/216/34 44/217/34 45/218/34
f 45/218/34 46/219/34 47/72/34
f 47/72/34 48/220/34 51/221/34
f 48/220/34 49/222/34 51/221/34
f 49/222/34 50/223/34 51/221/34
f 51/221/34 52/224/34 53/225/34
f 53/225/34 54/226/34 55/73/34
f 55/73/34 56/227/34 59/228/34
f 56/227/34 57/229/34 59/228/34
f 57/229/34 58/230/34 59/228/34
f 59/228/34 60/231/34 61/232/34
f 61/232/34 62/233/34 63/74/34
f 35/208/34 37/210/34 63/74/34
f 37/210/34 39/212/34 63/74/34
f 43/216/34 45/218/34 39/212/34
f 45/218/34 47/72/34 39/212/34
f 51/221/34 53/225/34 47/72/34
f 53/225/34 55/73/34 47/72/34
f 59/228/34 61/232/34 55/73/34
f 61/232/34 63/74/34 55/73/34
f 63/74/34 39/212/34 47/72/34
f 96/75/33 65/142/33 128/76/33
f 95/78/32 96/169/32 127/79/32
f 94/81/30 95/78/30 126/80/30
f 93/83/29 94/81/29 125/82/29
f 92/85/28 93/83/28 124/84/28
f 91/87/36 92/85/36 123/86/36
f 90/89/26 91/87/26 122/88/26
f 89/91/25 90/89/25 121/90/25
f 88/93/24 89/91/24 120/92/24
f 87/95/23 88/170/23 119/96/23
f 86/98/22 87/95/22 118/97/22
f 85/100/21 86/98/21 117/99/21
f 84/102/20 85/100/20 116/101/20
f 83/104/19 84/102/19 115/103/19
f 82/106/18 83/104/18 114/105/18
f 81/108/17 82/106/17 113/107/17
f 80/110/16 81/108/16 112/109/16
f 79/112/15 80/171/15 111/113/15
f 78/115/14 79/112/14 110/114/14
f 77/117/13 78/115/13 109/116/13
f 76/119/12 77/117/12 108/118/12
f 75/121/37 76/119/37 107/120/37
f 74/123/10 75/121/10 106/122/10
f 73/125/9 74/123/9 105/124/9
f 72/127/8 73/125/8 104/126/8
f 71/129/7 72/172/7 103/130/7
f 70/132/6 71/129/6 102/131/6
f 69/134/5 70/132/5 101/133/5
f 68/136/4 69/134/4 100/135/4
f 67/138/3 68/136/3 99/137/3
f 66/140/2 67/138/2 98/139/2
f 65/142/1 66/140/1 97/141/1
f 128/76/1 97/141/1 34/38/1
f 97/141/2 98/139/2 35/144/2
f 98/139/3 99/137/3 36/145/3
f 99/137/4 100/135/4 37/146/4
f 100/135/5 101/133/5 38/147/5
f 101/133/6 102/131/6 39/148/6
f 102/131/7 103/130/7 40/149/7
f 103/128/8 104/126/8 41/53/8
f 104/126/9 105/124/9 42/55/9
f 105/124/10 106/122/10 43/57/10
f 106/122/37 107/120/37 44/59/37
f 107/120/12 108/118/12 45/61/12
f 108/118/13 109/116/13 46/63/13
f 109/116/14 110/114/14 47/68/14
f 110/114/15 111/113/15 48/150/15
f 111/111/16 112/109/16 49/151/16
f 112/109/17 113/107/17 50/153/17
f 113/107/18 114/105/18 51/154/18
f 114/105/19 115/103/19 52/155/19
f 115/103/20 116/101/20 53/156/20
f 116/101/21 117/99/21 54/157/21
f 117/99/22 118/97/22 55/158/22
f 118/97/23 119/96/23 56/159/23
f 119/94/24 120/92/24 57/160/24
f 120/92/25 121/90/25 58/162/25
f 121/90/26 122/88/26 59/163/26
f 122/88/36 123/86/36 60/164/36
f 123/86/28 124/84/28 61/165/28
f 124/84/29 125/82/29 62/166/29
f 125/82/30 126/80/30 63/167/30
f 126/80/32 127/79/32 64/168/32
f 127/77/33 128/76/33 33/143/33
f 160/71/33 129/3/33 65/142/33
f 159/64/32 160/69/32 96/169/32
f 158/62/30 159/64/30 95/78/30
f 157/60/29 158/62/29 94/81/29
f 156/58/28 157/60/28 93/83/28
f 155/56/36 156/58/36 92/85/36
f 154/54/26 155/56/26 91/87/26
f 153/51/25 154/54/25 90/89/25
f 152/52/24 153/51/24 89/91/24
f 151/47/23 152/49/23 88/170/23
f 150/45/22 151/47/22 87/95/22
f 149/43/21 150/45/21 86/98/21
f 148/41/20 149/43/20 85/100/20
f 147/39/19 148/41/19 84/102/19
f 146/37/18 147/39/18 83/104/18
f 145/34/17 146/37/17 82/106/17
f 144/35/16 145/34/16 81/108/16
f 143/30/15 144/32/15 80/171/15
f 142/28/14 143/30/14 79/112/14
f 141/26/13 142/28/13 78/115/13
f 140/24/12 141/26/12 77/117/12
f 139/22/37 140/24/37 76/119/37
f 138/20/10 139/22/10 75/121/10
f 137/17/9 138/20/9 74/123/9
f 136/18/8 137/17/8 73/125/8
f 135/13/7 136/15/7 72/172/7
f 134/11/6 135/13/6 71/129/6
f 133/9/5 134/11/5 70/132/5
f 132/7/4 133/9/4 69/134/4
f 131/5/3 132/7/3 68/136/3
f 130/2/2 131/5/2 67/138/2
f 129/3/1 130/2/1 66/140/1
