# Blender 4.5.3 LTS
# www.blender.org
o C1_C2_VL_UW
v 8.409317 -20.033651 9.569948
v 8.527548 -20.189226 9.554209
v 8.659507 -20.326496 9.507594
v 8.800127 -20.440186 9.431896
v 8.944002 -20.525928 9.330024
v 9.085603 -20.580425 9.205894
v 9.219488 -20.601585 9.064273
v 9.340513 -20.588593 8.910604
v 9.444026 -20.541950 8.750796
v 9.526051 -20.463446 8.590988
v 9.583432 -20.356100 8.437320
v 9.613969 -20.224037 8.295699
v 9.616484 -20.072334 8.171569
v 9.590881 -19.906815 8.069696
v 9.538147 -19.733845 7.993999
v 9.460306 -19.560072 7.947384
v 9.360350 -19.392172 7.931644
v 9.242119 -19.236597 7.947384
v 9.110160 -19.099327 7.993999
v 8.969540 -18.985638 8.069696
v 8.825665 -18.899895 8.171569
v 8.684064 -18.845398 8.295699
v 8.550179 -18.824238 8.437320
v 8.429153 -18.837231 8.590988
v 8.325641 -18.883873 8.750796
v 8.243616 -18.962376 8.910604
v 8.186234 -19.069723 9.064273
v 8.155698 -19.201786 9.205894
v 8.153183 -19.353489 9.330024
v 8.178785 -19.519009 9.431896
v 8.231520 -19.691978 9.507594
v 8.309361 -19.865751 9.554209
v -3.135517 -27.820740 -0.180848
v -3.017287 -27.976315 -0.196588
v -2.885327 -28.113585 -0.243203
v -2.744707 -28.227274 -0.318901
v -2.600832 -28.313017 -0.420773
v -2.459231 -28.367514 -0.544904
v -2.325346 -28.388674 -0.686524
v -2.204321 -28.375681 -0.840192
v -2.100808 -28.329039 -1.000001
v -2.018784 -28.250536 -1.159809
v -1.961401 -28.143188 -1.313477
v -1.930866 -28.011127 -1.455097
v -1.928351 -27.859423 -1.579228
v -1.953952 -27.693905 -1.681101
v -2.006687 -27.520933 -1.756799
v -2.084528 -27.347162 -1.803413
v -2.184484 -27.179260 -1.819153
v -2.302715 -27.023685 -1.803413
v -2.434675 -26.886417 -1.756799
v -2.575294 -26.772726 -1.681101
v -2.719170 -26.686985 -1.579228
v -2.860770 -26.632486 -1.455097
v -2.994655 -26.611328 -1.313477
v -3.115680 -26.624319 -1.159809
v -3.219194 -26.670963 -1.000001
v -3.301218 -26.749466 -0.840192
v -3.358600 -26.856812 -0.686524
v -3.389136 -26.988874 -0.544904
v -3.391651 -27.140579 -0.420773
v -3.366049 -27.306097 -0.318901
v -3.313314 -27.479067 -0.243203
v -3.235474 -27.652840 -0.196588
v 2.636900 -23.927197 4.694551
v 2.755131 -24.082771 4.678811
v 2.887090 -24.220039 4.632196
v 3.027710 -24.333731 4.556498
v 3.171585 -24.419472 4.454626
v 3.313186 -24.473970 4.330495
v 3.447071 -24.495129 4.188874
v 3.568096 -24.482138 4.035207
v 3.671610 -24.435493 3.875398
v 3.753633 -24.356991 3.715590
v 3.811016 -24.249645 3.561922
v 3.841552 -24.117582 3.420301
v 3.844067 -23.965878 3.296170
v 3.818465 -23.800360 3.194298
v 3.765730 -23.627390 3.118600
v 3.687890 -23.453617 3.071986
v 3.587933 -23.285717 3.056246
v 3.469702 -23.130142 3.071986
v 3.337743 -22.992872 3.118600
v 3.197123 -22.879181 3.194298
v 3.053248 -22.793440 3.296170
v 2.911647 -22.738941 3.420301
v 2.777762 -22.717783 3.561922
v 2.656737 -22.730774 3.715590
v 2.553223 -22.777418 3.875398
v 2.471200 -22.855921 4.035207
v 2.413817 -22.963268 4.188874
v 2.383281 -23.095329 4.330495
v 2.380766 -23.247034 4.454626
v 2.406368 -23.412552 4.556498
v 2.459103 -23.585522 4.632196
v 2.536943 -23.759295 4.678811
v 5.523108 -21.980423 7.132250
v 5.641339 -22.135998 7.116510
v 5.773298 -22.273268 7.069896
v 5.913918 -22.386959 6.994197
v 6.057794 -22.472700 6.892325
v 6.199394 -22.527199 6.768194
v 6.333280 -22.548357 6.626574
v 6.454305 -22.535366 6.472906
v 6.557817 -22.488722 6.313097
v 6.639842 -22.410217 6.153289
v 6.697224 -22.302872 5.999621
v 6.727760 -22.170811 5.858001
v 6.730275 -22.019104 5.733870
v 6.704674 -21.853588 5.631998
v 6.651938 -21.680618 5.556300
v 6.574098 -21.506844 5.509685
v 6.474141 -21.338943 5.493945
v 6.355910 -21.183369 5.509685
v 6.223951 -21.046101 5.556300
v 6.083331 -20.932409 5.631998
v 5.939456 -20.846668 5.733870
v 5.797855 -20.792170 5.858001
v 5.663970 -20.771011 5.999621
v 5.542945 -20.784002 6.153289
v 5.439432 -20.830647 6.313097
v 5.357408 -20.909149 6.472906
v 5.300025 -21.016495 6.626574
v 5.269489 -21.148558 6.768194
v 5.266974 -21.300262 6.892325
v 5.292576 -21.465780 6.994197
v 5.345311 -21.638750 7.069896
v 5.423152 -21.812523 7.116510
v -0.131078 -26.029543 2.241111
v 0.000881 -26.166811 2.194497
v 0.141501 -26.280502 2.118799
v 0.285377 -26.366243 2.016927
v 0.426977 -26.420742 1.892796
v 0.560862 -26.441900 1.751175
v 0.681887 -26.428909 1.597507
v 0.785401 -26.382265 1.437699
v 0.867424 -26.303762 1.277890
v 0.924807 -26.196417 1.124223
v 0.955343 -26.064354 0.982602
v 0.957858 -25.912649 0.858471
v 0.932256 -25.747131 0.756599
v 0.879521 -25.574162 0.680901
v 0.801681 -25.400389 0.634286
v 0.701724 -25.232489 0.618547
v 0.583493 -25.076914 0.634286
v 0.451534 -24.939644 0.680901
v 0.310914 -24.825954 0.756599
v 0.167039 -24.740211 0.858471
v 0.025438 -24.685715 0.982602
v -0.108447 -24.664555 1.124223
v -0.229472 -24.677547 1.277890
v -0.332985 -24.724190 1.437699
v -0.415009 -24.802694 1.597507
v -0.472392 -24.910040 1.751175
v -0.502928 -25.042101 1.892796
v -0.505442 -25.193806 2.016927
v -0.479841 -25.359325 2.118799
v -0.427106 -25.532295 2.194497
v -0.349265 -25.706068 2.241111
v -0.249309 -25.873968 2.256851
vn -0.4184 -0.4005 0.8152
vn -0.2927 -0.5476 0.7839
vn -0.1558 -0.6737 0.7224
vn -0.0128 -0.7739 0.6332
vn 0.1306 -0.8443 0.5197
vn 0.2690 -0.8823 0.3861
vn 0.3971 -0.8864 0.2378
vn 0.5099 -0.8565 0.0803
vn 0.6031 -0.7936 -0.0803
vn 0.6731 -0.7002 -0.2378
vn 0.7173 -0.5800 -0.3861
vn 0.7339 -0.4374 -0.5197
vn 0.7223 -0.2780 -0.6332
vn 0.6830 -0.1079 -0.7224
vn 0.6174 0.0663 -0.7839
vn 0.5280 0.2379 -0.8152
vn 0.4184 0.4005 -0.8152
vn 0.2927 0.5476 -0.7839
vn 0.1558 0.6737 -0.7224
vn 0.0128 0.7739 -0.6332
vn -0.1306 0.8443 -0.5197
vn -0.2690 0.8823 -0.3861
vn -0.3971 0.8864 -0.2378
vn -0.5099 0.8565 -0.0803
vn -0.6031 0.7936 0.0803
vn -0.6731 0.7002 0.2378
vn -0.7173 0.5800 0.3861
vn -0.7339 0.4374 0.5197
vn -0.7223 0.2780 0.6332
vn -0.6830 0.1079 0.7224
vn 0.6791 0.4581 0.5736
vn -0.6174 -0.0663 0.7839
vn -0.5280 -0.2379 0.8152
vn -0.6791 -0.4581 -0.5736
vn 0.6791 0.4580 0.5736
vt 0.500000 0.618274
vt 0.562500 0.572996
vt 0.562500 0.618274
vt 0.500000 0.572996
vt 0.562500 0.532247
vt 0.500000 0.532247
vt 0.562500 0.497592
vt 0.000000 0.884098
vt 0.062500 0.849443
vt 0.062500 0.884098
vt 0.000000 0.849443
vt 0.062500 0.808694
vt 0.000000 0.808694
vt 0.062500 0.763416
vt 0.000000 0.763416
vt 0.062500 0.715349
vt 0.000000 0.715349
vt 0.062500 0.666341
vt 0.000000 0.666341
vt 0.062500 0.618274
vt 0.000000 0.618274
vt 0.062500 0.572996
vt 0.000000 0.572996
vt 0.062500 0.532247
vt 0.000000 0.532247
vt 0.062500 0.497592
vt 0.250000 0.876671
vt 0.312500 0.849444
vt 0.312500 0.876671
vt 0.250000 0.849444
vt 0.312500 0.814789
vt 0.250000 0.814789
vt 0.312500 0.774040
vt 0.250000 0.774040
vt 0.312500 0.728762
vt 0.250000 0.728762
vt 0.312500 0.680695
vt 0.250000 0.680695
vt 0.312500 0.631687
vt 0.250000 0.631687
vt 0.312500 0.583620
vt 0.250000 0.583620
vt 0.312500 0.538342
vt 0.250000 0.538342
vt 0.312500 0.497592
vt 0.750000 0.774040
vt 0.812500 0.728762
vt 0.812500 0.774040
vt 0.750000 0.728762
vt 0.812500 0.680695
vt 0.750000 0.680695
vt 0.812500 0.631687
vt 0.750000 0.631687
vt 0.812500 0.583620
vt 0.750000 0.583620
vt 0.812500 0.538342
vt 0.750000 0.538342
vt 0.812500 0.497592
vt 0.500000 0.849444
vt 0.562500 0.808695
vt 0.562500 0.849444
vt 0.500000 0.808695
vt 0.562500 0.763416
vt 0.500000 0.763416
vt 0.562500 0.715349
vt 0.366645 0.028316
vt 0.488031 0.176225
vt 0.321367 0.488031
vt 0.500000 0.715349
vt 0.562500 0.666341
vt 0.500000 0.666341
vt 0.864237 0.028316
vt 0.985624 0.176225
vt 0.818960 0.488031
vt 0.625000 0.666341
vt 0.687500 0.618274
vt 0.687500 0.666341
vt 0.625000 0.715349
vt 0.687500 0.715349
vt 0.625000 0.763416
vt 0.687500 0.763416
vt 0.625000 0.808695
vt 0.687500 0.808695
vt 0.625000 0.849444
vt 0.687500 0.849444
vt 0.875000 0.538342
vt 0.937500 0.497592
vt 0.937500 0.538342
vt 0.875000 0.583620
vt 0.937500 0.583620
vt 0.875000 0.631687
vt 0.937500 0.631687
vt 0.875000 0.680695
vt 0.937500 0.680695
vt 0.875000 0.728762
vt 0.937500 0.728762
vt 0.875000 0.774040
vt 0.937500 0.774040
vt 0.375000 0.538342
vt 0.437500 0.497592
vt 0.437500 0.538342
vt 0.375000 0.583620
vt 0.437500 0.583620
vt 0.375000 0.631687
vt 0.437500 0.631687
vt 0.375000 0.680695
vt 0.437500 0.680695
vt 0.375000 0.728762
vt 0.437500 0.728762
vt 0.375000 0.774040
vt 0.437500 0.774040
vt 0.375000 0.814789
vt 0.437500 0.814789
vt 0.375000 0.849444
vt 0.437500 0.849444
vt 0.375000 0.876671
vt 0.437500 0.876671
vt 0.125000 0.532247
vt 0.187500 0.497592
vt 0.187500 0.532247
vt 0.125000 0.572996
vt 0.187500 0.572996
vt 0.125000 0.618274
vt 0.187500 0.618274
vt 0.125000 0.666341
vt 0.187500 0.666341
vt 0.125000 0.715349
vt 0.187500 0.715349
vt 0.125000 0.763416
vt 0.187500 0.763416
vt 0.125000 0.808694
vt 0.187500 0.808694
vt 0.125000 0.849443
vt 0.187500 0.849443
vt 0.125000 0.884098
vt 0.187500 0.884098
vt 0.625000 0.532247
vt 0.687500 0.497592
vt 0.687500 0.532247
vt 0.625000 0.572996
vt 0.687500 0.572996
vt 0.625000 0.618274
vt 0.875000 0.497592
vt 0.375000 0.497592
vt 0.125000 0.497592
vt 0.625000 0.497592
vt 0.750000 0.572996
vt 0.750000 0.618274
vt 0.750000 0.532247
vt 0.750000 0.497592
vt 0.250000 0.849443
vt 0.250000 0.884098
vt 0.250000 0.808694
vt 0.250000 0.763416
vt 0.250000 0.715349
vt 0.250000 0.666341
vt 0.250000 0.618274
vt 0.250000 0.572996
vt 0.250000 0.532247
vt 0.250000 0.497592
vt 0.500000 0.849444
vt 0.500000 0.876671
vt 0.500000 0.814789
vt 0.500000 0.774040
vt 0.500000 0.728762
vt 0.500000 0.680695
vt 0.500000 0.631687
vt 0.500000 0.583620
vt 0.500000 0.538342
vt 0.500000 0.497592
vt 1.000000 0.728762
vt 1.000000 0.774040
vt 1.000000 0.680695
vt 1.000000 0.631687
vt 1.000000 0.583620
vt 1.000000 0.538342
vt 1.000000 0.497592
vt 0.750000 0.808695
vt 0.750000 0.849444
vt 0.750000 0.763416
vt 0.750000 0.715349
vt 0.750000 0.666341
vt 0.500000 0.497592
vt 0.000000 0.497592
vt 0.250000 0.497592
vt 0.750000 0.497592
vt 0.273301 0.497592
vt 0.224292 0.497592
vt 0.176225 0.488031
vt 0.130947 0.469277
vt 0.090198 0.442049
vt 0.009561 0.321368
vt 0.055543 0.407395
vt 0.028316 0.366646
vt -0.000000 0.273301
vt -0.000000 0.224292
vt 0.009561 0.176225
vt 0.028316 0.130947
vt 0.055543 0.090198
vt 0.090198 0.055544
vt 0.130947 0.028316
vt 0.176225 0.009561
vt 0.224292 -0.000000
vt 0.273300 0.000000
vt 0.321368 0.009561
vt 0.407395 0.055544
vt 0.442049 0.090198
vt 0.469277 0.130947
vt 0.497592 0.224292
vt 0.497592 0.273300
vt 0.488031 0.321367
vt 0.469277 0.366645
vt 0.442049 0.407395
vt 0.407395 0.442049
vt 0.366646 0.469276
vt 0.770893 0.497592
vt 0.721884 0.497592
vt 0.673817 0.488031
vt 0.628540 0.469277
vt 0.587790 0.442049
vt 0.507153 0.321368
vt 0.553136 0.407395
vt 0.525908 0.366646
vt 0.497592 0.273301
vt 0.497592 0.224292
vt 0.507153 0.176225
vt 0.525908 0.130947
vt 0.553136 0.090198
vt 0.587790 0.055544
vt 0.628539 0.028316
vt 0.673817 0.009561
vt 0.721884 -0.000000
vt 0.770893 0.000000
vt 0.818960 0.009561
vt 0.904987 0.055544
vt 0.939641 0.090198
vt 0.966869 0.130947
vt 0.995185 0.224292
vt 0.995185 0.273300
vt 0.985624 0.321367
vt 0.966869 0.366645
vt 0.939641 0.407395
vt 0.904987 0.442049
vt 0.864238 0.469276
s 0
f 1/1/1 97/3/1 98/2/1
f 2/4/2 98/2/2 99/5/2
f 3/6/3 99/5/3 100/7/3
f 4/8/4 100/10/4 101/9/4
f 5/11/5 101/9/5 102/12/5
f 6/13/6 102/12/6 103/14/6
f 7/15/7 103/14/7 104/16/7
f 8/17/8 104/16/8 105/18/8
f 9/19/9 105/18/9 106/20/9
f 10/21/10 106/20/10 107/22/10
f 11/23/11 107/22/11 108/24/11
f 12/25/12 108/24/12 109/26/12
f 13/27/13 109/29/13 110/28/13
f 14/30/14 110/28/14 111/31/14
f 15/32/15 111/31/15 112/33/15
f 16/34/16 112/33/16 113/35/16
f 17/36/17 113/35/17 114/37/17
f 18/38/18 114/37/18 115/39/18
f 19/40/19 115/39/19 116/41/19
f 20/42/20 116/41/20 117/43/20
f 21/44/21 117/43/21 118/45/21
f 22/46/22 118/48/22 119/47/22
f 23/49/23 119/47/23 120/50/23
f 24/51/24 120/50/24 121/52/24
f 25/53/25 121/52/25 122/54/25
f 26/55/26 122/54/26 123/56/26
f 27/57/27 123/56/27 124/58/27
f 28/59/28 124/61/28 125/60/28
f 29/62/29 125/60/29 126/63/29
f 30/64/30 126/63/30 127/65/30
f 15/66/31 3/68/31 11/67/31
f 31/69/32 127/65/32 128/70/32
f 32/71/33 128/70/33 97/3/33
f 51/72/34 63/74/34 55/73/34
f 96/75/33 159/77/33 160/76/33
f 95/78/32 158/79/32 159/77/32
f 94/80/30 157/81/30 158/79/30
f 93/82/29 156/83/29 157/81/29
f 92/84/28 155/85/28 156/83/28
f 91/86/27 154/88/27 155/87/27
f 90/89/26 153/90/26 154/88/26
f 89/91/25 152/92/25 153/90/25
f 88/93/24 151/94/24 152/92/24
f 87/95/23 150/96/23 151/94/23
f 86/97/22 149/98/22 150/96/22
f 85/99/21 148/101/21 149/100/21
f 84/102/20 147/103/20 148/101/20
f 83/104/19 146/105/19 147/103/19
f 82/106/18 145/107/18 146/105/18
f 81/108/17 144/109/17 145/107/17
f 80/110/16 143/111/16 144/109/16
f 79/112/15 142/113/15 143/111/15
f 78/114/14 141/115/14 142/113/14
f 77/116/13 140/117/13 141/115/13
f 76/118/12 139/120/12 140/119/12
f 75/121/11 138/122/11 139/120/11
f 74/123/10 137/124/10 138/122/10
f 73/125/9 136/126/9 137/124/9
f 72/127/8 135/128/8 136/126/8
f 71/129/7 134/130/7 135/128/7
f 70/131/6 133/132/6 134/130/6
f 69/133/5 132/134/5 133/132/5
f 68/135/4 131/136/4 132/134/4
f 67/137/3 130/139/3 131/138/3
f 66/140/2 129/141/2 130/139/2
f 65/142/1 160/76/1 129/141/1
f 128/70/33 96/75/33 65/142/33
f 127/65/32 95/78/32 96/75/32
f 126/63/30 94/80/30 95/78/30
f 125/60/29 93/82/29 94/80/29
f 124/61/28 92/84/28 93/82/28
f 123/56/27 91/86/27 92/143/27
f 122/54/26 90/89/26 91/86/26
f 121/52/25 89/91/25 90/89/25
f 120/50/24 88/93/24 89/91/24
f 119/47/23 87/95/23 88/93/23
f 118/48/22 86/97/22 87/95/22
f 117/43/21 85/99/21 86/144/21
f 116/41/20 84/102/20 85/99/20
f 115/39/19 83/104/19 84/102/19
f 114/37/18 82/106/18 83/104/18
f 113/35/17 81/108/17 82/106/17
f 112/33/16 80/110/16 81/108/16
f 111/31/15 79/112/15 80/110/15
f 110/28/14 78/114/14 79/112/14
f 109/29/13 77/116/13 78/114/13
f 108/24/12 76/118/12 77/145/12
f 107/22/11 75/121/11 76/118/11
f 106/20/10 74/123/10 75/121/10
f 105/18/9 73/125/9 74/123/9
f 104/16/8 72/127/8 73/125/8
f 103/14/7 71/129/7 72/127/7
f 102/12/6 70/131/6 71/129/6
f 101/9/5 69/133/5 70/131/5
f 100/10/4 68/135/4 69/133/4
f 99/5/3 67/137/3 68/146/3
f 98/2/2 66/140/2 67/137/2
f 97/3/1 65/142/1 66/140/1
f 160/76/1 33/148/1 34/147/1
f 129/141/2 34/147/2 35/149/2
f 130/139/3 35/149/3 36/150/3
f 131/136/4 36/152/4 37/151/4
f 132/134/5 37/151/5 38/153/5
f 133/132/6 38/153/6 39/154/6
f 134/130/7 39/154/7 40/155/7
f 135/128/8 40/155/8 41/156/8
f 136/126/9 41/156/9 42/157/9
f 137/124/10 42/157/10 43/158/10
f 138/122/11 43/158/11 44/159/11
f 139/120/12 44/159/12 45/160/12
f 140/117/13 45/162/13 46/161/13
f 141/115/14 46/161/14 47/163/14
f 142/113/15 47/163/15 48/164/15
f 143/111/16 48/164/16 49/165/16
f 144/109/17 49/165/17 50/166/17
f 145/107/18 50/166/18 51/167/18
f 146/105/19 51/167/19 52/168/19
f 147/103/20 52/168/20 53/169/20
f 148/101/21 53/169/21 54/170/21
f 149/98/22 54/172/22 55/171/22
f 150/96/23 55/171/23 56/173/23
f 151/94/24 56/173/24 57/174/24
f 152/92/25 57/174/25 58/175/25
f 153/90/26 58/175/26 59/176/26
f 154/88/27 59/176/27 60/177/27
f 155/85/28 60/179/28 61/178/28
f 156/83/29 61/178/29 62/180/29
f 157/81/30 62/180/30 63/181/30
f 158/79/32 63/181/32 64/182/32
f 159/77/33 64/182/33 33/148/33
f 1/1/1 98/2/1 2/4/1
f 2/4/2 99/5/2 3/6/2
f 3/6/3 100/7/3 4/183/3
f 4/8/4 101/9/4 5/11/4
f 5/11/5 102/12/5 6/13/5
f 6/13/6 103/14/6 7/15/6
f 7/15/7 104/16/7 8/17/7
f 8/17/8 105/18/8 9/19/8
f 9/19/9 106/20/9 10/21/9
f 10/21/10 107/22/10 11/23/10
f 11/23/11 108/24/11 12/25/11
f 12/25/12 109/26/12 13/184/12
f 13/27/13 110/28/13 14/30/13
f 14/30/14 111/31/14 15/32/14
f 15/32/15 112/33/15 16/34/15
f 16/34/16 113/35/16 17/36/16
f 17/36/17 114/37/17 18/38/17
f 18/38/18 115/39/18 19/40/18
f 19/40/19 116/41/19 20/42/19
f 20/42/20 117/43/20 21/44/20
f 21/44/21 118/45/21 22/185/21
f 22/46/22 119/47/22 23/49/22
f 23/49/23 120/50/23 24/51/23
f 24/51/24 121/52/24 25/53/24
f 25/53/25 122/54/25 26/55/25
f 26/55/26 123/56/26 27/57/26
f 27/57/27 124/58/27 28/186/27
f 28/59/28 125/60/28 29/62/28
f 29/62/29 126/63/29 30/64/29
f 30/64/30 127/65/30 31/69/30
f 3/68/31 1/188/31 2/187/31
f 1/188/31 31/190/31 32/189/31
f 31/190/35 27/192/35 30/191/35
f 30/191/31 27/192/31 29/193/31
f 29/193/31 27/192/31 28/194/31
f 27/192/31 25/196/31 26/195/31
f 25/196/31 23/198/31 24/197/31
f 23/198/31 21/200/31 22/199/31
f 21/200/31 23/198/31 20/201/31
f 20/201/31 23/198/31 19/202/31
f 19/202/31 17/204/31 18/203/31
f 17/204/31 15/66/31 16/205/31
f 15/66/31 11/67/31 14/206/31
f 14/206/31 11/67/31 13/207/31
f 13/207/31 11/67/31 12/208/31
f 11/67/31 9/210/31 10/209/31
f 9/210/31 7/212/31 8/211/31
f 7/212/31 5/214/31 6/213/31
f 5/214/31 7/212/31 4/215/31
f 4/215/31 7/212/31 3/68/31
f 3/68/31 31/190/31 1/188/31
f 27/192/31 19/202/31 25/196/31
f 25/196/31 19/202/31 23/198/31
f 19/202/31 15/66/31 17/204/31
f 11/67/31 3/68/31 9/210/31
f 9/210/31 3/68/31 7/212/31
f 3/68/31 19/202/31 31/190/31
f 31/190/31 19/202/31 27/192/31
f 19/202/31 3/68/31 15/66/31
f 31/69/32 128/70/32 32/71/32
f 32/71/33 97/3/33 1/1/33
f 63/74/34 33/217/34 64/216/34
f 33/217/34 35/219/34 34/218/34
f 35/219/34 39/221/34 36/220/34
f 36/220/34 39/221/34 37/222/34
f 37/222/34 39/221/34 38/223/34
f 39/221/34 41/225/34 40/224/34
f 41/225/34 43/227/34 42/226/34
f 43/227/34 45/229/34 44/228/34
f 45/229/34 43/227/34 46/230/34
f 46/230/34 43/227/34 47/231/34
f 47/231/34 49/233/34 48/232/34
f 49/233/34 51/72/34 50/234/34
f 51/72/34 55/73/34 52/235/34
f 52/235/34 55/73/34 53/236/34
f 53/236/34 55/73/34 54/237/34
f 55/73/34 57/239/34 56/238/34
f 57/239/34 59/241/34 58/240/34
f 59/241/34 61/243/34 60/242/34
f 61/243/34 59/241/34 62/244/34
f 62/244/34 59/241/34 63/74/34
f 63/74/34 35/219/34 33/217/34
f 39/221/34 47/231/34 41/225/34
f 41/225/34 47/231/34 43/227/34
f 47/231/34 51/72/34 49/233/34
f 55/73/34 63/74/34 57/239/34
f 57/239/34 63/74/34 59/241/34
f 63/74/34 47/231/34 35/219/34
f 35/219/34 47/231/34 39/221/34
f 47/231/34 63/74/34 51/72/34
f 96/75/33 160/76/33 65/142/33
f 95/78/32 159/77/32 96/75/32
f 94/80/30 158/79/30 95/78/30
f 93/82/29 157/81/29 94/80/29
f 92/84/28 156/83/28 93/82/28
f 91/86/27 155/87/27 92/143/27
f 90/89/26 154/88/26 91/86/26
f 89/91/25 153/90/25 90/89/25
f 88/93/24 152/92/24 89/91/24
f 87/95/23 151/94/23 88/93/23
f 86/97/22 150/96/22 87/95/22
f 85/99/21 149/100/21 86/144/21
f 84/102/20 148/101/20 85/99/20
f 83/104/19 147/103/19 84/102/19
f 82/106/18 146/105/18 83/104/18
f 81/108/17 145/107/17 82/106/17
f 80/110/16 144/109/16 81/108/16
f 79/112/15 143/111/15 80/110/15
f 78/114/14 142/113/14 79/112/14
f 77/116/13 141/115/13 78/114/13
f 76/118/12 140/119/12 77/145/12
f 75/121/11 139/120/11 76/118/11
f 74/123/10 138/122/10 75/121/10
f 73/125/9 137/124/9 74/123/9
f 72/127/8 136/126/8 73/125/8
f 71/129/7 135/128/7 72/127/7
f 70/131/6 134/130/6 71/129/6
f 69/133/5 133/132/5 70/131/5
f 68/135/4 132/134/4 69/133/4
f 67/137/3 131/138/3 68/146/3
f 66/140/2 130/139/2 67/137/2
f 65/142/1 129/141/1 66/140/1
f 128/70/33 65/142/33 97/3/33
f 127/65/32 96/75/32 128/70/32
f 126/63/30 95/78/30 127/65/30
f 125/60/29 94/80/29 126/63/29
f 124/61/28 93/82/28 125/60/28
f 123/56/27 92/143/27 124/58/27
f 122/54/26 91/86/26 123/56/26
f 121/52/25 90/89/25 122/54/25
f 120/50/24 89/91/24 121/52/24
f 119/47/23 88/93/23 120/50/23
f 118/48/22 87/95/22 119/47/22
f 117/43/21 86/144/21 118/45/21
f 116/41/20 85/99/20 117/43/20
f 115/39/19 84/102/19 116/41/19
f 114/37/18 83/104/18 115/39/18
f 113/35/17 82/106/17 114/37/17
f 112/33/16 81/108/16 113/35/16
f 111/31/15 80/110/15 112/33/15
f 110/28/14 79/112/14 111/31/14
f 109/29/13 78/114/13 110/28/13
f 108/24/12 77/145/12 109/26/12
f 107/22/11 76/118/11 108/24/11
f 106/20/10 75/121/10 107/22/10
f 105/18/9 74/123/9 106/20/9
f 104/16/8 73/125/8 105/18/8
f 103/14/7 72/127/7 104/16/7
f 102/12/6 71/129/6 103/14/6
f 101/9/5 70/131/5 102/12/5
f 100/10/4 69/133/4 101/9/4
f 99/5/3 68/146/3 100/7/3
f 98/2/2 67/137/2 99/5/2
f 97/3/1 66/140/1 98/2/1
f 160/76/1 34/147/1 129/141/1
f 129/141/2 35/149/2 130/139/2
f 130/139/3 36/150/3 131/138/3
f 131/136/4 37/151/4 132/134/4
f 132/134/5 38/153/5 133/132/5
f 133/132/6 39/154/6 134/130/6
f 134/130/7 40/155/7 135/128/7
f 135/128/8 41/156/8 136/126/8
f 136/126/9 42/157/9 137/124/9
f 137/124/10 43/158/10 138/122/10
f 138/122/11 44/159/11 139/120/11
f 139/120/12 45/160/12 140/119/12
f 140/117/13 46/161/13 141/115/13
f 141/115/14 47/163/14 142/113/14
f 142/113/15 48/164/15 143/111/15
f 143/111/16 49/165/16 144/109/16
f 144/109/17 50/166/17 145/107/17
f 145/107/18 51/167/18 146/105/18
f 146/105/19 52/168/19 147/103/19
f 147/103/20 53/169/20 148/101/20
f 148/101/21 54/170/21 149/100/21
f 149/98/22 55/171/22 150/96/22
f 150/96/23 56/173/23 151/94/23
f 151/94/24 57/174/24 152/92/24
f 152/92/25 58/175/25 153/90/25
f 153/90/26 59/176/26 154/88/26
f 154/88/27 60/177/27 155/87/27
f 155/85/28 61/178/28 156/83/28
f 156/83/29 62/180/29 157/81/29
f 157/81/30 63/181/30 158/79/30
f 158/79/32 64/182/32 159/77/32
f 159/77/33 33/148/33 160/76/33
