# Blender 4.5.3 LTS
# www.blender.org
o C1_C3_VL_AIR
v 31.848703 4.400026 -9.954412
v 31.948639 4.567941 -9.970134
v 32.026421 4.741755 -10.016697
v 32.079056 4.914791 -10.092311
v 32.104523 5.080398 -10.194071
v 32.101849 5.232212 -10.318066
v 32.071129 5.364399 -10.459531
v 32.013546 5.471880 -10.613029
v 31.931313 5.550523 -10.772661
v 31.827593 5.597307 -10.932294
v 31.706367 5.610434 -11.085792
v 31.572298 5.589398 -11.227257
v 31.430534 5.535009 -11.351252
v 31.286528 5.449358 -11.453012
v 31.145809 5.335734 -11.528625
v 31.013790 5.198505 -11.575189
v 30.895538 5.042944 -11.590911
v 30.795603 4.875031 -11.575189
v 30.717823 4.701216 -11.528625
v 30.665186 4.528181 -11.453012
v 30.639717 4.362574 -11.351252
v 30.642395 4.210759 -11.227257
v 30.673115 4.078572 -11.085792
v 30.730696 3.971091 -10.932294
v 30.812927 3.892448 -10.772661
v 30.916649 3.845664 -10.613029
v 31.037874 3.832538 -10.459531
v 31.171944 3.853573 -10.318066
v 31.313705 3.907962 -10.194071
v 31.457714 3.993613 -10.092311
v 31.598431 4.107237 -10.016697
v 31.730453 4.244466 -9.970134
v 20.316582 12.178541 -0.181750
v 20.416519 12.346455 -0.197472
v 20.494299 12.520269 -0.244035
v 20.546934 12.693305 -0.319650
v 20.572405 12.858912 -0.421410
v 20.569727 13.010727 -0.545405
v 20.539007 13.142914 -0.686869
v 20.481424 13.250394 -0.840367
v 20.399193 13.329038 -1.000000
v 20.295471 13.375821 -1.159633
v 20.174248 13.388947 -1.313131
v 20.040176 13.367912 -1.454595
v 19.898415 13.313524 -1.578590
v 19.754408 13.227872 -1.680350
v 19.613689 13.114248 -1.755965
v 19.481668 12.977019 -1.802528
v 19.363419 12.821459 -1.818250
v 19.263481 12.653545 -1.802528
v 19.185701 12.479731 -1.755965
v 19.133066 12.306695 -1.680350
v 19.107595 12.141088 -1.578590
v 19.110273 11.989273 -1.454595
v 19.140993 11.857086 -1.313131
v 19.198576 11.749606 -1.159633
v 19.280807 11.670962 -1.000000
v 19.384529 11.624179 -0.840367
v 19.505753 11.611053 -0.686869
v 19.639824 11.632088 -0.545405
v 19.781586 11.686476 -0.421410
v 19.925592 11.772128 -0.319650
v 20.066311 11.885752 -0.244035
v 20.198332 12.022981 -0.197472
v 26.082644 8.289284 -5.068080
v 26.182579 8.457197 -5.083803
v 26.260359 8.631012 -5.130366
v 26.312996 8.804049 -5.205980
v 26.338465 8.969655 -5.307740
v 26.335789 9.121469 -5.431735
v 26.305067 9.253656 -5.573200
v 26.247486 9.361137 -5.726698
v 26.165253 9.439780 -5.886331
v 26.061531 9.486565 -6.045963
v 25.940308 9.499691 -6.199461
v 25.806236 9.478655 -6.340926
v 25.664474 9.424267 -6.464921
v 25.520468 9.338615 -6.566681
v 25.379749 9.224991 -6.642295
v 25.247728 9.087763 -6.688858
v 25.129478 8.932201 -6.704581
v 25.029543 8.764288 -6.688858
v 24.951761 8.590473 -6.642295
v 24.899126 8.417438 -6.566681
v 24.873657 8.251831 -6.464921
v 24.876333 8.100017 -6.340926
v 24.907053 7.967829 -6.199461
v 24.964636 7.860349 -6.045963
v 25.046867 7.781705 -5.886331
v 25.150589 7.734921 -5.726698
v 25.271814 7.721795 -5.573200
v 25.405884 7.742830 -5.431735
v 25.547646 7.797219 -5.307740
v 25.691654 7.882871 -5.205980
v 25.832371 7.996494 -5.130366
v 25.964394 8.133723 -5.083803
v 23.299549 10.401827 -2.640638
v 23.377329 10.575641 -2.687201
v 23.429966 10.748676 -2.762815
v 23.455435 10.914284 -2.864575
v 23.452757 11.066098 -2.988570
v 23.422037 11.198285 -3.130034
v 23.364456 11.305765 -3.283533
v 23.282223 11.384409 -3.443165
v 23.178501 11.431192 -3.602798
v 23.057278 11.444319 -3.756296
v 22.923206 11.423284 -3.897761
v 22.781445 11.368896 -4.021755
v 22.637438 11.283243 -4.123515
v 22.496719 11.169620 -4.199130
v 22.364698 11.032391 -4.245693
v 22.246449 10.876830 -4.261415
v 22.146511 10.708917 -4.245693
v 22.068731 10.535102 -4.199130
v 22.016096 10.362066 -4.123515
v 21.990627 10.196459 -4.021755
v 21.993303 10.044645 -3.897761
v 22.024023 9.912457 -3.756296
v 22.081606 9.804977 -3.602798
v 22.163837 9.726334 -3.443165
v 22.267559 9.679550 -3.283533
v 22.388784 9.666424 -3.130034
v 22.522854 9.687459 -2.988570
v 22.664616 9.741848 -2.864575
v 22.808624 9.827499 -2.762815
v 22.949341 9.941123 -2.687201
v 23.081362 10.078352 -2.640638
v 23.199614 10.233912 -2.624915
v 28.965673 6.344656 -7.511246
v 29.065609 6.512569 -7.526968
v 29.143391 6.686384 -7.573531
v 29.196026 6.859419 -7.649146
v 29.221495 7.025026 -7.750906
v 29.218819 7.176841 -7.874900
v 29.188099 7.309028 -8.016365
v 29.130516 7.416509 -8.169863
v 29.048283 7.495152 -8.329496
v 28.944563 7.541936 -8.489128
v 28.823338 7.555062 -8.642627
v 28.689268 7.534027 -8.784092
v 28.547504 7.479638 -8.908087
v 28.403498 7.393986 -9.009846
v 28.262779 7.280363 -9.085461
v 28.130760 7.143134 -9.132024
v 28.012508 6.987573 -9.147746
v 27.912573 6.819659 -9.132024
v 27.834793 6.645845 -9.085461
v 27.782156 6.472809 -9.009846
v 27.756687 6.307202 -8.908087
v 27.759365 6.155388 -8.784092
v 27.790085 6.023201 -8.642627
v 27.847666 5.915720 -8.489128
v 27.929897 5.837077 -8.329496
v 28.033619 5.790293 -8.169863
v 28.154844 5.777166 -8.016365
v 28.288914 5.798202 -7.874900
v 28.430676 5.852591 -7.750906
v 28.574684 5.938242 -7.649146
v 28.715401 6.051866 -7.573531
v 28.847424 6.189095 -7.526968
vn 0.5291 -0.2387 0.8143
vn 0.6184 -0.0670 0.7830
vn 0.6839 0.1073 0.7216
vn 0.7232 0.2774 0.6325
vn 0.7346 0.4369 0.5191
vn 0.7178 0.5796 0.3857
vn 0.6735 0.7000 0.2375
vn 0.6032 0.7935 0.0802
vn 0.5098 0.8566 -0.0802
vn 0.3968 0.8867 -0.2375
vn 0.2685 0.8827 -0.3857
vn 0.1299 0.8448 -0.5191
vn -0.0137 0.7744 -0.6325
vn -0.1567 0.6743 -0.7216
vn -0.2937 0.5483 -0.7830
vn -0.4195 0.4012 -0.8143
vn -0.5291 0.2387 -0.8143
vn -0.6184 0.0670 -0.7830
vn -0.6839 -0.1073 -0.7216
vn -0.7232 -0.2774 -0.6325
vn -0.7346 -0.4369 -0.5191
vn -0.7178 -0.5796 -0.3857
vn -0.6735 -0.7000 -0.2375
vn -0.6032 -0.7935 -0.0802
vn -0.5098 -0.8566 0.0802
vn -0.3968 -0.8867 0.2375
vn -0.2685 -0.8827 0.3857
vn -0.1299 -0.8448 0.5191
vn 0.0137 -0.7744 0.6325
vn 0.1567 -0.6743 0.7216
vn 0.6784 -0.4576 -0.5749
vn 0.2937 -0.5483 0.7830
vn 0.4195 -0.4012 0.8143
vn -0.6784 0.4576 0.5749
vn 0.6784 -0.4575 -0.5749
vt 0.498793 0.311853
vt 0.561444 0.266465
vt 0.561444 0.311853
vt 0.498793 0.266465
vt 0.561444 0.218282
vt 0.498793 0.218282
vt 0.561444 0.169156
vt 0.498793 0.169156
vt 0.561444 0.120973
vt 0.498793 0.120973
vt 0.561444 0.075585
vt 0.498793 0.075585
vt 0.561444 0.034738
vt 0.498793 0.034738
vt 0.561444 -0.000000
vt 0.498793 0.705400
vt 0.561444 0.664553
vt 0.561444 0.705400
vt 0.498793 0.664553
vt 0.561444 0.619165
vt 0.498793 0.619165
vt 0.561444 0.570983
vt 0.498793 0.570983
vt 0.561444 0.521856
vt 0.498793 0.521856
vt 0.561444 0.473673
vt 0.498793 0.473673
vt 0.561444 0.428286
vt 0.498793 0.428286
vt 0.561444 0.387438
vt 0.498793 0.387438
vt 0.561444 0.352700
vt 0.749397 0.352700
vt 0.812047 0.311853
vt 0.812047 0.352700
vt 0.749397 0.311853
vt 0.812047 0.266465
vt 0.749397 0.266465
vt 0.812047 0.218282
vt 0.749397 0.218282
vt 0.812047 0.169156
vt 0.749397 0.169156
vt 0.812047 0.120973
vt 0.749397 0.120973
vt 0.812047 0.075585
vt 0.749397 0.075585
vt 0.812047 0.034738
vt 0.749397 0.034738
vt 0.812047 0.000000
vt 0.749397 0.705400
vt 0.812047 0.664553
vt 0.812047 0.705400
vt 0.749397 0.664553
vt 0.812047 0.619165
vt 0.749397 0.619165
vt 0.812048 0.570983
vt 0.749397 0.570983
vt 0.812048 0.521856
vt 0.749397 0.521856
vt 0.812048 0.473673
vt 0.749397 0.473673
vt 0.812048 0.428286
vt 0.749397 0.428286
vt 0.812048 0.387438
vt 0.367530 0.028384
vt 0.470409 0.367530
vt 0.131263 0.470409
vt 0.749397 0.387438
vt 0.812048 0.352700
vt 0.498793 0.352700
vt 0.561444 0.352700
vt 0.367530 0.527178
vt 0.470409 0.866324
vt 0.131263 0.969202
vt 0.624095 0.352700
vt 0.686746 0.311853
vt 0.686746 0.352700
vt 0.874698 0.387438
vt 0.937349 0.352700
vt 0.937349 0.387438
vt 0.874698 0.428286
vt 0.937349 0.428286
vt 0.874698 0.473673
vt 0.937349 0.473673
vt 0.874698 0.521856
vt 0.937349 0.521856
vt 0.874698 0.570983
vt 0.937349 0.570983
vt 0.874698 0.619165
vt 0.937349 0.619166
vt 0.874698 0.664553
vt 0.937349 0.664553
vt 0.874698 0.705400
vt 0.937349 0.705400
vt 0.874698 0.034738
vt 0.937349 0.000000
vt 0.937349 0.034738
vt 0.874698 0.075585
vt 0.937349 0.075585
vt 0.874698 0.120973
vt 0.937349 0.120973
vt 0.874698 0.169156
vt 0.937349 0.169156
vt 0.874698 0.218282
vt 0.937349 0.218282
vt 0.874698 0.266465
vt 0.937349 0.266465
vt 0.874698 0.311853
vt 0.937349 0.311853
vt 0.874698 0.352700
vt 0.937349 0.352700
vt 0.624095 0.387438
vt 0.686746 0.352700
vt 0.686746 0.387438
vt 0.624095 0.428286
vt 0.686746 0.428286
vt 0.624095 0.473673
vt 0.686746 0.473673
vt 0.624095 0.521856
vt 0.686746 0.521856
vt 0.624095 0.570983
vt 0.686746 0.570983
vt 0.624095 0.619165
vt 0.686746 0.619165
vt 0.624095 0.664553
vt 0.686746 0.664553
vt 0.624095 0.705400
vt 0.686746 0.705400
vt 0.624095 0.034738
vt 0.686746 0.000000
vt 0.686746 0.034738
vt 0.624095 0.075585
vt 0.686746 0.075585
vt 0.624095 0.120973
vt 0.686746 0.120973
vt 0.624095 0.169156
vt 0.686746 0.169156
vt 0.624095 0.218282
vt 0.686746 0.218282
vt 0.624095 0.266465
vt 0.686746 0.266465
vt 0.624095 0.311853
vt 0.749397 0.311853
vt 0.749397 0.218282
vt 0.749397 0.169156
vt 0.749397 0.120973
vt 0.749397 0.075585
vt 0.749397 0.034738
vt 0.749397 0.000000
vt 0.749397 0.352700
vt 1.000000 0.311853
vt 1.000000 0.352700
vt 1.000000 0.266465
vt 1.000000 0.218282
vt 1.000000 0.169156
vt 1.000000 0.120973
vt 1.000000 0.075585
vt 1.000000 0.034738
vt 1.000000 0.000000
vt 1.000000 0.664553
vt 1.000000 0.705400
vt 1.000000 0.619166
vt 1.000000 0.570983
vt 1.000000 0.521856
vt 1.000000 0.473673
vt 1.000000 0.428286
vt 1.000000 0.387438
vt 1.000000 0.352700
vt 0.874698 0.352700
vt 0.874698 0.000000
vt 0.624095 0.352700
vt 0.624095 0.000000
vt 0.498793 -0.000000
vt 0.498793 0.352700
vt 0.749397 -0.000000
vt 0.090416 0.443116
vt 0.055678 0.408378
vt 0.028384 0.367530
vt 0.009584 0.322143
vt -0.000000 0.273960
vt 0.000000 0.224833
vt 0.009584 0.176650
vt 0.028384 0.131263
vt 0.055678 0.090416
vt 0.090416 0.055678
vt 0.131263 0.028384
vt 0.176650 0.009584
vt 0.224833 -0.000000
vt 0.273960 -0.000000
vt 0.322143 0.009584
vt 0.408378 0.055678
vt 0.489209 0.176650
vt 0.443116 0.090416
vt 0.470409 0.131263
vt 0.498793 0.224833
vt 0.498793 0.273960
vt 0.489209 0.322143
vt 0.443116 0.408378
vt 0.322143 0.489209
vt 0.408378 0.443116
vt 0.367530 0.470409
vt 0.273960 0.498793
vt 0.224833 0.498793
vt 0.176650 0.489209
vt 0.090416 0.941909
vt 0.055678 0.907171
vt 0.028384 0.866324
vt 0.009584 0.820936
vt 0.000000 0.772753
vt 0.000000 0.723627
vt 0.009584 0.675444
vt 0.028384 0.630056
vt 0.055678 0.589209
vt 0.090416 0.554471
vt 0.131263 0.527178
vt 0.176650 0.508377
vt 0.224833 0.498793
vt 0.273960 0.498793
vt 0.322143 0.508377
vt 0.408378 0.554471
vt 0.489209 0.675444
vt 0.443116 0.589209
vt 0.470409 0.630056
vt 0.498793 0.723627
vt 0.498793 0.772753
vt 0.489209 0.820936
vt 0.443116 0.907171
vt 0.322143 0.988002
vt 0.408378 0.941909
vt 0.367530 0.969202
vt 0.273960 0.997587
vt 0.224833 0.997587
vt 0.176650 0.988002
s 0
f 1/1/1 130/2/1 129/3/1
f 2/4/2 131/5/2 130/2/2
f 3/6/3 132/7/3 131/5/3
f 4/8/4 133/9/4 132/7/4
f 5/10/5 134/11/5 133/9/5
f 6/12/6 135/13/6 134/11/6
f 7/14/7 136/15/7 135/13/7
f 8/16/8 137/17/8 136/18/8
f 9/19/9 138/20/9 137/17/9
f 10/21/10 139/22/10 138/20/10
f 11/23/11 140/24/11 139/22/11
f 12/25/12 141/26/12 140/24/12
f 13/27/13 142/28/13 141/26/13
f 14/29/14 143/30/14 142/28/14
f 15/31/15 144/32/15 143/30/15
f 16/33/16 145/34/16 144/35/16
f 17/36/17 146/37/17 145/34/17
f 18/38/18 147/39/18 146/37/18
f 19/40/19 148/41/19 147/39/19
f 20/42/20 149/43/20 148/41/20
f 21/44/21 150/45/21 149/43/21
f 22/46/22 151/47/22 150/45/22
f 23/48/23 152/49/23 151/47/23
f 24/50/24 153/51/24 152/52/24
f 25/53/25 154/54/25 153/51/25
f 26/55/26 155/56/26 154/54/26
f 27/57/27 156/58/27 155/56/27
f 28/59/28 157/60/28 156/58/28
f 29/61/29 158/62/29 157/60/29
f 30/63/30 159/64/30 158/62/30
f 19/65/31 11/66/31 3/67/31
f 31/68/32 160/69/32 159/64/32
f 32/70/33 129/3/33 160/71/33
f 47/72/34 55/73/34 63/74/34
f 96/75/33 128/76/33 127/77/33
f 95/78/32 127/79/32 126/80/32
f 94/81/30 126/80/30 125/82/30
f 93/83/29 125/82/29 124/84/29
f 92/85/28 124/84/28 123/86/28
f 91/87/27 123/86/27 122/88/27
f 90/89/26 122/88/26 121/90/26
f 89/91/25 121/90/25 120/92/25
f 88/93/24 120/92/24 119/94/24
f 87/95/23 119/96/23 118/97/23
f 86/98/22 118/97/22 117/99/22
f 85/100/21 117/99/21 116/101/21
f 84/102/20 116/101/20 115/103/20
f 83/104/19 115/103/19 114/105/19
f 82/106/18 114/105/18 113/107/18
f 81/108/17 113/107/17 112/109/17
f 80/110/16 112/109/16 111/111/16
f 79/112/15 111/113/15 110/114/15
f 78/115/14 110/114/14 109/116/14
f 77/117/13 109/116/13 108/118/13
f 76/119/12 108/118/12 107/120/12
f 75/121/11 107/120/11 106/122/11
f 74/123/10 106/122/10 105/124/10
f 73/125/9 105/124/9 104/126/9
f 72/127/8 104/126/8 103/128/8
f 71/129/7 103/130/7 102/131/7
f 70/132/6 102/131/6 101/133/6
f 69/134/5 101/133/5 100/135/5
f 68/136/4 100/135/4 99/137/4
f 67/138/3 99/137/3 98/139/3
f 66/140/2 98/139/2 97/141/2
f 65/142/1 97/141/1 128/76/1
f 128/76/1 34/38/1 33/143/1
f 97/141/2 35/144/2 34/38/2
f 98/139/3 36/145/3 35/144/3
f 99/137/4 37/146/4 36/145/4
f 100/135/5 38/147/5 37/146/5
f 101/133/6 39/148/6 38/147/6
f 102/131/7 40/149/7 39/148/7
f 103/128/8 41/53/8 40/50/8
f 104/126/9 42/55/9 41/53/9
f 105/124/10 43/57/10 42/55/10
f 106/122/11 44/59/11 43/57/11
f 107/120/12 45/61/12 44/59/12
f 108/118/13 46/63/13 45/61/13
f 109/116/14 47/68/14 46/63/14
f 110/114/15 48/150/15 47/68/15
f 111/111/16 49/151/16 48/152/16
f 112/109/17 50/153/17 49/151/17
f 113/107/18 51/154/18 50/153/18
f 114/105/19 52/155/19 51/154/19
f 115/103/20 53/156/20 52/155/20
f 116/101/21 54/157/21 53/156/21
f 117/99/22 55/158/22 54/157/22
f 118/97/23 56/159/23 55/158/23
f 119/94/24 57/160/24 56/161/24
f 120/92/25 58/162/25 57/160/25
f 121/90/26 59/163/26 58/162/26
f 122/88/27 60/164/27 59/163/27
f 123/86/28 61/165/28 60/164/28
f 124/84/29 62/166/29 61/165/29
f 125/82/30 63/167/30 62/166/30
f 126/80/32 64/168/32 63/167/32
f 127/77/33 33/143/33 64/33/33
f 160/71/33 65/142/33 96/75/33
f 159/64/32 96/169/32 95/78/32
f 158/62/30 95/78/30 94/81/30
f 157/60/29 94/81/29 93/83/29
f 156/58/28 93/83/28 92/85/28
f 155/56/27 92/85/27 91/87/27
f 154/54/26 91/87/26 90/89/26
f 153/51/25 90/89/25 89/91/25
f 152/52/24 89/91/24 88/93/24
f 151/47/23 88/170/23 87/95/23
f 150/45/22 87/95/22 86/98/22
f 149/43/21 86/98/21 85/100/21
f 148/41/20 85/100/20 84/102/20
f 147/39/19 84/102/19 83/104/19
f 146/37/18 83/104/18 82/106/18
f 145/34/17 82/106/17 81/108/17
f 144/35/16 81/108/16 80/110/16
f 143/30/15 80/171/15 79/112/15
f 142/28/14 79/112/14 78/115/14
f 141/26/13 78/115/13 77/117/13
f 140/24/12 77/117/12 76/119/12
f 139/22/11 76/119/11 75/121/11
f 138/20/10 75/121/10 74/123/10
f 137/17/9 74/123/9 73/125/9
f 136/18/8 73/125/8 72/127/8
f 135/13/7 72/172/7 71/129/7
f 134/11/6 71/129/6 70/132/6
f 133/9/5 70/132/5 69/134/5
f 132/7/4 69/134/4 68/136/4
f 131/5/3 68/136/3 67/138/3
f 130/2/2 67/138/2 66/140/2
f 129/3/1 66/140/1 65/142/1
f 1/1/1 2/4/1 130/2/1
f 2/4/2 3/6/2 131/5/2
f 3/6/3 4/8/3 132/7/3
f 4/8/4 5/10/4 133/9/4
f 5/10/5 6/12/5 134/11/5
f 6/12/6 7/14/6 135/13/6
f 7/14/7 8/173/7 136/15/7
f 8/16/8 9/19/8 137/17/8
f 9/19/9 10/21/9 138/20/9
f 10/21/10 11/23/10 139/22/10
f 11/23/11 12/25/11 140/24/11
f 12/25/12 13/27/12 141/26/12
f 13/27/13 14/29/13 142/28/13
f 14/29/14 15/31/14 143/30/14
f 15/31/15 16/174/15 144/32/15
f 16/33/16 17/36/16 145/34/16
f 17/36/17 18/38/17 146/37/17
f 18/38/18 19/40/18 147/39/18
f 19/40/19 20/42/19 148/41/19
f 20/42/20 21/44/20 149/43/20
f 21/44/21 22/46/21 150/45/21
f 22/46/22 23/48/22 151/47/22
f 23/48/23 24/175/23 152/49/23
f 24/50/24 25/53/24 153/51/24
f 25/53/25 26/55/25 154/54/25
f 26/55/26 27/57/26 155/56/26
f 27/57/27 28/59/27 156/58/27
f 28/59/28 29/61/28 157/60/28
f 29/61/29 30/63/29 158/62/29
f 30/63/30 31/68/30 159/64/30
f 3/67/31 2/176/31 1/177/31
f 1/177/31 32/178/31 3/67/31
f 32/178/31 31/179/31 3/67/31
f 31/179/31 30/180/31 29/181/31
f 29/181/31 28/182/31 27/183/31
f 27/183/31 26/184/31 25/185/31
f 25/185/31 24/186/31 27/183/31
f 24/186/31 23/187/31 27/183/31
f 23/187/31 22/188/31 21/189/31
f 21/189/31 20/190/31 19/65/31
f 19/65/31 18/191/31 15/192/31
f 18/191/31 17/193/31 15/192/31
f 17/193/31 16/194/31 15/192/31
f 15/192/31 14/195/31 13/196/31
f 13/196/31 12/197/31 11/66/31
f 11/66/31 10/198/31 7/199/31
f 10/198/35 9/200/35 7/199/35
f 9/200/31 8/201/31 7/199/31
f 7/199/31 6/202/31 5/203/31
f 5/203/31 4/204/31 3/67/31
f 31/179/31 29/181/31 3/67/31
f 29/181/31 27/183/31 3/67/31
f 23/187/31 21/189/31 27/183/31
f 21/189/31 19/65/31 27/183/31
f 15/192/31 13/196/31 19/65/31
f 13/196/31 11/66/31 19/65/31
f 7/199/31 5/203/31 11/66/31
f 5/203/31 3/67/31 11/66/31
f 3/67/31 27/183/31 19/65/31
f 31/68/32 32/150/32 160/69/32
f 32/70/33 1/1/33 129/3/33
f 63/74/34 64/205/34 33/206/34
f 33/206/34 34/207/34 63/74/34
f 34/207/34 35/208/34 63/74/34
f 35/208/34 36/209/34 37/210/34
f 37/210/34 38/211/34 39/212/34
f 39/212/34 40/213/34 41/214/34
f 41/214/34 42/215/34 39/212/34
f 42/215/34 43/216/34 39/212/34
f 43/216/34 44/217/34 45/218/34
f 45/218/34 46/219/34 47/72/34
f 47/72/34 48/220/34 51/221/34
f 48/220/34 49/222/34 51/221/34
f 49/222/34 50/223/34 51/221/34
f 51/221/34 52/224/34 53/225/34
f 53/225/34 54/226/34 55/73/34
f 55/73/34 56/227/34 59/228/34
f 56/227/34 57/229/34 59/228/34
f 57/229/34 58/230/34 59/228/34
f 59/228/34 60/231/34 61/232/34
f 61/232/34 62/233/34 63/74/34
f 35/208/34 37/210/34 63/74/34
f 37/210/34 39/212/34 63/74/34
f 43/216/34 45/218/34 39/212/34
f 45/218/34 47/72/34 39/212/34
f 51/221/34 53/225/34 47/72/34
f 53/225/34 55/73/34 47/72/34
f 59/228/34 61/232/34 55/73/34
f 61/232/34 63/74/34 55/73/34
f 63/74/34 39/212/34 47/72/34
f 96/75/33 65/142/33 128/76/33
f 95/78/32 96/169/32 127/79/32
f 94/81/30 95/78/30 126/80/30
f 93/83/29 94/81/29 125/82/29
f 92/85/28 93/83/28 124/84/28
f 91/87/27 92/85/27 123/86/27
f 90/89/26 91/87/26 122/88/26
f 89/91/25 90/89/25 121/90/25
f 88/93/24 89/91/24 120/92/24
f 87/95/23 88/170/23 119/96/23
f 86/98/22 87/95/22 118/97/22
f 85/100/21 86/98/21 117/99/21
f 84/102/20 85/100/20 116/101/20
f 83/104/19 84/102/19 115/103/19
f 82/106/18 83/104/18 114/105/18
f 81/108/17 82/106/17 113/107/17
f 80/110/16 81/108/16 112/109/16
f 79/112/15 80/171/15 111/113/15
f 78/115/14 79/112/14 110/114/14
f 77/117/13 78/115/13 109/116/13
f 76/119/12 77/117/12 108/118/12
f 75/121/11 76/119/11 107/120/11
f 74/123/10 75/121/10 106/122/10
f 73/125/9 74/123/9 105/124/9
f 72/127/8 73/125/8 104/126/8
f 71/129/7 72/172/7 103/130/7
f 70/132/6 71/129/6 102/131/6
f 69/134/5 70/132/5 101/133/5
f 68/136/4 69/134/4 100/135/4
f 67/138/3 68/136/3 99/137/3
f 66/140/2 67/138/2 98/139/2
f 65/142/1 66/140/1 97/141/1
f 128/76/1 97/141/1 34/38/1
f 97/141/2 98/139/2 35/144/2
f 98/139/3 99/137/3 36/145/3
f 99/137/4 100/135/4 37/146/4
f 100/135/5 101/133/5 38/147/5
f 101/133/6 102/131/6 39/148/6
f 102/131/7 103/130/7 40/149/7
f 103/128/8 104/126/8 41/53/8
f 104/126/9 105/124/9 42/55/9
f 105/124/10 106/122/10 43/57/10
f 106/122/11 107/120/11 44/59/11
f 107/120/12 108/118/12 45/61/12
f 108/118/13 109/116/13 46/63/13
f 109/116/14 110/114/14 47/68/14
f 110/114/15 111/113/15 48/150/15
f 111/111/16 112/109/16 49/151/16
f 112/109/17 113/107/17 50/153/17
f 113/107/18 114/105/18 51/154/18
f 114/105/19 115/103/19 52/155/19
f 115/103/20 116/101/20 53/156/20
f 116/101/21 117/99/21 54/157/21
f 117/99/22 118/97/22 55/158/22
f 118/97/23 119/96/23 56/159/23
f 119/94/24 120/92/24 57/160/24
f 120/92/25 121/90/25 58/162/25
f 121/90/26 122/88/26 59/163/26
f 122/88/27 123/86/27 60/164/27
f 123/86/28 124/84/28 61/165/28
f 124/84/29 125/82/29 62/166/29
f 125/82/30 126/80/30 63/167/30
f 126/80/32 127/79/32 64/168/32
f 127/77/33 128/76/33 33/143/33
f 160/71/33 129/3/33 65/142/33
f 159/64/32 160/69/32 96/169/32
f 158/62/30 159/64/30 95/78/30
f 157/60/29 158/62/29 94/81/29
f 156/58/28 157/60/28 93/83/28
f 155/56/27 156/58/27 92/85/27
f 154/54/26 155/56/26 91/87/26
f 153/51/25 154/54/25 90/89/25
f 152/52/24 153/51/24 89/91/24
f 151/47/23 152/49/23 88/170/23
f 150/45/22 151/47/22 87/95/22
f 149/43/21 150/45/21 86/98/21
f 148/41/20 149/43/20 85/100/20
f 147/39/19 148/41/19 84/102/19
f 146/37/18 147/39/18 83/104/18
f 145/34/17 146/37/17 82/106/17
f 144/35/16 145/34/16 81/108/16
f 143/30/15 144/32/15 80/171/15
f 142/28/14 143/30/14 79/112/14
f 141/26/13 142/28/13 78/115/13
f 140/24/12 141/26/12 77/117/12
f 139/22/11 140/24/11 76/119/11
f 138/20/10 139/22/10 75/121/10
f 137/17/9 138/20/9 74/123/9
f 136/18/8 137/17/8 73/125/8
f 135/13/7 136/15/7 72/172/7
f 134/11/6 135/13/6 71/129/6
f 133/9/5 134/11/5 70/132/5
f 132/7/4 133/9/4 69/134/4
f 131/5/3 132/7/3 68/136/3
f 130/2/2 131/5/2 67/138/2
f 129/3/1 130/2/1 66/140/1
