# Blender 4.5.3 LTS
# www.blender.org
o C1_C3_H_UW
v -17.939201 37.894173 9.750002
v 35.119202 2.105827 9.749998
v -17.802835 38.096344 9.725983
v 35.255569 2.307999 9.725980
v -17.671709 38.290749 9.654851
v 35.386696 2.502401 9.654848
v -17.550863 38.469910 9.539338
v 35.507538 2.681562 9.539335
v -17.444941 38.626945 9.383884
v 35.613464 2.838600 9.383883
v -17.358011 38.755821 9.194464
v 35.700394 2.967476 9.194462
v -17.293417 38.851585 8.978355
v 35.764984 3.063240 8.978353
v -17.253641 38.910557 8.743864
v 35.804764 3.122211 8.743861
v -17.240210 38.930470 8.500001
v 35.818192 3.142124 8.499999
v -17.253641 38.910557 8.256139
v 35.804764 3.122211 8.256136
v -17.293417 38.851585 8.021647
v 35.764984 3.063240 8.021645
v -17.358011 38.755821 7.805539
v 35.700394 2.967476 7.805536
v -17.444941 38.626945 7.616118
v 35.613464 2.838600 7.616115
v -17.550863 38.469910 7.460664
v 35.507538 2.681562 7.460661
v -17.671709 38.290749 7.345152
v 35.386696 2.502401 7.345149
v -17.802835 38.096344 7.274020
v 35.255569 2.307999 7.274017
v -17.939201 37.894173 7.250001
v 35.119202 2.105827 7.249999
v -18.075567 37.692001 7.274020
v 34.982834 1.903656 7.274017
v -18.206694 37.497597 7.345152
v 34.851707 1.709253 7.345149
v -18.327539 37.318436 7.460664
v 34.730865 1.530092 7.460661
v -18.433462 37.161400 7.616118
v 34.624939 1.373055 7.616115
v -18.520391 37.032524 7.805539
v 34.538010 1.244179 7.805536
v -18.584986 36.936760 8.021647
v 34.473419 1.148415 8.021645
v -18.624762 36.877789 8.256139
v 34.433640 1.089443 8.256136
v -18.638193 36.857876 8.500001
v 34.420212 1.069530 8.499999
v -18.624762 36.877789 8.743864
v 34.433640 1.089443 8.743861
v -18.584986 36.936760 8.978355
v 34.473419 1.148415 8.978353
v -18.520391 37.032524 9.194464
v 34.538010 1.244179 9.194462
v -18.433462 37.161400 9.383884
v 34.624939 1.373055 9.383883
v -18.327539 37.318436 9.539338
v 34.730865 1.530092 9.539335
v -18.206694 37.497597 9.654851
v 34.851707 1.709253 9.654848
v -18.075567 37.692001 9.725983
v 34.982834 1.903656 9.725980
v 8.590000 20.000000 9.750000
v 8.726367 20.202171 9.725982
v 8.857492 20.396574 9.654849
v 8.978339 20.575735 9.539337
v 9.084262 20.732773 9.383883
v 9.171190 20.861649 9.194463
v 9.235784 20.957413 8.978354
v 9.275560 21.016384 8.743863
v 9.288991 21.036297 8.500000
v 9.275560 21.016384 8.256137
v 9.235784 20.957413 8.021646
v 9.171190 20.861649 7.805537
v 9.084262 20.732773 7.616117
v 8.978339 20.575735 7.460663
v 8.857492 20.396574 7.345150
v 8.726366 20.202171 7.274018
v 8.590000 20.000000 7.250000
v 8.453633 19.797829 7.274018
v 8.322508 19.603426 7.345150
v 8.201661 19.424265 7.460663
v 8.095738 19.267227 7.616117
v 8.008810 19.138351 7.805537
v 7.944217 19.042587 8.021646
v 7.904440 18.983616 8.256137
v 7.891009 18.963703 8.500000
v 7.904440 18.983616 8.743863
v 7.944217 19.042587 8.978354
v 8.008810 19.138351 9.194463
v 8.095738 19.267227 9.383883
v 8.201661 19.424265 9.539337
v 8.322508 19.603426 9.654849
v 8.453634 19.797829 9.725982
v 21.854601 11.052914 9.749999
v 21.990967 11.255085 9.725981
v 22.122093 11.449488 9.654849
v 22.242939 11.628650 9.539336
v 22.348862 11.785686 9.383883
v 22.435791 11.914563 9.194462
v 22.500385 12.010327 8.978354
v 22.540161 12.069298 8.743862
v 22.553593 12.089211 8.499999
v 22.540161 12.069298 8.256136
v 22.500385 12.010327 8.021645
v 22.435791 11.914563 7.805536
v 22.348862 11.785686 7.616116
v 22.242939 11.628650 7.460662
v 22.122093 11.449488 7.345150
v 21.990967 11.255085 7.274018
v 21.854601 11.052914 7.249999
v 21.718235 10.850742 7.274018
v 21.587109 10.656340 7.345150
v 21.466263 10.477178 7.460662
v 21.360340 10.320141 7.616116
v 21.273411 10.191264 7.805536
v 21.208817 10.095500 8.021645
v 21.169041 10.036529 8.256136
v 21.155609 10.016617 8.499999
v 21.169041 10.036529 8.743862
v 21.208817 10.095500 8.978354
v 21.273411 10.191264 9.194462
v 21.360340 10.320141 9.383883
v 21.466263 10.477178 9.539336
v 21.587109 10.656340 9.654849
v 21.718235 10.850742 9.725981
v -4.538234 29.149258 9.725983
v -4.407108 29.343660 9.654850
v -4.286262 29.522823 9.539338
v -4.180339 29.679859 9.383884
v -4.093410 29.808735 9.194464
v -4.028817 29.904499 8.978355
v -3.989040 29.963470 8.743864
v -3.975610 29.983383 8.500001
v -3.989040 29.963470 8.256138
v -4.028817 29.904499 8.021646
v -4.093410 29.808735 7.805538
v -4.180339 29.679859 7.616117
v -4.286262 29.522823 7.460664
v -4.407108 29.343660 7.345151
v -4.538235 29.149258 7.274019
v -4.674601 28.947086 7.250001
v -4.810967 28.744915 7.274019
v -4.942093 28.550512 7.345151
v -5.062940 28.371349 7.460664
v -5.168862 28.214314 7.616117
v -5.255791 28.085438 7.805538
v -5.320384 27.989674 8.021646
v -5.360161 27.930702 8.256138
v -5.373591 27.910789 8.500001
v -5.360161 27.930702 8.743864
v -5.320384 27.989674 8.978355
v -5.255791 28.085438 9.194464
v -5.168862 28.214314 9.383884
v -5.062940 28.371349 9.539338
v -4.942093 28.550512 9.654850
v -4.810966 28.744915 9.725983
v -4.674601 28.947086 9.750001
v 1.957700 24.473543 9.750000
v 2.094066 24.675714 9.725982
v 2.225192 24.870117 9.654850
v 2.346038 25.049278 9.539337
v 2.451961 25.206316 9.383883
v 2.538890 25.335194 9.194463
v 2.603483 25.430958 8.978354
v 2.643260 25.489927 8.743863
v 2.656691 25.509840 8.500000
v 2.643260 25.489927 8.256138
v 2.603483 25.430958 8.021646
v 2.538890 25.335194 7.805538
v 2.451961 25.206316 7.616117
v 2.346038 25.049278 7.460663
v 2.225192 24.870117 7.345151
v 2.094066 24.675714 7.274019
v 1.957700 24.473543 7.250000
v 1.821333 24.271372 7.274019
v 1.690207 24.076969 7.345151
v 1.569361 23.897808 7.460663
v 1.463439 23.740770 7.616117
v 1.376510 23.611893 7.805538
v 1.311916 23.516129 8.021646
v 1.272140 23.457159 8.256138
v 1.258708 23.437246 8.500000
v 1.272140 23.457159 8.743863
v 1.311916 23.516129 8.978354
v 1.376510 23.611893 9.194463
v 1.463439 23.740770 9.383883
v 1.569361 23.897808 9.539337
v 1.690207 24.076969 9.654850
v 1.821333 24.271372 9.725982
v -11.170534 33.622803 9.725983
v -11.039408 33.817204 9.654850
v -10.918562 33.996365 9.539338
v -10.812639 34.153404 9.383884
v -10.725710 34.282280 9.194464
v -10.661116 34.378044 8.978355
v -10.621340 34.437016 8.743864
v -10.607908 34.456924 8.500001
v -10.621340 34.437016 8.256138
v -10.661116 34.378044 8.021646
v -10.725710 34.282280 7.805538
v -10.812639 34.153404 7.616117
v -10.918562 33.996365 7.460664
v -11.039408 33.817204 7.345152
v -11.170534 33.622803 7.274019
v -11.306900 33.420631 7.250001
v -11.443266 33.218460 7.274019
v -11.574392 33.024055 7.345152
v -11.695238 32.844894 7.460664
v -11.801161 32.687859 7.616117
v -11.888090 32.558979 7.805538
v -11.952684 32.463215 8.021646
v -11.992460 32.404243 8.256138
v -12.005892 32.384331 8.500001
v -11.992460 32.404243 8.743864
v -11.952684 32.463215 8.978355
v -11.888090 32.558979 9.194464
v -11.801161 32.687859 9.383884
v -11.695238 32.844894 9.539338
v -11.574392 33.024055 9.654850
v -11.443266 33.218460 9.725983
v -11.306900 33.420631 9.750001
v 15.358667 15.728628 9.725981
v 15.489793 15.923031 9.654849
v 15.610640 16.102192 9.539337
v 15.716562 16.259230 9.383883
v 15.803491 16.388107 9.194463
v 15.868084 16.483871 8.978354
v 15.907861 16.542841 8.743862
v 15.921291 16.562754 8.500000
v 15.907861 16.542841 8.256137
v 15.868084 16.483871 8.021646
v 15.803491 16.388107 7.805537
v 15.716562 16.259230 7.616116
v 15.610640 16.102192 7.460663
v 15.489793 15.923031 7.345150
v 15.358667 15.728628 7.274018
v 15.222301 15.526457 7.250000
v 15.085934 15.324286 7.274018
v 14.954808 15.129883 7.345150
v 14.833961 14.950722 7.460663
v 14.728039 14.793684 7.616116
v 14.641110 14.664807 7.805537
v 14.576517 14.569043 8.021646
v 14.536740 14.510073 8.256137
v 14.523310 14.490160 8.500000
v 14.536740 14.510073 8.743862
v 14.576517 14.569043 8.978354
v 14.641110 14.664807 9.194463
v 14.728039 14.793684 9.383883
v 14.833961 14.950722 9.539337
v 14.954808 15.129883 9.654849
v 15.085934 15.324286 9.725981
v 15.222301 15.526457 9.750000
v 28.486900 6.579370 9.749999
v 28.623266 6.781542 9.725981
v 28.754393 6.975945 9.654848
v 28.875238 7.155107 9.539336
v 28.981161 7.312143 9.383883
v 29.068090 7.441020 9.194462
v 29.132685 7.536784 8.978354
v 29.172461 7.595756 8.743862
v 29.185892 7.615667 8.499999
v 29.172461 7.595756 8.256136
v 29.132685 7.536784 8.021645
v 29.068090 7.441020 7.805536
v 28.981161 7.312143 7.616116
v 28.875238 7.155107 7.460662
v 28.754393 6.975945 7.345150
v 28.623266 6.781542 7.274017
v 28.486900 6.579370 7.249999
v 28.350534 6.377199 7.274017
v 28.219408 6.182796 7.345150
v 28.098562 6.003634 7.460662
v 27.992640 5.846598 7.616116
v 27.905710 5.717721 7.805536
v 27.841116 5.621957 8.021645
v 27.801340 5.562985 8.256136
v 27.787909 5.543074 8.499999
v 27.801340 5.562985 8.743862
v 27.841116 5.621957 8.978354
v 27.905710 5.717721 9.194462
v 27.992640 5.846598 9.383883
v 28.098562 6.003634 9.539336
v 28.219408 6.182796 9.654848
v 28.350534 6.377199 9.725981
vn 0.0548 0.0813 0.9952
vn 0.1623 0.2407 0.9569
vn 0.2636 0.3908 0.8819
vn 0.3547 0.5259 0.7730
vn 0.4323 0.6409 0.6344
vn 0.4932 0.7311 0.4714
vn 0.5351 0.7933 0.2903
vn 0.5565 0.8250 0.0980
vn 0.5565 0.8250 -0.0980
vn 0.5351 0.7933 -0.2903
vn 0.4932 0.7311 -0.4714
vn 0.4323 0.6409 -0.6344
vn 0.3547 0.5259 -0.7730
vn 0.2636 0.3908 -0.8819
vn 0.1623 0.2407 -0.9569
vn 0.0548 0.0813 -0.9952
vn -0.0548 -0.0813 -0.9952
vn -0.1623 -0.2407 -0.9569
vn -0.2636 -0.3908 -0.8819
vn -0.3547 -0.5259 -0.7730
vn -0.4323 -0.6409 -0.6344
vn -0.4932 -0.7311 -0.4714
vn -0.5351 -0.7933 -0.2903
vn -0.5565 -0.8250 -0.0980
vn -0.5565 -0.8250 0.0980
vn -0.5351 -0.7933 0.2903
vn -0.4932 -0.7311 0.4714
vn -0.4323 -0.6409 0.6344
vn -0.3547 -0.5259 0.7730
vn -0.2636 -0.3908 0.8819
vn 0.8290 -0.5592 -0.0000
vn -0.1623 -0.2407 0.9569
vn -0.0548 -0.0813 0.9952
vn -0.8290 0.5592 -0.0000
vn 0.8291 -0.5591 -0.0000
vn -0.8291 0.5592 -0.0000
vt 0.002457 0.784832
vt 0.064323 0.775233
vt 0.064323 0.784832
vt 0.002457 0.775233
vt 0.064323 0.767070
vt 0.002457 0.932826
vt 0.064323 0.923228
vt 0.064323 0.932826
vt 0.002457 0.923228
vt 0.064323 0.912563
vt 0.002457 0.912563
vt 0.064323 0.901241
vt 0.002457 0.901241
vt 0.064323 0.889697
vt 0.002457 0.889697
vt 0.064323 0.878375
vt 0.002457 0.878375
vt 0.064323 0.867710
vt 0.002457 0.867710
vt 0.064323 0.858111
vt 0.002457 0.858111
vt 0.064323 0.849948
vt 0.497389 0.849948
vt 0.559256 0.840350
vt 0.559256 0.849948
vt 0.497389 0.840350
vt 0.559256 0.829685
vt 0.497389 0.829685
vt 0.559256 0.818363
vt 0.497389 0.818363
vt 0.559256 0.806819
vt 0.497389 0.806819
vt 0.559256 0.795497
vt 0.497389 0.795497
vt 0.559256 0.784832
vt 0.497389 0.784832
vt 0.559256 0.775233
vt 0.497389 0.775233
vt 0.559256 0.767070
vt 0.497389 0.932826
vt 0.559256 0.923228
vt 0.559256 0.932826
vt 0.497389 0.923228
vt 0.559256 0.912563
vt 0.497389 0.912563
vt 0.559256 0.901241
vt 0.497389 0.901241
vt 0.559256 0.889697
vt 0.497389 0.889697
vt 0.559256 0.878375
vt 0.497389 0.878375
vt 0.559256 0.867709
vt 0.497389 0.867709
vt 0.559256 0.858111
vt 0.497389 0.858111
vt 0.002457 0.849948
vt 0.064323 0.840350
vt 0.002457 0.840350
vt 0.064323 0.829685
vt 0.002457 0.829685
vt 0.064323 0.818363
vt 0.002457 0.818363
vt 0.064323 0.806819
vt 0.208626 0.430122
vt 0.264189 0.613289
vt 0.081023 0.668852
vt 0.002457 0.806819
vt 0.064323 0.795497
vt 0.002457 0.795497
vt 0.526650 0.456570
vt 0.543139 0.623987
vt 0.375722 0.640477
vt 0.249923 0.795497
vt 0.311789 0.784832
vt 0.311789 0.795497
vt 0.249923 0.806819
vt 0.311789 0.806819
vt 0.249923 0.818363
vt 0.311789 0.818363
vt 0.249923 0.829685
vt 0.311789 0.829685
vt 0.249923 0.840350
vt 0.311789 0.840350
vt 0.249923 0.849948
vt 0.311789 0.849948
vt 0.744855 0.858111
vt 0.806722 0.849948
vt 0.806722 0.858111
vt 0.744855 0.867709
vt 0.806722 0.867709
vt 0.744855 0.878375
vt 0.806722 0.878375
vt 0.744855 0.889697
vt 0.806722 0.889697
vt 0.744855 0.901241
vt 0.806722 0.901241
vt 0.744855 0.912563
vt 0.806722 0.912563
vt 0.744855 0.923228
vt 0.806722 0.923228
vt 0.744855 0.932826
vt 0.806722 0.932826
vt 0.744855 0.775233
vt 0.806722 0.767070
vt 0.806722 0.775233
vt 0.744855 0.784832
vt 0.806722 0.784832
vt 0.744855 0.795497
vt 0.806722 0.795497
vt 0.744855 0.806819
vt 0.806722 0.806819
vt 0.744855 0.818363
vt 0.806722 0.818363
vt 0.744855 0.829685
vt 0.806722 0.829685
vt 0.744855 0.840350
vt 0.806722 0.840350
vt 0.744855 0.849948
vt 0.806722 0.849948
vt 0.249923 0.858111
vt 0.311789 0.849948
vt 0.311789 0.858111
vt 0.249923 0.867710
vt 0.311789 0.867710
vt 0.249923 0.878375
vt 0.311789 0.878375
vt 0.249923 0.889697
vt 0.311789 0.889697
vt 0.249923 0.901241
vt 0.311789 0.901241
vt 0.249923 0.912563
vt 0.311789 0.912563
vt 0.249923 0.923228
vt 0.311789 0.923228
vt 0.249923 0.932826
vt 0.311789 0.932826
vt 0.249923 0.775233
vt 0.311789 0.767070
vt 0.311789 0.775233
vt 0.249923 0.784832
vt 0.126190 0.795497
vt 0.188056 0.784832
vt 0.188056 0.795497
vt 0.126190 0.806819
vt 0.188056 0.806819
vt 0.126190 0.818363
vt 0.188056 0.818363
vt 0.126190 0.829685
vt 0.188056 0.829685
vt 0.126190 0.840350
vt 0.188056 0.840350
vt 0.126190 0.849948
vt 0.188056 0.849948
vt 0.621122 0.858111
vt 0.682989 0.849948
vt 0.682989 0.858111
vt 0.621122 0.867709
vt 0.682989 0.867709
vt 0.621122 0.878375
vt 0.682989 0.878375
vt 0.621122 0.889697
vt 0.682989 0.889697
vt 0.621122 0.901241
vt 0.682989 0.901241
vt 0.621122 0.912563
vt 0.682989 0.912563
vt 0.621122 0.923228
vt 0.682989 0.923228
vt 0.621122 0.932826
vt 0.682989 0.932826
vt 0.621122 0.775233
vt 0.682988 0.767070
vt 0.682988 0.775233
vt 0.621122 0.784832
vt 0.682988 0.784832
vt 0.621122 0.795497
vt 0.682988 0.795497
vt 0.621122 0.806819
vt 0.682988 0.806819
vt 0.621122 0.818363
vt 0.682988 0.818363
vt 0.621122 0.829685
vt 0.682988 0.829685
vt 0.621122 0.840350
vt 0.682988 0.840350
vt 0.621122 0.849948
vt 0.682988 0.849948
vt 0.126190 0.858111
vt 0.188056 0.849948
vt 0.188056 0.858111
vt 0.126190 0.867709
vt 0.188056 0.867709
vt 0.126190 0.878375
vt 0.188056 0.878375
vt 0.126190 0.889697
vt 0.188056 0.889697
vt 0.126190 0.901241
vt 0.188056 0.901241
vt 0.126190 0.912563
vt 0.188056 0.912563
vt 0.126190 0.923228
vt 0.188056 0.923228
vt 0.126190 0.932826
vt 0.188056 0.932826
vt 0.126190 0.775233
vt 0.188056 0.767070
vt 0.188056 0.775233
vt 0.126190 0.784832
vt 0.373656 0.784832
vt 0.435522 0.775233
vt 0.435522 0.784832
vt 0.373656 0.775233
vt 0.435522 0.767070
vt 0.373656 0.932826
vt 0.435522 0.923228
vt 0.435522 0.932826
vt 0.373656 0.923228
vt 0.435522 0.912563
vt 0.373656 0.912563
vt 0.435522 0.901241
vt 0.373656 0.901241
vt 0.435522 0.889697
vt 0.373656 0.889697
vt 0.435522 0.878375
vt 0.373656 0.878375
vt 0.435522 0.867709
vt 0.373656 0.867709
vt 0.435522 0.858111
vt 0.373656 0.858111
vt 0.435522 0.849948
vt 0.868588 0.849948
vt 0.930455 0.840350
vt 0.930455 0.849948
vt 0.868588 0.840350
vt 0.930455 0.829685
vt 0.868588 0.829685
vt 0.930455 0.818363
vt 0.868588 0.818363
vt 0.930455 0.806819
vt 0.868588 0.806819
vt 0.930455 0.795497
vt 0.868588 0.795497
vt 0.930455 0.784832
vt 0.868588 0.784832
vt 0.930455 0.775233
vt 0.868588 0.775233
vt 0.930455 0.767070
vt 0.868588 0.932826
vt 0.930455 0.923228
vt 0.930455 0.932826
vt 0.868588 0.923228
vt 0.930455 0.912563
vt 0.868588 0.912563
vt 0.930455 0.901241
vt 0.868588 0.901241
vt 0.930455 0.889697
vt 0.868588 0.889697
vt 0.930455 0.878375
vt 0.868588 0.878375
vt 0.930455 0.867709
vt 0.868588 0.867709
vt 0.930455 0.858111
vt 0.868588 0.858111
vt 0.373656 0.849948
vt 0.435522 0.840350
vt 0.373656 0.840350
vt 0.435522 0.829685
vt 0.373656 0.829685
vt 0.435522 0.818363
vt 0.373656 0.818363
vt 0.435522 0.806819
vt 0.373656 0.806819
vt 0.435522 0.795497
vt 0.373656 0.795497
vt 0.373656 0.767070
vt 0.373656 0.849948
vt 0.868588 0.767070
vt 0.992321 0.849948
vt 0.992321 0.858111
vt 0.992321 0.867709
vt 0.992321 0.878375
vt 0.992321 0.889697
vt 0.992321 0.901241
vt 0.992321 0.912563
vt 0.992321 0.923228
vt 0.992321 0.932826
vt 0.992321 0.767070
vt 0.992321 0.775233
vt 0.992321 0.784832
vt 0.992321 0.795497
vt 0.992321 0.806819
vt 0.992321 0.818363
vt 0.992321 0.829685
vt 0.992321 0.840350
vt 0.992321 0.849948
vt 0.497389 0.767070
vt 0.249923 0.767070
vt 0.249923 0.849948
vt 0.744855 0.767070
vt 0.744855 0.849948
vt 0.621122 0.767070
vt 0.126190 0.767070
vt 0.002457 0.767070
vt 0.058962 0.654112
vt 0.040200 0.635350
vt 0.025460 0.613289
vt 0.015306 0.588776
vt 0.010130 0.562754
vt 0.010130 0.536221
vt 0.015306 0.510198
vt 0.025460 0.485685
vt 0.040200 0.463624
vt 0.058962 0.444863
vt 0.081023 0.430122
vt 0.105535 0.419969
vt 0.131558 0.414793
vt 0.158091 0.414793
vt 0.184113 0.419969
vt 0.230687 0.444863
vt 0.274343 0.510198
vt 0.249449 0.463624
vt 0.264189 0.485685
vt 0.279519 0.536221
vt 0.279519 0.562754
vt 0.274343 0.588776
vt 0.249449 0.635350
vt 0.184113 0.679006
vt 0.230687 0.654112
vt 0.208626 0.668852
vt 0.158091 0.684182
vt 0.131558 0.684182
vt 0.105535 0.679006
vt 0.359233 0.623987
vt 0.346277 0.604598
vt 0.337353 0.583054
vt 0.332804 0.560183
vt 0.332804 0.536864
vt 0.337353 0.513993
vt 0.346277 0.492448
vt 0.359233 0.473059
vt 0.375722 0.456570
vt 0.395111 0.443615
vt 0.416655 0.434691
vt 0.439526 0.430141
vt 0.462846 0.430141
vt 0.485717 0.434691
vt 0.507261 0.443615
vt 0.543139 0.473059
vt 0.556095 0.492448
vt 0.565019 0.513993
vt 0.569568 0.536864
vt 0.569568 0.560183
vt 0.565019 0.583054
vt 0.556095 0.604598
vt 0.526650 0.640477
vt 0.507261 0.653432
vt 0.485717 0.662356
vt 0.462846 0.666905
vt 0.439526 0.666905
vt 0.416655 0.662356
vt 0.395111 0.653432
s 0
g off
f 2/1/1 258/2/1 257/3/1
f 4/4/2 259/5/2 258/2/2
f 6/6/3 260/7/3 259/8/3
f 8/9/4 261/10/4 260/7/4
f 10/11/5 262/12/5 261/10/5
f 12/13/6 263/14/6 262/12/6
f 14/15/7 264/16/7 263/14/7
f 16/17/8 265/18/8 264/16/8
f 18/19/9 266/20/9 265/18/9
f 20/21/10 267/22/10 266/20/10
f 22/23/11 268/24/11 267/25/11
f 24/26/12 269/27/12 268/24/12
f 26/28/13 270/29/13 269/27/13
f 28/30/14 271/31/14 270/29/14
f 30/32/15 272/33/15 271/31/15
f 32/34/16 273/35/16 272/33/16
f 34/36/17 274/37/17 273/35/17
f 36/38/18 275/39/18 274/37/18
f 38/40/19 276/41/19 275/42/19
f 40/43/20 277/44/20 276/41/20
f 42/45/21 278/46/21 277/44/21
f 44/47/22 279/48/22 278/46/22
f 46/49/23 280/50/23 279/48/23
f 48/51/24 281/52/24 280/50/24
f 50/53/25 282/54/25 281/52/25
f 52/55/26 283/25/26 282/54/26
f 54/56/27 284/57/27 283/22/27
f 56/58/28 285/59/28 284/57/28
f 58/60/29 286/61/29 285/59/29
f 60/62/30 287/63/30 286/61/30
f 38/64/31 22/65/31 6/66/31
f 62/67/32 288/68/32 287/63/32
f 64/69/33 257/3/33 288/68/33
f 31/70/34 47/71/34 63/72/34
f 96/73/33 161/74/33 192/75/33
f 95/76/32 192/75/32 191/77/32
f 94/78/30 191/77/30 190/79/30
f 93/80/29 190/79/29 189/81/29
f 92/82/28 189/81/28 188/83/28
f 91/84/27 188/83/27 187/85/27
f 90/86/26 187/87/26 186/88/26
f 89/89/25 186/88/25 185/90/25
f 88/91/24 185/90/24 184/92/24
f 87/93/23 184/92/23 183/94/23
f 86/95/22 183/94/22 182/96/22
f 85/97/21 182/96/21 181/98/21
f 84/99/20 181/98/20 180/100/20
f 83/101/19 180/100/19 179/102/19
f 82/103/18 179/104/18 178/105/18
f 81/106/17 178/105/17 177/107/17
f 80/108/16 177/107/16 176/109/16
f 79/110/15 176/109/15 175/111/15
f 78/112/14 175/111/14 174/113/14
f 77/114/13 174/113/13 173/115/13
f 76/116/12 173/115/12 172/117/12
f 75/118/11 172/117/11 171/119/11
f 74/120/10 171/121/10 170/122/10
f 73/123/9 170/122/9 169/124/9
f 72/125/8 169/124/8 168/126/8
f 71/127/7 168/126/7 167/128/7
f 70/129/6 167/128/6 166/130/6
f 69/131/5 166/130/5 165/132/5
f 68/133/4 165/132/4 164/134/4
f 67/135/3 164/134/3 163/136/3
f 66/137/2 163/138/2 162/139/2
f 65/140/1 162/139/1 161/74/1
f 128/141/33 256/142/33 255/143/33
f 127/144/32 255/143/32 254/145/32
f 126/146/30 254/145/30 253/147/30
f 125/148/29 253/147/29 252/149/29
f 124/150/28 252/149/28 251/151/28
f 123/152/27 251/151/27 250/153/27
f 122/154/26 250/155/26 249/156/26
f 121/157/25 249/156/25 248/158/25
f 120/159/24 248/158/24 247/160/24
f 119/161/23 247/160/23 246/162/23
f 118/163/22 246/162/22 245/164/22
f 117/165/21 245/164/21 244/166/21
f 116/167/20 244/166/20 243/168/20
f 115/169/19 243/168/19 242/170/19
f 114/171/18 242/172/18 241/173/18
f 113/174/17 241/173/17 240/175/17
f 112/176/16 240/175/16 239/177/16
f 111/178/15 239/177/15 238/179/15
f 110/180/14 238/179/14 237/181/14
f 109/182/13 237/181/13 236/183/13
f 108/184/12 236/183/12 235/185/12
f 107/186/11 235/185/11 234/187/11
f 106/188/10 234/189/10 233/190/10
f 105/191/9 233/190/9 232/192/9
f 104/193/8 232/192/8 231/194/8
f 103/195/7 231/194/7 230/196/7
f 102/197/6 230/196/6 229/198/6
f 101/199/5 229/198/5 228/200/5
f 100/201/4 228/200/4 227/202/4
f 99/203/3 227/202/3 226/204/3
f 98/205/2 226/206/2 225/207/2
f 97/208/1 225/207/1 256/142/1
f 160/209/1 193/210/1 224/211/1
f 129/212/2 194/213/2 193/210/2
f 130/214/3 195/215/3 194/216/3
f 131/217/4 196/218/4 195/215/4
f 132/219/5 197/220/5 196/218/5
f 133/221/6 198/222/6 197/220/6
f 134/223/7 199/224/7 198/222/7
f 135/225/8 200/226/8 199/224/8
f 136/227/9 201/228/9 200/226/9
f 137/229/10 202/230/10 201/228/10
f 138/231/11 203/232/11 202/233/11
f 139/234/12 204/235/12 203/232/12
f 140/236/13 205/237/13 204/235/13
f 141/238/14 206/239/14 205/237/14
f 142/240/15 207/241/15 206/239/15
f 143/242/16 208/243/16 207/241/16
f 144/244/17 209/245/17 208/243/17
f 145/246/18 210/247/18 209/245/18
f 146/248/19 211/249/19 210/250/19
f 147/251/20 212/252/20 211/249/20
f 148/253/21 213/254/21 212/252/21
f 149/255/22 214/256/22 213/254/22
f 150/257/23 215/258/23 214/256/23
f 151/259/24 216/260/24 215/258/24
f 152/261/25 217/262/25 216/260/25
f 153/263/26 218/233/26 217/262/26
f 154/264/27 219/265/27 218/230/27
f 155/266/28 220/267/28 219/265/28
f 156/268/29 221/269/29 220/267/29
f 157/270/30 222/271/30 221/269/30
f 158/272/32 223/273/32 222/271/32
f 159/274/33 224/211/33 223/273/33
f 161/74/1 129/212/1 160/209/1
f 162/139/2 130/275/2 129/212/2
f 163/136/3 131/217/3 130/214/3
f 164/134/4 132/219/4 131/217/4
f 165/132/5 133/221/5 132/219/5
f 166/130/6 134/223/6 133/221/6
f 167/128/7 135/225/7 134/223/7
f 168/126/8 136/227/8 135/225/8
f 169/124/9 137/229/9 136/227/9
f 170/122/10 138/276/10 137/229/10
f 171/119/11 139/234/11 138/231/11
f 172/117/12 140/236/12 139/234/12
f 173/115/13 141/238/13 140/236/13
f 174/113/14 142/240/14 141/238/14
f 175/111/15 143/242/15 142/240/15
f 176/109/16 144/244/16 143/242/16
f 177/107/17 145/246/17 144/244/17
f 178/105/18 146/277/18 145/246/18
f 179/102/19 147/251/19 146/248/19
f 180/100/20 148/253/20 147/251/20
f 181/98/21 149/255/21 148/253/21
f 182/96/22 150/257/22 149/255/22
f 183/94/23 151/259/23 150/257/23
f 184/92/24 152/261/24 151/259/24
f 185/90/25 153/263/25 152/261/25
f 186/88/26 154/231/26 153/263/26
f 187/85/27 155/266/27 154/264/27
f 188/83/28 156/268/28 155/266/28
f 189/81/29 157/270/29 156/268/29
f 190/79/30 158/272/30 157/270/30
f 191/77/32 159/274/32 158/272/32
f 192/75/33 160/209/33 159/274/33
f 223/273/33 1/36/33 63/34/33
f 222/271/32 63/34/32 61/32/32
f 221/269/30 61/32/30 59/30/30
f 220/267/29 59/30/29 57/28/29
f 219/265/28 57/28/28 55/26/28
f 218/230/27 55/26/27 53/23/27
f 217/262/26 53/278/26 51/279/26
f 216/260/25 51/279/25 49/280/25
f 215/258/24 49/280/24 47/281/24
f 214/256/23 47/281/23 45/282/23
f 213/254/22 45/282/22 43/283/22
f 212/252/21 43/283/21 41/284/21
f 211/249/20 41/284/20 39/285/20
f 210/250/19 39/285/19 37/286/19
f 209/245/18 37/287/18 35/288/18
f 208/243/17 35/288/17 33/289/17
f 207/241/16 33/289/16 31/290/16
f 206/239/15 31/290/15 29/291/15
f 205/237/14 29/291/14 27/292/14
f 204/235/13 27/292/13 25/293/13
f 203/232/12 25/293/12 23/294/12
f 202/233/11 23/294/11 21/295/11
f 201/228/10 21/23/10 19/55/10
f 200/226/9 19/55/9 17/53/9
f 199/224/8 17/53/8 15/51/8
f 198/222/7 15/51/7 13/49/7
f 197/220/6 13/49/6 11/47/6
f 196/218/5 11/47/5 9/45/5
f 195/215/4 9/45/4 7/43/4
f 194/216/3 7/43/3 5/40/3
f 193/210/2 5/296/2 3/38/2
f 224/211/1 3/38/1 1/36/1
f 256/142/1 66/137/1 65/140/1
f 225/207/2 67/297/2 66/137/2
f 226/204/3 68/133/3 67/135/3
f 227/202/4 69/131/4 68/133/4
f 228/200/5 70/129/5 69/131/5
f 229/198/6 71/127/6 70/129/6
f 230/196/7 72/125/7 71/127/7
f 231/194/8 73/123/8 72/125/8
f 232/192/9 74/120/9 73/123/9
f 233/190/10 75/298/10 74/120/10
f 234/187/11 76/116/11 75/118/11
f 235/185/12 77/114/12 76/116/12
f 236/183/13 78/112/13 77/114/13
f 237/181/14 79/110/14 78/112/14
f 238/179/15 80/108/15 79/110/15
f 239/177/16 81/106/16 80/108/16
f 240/175/17 82/103/17 81/106/17
f 241/173/18 83/299/18 82/103/18
f 242/170/19 84/99/19 83/101/19
f 243/168/20 85/97/20 84/99/20
f 244/166/21 86/95/21 85/97/21
f 245/164/22 87/93/22 86/95/22
f 246/162/23 88/91/23 87/93/23
f 247/160/24 89/89/24 88/91/24
f 248/158/25 90/86/25 89/89/25
f 249/156/26 91/300/26 90/86/26
f 250/153/27 92/82/27 91/84/27
f 251/151/28 93/80/28 92/82/28
f 252/149/29 94/78/29 93/80/29
f 253/147/30 95/76/30 94/78/30
f 254/145/32 96/73/32 95/76/32
f 255/143/33 65/140/33 96/73/33
f 288/68/33 97/208/33 128/141/33
f 287/63/32 128/141/32 127/144/32
f 286/61/30 127/144/30 126/146/30
f 285/59/29 126/146/29 125/148/29
f 284/57/28 125/148/28 124/150/28
f 283/22/27 124/150/27 123/152/27
f 282/54/26 123/186/26 122/154/26
f 281/52/25 122/154/25 121/157/25
f 280/50/24 121/157/24 120/159/24
f 279/48/23 120/159/23 119/161/23
f 278/46/22 119/161/22 118/163/22
f 277/44/21 118/163/21 117/165/21
f 276/41/20 117/165/20 116/167/20
f 275/42/19 116/167/19 115/169/19
f 274/37/18 115/301/18 114/171/18
f 273/35/17 114/171/17 113/174/17
f 272/33/16 113/174/16 112/176/16
f 271/31/15 112/176/15 111/178/15
f 270/29/14 111/178/14 110/180/14
f 269/27/13 110/180/13 109/182/13
f 268/24/12 109/182/12 108/184/12
f 267/25/11 108/184/11 107/186/11
f 266/20/10 107/152/10 106/188/10
f 265/18/9 106/188/9 105/191/9
f 264/16/8 105/191/8 104/193/8
f 263/14/7 104/193/7 103/195/7
f 262/12/6 103/195/6 102/197/6
f 261/10/5 102/197/5 101/199/5
f 260/7/4 101/199/4 100/201/4
f 259/8/3 100/201/3 99/203/3
f 258/2/2 99/302/2 98/205/2
f 257/3/1 98/205/1 97/208/1
f 2/1/1 4/4/1 258/2/1
f 4/4/2 6/303/2 259/5/2
f 6/6/3 8/9/3 260/7/3
f 8/9/4 10/11/4 261/10/4
f 10/11/5 12/13/5 262/12/5
f 12/13/6 14/15/6 263/14/6
f 14/15/7 16/17/7 264/16/7
f 16/17/8 18/19/8 265/18/8
f 18/19/9 20/21/9 266/20/9
f 20/21/10 22/56/10 267/22/10
f 22/23/11 24/26/11 268/24/11
f 24/26/12 26/28/12 269/27/12
f 26/28/13 28/30/13 270/29/13
f 28/30/14 30/32/14 271/31/14
f 30/32/15 32/34/15 272/33/15
f 32/34/16 34/36/16 273/35/16
f 34/36/17 36/38/17 274/37/17
f 36/38/18 38/296/18 275/39/18
f 38/40/19 40/43/19 276/41/19
f 40/43/20 42/45/20 277/44/20
f 42/45/21 44/47/21 278/46/21
f 44/47/22 46/49/22 279/48/22
f 46/49/23 48/51/23 280/50/23
f 48/51/24 50/53/24 281/52/24
f 50/53/25 52/55/25 282/54/25
f 52/55/26 54/23/26 283/25/26
f 54/56/27 56/58/27 284/57/27
f 56/58/28 58/60/28 285/59/28
f 58/60/29 60/62/29 286/61/29
f 60/62/30 62/67/30 287/63/30
f 6/66/31 4/304/31 2/305/31
f 2/305/31 64/306/31 6/66/31
f 64/306/31 62/307/31 6/66/31
f 62/307/31 60/308/31 58/309/31
f 58/309/31 56/310/31 54/311/31
f 54/311/31 52/312/31 50/313/31
f 50/313/31 48/314/31 54/311/31
f 48/314/31 46/315/31 54/311/31
f 46/315/31 44/316/31 42/317/31
f 42/317/31 40/318/31 38/64/31
f 38/64/31 36/319/31 30/320/31
f 36/319/31 34/321/31 30/320/31
f 34/321/31 32/322/31 30/320/31
f 30/320/31 28/323/31 26/324/31
f 26/324/31 24/325/31 22/65/31
f 22/65/31 20/326/31 14/327/31
f 20/326/35 18/328/35 14/327/35
f 18/328/31 16/329/31 14/327/31
f 14/327/31 12/330/31 10/331/31
f 10/331/31 8/332/31 6/66/31
f 62/307/31 58/309/31 6/66/31
f 58/309/31 54/311/31 6/66/31
f 46/315/31 42/317/31 54/311/31
f 42/317/31 38/64/31 54/311/31
f 30/320/31 26/324/31 38/64/31
f 26/324/31 22/65/31 38/64/31
f 14/327/31 10/331/31 22/65/31
f 10/331/31 6/66/31 22/65/31
f 6/66/31 54/311/31 38/64/31
f 62/67/32 64/69/32 288/68/32
f 64/69/33 2/1/33 257/3/33
f 63/72/34 1/333/34 3/334/34
f 3/334/34 5/335/34 7/336/34
f 7/336/34 9/337/34 11/338/34
f 11/338/34 13/339/34 15/340/34
f 15/340/34 17/341/34 19/342/34
f 19/342/34 21/343/34 23/344/34
f 23/344/34 25/345/34 27/346/34
f 27/346/34 29/347/34 31/70/34
f 31/70/34 33/348/34 35/349/34
f 35/349/34 37/350/34 39/351/34
f 39/351/34 41/352/34 43/353/34
f 43/353/34 45/354/34 47/71/34
f 47/71/34 49/355/34 51/356/34
f 51/356/34 53/357/34 55/358/34
f 55/358/34 57/359/34 59/360/34
f 59/360/34 61/361/34 63/72/34
f 63/72/34 3/334/34 15/340/34
f 3/334/34 7/336/34 15/340/34
f 7/336/36 11/338/36 15/340/36
f 15/340/34 19/342/34 31/70/34
f 19/342/34 23/344/34 31/70/34
f 23/344/34 27/346/34 31/70/34
f 31/70/34 35/349/34 47/71/34
f 35/349/34 39/351/34 47/71/34
f 39/351/34 43/353/34 47/71/34
f 47/71/34 51/356/34 63/72/34
f 51/356/34 55/358/34 63/72/34
f 55/358/34 59/360/34 63/72/34
f 63/72/34 15/340/34 31/70/34
f 96/73/33 65/140/33 161/74/33
f 95/76/32 96/73/32 192/75/32
f 94/78/30 95/76/30 191/77/30
f 93/80/29 94/78/29 190/79/29
f 92/82/28 93/80/28 189/81/28
f 91/84/27 92/82/27 188/83/27
f 90/86/26 91/300/26 187/87/26
f 89/89/25 90/86/25 186/88/25
f 88/91/24 89/89/24 185/90/24
f 87/93/23 88/91/23 184/92/23
f 86/95/22 87/93/22 183/94/22
f 85/97/21 86/95/21 182/96/21
f 84/99/20 85/97/20 181/98/20
f 83/101/19 84/99/19 180/100/19
f 82/103/18 83/299/18 179/104/18
f 81/106/17 82/103/17 178/105/17
f 80/108/16 81/106/16 177/107/16
f 79/110/15 80/108/15 176/109/15
f 78/112/14 79/110/14 175/111/14
f 77/114/13 78/112/13 174/113/13
f 76/116/12 77/114/12 173/115/12
f 75/118/11 76/116/11 172/117/11
f 74/120/10 75/298/10 171/121/10
f 73/123/9 74/120/9 170/122/9
f 72/125/8 73/123/8 169/124/8
f 71/127/7 72/125/7 168/126/7
f 70/129/6 71/127/6 167/128/6
f 69/131/5 70/129/5 166/130/5
f 68/133/4 69/131/4 165/132/4
f 67/135/3 68/133/3 164/134/3
f 66/137/2 67/297/2 163/138/2
f 65/140/1 66/137/1 162/139/1
f 128/141/33 97/208/33 256/142/33
f 127/144/32 128/141/32 255/143/32
f 126/146/30 127/144/30 254/145/30
f 125/148/29 126/146/29 253/147/29
f 124/150/28 125/148/28 252/149/28
f 123/152/27 124/150/27 251/151/27
f 122/154/26 123/186/26 250/155/26
f 121/157/25 122/154/25 249/156/25
f 120/159/24 121/157/24 248/158/24
f 119/161/23 120/159/23 247/160/23
f 118/163/22 119/161/22 246/162/22
f 117/165/21 118/163/21 245/164/21
f 116/167/20 117/165/20 244/166/20
f 115/169/19 116/167/19 243/168/19
f 114/171/18 115/301/18 242/172/18
f 113/174/17 114/171/17 241/173/17
f 112/176/16 113/174/16 240/175/16
f 111/178/15 112/176/15 239/177/15
f 110/180/14 111/178/14 238/179/14
f 109/182/13 110/180/13 237/181/13
f 108/184/12 109/182/12 236/183/12
f 107/186/11 108/184/11 235/185/11
f 106/188/10 107/152/10 234/189/10
f 105/191/9 106/188/9 233/190/9
f 104/193/8 105/191/8 232/192/8
f 103/195/7 104/193/7 231/194/7
f 102/197/6 103/195/6 230/196/6
f 101/199/5 102/197/5 229/198/5
f 100/201/4 101/199/4 228/200/4
f 99/203/3 100/201/3 227/202/3
f 98/205/2 99/302/2 226/206/2
f 97/208/1 98/205/1 225/207/1
f 160/209/1 129/212/1 193/210/1
f 129/212/2 130/275/2 194/213/2
f 130/214/3 131/217/3 195/215/3
f 131/217/4 132/219/4 196/218/4
f 132/219/5 133/221/5 197/220/5
f 133/221/6 134/223/6 198/222/6
f 134/223/7 135/225/7 199/224/7
f 135/225/8 136/227/8 200/226/8
f 136/227/9 137/229/9 201/228/9
f 137/229/10 138/276/10 202/230/10
f 138/231/11 139/234/11 203/232/11
f 139/234/12 140/236/12 204/235/12
f 140/236/13 141/238/13 205/237/13
f 141/238/14 142/240/14 206/239/14
f 142/240/15 143/242/15 207/241/15
f 143/242/16 144/244/16 208/243/16
f 144/244/17 145/246/17 209/245/17
f 145/246/18 146/277/18 210/247/18
f 146/248/19 147/251/19 211/249/19
f 147/251/20 148/253/20 212/252/20
f 148/253/21 149/255/21 213/254/21
f 149/255/22 150/257/22 214/256/22
f 150/257/23 151/259/23 215/258/23
f 151/259/24 152/261/24 216/260/24
f 152/261/25 153/263/25 217/262/25
f 153/263/26 154/231/26 218/233/26
f 154/264/27 155/266/27 219/265/27
f 155/266/28 156/268/28 220/267/28
f 156/268/29 157/270/29 221/269/29
f 157/270/30 158/272/30 222/271/30
f 158/272/32 159/274/32 223/273/32
f 159/274/33 160/209/33 224/211/33
f 161/74/1 162/139/1 129/212/1
f 162/139/2 163/138/2 130/275/2
f 163/136/3 164/134/3 131/217/3
f 164/134/4 165/132/4 132/219/4
f 165/132/5 166/130/5 133/221/5
f 166/130/6 167/128/6 134/223/6
f 167/128/7 168/126/7 135/225/7
f 168/126/8 169/124/8 136/227/8
f 169/124/9 170/122/9 137/229/9
f 170/122/10 171/121/10 138/276/10
f 171/119/11 172/117/11 139/234/11
f 172/117/12 173/115/12 140/236/12
f 173/115/13 174/113/13 141/238/13
f 174/113/14 175/111/14 142/240/14
f 175/111/15 176/109/15 143/242/15
f 176/109/16 177/107/16 144/244/16
f 177/107/17 178/105/17 145/246/17
f 178/105/18 179/104/18 146/277/18
f 179/102/19 180/100/19 147/251/19
f 180/100/20 181/98/20 148/253/20
f 181/98/21 182/96/21 149/255/21
f 182/96/22 183/94/22 150/257/22
f 183/94/23 184/92/23 151/259/23
f 184/92/24 185/90/24 152/261/24
f 185/90/25 186/88/25 153/263/25
f 186/88/26 187/87/26 154/231/26
f 187/85/27 188/83/27 155/266/27
f 188/83/28 189/81/28 156/268/28
f 189/81/29 190/79/29 157/270/29
f 190/79/30 191/77/30 158/272/30
f 191/77/32 192/75/32 159/274/32
f 192/75/33 161/74/33 160/209/33
f 223/273/33 224/211/33 1/36/33
f 222/271/32 223/273/32 63/34/32
f 221/269/30 222/271/30 61/32/30
f 220/267/29 221/269/29 59/30/29
f 219/265/28 220/267/28 57/28/28
f 218/230/27 219/265/27 55/26/27
f 217/262/26 218/233/26 53/278/26
f 216/260/25 217/262/25 51/279/25
f 215/258/24 216/260/24 49/280/24
f 214/256/23 215/258/23 47/281/23
f 213/254/22 214/256/22 45/282/22
f 212/252/21 213/254/21 43/283/21
f 211/249/20 212/252/20 41/284/20
f 210/250/19 211/249/19 39/285/19
f 209/245/18 210/247/18 37/287/18
f 208/243/17 209/245/17 35/288/17
f 207/241/16 208/243/16 33/289/16
f 206/239/15 207/241/15 31/290/15
f 205/237/14 206/239/14 29/291/14
f 204/235/13 205/237/13 27/292/13
f 203/232/12 204/235/12 25/293/12
f 202/233/11 203/232/11 23/294/11
f 201/228/10 202/230/10 21/23/10
f 200/226/9 201/228/9 19/55/9
f 199/224/8 200/226/8 17/53/8
f 198/222/7 199/224/7 15/51/7
f 197/220/6 198/222/6 13/49/6
f 196/218/5 197/220/5 11/47/5
f 195/215/4 196/218/4 9/45/4
f 194/216/3 195/215/3 7/43/3
f 193/210/2 194/213/2 5/296/2
f 224/211/1 193/210/1 3/38/1
f 256/142/1 225/207/1 66/137/1
f 225/207/2 226/206/2 67/297/2
f 226/204/3 227/202/3 68/133/3
f 227/202/4 228/200/4 69/131/4
f 228/200/5 229/198/5 70/129/5
f 229/198/6 230/196/6 71/127/6
f 230/196/7 231/194/7 72/125/7
f 231/194/8 232/192/8 73/123/8
f 232/192/9 233/190/9 74/120/9
f 233/190/10 234/189/10 75/298/10
f 234/187/11 235/185/11 76/116/11
f 235/185/12 236/183/12 77/114/12
f 236/183/13 237/181/13 78/112/13
f 237/181/14 238/179/14 79/110/14
f 238/179/15 239/177/15 80/108/15
f 239/177/16 240/175/16 81/106/16
f 240/175/17 241/173/17 82/103/17
f 241/173/18 242/172/18 83/299/18
f 242/170/19 243/168/19 84/99/19
f 243/168/20 244/166/20 85/97/20
f 244/166/21 245/164/21 86/95/21
f 245/164/22 246/162/22 87/93/22
f 246/162/23 247/160/23 88/91/23
f 247/160/24 248/158/24 89/89/24
f 248/158/25 249/156/25 90/86/25
f 249/156/26 250/155/26 91/300/26
f 250/153/27 251/151/27 92/82/27
f 251/151/28 252/149/28 93/80/28
f 252/149/29 253/147/29 94/78/29
f 253/147/30 254/145/30 95/76/30
f 254/145/32 255/143/32 96/73/32
f 255/143/33 256/142/33 65/140/33
f 288/68/33 257/3/33 97/208/33
f 287/63/32 288/68/32 128/141/32
f 286/61/30 287/63/30 127/144/30
f 285/59/29 286/61/29 126/146/29
f 284/57/28 285/59/28 125/148/28
f 283/22/27 284/57/27 124/150/27
f 282/54/26 283/25/26 123/186/26
f 281/52/25 282/54/25 122/154/25
f 280/50/24 281/52/24 121/157/24
f 279/48/23 280/50/23 120/159/23
f 278/46/22 279/48/22 119/161/22
f 277/44/21 278/46/21 118/163/21
f 276/41/20 277/44/20 117/165/20
f 275/42/19 276/41/19 116/167/19
f 274/37/18 275/39/18 115/301/18
f 273/35/17 274/37/17 114/171/17
f 272/33/16 273/35/16 113/174/16
f 271/31/15 272/33/15 112/176/15
f 270/29/14 271/31/14 111/178/14
f 269/27/13 270/29/13 110/180/13
f 268/24/12 269/27/12 109/182/12
f 267/25/11 268/24/11 108/184/11
f 266/20/10 267/22/10 107/152/10
f 265/18/9 266/20/9 106/188/9
f 264/16/8 265/18/8 105/191/8
f 263/14/7 264/16/7 104/193/7
f 262/12/6 263/14/6 103/195/6
f 261/10/5 262/12/5 102/197/5
f 260/7/4 261/10/4 101/199/4
f 259/8/3 260/7/3 100/201/3
f 258/2/2 259/5/2 99/302/2
f 257/3/1 258/2/1 98/205/1
