# Blender 4.5.3 LTS
# www.blender.org
o C1_C2_H_AIR
v 35.119202 -2.105827 -9.249998
v -17.939201 -37.894173 -9.250002
v 35.255569 -2.307999 -9.274017
v -17.802835 -38.096344 -9.274020
v 35.386696 -2.502401 -9.345149
v -17.671709 -38.290749 -9.345152
v 35.507538 -2.681562 -9.460662
v -17.550863 -38.469910 -9.460665
v 35.613464 -2.838600 -9.616116
v -17.444941 -38.626945 -9.616117
v 35.700394 -2.967476 -9.805536
v -17.358011 -38.755821 -9.805538
v 35.764984 -3.063240 -10.021645
v -17.293417 -38.851585 -10.021647
v 35.804764 -3.122211 -10.256136
v -17.253641 -38.910557 -10.256139
v 35.818192 -3.142124 -10.499999
v -17.240210 -38.930470 -10.500001
v 35.804764 -3.122211 -10.743861
v -17.253641 -38.910557 -10.743864
v 35.764984 -3.063240 -10.978353
v -17.293417 -38.851585 -10.978355
v 35.700394 -2.967476 -11.194462
v -17.358011 -38.755821 -11.194464
v 35.613464 -2.838600 -11.383883
v -17.444941 -38.626945 -11.383884
v 35.507538 -2.681562 -11.539335
v -17.550863 -38.469910 -11.539338
v 35.386696 -2.502401 -11.654848
v -17.671709 -38.290749 -11.654851
v 35.255569 -2.307999 -11.725980
v -17.802835 -38.096344 -11.725983
v 35.119202 -2.105827 -11.749998
v -17.939201 -37.894173 -11.750002
v 34.982834 -1.903656 -11.725980
v -18.075567 -37.692001 -11.725983
v 34.851707 -1.709253 -11.654848
v -18.206694 -37.497597 -11.654851
v 34.730865 -1.530092 -11.539335
v -18.327539 -37.318436 -11.539338
v 34.624939 -1.373055 -11.383883
v -18.433462 -37.161400 -11.383884
v 34.538010 -1.244179 -11.194462
v -18.520391 -37.032524 -11.194464
v 34.473419 -1.148415 -10.978353
v -18.584986 -36.936760 -10.978355
v 34.433640 -1.089443 -10.743861
v -18.624762 -36.877789 -10.743864
v 34.420212 -1.069530 -10.499999
v -18.638193 -36.857876 -10.500001
v 34.433640 -1.089443 -10.256136
v -18.624762 -36.877789 -10.256139
v 34.473419 -1.148415 -10.021645
v -18.584986 -36.936760 -10.021647
v 34.538010 -1.244179 -9.805536
v -18.520391 -37.032524 -9.805538
v 34.624939 -1.373055 -9.616116
v -18.433462 -37.161400 -9.616117
v 34.730865 -1.530092 -9.460662
v -18.327539 -37.318436 -9.460665
v 34.851707 -1.709253 -9.345149
v -18.206694 -37.497597 -9.345152
v 34.982834 -1.903656 -9.274017
v -18.075567 -37.692001 -9.274020
v 8.590805 -19.999456 -9.250000
v 8.727172 -20.201628 -9.274018
v 8.858297 -20.396030 -9.345151
v 8.979144 -20.575193 -9.460663
v 9.085067 -20.732229 -9.616117
v 9.171995 -20.861107 -9.805537
v 9.236588 -20.956871 -10.021646
v 9.276365 -21.015842 -10.256137
v 9.289797 -21.035753 -10.500000
v 9.276365 -21.015842 -10.743863
v 9.236588 -20.956871 -10.978354
v 9.171995 -20.861107 -11.194463
v 9.085067 -20.732229 -11.383883
v 8.979144 -20.575193 -11.539337
v 8.858297 -20.396030 -11.654849
v 8.727172 -20.201628 -11.725982
v 8.590805 -19.999456 -11.750000
v 8.454439 -19.797285 -11.725982
v 8.323313 -19.602882 -11.654849
v 8.202467 -19.423721 -11.539337
v 8.096544 -19.266684 -11.383883
v 8.009616 -19.137808 -11.194463
v 7.945022 -19.042044 -10.978354
v 7.905245 -18.983072 -10.743863
v 7.891814 -18.963160 -10.500000
v 7.905245 -18.983072 -10.256137
v 7.945022 -19.042044 -10.021646
v 8.009616 -19.137808 -9.805537
v 8.096544 -19.266684 -9.616117
v 8.202467 -19.423721 -9.460663
v 8.323313 -19.602882 -9.345151
v 8.454439 -19.797285 -9.274018
v 21.991371 -11.254813 -9.274017
v 22.122498 -11.449216 -9.345150
v 22.243343 -11.628378 -9.460662
v 22.349266 -11.785415 -9.616116
v 22.436195 -11.914291 -9.805536
v 22.500788 -12.010056 -10.021645
v 22.540565 -12.069027 -10.256136
v 22.553995 -12.088939 -10.499999
v 22.540565 -12.069027 -10.743862
v 22.500788 -12.010056 -10.978354
v 22.436195 -11.914291 -11.194462
v 22.349266 -11.785415 -11.383883
v 22.243343 -11.628378 -11.539336
v 22.122498 -11.449216 -11.654849
v 21.991371 -11.254813 -11.725981
v 21.855003 -11.052642 -11.749999
v 21.718639 -10.850471 -11.725981
v 21.587513 -10.656068 -11.654849
v 21.466665 -10.476906 -11.539336
v 21.360743 -10.319869 -11.383883
v 21.273815 -10.190992 -11.194462
v 21.209221 -10.095228 -10.978354
v 21.169445 -10.036257 -10.743862
v 21.156013 -10.016345 -10.499999
v 21.169445 -10.036257 -10.256136
v 21.209221 -10.095228 -10.021645
v 21.273815 -10.190992 -9.805536
v 21.360743 -10.319869 -9.616116
v 21.466665 -10.476906 -9.460662
v 21.587513 -10.656068 -9.345150
v 21.718637 -10.850471 -9.274017
v 21.855003 -11.052643 -9.249999
v 15.222904 -15.526051 -9.250000
v 15.359271 -15.728221 -9.274018
v 15.490396 -15.922623 -9.345150
v 15.611243 -16.101786 -9.460663
v 15.717166 -16.258821 -9.616117
v 15.804094 -16.387699 -9.805537
v 15.868689 -16.483463 -10.021646
v 15.908464 -16.542435 -10.256137
v 15.921896 -16.562347 -10.500000
v 15.908464 -16.542435 -10.743862
v 15.868689 -16.483463 -10.978354
v 15.804094 -16.387699 -11.194463
v 15.717166 -16.258821 -11.383883
v 15.611243 -16.101786 -11.539337
v 15.490396 -15.922623 -11.654849
v 15.359271 -15.728221 -11.725981
v 15.222904 -15.526050 -11.750000
v 15.086538 -15.323878 -11.725981
v 14.955412 -15.129477 -11.654849
v 14.834566 -14.950314 -11.539337
v 14.728643 -14.793277 -11.383883
v 14.641715 -14.664400 -11.194463
v 14.577122 -14.568636 -10.978354
v 14.537344 -14.509665 -10.743862
v 14.523913 -14.489753 -10.500000
v 14.537344 -14.509665 -10.256137
v 14.577122 -14.568636 -10.021646
v 14.641715 -14.664400 -9.805537
v 14.728643 -14.793277 -9.616117
v 14.834566 -14.950314 -9.460663
v 14.955412 -15.129477 -9.345150
v 15.086538 -15.323878 -9.274018
v -4.674199 -28.946815 -9.250001
v -4.537831 -29.148987 -9.274019
v -4.406705 -29.343388 -9.345151
v -4.285858 -29.522551 -9.460664
v -4.179935 -29.679588 -9.616117
v -4.093007 -29.808464 -9.805538
v -4.028414 -29.904228 -10.021646
v -3.988637 -29.963200 -10.256138
v -3.975206 -29.983112 -10.500001
v -3.988637 -29.963200 -10.743864
v -4.028414 -29.904228 -10.978355
v -4.093007 -29.808464 -11.194464
v -4.179935 -29.679588 -11.383884
v -4.285858 -29.522551 -11.539338
v -4.406705 -29.343388 -11.654850
v -4.537830 -29.148987 -11.725983
v -4.674197 -28.946815 -11.750001
v -4.810563 -28.744644 -11.725983
v -4.941689 -28.550240 -11.654850
v -5.062536 -28.371078 -11.539338
v -5.168459 -28.214043 -11.383884
v -5.255387 -28.085165 -11.194464
v -5.319981 -27.989401 -10.978355
v -5.359757 -27.930429 -10.743864
v -5.373188 -27.910519 -10.500001
v -5.359757 -27.930429 -10.256138
v -5.319981 -27.989401 -10.021646
v -5.255387 -28.085165 -9.805538
v -5.168459 -28.214043 -9.616117
v -5.062536 -28.371078 -9.460664
v -4.941689 -28.550240 -9.345151
v -4.810564 -28.744644 -9.274019
v 2.094670 -24.675308 -9.274019
v 2.225796 -24.869709 -9.345151
v 2.346642 -25.048872 -9.460663
v 2.452565 -25.205910 -9.616117
v 2.539494 -25.334785 -9.805537
v 2.604087 -25.430550 -10.021646
v 2.643864 -25.489521 -10.256138
v 2.657295 -25.509434 -10.500000
v 2.643864 -25.489521 -10.743863
v 2.604087 -25.430550 -10.978354
v 2.539494 -25.334785 -11.194463
v 2.452565 -25.205910 -11.383883
v 2.346642 -25.048872 -11.539337
v 2.225796 -24.869709 -11.654850
v 2.094670 -24.675308 -11.725982
v 1.958304 -24.473137 -11.750000
v 1.821938 -24.270966 -11.725982
v 1.690812 -24.076563 -11.654850
v 1.569965 -23.897400 -11.539337
v 1.464043 -23.740364 -11.383883
v 1.377114 -23.611486 -11.194463
v 1.312521 -23.515722 -10.978354
v 1.272744 -23.456751 -10.743863
v 1.259313 -23.436840 -10.500000
v 1.272744 -23.456751 -10.256138
v 1.312521 -23.515722 -10.021646
v 1.377114 -23.611486 -9.805537
v 1.464043 -23.740364 -9.616117
v 1.569965 -23.897400 -9.460663
v 1.690812 -24.076563 -9.345151
v 1.821938 -24.270966 -9.274019
v 1.958303 -24.473137 -9.250000
v -11.306700 -33.420494 -9.250001
v -11.170332 -33.622665 -9.274019
v -11.039206 -33.817066 -9.345152
v -10.918360 -33.996231 -9.460664
v -10.812437 -34.153267 -9.616117
v -10.725508 -34.282143 -9.805538
v -10.660913 -34.377907 -10.021646
v -10.621138 -34.436878 -10.256138
v -10.607706 -34.456791 -10.500001
v -10.621138 -34.436878 -10.743864
v -10.660913 -34.377907 -10.978355
v -10.725508 -34.282143 -11.194464
v -10.812437 -34.153267 -11.383884
v -10.918360 -33.996231 -11.539338
v -11.039206 -33.817066 -11.654850
v -11.170332 -33.622665 -11.725983
v -11.306698 -33.420494 -11.750001
v -11.443064 -33.218323 -11.725983
v -11.574190 -33.023918 -11.654850
v -11.695036 -32.844757 -11.539338
v -11.800959 -32.687721 -11.383884
v -11.887888 -32.558846 -11.194464
v -11.952482 -32.463081 -10.978355
v -11.992258 -32.404106 -10.743864
v -12.005690 -32.384197 -10.500001
v -11.992258 -32.404106 -10.256138
v -11.952482 -32.463081 -10.021646
v -11.887888 -32.558846 -9.805538
v -11.800959 -32.687721 -9.616117
v -11.695036 -32.844757 -9.460664
v -11.574190 -33.023918 -9.345152
v -11.443064 -33.218323 -9.274019
v 28.623470 -6.781405 -9.274017
v 28.754597 -6.975808 -9.345150
v 28.875443 -7.154970 -9.460662
v 28.981365 -7.312007 -9.616116
v 29.068295 -7.440884 -9.805536
v 29.132889 -7.536648 -10.021645
v 29.172665 -7.595619 -10.256136
v 29.186096 -7.615531 -10.499999
v 29.172665 -7.595619 -10.743862
v 29.132889 -7.536648 -10.978354
v 29.068295 -7.440884 -11.194462
v 28.981365 -7.312007 -11.383883
v 28.875443 -7.154970 -11.539336
v 28.754597 -6.975808 -11.654848
v 28.623470 -6.781405 -11.725981
v 28.487104 -6.579234 -11.749999
v 28.350739 -6.377063 -11.725981
v 28.219612 -6.182660 -11.654848
v 28.098766 -6.003498 -11.539336
v 27.992844 -5.846461 -11.383883
v 27.905914 -5.717585 -11.194462
v 27.841320 -5.621820 -10.978354
v 27.801544 -5.562849 -10.743862
v 27.788113 -5.542937 -10.499999
v 27.801544 -5.562849 -10.256136
v 27.841320 -5.621820 -10.021645
v 27.905914 -5.717585 -9.805536
v 27.992844 -5.846461 -9.616116
v 28.098766 -6.003498 -9.460662
v 28.219612 -6.182660 -9.345150
v 28.350739 -6.377063 -9.274017
v 28.487103 -6.579235 -9.249999
vn 0.0548 -0.0813 0.9952
vn 0.1623 -0.2407 0.9569
vn 0.2636 -0.3908 0.8819
vn 0.3547 -0.5259 0.7730
vn 0.4323 -0.6409 0.6344
vn 0.4932 -0.7311 0.4714
vn 0.5351 -0.7933 0.2903
vn 0.5565 -0.8250 0.0980
vn 0.5565 -0.8250 -0.0980
vn 0.5351 -0.7933 -0.2903
vn 0.4932 -0.7311 -0.4714
vn 0.4323 -0.6409 -0.6344
vn 0.3547 -0.5259 -0.7730
vn 0.2636 -0.3908 -0.8819
vn 0.1623 -0.2407 -0.9569
vn 0.0548 -0.0813 -0.9952
vn -0.0548 0.0813 -0.9952
vn -0.1623 0.2407 -0.9569
vn -0.2636 0.3908 -0.8819
vn -0.3547 0.5259 -0.7730
vn -0.4323 0.6409 -0.6344
vn -0.4932 0.7311 -0.4714
vn -0.5351 0.7933 -0.2903
vn -0.5565 0.8250 -0.0980
vn -0.5565 0.8250 0.0980
vn -0.5351 0.7933 0.2903
vn -0.4932 0.7311 0.4714
vn -0.4323 0.6409 0.6344
vn -0.3547 0.5259 0.7730
vn -0.2636 0.3908 0.8819
vn -0.8290 -0.5592 -0.0000
vn -0.1623 0.2407 0.9569
vn -0.0548 0.0813 0.9952
vn 0.8290 0.5592 -0.0000
vn 0.8291 0.5592 -0.0000
vt 1.000000 0.937498
vt 0.968750 1.000000
vt 0.968750 0.937498
vt 0.937500 0.937498
vt 0.937500 1.000000
vt 0.906250 0.937498
vt 0.906250 1.000000
vt 0.875000 0.937498
vt 0.875000 1.000000
vt 0.843750 0.937498
vt 0.843750 1.000000
vt 0.812500 0.937498
vt 0.812500 1.000000
vt 0.781250 0.937498
vt 0.781250 1.000000
vt 0.750000 0.937498
vt 0.750000 1.000000
vt 0.718750 0.937498
vt 0.718750 1.000000
vt 0.687500 0.937498
vt 0.687500 1.000000
vt 0.656250 0.937498
vt 0.656250 1.000000
vt 0.625000 0.937498
vt 0.625000 1.000000
vt 0.593750 0.937498
vt 0.593750 1.000000
vt 0.562500 0.937498
vt 0.562500 1.000000
vt 0.531250 0.937498
vt 0.531250 1.000000
vt 0.500000 0.937498
vt 0.500000 1.000000
vt 0.468750 0.937498
vt 0.468750 1.000000
vt 0.437500 0.937498
vt 0.437500 1.000000
vt 0.406250 0.937498
vt 0.406250 1.000000
vt 0.375000 0.937498
vt 0.375000 1.000000
vt 0.343750 0.937498
vt 0.343750 1.000000
vt 0.312500 0.937498
vt 0.312500 1.000000
vt 0.281250 0.937498
vt 0.281250 1.000000
vt 0.250000 0.937498
vt 0.250000 1.000000
vt 0.218750 0.937498
vt 0.218750 1.000000
vt 0.187500 0.937498
vt 0.187500 1.000000
vt 0.156250 0.937498
vt 0.156250 1.000000
vt 0.125000 0.937498
vt 0.125000 1.000000
vt 0.093750 0.937498
vt 0.093750 1.000000
vt 0.062500 0.937498
vt 0.158156 0.028269
vt 0.471731 0.158156
vt 0.341844 0.471731
vt 0.062500 1.000000
vt 0.031250 0.937498
vt 0.031250 1.000000
vt 0.000000 0.937498
vt 0.796822 0.014612
vt 0.514612 0.203178
vt 0.703178 0.485388
vt 0.031250 0.749992
vt 0.000000 0.687494
vt 0.031250 0.687494
vt 0.062500 0.749992
vt 0.062500 0.687494
vt 0.093750 0.749992
vt 0.093750 0.687494
vt 0.125000 0.749992
vt 0.125000 0.687494
vt 0.156250 0.749992
vt 0.156250 0.687494
vt 0.187500 0.749992
vt 0.187500 0.687494
vt 0.218750 0.749992
vt 0.218750 0.687494
vt 0.250000 0.749992
vt 0.250000 0.687494
vt 0.281250 0.749992
vt 0.281250 0.687494
vt 0.312500 0.749992
vt 0.312500 0.687494
vt 0.343750 0.749992
vt 0.343750 0.687494
vt 0.375000 0.749992
vt 0.375000 0.687494
vt 0.406250 0.749992
vt 0.406250 0.687494
vt 0.437500 0.749992
vt 0.437500 0.687494
vt 0.468750 0.749992
vt 0.468750 0.687494
vt 0.500000 0.749992
vt 0.500000 0.687494
vt 0.531250 0.749992
vt 0.531250 0.687494
vt 0.562500 0.749992
vt 0.562500 0.687494
vt 0.593750 0.749992
vt 0.593750 0.687494
vt 0.625000 0.749992
vt 0.625000 0.687494
vt 0.656250 0.749992
vt 0.656250 0.687494
vt 0.687500 0.749992
vt 0.687500 0.687494
vt 0.718750 0.749992
vt 0.718750 0.687494
vt 0.750000 0.749992
vt 0.750000 0.687494
vt 0.781250 0.749992
vt 0.781250 0.687494
vt 0.812500 0.749992
vt 0.812500 0.687494
vt 0.843750 0.749992
vt 0.843750 0.687494
vt 0.875000 0.749992
vt 0.875000 0.687494
vt 0.906250 0.749992
vt 0.906250 0.687494
vt 0.937500 0.749992
vt 0.937500 0.687494
vt 0.968750 0.749992
vt 0.968750 0.687494
vt 1.000000 0.687494
vt 1.000000 0.562498
vt 0.968750 0.624996
vt 0.968750 0.562498
vt 0.937500 0.562498
vt 0.937500 0.624996
vt 0.906250 0.562498
vt 0.906250 0.624996
vt 0.875000 0.562498
vt 0.875000 0.624996
vt 0.843750 0.562498
vt 0.843750 0.624996
vt 0.812500 0.562498
vt 0.812500 0.624996
vt 0.781250 0.562498
vt 0.781250 0.624996
vt 0.750000 0.562498
vt 0.750000 0.624996
vt 0.718750 0.562498
vt 0.718750 0.624996
vt 0.687500 0.562498
vt 0.687500 0.624996
vt 0.656250 0.562498
vt 0.656250 0.624996
vt 0.625000 0.562498
vt 0.625000 0.624996
vt 0.593750 0.562498
vt 0.593750 0.624996
vt 0.562500 0.562498
vt 0.562500 0.624996
vt 0.531250 0.562498
vt 0.531250 0.624996
vt 0.500000 0.562498
vt 0.500000 0.624996
vt 0.468750 0.562498
vt 0.468750 0.624996
vt 0.437500 0.562498
vt 0.437500 0.624996
vt 0.406250 0.562498
vt 0.406250 0.624996
vt 0.375000 0.562498
vt 0.375000 0.624996
vt 0.343750 0.562498
vt 0.343750 0.624996
vt 0.312500 0.562498
vt 0.312500 0.624996
vt 0.281250 0.562498
vt 0.281250 0.624996
vt 0.250000 0.562498
vt 0.250000 0.624996
vt 0.218750 0.562498
vt 0.218750 0.624996
vt 0.187500 0.562498
vt 0.187500 0.624996
vt 0.156250 0.562498
vt 0.156250 0.624996
vt 0.125000 0.562498
vt 0.125000 0.624996
vt 0.093750 0.562498
vt 0.093750 0.624996
vt 0.062500 0.562498
vt 0.062500 0.624996
vt 0.031250 0.562498
vt 0.031250 0.624996
vt 0.000000 0.562498
vt 1.000000 0.624996
vt 0.000000 0.624996
vt 0.031250 0.874996
vt 0.000000 0.812494
vt 0.031250 0.812494
vt 0.062500 0.874996
vt 0.062500 0.812494
vt 0.093750 0.874996
vt 0.093750 0.812494
vt 0.125000 0.874996
vt 0.125000 0.812494
vt 0.156250 0.874996
vt 0.156250 0.812494
vt 0.187500 0.874996
vt 0.187500 0.812494
vt 0.218750 0.874996
vt 0.218750 0.812494
vt 0.250000 0.874996
vt 0.250000 0.812494
vt 0.281250 0.874996
vt 0.281250 0.812494
vt 0.312500 0.874996
vt 0.312500 0.812494
vt 0.343750 0.874996
vt 0.343750 0.812494
vt 0.375000 0.874996
vt 0.375000 0.812494
vt 0.406250 0.874996
vt 0.406250 0.812494
vt 0.437500 0.874996
vt 0.437500 0.812494
vt 0.468750 0.874996
vt 0.468750 0.812494
vt 0.500000 0.874996
vt 0.500000 0.812494
vt 0.531250 0.874996
vt 0.531250 0.812494
vt 0.562500 0.874996
vt 0.562500 0.812494
vt 0.593750 0.874996
vt 0.593750 0.812494
vt 0.625000 0.874996
vt 0.625000 0.812494
vt 0.656250 0.874996
vt 0.656250 0.812494
vt 0.687500 0.874996
vt 0.687500 0.812494
vt 0.718750 0.874996
vt 0.718750 0.812494
vt 0.750000 0.874996
vt 0.750000 0.812494
vt 0.781250 0.874996
vt 0.781250 0.812494
vt 0.812500 0.874996
vt 0.812500 0.812494
vt 0.843750 0.874996
vt 0.843750 0.812494
vt 0.875000 0.874996
vt 0.875000 0.812494
vt 0.906250 0.874996
vt 0.906250 0.812494
vt 0.937500 0.874996
vt 0.937500 0.812494
vt 0.968750 0.874996
vt 0.968750 0.812494
vt 1.000000 0.812494
vt 1.000000 0.749992
vt 0.000000 0.749992
vt 0.000000 0.874996
vt 1.000000 0.874996
vt 0.000000 0.500000
vt 0.031250 0.500000
vt 0.062500 0.500000
vt 0.093750 0.500000
vt 0.125000 0.500000
vt 0.156250 0.500000
vt 0.187500 0.500000
vt 0.218750 0.500000
vt 0.250000 0.500000
vt 0.281250 0.500000
vt 0.312500 0.500000
vt 0.343750 0.500000
vt 0.375000 0.500000
vt 0.406250 0.500000
vt 0.437500 0.500000
vt 0.468750 0.500000
vt 0.500000 0.500000
vt 0.531250 0.500000
vt 0.562500 0.500000
vt 0.593750 0.500000
vt 0.625000 0.500000
vt 0.656250 0.500000
vt 0.687500 0.500000
vt 0.718750 0.500000
vt 0.750000 0.500000
vt 0.781250 0.500000
vt 0.812500 0.500000
vt 0.843750 0.500000
vt 0.875000 0.500000
vt 0.906250 0.500000
vt 0.937500 0.500000
vt 0.968750 0.500000
vt 1.000000 0.500000
vt 1.000000 1.000000
vt 0.296822 0.485388
vt 0.250000 0.490000
vt 0.203178 0.485388
vt 0.158156 0.471731
vt 0.116663 0.449553
vt 0.080294 0.419706
vt 0.050447 0.383337
vt 0.028269 0.341844
vt 0.014612 0.296822
vt 0.010000 0.250000
vt 0.014612 0.203178
vt 0.028269 0.158156
vt 0.050447 0.116663
vt 0.080294 0.080294
vt 0.116663 0.050447
vt 0.203178 0.014612
vt 0.341844 0.028269
vt 0.250000 0.010000
vt 0.296822 0.014612
vt 0.383337 0.050447
vt 0.419706 0.080294
vt 0.449553 0.116663
vt 0.485388 0.203178
vt 0.471731 0.341844
vt 0.490000 0.250000
vt 0.485388 0.296822
vt 0.449553 0.383337
vt 0.419706 0.419706
vt 0.383337 0.449553
vt 0.000000 1.000000
vt 0.750000 0.490000
vt 0.796822 0.485388
vt 0.841844 0.471731
vt 0.883337 0.449553
vt 0.919706 0.419706
vt 0.949553 0.383337
vt 0.971731 0.341844
vt 0.985388 0.296822
vt 0.990000 0.250000
vt 0.985388 0.203178
vt 0.971731 0.158156
vt 0.949553 0.116663
vt 0.919706 0.080294
vt 0.883337 0.050447
vt 0.841844 0.028269
vt 0.750000 0.010000
vt 0.703178 0.014612
vt 0.658156 0.028269
vt 0.616663 0.050447
vt 0.580294 0.080294
vt 0.550447 0.116663
vt 0.528269 0.158156
vt 0.510000 0.250000
vt 0.514612 0.296822
vt 0.528269 0.341844
vt 0.550447 0.383337
vt 0.580294 0.419706
vt 0.616663 0.449553
vt 0.658156 0.471731
s 0
f 225/1/1 4/2/1 226/3/1
f 4/2/2 227/4/2 226/3/2
f 6/5/3 228/6/3 227/4/3
f 8/7/4 229/8/4 228/6/4
f 10/9/5 230/10/5 229/8/5
f 12/11/6 231/12/6 230/10/6
f 14/13/7 232/14/7 231/12/7
f 16/15/8 233/16/8 232/14/8
f 18/17/9 234/18/9 233/16/9
f 20/19/10 235/20/10 234/18/10
f 22/21/11 236/22/11 235/20/11
f 24/23/12 237/24/12 236/22/12
f 26/25/13 238/26/13 237/24/13
f 28/27/14 239/28/14 238/26/14
f 30/29/15 240/30/15 239/28/15
f 32/31/16 241/32/16 240/30/16
f 34/33/17 242/34/17 241/32/17
f 36/35/18 243/36/18 242/34/18
f 38/37/19 244/38/19 243/36/19
f 40/39/20 245/40/20 244/38/20
f 42/41/21 246/42/21 245/40/21
f 44/43/22 247/44/22 246/42/22
f 46/45/23 248/46/23 247/44/23
f 48/47/24 249/48/24 248/46/24
f 50/49/25 250/50/25 249/48/25
f 52/51/26 251/52/26 250/50/26
f 54/53/27 252/54/27 251/52/27
f 56/55/28 253/56/28 252/54/28
f 58/57/29 254/58/29 253/56/29
f 60/59/30 255/60/30 254/58/30
f 38/61/31 22/62/31 6/63/31
f 62/64/32 256/65/32 255/60/32
f 64/66/33 225/67/33 256/65/33
f 31/68/34 47/69/34 63/70/34
f 96/71/33 129/72/33 160/73/33
f 95/74/32 160/73/32 159/75/32
f 94/76/30 159/75/30 158/77/30
f 93/78/29 158/77/29 157/79/29
f 92/80/28 157/79/28 156/81/28
f 91/82/27 156/81/27 155/83/27
f 90/84/26 155/83/26 154/85/26
f 89/86/25 154/85/25 153/87/25
f 88/88/24 153/87/24 152/89/24
f 87/90/23 152/89/23 151/91/23
f 86/92/22 151/91/22 150/93/22
f 85/94/21 150/93/21 149/95/21
f 84/96/20 149/95/20 148/97/20
f 83/98/19 148/97/19 147/99/19
f 82/100/18 147/99/18 146/101/18
f 81/102/17 146/101/17 145/103/17
f 80/104/16 145/103/16 144/105/16
f 79/106/15 144/105/15 143/107/15
f 78/108/14 143/107/14 142/109/14
f 77/110/13 142/109/13 141/111/13
f 76/112/12 141/111/12 140/113/12
f 75/114/11 140/113/11 139/115/11
f 74/116/10 139/115/10 138/117/10
f 73/118/9 138/117/9 137/119/9
f 72/120/8 137/119/8 136/121/8
f 71/122/7 136/121/7 135/123/7
f 70/124/6 135/123/6 134/125/6
f 69/126/5 134/125/5 133/127/5
f 68/128/4 133/127/4 132/129/4
f 67/130/3 132/129/3 131/131/3
f 66/132/2 131/131/2 130/133/2
f 129/134/1 66/132/1 130/133/1
f 288/135/1 97/136/1 257/137/1
f 97/136/2 258/138/2 257/137/2
f 98/139/3 259/140/3 258/138/3
f 99/141/4 260/142/4 259/140/4
f 100/143/5 261/144/5 260/142/5
f 101/145/6 262/146/6 261/144/6
f 102/147/7 263/148/7 262/146/7
f 103/149/8 264/150/8 263/148/8
f 104/151/9 265/152/9 264/150/9
f 105/153/10 266/154/10 265/152/10
f 106/155/11 267/156/11 266/154/11
f 107/157/12 268/158/12 267/156/12
f 108/159/13 269/160/13 268/158/13
f 109/161/14 270/162/14 269/160/14
f 110/163/15 271/164/15 270/162/15
f 111/165/16 272/166/16 271/164/16
f 112/167/17 273/168/17 272/166/17
f 113/169/18 274/170/18 273/168/18
f 114/171/19 275/172/19 274/170/19
f 115/173/20 276/174/20 275/172/20
f 116/175/21 277/176/21 276/174/21
f 117/177/22 278/178/22 277/176/22
f 118/179/23 279/180/23 278/178/23
f 119/181/24 280/182/24 279/180/24
f 120/183/25 281/184/25 280/182/25
f 121/185/26 282/186/26 281/184/26
f 122/187/27 283/188/27 282/186/27
f 123/189/28 284/190/28 283/188/28
f 124/191/29 285/192/29 284/190/29
f 125/193/30 286/194/30 285/192/30
f 126/195/32 287/196/32 286/194/32
f 127/197/33 288/198/33 287/196/33
f 128/199/1 130/133/1 97/136/1
f 130/133/2 98/139/2 97/136/2
f 131/131/3 99/141/3 98/139/3
f 132/129/4 100/143/4 99/141/4
f 133/127/5 101/145/5 100/143/5
f 134/125/6 102/147/6 101/145/6
f 135/123/7 103/149/7 102/147/7
f 136/121/8 104/151/8 103/149/8
f 137/119/9 105/153/9 104/151/9
f 138/117/10 106/155/10 105/153/10
f 139/115/11 107/157/11 106/155/11
f 140/113/12 108/159/12 107/157/12
f 141/111/13 109/161/13 108/159/13
f 142/109/14 110/163/14 109/161/14
f 143/107/15 111/165/15 110/163/15
f 144/105/16 112/167/16 111/165/16
f 145/103/17 113/169/17 112/167/17
f 146/101/18 114/171/18 113/169/18
f 147/99/19 115/173/19 114/171/19
f 148/97/20 116/175/20 115/173/20
f 149/95/21 117/177/21 116/175/21
f 150/93/22 118/179/22 117/177/22
f 151/91/23 119/181/23 118/179/23
f 152/89/24 120/183/24 119/181/24
f 153/87/25 121/185/25 120/183/25
f 154/85/26 122/187/26 121/185/26
f 155/83/27 123/189/27 122/187/27
f 156/81/28 124/191/28 123/189/28
f 157/79/29 125/193/29 124/191/29
f 158/77/30 126/195/30 125/193/30
f 159/75/32 127/197/32 126/195/32
f 160/73/33 128/200/33 127/197/33
f 192/201/33 224/202/33 223/203/33
f 191/204/32 223/203/32 222/205/32
f 190/206/30 222/205/30 221/207/30
f 189/208/29 221/207/29 220/209/29
f 188/210/28 220/209/28 219/211/28
f 187/212/27 219/211/27 218/213/27
f 186/214/26 218/213/26 217/215/26
f 185/216/25 217/215/25 216/217/25
f 184/218/24 216/217/24 215/219/24
f 183/220/23 215/219/23 214/221/23
f 182/222/22 214/221/22 213/223/22
f 181/224/21 213/223/21 212/225/21
f 180/226/20 212/225/20 211/227/20
f 179/228/19 211/227/19 210/229/19
f 178/230/18 210/229/18 209/231/18
f 177/232/17 209/231/17 208/233/17
f 176/234/16 208/233/16 207/235/16
f 175/236/15 207/235/15 206/237/15
f 174/238/14 206/237/14 205/239/14
f 173/240/13 205/239/13 204/241/13
f 172/242/12 204/241/12 203/243/12
f 171/244/11 203/243/11 202/245/11
f 170/246/10 202/245/10 201/247/10
f 169/248/9 201/247/9 200/249/9
f 168/250/8 200/249/8 199/251/8
f 167/252/7 199/251/7 198/253/7
f 166/254/6 198/253/6 197/255/6
f 165/256/5 197/255/5 196/257/5
f 164/258/4 196/257/4 195/259/4
f 163/260/3 195/259/3 194/261/3
f 162/262/2 194/261/2 193/263/2
f 224/264/1 162/262/1 193/263/1
f 65/265/1 193/263/1 66/132/1
f 193/263/2 67/130/2 66/132/2
f 194/261/3 68/128/3 67/130/3
f 195/259/4 69/126/4 68/128/4
f 196/257/5 70/124/5 69/126/5
f 197/255/6 71/122/6 70/124/6
f 198/253/7 72/120/7 71/122/7
f 199/251/8 73/118/8 72/120/8
f 200/249/9 74/116/9 73/118/9
f 201/247/10 75/114/10 74/116/10
f 202/245/11 76/112/11 75/114/11
f 203/243/12 77/110/12 76/112/12
f 204/241/13 78/108/13 77/110/13
f 205/239/14 79/106/14 78/108/14
f 206/237/15 80/104/15 79/106/15
f 207/235/16 81/102/16 80/104/16
f 208/233/17 82/100/17 81/102/17
f 209/231/18 83/98/18 82/100/18
f 210/229/19 84/96/19 83/98/19
f 211/227/20 85/94/20 84/96/20
f 212/225/21 86/92/21 85/94/21
f 213/223/22 87/90/22 86/92/22
f 214/221/23 88/88/23 87/90/23
f 215/219/24 89/86/24 88/88/24
f 216/217/25 90/84/25 89/86/25
f 217/215/26 91/82/26 90/84/26
f 218/213/27 92/80/27 91/82/27
f 219/211/28 93/78/28 92/80/28
f 220/209/29 94/76/29 93/78/29
f 221/207/30 95/74/30 94/76/30
f 222/205/32 96/71/32 95/74/32
f 223/203/33 65/266/33 96/71/33
f 256/65/33 161/267/33 192/201/33
f 255/60/32 192/201/32 191/204/32
f 254/58/30 191/204/30 190/206/30
f 253/56/29 190/206/29 189/208/29
f 252/54/28 189/208/28 188/210/28
f 251/52/27 188/210/27 187/212/27
f 250/50/26 187/212/26 186/214/26
f 249/48/25 186/214/25 185/216/25
f 248/46/24 185/216/24 184/218/24
f 247/44/23 184/218/23 183/220/23
f 246/42/22 183/220/22 182/222/22
f 245/40/21 182/222/21 181/224/21
f 244/38/20 181/224/20 180/226/20
f 243/36/19 180/226/19 179/228/19
f 242/34/18 179/228/18 178/230/18
f 241/32/17 178/230/17 177/232/17
f 240/30/16 177/232/16 176/234/16
f 239/28/15 176/234/15 175/236/15
f 238/26/14 175/236/14 174/238/14
f 237/24/13 174/238/13 173/240/13
f 236/22/12 173/240/12 172/242/12
f 235/20/11 172/242/11 171/244/11
f 234/18/10 171/244/10 170/246/10
f 233/16/9 170/246/9 169/248/9
f 232/14/8 169/248/8 168/250/8
f 231/12/7 168/250/7 167/252/7
f 230/10/6 167/252/6 166/254/6
f 229/8/5 166/254/5 165/256/5
f 228/6/4 165/256/4 164/258/4
f 227/4/3 164/258/3 163/260/3
f 226/3/2 163/260/2 162/262/2
f 161/268/1 226/3/1 162/262/1
f 287/196/33 1/269/33 63/270/33
f 286/194/32 63/270/32 61/271/32
f 285/192/30 61/271/30 59/272/30
f 284/190/29 59/272/29 57/273/29
f 283/188/28 57/273/28 55/274/28
f 282/186/27 55/274/27 53/275/27
f 281/184/26 53/275/26 51/276/26
f 280/182/25 51/276/25 49/277/25
f 279/180/24 49/277/24 47/278/24
f 278/178/23 47/278/23 45/279/23
f 277/176/22 45/279/22 43/280/22
f 276/174/21 43/280/21 41/281/21
f 275/172/20 41/281/20 39/282/20
f 274/170/19 39/282/19 37/283/19
f 273/168/18 37/283/18 35/284/18
f 272/166/17 35/284/17 33/285/17
f 271/164/16 33/285/16 31/286/16
f 270/162/15 31/286/15 29/287/15
f 269/160/14 29/287/14 27/288/14
f 268/158/13 27/288/13 25/289/13
f 267/156/12 25/289/12 23/290/12
f 266/154/11 23/290/11 21/291/11
f 265/152/10 21/291/10 19/292/10
f 264/150/9 19/292/9 17/293/9
f 263/148/8 17/293/8 15/294/8
f 262/146/7 15/294/7 13/295/7
f 261/144/6 13/295/6 11/296/6
f 260/142/5 11/296/5 9/297/5
f 259/140/4 9/297/4 7/298/4
f 258/138/3 7/298/3 5/299/3
f 257/137/2 5/299/2 3/300/2
f 1/301/1 257/137/1 3/300/1
f 225/1/1 2/302/1 4/2/1
f 4/2/2 6/5/2 227/4/2
f 6/5/3 8/7/3 228/6/3
f 8/7/4 10/9/4 229/8/4
f 10/9/5 12/11/5 230/10/5
f 12/11/6 14/13/6 231/12/6
f 14/13/7 16/15/7 232/14/7
f 16/15/8 18/17/8 233/16/8
f 18/17/9 20/19/9 234/18/9
f 20/19/10 22/21/10 235/20/10
f 22/21/11 24/23/11 236/22/11
f 24/23/12 26/25/12 237/24/12
f 26/25/13 28/27/13 238/26/13
f 28/27/14 30/29/14 239/28/14
f 30/29/15 32/31/15 240/30/15
f 32/31/16 34/33/16 241/32/16
f 34/33/17 36/35/17 242/34/17
f 36/35/18 38/37/18 243/36/18
f 38/37/19 40/39/19 244/38/19
f 40/39/20 42/41/20 245/40/20
f 42/41/21 44/43/21 246/42/21
f 44/43/22 46/45/22 247/44/22
f 46/45/23 48/47/23 248/46/23
f 48/47/24 50/49/24 249/48/24
f 50/49/25 52/51/25 250/50/25
f 52/51/26 54/53/26 251/52/26
f 54/53/27 56/55/27 252/54/27
f 56/55/28 58/57/28 253/56/28
f 58/57/29 60/59/29 254/58/29
f 60/59/30 62/64/30 255/60/30
f 6/63/31 4/303/31 2/304/31
f 2/304/31 64/305/31 6/63/31
f 64/305/31 62/306/31 6/63/31
f 62/306/31 60/307/31 58/308/31
f 58/308/31 56/309/31 54/310/31
f 54/310/31 52/311/31 50/312/31
f 50/312/31 48/313/31 54/310/31
f 48/313/31 46/314/31 54/310/31
f 46/314/31 44/315/31 42/316/31
f 42/316/31 40/317/31 38/61/31
f 38/61/31 36/318/31 30/319/31
f 36/318/31 34/320/31 30/319/31
f 34/320/31 32/321/31 30/319/31
f 30/319/31 28/322/31 26/323/31
f 26/323/31 24/324/31 22/62/31
f 22/62/31 20/325/31 14/326/31
f 20/325/31 18/327/31 14/326/31
f 18/327/31 16/328/31 14/326/31
f 14/326/31 12/329/31 10/330/31
f 10/330/31 8/331/31 6/63/31
f 62/306/31 58/308/31 6/63/31
f 58/308/31 54/310/31 6/63/31
f 46/314/31 42/316/31 54/310/31
f 42/316/31 38/61/31 54/310/31
f 30/319/31 26/323/31 38/61/31
f 26/323/31 22/62/31 38/61/31
f 14/326/31 10/330/31 22/62/31
f 10/330/31 6/63/31 22/62/31
f 6/63/31 54/310/31 38/61/31
f 62/64/32 64/66/32 256/65/32
f 64/66/33 2/332/33 225/67/33
f 63/70/34 1/333/34 3/334/34
f 3/334/34 5/335/34 7/336/34
f 7/336/34 9/337/34 11/338/34
f 11/338/34 13/339/34 15/340/34
f 15/340/34 17/341/34 19/342/34
f 19/342/34 21/343/34 23/344/34
f 23/344/34 25/345/34 27/346/34
f 27/346/34 29/347/34 31/68/34
f 31/68/34 33/348/34 35/349/34
f 35/349/34 37/350/34 39/351/34
f 39/351/34 41/352/34 43/353/34
f 43/353/34 45/354/34 47/69/34
f 47/69/34 49/355/34 51/356/34
f 51/356/34 53/357/34 55/358/34
f 55/358/34 57/359/34 59/360/34
f 59/360/34 61/361/34 63/70/34
f 63/70/34 3/334/34 15/340/34
f 3/334/34 7/336/34 15/340/34
f 7/336/34 11/338/34 15/340/34
f 15/340/34 19/342/34 31/68/34
f 19/342/34 23/344/34 31/68/34
f 23/344/34 27/346/34 31/68/34
f 31/68/34 35/349/34 47/69/34
f 35/349/34 39/351/34 47/69/34
f 39/351/35 43/353/35 47/69/35
f 47/69/34 51/356/34 63/70/34
f 51/356/34 55/358/34 63/70/34
f 55/358/34 59/360/34 63/70/34
f 63/70/34 15/340/34 31/68/34
f 96/71/33 65/266/33 129/72/33
f 95/74/32 96/71/32 160/73/32
f 94/76/30 95/74/30 159/75/30
f 93/78/29 94/76/29 158/77/29
f 92/80/28 93/78/28 157/79/28
f 91/82/27 92/80/27 156/81/27
f 90/84/26 91/82/26 155/83/26
f 89/86/25 90/84/25 154/85/25
f 88/88/24 89/86/24 153/87/24
f 87/90/23 88/88/23 152/89/23
f 86/92/22 87/90/22 151/91/22
f 85/94/21 86/92/21 150/93/21
f 84/96/20 85/94/20 149/95/20
f 83/98/19 84/96/19 148/97/19
f 82/100/18 83/98/18 147/99/18
f 81/102/17 82/100/17 146/101/17
f 80/104/16 81/102/16 145/103/16
f 79/106/15 80/104/15 144/105/15
f 78/108/14 79/106/14 143/107/14
f 77/110/13 78/108/13 142/109/13
f 76/112/12 77/110/12 141/111/12
f 75/114/11 76/112/11 140/113/11
f 74/116/10 75/114/10 139/115/10
f 73/118/9 74/116/9 138/117/9
f 72/120/8 73/118/8 137/119/8
f 71/122/7 72/120/7 136/121/7
f 70/124/6 71/122/6 135/123/6
f 69/126/5 70/124/5 134/125/5
f 68/128/4 69/126/4 133/127/4
f 67/130/3 68/128/3 132/129/3
f 66/132/2 67/130/2 131/131/2
f 129/134/1 65/265/1 66/132/1
f 288/135/1 128/199/1 97/136/1
f 97/136/2 98/139/2 258/138/2
f 98/139/3 99/141/3 259/140/3
f 99/141/4 100/143/4 260/142/4
f 100/143/5 101/145/5 261/144/5
f 101/145/6 102/147/6 262/146/6
f 102/147/7 103/149/7 263/148/7
f 103/149/8 104/151/8 264/150/8
f 104/151/9 105/153/9 265/152/9
f 105/153/10 106/155/10 266/154/10
f 106/155/11 107/157/11 267/156/11
f 107/157/12 108/159/12 268/158/12
f 108/159/13 109/161/13 269/160/13
f 109/161/14 110/163/14 270/162/14
f 110/163/15 111/165/15 271/164/15
f 111/165/16 112/167/16 272/166/16
f 112/167/17 113/169/17 273/168/17
f 113/169/18 114/171/18 274/170/18
f 114/171/19 115/173/19 275/172/19
f 115/173/20 116/175/20 276/174/20
f 116/175/21 117/177/21 277/176/21
f 117/177/22 118/179/22 278/178/22
f 118/179/23 119/181/23 279/180/23
f 119/181/24 120/183/24 280/182/24
f 120/183/25 121/185/25 281/184/25
f 121/185/26 122/187/26 282/186/26
f 122/187/27 123/189/27 283/188/27
f 123/189/28 124/191/28 284/190/28
f 124/191/29 125/193/29 285/192/29
f 125/193/30 126/195/30 286/194/30
f 126/195/32 127/197/32 287/196/32
f 127/197/33 128/200/33 288/198/33
f 128/199/1 129/134/1 130/133/1
f 130/133/2 131/131/2 98/139/2
f 131/131/3 132/129/3 99/141/3
f 132/129/4 133/127/4 100/143/4
f 133/127/5 134/125/5 101/145/5
f 134/125/6 135/123/6 102/147/6
f 135/123/7 136/121/7 103/149/7
f 136/121/8 137/119/8 104/151/8
f 137/119/9 138/117/9 105/153/9
f 138/117/10 139/115/10 106/155/10
f 139/115/11 140/113/11 107/157/11
f 140/113/12 141/111/12 108/159/12
f 141/111/13 142/109/13 109/161/13
f 142/109/14 143/107/14 110/163/14
f 143/107/15 144/105/15 111/165/15
f 144/105/16 145/103/16 112/167/16
f 145/103/17 146/101/17 113/169/17
f 146/101/18 147/99/18 114/171/18
f 147/99/19 148/97/19 115/173/19
f 148/97/20 149/95/20 116/175/20
f 149/95/21 150/93/21 117/177/21
f 150/93/22 151/91/22 118/179/22
f 151/91/23 152/89/23 119/181/23
f 152/89/24 153/87/24 120/183/24
f 153/87/25 154/85/25 121/185/25
f 154/85/26 155/83/26 122/187/26
f 155/83/27 156/81/27 123/189/27
f 156/81/28 157/79/28 124/191/28
f 157/79/29 158/77/29 125/193/29
f 158/77/30 159/75/30 126/195/30
f 159/75/32 160/73/32 127/197/32
f 160/73/33 129/72/33 128/200/33
f 192/201/33 161/267/33 224/202/33
f 191/204/32 192/201/32 223/203/32
f 190/206/30 191/204/30 222/205/30
f 189/208/29 190/206/29 221/207/29
f 188/210/28 189/208/28 220/209/28
f 187/212/27 188/210/27 219/211/27
f 186/214/26 187/212/26 218/213/26
f 185/216/25 186/214/25 217/215/25
f 184/218/24 185/216/24 216/217/24
f 183/220/23 184/218/23 215/219/23
f 182/222/22 183/220/22 214/221/22
f 181/224/21 182/222/21 213/223/21
f 180/226/20 181/224/20 212/225/20
f 179/228/19 180/226/19 211/227/19
f 178/230/18 179/228/18 210/229/18
f 177/232/17 178/230/17 209/231/17
f 176/234/16 177/232/16 208/233/16
f 175/236/15 176/234/15 207/235/15
f 174/238/14 175/236/14 206/237/14
f 173/240/13 174/238/13 205/239/13
f 172/242/12 173/240/12 204/241/12
f 171/244/11 172/242/11 203/243/11
f 170/246/10 171/244/10 202/245/10
f 169/248/9 170/246/9 201/247/9
f 168/250/8 169/248/8 200/249/8
f 167/252/7 168/250/7 199/251/7
f 166/254/6 167/252/6 198/253/6
f 165/256/5 166/254/5 197/255/5
f 164/258/4 165/256/4 196/257/4
f 163/260/3 164/258/3 195/259/3
f 162/262/2 163/260/2 194/261/2
f 224/264/1 161/268/1 162/262/1
f 65/265/1 224/264/1 193/263/1
f 193/263/2 194/261/2 67/130/2
f 194/261/3 195/259/3 68/128/3
f 195/259/4 196/257/4 69/126/4
f 196/257/5 197/255/5 70/124/5
f 197/255/6 198/253/6 71/122/6
f 198/253/7 199/251/7 72/120/7
f 199/251/8 200/249/8 73/118/8
f 200/249/9 201/247/9 74/116/9
f 201/247/10 202/245/10 75/114/10
f 202/245/11 203/243/11 76/112/11
f 203/243/12 204/241/12 77/110/12
f 204/241/13 205/239/13 78/108/13
f 205/239/14 206/237/14 79/106/14
f 206/237/15 207/235/15 80/104/15
f 207/235/16 208/233/16 81/102/16
f 208/233/17 209/231/17 82/100/17
f 209/231/18 210/229/18 83/98/18
f 210/229/19 211/227/19 84/96/19
f 211/227/20 212/225/20 85/94/20
f 212/225/21 213/223/21 86/92/21
f 213/223/22 214/221/22 87/90/22
f 214/221/23 215/219/23 88/88/23
f 215/219/24 216/217/24 89/86/24
f 216/217/25 217/215/25 90/84/25
f 217/215/26 218/213/26 91/82/26
f 218/213/27 219/211/27 92/80/27
f 219/211/28 220/209/28 93/78/28
f 220/209/29 221/207/29 94/76/29
f 221/207/30 222/205/30 95/74/30
f 222/205/32 223/203/32 96/71/32
f 223/203/33 224/202/33 65/266/33
f 256/65/33 225/67/33 161/267/33
f 255/60/32 256/65/32 192/201/32
f 254/58/30 255/60/30 191/204/30
f 253/56/29 254/58/29 190/206/29
f 252/54/28 253/56/28 189/208/28
f 251/52/27 252/54/27 188/210/27
f 250/50/26 251/52/26 187/212/26
f 249/48/25 250/50/25 186/214/25
f 248/46/24 249/48/24 185/216/24
f 247/44/23 248/46/23 184/218/23
f 246/42/22 247/44/22 183/220/22
f 245/40/21 246/42/21 182/222/21
f 244/38/20 245/40/20 181/224/20
f 243/36/19 244/38/19 180/226/19
f 242/34/18 243/36/18 179/228/18
f 241/32/17 242/34/17 178/230/17
f 240/30/16 241/32/16 177/232/16
f 239/28/15 240/30/15 176/234/15
f 238/26/14 239/28/14 175/236/14
f 237/24/13 238/26/13 174/238/13
f 236/22/12 237/24/12 173/240/12
f 235/20/11 236/22/11 172/242/11
f 234/18/10 235/20/10 171/244/10
f 233/16/9 234/18/9 170/246/9
f 232/14/8 233/16/8 169/248/8
f 231/12/7 232/14/7 168/250/7
f 230/10/6 231/12/6 167/252/6
f 229/8/5 230/10/5 166/254/5
f 228/6/4 229/8/4 165/256/4
f 227/4/3 228/6/3 164/258/3
f 226/3/2 227/4/2 163/260/2
f 161/268/1 225/1/1 226/3/1
f 287/196/33 288/198/33 1/269/33
f 286/194/32 287/196/32 63/270/32
f 285/192/30 286/194/30 61/271/30
f 284/190/29 285/192/29 59/272/29
f 283/188/28 284/190/28 57/273/28
f 282/186/27 283/188/27 55/274/27
f 281/184/26 282/186/26 53/275/26
f 280/182/25 281/184/25 51/276/25
f 279/180/24 280/182/24 49/277/24
f 278/178/23 279/180/23 47/278/23
f 277/176/22 278/178/22 45/279/22
f 276/174/21 277/176/21 43/280/21
f 275/172/20 276/174/20 41/281/20
f 274/170/19 275/172/19 39/282/19
f 273/168/18 274/170/18 37/283/18
f 272/166/17 273/168/17 35/284/17
f 271/164/16 272/166/16 33/285/16
f 270/162/15 271/164/15 31/286/15
f 269/160/14 270/162/14 29/287/14
f 268/158/13 269/160/13 27/288/13
f 267/156/12 268/158/12 25/289/12
f 266/154/11 267/156/11 23/290/11
f 265/152/10 266/154/10 21/291/10
f 264/150/9 265/152/9 19/292/9
f 263/148/8 264/150/8 17/293/8
f 262/146/7 263/148/7 15/294/7
f 261/144/6 262/146/6 13/295/6
f 260/142/5 261/144/5 11/296/5
f 259/140/4 260/142/4 9/297/4
f 258/138/3 259/140/3 7/298/3
f 257/137/2 258/138/2 5/299/2
f 1/301/1 288/135/1 257/137/1
