# Blender 4.5.3 LTS
# www.blender.org
o C1_C2_H_UW
v 35.119202 -2.105827 9.750002
v -17.939201 -37.894173 9.749998
v 35.255569 -2.307999 9.725983
v -17.802835 -38.096344 9.725980
v 35.386696 -2.502401 9.654851
v -17.671709 -38.290749 9.654848
v 35.507538 -2.681562 9.539338
v -17.550863 -38.469910 9.539335
v 35.613464 -2.838600 9.383884
v -17.444941 -38.626945 9.383883
v 35.700394 -2.967476 9.194464
v -17.358011 -38.755821 9.194462
v 35.764984 -3.063240 8.978355
v -17.293417 -38.851585 8.978353
v 35.804764 -3.122211 8.743864
v -17.253641 -38.910557 8.743861
v 35.818192 -3.142124 8.500001
v -17.240210 -38.930470 8.499999
v 35.804764 -3.122211 8.256139
v -17.253641 -38.910557 8.256136
v 35.764984 -3.063240 8.021647
v -17.293417 -38.851585 8.021645
v 35.700394 -2.967476 7.805539
v -17.358011 -38.755821 7.805536
v 35.613464 -2.838600 7.616118
v -17.444941 -38.626945 7.616115
v 35.507538 -2.681562 7.460664
v -17.550863 -38.469910 7.460661
v 35.386696 -2.502401 7.345152
v -17.671709 -38.290749 7.345149
v 35.255569 -2.307999 7.274020
v -17.802835 -38.096344 7.274017
v 35.119202 -2.105827 7.250001
v -17.939201 -37.894173 7.249999
v 34.982834 -1.903656 7.274020
v -18.075567 -37.692001 7.274017
v 34.851707 -1.709253 7.345152
v -18.206694 -37.497597 7.345149
v 34.730865 -1.530092 7.460664
v -18.327539 -37.318436 7.460661
v 34.624939 -1.373055 7.616118
v -18.433462 -37.161400 7.616115
v 34.538010 -1.244179 7.805539
v -18.520391 -37.032524 7.805536
v 34.473419 -1.148415 8.021647
v -18.584986 -36.936760 8.021645
v 34.433640 -1.089443 8.256139
v -18.624762 -36.877789 8.256136
v 34.420212 -1.069530 8.500001
v -18.638193 -36.857876 8.499999
v 34.433640 -1.089443 8.743864
v -18.624762 -36.877789 8.743861
v 34.473419 -1.148415 8.978355
v -18.584986 -36.936760 8.978353
v 34.538010 -1.244179 9.194464
v -18.520391 -37.032524 9.194462
v 34.624939 -1.373055 9.383884
v -18.433462 -37.161400 9.383883
v 34.730865 -1.530092 9.539338
v -18.327539 -37.318436 9.539335
v 34.851707 -1.709253 9.654851
v -18.206694 -37.497597 9.654848
v 34.982834 -1.903656 9.725983
v -18.075567 -37.692001 9.725980
v 8.590000 -20.000000 9.750000
v 8.726366 -20.202171 9.725982
v 8.857492 -20.396574 9.654849
v 8.978339 -20.575735 9.539337
v 9.084262 -20.732773 9.383883
v 9.171190 -20.861649 9.194463
v 9.235784 -20.957413 8.978354
v 9.275560 -21.016384 8.743863
v 9.288991 -21.036297 8.500000
v 9.275560 -21.016384 8.256137
v 9.235784 -20.957413 8.021646
v 9.171190 -20.861649 7.805537
v 9.084262 -20.732773 7.616117
v 8.978339 -20.575735 7.460663
v 8.857492 -20.396574 7.345150
v 8.726367 -20.202171 7.274018
v 8.590000 -20.000000 7.250000
v 8.453634 -19.797829 7.274018
v 8.322508 -19.603426 7.345150
v 8.201661 -19.424265 7.460663
v 8.095738 -19.267227 7.616117
v 8.008810 -19.138351 7.805537
v 7.944217 -19.042587 8.021646
v 7.904440 -18.983616 8.256137
v 7.891009 -18.963703 8.500000
v 7.904440 -18.983616 8.743863
v 7.944217 -19.042587 8.978354
v 8.008810 -19.138351 9.194463
v 8.095738 -19.267227 9.383883
v 8.201661 -19.424265 9.539337
v 8.322508 -19.603426 9.654849
v 8.453633 -19.797829 9.725982
v 21.990967 -11.255085 9.725983
v 22.122093 -11.449488 9.654850
v 22.242939 -11.628650 9.539338
v 22.348862 -11.785686 9.383884
v 22.435791 -11.914563 9.194464
v 22.500385 -12.010327 8.978355
v 22.540161 -12.069298 8.743864
v 22.553593 -12.089211 8.500001
v 22.540161 -12.069298 8.256138
v 22.500385 -12.010327 8.021646
v 22.435791 -11.914563 7.805538
v 22.348862 -11.785686 7.616117
v 22.242939 -11.628650 7.460664
v 22.122093 -11.449488 7.345151
v 21.990967 -11.255085 7.274019
v 21.854601 -11.052914 7.250001
v 21.718235 -10.850742 7.274019
v 21.587109 -10.656340 7.345151
v 21.466263 -10.477178 7.460664
v 21.360340 -10.320141 7.616117
v 21.273411 -10.191264 7.805538
v 21.208817 -10.095500 8.021646
v 21.169041 -10.036529 8.256138
v 21.155609 -10.016617 8.500001
v 21.169041 -10.036529 8.743864
v 21.208817 -10.095500 8.978355
v 21.273411 -10.191264 9.194464
v 21.360340 -10.320141 9.383884
v 21.466263 -10.477178 9.539338
v 21.587109 -10.656340 9.654850
v 21.718235 -10.850742 9.725983
v 21.854601 -11.052914 9.750001
v -4.674601 -28.947086 9.749999
v -4.538235 -29.149258 9.725981
v -4.407108 -29.343660 9.654849
v -4.286262 -29.522823 9.539336
v -4.180339 -29.679859 9.383883
v -4.093410 -29.808735 9.194462
v -4.028817 -29.904499 8.978354
v -3.989040 -29.963470 8.743862
v -3.975610 -29.983383 8.499999
v -3.989040 -29.963470 8.256136
v -4.028817 -29.904499 8.021645
v -4.093410 -29.808735 7.805536
v -4.180339 -29.679859 7.616116
v -4.286262 -29.522823 7.460662
v -4.407108 -29.343660 7.345150
v -4.538234 -29.149258 7.274018
v -4.674601 -28.947086 7.249999
v -4.810966 -28.744915 7.274018
v -4.942093 -28.550512 7.345150
v -5.062940 -28.371349 7.460662
v -5.168862 -28.214314 7.616116
v -5.255791 -28.085438 7.805536
v -5.320384 -27.989674 8.021645
v -5.360161 -27.930702 8.256136
v -5.373591 -27.910789 8.499999
v -5.360161 -27.930702 8.743862
v -5.320384 -27.989674 8.978354
v -5.255791 -28.085438 9.194462
v -5.168862 -28.214314 9.383883
v -5.062940 -28.371349 9.539336
v -4.942093 -28.550512 9.654849
v -4.810967 -28.744915 9.725981
v -11.306900 -33.420631 9.749999
v -11.170534 -33.622803 9.725981
v -11.039408 -33.817204 9.654848
v -10.918562 -33.996365 9.539336
v -10.812639 -34.153404 9.383883
v -10.725710 -34.282280 9.194462
v -10.661116 -34.378044 8.978354
v -10.621340 -34.437016 8.743862
v -10.607908 -34.456924 8.499999
v -10.621340 -34.437016 8.256136
v -10.661116 -34.378044 8.021645
v -10.725710 -34.282280 7.805536
v -10.812639 -34.153404 7.616116
v -10.918562 -33.996365 7.460662
v -11.039408 -33.817204 7.345150
v -11.170534 -33.622803 7.274017
v -11.306900 -33.420631 7.249999
v -11.443266 -33.218460 7.274017
v -11.574392 -33.024055 7.345150
v -11.695238 -32.844894 7.460662
v -11.801161 -32.687859 7.616116
v -11.888090 -32.558979 7.805536
v -11.952684 -32.463215 8.021645
v -11.992460 -32.404243 8.256136
v -12.005892 -32.384331 8.499999
v -11.992460 -32.404243 8.743862
v -11.952684 -32.463215 8.978354
v -11.888090 -32.558979 9.194462
v -11.801161 -32.687859 9.383883
v -11.695238 -32.844894 9.539336
v -11.574392 -33.024055 9.654848
v -11.443266 -33.218460 9.725981
v 2.094066 -24.675714 9.725981
v 2.225192 -24.870117 9.654849
v 2.346038 -25.049278 9.539337
v 2.451961 -25.206316 9.383883
v 2.538890 -25.335194 9.194463
v 2.603483 -25.430958 8.978354
v 2.643260 -25.489927 8.743862
v 2.656691 -25.509840 8.500000
v 2.643260 -25.489927 8.256137
v 2.603483 -25.430958 8.021646
v 2.538890 -25.335194 7.805537
v 2.451961 -25.206316 7.616116
v 2.346038 -25.049278 7.460663
v 2.225192 -24.870117 7.345150
v 2.094066 -24.675714 7.274018
v 1.957700 -24.473543 7.250000
v 1.821333 -24.271372 7.274018
v 1.690207 -24.076969 7.345150
v 1.569361 -23.897808 7.460663
v 1.463439 -23.740770 7.616116
v 1.376510 -23.611893 7.805537
v 1.311916 -23.516129 8.021646
v 1.272140 -23.457159 8.256137
v 1.258708 -23.437246 8.500000
v 1.272140 -23.457159 8.743862
v 1.311916 -23.516129 8.978354
v 1.376510 -23.611893 9.194463
v 1.463439 -23.740770 9.383883
v 1.569361 -23.897808 9.539337
v 1.690207 -24.076969 9.654849
v 1.821333 -24.271372 9.725981
v 1.957700 -24.473543 9.750000
v 15.222301 -15.526457 9.750000
v 15.358667 -15.728628 9.725982
v 15.489793 -15.923031 9.654850
v 15.610640 -16.102192 9.539337
v 15.716562 -16.259230 9.383883
v 15.803491 -16.388107 9.194463
v 15.868084 -16.483871 8.978354
v 15.907861 -16.542841 8.743863
v 15.921291 -16.562754 8.500000
v 15.907861 -16.542841 8.256138
v 15.868084 -16.483871 8.021646
v 15.803491 -16.388107 7.805538
v 15.716562 -16.259230 7.616117
v 15.610640 -16.102192 7.460663
v 15.489793 -15.923031 7.345151
v 15.358667 -15.728628 7.274019
v 15.222301 -15.526457 7.250000
v 15.085934 -15.324286 7.274019
v 14.954808 -15.129883 7.345151
v 14.833961 -14.950722 7.460663
v 14.728039 -14.793684 7.616117
v 14.641110 -14.664807 7.805538
v 14.576517 -14.569043 8.021646
v 14.536740 -14.510073 8.256138
v 14.523310 -14.490160 8.500000
v 14.536740 -14.510073 8.743863
v 14.576517 -14.569043 8.978354
v 14.641110 -14.664807 9.194463
v 14.728039 -14.793684 9.383883
v 14.833961 -14.950722 9.539337
v 14.954808 -15.129883 9.654850
v 15.085934 -15.324286 9.725982
v 28.693462 -6.734195 9.725983
v 28.824589 -6.928597 9.654850
v 28.945435 -7.107759 9.539338
v 29.051357 -7.264796 9.383884
v 29.138287 -7.393673 9.194464
v 29.202881 -7.489437 8.978355
v 29.242657 -7.548409 8.743864
v 29.256088 -7.568320 8.500001
v 29.242657 -7.548409 8.256138
v 29.202881 -7.489437 8.021646
v 29.138287 -7.393673 7.805538
v 29.051357 -7.264796 7.616117
v 28.945435 -7.107759 7.460664
v 28.824589 -6.928597 7.345152
v 28.693462 -6.734195 7.274019
v 28.557096 -6.532023 7.250001
v 28.420731 -6.329852 7.274019
v 28.289604 -6.135449 7.345152
v 28.168758 -5.956287 7.460664
v 28.062836 -5.799251 7.616117
v 27.975906 -5.670374 7.805538
v 27.911312 -5.574610 8.021646
v 27.871536 -5.515638 8.256138
v 27.858105 -5.495727 8.500001
v 27.871536 -5.515638 8.743864
v 27.911312 -5.574610 8.978355
v 27.975906 -5.670374 9.194464
v 28.062836 -5.799251 9.383884
v 28.168758 -5.956287 9.539338
v 28.289604 -6.135449 9.654850
v 28.420731 -6.329852 9.725983
v 28.557096 -6.532023 9.750001
vn 0.0548 -0.0813 0.9952
vn 0.1623 -0.2407 0.9569
vn 0.2636 -0.3908 0.8819
vn 0.3547 -0.5259 0.7730
vn 0.4323 -0.6409 0.6344
vn 0.4932 -0.7311 0.4714
vn 0.5351 -0.7933 0.2903
vn 0.5565 -0.8250 0.0980
vn 0.5565 -0.8250 -0.0980
vn 0.5351 -0.7933 -0.2903
vn 0.4932 -0.7311 -0.4714
vn 0.4323 -0.6409 -0.6344
vn 0.3547 -0.5259 -0.7730
vn 0.2636 -0.3908 -0.8819
vn 0.1623 -0.2407 -0.9569
vn 0.0548 -0.0813 -0.9952
vn -0.0548 0.0813 -0.9952
vn -0.1623 0.2407 -0.9569
vn -0.2636 0.3908 -0.8819
vn -0.3547 0.5259 -0.7730
vn -0.4323 0.6409 -0.6344
vn -0.4932 0.7311 -0.4714
vn -0.5351 0.7933 -0.2903
vn -0.5565 0.8250 -0.0980
vn -0.5565 0.8250 0.0980
vn -0.5351 0.7933 0.2903
vn -0.4932 0.7311 0.4714
vn -0.4323 0.6409 0.6344
vn -0.3547 0.5259 0.7730
vn -0.2636 0.3908 0.8819
vn -0.8290 -0.5592 -0.0000
vn -0.1623 0.2407 0.9569
vn -0.0548 0.0813 0.9952
vn 0.8290 0.5592 -0.0000
vn 0.8291 0.5592 -0.0000
vt 0.017279 0.864919
vt 0.076721 0.857083
vt 0.076721 0.864919
vt 0.017279 0.857083
vt 0.076721 0.847867
vt 0.017279 0.847867
vt 0.076721 0.837628
vt 0.017279 0.837628
vt 0.076721 0.826759
vt 0.017279 0.826759
vt 0.076721 0.815676
vt 0.017279 0.815676
vt 0.076721 0.804806
vt 0.017279 0.804806
vt 0.076721 0.794567
vt 0.017279 0.794567
vt 0.076721 0.785352
vt 0.492812 0.864919
vt 0.552253 0.857083
vt 0.552253 0.864919
vt 0.492812 0.857083
vt 0.552253 0.847867
vt 0.492812 0.847867
vt 0.552253 0.837628
vt 0.492812 0.837628
vt 0.552253 0.826759
vt 0.492812 0.826759
vt 0.552253 0.815676
vt 0.492812 0.815676
vt 0.552253 0.804806
vt 0.492812 0.804806
vt 0.552253 0.794567
vt 0.492812 0.794567
vt 0.552253 0.785352
vt 0.017279 0.785352
vt 0.076721 0.777515
vt 0.017279 0.777515
vt 0.076721 0.768300
vt 0.017279 0.768300
vt 0.076721 0.758061
vt 0.017279 0.758061
vt 0.076721 0.747191
vt 0.017279 0.747191
vt 0.076721 0.736109
vt 0.017279 0.736109
vt 0.076721 0.725239
vt 0.017279 0.725239
vt 0.076721 0.715000
vt 0.017279 0.715000
vt 0.076721 0.705784
vt 0.492812 0.785352
vt 0.552253 0.777515
vt 0.492812 0.777515
vt 0.552253 0.768300
vt 0.492812 0.768300
vt 0.552253 0.758061
vt 0.492812 0.758061
vt 0.552253 0.747191
vt 0.492812 0.747191
vt 0.552253 0.736109
vt 0.492812 0.736109
vt 0.552253 0.725239
vt 0.371456 0.095874
vt 0.415016 0.239474
vt 0.271416 0.283035
vt 0.492812 0.725239
vt 0.552253 0.715000
vt 0.492812 0.715000
vt 0.552253 0.705784
vt 0.164875 0.119348
vt 0.177928 0.251876
vt 0.045401 0.264928
vt 0.730579 0.715000
vt 0.790020 0.705785
vt 0.790020 0.715000
vt 0.730579 0.725239
vt 0.790020 0.725239
vt 0.730579 0.736109
vt 0.790020 0.736109
vt 0.730579 0.747191
vt 0.790020 0.747191
vt 0.730579 0.758061
vt 0.790020 0.758061
vt 0.730579 0.768300
vt 0.790020 0.768300
vt 0.730579 0.777515
vt 0.790020 0.777515
vt 0.730579 0.785352
vt 0.790020 0.785352
vt 0.255046 0.715000
vt 0.314487 0.705784
vt 0.314487 0.715000
vt 0.255046 0.725239
vt 0.314487 0.725239
vt 0.255046 0.736109
vt 0.314487 0.736109
vt 0.255046 0.747191
vt 0.314487 0.747191
vt 0.255046 0.758061
vt 0.314487 0.758061
vt 0.255046 0.768300
vt 0.314487 0.768300
vt 0.255046 0.777515
vt 0.314487 0.777515
vt 0.255046 0.785352
vt 0.314487 0.785352
vt 0.730579 0.794567
vt 0.790020 0.794567
vt 0.730579 0.804806
vt 0.790020 0.804806
vt 0.730579 0.815676
vt 0.790020 0.815676
vt 0.730579 0.826759
vt 0.790020 0.826759
vt 0.730579 0.837628
vt 0.790020 0.837628
vt 0.730579 0.847867
vt 0.790020 0.847868
vt 0.730579 0.857083
vt 0.790020 0.857083
vt 0.730579 0.864919
vt 0.790020 0.864919
vt 0.255046 0.794567
vt 0.314487 0.794567
vt 0.255046 0.804806
vt 0.314487 0.804806
vt 0.255046 0.815676
vt 0.314487 0.815676
vt 0.255046 0.826759
vt 0.314487 0.826759
vt 0.255046 0.837628
vt 0.314487 0.837628
vt 0.255046 0.847867
vt 0.314487 0.847867
vt 0.255046 0.857083
vt 0.314487 0.857083
vt 0.255046 0.864919
vt 0.314487 0.864919
vt 0.373929 0.864919
vt 0.434000 0.857083
vt 0.434000 0.864919
vt 0.373929 0.857083
vt 0.434000 0.847867
vt 0.373929 0.847867
vt 0.434000 0.837628
vt 0.373929 0.837628
vt 0.434000 0.826759
vt 0.373929 0.826759
vt 0.434000 0.815676
vt 0.373929 0.815676
vt 0.434000 0.804806
vt 0.373929 0.804806
vt 0.434000 0.794567
vt 0.373929 0.794567
vt 0.434000 0.785352
vt 0.849462 0.864919
vt 0.909533 0.857083
vt 0.909533 0.864919
vt 0.849462 0.857083
vt 0.909533 0.847867
vt 0.849462 0.847867
vt 0.909533 0.837628
vt 0.849462 0.837628
vt 0.909533 0.826759
vt 0.849462 0.826759
vt 0.909533 0.815676
vt 0.849462 0.815676
vt 0.909533 0.804806
vt 0.849462 0.804806
vt 0.909533 0.794567
vt 0.849462 0.794567
vt 0.909533 0.785352
vt 0.373929 0.785352
vt 0.434000 0.777515
vt 0.373929 0.777515
vt 0.434000 0.768300
vt 0.373929 0.768300
vt 0.434000 0.758061
vt 0.373929 0.758061
vt 0.434000 0.747191
vt 0.373929 0.747191
vt 0.434000 0.736109
vt 0.373929 0.736109
vt 0.434000 0.725239
vt 0.373929 0.725239
vt 0.434000 0.715000
vt 0.373929 0.715000
vt 0.434000 0.705784
vt 0.849462 0.785352
vt 0.909533 0.777515
vt 0.849462 0.777515
vt 0.909533 0.768300
vt 0.849462 0.768300
vt 0.909533 0.758061
vt 0.849462 0.758061
vt 0.909533 0.747191
vt 0.849462 0.747191
vt 0.909533 0.736109
vt 0.849462 0.736109
vt 0.909533 0.725239
vt 0.849462 0.725239
vt 0.909533 0.715000
vt 0.849462 0.715000
vt 0.909533 0.705785
vt 0.611696 0.715000
vt 0.671137 0.705785
vt 0.671137 0.715000
vt 0.611696 0.725239
vt 0.671137 0.725239
vt 0.611696 0.736109
vt 0.671137 0.736109
vt 0.611696 0.747191
vt 0.671137 0.747191
vt 0.611696 0.758061
vt 0.671137 0.758061
vt 0.611696 0.768300
vt 0.671137 0.768300
vt 0.611696 0.777515
vt 0.671137 0.777515
vt 0.611696 0.785352
vt 0.671137 0.785352
vt 0.136163 0.715000
vt 0.195604 0.705784
vt 0.195604 0.715000
vt 0.136162 0.725239
vt 0.195604 0.725239
vt 0.136163 0.736109
vt 0.195604 0.736109
vt 0.136162 0.747191
vt 0.195604 0.747191
vt 0.136162 0.758061
vt 0.195604 0.758061
vt 0.136162 0.768300
vt 0.195604 0.768300
vt 0.136162 0.777515
vt 0.195604 0.777515
vt 0.136162 0.785352
vt 0.195604 0.785352
vt 0.611696 0.794567
vt 0.671137 0.794567
vt 0.611696 0.804806
vt 0.671137 0.804806
vt 0.611696 0.815676
vt 0.671137 0.815676
vt 0.611696 0.826759
vt 0.671137 0.826759
vt 0.611696 0.837628
vt 0.671137 0.837628
vt 0.611696 0.847867
vt 0.671137 0.847867
vt 0.611696 0.857083
vt 0.671137 0.857083
vt 0.611696 0.864919
vt 0.671137 0.864919
vt 0.136162 0.794567
vt 0.195604 0.794567
vt 0.136162 0.804806
vt 0.195604 0.804806
vt 0.136163 0.815676
vt 0.195604 0.815676
vt 0.136162 0.826759
vt 0.195604 0.826759
vt 0.136162 0.837628
vt 0.195604 0.837628
vt 0.136163 0.847867
vt 0.195604 0.847867
vt 0.136162 0.857083
vt 0.195604 0.857083
vt 0.136163 0.864919
vt 0.195604 0.864919
vt 0.611696 0.705784
vt 0.136162 0.705784
vt 0.255046 0.705784
vt 0.730579 0.705785
vt 0.373929 0.705784
vt 0.849462 0.705785
vt 0.968345 0.705785
vt 0.968345 0.715000
vt 0.968345 0.725239
vt 0.968345 0.736109
vt 0.968345 0.747191
vt 0.968345 0.758061
vt 0.968345 0.768300
vt 0.968345 0.777515
vt 0.968345 0.785352
vt 0.492812 0.705784
vt 0.968345 0.794567
vt 0.968345 0.804806
vt 0.968345 0.815676
vt 0.968345 0.826759
vt 0.968345 0.837628
vt 0.968345 0.847867
vt 0.968345 0.857083
vt 0.968345 0.864919
vt 0.492812 0.804806
vt 0.017279 0.705785
vt 0.254121 0.271478
vt 0.239412 0.256770
vt 0.227856 0.239474
vt 0.219895 0.220256
vt 0.215837 0.199855
vt 0.215837 0.179054
vt 0.219895 0.158652
vt 0.227856 0.139435
vt 0.239412 0.122139
vt 0.254121 0.107430
vt 0.271416 0.095874
vt 0.290634 0.087914
vt 0.311035 0.083856
vt 0.331836 0.083856
vt 0.352238 0.087914
vt 0.388751 0.107430
vt 0.422977 0.158652
vt 0.403460 0.122139
vt 0.415016 0.139435
vt 0.427035 0.179054
vt 0.427035 0.199855
vt 0.422977 0.220256
vt 0.403460 0.256770
vt 0.352238 0.290995
vt 0.388751 0.271478
vt 0.371456 0.283035
vt 0.331836 0.295053
vt 0.311035 0.295053
vt 0.290634 0.290995
vt 0.032348 0.251876
vt 0.022092 0.236527
vt 0.015028 0.219473
vt 0.011427 0.201368
vt 0.011427 0.182908
vt 0.015028 0.164804
vt 0.022092 0.147749
vt 0.032348 0.132401
vt 0.045401 0.119348
vt 0.060749 0.109092
vt 0.077804 0.102028
vt 0.095908 0.098427
vt 0.114368 0.098427
vt 0.132473 0.102028
vt 0.149527 0.109092
vt 0.177928 0.132401
vt 0.188184 0.147749
vt 0.195248 0.164804
vt 0.198849 0.182908
vt 0.198849 0.201368
vt 0.195248 0.219473
vt 0.188184 0.236527
vt 0.164875 0.264928
vt 0.149527 0.275184
vt 0.132473 0.282248
vt 0.114368 0.285849
vt 0.095908 0.285849
vt 0.077804 0.282248
vt 0.060749 0.275184
s 0
g off
f 2/1/1 162/2/1 161/3/1
f 4/4/2 163/5/2 162/2/2
f 6/6/3 164/7/3 163/5/3
f 8/8/4 165/9/4 164/7/4
f 10/10/5 166/11/5 165/9/5
f 12/12/6 167/13/6 166/11/6
f 14/14/7 168/15/7 167/13/7
f 16/16/8 169/17/8 168/15/8
f 18/18/9 170/19/9 169/20/9
f 20/21/10 171/22/10 170/19/10
f 22/23/11 172/24/11 171/22/11
f 24/25/12 173/26/12 172/24/12
f 26/27/13 174/28/13 173/26/13
f 28/29/14 175/30/14 174/28/14
f 30/31/15 176/32/15 175/30/15
f 32/33/16 177/34/16 176/32/16
f 34/35/17 178/36/17 177/17/17
f 36/37/18 179/38/18 178/36/18
f 38/39/19 180/40/19 179/38/19
f 40/41/20 181/42/20 180/40/20
f 42/43/21 182/44/21 181/42/21
f 44/45/22 183/46/22 182/44/22
f 46/47/23 184/48/23 183/46/23
f 48/49/24 185/50/24 184/48/24
f 50/51/25 186/52/25 185/34/25
f 52/53/26 187/54/26 186/52/26
f 54/55/27 188/56/27 187/54/27
f 56/57/28 189/58/28 188/56/28
f 58/59/29 190/60/29 189/58/29
f 60/61/30 191/62/30 190/60/30
f 38/63/31 22/64/31 6/65/31
f 62/66/32 192/67/32 191/62/32
f 64/68/33 161/69/33 192/67/33
f 31/70/34 47/71/34 63/72/34
f 96/73/33 225/74/33 256/75/33
f 95/76/32 256/75/32 255/77/32
f 94/78/30 255/77/30 254/79/30
f 93/80/29 254/79/29 253/81/29
f 92/82/28 253/81/28 252/83/28
f 91/84/27 252/83/27 251/85/27
f 90/86/26 251/85/26 250/87/26
f 89/88/25 250/87/25 249/89/25
f 88/90/24 249/91/24 248/92/24
f 87/93/23 248/92/23 247/94/23
f 86/95/22 247/94/22 246/96/22
f 85/97/21 246/96/21 245/98/21
f 84/99/20 245/98/20 244/100/20
f 83/101/19 244/100/19 243/102/19
f 82/103/18 243/102/18 242/104/18
f 81/105/17 242/104/17 241/106/17
f 80/107/16 241/89/16 240/108/16
f 79/109/15 240/108/15 239/110/15
f 78/111/14 239/110/14 238/112/14
f 77/113/13 238/112/13 237/114/13
f 76/115/12 237/114/12 236/116/12
f 75/117/11 236/116/11 235/118/11
f 74/119/10 235/118/10 234/120/10
f 73/121/9 234/120/9 233/122/9
f 72/123/8 233/106/8 232/124/8
f 71/125/7 232/124/7 231/126/7
f 70/127/6 231/126/6 230/128/6
f 69/129/5 230/128/5 229/130/5
f 68/131/4 229/130/4 228/132/4
f 67/133/3 228/132/3 227/134/3
f 66/135/2 227/134/2 226/136/2
f 65/137/1 226/136/1 225/138/1
f 128/139/1 257/140/1 288/141/1
f 97/142/2 258/143/2 257/140/2
f 98/144/3 259/145/3 258/143/3
f 99/146/4 260/147/4 259/145/4
f 100/148/5 261/149/5 260/147/5
f 101/150/6 262/151/6 261/149/6
f 102/152/7 263/153/7 262/151/7
f 103/154/8 264/155/8 263/153/8
f 104/156/9 265/157/9 264/158/9
f 105/159/10 266/160/10 265/157/10
f 106/161/11 267/162/11 266/160/11
f 107/163/12 268/164/12 267/162/12
f 108/165/13 269/166/13 268/164/13
f 109/167/14 270/168/14 269/166/14
f 110/169/15 271/170/15 270/168/15
f 111/171/16 272/172/16 271/170/16
f 112/173/17 273/174/17 272/155/17
f 113/175/18 274/176/18 273/174/18
f 114/177/19 275/178/19 274/176/19
f 115/179/20 276/180/20 275/178/20
f 116/181/21 277/182/21 276/180/21
f 117/183/22 278/184/22 277/182/22
f 118/185/23 279/186/23 278/184/23
f 119/187/24 280/188/24 279/186/24
f 120/189/25 281/190/25 280/172/25
f 121/191/26 282/192/26 281/190/26
f 122/193/27 283/194/27 282/192/27
f 123/195/28 284/196/28 283/194/28
f 124/197/29 285/198/29 284/196/29
f 125/199/30 286/200/30 285/198/30
f 126/201/32 287/202/32 286/200/32
f 127/203/33 288/204/33 287/202/33
f 160/205/33 224/206/33 223/207/33
f 159/208/32 223/207/32 222/209/32
f 158/210/30 222/209/30 221/211/30
f 157/212/29 221/211/29 220/213/29
f 156/214/28 220/213/28 219/215/28
f 155/216/27 219/215/27 218/217/27
f 154/218/26 218/217/26 217/219/26
f 153/220/25 217/219/25 216/221/25
f 152/222/24 216/223/24 215/224/24
f 151/225/23 215/224/23 214/226/23
f 150/227/22 214/226/22 213/228/22
f 149/229/21 213/228/21 212/230/21
f 148/231/20 212/230/20 211/232/20
f 147/233/19 211/232/19 210/234/19
f 146/235/18 210/234/18 209/236/18
f 145/237/17 209/236/17 208/238/17
f 144/239/16 208/221/16 207/240/16
f 143/241/15 207/240/15 206/242/15
f 142/243/14 206/242/14 205/244/14
f 141/245/13 205/244/13 204/246/13
f 140/247/12 204/246/12 203/248/12
f 139/249/11 203/248/11 202/250/11
f 138/251/10 202/250/10 201/252/10
f 137/253/9 201/252/9 200/254/9
f 136/255/8 200/238/8 199/256/8
f 135/257/7 199/256/7 198/258/7
f 134/259/6 198/258/6 197/260/6
f 133/261/5 197/260/5 196/262/5
f 132/263/4 196/262/4 195/264/4
f 131/265/3 195/264/3 194/266/3
f 130/267/2 194/266/2 193/268/2
f 129/269/1 193/268/1 224/270/1
f 192/67/33 129/271/33 160/205/33
f 191/62/32 160/205/32 159/208/32
f 190/60/30 159/208/30 158/210/30
f 189/58/29 158/210/29 157/212/29
f 188/56/28 157/212/28 156/214/28
f 187/54/27 156/214/27 155/216/27
f 186/52/26 155/216/26 154/218/26
f 185/34/25 154/218/25 153/220/25
f 184/48/24 153/272/24 152/222/24
f 183/46/23 152/222/23 151/225/23
f 182/44/22 151/225/22 150/227/22
f 181/42/21 150/227/21 149/229/21
f 180/40/20 149/229/20 148/231/20
f 179/38/19 148/231/19 147/233/19
f 178/36/18 147/233/18 146/235/18
f 177/17/17 146/235/17 145/237/17
f 176/32/16 145/220/16 144/239/16
f 175/30/15 144/239/15 143/241/15
f 174/28/14 143/241/14 142/243/14
f 173/26/13 142/243/13 141/245/13
f 172/24/12 141/245/12 140/247/12
f 171/22/11 140/247/11 139/249/11
f 170/19/10 139/249/10 138/251/10
f 169/20/9 138/251/9 137/253/9
f 168/15/8 137/237/8 136/255/8
f 167/13/7 136/255/7 135/257/7
f 166/11/6 135/257/6 134/259/6
f 165/9/5 134/259/5 133/261/5
f 164/7/4 133/261/4 132/263/4
f 163/5/3 132/263/3 131/265/3
f 162/2/2 131/265/2 130/267/2
f 161/3/1 130/267/1 129/269/1
f 224/270/1 66/135/1 65/137/1
f 193/268/2 67/133/2 66/135/2
f 194/266/3 68/131/3 67/133/3
f 195/264/4 69/129/4 68/131/4
f 196/262/5 70/127/5 69/129/5
f 197/260/6 71/125/6 70/127/6
f 198/258/7 72/123/7 71/125/7
f 199/256/8 73/105/8 72/123/8
f 200/254/9 74/119/9 73/121/9
f 201/252/10 75/117/10 74/119/10
f 202/250/11 76/115/11 75/117/11
f 203/248/12 77/113/12 76/115/12
f 204/246/13 78/111/13 77/113/13
f 205/244/14 79/109/14 78/111/14
f 206/242/15 80/107/15 79/109/15
f 207/240/16 81/88/16 80/107/16
f 208/238/17 82/103/17 81/105/17
f 209/236/18 83/101/18 82/103/18
f 210/234/19 84/99/19 83/101/19
f 211/232/20 85/97/20 84/99/20
f 212/230/21 86/95/21 85/97/21
f 213/228/22 87/93/22 86/95/22
f 214/226/23 88/90/23 87/93/23
f 215/224/24 89/273/24 88/90/24
f 216/221/25 90/86/25 89/88/25
f 217/219/26 91/84/26 90/86/26
f 218/217/27 92/82/27 91/84/27
f 219/215/28 93/80/28 92/82/28
f 220/213/29 94/78/29 93/80/29
f 221/211/30 95/76/30 94/78/30
f 222/209/32 96/73/32 95/76/32
f 223/207/33 65/274/33 96/73/33
f 225/138/1 97/142/1 128/139/1
f 226/136/2 98/144/2 97/142/2
f 227/134/3 99/146/3 98/144/3
f 228/132/4 100/148/4 99/146/4
f 229/130/5 101/150/5 100/148/5
f 230/128/6 102/152/6 101/150/6
f 231/126/7 103/154/7 102/152/7
f 232/124/8 104/173/8 103/154/8
f 233/122/9 105/159/9 104/156/9
f 234/120/10 106/161/10 105/159/10
f 235/118/11 107/163/11 106/161/11
f 236/116/12 108/165/12 107/163/12
f 237/114/13 109/167/13 108/165/13
f 238/112/14 110/169/14 109/167/14
f 239/110/15 111/171/15 110/169/15
f 240/108/16 112/189/16 111/171/16
f 241/106/17 113/175/17 112/173/17
f 242/104/18 114/177/18 113/175/18
f 243/102/19 115/179/19 114/177/19
f 244/100/20 116/181/20 115/179/20
f 245/98/21 117/183/21 116/181/21
f 246/96/22 118/185/22 117/183/22
f 247/94/23 119/187/23 118/185/23
f 248/92/24 120/275/24 119/187/24
f 249/89/25 121/191/25 120/189/25
f 250/87/26 122/193/26 121/191/26
f 251/85/27 123/195/27 122/193/27
f 252/83/28 124/197/28 123/195/28
f 253/81/29 125/199/29 124/197/29
f 254/79/30 126/201/30 125/199/30
f 255/77/32 127/203/32 126/201/32
f 256/75/33 128/276/33 127/203/33
f 287/202/33 1/277/33 63/278/33
f 286/200/32 63/278/32 61/279/32
f 285/198/30 61/279/30 59/280/30
f 284/196/29 59/280/29 57/281/29
f 283/194/28 57/281/28 55/282/28
f 282/192/27 55/282/27 53/283/27
f 281/190/26 53/283/26 51/284/26
f 280/172/25 51/284/25 49/285/25
f 279/186/24 49/286/24 47/68/24
f 278/184/23 47/68/23 45/66/23
f 277/182/22 45/66/22 43/61/22
f 276/180/21 43/61/21 41/59/21
f 275/178/20 41/59/20 39/57/20
f 274/176/19 39/57/19 37/55/19
f 273/174/18 37/55/18 35/53/18
f 272/155/17 35/53/17 33/51/17
f 271/170/16 33/285/16 31/287/16
f 270/168/15 31/287/15 29/288/15
f 269/166/14 29/288/14 27/289/14
f 268/164/13 27/289/13 25/290/13
f 267/162/12 25/290/12 23/291/12
f 266/160/11 23/291/11 21/292/11
f 265/157/10 21/292/10 19/293/10
f 264/158/9 19/293/9 17/294/9
f 263/153/8 17/51/8 15/33/8
f 262/151/7 15/33/7 13/295/7
f 261/149/6 13/295/6 11/29/6
f 260/147/5 11/29/5 9/27/5
f 259/145/4 9/27/4 7/25/4
f 258/143/3 7/25/3 5/23/3
f 257/140/2 5/23/2 3/21/2
f 288/141/1 3/21/1 1/18/1
f 2/1/1 4/4/1 162/2/1
f 4/4/2 6/6/2 163/5/2
f 6/6/3 8/8/3 164/7/3
f 8/8/4 10/10/4 165/9/4
f 10/10/5 12/12/5 166/11/5
f 12/12/6 14/14/6 167/13/6
f 14/14/7 16/16/7 168/15/7
f 16/16/8 18/35/8 169/17/8
f 18/18/9 20/21/9 170/19/9
f 20/21/10 22/23/10 171/22/10
f 22/23/11 24/25/11 172/24/11
f 24/25/12 26/27/12 173/26/12
f 26/27/13 28/29/13 174/28/13
f 28/29/14 30/31/14 175/30/14
f 30/31/15 32/33/15 176/32/15
f 32/33/16 34/51/16 177/34/16
f 34/35/17 36/37/17 178/36/17
f 36/37/18 38/39/18 179/38/18
f 38/39/19 40/41/19 180/40/19
f 40/41/20 42/43/20 181/42/20
f 42/43/21 44/45/21 182/44/21
f 44/45/22 46/47/22 183/46/22
f 46/47/23 48/49/23 184/48/23
f 48/49/24 50/296/24 185/50/24
f 50/51/25 52/53/25 186/52/25
f 52/53/26 54/55/26 187/54/26
f 54/55/27 56/57/27 188/56/27
f 56/57/28 58/59/28 189/58/28
f 58/59/29 60/61/29 190/60/29
f 60/61/30 62/66/30 191/62/30
f 6/65/31 4/297/31 2/298/31
f 2/298/31 64/299/31 6/65/31
f 64/299/31 62/300/31 6/65/31
f 62/300/31 60/301/31 58/302/31
f 58/302/31 56/303/31 54/304/31
f 54/304/31 52/305/31 50/306/31
f 50/306/31 48/307/31 54/304/31
f 48/307/31 46/308/31 54/304/31
f 46/308/31 44/309/31 42/310/31
f 42/310/31 40/311/31 38/63/31
f 38/63/31 36/312/31 30/313/31
f 36/312/31 34/314/31 30/313/31
f 34/314/31 32/315/31 30/313/31
f 30/313/31 28/316/31 26/317/31
f 26/317/31 24/318/31 22/64/31
f 22/64/31 20/319/31 14/320/31
f 20/319/31 18/321/31 14/320/31
f 18/321/31 16/322/31 14/320/31
f 14/320/31 12/323/31 10/324/31
f 10/324/31 8/325/31 6/65/31
f 62/300/31 58/302/31 6/65/31
f 58/302/31 54/304/31 6/65/31
f 46/308/31 42/310/31 54/304/31
f 42/310/31 38/63/31 54/304/31
f 30/313/31 26/317/31 38/63/31
f 26/317/31 22/64/31 38/63/31
f 14/320/31 10/324/31 22/64/31
f 10/324/31 6/65/31 22/64/31
f 6/65/31 54/304/31 38/63/31
f 62/66/32 64/68/32 192/67/32
f 64/68/33 2/286/33 161/69/33
f 63/72/34 1/326/34 3/327/34
f 3/327/34 5/328/34 7/329/34
f 7/329/34 9/330/34 11/331/34
f 11/331/34 13/332/34 15/333/34
f 15/333/34 17/334/34 19/335/34
f 19/335/34 21/336/34 23/337/34
f 23/337/34 25/338/34 27/339/34
f 27/339/34 29/340/34 31/70/34
f 31/70/34 33/341/34 35/342/34
f 35/342/34 37/343/34 39/344/34
f 39/344/34 41/345/34 43/346/34
f 43/346/34 45/347/34 47/71/34
f 47/71/34 49/348/34 51/349/34
f 51/349/34 53/350/34 55/351/34
f 55/351/34 57/352/34 59/353/34
f 59/353/34 61/354/34 63/72/34
f 63/72/34 3/327/34 15/333/34
f 3/327/34 7/329/34 15/333/34
f 7/329/34 11/331/34 15/333/34
f 15/333/34 19/335/34 31/70/34
f 19/335/34 23/337/34 31/70/34
f 23/337/34 27/339/34 31/70/34
f 31/70/34 35/342/34 47/71/34
f 35/342/34 39/344/34 47/71/34
f 39/344/35 43/346/35 47/71/35
f 47/71/34 51/349/34 63/72/34
f 51/349/34 55/351/34 63/72/34
f 55/351/34 59/353/34 63/72/34
f 63/72/34 15/333/34 31/70/34
f 96/73/33 65/274/33 225/74/33
f 95/76/32 96/73/32 256/75/32
f 94/78/30 95/76/30 255/77/30
f 93/80/29 94/78/29 254/79/29
f 92/82/28 93/80/28 253/81/28
f 91/84/27 92/82/27 252/83/27
f 90/86/26 91/84/26 251/85/26
f 89/88/25 90/86/25 250/87/25
f 88/90/24 89/273/24 249/91/24
f 87/93/23 88/90/23 248/92/23
f 86/95/22 87/93/22 247/94/22
f 85/97/21 86/95/21 246/96/21
f 84/99/20 85/97/20 245/98/20
f 83/101/19 84/99/19 244/100/19
f 82/103/18 83/101/18 243/102/18
f 81/105/17 82/103/17 242/104/17
f 80/107/16 81/88/16 241/89/16
f 79/109/15 80/107/15 240/108/15
f 78/111/14 79/109/14 239/110/14
f 77/113/13 78/111/13 238/112/13
f 76/115/12 77/113/12 237/114/12
f 75/117/11 76/115/11 236/116/11
f 74/119/10 75/117/10 235/118/10
f 73/121/9 74/119/9 234/120/9
f 72/123/8 73/105/8 233/106/8
f 71/125/7 72/123/7 232/124/7
f 70/127/6 71/125/6 231/126/6
f 69/129/5 70/127/5 230/128/5
f 68/131/4 69/129/4 229/130/4
f 67/133/3 68/131/3 228/132/3
f 66/135/2 67/133/2 227/134/2
f 65/137/1 66/135/1 226/136/1
f 128/139/1 97/142/1 257/140/1
f 97/142/2 98/144/2 258/143/2
f 98/144/3 99/146/3 259/145/3
f 99/146/4 100/148/4 260/147/4
f 100/148/5 101/150/5 261/149/5
f 101/150/6 102/152/6 262/151/6
f 102/152/7 103/154/7 263/153/7
f 103/154/8 104/173/8 264/155/8
f 104/156/9 105/159/9 265/157/9
f 105/159/10 106/161/10 266/160/10
f 106/161/11 107/163/11 267/162/11
f 107/163/12 108/165/12 268/164/12
f 108/165/13 109/167/13 269/166/13
f 109/167/14 110/169/14 270/168/14
f 110/169/15 111/171/15 271/170/15
f 111/171/16 112/189/16 272/172/16
f 112/173/17 113/175/17 273/174/17
f 113/175/18 114/177/18 274/176/18
f 114/177/19 115/179/19 275/178/19
f 115/179/20 116/181/20 276/180/20
f 116/181/21 117/183/21 277/182/21
f 117/183/22 118/185/22 278/184/22
f 118/185/23 119/187/23 279/186/23
f 119/187/24 120/275/24 280/188/24
f 120/189/25 121/191/25 281/190/25
f 121/191/26 122/193/26 282/192/26
f 122/193/27 123/195/27 283/194/27
f 123/195/28 124/197/28 284/196/28
f 124/197/29 125/199/29 285/198/29
f 125/199/30 126/201/30 286/200/30
f 126/201/32 127/203/32 287/202/32
f 127/203/33 128/276/33 288/204/33
f 160/205/33 129/271/33 224/206/33
f 159/208/32 160/205/32 223/207/32
f 158/210/30 159/208/30 222/209/30
f 157/212/29 158/210/29 221/211/29
f 156/214/28 157/212/28 220/213/28
f 155/216/27 156/214/27 219/215/27
f 154/218/26 155/216/26 218/217/26
f 153/220/25 154/218/25 217/219/25
f 152/222/24 153/272/24 216/223/24
f 151/225/23 152/222/23 215/224/23
f 150/227/22 151/225/22 214/226/22
f 149/229/21 150/227/21 213/228/21
f 148/231/20 149/229/20 212/230/20
f 147/233/19 148/231/19 211/232/19
f 146/235/18 147/233/18 210/234/18
f 145/237/17 146/235/17 209/236/17
f 144/239/16 145/220/16 208/221/16
f 143/241/15 144/239/15 207/240/15
f 142/243/14 143/241/14 206/242/14
f 141/245/13 142/243/13 205/244/13
f 140/247/12 141/245/12 204/246/12
f 139/249/11 140/247/11 203/248/11
f 138/251/10 139/249/10 202/250/10
f 137/253/9 138/251/9 201/252/9
f 136/255/8 137/237/8 200/238/8
f 135/257/7 136/255/7 199/256/7
f 134/259/6 135/257/6 198/258/6
f 133/261/5 134/259/5 197/260/5
f 132/263/4 133/261/4 196/262/4
f 131/265/3 132/263/3 195/264/3
f 130/267/2 131/265/2 194/266/2
f 129/269/1 130/267/1 193/268/1
f 192/67/33 161/69/33 129/271/33
f 191/62/32 192/67/32 160/205/32
f 190/60/30 191/62/30 159/208/30
f 189/58/29 190/60/29 158/210/29
f 188/56/28 189/58/28 157/212/28
f 187/54/27 188/56/27 156/214/27
f 186/52/26 187/54/26 155/216/26
f 185/34/25 186/52/25 154/218/25
f 184/48/24 185/50/24 153/272/24
f 183/46/23 184/48/23 152/222/23
f 182/44/22 183/46/22 151/225/22
f 181/42/21 182/44/21 150/227/21
f 180/40/20 181/42/20 149/229/20
f 179/38/19 180/40/19 148/231/19
f 178/36/18 179/38/18 147/233/18
f 177/17/17 178/36/17 146/235/17
f 176/32/16 177/34/16 145/220/16
f 175/30/15 176/32/15 144/239/15
f 174/28/14 175/30/14 143/241/14
f 173/26/13 174/28/13 142/243/13
f 172/24/12 173/26/12 141/245/12
f 171/22/11 172/24/11 140/247/11
f 170/19/10 171/22/10 139/249/10
f 169/20/9 170/19/9 138/251/9
f 168/15/8 169/17/8 137/237/8
f 167/13/7 168/15/7 136/255/7
f 166/11/6 167/13/6 135/257/6
f 165/9/5 166/11/5 134/259/5
f 164/7/4 165/9/4 133/261/4
f 163/5/3 164/7/3 132/263/3
f 162/2/2 163/5/2 131/265/2
f 161/3/1 162/2/1 130/267/1
f 224/270/1 193/268/1 66/135/1
f 193/268/2 194/266/2 67/133/2
f 194/266/3 195/264/3 68/131/3
f 195/264/4 196/262/4 69/129/4
f 196/262/5 197/260/5 70/127/5
f 197/260/6 198/258/6 71/125/6
f 198/258/7 199/256/7 72/123/7
f 199/256/8 200/238/8 73/105/8
f 200/254/9 201/252/9 74/119/9
f 201/252/10 202/250/10 75/117/10
f 202/250/11 203/248/11 76/115/11
f 203/248/12 204/246/12 77/113/12
f 204/246/13 205/244/13 78/111/13
f 205/244/14 206/242/14 79/109/14
f 206/242/15 207/240/15 80/107/15
f 207/240/16 208/221/16 81/88/16
f 208/238/17 209/236/17 82/103/17
f 209/236/18 210/234/18 83/101/18
f 210/234/19 211/232/19 84/99/19
f 211/232/20 212/230/20 85/97/20
f 212/230/21 213/228/21 86/95/21
f 213/228/22 214/226/22 87/93/22
f 214/226/23 215/224/23 88/90/23
f 215/224/24 216/223/24 89/273/24
f 216/221/25 217/219/25 90/86/25
f 217/219/26 218/217/26 91/84/26
f 218/217/27 219/215/27 92/82/27
f 219/215/28 220/213/28 93/80/28
f 220/213/29 221/211/29 94/78/29
f 221/211/30 222/209/30 95/76/30
f 222/209/32 223/207/32 96/73/32
f 223/207/33 224/206/33 65/274/33
f 225/138/1 226/136/1 97/142/1
f 226/136/2 227/134/2 98/144/2
f 227/134/3 228/132/3 99/146/3
f 228/132/4 229/130/4 100/148/4
f 229/130/5 230/128/5 101/150/5
f 230/128/6 231/126/6 102/152/6
f 231/126/7 232/124/7 103/154/7
f 232/124/8 233/106/8 104/173/8
f 233/122/9 234/120/9 105/159/9
f 234/120/10 235/118/10 106/161/10
f 235/118/11 236/116/11 107/163/11
f 236/116/12 237/114/12 108/165/12
f 237/114/13 238/112/13 109/167/13
f 238/112/14 239/110/14 110/169/14
f 239/110/15 240/108/15 111/171/15
f 240/108/16 241/89/16 112/189/16
f 241/106/17 242/104/17 113/175/17
f 242/104/18 243/102/18 114/177/18
f 243/102/19 244/100/19 115/179/19
f 244/100/20 245/98/20 116/181/20
f 245/98/21 246/96/21 117/183/21
f 246/96/22 247/94/22 118/185/22
f 247/94/23 248/92/23 119/187/23
f 248/92/24 249/91/24 120/275/24
f 249/89/25 250/87/25 121/191/25
f 250/87/26 251/85/26 122/193/26
f 251/85/27 252/83/27 123/195/27
f 252/83/28 253/81/28 124/197/28
f 253/81/29 254/79/29 125/199/29
f 254/79/30 255/77/30 126/201/30
f 255/77/32 256/75/32 127/203/32
f 256/75/33 225/74/33 128/276/33
f 287/202/33 288/204/33 1/277/33
f 286/200/32 287/202/32 63/278/32
f 285/198/30 286/200/30 61/279/30
f 284/196/29 285/198/29 59/280/29
f 283/194/28 284/196/28 57/281/28
f 282/192/27 283/194/27 55/282/27
f 281/190/26 282/192/26 53/283/26
f 280/172/25 281/190/25 51/284/25
f 279/186/24 280/188/24 49/286/24
f 278/184/23 279/186/23 47/68/23
f 277/182/22 278/184/22 45/66/22
f 276/180/21 277/182/21 43/61/21
f 275/178/20 276/180/20 41/59/20
f 274/176/19 275/178/19 39/57/19
f 273/174/18 274/176/18 37/55/18
f 272/155/17 273/174/17 35/53/17
f 271/170/16 272/172/16 33/285/16
f 270/168/15 271/170/15 31/287/15
f 269/166/14 270/168/14 29/288/14
f 268/164/13 269/166/13 27/289/13
f 267/162/12 268/164/12 25/290/12
f 266/160/11 267/162/11 23/291/11
f 265/157/10 266/160/10 21/292/10
f 264/158/9 265/157/9 19/293/9
f 263/153/8 264/155/8 17/51/8
f 262/151/7 263/153/7 15/33/7
f 261/149/6 262/151/6 13/295/6
f 260/147/5 261/149/5 11/29/5
f 259/145/4 260/147/4 9/27/4
f 258/143/3 259/145/3 7/25/3
f 257/140/2 258/143/2 5/23/2
f 288/141/1 257/140/1 3/21/1
