# Blender 4.5.3 LTS
# www.blender.org
o C1_C3_VR_AIR
v -13.715540 34.957054 -11.590908
v -13.615604 35.124969 -11.575186
v -13.537824 35.298782 -11.528623
v -13.485188 35.471821 -11.453009
v -13.459719 35.637428 -11.351249
v -13.462396 35.789242 -11.227254
v -13.493115 35.921429 -11.085789
v -13.550697 36.028908 -10.932291
v -13.632930 36.107552 -10.772658
v -13.736651 36.154335 -10.613026
v -13.857876 36.167461 -10.459528
v -13.991945 36.146427 -10.318063
v -14.133708 36.092037 -10.194068
v -14.277716 36.006386 -10.092308
v -14.418433 35.892761 -10.016694
v -14.550454 35.755531 -9.970131
v -14.668705 35.599972 -9.954409
v -14.768641 35.432060 -9.970131
v -14.846421 35.258244 -10.016694
v -14.899057 35.085209 -10.092308
v -14.924526 34.919601 -10.194068
v -14.921849 34.767788 -10.318063
v -14.891129 34.635601 -10.459528
v -14.833548 34.528118 -10.613026
v -14.751315 34.449478 -10.772658
v -14.647593 34.402695 -10.932291
v -14.526369 34.389565 -11.085789
v -14.392300 34.410603 -11.227254
v -14.250537 34.464989 -11.351249
v -14.106529 34.550644 -11.453009
v -13.965812 34.664265 -11.528623
v -13.833791 34.801495 -11.575186
v -2.183418 27.178541 -1.818250
v -2.083482 27.346455 -1.802528
v -2.005702 27.520269 -1.755965
v -1.953065 27.693306 -1.680350
v -1.927596 27.858912 -1.578590
v -1.930273 28.010727 -1.454595
v -1.960993 28.142914 -1.313131
v -2.018575 28.250395 -1.159633
v -2.100807 28.329037 -1.000000
v -2.204529 28.375822 -0.840367
v -2.325753 28.388948 -0.686869
v -2.459823 28.367912 -0.545405
v -2.601586 28.313524 -0.421410
v -2.745593 28.227871 -0.319650
v -2.886311 28.114248 -0.244035
v -3.018332 27.977020 -0.197472
v -3.136583 27.821459 -0.181750
v -3.236518 27.653545 -0.197472
v -3.314299 27.479731 -0.244035
v -3.366935 27.306694 -0.319650
v -3.392404 27.141088 -0.421410
v -3.389727 26.989273 -0.545405
v -3.359007 26.857086 -0.686869
v -3.301425 26.749605 -0.840367
v -3.219193 26.670963 -1.000000
v -3.115472 26.624178 -1.159633
v -2.994247 26.611052 -1.313131
v -2.860177 26.632088 -1.454595
v -2.718415 26.686476 -1.578590
v -2.574407 26.772129 -1.680350
v -2.433689 26.885752 -1.755965
v -2.301668 27.022980 -1.802528
v -7.849544 31.235712 -6.688857
v -7.771763 31.409527 -6.642294
v -7.719127 31.582561 -6.566679
v -7.693658 31.748169 -6.464920
v -7.696335 31.899982 -6.340925
v -7.727055 32.032169 -6.199460
v -7.784636 32.139652 -6.045962
v -7.866869 32.218296 -5.886329
v -7.970590 32.265079 -5.726696
v -8.091815 32.278206 -5.573198
v -8.225884 32.257172 -5.431734
v -8.367647 32.202782 -5.307739
v -8.511654 32.117130 -5.205979
v -8.652372 32.003506 -5.130364
v -8.784393 31.866276 -5.083801
v -8.902644 31.710716 -5.068079
v -9.002580 31.542801 -5.083801
v -9.080360 31.368988 -5.130364
v -9.132996 31.195951 -5.205979
v -9.158465 31.030344 -5.307739
v -9.155788 30.878531 -5.431734
v -9.125069 30.746344 -5.573198
v -9.067486 30.638863 -5.726696
v -8.985254 30.560219 -5.886329
v -8.881533 30.513435 -6.045962
v -8.760308 30.500309 -6.199460
v -8.626238 30.521345 -6.340925
v -8.484476 30.575733 -6.464920
v -8.340468 30.661385 -6.566679
v -8.199751 30.775009 -6.642294
v -8.067729 30.912237 -6.688857
v -7.949479 31.067799 -6.704579
v -10.732574 33.180340 -9.132021
v -10.654793 33.354156 -9.085458
v -10.602157 33.527191 -9.009844
v -10.576688 33.692799 -8.908084
v -10.579365 33.844612 -8.784089
v -10.610085 33.976799 -8.642624
v -10.667666 34.084278 -8.489126
v -10.749899 34.162922 -8.329494
v -10.853621 34.209705 -8.169861
v -10.974845 34.222832 -8.016363
v -11.108914 34.201797 -7.874898
v -11.250677 34.147408 -7.750903
v -11.394685 34.061756 -7.649143
v -11.535402 33.948135 -7.573529
v -11.667423 33.810905 -7.526966
v -11.785674 33.655342 -7.511243
v -11.885610 33.487431 -7.526966
v -11.963390 33.313614 -7.573529
v -12.016026 33.140579 -7.649143
v -12.041495 32.974972 -7.750903
v -12.038818 32.823158 -7.874898
v -12.008099 32.690971 -8.016363
v -11.950517 32.583492 -8.169861
v -11.868284 32.504848 -8.329494
v -11.764563 32.458065 -8.489126
v -11.643338 32.444939 -8.642624
v -11.509269 32.465973 -8.784089
v -11.367506 32.520363 -8.908084
v -11.223498 32.606014 -9.009844
v -11.082781 32.719635 -9.085458
v -10.950760 32.856865 -9.132021
v -10.832509 33.012428 -9.147743
v -5.066448 29.123169 -4.261415
v -4.966513 29.291084 -4.245692
v -4.888732 29.464899 -4.199129
v -4.836096 29.637934 -4.123515
v -4.810627 29.803541 -4.021755
v -4.813304 29.955355 -3.897760
v -4.844024 30.087542 -3.756295
v -4.901606 30.195023 -3.602797
v -4.983838 30.273666 -3.443165
v -5.087559 30.320450 -3.283532
v -5.208784 30.333576 -3.130034
v -5.342854 30.312542 -2.988569
v -5.484616 30.258152 -2.864574
v -5.628624 30.172501 -2.762815
v -5.769341 30.058876 -2.687200
v -5.901362 29.921648 -2.640637
v -6.019613 29.766087 -2.624914
v -6.119549 29.598173 -2.640637
v -6.197330 29.424358 -2.687200
v -6.249966 29.251324 -2.762815
v -6.275434 29.085716 -2.864574
v -6.272758 28.933903 -2.988569
v -6.242038 28.801714 -3.130034
v -6.184455 28.694235 -3.283532
v -6.102223 28.615591 -3.443165
v -5.998502 28.568808 -3.602797
v -5.877277 28.555681 -3.756295
v -5.743208 28.576715 -3.897760
v -5.601445 28.631105 -4.021755
v -5.457438 28.716757 -4.123515
v -5.316720 28.830379 -4.199129
v -5.184699 28.967609 -4.245692
vn -0.6784 0.4576 -0.5749
vn 0.4195 -0.4012 -0.8143
vn 0.2937 -0.5483 -0.7830
vn 0.1567 -0.6743 -0.7216
vn 0.0137 -0.7744 -0.6325
vn -0.1299 -0.8448 -0.5191
vn -0.2685 -0.8827 -0.3857
vn -0.3968 -0.8867 -0.2375
vn -0.5098 -0.8566 -0.0802
vn -0.6032 -0.7935 0.0802
vn -0.6735 -0.7000 0.2375
vn -0.7178 -0.5796 0.3857
vn -0.7346 -0.4369 0.5191
vn -0.7232 -0.2774 0.6325
vn -0.6839 -0.1073 0.7216
vn -0.6184 0.0670 0.7830
vn -0.5291 0.2387 0.8143
vn -0.4195 0.4012 0.8143
vn -0.2937 0.5483 0.7830
vn -0.1567 0.6743 0.7216
vn -0.0137 0.7744 0.6325
vn 0.1299 0.8448 0.5191
vn 0.2685 0.8827 0.3857
vn 0.3968 0.8867 0.2375
vn 0.5098 0.8566 0.0802
vn 0.6032 0.7935 -0.0802
vn 0.6735 0.7000 -0.2375
vn 0.7178 0.5796 -0.3857
vn 0.7346 0.4369 -0.5191
vn 0.7232 0.2774 -0.6325
vn 0.6839 0.1073 -0.7216
vn 0.6184 -0.0670 -0.7830
vn 0.5291 -0.2387 -0.8143
vn 0.6784 -0.4576 0.5749
vn -0.6784 0.4575 -0.5749
vt 0.408378 0.055678
vt 0.443116 0.408378
vt 0.090416 0.443116
vt 0.498793 0.086235
vt 0.561444 0.040847
vt 0.561444 0.086235
vt 0.498793 0.134418
vt 0.561444 0.134418
vt 0.498793 0.183545
vt 0.561444 0.183545
vt 0.498793 0.231727
vt 0.561444 0.231727
vt 0.498793 0.277115
vt 0.561444 0.277115
vt 0.498793 0.317962
vt 0.561444 0.317962
vt 0.498793 0.352700
vt 0.561444 0.352700
vt 0.498793 0.393548
vt 0.561444 0.352700
vt 0.561444 0.393548
vt 0.498793 0.438935
vt 0.561444 0.438935
vt 0.498793 0.487118
vt 0.561444 0.487118
vt 0.498793 0.536245
vt 0.561444 0.536245
vt 0.498793 0.584428
vt 0.561444 0.584428
vt 0.498793 0.629815
vt 0.561444 0.629815
vt 0.498793 0.670662
vt 0.561444 0.670662
vt 0.498793 0.705400
vt 0.561444 0.705400
vt 0.749397 0.040847
vt 0.812047 0.000000
vt 0.812047 0.040847
vt 0.749397 0.086235
vt 0.812047 0.086235
vt 0.749397 0.134418
vt 0.812047 0.134418
vt 0.749397 0.183545
vt 0.812047 0.183545
vt 0.749397 0.231727
vt 0.812047 0.231727
vt 0.749397 0.277115
vt 0.812047 0.277115
vt 0.749397 0.317962
vt 0.812047 0.317962
vt 0.749397 0.352700
vt 0.812047 0.352700
vt 0.749397 0.393548
vt 0.812048 0.352700
vt 0.812048 0.393548
vt 0.749397 0.438935
vt 0.812048 0.438935
vt 0.749397 0.487118
vt 0.812048 0.487118
vt 0.749397 0.536245
vt 0.812048 0.536245
vt 0.749397 0.584428
vt 0.812048 0.584428
vt 0.749397 0.629815
vt 0.812047 0.629815
vt 0.749397 0.670662
vt 0.812047 0.670662
vt 0.749397 0.705400
vt 0.812047 0.705400
vt 0.498793 0.040847
vt 0.561444 -0.000000
vt 0.443116 0.589209
vt 0.408378 0.941909
vt 0.055678 0.907171
vt 0.624095 0.040847
vt 0.686746 0.000000
vt 0.686746 0.040847
vt 0.874698 0.705400
vt 0.937349 0.670662
vt 0.937349 0.705400
vt 0.874698 0.670662
vt 0.937349 0.629815
vt 0.874698 0.629815
vt 0.937349 0.584428
vt 0.874698 0.584428
vt 0.937349 0.536245
vt 0.874698 0.536245
vt 0.937349 0.487118
vt 0.874698 0.487118
vt 0.937349 0.438935
vt 0.874698 0.438935
vt 0.937349 0.393548
vt 0.874698 0.393548
vt 0.937349 0.352700
vt 0.874698 0.352700
vt 0.937349 0.317962
vt 0.937349 0.352700
vt 0.874698 0.317962
vt 0.937349 0.277115
vt 0.874698 0.277115
vt 0.937349 0.231727
vt 0.874698 0.231727
vt 0.937349 0.183545
vt 0.874698 0.183545
vt 0.937349 0.134418
vt 0.874698 0.134418
vt 0.937349 0.086235
vt 0.874698 0.086235
vt 0.937349 0.040847
vt 0.874698 0.040847
vt 0.937349 0.000000
vt 0.624095 0.705400
vt 0.686746 0.670662
vt 0.686746 0.705400
vt 0.624095 0.670662
vt 0.686746 0.629815
vt 0.624095 0.629815
vt 0.686746 0.584428
vt 0.624095 0.584428
vt 0.686746 0.536245
vt 0.624095 0.536245
vt 0.686746 0.487118
vt 0.624095 0.487118
vt 0.686746 0.438935
vt 0.624095 0.438935
vt 0.686746 0.393548
vt 0.624095 0.393548
vt 0.686746 0.352700
vt 0.624095 0.352700
vt 0.686746 0.317962
vt 0.686746 0.352700
vt 0.624095 0.317962
vt 0.686746 0.277115
vt 0.624095 0.277115
vt 0.686746 0.231727
vt 0.624095 0.231727
vt 0.686746 0.183545
vt 0.624095 0.183545
vt 0.686746 0.134418
vt 0.624095 0.134418
vt 0.686746 0.086235
vt 0.624095 0.086235
vt 0.749397 0.040847
vt 0.749397 0.086235
vt 0.749397 0.134418
vt 0.749397 0.183545
vt 0.749397 0.231727
vt 0.749397 0.277115
vt 0.749397 0.352700
vt 0.749397 0.438935
vt 0.749397 0.487118
vt 0.749397 0.536245
vt 0.749397 0.584428
vt 0.749397 0.629815
vt 0.749397 0.670662
vt 0.749397 0.705400
vt 1.000000 0.000000
vt 1.000000 0.040847
vt 1.000000 0.086235
vt 1.000000 0.134418
vt 1.000000 0.183545
vt 1.000000 0.231727
vt 1.000000 0.277115
vt 1.000000 0.317962
vt 1.000000 0.352700
vt 1.000000 0.352700
vt 1.000000 0.393548
vt 1.000000 0.438935
vt 1.000000 0.487118
vt 1.000000 0.536245
vt 1.000000 0.584428
vt 1.000000 0.629815
vt 1.000000 0.670662
vt 1.000000 0.705400
vt 0.749397 0.000000
vt 0.624095 0.000000
vt 0.874698 0.352700
vt 0.874698 0.000000
vt 0.624095 0.352700
vt 0.055678 0.408378
vt 0.028384 0.367530
vt 0.009584 0.322143
vt -0.000000 0.273960
vt 0.000000 0.224833
vt 0.009584 0.176650
vt 0.028384 0.131263
vt 0.055678 0.090416
vt 0.090416 0.055678
vt 0.131263 0.028384
vt 0.176650 0.009584
vt 0.224833 -0.000000
vt 0.273960 -0.000000
vt 0.322143 0.009584
vt 0.367530 0.028384
vt 0.443116 0.090416
vt 0.470409 0.131263
vt 0.489209 0.176650
vt 0.498793 0.224833
vt 0.498793 0.273960
vt 0.489209 0.322143
vt 0.470409 0.367530
vt 0.408378 0.443116
vt 0.367530 0.470409
vt 0.322143 0.489209
vt 0.273960 0.498793
vt 0.224833 0.498793
vt 0.176650 0.489209
vt 0.131263 0.470409
vt 0.498793 0.352700
vt 0.749397 -0.000000
vt 0.498793 -0.000000
vt 0.028384 0.866324
vt 0.000000 0.723627
vt 0.009584 0.820936
vt 0.000000 0.772753
vt 0.009584 0.675444
vt 0.028384 0.630056
vt 0.055678 0.589209
vt 0.090416 0.554471
vt 0.131263 0.527178
vt 0.273960 0.498793
vt 0.176650 0.508377
vt 0.224833 0.498793
vt 0.322143 0.508377
vt 0.367530 0.527178
vt 0.408378 0.554471
vt 0.470409 0.630056
vt 0.498793 0.772753
vt 0.489209 0.675444
vt 0.498793 0.723627
vt 0.489209 0.820936
vt 0.470409 0.866324
vt 0.443116 0.907171
vt 0.367530 0.969202
vt 0.224833 0.997587
vt 0.322143 0.988002
vt 0.273960 0.997587
vt 0.176650 0.988002
vt 0.131263 0.969202
vt 0.090416 0.941909
s 0
f 16/1/1 32/3/1 24/2/1
f 64/4/2 160/6/2 129/5/2
f 63/7/3 159/8/3 160/6/3
f 62/9/4 158/10/4 159/8/4
f 61/11/5 157/12/5 158/10/5
f 60/13/6 156/14/6 157/12/6
f 59/15/7 155/16/7 156/14/7
f 58/17/8 154/18/8 155/16/8
f 57/19/9 153/21/9 154/20/9
f 56/22/10 152/23/10 153/21/10
f 55/24/11 151/25/11 152/23/11
f 54/26/12 150/27/12 151/25/12
f 53/28/13 149/29/13 150/27/13
f 52/30/14 148/31/14 149/29/14
f 51/32/15 147/33/15 148/31/15
f 50/34/16 146/35/16 147/33/16
f 49/36/17 145/38/17 146/37/17
f 48/39/18 144/40/18 145/38/18
f 47/41/19 143/42/19 144/40/19
f 46/43/20 142/44/20 143/42/20
f 45/45/21 141/46/21 142/44/21
f 44/47/22 140/48/22 141/46/22
f 43/49/23 139/50/23 140/48/23
f 42/51/24 138/52/24 139/50/24
f 41/53/25 137/55/25 138/54/25
f 40/56/26 136/57/26 137/55/26
f 39/58/27 135/59/27 136/57/27
f 38/60/28 134/61/28 135/59/28
f 37/62/29 133/63/29 134/61/29
f 36/64/30 132/65/30 133/63/30
f 35/66/31 131/67/31 132/65/31
f 34/68/32 130/69/32 131/67/32
f 33/70/33 129/5/33 130/71/33
f 49/72/34 33/74/34 41/73/34
f 96/75/33 128/77/33 97/76/33
f 65/78/32 97/80/32 98/79/32
f 66/81/31 98/79/31 99/82/31
f 67/83/30 99/82/30 100/84/30
f 68/85/29 100/84/29 101/86/29
f 69/87/28 101/86/28 102/88/28
f 70/89/27 102/88/27 103/90/27
f 71/91/26 103/90/26 104/92/26
f 72/93/25 104/92/25 105/94/25
f 73/95/24 105/97/24 106/96/24
f 74/98/23 106/96/23 107/99/23
f 75/100/22 107/99/22 108/101/22
f 76/102/21 108/101/21 109/103/21
f 77/104/20 109/103/20 110/105/20
f 78/106/19 110/105/19 111/107/19
f 79/108/18 111/107/18 112/109/18
f 80/110/17 112/109/17 113/111/17
f 81/112/16 113/114/16 114/113/16
f 82/115/15 114/113/15 115/116/15
f 83/117/14 115/116/14 116/118/14
f 84/119/13 116/118/13 117/120/13
f 85/121/12 117/120/12 118/122/12
f 86/123/11 118/122/11 119/124/11
f 87/125/10 119/124/10 120/126/10
f 88/127/9 120/126/9 121/128/9
f 89/129/8 121/131/8 122/130/8
f 90/132/7 122/130/7 123/133/7
f 91/134/6 123/133/6 124/135/6
f 92/136/5 124/135/5 125/137/5
f 93/138/4 125/137/4 126/139/4
f 94/140/3 126/139/3 127/141/3
f 95/142/2 127/141/2 128/77/2
f 127/141/2 32/144/2 1/143/2
f 126/139/3 31/145/3 32/144/3
f 125/137/4 30/146/4 31/145/4
f 124/135/5 29/147/5 30/146/5
f 123/133/6 28/148/6 29/147/6
f 122/130/7 27/49/7 28/148/7
f 121/131/8 26/51/8 27/49/8
f 120/126/9 25/53/9 26/149/9
f 119/124/10 24/150/10 25/53/10
f 118/122/11 23/151/11 24/150/11
f 117/120/12 22/152/12 23/151/12
f 116/118/13 21/153/13 22/152/13
f 115/116/14 20/154/14 21/153/14
f 114/113/15 19/155/15 20/154/15
f 113/114/16 18/156/16 19/155/16
f 112/109/17 17/158/17 18/157/17
f 111/107/18 16/159/18 17/158/18
f 110/105/19 15/160/19 16/159/19
f 109/103/20 14/161/20 15/160/20
f 108/101/21 13/162/21 14/161/21
f 107/99/22 12/163/22 13/162/22
f 106/96/23 11/164/23 12/163/23
f 105/97/24 10/165/24 11/164/24
f 104/92/25 9/167/25 10/166/25
f 103/90/26 8/168/26 9/167/26
f 102/88/27 7/169/27 8/168/27
f 101/86/28 6/170/28 7/169/28
f 100/84/29 5/171/29 6/170/29
f 99/82/30 4/172/30 5/171/30
f 98/79/31 3/173/31 4/172/31
f 97/80/32 2/174/32 3/173/32
f 128/77/33 1/143/33 2/175/33
f 129/5/33 96/75/33 65/176/33
f 130/69/32 65/78/32 66/81/32
f 131/67/31 66/81/31 67/83/31
f 132/65/30 67/83/30 68/85/30
f 133/63/29 68/85/29 69/87/29
f 134/61/28 69/87/28 70/89/28
f 135/59/27 70/89/27 71/91/27
f 136/57/26 71/91/26 72/93/26
f 137/55/25 72/93/25 73/177/25
f 138/52/24 73/95/24 74/98/24
f 139/50/23 74/98/23 75/100/23
f 140/48/22 75/100/22 76/102/22
f 141/46/21 76/102/21 77/104/21
f 142/44/20 77/104/20 78/106/20
f 143/42/19 78/106/19 79/108/19
f 144/40/18 79/108/18 80/110/18
f 145/38/17 80/110/17 81/178/17
f 146/35/16 81/112/16 82/115/16
f 147/33/15 82/115/15 83/117/15
f 148/31/14 83/117/14 84/119/14
f 149/29/13 84/119/13 85/121/13
f 150/27/12 85/121/12 86/123/12
f 151/25/11 86/123/11 87/125/11
f 152/23/10 87/125/10 88/127/10
f 153/21/9 88/127/9 89/179/9
f 154/18/8 89/129/8 90/132/8
f 155/16/7 90/132/7 91/134/7
f 156/14/6 91/134/6 92/136/6
f 157/12/5 92/136/5 93/138/5
f 158/10/4 93/138/4 94/140/4
f 159/8/3 94/140/3 95/142/3
f 160/6/2 95/142/2 96/75/2
f 32/3/1 2/181/1 1/180/1
f 2/181/1 4/183/1 3/182/1
f 4/183/1 6/185/1 5/184/1
f 6/185/1 8/187/1 7/186/1
f 8/187/1 10/189/1 9/188/1
f 10/189/1 12/191/1 11/190/1
f 12/191/1 14/193/1 13/192/1
f 14/193/1 16/1/1 15/194/1
f 16/1/1 18/196/1 17/195/1
f 18/196/1 20/198/1 19/197/1
f 20/198/1 22/200/1 21/199/1
f 22/200/1 24/2/1 23/201/1
f 24/2/1 26/203/1 25/202/1
f 26/203/1 28/205/1 27/204/1
f 28/205/1 30/207/1 29/206/1
f 30/207/1 32/3/1 31/208/1
f 32/3/1 8/187/1 2/181/1
f 2/181/1 8/187/1 4/183/1
f 4/183/35 8/187/35 6/185/35
f 8/187/1 16/1/1 10/189/1
f 10/189/1 16/1/1 12/191/1
f 12/191/1 16/1/1 14/193/1
f 16/1/1 24/2/1 18/196/1
f 18/196/35 24/2/35 20/198/35
f 20/198/1 24/2/1 22/200/1
f 24/2/1 32/3/1 26/203/1
f 26/203/1 32/3/1 28/205/1
f 28/205/1 32/3/1 30/207/1
f 32/3/1 16/1/1 8/187/1
f 64/4/2 129/5/2 33/70/2
f 63/7/3 160/6/3 64/4/3
f 62/9/4 159/8/4 63/7/4
f 61/11/5 158/10/5 62/9/5
f 60/13/6 157/12/6 61/11/6
f 59/15/7 156/14/7 60/13/7
f 58/17/8 155/16/8 59/15/8
f 57/19/9 154/20/9 58/209/9
f 56/22/10 153/21/10 57/19/10
f 55/24/11 152/23/11 56/22/11
f 54/26/12 151/25/12 55/24/12
f 53/28/13 150/27/13 54/26/13
f 52/30/14 149/29/14 53/28/14
f 51/32/15 148/31/15 52/30/15
f 50/34/16 147/33/16 51/32/16
f 49/36/17 146/37/17 50/210/17
f 48/39/18 145/38/18 49/36/18
f 47/41/19 144/40/19 48/39/19
f 46/43/20 143/42/20 47/41/20
f 45/45/21 142/44/21 46/43/21
f 44/47/22 141/46/22 45/45/22
f 43/49/23 140/48/23 44/47/23
f 42/51/24 139/50/24 43/49/24
f 41/53/25 138/54/25 42/149/25
f 40/56/26 137/55/26 41/53/26
f 39/58/27 136/57/27 40/56/27
f 38/60/28 135/59/28 39/58/28
f 37/62/29 134/61/29 38/60/29
f 36/64/30 133/63/30 37/62/30
f 35/66/31 132/65/31 36/64/31
f 34/68/32 131/67/32 35/66/32
f 33/70/33 130/71/33 34/211/33
f 33/74/34 61/213/34 64/212/34
f 64/212/34 61/213/34 63/214/34
f 63/214/34 61/213/34 62/215/34
f 61/213/34 59/217/34 60/216/34
f 59/217/34 61/213/34 58/218/34
f 58/218/34 61/213/34 57/219/34
f 57/219/34 53/221/34 56/220/34
f 56/220/34 53/221/34 55/222/34
f 55/222/34 53/221/34 54/223/34
f 53/221/34 51/225/34 52/224/34
f 51/225/34 53/221/34 50/226/34
f 50/226/34 53/221/34 49/72/34
f 49/72/34 45/228/34 48/227/34
f 48/227/34 45/228/34 47/229/34
f 47/229/34 45/228/34 46/230/34
f 45/228/34 43/232/34 44/231/34
f 43/232/34 45/228/34 42/233/34
f 42/233/34 45/228/34 41/73/34
f 41/73/34 37/235/34 40/234/34
f 40/234/34 37/235/34 39/236/34
f 39/236/34 37/235/34 38/237/34
f 37/235/34 35/239/34 36/238/34
f 35/239/34 37/235/34 34/240/34
f 34/240/34 37/235/34 33/74/34
f 33/74/34 57/219/34 61/213/34
f 57/219/34 49/72/34 53/221/34
f 49/72/34 41/73/34 45/228/34
f 41/73/34 33/74/34 37/235/34
f 33/74/34 49/72/34 57/219/34
f 96/75/33 97/76/33 65/176/33
f 65/78/32 98/79/32 66/81/32
f 66/81/31 99/82/31 67/83/31
f 67/83/30 100/84/30 68/85/30
f 68/85/29 101/86/29 69/87/29
f 69/87/28 102/88/28 70/89/28
f 70/89/27 103/90/27 71/91/27
f 71/91/26 104/92/26 72/93/26
f 72/93/25 105/94/25 73/177/25
f 73/95/24 106/96/24 74/98/24
f 74/98/23 107/99/23 75/100/23
f 75/100/22 108/101/22 76/102/22
f 76/102/21 109/103/21 77/104/21
f 77/104/20 110/105/20 78/106/20
f 78/106/19 111/107/19 79/108/19
f 79/108/18 112/109/18 80/110/18
f 80/110/17 113/111/17 81/178/17
f 81/112/16 114/113/16 82/115/16
f 82/115/15 115/116/15 83/117/15
f 83/117/14 116/118/14 84/119/14
f 84/119/13 117/120/13 85/121/13
f 85/121/12 118/122/12 86/123/12
f 86/123/11 119/124/11 87/125/11
f 87/125/10 120/126/10 88/127/10
f 88/127/9 121/128/9 89/179/9
f 89/129/8 122/130/8 90/132/8
f 90/132/7 123/133/7 91/134/7
f 91/134/6 124/135/6 92/136/6
f 92/136/5 125/137/5 93/138/5
f 93/138/4 126/139/4 94/140/4
f 94/140/3 127/141/3 95/142/3
f 95/142/2 128/77/2 96/75/2
f 127/141/2 1/143/2 128/77/2
f 126/139/3 32/144/3 127/141/3
f 125/137/4 31/145/4 126/139/4
f 124/135/5 30/146/5 125/137/5
f 123/133/6 29/147/6 124/135/6
f 122/130/7 28/148/7 123/133/7
f 121/131/8 27/49/8 122/130/8
f 120/126/9 26/149/9 121/128/9
f 119/124/10 25/53/10 120/126/10
f 118/122/11 24/150/11 119/124/11
f 117/120/12 23/151/12 118/122/12
f 116/118/13 22/152/13 117/120/13
f 115/116/14 21/153/14 116/118/14
f 114/113/15 20/154/15 115/116/15
f 113/114/16 19/155/16 114/113/16
f 112/109/17 18/157/17 113/111/17
f 111/107/18 17/158/18 112/109/18
f 110/105/19 16/159/19 111/107/19
f 109/103/20 15/160/20 110/105/20
f 108/101/21 14/161/21 109/103/21
f 107/99/22 13/162/22 108/101/22
f 106/96/23 12/163/23 107/99/23
f 105/97/24 11/164/24 106/96/24
f 104/92/25 10/166/25 105/94/25
f 103/90/26 9/167/26 104/92/26
f 102/88/27 8/168/27 103/90/27
f 101/86/28 7/169/28 102/88/28
f 100/84/29 6/170/29 101/86/29
f 99/82/30 5/171/30 100/84/30
f 98/79/31 4/172/31 99/82/31
f 97/80/32 3/173/32 98/79/32
f 128/77/33 2/175/33 97/76/33
f 129/5/33 65/176/33 130/71/33
f 130/69/32 66/81/32 131/67/32
f 131/67/31 67/83/31 132/65/31
f 132/65/30 68/85/30 133/63/30
f 133/63/29 69/87/29 134/61/29
f 134/61/28 70/89/28 135/59/28
f 135/59/27 71/91/27 136/57/27
f 136/57/26 72/93/26 137/55/26
f 137/55/25 73/177/25 138/54/25
f 138/52/24 74/98/24 139/50/24
f 139/50/23 75/100/23 140/48/23
f 140/48/22 76/102/22 141/46/22
f 141/46/21 77/104/21 142/44/21
f 142/44/20 78/106/20 143/42/20
f 143/42/19 79/108/19 144/40/19
f 144/40/18 80/110/18 145/38/18
f 145/38/17 81/178/17 146/37/17
f 146/35/16 82/115/16 147/33/16
f 147/33/15 83/117/15 148/31/15
f 148/31/14 84/119/14 149/29/14
f 149/29/13 85/121/13 150/27/13
f 150/27/12 86/123/12 151/25/12
f 151/25/11 87/125/11 152/23/11
f 152/23/10 88/127/10 153/21/10
f 153/21/9 89/179/9 154/20/9
f 154/18/8 90/132/8 155/16/8
f 155/16/7 91/134/7 156/14/7
f 156/14/6 92/136/6 157/12/6
f 157/12/5 93/138/5 158/10/5
f 158/10/4 94/140/4 159/8/4
f 159/8/3 95/142/3 160/6/3
f 160/6/2 96/75/2 129/5/2
