# Blender 4.5.3 LTS
# www.blender.org
o C1_C3_H_AIR
v -17.936201 37.894173 -9.249998
v 35.122200 2.105827 -9.250002
v -17.799835 38.096344 -9.274017
v 35.258568 2.307999 -9.274020
v -17.668709 38.290749 -9.345149
v 35.389694 2.502401 -9.345152
v -17.547863 38.469910 -9.460662
v 35.510540 2.681562 -9.460665
v -17.441940 38.626945 -9.616116
v 35.616463 2.838600 -9.616117
v -17.355011 38.755821 -9.805536
v 35.703392 2.967476 -9.805538
v -17.290417 38.851585 -10.021645
v 35.767986 3.063240 -10.021647
v -17.250641 38.910557 -10.256136
v 35.807762 3.122211 -10.256139
v -17.237209 38.930470 -10.499999
v 35.821194 3.142124 -10.500001
v -17.250641 38.910557 -10.743861
v 35.807762 3.122211 -10.743864
v -17.290417 38.851585 -10.978353
v 35.767986 3.063240 -10.978355
v -17.355011 38.755821 -11.194462
v 35.703392 2.967476 -11.194464
v -17.441940 38.626945 -11.383883
v 35.616463 2.838600 -11.383884
v -17.547863 38.469910 -11.539335
v 35.510540 2.681562 -11.539338
v -17.668709 38.290749 -11.654848
v 35.389694 2.502401 -11.654851
v -17.799835 38.096344 -11.725980
v 35.258568 2.307999 -11.725983
v -17.936201 37.894173 -11.749998
v 35.122200 2.105827 -11.750002
v -18.072567 37.692001 -11.725980
v 34.985836 1.903656 -11.725983
v -18.203693 37.497597 -11.654848
v 34.854710 1.709253 -11.654851
v -18.324539 37.318436 -11.539335
v 34.733864 1.530092 -11.539338
v -18.430462 37.161400 -11.383883
v 34.627941 1.373055 -11.383884
v -18.517391 37.032524 -11.194462
v 34.541012 1.244179 -11.194464
v -18.581985 36.936760 -10.978353
v 34.476418 1.148415 -10.978355
v -18.621761 36.877789 -10.743861
v 34.436642 1.089443 -10.743864
v -18.635193 36.857876 -10.499999
v 34.423210 1.069530 -10.500001
v -18.621761 36.877789 -10.256136
v 34.436642 1.089443 -10.256139
v -18.581985 36.936760 -10.021645
v 34.476418 1.148415 -10.021647
v -18.517391 37.032524 -9.805536
v 34.541012 1.244179 -9.805538
v -18.430462 37.161400 -9.616116
v 34.627941 1.373055 -9.616117
v -18.324539 37.318436 -9.460662
v 34.733864 1.530092 -9.460665
v -18.203693 37.497597 -9.345149
v 34.854710 1.709253 -9.345152
v -18.072567 37.692001 -9.274017
v 34.985836 1.903656 -9.274020
v 8.593000 20.000000 -9.250000
v 8.729367 20.202171 -9.274018
v 8.860493 20.396574 -9.345151
v 8.981339 20.575735 -9.460663
v 9.087262 20.732773 -9.616117
v 9.174191 20.861649 -9.805537
v 9.238784 20.957413 -10.021646
v 9.278561 21.016384 -10.256137
v 9.291991 21.036297 -10.500000
v 9.278561 21.016384 -10.743863
v 9.238784 20.957413 -10.978354
v 9.174191 20.861649 -11.194463
v 9.087262 20.732773 -11.383883
v 8.981339 20.575735 -11.539337
v 8.860493 20.396574 -11.654849
v 8.729366 20.202171 -11.725982
v 8.593000 20.000000 -11.750000
v 8.456634 19.797829 -11.725982
v 8.325508 19.603426 -11.654849
v 8.204661 19.424265 -11.539337
v 8.098739 19.267227 -11.383883
v 8.011810 19.138351 -11.194463
v 7.947217 19.042587 -10.978354
v 7.907440 18.983616 -10.743863
v 7.894009 18.963703 -10.500000
v 7.907440 18.983616 -10.256137
v 7.947217 19.042587 -10.021646
v 8.011810 19.138351 -9.805537
v 8.098739 19.267227 -9.616117
v 8.204661 19.424265 -9.460663
v 8.325508 19.603426 -9.345151
v 8.456635 19.797829 -9.274018
v 21.857601 11.052914 -9.250001
v 21.993969 11.255085 -9.274019
v 22.125093 11.449488 -9.345151
v 22.245941 11.628650 -9.460664
v 22.351864 11.785686 -9.616117
v 22.438791 11.914563 -9.805538
v 22.503384 12.010327 -10.021646
v 22.543161 12.069298 -10.256138
v 22.556591 12.089211 -10.500001
v 22.543161 12.069298 -10.743864
v 22.503384 12.010327 -10.978355
v 22.438791 11.914563 -11.194464
v 22.351864 11.785686 -11.383884
v 22.245941 11.628650 -11.539338
v 22.125093 11.449488 -11.654850
v 21.993967 11.255085 -11.725983
v 21.857601 11.052914 -11.750001
v 21.721233 10.850742 -11.725983
v 21.590109 10.656340 -11.654850
v 21.469261 10.477178 -11.539338
v 21.363338 10.320141 -11.383884
v 21.276411 10.191264 -11.194464
v 21.211819 10.095500 -10.978355
v 21.172041 10.036529 -10.743864
v 21.158611 10.016617 -10.500001
v 21.172041 10.036529 -10.256138
v 21.211819 10.095500 -10.021646
v 21.276411 10.191264 -9.805538
v 21.363338 10.320141 -9.616117
v 21.469261 10.477178 -9.460664
v 21.590109 10.656340 -9.345151
v 21.721235 10.850742 -9.274019
v -4.535233 29.149258 -9.274017
v -4.404108 29.343660 -9.345150
v -4.283261 29.522823 -9.460662
v -4.177339 29.679859 -9.616116
v -4.090410 29.808735 -9.805536
v -4.025817 29.904499 -10.021645
v -3.986040 29.963470 -10.256136
v -3.972610 29.983383 -10.499999
v -3.986040 29.963470 -10.743862
v -4.025817 29.904499 -10.978354
v -4.090410 29.808735 -11.194462
v -4.177339 29.679859 -11.383883
v -4.283261 29.522823 -11.539336
v -4.404108 29.343660 -11.654849
v -4.535234 29.149258 -11.725981
v -4.671600 28.947086 -11.749999
v -4.807967 28.744915 -11.725981
v -4.939093 28.550512 -11.654849
v -5.059939 28.371349 -11.539336
v -5.165862 28.214314 -11.383883
v -5.252790 28.085438 -11.194462
v -5.317384 27.989674 -10.978354
v -5.357161 27.930702 -10.743862
v -5.370591 27.910789 -10.499999
v -5.357161 27.930702 -10.256136
v -5.317384 27.989674 -10.021645
v -5.252790 28.085438 -9.805536
v -5.165862 28.214314 -9.616116
v -5.059939 28.371349 -9.460662
v -4.939093 28.550512 -9.345150
v -4.807966 28.744915 -9.274017
v -4.671600 28.947086 -9.249999
v 15.361668 15.728628 -9.274019
v 15.492793 15.923031 -9.345151
v 15.613640 16.102192 -9.460663
v 15.719563 16.259230 -9.616117
v 15.806491 16.388107 -9.805537
v 15.871084 16.483871 -10.021646
v 15.910861 16.542841 -10.256138
v 15.924292 16.562754 -10.500000
v 15.910861 16.542841 -10.743863
v 15.871084 16.483871 -10.978354
v 15.806491 16.388107 -11.194463
v 15.719563 16.259230 -11.383883
v 15.613640 16.102192 -11.539337
v 15.492793 15.923031 -11.654850
v 15.361668 15.728628 -11.725982
v 15.225301 15.526457 -11.750000
v 15.088934 15.324286 -11.725982
v 14.957808 15.129883 -11.654850
v 14.836962 14.950722 -11.539337
v 14.731039 14.793684 -11.383883
v 14.644111 14.664807 -11.194463
v 14.579517 14.569043 -10.978354
v 14.539741 14.510073 -10.743863
v 14.526310 14.490160 -10.500000
v 14.539741 14.510073 -10.256138
v 14.579517 14.569043 -10.021646
v 14.644111 14.664807 -9.805537
v 14.731039 14.793684 -9.616117
v 14.836962 14.950722 -9.460663
v 14.957808 15.129883 -9.345151
v 15.088934 15.324286 -9.274019
v 15.225301 15.526457 -9.250000
v 28.489901 6.579370 -9.250001
v 28.626266 6.781542 -9.274019
v 28.757393 6.975945 -9.345152
v 28.878239 7.155107 -9.460664
v 28.984161 7.312143 -9.616117
v 29.071091 7.441020 -9.805538
v 29.135685 7.536784 -10.021646
v 29.175461 7.595756 -10.256138
v 29.188892 7.615667 -10.500001
v 29.175461 7.595756 -10.743864
v 29.135685 7.536784 -10.978355
v 29.071091 7.441020 -11.194464
v 28.984161 7.312143 -11.383884
v 28.878239 7.155107 -11.539338
v 28.757393 6.975945 -11.654850
v 28.626266 6.781542 -11.725983
v 28.489901 6.579370 -11.750001
v 28.353535 6.377199 -11.725983
v 28.222408 6.182796 -11.654850
v 28.101562 6.003634 -11.539338
v 27.995640 5.846598 -11.383884
v 27.908710 5.717721 -11.194464
v 27.844116 5.621957 -10.978355
v 27.804340 5.562985 -10.743864
v 27.790909 5.543074 -10.500001
v 27.804340 5.562985 -10.256138
v 27.844116 5.621957 -10.021646
v 27.908710 5.717721 -9.805538
v 27.995640 5.846598 -9.616117
v 28.101562 6.003634 -9.460664
v 28.222408 6.182796 -9.345152
v 28.353535 6.377199 -9.274019
v 1.960700 24.473543 -9.250000
v 2.097066 24.675714 -9.274018
v 2.228192 24.870117 -9.345150
v 2.349039 25.049278 -9.460663
v 2.454961 25.206316 -9.616117
v 2.541890 25.335194 -9.805537
v 2.606483 25.430958 -10.021646
v 2.646260 25.489927 -10.256137
v 2.659691 25.509840 -10.500000
v 2.646260 25.489927 -10.743862
v 2.606483 25.430958 -10.978354
v 2.541890 25.335194 -11.194463
v 2.454961 25.206316 -11.383883
v 2.349039 25.049278 -11.539337
v 2.228192 24.870117 -11.654849
v 2.097066 24.675714 -11.725981
v 1.960700 24.473543 -11.750000
v 1.824334 24.271372 -11.725981
v 1.693208 24.076969 -11.654849
v 1.572361 23.897808 -11.539337
v 1.466439 23.740770 -11.383883
v 1.379510 23.611893 -11.194463
v 1.314917 23.516129 -10.978354
v 1.275140 23.457159 -10.743862
v 1.261709 23.437246 -10.500000
v 1.275140 23.457159 -10.256137
v 1.314917 23.516129 -10.021646
v 1.379510 23.611893 -9.805537
v 1.466439 23.740770 -9.616117
v 1.572361 23.897808 -9.460663
v 1.693208 24.076969 -9.345150
v 1.824334 24.271372 -9.274018
v -11.167534 33.622803 -9.274017
v -11.036407 33.817204 -9.345150
v -10.915562 33.996365 -9.460662
v -10.809639 34.153404 -9.616116
v -10.722710 34.282280 -9.805536
v -10.658115 34.378044 -10.021645
v -10.618340 34.437016 -10.256136
v -10.604908 34.456924 -10.499999
v -10.618340 34.437016 -10.743862
v -10.658115 34.378044 -10.978354
v -10.722710 34.282280 -11.194462
v -10.809639 34.153404 -11.383883
v -10.915562 33.996365 -11.539336
v -11.036407 33.817204 -11.654848
v -11.167534 33.622803 -11.725981
v -11.303900 33.420631 -11.749999
v -11.440266 33.218460 -11.725981
v -11.571392 33.024055 -11.654848
v -11.692238 32.844894 -11.539336
v -11.798161 32.687859 -11.383883
v -11.885090 32.558979 -11.194462
v -11.949684 32.463215 -10.978354
v -11.989460 32.404243 -10.743862
v -12.002892 32.384331 -10.499999
v -11.989460 32.404243 -10.256136
v -11.949684 32.463215 -10.021645
v -11.885090 32.558979 -9.805536
v -11.798161 32.687859 -9.616116
v -11.692238 32.844894 -9.460662
v -11.571392 33.024055 -9.345150
v -11.440266 33.218460 -9.274017
v -11.303900 33.420631 -9.249999
vn 0.0548 0.0813 0.9952
vn 0.1623 0.2407 0.9569
vn 0.2636 0.3908 0.8819
vn 0.3547 0.5259 0.7730
vn 0.4323 0.6409 0.6344
vn 0.4932 0.7311 0.4714
vn 0.5351 0.7933 0.2903
vn 0.5565 0.8250 0.0980
vn 0.5565 0.8250 -0.0980
vn 0.5351 0.7933 -0.2903
vn 0.4932 0.7311 -0.4714
vn 0.4323 0.6409 -0.6344
vn 0.3547 0.5259 -0.7730
vn 0.2636 0.3908 -0.8819
vn 0.1623 0.2407 -0.9569
vn 0.0548 0.0813 -0.9952
vn -0.0548 -0.0813 -0.9952
vn -0.1623 -0.2407 -0.9569
vn -0.2636 -0.3908 -0.8819
vn -0.3547 -0.5259 -0.7730
vn -0.4323 -0.6409 -0.6344
vn -0.4932 -0.7311 -0.4714
vn -0.5351 -0.7933 -0.2903
vn -0.5565 -0.8250 -0.0980
vn -0.5565 -0.8250 0.0980
vn -0.5351 -0.7933 0.2903
vn -0.4932 -0.7311 0.4714
vn -0.4323 -0.6409 0.6344
vn -0.3547 -0.5259 0.7730
vn -0.2636 -0.3908 0.8819
vn 0.8290 -0.5592 -0.0000
vn -0.1623 -0.2407 0.9569
vn -0.0548 -0.0813 0.9952
vn -0.8290 0.5592 -0.0000
vn 0.8291 -0.5591 -0.0000
vn -0.8291 0.5592 -0.0000
vt 0.937232 0.000000
vt 0.971153 0.052027
vt 0.937232 0.052027
vt 0.971153 0.000000
vt 1.000000 0.052027
vt 0.414214 0.000000
vt 0.448135 0.052027
vt 0.414214 0.052027
vt 0.448135 0.000000
vt 0.485826 0.052027
vt 0.485826 0.000000
vt 0.525838 0.052027
vt 0.525838 0.000000
vt 0.566635 0.052027
vt 0.566635 0.000000
vt 0.606647 0.052027
vt 0.606647 0.000000
vt 0.644338 0.052027
vt 0.644338 0.000000
vt 0.678259 0.052027
vt 0.678259 0.000000
vt 0.707107 0.052027
vt 0.707107 0.416218
vt 0.741028 0.468245
vt 0.707107 0.468245
vt 0.741028 0.416218
vt 0.778719 0.468245
vt 0.778719 0.416218
vt 0.818731 0.468245
vt 0.818731 0.416218
vt 0.859528 0.468245
vt 0.859528 0.416218
vt 0.899541 0.468245
vt 0.899541 0.416218
vt 0.937232 0.468245
vt 0.937232 0.416218
vt 0.971153 0.468245
vt 0.971153 0.416218
vt 1.000000 0.468245
vt 0.414214 0.416218
vt 0.448135 0.468245
vt 0.414214 0.468245
vt 0.448135 0.416218
vt 0.485826 0.468245
vt 0.485826 0.416218
vt 0.525838 0.468245
vt 0.525838 0.416218
vt 0.566635 0.468245
vt 0.566635 0.416218
vt 0.606647 0.468245
vt 0.606647 0.416218
vt 0.644338 0.468245
vt 0.644338 0.416218
vt 0.678259 0.468245
vt 0.678259 0.416218
vt 0.707107 0.468245
vt 0.707107 0.000000
vt 0.741028 0.052027
vt 0.707107 0.052027
vt 0.741028 0.000000
vt 0.778719 0.052027
vt 0.778719 0.000000
vt 0.818731 0.052027
vt 0.818731 0.000000
vt 0.859528 0.052027
vt 0.305209 0.023571
vt 0.390642 0.305209
vt 0.109005 0.390642
vt 0.859528 0.000000
vt 0.899541 0.052027
vt 0.899541 0.000000
vt 0.339130 0.460450
vt 0.367977 0.753343
vt 0.075084 0.782191
vt 0.899541 0.208109
vt 0.937232 0.260136
vt 0.899541 0.260136
vt 0.859528 0.208109
vt 0.859528 0.260136
vt 0.818731 0.208109
vt 0.818731 0.260136
vt 0.778719 0.208109
vt 0.778719 0.260136
vt 0.741028 0.208109
vt 0.741028 0.260136
vt 0.707107 0.208109
vt 0.707107 0.260136
vt 0.678259 0.624327
vt 0.707107 0.676354
vt 0.678259 0.676354
vt 0.644338 0.624327
vt 0.644338 0.676354
vt 0.606647 0.624327
vt 0.606647 0.676354
vt 0.566635 0.624327
vt 0.566635 0.676354
vt 0.525838 0.624327
vt 0.525838 0.676354
vt 0.485826 0.624327
vt 0.485826 0.676354
vt 0.448135 0.624327
vt 0.448135 0.676354
vt 0.414214 0.624327
vt 0.414214 0.676354
vt 0.971153 0.624327
vt 1.000000 0.676354
vt 0.971153 0.676354
vt 0.937232 0.624327
vt 0.937232 0.676354
vt 0.899541 0.624327
vt 0.899541 0.676354
vt 0.859528 0.624327
vt 0.859528 0.676354
vt 0.818731 0.624327
vt 0.818731 0.676354
vt 0.778719 0.624327
vt 0.778719 0.676354
vt 0.741028 0.624327
vt 0.741028 0.676354
vt 0.707107 0.624327
vt 0.707107 0.676354
vt 0.678259 0.208109
vt 0.707107 0.260136
vt 0.678259 0.260136
vt 0.644338 0.208109
vt 0.644338 0.260136
vt 0.606647 0.208109
vt 0.606647 0.260136
vt 0.566635 0.208109
vt 0.566635 0.260136
vt 0.525838 0.208109
vt 0.525838 0.260136
vt 0.485826 0.208109
vt 0.485826 0.260136
vt 0.448135 0.208109
vt 0.448135 0.260136
vt 0.414214 0.208109
vt 0.414214 0.260136
vt 0.971153 0.208109
vt 1.000000 0.260136
vt 0.971153 0.260136
vt 0.937232 0.208109
vt 0.899541 0.104054
vt 0.937232 0.156082
vt 0.899541 0.156082
vt 0.859528 0.104054
vt 0.859528 0.156082
vt 0.818731 0.104054
vt 0.818731 0.156082
vt 0.778719 0.104054
vt 0.778719 0.156082
vt 0.741028 0.104054
vt 0.741028 0.156082
vt 0.707107 0.104054
vt 0.707107 0.156082
vt 0.678259 0.520272
vt 0.707107 0.572300
vt 0.678259 0.572300
vt 0.644338 0.520272
vt 0.644338 0.572300
vt 0.606647 0.520272
vt 0.606647 0.572300
vt 0.566635 0.520272
vt 0.566635 0.572300
vt 0.525838 0.520272
vt 0.525838 0.572300
vt 0.485826 0.520272
vt 0.485826 0.572300
vt 0.448135 0.520272
vt 0.448135 0.572300
vt 0.414214 0.520272
vt 0.414214 0.572300
vt 0.971153 0.520272
vt 1.000000 0.572299
vt 0.971153 0.572299
vt 0.937232 0.520272
vt 0.937232 0.572299
vt 0.899541 0.520272
vt 0.899541 0.572299
vt 0.859528 0.520272
vt 0.859528 0.572299
vt 0.818731 0.520272
vt 0.818731 0.572299
vt 0.778719 0.520272
vt 0.778719 0.572299
vt 0.741028 0.520272
vt 0.741028 0.572299
vt 0.707107 0.520272
vt 0.707107 0.572299
vt 0.678259 0.104054
vt 0.707107 0.156082
vt 0.678259 0.156082
vt 0.644338 0.104054
vt 0.644338 0.156082
vt 0.606647 0.104054
vt 0.606647 0.156082
vt 0.566635 0.104054
vt 0.566635 0.156082
vt 0.525838 0.104054
vt 0.525838 0.156082
vt 0.485826 0.104054
vt 0.485826 0.156082
vt 0.448135 0.104054
vt 0.448135 0.156082
vt 0.414214 0.104054
vt 0.414214 0.156082
vt 0.971153 0.104054
vt 1.000000 0.156082
vt 0.971153 0.156082
vt 0.937232 0.104054
vt 0.937232 0.312163
vt 0.971153 0.364191
vt 0.937232 0.364191
vt 0.971153 0.312163
vt 1.000000 0.364191
vt 0.414214 0.312163
vt 0.448135 0.364191
vt 0.414214 0.364191
vt 0.448135 0.312163
vt 0.485826 0.364191
vt 0.485826 0.312163
vt 0.525838 0.364191
vt 0.525838 0.312163
vt 0.566635 0.364191
vt 0.566635 0.312163
vt 0.606647 0.364191
vt 0.606647 0.312163
vt 0.644338 0.364191
vt 0.644338 0.312163
vt 0.678259 0.364191
vt 0.678259 0.312163
vt 0.707107 0.364191
vt 0.707107 0.728381
vt 0.741028 0.780408
vt 0.707107 0.780408
vt 0.741028 0.728381
vt 0.778719 0.780408
vt 0.778719 0.728381
vt 0.818731 0.780408
vt 0.818731 0.728381
vt 0.859528 0.780408
vt 0.859528 0.728381
vt 0.899541 0.780408
vt 0.899541 0.728381
vt 0.937232 0.780408
vt 0.937232 0.728381
vt 0.971153 0.780408
vt 0.971153 0.728381
vt 1.000000 0.780408
vt 0.414214 0.728381
vt 0.448135 0.780408
vt 0.414214 0.780408
vt 0.448135 0.728381
vt 0.485826 0.780408
vt 0.485826 0.728381
vt 0.525838 0.780408
vt 0.525838 0.728381
vt 0.566635 0.780408
vt 0.566635 0.728381
vt 0.606647 0.780408
vt 0.606647 0.728381
vt 0.644338 0.780408
vt 0.644338 0.728381
vt 0.678259 0.780408
vt 0.678259 0.728381
vt 0.707107 0.780408
vt 0.707107 0.312163
vt 0.741028 0.364191
vt 0.707107 0.364191
vt 0.741028 0.312163
vt 0.778719 0.364191
vt 0.778719 0.312163
vt 0.818731 0.364191
vt 0.818731 0.312163
vt 0.859528 0.364191
vt 0.859528 0.312163
vt 0.899541 0.364191
vt 0.899541 0.312163
vt 1.000000 0.208109
vt 0.707107 0.208109
vt 1.000000 0.624327
vt 0.707107 0.624327
vt 0.707107 0.520272
vt 1.000000 0.520272
vt 0.707107 0.104054
vt 1.000000 0.104054
vt 1.000000 0.312163
vt 0.707107 0.312163
vt 1.000000 0.728381
vt 0.707107 0.728381
vt 0.937232 0.416218
vt 0.899541 0.416218
vt 0.859528 0.416218
vt 0.818731 0.416218
vt 0.778719 0.416218
vt 0.741028 0.416218
vt 0.707107 0.416218
vt 0.707107 0.832436
vt 0.678259 0.832436
vt 0.644338 0.832436
vt 0.606647 0.832436
vt 0.566635 0.832436
vt 0.525838 0.832436
vt 0.485826 0.832436
vt 0.448135 0.832436
vt 0.414214 0.832436
vt 1.000000 0.832436
vt 0.971153 0.832436
vt 0.937232 0.832436
vt 0.899541 0.832436
vt 0.859528 0.832436
vt 0.818731 0.832436
vt 0.778719 0.832436
vt 0.741028 0.832436
vt 0.707107 0.832436
vt 0.707107 0.416218
vt 1.000000 0.416218
vt 0.971153 0.416218
vt 1.000000 0.000000
vt 0.707107 0.000000
vt 1.000000 0.416218
vt 0.075084 0.367977
vt 0.046236 0.339130
vt 0.023571 0.305209
vt 0.007959 0.267518
vt -0.000000 0.227505
vt -0.000000 0.186709
vt 0.007959 0.146696
vt 0.023571 0.109005
vt 0.046236 0.075084
vt 0.075084 0.046236
vt 0.109005 0.023571
vt 0.146696 0.007959
vt 0.186709 -0.000000
vt 0.227505 -0.000000
vt 0.267518 0.007959
vt 0.339130 0.046236
vt 0.406255 0.146696
vt 0.367977 0.075084
vt 0.390642 0.109005
vt 0.414214 0.186709
vt 0.414214 0.227505
vt 0.406255 0.267518
vt 0.367977 0.339130
vt 0.267518 0.406255
vt 0.339130 0.367977
vt 0.305209 0.390642
vt 0.227505 0.414214
vt 0.186709 0.414214
vt 0.146696 0.406255
vt 0.046236 0.753343
vt 0.023571 0.719422
vt 0.007959 0.681731
vt 0.000000 0.641719
vt 0.000000 0.600922
vt 0.007959 0.560910
vt 0.023571 0.523219
vt 0.046236 0.489298
vt 0.075084 0.460450
vt 0.109005 0.437785
vt 0.146696 0.422173
vt 0.186709 0.414214
vt 0.227505 0.414214
vt 0.267518 0.422173
vt 0.305209 0.437785
vt 0.367977 0.489298
vt 0.390642 0.523219
vt 0.406255 0.560910
vt 0.414214 0.600922
vt 0.414214 0.641719
vt 0.406255 0.681731
vt 0.390642 0.719422
vt 0.339130 0.782191
vt 0.305209 0.804856
vt 0.267518 0.820468
vt 0.227505 0.828427
vt 0.186709 0.828427
vt 0.146696 0.820468
vt 0.109005 0.804856
s 0
f 2/1/1 194/2/1 193/3/1
f 4/4/2 195/5/2 194/2/2
f 6/6/3 196/7/3 195/8/3
f 8/9/4 197/10/4 196/7/4
f 10/11/5 198/12/5 197/10/5
f 12/13/6 199/14/6 198/12/6
f 14/15/7 200/16/7 199/14/7
f 16/17/8 201/18/8 200/16/8
f 18/19/9 202/20/9 201/18/9
f 20/21/10 203/22/10 202/20/10
f 22/23/11 204/24/11 203/25/11
f 24/26/12 205/27/12 204/24/12
f 26/28/13 206/29/13 205/27/13
f 28/30/14 207/31/14 206/29/14
f 30/32/15 208/33/15 207/31/15
f 32/34/16 209/35/16 208/33/16
f 34/36/17 210/37/17 209/35/17
f 36/38/18 211/39/18 210/37/18
f 38/40/19 212/41/19 211/42/19
f 40/43/20 213/44/20 212/41/20
f 42/45/21 214/46/21 213/44/21
f 44/47/22 215/48/22 214/46/22
f 46/49/23 216/50/23 215/48/23
f 48/51/24 217/52/24 216/50/24
f 50/53/25 218/54/25 217/52/25
f 52/55/26 219/56/26 218/54/26
f 54/57/27 220/58/27 219/59/27
f 56/60/28 221/61/28 220/58/28
f 58/62/29 222/63/29 221/61/29
f 60/64/30 223/65/30 222/63/30
f 38/66/31 22/67/31 6/68/31
f 62/69/32 224/70/32 223/65/32
f 64/71/33 193/3/33 224/70/33
f 31/72/34 47/73/34 63/74/34
f 96/75/33 225/76/33 256/77/33
f 95/78/32 256/77/32 255/79/32
f 94/80/30 255/79/30 254/81/30
f 93/82/29 254/81/29 253/83/29
f 92/84/28 253/83/28 252/85/28
f 91/86/27 252/85/27 251/87/27
f 90/88/26 251/89/26 250/90/26
f 89/91/25 250/90/25 249/92/25
f 88/93/24 249/92/24 248/94/24
f 87/95/23 248/94/23 247/96/23
f 86/97/22 247/96/22 246/98/22
f 85/99/21 246/98/21 245/100/21
f 84/101/20 245/100/20 244/102/20
f 83/103/19 244/102/19 243/104/19
f 82/105/18 243/106/18 242/107/18
f 81/108/17 242/107/17 241/109/17
f 80/110/16 241/109/16 240/111/16
f 79/112/15 240/111/15 239/113/15
f 78/114/14 239/113/14 238/115/14
f 77/116/13 238/115/13 237/117/13
f 76/118/12 237/117/12 236/119/12
f 75/120/11 236/119/11 235/121/11
f 74/122/10 235/123/10 234/124/10
f 73/125/9 234/124/9 233/126/9
f 72/127/8 233/126/8 232/128/8
f 71/129/7 232/128/7 231/130/7
f 70/131/6 231/130/6 230/132/6
f 69/133/5 230/132/5 229/134/5
f 68/135/4 229/134/4 228/136/4
f 67/137/3 228/136/3 227/138/3
f 66/139/2 227/140/2 226/141/2
f 65/142/1 226/141/1 225/76/1
f 128/143/33 192/144/33 191/145/33
f 127/146/32 191/145/32 190/147/32
f 126/148/30 190/147/30 189/149/30
f 125/150/29 189/149/29 188/151/29
f 124/152/28 188/151/28 187/153/28
f 123/154/27 187/153/27 186/155/27
f 122/156/26 186/157/26 185/158/26
f 121/159/25 185/158/25 184/160/25
f 120/161/24 184/160/24 183/162/24
f 119/163/23 183/162/23 182/164/23
f 118/165/22 182/164/22 181/166/22
f 117/167/21 181/166/21 180/168/21
f 116/169/20 180/168/20 179/170/20
f 115/171/19 179/170/19 178/172/19
f 114/173/18 178/174/18 177/175/18
f 113/176/17 177/175/17 176/177/17
f 112/178/16 176/177/16 175/179/16
f 111/180/15 175/179/15 174/181/15
f 110/182/14 174/181/14 173/183/14
f 109/184/13 173/183/13 172/185/13
f 108/186/12 172/185/12 171/187/12
f 107/188/11 171/187/11 170/189/11
f 106/190/10 170/191/10 169/192/10
f 105/193/9 169/192/9 168/194/9
f 104/195/8 168/194/8 167/196/8
f 103/197/7 167/196/7 166/198/7
f 102/199/6 166/198/6 165/200/6
f 101/201/5 165/200/5 164/202/5
f 100/203/4 164/202/4 163/204/4
f 99/205/3 163/204/3 162/206/3
f 98/207/2 162/208/2 161/209/2
f 97/210/1 161/209/1 192/144/1
f 160/211/1 257/212/1 288/213/1
f 129/214/2 258/215/2 257/212/2
f 130/216/3 259/217/3 258/218/3
f 131/219/4 260/220/4 259/217/4
f 132/221/5 261/222/5 260/220/5
f 133/223/6 262/224/6 261/222/6
f 134/225/7 263/226/7 262/224/7
f 135/227/8 264/228/8 263/226/8
f 136/229/9 265/230/9 264/228/9
f 137/231/10 266/232/10 265/230/10
f 138/233/11 267/234/11 266/235/11
f 139/236/12 268/237/12 267/234/12
f 140/238/13 269/239/13 268/237/13
f 141/240/14 270/241/14 269/239/14
f 142/242/15 271/243/15 270/241/15
f 143/244/16 272/245/16 271/243/16
f 144/246/17 273/247/17 272/245/17
f 145/248/18 274/249/18 273/247/18
f 146/250/19 275/251/19 274/252/19
f 147/253/20 276/254/20 275/251/20
f 148/255/21 277/256/21 276/254/21
f 149/257/22 278/258/22 277/256/22
f 150/259/23 279/260/23 278/258/23
f 151/261/24 280/262/24 279/260/24
f 152/263/25 281/264/25 280/262/25
f 153/265/26 282/266/26 281/264/26
f 154/267/27 283/268/27 282/269/27
f 155/270/28 284/271/28 283/268/28
f 156/272/29 285/273/29 284/271/29
f 157/274/30 286/275/30 285/273/30
f 158/276/32 287/277/32 286/275/32
f 159/278/33 288/213/33 287/277/33
f 192/144/1 66/139/1 65/142/1
f 161/209/2 67/279/2 66/139/2
f 162/206/3 68/135/3 67/137/3
f 163/204/4 69/133/4 68/135/4
f 164/202/5 70/131/5 69/133/5
f 165/200/6 71/129/6 70/131/6
f 166/198/7 72/127/7 71/129/7
f 167/196/8 73/125/8 72/127/8
f 168/194/9 74/122/9 73/125/9
f 169/192/10 75/280/10 74/122/10
f 170/189/11 76/118/11 75/120/11
f 171/187/12 77/116/12 76/118/12
f 172/185/13 78/114/13 77/116/13
f 173/183/14 79/112/14 78/114/14
f 174/181/15 80/110/15 79/112/15
f 175/179/16 81/108/16 80/110/16
f 176/177/17 82/105/17 81/108/17
f 177/175/18 83/281/18 82/105/18
f 178/172/19 84/101/19 83/103/19
f 179/170/20 85/99/20 84/101/20
f 180/168/21 86/97/21 85/99/21
f 181/166/22 87/95/22 86/97/22
f 182/164/23 88/93/23 87/95/23
f 183/162/24 89/91/24 88/93/24
f 184/160/25 90/88/25 89/91/25
f 185/158/26 91/282/26 90/88/26
f 186/155/27 92/84/27 91/86/27
f 187/153/28 93/82/28 92/84/28
f 188/151/29 94/80/29 93/82/29
f 189/149/30 95/78/30 94/80/30
f 190/147/32 96/75/32 95/78/32
f 191/145/33 65/142/33 96/75/33
f 224/70/33 97/210/33 128/143/33
f 223/65/32 128/143/32 127/146/32
f 222/63/30 127/146/30 126/148/30
f 221/61/29 126/148/29 125/150/29
f 220/58/28 125/150/28 124/152/28
f 219/59/27 124/152/27 123/154/27
f 218/54/26 123/283/26 122/156/26
f 217/52/25 122/156/25 121/159/25
f 216/50/24 121/159/24 120/161/24
f 215/48/23 120/161/23 119/163/23
f 214/46/22 119/163/22 118/165/22
f 213/44/21 118/165/21 117/167/21
f 212/41/20 117/167/20 116/169/20
f 211/42/19 116/169/19 115/171/19
f 210/37/18 115/284/18 114/173/18
f 209/35/17 114/173/17 113/176/17
f 208/33/16 113/176/16 112/178/16
f 207/31/15 112/178/15 111/180/15
f 206/29/14 111/180/14 110/182/14
f 205/27/13 110/182/13 109/184/13
f 204/24/12 109/184/12 108/186/12
f 203/25/11 108/186/11 107/188/11
f 202/20/10 107/285/10 106/190/10
f 201/18/9 106/190/9 105/193/9
f 200/16/8 105/193/8 104/195/8
f 199/14/7 104/195/7 103/197/7
f 198/12/6 103/197/6 102/199/6
f 197/10/5 102/199/5 101/201/5
f 196/7/4 101/201/4 100/203/4
f 195/8/3 100/203/3 99/205/3
f 194/2/2 99/286/2 98/207/2
f 193/3/1 98/207/1 97/210/1
f 225/76/1 129/214/1 160/211/1
f 226/141/2 130/287/2 129/214/2
f 227/138/3 131/219/3 130/216/3
f 228/136/4 132/221/4 131/219/4
f 229/134/5 133/223/5 132/221/5
f 230/132/6 134/225/6 133/223/6
f 231/130/7 135/227/7 134/225/7
f 232/128/8 136/229/8 135/227/8
f 233/126/9 137/231/9 136/229/9
f 234/124/10 138/288/10 137/231/10
f 235/121/11 139/236/11 138/233/11
f 236/119/12 140/238/12 139/236/12
f 237/117/13 141/240/13 140/238/13
f 238/115/14 142/242/14 141/240/14
f 239/113/15 143/244/15 142/242/15
f 240/111/16 144/246/16 143/244/16
f 241/109/17 145/248/17 144/246/17
f 242/107/18 146/289/18 145/248/18
f 243/104/19 147/253/19 146/250/19
f 244/102/20 148/255/20 147/253/20
f 245/100/21 149/257/21 148/255/21
f 246/98/22 150/259/22 149/257/22
f 247/96/23 151/261/23 150/259/23
f 248/94/24 152/263/24 151/261/24
f 249/92/25 153/265/25 152/263/25
f 250/90/26 154/290/26 153/265/26
f 251/87/27 155/270/27 154/267/27
f 252/85/28 156/272/28 155/270/28
f 253/83/29 157/274/29 156/272/29
f 254/81/30 158/276/30 157/274/30
f 255/79/32 159/278/32 158/276/32
f 256/77/33 160/211/33 159/278/33
f 287/277/33 1/291/33 63/292/33
f 286/275/32 63/292/32 61/293/32
f 285/273/30 61/293/30 59/294/30
f 284/271/29 59/294/29 57/295/29
f 283/268/28 57/295/28 55/296/28
f 282/269/27 55/296/27 53/297/27
f 281/264/26 53/298/26 51/299/26
f 280/262/25 51/299/25 49/300/25
f 279/260/24 49/300/24 47/301/24
f 278/258/23 47/301/23 45/302/23
f 277/256/22 45/302/22 43/303/22
f 276/254/21 43/303/21 41/304/21
f 275/251/20 41/304/20 39/305/20
f 274/252/19 39/305/19 37/306/19
f 273/247/18 37/307/18 35/308/18
f 272/245/17 35/308/17 33/309/17
f 271/243/16 33/309/16 31/310/16
f 270/241/15 31/310/15 29/311/15
f 269/239/14 29/311/14 27/312/14
f 268/237/13 27/312/13 25/313/13
f 267/234/12 25/313/12 23/314/12
f 266/235/11 23/314/11 21/315/11
f 265/230/10 21/316/10 19/55/10
f 264/228/9 19/55/9 17/53/9
f 263/226/8 17/53/8 15/51/8
f 262/224/7 15/51/7 13/49/7
f 261/222/6 13/49/6 11/47/6
f 260/220/5 11/47/5 9/45/5
f 259/217/4 9/45/4 7/43/4
f 258/218/3 7/43/3 5/40/3
f 257/212/2 5/317/2 3/318/2
f 288/213/1 3/318/1 1/291/1
f 2/1/1 4/4/1 194/2/1
f 4/4/2 6/319/2 195/5/2
f 6/6/3 8/9/3 196/7/3
f 8/9/4 10/11/4 197/10/4
f 10/11/5 12/13/5 198/12/5
f 12/13/6 14/15/6 199/14/6
f 14/15/7 16/17/7 200/16/7
f 16/17/8 18/19/8 201/18/8
f 18/19/9 20/21/9 202/20/9
f 20/21/10 22/320/10 203/22/10
f 22/23/11 24/26/11 204/24/11
f 24/26/12 26/28/12 205/27/12
f 26/28/13 28/30/13 206/29/13
f 28/30/14 30/32/14 207/31/14
f 30/32/15 32/34/15 208/33/15
f 32/34/16 34/36/16 209/35/16
f 34/36/17 36/38/17 210/37/17
f 36/38/18 38/321/18 211/39/18
f 38/40/19 40/43/19 212/41/19
f 40/43/20 42/45/20 213/44/20
f 42/45/21 44/47/21 214/46/21
f 44/47/22 46/49/22 215/48/22
f 46/49/23 48/51/23 216/50/23
f 48/51/24 50/53/24 217/52/24
f 50/53/25 52/55/25 218/54/25
f 52/55/26 54/316/26 219/56/26
f 54/57/27 56/60/27 220/58/27
f 56/60/28 58/62/28 221/61/28
f 58/62/29 60/64/29 222/63/29
f 60/64/30 62/69/30 223/65/30
f 6/68/31 4/322/31 2/323/31
f 2/323/31 64/324/31 6/68/31
f 64/324/31 62/325/31 6/68/31
f 62/325/31 60/326/31 58/327/31
f 58/327/31 56/328/31 54/329/31
f 54/329/31 52/330/31 50/331/31
f 50/331/31 48/332/31 54/329/31
f 48/332/31 46/333/31 54/329/31
f 46/333/31 44/334/31 42/335/31
f 42/335/31 40/336/31 38/66/31
f 38/66/31 36/337/31 30/338/31
f 36/337/31 34/339/31 30/338/31
f 34/339/31 32/340/31 30/338/31
f 30/338/31 28/341/31 26/342/31
f 26/342/31 24/343/31 22/67/31
f 22/67/31 20/344/31 14/345/31
f 20/344/35 18/346/35 14/345/35
f 18/346/31 16/347/31 14/345/31
f 14/345/31 12/348/31 10/349/31
f 10/349/31 8/350/31 6/68/31
f 62/325/31 58/327/31 6/68/31
f 58/327/31 54/329/31 6/68/31
f 46/333/31 42/335/31 54/329/31
f 42/335/31 38/66/31 54/329/31
f 30/338/31 26/342/31 38/66/31
f 26/342/31 22/67/31 38/66/31
f 14/345/31 10/349/31 22/67/31
f 10/349/31 6/68/31 22/67/31
f 6/68/31 54/329/31 38/66/31
f 62/69/32 64/71/32 224/70/32
f 64/71/33 2/1/33 193/3/33
f 63/74/34 1/351/34 3/352/34
f 3/352/34 5/353/34 7/354/34
f 7/354/34 9/355/34 11/356/34
f 11/356/34 13/357/34 15/358/34
f 15/358/34 17/359/34 19/360/34
f 19/360/34 21/361/34 23/362/34
f 23/362/34 25/363/34 27/364/34
f 27/364/34 29/365/34 31/72/34
f 31/72/34 33/366/34 35/367/34
f 35/367/34 37/368/34 39/369/34
f 39/369/34 41/370/34 43/371/34
f 43/371/34 45/372/34 47/73/34
f 47/73/34 49/373/34 51/374/34
f 51/374/34 53/375/34 55/376/34
f 55/376/34 57/377/34 59/378/34
f 59/378/34 61/379/34 63/74/34
f 63/74/34 3/352/34 15/358/34
f 3/352/34 7/354/34 15/358/34
f 7/354/36 11/356/36 15/358/36
f 15/358/34 19/360/34 31/72/34
f 19/360/34 23/362/34 31/72/34
f 23/362/34 27/364/34 31/72/34
f 31/72/34 35/367/34 47/73/34
f 35/367/34 39/369/34 47/73/34
f 39/369/34 43/371/34 47/73/34
f 47/73/34 51/374/34 63/74/34
f 51/374/34 55/376/34 63/74/34
f 55/376/34 59/378/34 63/74/34
f 63/74/34 15/358/34 31/72/34
f 96/75/33 65/142/33 225/76/33
f 95/78/32 96/75/32 256/77/32
f 94/80/30 95/78/30 255/79/30
f 93/82/29 94/80/29 254/81/29
f 92/84/28 93/82/28 253/83/28
f 91/86/27 92/84/27 252/85/27
f 90/88/26 91/282/26 251/89/26
f 89/91/25 90/88/25 250/90/25
f 88/93/24 89/91/24 249/92/24
f 87/95/23 88/93/23 248/94/23
f 86/97/22 87/95/22 247/96/22
f 85/99/21 86/97/21 246/98/21
f 84/101/20 85/99/20 245/100/20
f 83/103/19 84/101/19 244/102/19
f 82/105/18 83/281/18 243/106/18
f 81/108/17 82/105/17 242/107/17
f 80/110/16 81/108/16 241/109/16
f 79/112/15 80/110/15 240/111/15
f 78/114/14 79/112/14 239/113/14
f 77/116/13 78/114/13 238/115/13
f 76/118/12 77/116/12 237/117/12
f 75/120/11 76/118/11 236/119/11
f 74/122/10 75/280/10 235/123/10
f 73/125/9 74/122/9 234/124/9
f 72/127/8 73/125/8 233/126/8
f 71/129/7 72/127/7 232/128/7
f 70/131/6 71/129/6 231/130/6
f 69/133/5 70/131/5 230/132/5
f 68/135/4 69/133/4 229/134/4
f 67/137/3 68/135/3 228/136/3
f 66/139/2 67/279/2 227/140/2
f 65/142/1 66/139/1 226/141/1
f 128/143/33 97/210/33 192/144/33
f 127/146/32 128/143/32 191/145/32
f 126/148/30 127/146/30 190/147/30
f 125/150/29 126/148/29 189/149/29
f 124/152/28 125/150/28 188/151/28
f 123/154/27 124/152/27 187/153/27
f 122/156/26 123/283/26 186/157/26
f 121/159/25 122/156/25 185/158/25
f 120/161/24 121/159/24 184/160/24
f 119/163/23 120/161/23 183/162/23
f 118/165/22 119/163/22 182/164/22
f 117/167/21 118/165/21 181/166/21
f 116/169/20 117/167/20 180/168/20
f 115/171/19 116/169/19 179/170/19
f 114/173/18 115/284/18 178/174/18
f 113/176/17 114/173/17 177/175/17
f 112/178/16 113/176/16 176/177/16
f 111/180/15 112/178/15 175/179/15
f 110/182/14 111/180/14 174/181/14
f 109/184/13 110/182/13 173/183/13
f 108/186/12 109/184/12 172/185/12
f 107/188/11 108/186/11 171/187/11
f 106/190/10 107/285/10 170/191/10
f 105/193/9 106/190/9 169/192/9
f 104/195/8 105/193/8 168/194/8
f 103/197/7 104/195/7 167/196/7
f 102/199/6 103/197/6 166/198/6
f 101/201/5 102/199/5 165/200/5
f 100/203/4 101/201/4 164/202/4
f 99/205/3 100/203/3 163/204/3
f 98/207/2 99/286/2 162/208/2
f 97/210/1 98/207/1 161/209/1
f 160/211/1 129/214/1 257/212/1
f 129/214/2 130/287/2 258/215/2
f 130/216/3 131/219/3 259/217/3
f 131/219/4 132/221/4 260/220/4
f 132/221/5 133/223/5 261/222/5
f 133/223/6 134/225/6 262/224/6
f 134/225/7 135/227/7 263/226/7
f 135/227/8 136/229/8 264/228/8
f 136/229/9 137/231/9 265/230/9
f 137/231/10 138/288/10 266/232/10
f 138/233/11 139/236/11 267/234/11
f 139/236/12 140/238/12 268/237/12
f 140/238/13 141/240/13 269/239/13
f 141/240/14 142/242/14 270/241/14
f 142/242/15 143/244/15 271/243/15
f 143/244/16 144/246/16 272/245/16
f 144/246/17 145/248/17 273/247/17
f 145/248/18 146/289/18 274/249/18
f 146/250/19 147/253/19 275/251/19
f 147/253/20 148/255/20 276/254/20
f 148/255/21 149/257/21 277/256/21
f 149/257/22 150/259/22 278/258/22
f 150/259/23 151/261/23 279/260/23
f 151/261/24 152/263/24 280/262/24
f 152/263/25 153/265/25 281/264/25
f 153/265/26 154/290/26 282/266/26
f 154/267/27 155/270/27 283/268/27
f 155/270/28 156/272/28 284/271/28
f 156/272/29 157/274/29 285/273/29
f 157/274/30 158/276/30 286/275/30
f 158/276/32 159/278/32 287/277/32
f 159/278/33 160/211/33 288/213/33
f 192/144/1 161/209/1 66/139/1
f 161/209/2 162/208/2 67/279/2
f 162/206/3 163/204/3 68/135/3
f 163/204/4 164/202/4 69/133/4
f 164/202/5 165/200/5 70/131/5
f 165/200/6 166/198/6 71/129/6
f 166/198/7 167/196/7 72/127/7
f 167/196/8 168/194/8 73/125/8
f 168/194/9 169/192/9 74/122/9
f 169/192/10 170/191/10 75/280/10
f 170/189/11 171/187/11 76/118/11
f 171/187/12 172/185/12 77/116/12
f 172/185/13 173/183/13 78/114/13
f 173/183/14 174/181/14 79/112/14
f 174/181/15 175/179/15 80/110/15
f 175/179/16 176/177/16 81/108/16
f 176/177/17 177/175/17 82/105/17
f 177/175/18 178/174/18 83/281/18
f 178/172/19 179/170/19 84/101/19
f 179/170/20 180/168/20 85/99/20
f 180/168/21 181/166/21 86/97/21
f 181/166/22 182/164/22 87/95/22
f 182/164/23 183/162/23 88/93/23
f 183/162/24 184/160/24 89/91/24
f 184/160/25 185/158/25 90/88/25
f 185/158/26 186/157/26 91/282/26
f 186/155/27 187/153/27 92/84/27
f 187/153/28 188/151/28 93/82/28
f 188/151/29 189/149/29 94/80/29
f 189/149/30 190/147/30 95/78/30
f 190/147/32 191/145/32 96/75/32
f 191/145/33 192/144/33 65/142/33
f 224/70/33 193/3/33 97/210/33
f 223/65/32 224/70/32 128/143/32
f 222/63/30 223/65/30 127/146/30
f 221/61/29 222/63/29 126/148/29
f 220/58/28 221/61/28 125/150/28
f 219/59/27 220/58/27 124/152/27
f 218/54/26 219/56/26 123/283/26
f 217/52/25 218/54/25 122/156/25
f 216/50/24 217/52/24 121/159/24
f 215/48/23 216/50/23 120/161/23
f 214/46/22 215/48/22 119/163/22
f 213/44/21 214/46/21 118/165/21
f 212/41/20 213/44/20 117/167/20
f 211/42/19 212/41/19 116/169/19
f 210/37/18 211/39/18 115/284/18
f 209/35/17 210/37/17 114/173/17
f 208/33/16 209/35/16 113/176/16
f 207/31/15 208/33/15 112/178/15
f 206/29/14 207/31/14 111/180/14
f 205/27/13 206/29/13 110/182/13
f 204/24/12 205/27/12 109/184/12
f 203/25/11 204/24/11 108/186/11
f 202/20/10 203/22/10 107/285/10
f 201/18/9 202/20/9 106/190/9
f 200/16/8 201/18/8 105/193/8
f 199/14/7 200/16/7 104/195/7
f 198/12/6 199/14/6 103/197/6
f 197/10/5 198/12/5 102/199/5
f 196/7/4 197/10/4 101/201/4
f 195/8/3 196/7/3 100/203/3
f 194/2/2 195/5/2 99/286/2
f 193/3/1 194/2/1 98/207/1
f 225/76/1 226/141/1 129/214/1
f 226/141/2 227/140/2 130/287/2
f 227/138/3 228/136/3 131/219/3
f 228/136/4 229/134/4 132/221/4
f 229/134/5 230/132/5 133/223/5
f 230/132/6 231/130/6 134/225/6
f 231/130/7 232/128/7 135/227/7
f 232/128/8 233/126/8 136/229/8
f 233/126/9 234/124/9 137/231/9
f 234/124/10 235/123/10 138/288/10
f 235/121/11 236/119/11 139/236/11
f 236/119/12 237/117/12 140/238/12
f 237/117/13 238/115/13 141/240/13
f 238/115/14 239/113/14 142/242/14
f 239/113/15 240/111/15 143/244/15
f 240/111/16 241/109/16 144/246/16
f 241/109/17 242/107/17 145/248/17
f 242/107/18 243/106/18 146/289/18
f 243/104/19 244/102/19 147/253/19
f 244/102/20 245/100/20 148/255/20
f 245/100/21 246/98/21 149/257/21
f 246/98/22 247/96/22 150/259/22
f 247/96/23 248/94/23 151/261/23
f 248/94/24 249/92/24 152/263/24
f 249/92/25 250/90/25 153/265/25
f 250/90/26 251/89/26 154/290/26
f 251/87/27 252/85/27 155/270/27
f 252/85/28 253/83/28 156/272/28
f 253/83/29 254/81/29 157/274/29
f 254/81/30 255/79/30 158/276/30
f 255/79/32 256/77/32 159/278/32
f 256/77/33 225/76/33 160/211/33
f 287/277/33 288/213/33 1/291/33
f 286/275/32 287/277/32 63/292/32
f 285/273/30 286/275/30 61/293/30
f 284/271/29 285/273/29 59/294/29
f 283/268/28 284/271/28 57/295/28
f 282/269/27 283/268/27 55/296/27
f 281/264/26 282/266/26 53/298/26
f 280/262/25 281/264/25 51/299/25
f 279/260/24 280/262/24 49/300/24
f 278/258/23 279/260/23 47/301/23
f 277/256/22 278/258/22 45/302/22
f 276/254/21 277/256/21 43/303/21
f 275/251/20 276/254/20 41/304/20
f 274/252/19 275/251/19 39/305/19
f 273/247/18 274/249/18 37/307/18
f 272/245/17 273/247/17 35/308/17
f 271/243/16 272/245/16 33/309/16
f 270/241/15 271/243/15 31/310/15
f 269/239/14 270/241/14 29/311/14
f 268/237/13 269/239/13 27/312/13
f 267/234/12 268/237/12 25/313/12
f 266/235/11 267/234/11 23/314/11
f 265/230/10 266/232/10 21/316/10
f 264/228/9 265/230/9 19/55/9
f 263/226/8 264/228/8 17/53/8
f 262/224/7 263/226/7 15/51/7
f 261/222/6 262/224/6 13/49/6
f 260/220/5 261/222/5 11/47/5
f 259/217/4 260/220/4 9/45/4
f 258/218/3 259/217/3 7/43/3
f 257/212/2 258/215/2 5/317/2
f 288/213/1 257/212/1 3/318/1
