# Blender 4.5.3 LTS
# www.blender.org
o C1_C3_VR_UW
v 9.348705 19.400028 7.954409
v 9.448641 19.567942 7.970131
v 9.526422 19.741756 8.016694
v 9.579058 19.914791 8.092308
v 9.604527 20.080399 8.194068
v 9.601850 20.232212 8.318063
v 9.571130 20.364399 8.459528
v 9.513548 20.471880 8.613026
v 9.431315 20.550524 8.772658
v 9.327594 20.597307 8.932291
v 9.206369 20.610434 9.085789
v 9.072300 20.589397 9.227254
v 8.930537 20.535009 9.351249
v 8.786530 20.449358 9.453009
v 8.645812 20.335735 9.528623
v 8.513791 20.198505 9.575186
v 8.395540 20.042946 9.590908
v 8.295605 19.875031 9.575186
v 8.217824 19.701216 9.528623
v 8.165188 19.528181 9.453009
v 8.139719 19.362574 9.351249
v 8.142396 19.210758 9.227254
v 8.173116 19.078571 9.085789
v 8.230698 18.971092 8.932291
v 8.312930 18.892448 8.772658
v 8.416652 18.845665 8.613026
v 8.537876 18.832539 8.459528
v 8.671946 18.853573 8.318063
v 8.813708 18.907963 8.194068
v 8.957716 18.993614 8.092308
v 9.098433 19.107239 8.016694
v 9.230454 19.244467 7.970131
v -2.183418 27.178541 -1.818250
v -2.083482 27.346455 -1.802528
v -2.005702 27.520269 -1.755965
v -1.953065 27.693306 -1.680350
v -1.927596 27.858912 -1.578590
v -1.930273 28.010727 -1.454595
v -1.960993 28.142914 -1.313131
v -2.018575 28.250395 -1.159633
v -2.100807 28.329037 -1.000000
v -2.204529 28.375822 -0.840367
v -2.325753 28.388948 -0.686869
v -2.459823 28.367912 -0.545405
v -2.601586 28.313524 -0.421410
v -2.745593 28.227871 -0.319650
v -2.886311 28.114248 -0.244035
v -3.018332 27.977020 -0.197472
v -3.136583 27.821459 -0.181750
v -3.236518 27.653545 -0.197472
v -3.314299 27.479731 -0.244035
v -3.366935 27.306694 -0.319650
v -3.392404 27.141088 -0.421410
v -3.389727 26.989273 -0.545405
v -3.359007 26.857086 -0.686869
v -3.301425 26.749605 -0.840367
v -3.219193 26.670963 -1.000000
v -3.115472 26.624178 -1.159633
v -2.994247 26.611052 -1.313131
v -2.860177 26.632088 -1.454595
v -2.718415 26.686476 -1.578590
v -2.574407 26.772129 -1.680350
v -2.433689 26.885752 -1.755965
v -2.301668 27.022980 -1.802528
v 3.582644 23.289284 3.068079
v 3.682579 23.457199 3.083801
v 3.760360 23.631012 3.130364
v 3.812996 23.804049 3.205979
v 3.838465 23.969656 3.307739
v 3.835788 24.121469 3.431734
v 3.805068 24.253656 3.573198
v 3.747486 24.361137 3.726696
v 3.665254 24.439781 3.886329
v 3.561533 24.486565 4.045962
v 3.440308 24.499691 4.199460
v 3.306238 24.478655 4.340925
v 3.164476 24.424267 4.464920
v 3.020468 24.338615 4.566679
v 2.879750 24.224991 4.642294
v 2.747729 24.087763 4.688857
v 2.629479 23.932201 4.704579
v 2.529543 23.764288 4.688857
v 2.451762 23.590473 4.642294
v 2.399127 23.417439 4.566679
v 2.373657 23.251831 4.464920
v 2.376334 23.100018 4.340925
v 2.407054 22.967829 4.199460
v 2.464637 22.860348 4.045962
v 2.546869 22.781706 3.886329
v 2.650590 22.734921 3.726696
v 2.771815 22.721794 3.573198
v 2.905885 22.742830 3.431734
v 3.047647 22.797218 3.307739
v 3.191654 22.882872 3.205979
v 3.332372 22.996494 3.130364
v 3.464393 23.133724 3.083801
v 0.799549 25.401827 0.640637
v 0.877329 25.575642 0.687200
v 0.929965 25.748676 0.762815
v 0.955434 25.914284 0.864574
v 0.952757 26.066097 0.988569
v 0.922038 26.198286 1.130034
v 0.864455 26.305765 1.283532
v 0.782223 26.384409 1.443165
v 0.678502 26.431192 1.602797
v 0.557277 26.444319 1.756295
v 0.423208 26.423285 1.897760
v 0.281445 26.368895 2.021755
v 0.137438 26.283243 2.123515
v -0.003280 26.169621 2.199129
v -0.135301 26.032391 2.245692
v -0.253552 25.876831 2.261415
v -0.353487 25.708916 2.245692
v -0.431268 25.535101 2.199129
v -0.483904 25.362066 2.123515
v -0.509373 25.196459 2.021755
v -0.506696 25.044645 1.897760
v -0.475976 24.912458 1.756295
v -0.418394 24.804977 1.602797
v -0.336162 24.726334 1.443165
v -0.232441 24.679550 1.283532
v -0.111216 24.666424 1.130034
v 0.022854 24.687458 0.988569
v 0.164616 24.741848 0.864574
v 0.308624 24.827499 0.762815
v 0.449342 24.941124 0.687200
v 0.581362 25.078352 0.640637
v 0.699613 25.233913 0.624914
v 6.465674 21.344656 5.511243
v 6.565610 21.512569 5.526966
v 6.643391 21.686384 5.573529
v 6.696027 21.859421 5.649143
v 6.721496 22.025028 5.750903
v 6.718819 22.176842 5.874898
v 6.688099 22.309029 6.016363
v 6.630517 22.416510 6.169861
v 6.548285 22.495152 6.329494
v 6.444563 22.541935 6.489126
v 6.323339 22.555063 6.642624
v 6.189269 22.534027 6.784089
v 6.047506 22.479639 6.908084
v 5.903499 22.393986 7.009844
v 5.762781 22.280363 7.085458
v 5.630760 22.143135 7.132021
v 5.512509 21.987574 7.147743
v 5.412574 21.819660 7.132021
v 5.334793 21.645845 7.085458
v 5.282157 21.472809 7.009844
v 5.256688 21.307201 6.908084
v 5.259365 21.155388 6.784089
v 5.290085 21.023201 6.642624
v 5.347667 20.915720 6.489126
v 5.429899 20.837078 6.329494
v 5.533621 20.790295 6.169861
v 5.654845 20.777166 6.016363
v 5.788915 20.798203 5.874898
v 5.930677 20.852591 5.750903
v 6.074685 20.938244 5.649143
v 6.215403 21.051867 5.573529
v 6.347424 21.189095 5.526966
vn 0.5291 -0.2387 -0.8143
vn 0.6184 -0.0670 -0.7830
vn 0.6839 0.1073 -0.7216
vn 0.7232 0.2774 -0.6325
vn 0.7346 0.4369 -0.5191
vn 0.7178 0.5796 -0.3857
vn 0.6735 0.7000 -0.2375
vn 0.6032 0.7935 -0.0802
vn 0.5098 0.8566 0.0802
vn 0.3968 0.8867 0.2375
vn 0.2685 0.8827 0.3857
vn 0.1299 0.8448 0.5191
vn -0.0137 0.7744 0.6325
vn -0.1567 0.6743 0.7216
vn -0.2937 0.5483 0.7830
vn -0.4195 0.4012 0.8143
vn -0.5291 0.2387 0.8143
vn -0.6184 0.0670 0.7830
vn -0.6839 -0.1073 0.7216
vn -0.7232 -0.2774 0.6325
vn -0.7346 -0.4369 0.5191
vn -0.7178 -0.5796 0.3857
vn -0.6735 -0.7000 0.2375
vn -0.6032 -0.7935 0.0802
vn -0.5098 -0.8566 -0.0802
vn -0.3968 -0.8867 -0.2375
vn -0.2685 -0.8827 -0.3857
vn -0.1299 -0.8448 -0.5191
vn 0.0137 -0.7744 -0.6325
vn 0.1567 -0.6743 -0.7216
vn 0.6784 -0.4576 0.5749
vn 0.2937 -0.5483 -0.7830
vn 0.4195 -0.4012 -0.8143
vn -0.6784 0.4576 -0.5749
vn 0.6784 -0.4575 0.5749
vt 0.498793 0.311853
vt 0.561444 0.266465
vt 0.561444 0.311853
vt 0.498793 0.266465
vt 0.561444 0.218282
vt 0.498793 0.218282
vt 0.561444 0.169156
vt 0.498793 0.169156
vt 0.561444 0.120973
vt 0.498793 0.120973
vt 0.561444 0.075585
vt 0.498793 0.075585
vt 0.561444 0.034738
vt 0.498793 0.034738
vt 0.561444 -0.000000
vt 0.498793 0.705400
vt 0.561444 0.664553
vt 0.561444 0.705400
vt 0.498793 0.664553
vt 0.561444 0.619165
vt 0.498793 0.619165
vt 0.561444 0.570983
vt 0.498793 0.570983
vt 0.561444 0.521856
vt 0.498793 0.521856
vt 0.561444 0.473673
vt 0.498793 0.473673
vt 0.561444 0.428286
vt 0.498793 0.428286
vt 0.561444 0.387438
vt 0.498793 0.387438
vt 0.561444 0.352700
vt 0.749397 0.352700
vt 0.812047 0.311853
vt 0.812047 0.352700
vt 0.749397 0.311853
vt 0.812047 0.266465
vt 0.749397 0.266465
vt 0.812047 0.218282
vt 0.749397 0.218282
vt 0.812047 0.169156
vt 0.749397 0.169156
vt 0.812047 0.120973
vt 0.749397 0.120973
vt 0.812047 0.075585
vt 0.749397 0.075585
vt 0.812047 0.034738
vt 0.749397 0.034738
vt 0.812047 0.000000
vt 0.749397 0.705400
vt 0.812047 0.664553
vt 0.812047 0.705400
vt 0.749397 0.664553
vt 0.812047 0.619165
vt 0.749397 0.619165
vt 0.812048 0.570983
vt 0.749397 0.570983
vt 0.812048 0.521856
vt 0.749397 0.521856
vt 0.812048 0.473673
vt 0.749397 0.473673
vt 0.812048 0.428286
vt 0.749397 0.428286
vt 0.812048 0.387438
vt 0.367530 0.028384
vt 0.470409 0.367530
vt 0.131263 0.470409
vt 0.749397 0.387438
vt 0.812048 0.352700
vt 0.498793 0.352700
vt 0.561444 0.352700
vt 0.367530 0.527178
vt 0.470409 0.866324
vt 0.131263 0.969202
vt 0.624095 0.352700
vt 0.686746 0.311853
vt 0.686746 0.352700
vt 0.874698 0.387438
vt 0.937349 0.352700
vt 0.937349 0.387438
vt 0.874698 0.428286
vt 0.937349 0.428286
vt 0.874698 0.473673
vt 0.937349 0.473673
vt 0.874698 0.521856
vt 0.937349 0.521856
vt 0.874698 0.570983
vt 0.937349 0.570983
vt 0.874698 0.619165
vt 0.937349 0.619166
vt 0.874698 0.664553
vt 0.937349 0.664553
vt 0.874698 0.705400
vt 0.937349 0.705400
vt 0.874698 0.034738
vt 0.937349 0.000000
vt 0.937349 0.034738
vt 0.874698 0.075585
vt 0.937349 0.075585
vt 0.874698 0.120973
vt 0.937349 0.120973
vt 0.874698 0.169156
vt 0.937349 0.169156
vt 0.874698 0.218282
vt 0.937349 0.218282
vt 0.874698 0.266465
vt 0.937349 0.266465
vt 0.874698 0.311853
vt 0.937349 0.311853
vt 0.874698 0.352700
vt 0.937349 0.352700
vt 0.624095 0.387438
vt 0.686746 0.352700
vt 0.686746 0.387438
vt 0.624095 0.428286
vt 0.686746 0.428286
vt 0.624095 0.473673
vt 0.686746 0.473673
vt 0.624095 0.521856
vt 0.686746 0.521856
vt 0.624095 0.570983
vt 0.686746 0.570983
vt 0.624095 0.619165
vt 0.686746 0.619165
vt 0.624095 0.664553
vt 0.686746 0.664553
vt 0.624095 0.705400
vt 0.686746 0.705400
vt 0.624095 0.034738
vt 0.686746 0.000000
vt 0.686746 0.034738
vt 0.624095 0.075585
vt 0.686746 0.075585
vt 0.624095 0.120973
vt 0.686746 0.120973
vt 0.624095 0.169156
vt 0.686746 0.169156
vt 0.624095 0.218282
vt 0.686746 0.218282
vt 0.624095 0.266465
vt 0.686746 0.266465
vt 0.624095 0.311853
vt 0.749397 0.311853
vt 0.749397 0.218282
vt 0.749397 0.169156
vt 0.749397 0.120973
vt 0.749397 0.075585
vt 0.749397 0.034738
vt 0.749397 0.000000
vt 0.749397 0.352700
vt 1.000000 0.311853
vt 1.000000 0.352700
vt 1.000000 0.266465
vt 1.000000 0.218282
vt 1.000000 0.169156
vt 1.000000 0.120973
vt 1.000000 0.075585
vt 1.000000 0.034738
vt 1.000000 0.000000
vt 1.000000 0.664553
vt 1.000000 0.705400
vt 1.000000 0.619166
vt 1.000000 0.570983
vt 1.000000 0.521856
vt 1.000000 0.473673
vt 1.000000 0.428286
vt 1.000000 0.387438
vt 1.000000 0.352700
vt 0.874698 0.352700
vt 0.874698 0.000000
vt 0.624095 0.352700
vt 0.624095 0.000000
vt 0.498793 -0.000000
vt 0.498793 0.352700
vt 0.749397 -0.000000
vt 0.090416 0.443116
vt 0.055678 0.408378
vt 0.028384 0.367530
vt 0.009584 0.322143
vt -0.000000 0.273960
vt 0.000000 0.224833
vt 0.009584 0.176650
vt 0.028384 0.131263
vt 0.055678 0.090416
vt 0.090416 0.055678
vt 0.131263 0.028384
vt 0.176650 0.009584
vt 0.224833 -0.000000
vt 0.273960 -0.000000
vt 0.322143 0.009584
vt 0.408378 0.055678
vt 0.489209 0.176650
vt 0.443116 0.090416
vt 0.470409 0.131263
vt 0.498793 0.224833
vt 0.498793 0.273960
vt 0.489209 0.322143
vt 0.443116 0.408378
vt 0.322143 0.489209
vt 0.408378 0.443116
vt 0.367530 0.470409
vt 0.273960 0.498793
vt 0.224833 0.498793
vt 0.176650 0.489209
vt 0.090416 0.941909
vt 0.055678 0.907171
vt 0.028384 0.866324
vt 0.009584 0.820936
vt 0.000000 0.772753
vt 0.000000 0.723627
vt 0.009584 0.675444
vt 0.028384 0.630056
vt 0.055678 0.589209
vt 0.090416 0.554471
vt 0.131263 0.527178
vt 0.176650 0.508377
vt 0.224833 0.498793
vt 0.273960 0.498793
vt 0.322143 0.508377
vt 0.408378 0.554471
vt 0.489209 0.675444
vt 0.443116 0.589209
vt 0.470409 0.630056
vt 0.498793 0.723627
vt 0.498793 0.772753
vt 0.489209 0.820936
vt 0.443116 0.907171
vt 0.322143 0.988002
vt 0.408378 0.941909
vt 0.367530 0.969202
vt 0.273960 0.997587
vt 0.224833 0.997587
vt 0.176650 0.988002
s 0
f 1/1/1 129/3/1 130/2/1
f 2/4/2 130/2/2 131/5/2
f 3/6/3 131/5/3 132/7/3
f 4/8/4 132/7/4 133/9/4
f 5/10/5 133/9/5 134/11/5
f 6/12/6 134/11/6 135/13/6
f 7/14/7 135/13/7 136/15/7
f 8/16/8 136/18/8 137/17/8
f 9/19/9 137/17/9 138/20/9
f 10/21/10 138/20/10 139/22/10
f 11/23/11 139/22/11 140/24/11
f 12/25/12 140/24/12 141/26/12
f 13/27/13 141/26/13 142/28/13
f 14/29/14 142/28/14 143/30/14
f 15/31/15 143/30/15 144/32/15
f 16/33/16 144/35/16 145/34/16
f 17/36/17 145/34/17 146/37/17
f 18/38/18 146/37/18 147/39/18
f 19/40/19 147/39/19 148/41/19
f 20/42/20 148/41/20 149/43/20
f 21/44/21 149/43/21 150/45/21
f 22/46/22 150/45/22 151/47/22
f 23/48/23 151/47/23 152/49/23
f 24/50/24 152/52/24 153/51/24
f 25/53/25 153/51/25 154/54/25
f 26/55/26 154/54/26 155/56/26
f 27/57/27 155/56/27 156/58/27
f 28/59/28 156/58/28 157/60/28
f 29/61/29 157/60/29 158/62/29
f 30/63/30 158/62/30 159/64/30
f 19/65/31 3/67/31 11/66/31
f 31/68/32 159/64/32 160/69/32
f 32/70/33 160/71/33 129/3/33
f 47/72/34 63/74/34 55/73/34
f 96/75/33 127/77/33 128/76/33
f 95/78/32 126/80/32 127/79/32
f 94/81/30 125/82/30 126/80/30
f 93/83/29 124/84/29 125/82/29
f 92/85/28 123/86/28 124/84/28
f 91/87/27 122/88/27 123/86/27
f 90/89/26 121/90/26 122/88/26
f 89/91/25 120/92/25 121/90/25
f 88/93/24 119/94/24 120/92/24
f 87/95/23 118/97/23 119/96/23
f 86/98/22 117/99/22 118/97/22
f 85/100/21 116/101/21 117/99/21
f 84/102/20 115/103/20 116/101/20
f 83/104/19 114/105/19 115/103/19
f 82/106/18 113/107/18 114/105/18
f 81/108/17 112/109/17 113/107/17
f 80/110/16 111/111/16 112/109/16
f 79/112/15 110/114/15 111/113/15
f 78/115/14 109/116/14 110/114/14
f 77/117/13 108/118/13 109/116/13
f 76/119/12 107/120/12 108/118/12
f 75/121/11 106/122/11 107/120/11
f 74/123/10 105/124/10 106/122/10
f 73/125/9 104/126/9 105/124/9
f 72/127/8 103/128/8 104/126/8
f 71/129/7 102/131/7 103/130/7
f 70/132/6 101/133/6 102/131/6
f 69/134/5 100/135/5 101/133/5
f 68/136/4 99/137/4 100/135/4
f 67/138/3 98/139/3 99/137/3
f 66/140/2 97/141/2 98/139/2
f 65/142/1 128/76/1 97/141/1
f 128/76/1 33/143/1 34/38/1
f 97/141/2 34/38/2 35/144/2
f 98/139/3 35/144/3 36/145/3
f 99/137/4 36/145/4 37/146/4
f 100/135/5 37/146/5 38/147/5
f 101/133/6 38/147/6 39/148/6
f 102/131/7 39/148/7 40/149/7
f 103/128/8 40/50/8 41/53/8
f 104/126/9 41/53/9 42/55/9
f 105/124/10 42/55/10 43/57/10
f 106/122/11 43/57/11 44/59/11
f 107/120/12 44/59/12 45/61/12
f 108/118/13 45/61/13 46/63/13
f 109/116/14 46/63/14 47/68/14
f 110/114/15 47/68/15 48/150/15
f 111/111/16 48/152/16 49/151/16
f 112/109/17 49/151/17 50/153/17
f 113/107/18 50/153/18 51/154/18
f 114/105/19 51/154/19 52/155/19
f 115/103/20 52/155/20 53/156/20
f 116/101/21 53/156/21 54/157/21
f 117/99/22 54/157/22 55/158/22
f 118/97/23 55/158/23 56/159/23
f 119/94/24 56/161/24 57/160/24
f 120/92/25 57/160/25 58/162/25
f 121/90/26 58/162/26 59/163/26
f 122/88/27 59/163/27 60/164/27
f 123/86/28 60/164/28 61/165/28
f 124/84/29 61/165/29 62/166/29
f 125/82/30 62/166/30 63/167/30
f 126/80/32 63/167/32 64/168/32
f 127/77/33 64/33/33 33/143/33
f 160/71/33 96/75/33 65/142/33
f 159/64/32 95/78/32 96/169/32
f 158/62/30 94/81/30 95/78/30
f 157/60/29 93/83/29 94/81/29
f 156/58/28 92/85/28 93/83/28
f 155/56/27 91/87/27 92/85/27
f 154/54/26 90/89/26 91/87/26
f 153/51/25 89/91/25 90/89/25
f 152/52/24 88/93/24 89/91/24
f 151/47/23 87/95/23 88/170/23
f 150/45/22 86/98/22 87/95/22
f 149/43/21 85/100/21 86/98/21
f 148/41/20 84/102/20 85/100/20
f 147/39/19 83/104/19 84/102/19
f 146/37/18 82/106/18 83/104/18
f 145/34/17 81/108/17 82/106/17
f 144/35/16 80/110/16 81/108/16
f 143/30/15 79/112/15 80/171/15
f 142/28/14 78/115/14 79/112/14
f 141/26/13 77/117/13 78/115/13
f 140/24/12 76/119/12 77/117/12
f 139/22/11 75/121/11 76/119/11
f 138/20/10 74/123/10 75/121/10
f 137/17/9 73/125/9 74/123/9
f 136/18/8 72/127/8 73/125/8
f 135/13/7 71/129/7 72/172/7
f 134/11/6 70/132/6 71/129/6
f 133/9/5 69/134/5 70/132/5
f 132/7/4 68/136/4 69/134/4
f 131/5/3 67/138/3 68/136/3
f 130/2/2 66/140/2 67/138/2
f 129/3/1 65/142/1 66/140/1
f 1/1/1 130/2/1 2/4/1
f 2/4/2 131/5/2 3/6/2
f 3/6/3 132/7/3 4/8/3
f 4/8/4 133/9/4 5/10/4
f 5/10/5 134/11/5 6/12/5
f 6/12/6 135/13/6 7/14/6
f 7/14/7 136/15/7 8/173/7
f 8/16/8 137/17/8 9/19/8
f 9/19/9 138/20/9 10/21/9
f 10/21/10 139/22/10 11/23/10
f 11/23/11 140/24/11 12/25/11
f 12/25/12 141/26/12 13/27/12
f 13/27/13 142/28/13 14/29/13
f 14/29/14 143/30/14 15/31/14
f 15/31/15 144/32/15 16/174/15
f 16/33/16 145/34/16 17/36/16
f 17/36/17 146/37/17 18/38/17
f 18/38/18 147/39/18 19/40/18
f 19/40/19 148/41/19 20/42/19
f 20/42/20 149/43/20 21/44/20
f 21/44/21 150/45/21 22/46/21
f 22/46/22 151/47/22 23/48/22
f 23/48/23 152/49/23 24/175/23
f 24/50/24 153/51/24 25/53/24
f 25/53/25 154/54/25 26/55/25
f 26/55/26 155/56/26 27/57/26
f 27/57/27 156/58/27 28/59/27
f 28/59/28 157/60/28 29/61/28
f 29/61/29 158/62/29 30/63/29
f 30/63/30 159/64/30 31/68/30
f 3/67/31 1/177/31 2/176/31
f 1/177/31 3/67/31 32/178/31
f 32/178/31 3/67/31 31/179/31
f 31/179/31 29/181/31 30/180/31
f 29/181/31 27/183/31 28/182/31
f 27/183/31 25/185/31 26/184/31
f 25/185/31 27/183/31 24/186/31
f 24/186/31 27/183/31 23/187/31
f 23/187/31 21/189/31 22/188/31
f 21/189/31 19/65/31 20/190/31
f 19/65/31 15/192/31 18/191/31
f 18/191/31 15/192/31 17/193/31
f 17/193/31 15/192/31 16/194/31
f 15/192/31 13/196/31 14/195/31
f 13/196/31 11/66/31 12/197/31
f 11/66/31 7/199/31 10/198/31
f 10/198/35 7/199/35 9/200/35
f 9/200/31 7/199/31 8/201/31
f 7/199/31 5/203/31 6/202/31
f 5/203/31 3/67/31 4/204/31
f 31/179/31 3/67/31 29/181/31
f 29/181/31 3/67/31 27/183/31
f 23/187/31 27/183/31 21/189/31
f 21/189/31 27/183/31 19/65/31
f 15/192/31 19/65/31 13/196/31
f 13/196/31 19/65/31 11/66/31
f 7/199/31 11/66/31 5/203/31
f 5/203/31 11/66/31 3/67/31
f 3/67/31 19/65/31 27/183/31
f 31/68/32 160/69/32 32/150/32
f 32/70/33 129/3/33 1/1/33
f 63/74/34 33/206/34 64/205/34
f 33/206/34 63/74/34 34/207/34
f 34/207/34 63/74/34 35/208/34
f 35/208/34 37/210/34 36/209/34
f 37/210/34 39/212/34 38/211/34
f 39/212/34 41/214/34 40/213/34
f 41/214/34 39/212/34 42/215/34
f 42/215/34 39/212/34 43/216/34
f 43/216/34 45/218/34 44/217/34
f 45/218/34 47/72/34 46/219/34
f 47/72/34 51/221/34 48/220/34
f 48/220/34 51/221/34 49/222/34
f 49/222/34 51/221/34 50/223/34
f 51/221/34 53/225/34 52/224/34
f 53/225/34 55/73/34 54/226/34
f 55/73/34 59/228/34 56/227/34
f 56/227/34 59/228/34 57/229/34
f 57/229/34 59/228/34 58/230/34
f 59/228/34 61/232/34 60/231/34
f 61/232/34 63/74/34 62/233/34
f 35/208/34 63/74/34 37/210/34
f 37/210/34 63/74/34 39/212/34
f 43/216/34 39/212/34 45/218/34
f 45/218/34 39/212/34 47/72/34
f 51/221/34 47/72/34 53/225/34
f 53/225/34 47/72/34 55/73/34
f 59/228/34 55/73/34 61/232/34
f 61/232/34 55/73/34 63/74/34
f 63/74/34 47/72/34 39/212/34
f 96/75/33 128/76/33 65/142/33
f 95/78/32 127/79/32 96/169/32
f 94/81/30 126/80/30 95/78/30
f 93/83/29 125/82/29 94/81/29
f 92/85/28 124/84/28 93/83/28
f 91/87/27 123/86/27 92/85/27
f 90/89/26 122/88/26 91/87/26
f 89/91/25 121/90/25 90/89/25
f 88/93/24 120/92/24 89/91/24
f 87/95/23 119/96/23 88/170/23
f 86/98/22 118/97/22 87/95/22
f 85/100/21 117/99/21 86/98/21
f 84/102/20 116/101/20 85/100/20
f 83/104/19 115/103/19 84/102/19
f 82/106/18 114/105/18 83/104/18
f 81/108/17 113/107/17 82/106/17
f 80/110/16 112/109/16 81/108/16
f 79/112/15 111/113/15 80/171/15
f 78/115/14 110/114/14 79/112/14
f 77/117/13 109/116/13 78/115/13
f 76/119/12 108/118/12 77/117/12
f 75/121/11 107/120/11 76/119/11
f 74/123/10 106/122/10 75/121/10
f 73/125/9 105/124/9 74/123/9
f 72/127/8 104/126/8 73/125/8
f 71/129/7 103/130/7 72/172/7
f 70/132/6 102/131/6 71/129/6
f 69/134/5 101/133/5 70/132/5
f 68/136/4 100/135/4 69/134/4
f 67/138/3 99/137/3 68/136/3
f 66/140/2 98/139/2 67/138/2
f 65/142/1 97/141/1 66/140/1
f 128/76/1 34/38/1 97/141/1
f 97/141/2 35/144/2 98/139/2
f 98/139/3 36/145/3 99/137/3
f 99/137/4 37/146/4 100/135/4
f 100/135/5 38/147/5 101/133/5
f 101/133/6 39/148/6 102/131/6
f 102/131/7 40/149/7 103/130/7
f 103/128/8 41/53/8 104/126/8
f 104/126/9 42/55/9 105/124/9
f 105/124/10 43/57/10 106/122/10
f 106/122/11 44/59/11 107/120/11
f 107/120/12 45/61/12 108/118/12
f 108/118/13 46/63/13 109/116/13
f 109/116/14 47/68/14 110/114/14
f 110/114/15 48/150/15 111/113/15
f 111/111/16 49/151/16 112/109/16
f 112/109/17 50/153/17 113/107/17
f 113/107/18 51/154/18 114/105/18
f 114/105/19 52/155/19 115/103/19
f 115/103/20 53/156/20 116/101/20
f 116/101/21 54/157/21 117/99/21
f 117/99/22 55/158/22 118/97/22
f 118/97/23 56/159/23 119/96/23
f 119/94/24 57/160/24 120/92/24
f 120/92/25 58/162/25 121/90/25
f 121/90/26 59/163/26 122/88/26
f 122/88/27 60/164/27 123/86/27
f 123/86/28 61/165/28 124/84/28
f 124/84/29 62/166/29 125/82/29
f 125/82/30 63/167/30 126/80/30
f 126/80/32 64/168/32 127/79/32
f 127/77/33 33/143/33 128/76/33
f 160/71/33 65/142/33 129/3/33
f 159/64/32 96/169/32 160/69/32
f 158/62/30 95/78/30 159/64/30
f 157/60/29 94/81/29 158/62/29
f 156/58/28 93/83/28 157/60/28
f 155/56/27 92/85/27 156/58/27
f 154/54/26 91/87/26 155/56/26
f 153/51/25 90/89/25 154/54/25
f 152/52/24 89/91/24 153/51/24
f 151/47/23 88/170/23 152/49/23
f 150/45/22 87/95/22 151/47/22
f 149/43/21 86/98/21 150/45/21
f 148/41/20 85/100/20 149/43/20
f 147/39/19 84/102/19 148/41/19
f 146/37/18 83/104/18 147/39/18
f 145/34/17 82/106/17 146/37/17
f 144/35/16 81/108/16 145/34/16
f 143/30/15 80/171/15 144/32/15
f 142/28/14 79/112/14 143/30/14
f 141/26/13 78/115/13 142/28/13
f 140/24/12 77/117/12 141/26/12
f 139/22/11 76/119/11 140/24/11
f 138/20/10 75/121/10 139/22/10
f 137/17/9 74/123/9 138/20/9
f 136/18/8 73/125/8 137/17/8
f 135/13/7 72/172/7 136/15/7
f 134/11/6 71/129/6 135/13/6
f 133/9/5 70/132/5 134/11/5
f 132/7/4 69/134/4 133/9/4
f 131/5/3 68/136/3 132/7/3
f 130/2/2 67/138/2 131/5/2
f 129/3/1 66/140/1 130/2/1
