# Blender 4.5.3 LTS
# www.blender.org
o C2_BASE
v -21.407000 -35.000000 10.000000
v -21.407000 -27.500000 10.000000
v -21.407000 -35.000000 11.000000
v -18.968370 -27.740185 10.000000
v -20.431547 -35.096073 10.000000
v -20.431547 -35.096073 11.000000
v -19.493582 -35.380604 10.000000
v -18.629148 -35.842651 10.000000
v -18.629148 -35.842651 11.000000
v -14.462372 -29.606630 11.000000
v -17.871466 -36.464466 10.000000
v -12.568165 -31.161165 10.000000
v -17.871466 -36.464466 11.000000
v -17.249653 -37.222149 10.000000
v -11.013630 -33.055370 11.000000
v -17.249653 -37.222149 11.000000
v -16.787601 -38.086582 10.000000
v -9.858506 -35.216457 11.000000
v -16.787601 -38.086582 11.000000
v -9.147184 -37.561371 10.000000
v -16.503075 -39.024548 11.000000
v -16.407000 -40.000000 10.000000
v -8.907000 -40.000000 10.000000
v -16.407000 -40.000000 11.000000
v -16.503075 -40.975452 10.000000
v -16.503075 -40.975452 11.000000
v -16.787601 -41.913418 10.000000
v -16.787601 -41.913418 11.000000
v -17.249653 -42.777851 10.000000
v -17.249653 -42.777851 11.000000
v -17.871466 -43.535534 10.000000
v -17.871466 -43.535534 11.000000
v -26.190542 -28.451508 11.000000
v -18.629148 -44.157349 10.000000
v -18.629148 -44.157349 11.000000
v -30.245831 -44.065289 11.000000
v -19.493582 -44.619396 10.000000
v -19.493582 -44.619396 11.000000
v -20.431547 -44.903927 11.000000
v -19.837940 -49.581963 10.000000
v -21.407000 -45.000000 10.000000
v -30.245836 -44.065292 10.000000
v -20.248734 -37.818409 10.000000
v -22.382452 -44.903927 10.000000
v -22.382452 -44.903927 11.000000
v -23.320417 -44.619396 10.000000
v -24.184851 -44.157349 10.000000
v -24.184851 -44.157349 11.000000
v -25.564346 -42.777851 10.000000
v -25.564346 -42.777851 11.000000
v -26.026398 -41.913418 10.000000
v -26.026398 -41.913418 11.000000
v -26.310925 -40.975452 10.000000
v -26.310925 -40.975452 11.000000
v -26.407000 -40.000000 10.000000
v -26.407000 -40.000000 11.000000
v -26.310925 -39.024548 10.000000
v -26.310925 -39.024548 11.000000
v -26.026398 -38.086582 10.000000
v -26.026398 -38.086582 11.000000
v -25.564346 -37.222149 10.000000
v -25.564346 -37.222149 11.000000
v -24.942533 -36.464466 10.000000
v -24.942533 -36.464466 11.000000
v -24.184851 -35.842651 10.000000
v -24.184851 -35.842651 11.000000
v -23.320417 -35.380604 10.000000
v -22.382452 -35.096073 10.000000
v -22.382452 -35.096073 11.000000
v -20.005812 -44.774780 10.000000
v -20.005812 -44.774780 11.000000
v -26.150005 -41.505932 11.000000
v -18.290199 -36.120823 10.000000
v -16.466848 -39.392345 11.000000
v -23.647232 -35.555290 10.000000
v -22.807688 -35.225067 10.000000
v -22.242950 -35.797394 10.000000
v -22.084049 -36.596241 10.000000
v -17.696695 -36.726028 11.000000
v -18.116188 -38.705929 11.000000
v -20.428072 -37.636662 11.000000
v -25.253441 -36.843307 10.000000
v -29.298731 -30.383898 10.000000
v -21.407000 -27.500000 11.000000
v -18.968370 -27.740185 11.000000
v -16.623457 -28.451508 10.000000
v -16.623457 -28.451508 11.000000
v -14.462372 -29.606630 10.000000
v -12.568165 -31.161165 11.000000
v -11.013630 -33.055370 10.000000
v -9.858506 -35.216457 10.000000
v -9.147184 -37.561371 11.000000
v -8.907000 -40.000000 11.000000
v -9.147184 -42.438629 10.000000
v -9.147184 -42.438629 11.000000
v -28.351627 -29.606630 10.000000
v -30.245834 -31.161165 10.000000
v -30.245834 -31.161165 11.000000
v -28.351627 -29.606630 11.000000
v -26.190542 -28.451508 10.000000
v -23.845629 -27.740185 11.000000
v -23.320417 -35.380604 11.000000
v -22.807688 -35.225067 11.000000
v -19.493582 -35.380604 11.000000
v -19.890432 -35.260220 11.000000
v -19.837940 -49.581963 11.000000
v -19.057251 -35.816933 11.000000
v -21.737202 -36.309940 11.000000
v -20.592274 -38.033077 11.000000
v -20.248734 -37.818409 11.000000
v -23.845629 -27.740185 10.000000
v -16.503075 -39.024548 10.000000
v -16.659525 -38.508797 10.000000
v -26.150005 -41.505932 10.000000
v -17.523733 -38.342564 10.000000
v -20.431547 -44.903927 10.000000
v -21.407000 -45.000000 11.000000
v -23.320417 -44.619396 11.000000
v -24.942533 -43.535534 10.000000
v -24.942533 -43.535534 11.000000
vn 0.0980 0.9952 -0.0000
vn 0.2903 0.9569 -0.0000
vn 0.4714 0.8819 -0.0000
vn 0.6344 0.7730 -0.0000
vn 0.7730 0.6344 -0.0000
vn 0.8819 0.4714 -0.0000
vn 0.9569 0.2903 -0.0000
vn 0.9952 0.0980 -0.0000
vn 0.9952 -0.0980 -0.0000
vn -0.6344 0.7730 -0.0000
vn -0.4714 0.8819 -0.0000
vn -0.0000 -0.0000 1.0000
vn -0.2903 0.9569 -0.0000
vn -0.0980 0.9952 -0.0000
vn -0.0000 -0.0000 -1.0000
vn 0.5556 -0.8315 -0.0000
vn -1.0000 -0.0000 -0.0000
vn -0.9994 -0.0349 -0.0000
vn 0.5299 -0.8480 -0.0000
vn 0.2903 -0.9569 -0.0000
vn 0.0980 -0.9952 -0.0000
vn -0.0980 -0.9952 -0.0000
vn -0.2903 -0.9569 -0.0000
vn -0.4714 -0.8819 -0.0000
vn -0.6344 -0.7730 -0.0000
vn -0.7730 -0.6344 -0.0000
vn -0.8819 -0.4714 -0.0000
vn -0.9569 -0.2903 -0.0000
vt 0.132456 0.910908
vt 0.162830 0.924428
vt 0.132456 0.924428
vt 0.162830 0.910908
vt 0.189810 0.924428
vt 0.189810 0.910908
vt 0.212358 0.924428
vt 0.212358 0.910908
vt 0.237475 0.924428
vt 0.237475 0.910908
vt 0.266469 0.924428
vt 0.266469 0.910908
vt 0.298226 0.924428
vt 0.298226 0.910908
vt 0.331526 0.924428
vt 0.331526 0.910908
vt 0.365090 0.924428
vt 0.365090 0.910908
vt 0.397626 0.924428
vt 0.001344 0.910908
vt 0.017179 0.924428
vt 0.001344 0.924428
vt 0.033013 0.910908
vt 0.066275 0.924428
vt 0.033013 0.924428
vt 0.554513 0.261801
vt 0.468372 0.195267
vt 0.479141 0.186429
vt 0.462288 0.195632
vt 0.442806 0.169770
vt 0.445354 0.167187
vt 0.499104 0.144817
vt 0.494545 0.163375
vt 0.475663 0.154573
vt 0.066275 0.910908
vt 0.099853 0.924428
vt 0.099853 0.910908
vt 0.163790 0.205877
vt 0.109668 0.300312
vt 0.150459 0.201833
vt 0.189534 0.195910
vt 0.187276 0.184556
vt 0.209492 0.199351
vt 0.122463 0.159737
vt 0.107957 0.122318
vt 0.161192 0.167187
vt 0.177653 0.207243
vt 0.743684 0.924428
vt 0.743684 0.910908
vt 0.572510 0.910908
vt 0.397626 0.910908
vt 0.572510 0.924428
vt 0.807808 0.924428
vt 0.870152 0.910908
vt 0.807808 0.910908
vt 0.876236 0.924428
vt 0.870152 0.910908
vt 0.876236 0.910908
vt 0.889596 0.924428
vt 0.889596 0.910908
vt 0.902398 0.924428
vt 0.902398 0.910908
vt 0.914153 0.924428
vt 0.914153 0.910908
vt 0.924406 0.924428
vt 0.924406 0.910908
vt 0.935429 0.924428
vt 0.935429 0.910908
vt 0.947743 0.924428
vt 0.947743 0.910908
vt 0.960875 0.924428
vt 0.960875 0.910908
vt 0.966716 0.924428
vt 0.448807 0.068321
vt 0.440472 0.164136
vt 0.110181 0.157375
vt 0.107957 0.150045
vt 0.450447 0.203544
vt 0.456087 0.201833
vt 0.408986 0.204044
vt 0.401699 0.201833
vt 0.424200 0.188625
vt 0.245062 0.114779
vt 0.236739 0.096702
vt 0.593023 0.204166
vt 0.576606 0.234880
vt 0.482880 0.181873
vt 0.498589 0.150045
vt 0.603133 0.170840
vt 0.527592 0.283895
vt 0.496878 0.300312
vt 0.428893 0.207243
vt 0.463551 0.310421
vt 0.428893 0.313835
vt 0.415029 0.205877
vt 0.394234 0.310421
vt 0.360908 0.300312
vt 0.330194 0.283895
vt 0.303273 0.261801
vt 0.389413 0.195267
vt 0.303273 0.078404
vt 0.359197 0.150045
vt 0.361484 0.114779
vt 0.359197 0.122318
vt 0.357832 0.136181
vt 0.442756 0.205877
vt 0.606546 0.136181
vt 0.603132 0.101523
vt 0.498589 0.122318
vt 0.494545 0.108987
vt 0.451193 -0.000000
vt 0.456087 0.070529
vt 0.479141 0.085933
vt 0.468372 0.077096
vt 0.499954 0.136181
vt 0.363241 0.163375
vt 0.369808 0.175661
vt 0.487978 0.096702
vt 0.378645 0.186429
vt 0.487978 0.175661
vt 0.481625 0.182712
vt 0.276352 0.283895
vt 0.245638 0.300312
vt 0.212312 0.310421
vt 0.197560 0.204044
vt 0.191517 0.205877
vt 0.177653 0.313835
vt 0.142995 0.310421
vt 0.078954 0.283895
vt 0.052033 0.261801
vt 0.133356 0.191313
vt 0.029940 0.234880
vt 0.127405 0.186429
vt 0.138174 0.195267
vt 0.013523 0.204166
vt 0.112001 0.163375
vt 0.003414 0.170840
vt 0.106592 0.136181
vt 0.000000 0.136181
vt 0.003414 0.101523
vt 0.112001 0.108987
vt 0.155353 -0.000000
vt 0.127405 0.085933
vt 0.157739 0.068321
vt 0.150459 0.070529
vt 0.138174 0.077096
vt 0.303273 0.078404
vt 0.303273 0.261801
vt 0.247349 0.150045
vt 0.289813 0.272848
vt 0.227901 0.186429
vt 0.248715 0.136181
vt 0.247349 0.122318
vt 0.243305 0.163375
vt 0.236739 0.175661
vt 0.118568 0.096702
vt 0.232320 0.181045
vt 0.217133 0.195267
vt 0.204847 0.201833
vt 0.118568 0.175661
vt 0.572510 0.910908
vt 0.807808 0.910908
vt 0.870152 0.924428
vt 0.870152 0.924428
vt 0.966716 0.910908
vt 0.363241 0.108987
vt 0.369808 0.096702
vt 0.378645 0.085933
vt 0.389413 0.077096
vt 0.401699 0.070529
vt 0.415029 0.066485
vt 0.428893 0.065120
vt 0.442756 0.066485
vt 0.177653 0.065120
vt 0.163790 0.066485
vt 0.191517 0.066485
vt 0.204847 0.070529
vt 0.217133 0.077096
vt 0.227901 0.085933
vt 0.243305 0.108987
s 0
g off
f 84/1/1 4/2/1 2/3/1
f 85/4/2 86/5/2 4/2/2
f 87/6/3 88/7/3 86/5/3
f 10/8/4 12/9/4 88/7/4
f 89/10/5 90/11/5 12/9/5
f 15/12/6 91/13/6 90/11/6
f 18/14/7 20/15/7 91/13/7
f 92/16/8 23/17/8 20/15/8
f 93/18/9 94/19/9 23/17/9
f 98/20/10 83/21/10 97/22/10
f 99/23/11 100/24/11 96/25/11
f 89/26/12 9/27/12 13/28/12
f 107/29/12 81/30/12 110/31/12
f 74/32/12 19/33/12 80/34/12
f 33/35/13 111/36/13 100/24/13
f 101/37/14 2/3/14 111/36/14
f 5/38/15 86/39/15 7/40/15
f 77/41/15 78/42/15 75/43/15
f 115/44/15 25/45/15 43/46/15
f 78/42/15 77/41/15 1/47/15
f 94/48/16 95/49/16 106/50/16
f 98/51/17 97/19/17 42/52/17
f 106/49/18 70/53/18 40/48/18
f 36/54/19 114/53/19 72/55/19
f 116/56/20 71/57/20 39/58/20
f 39/58/21 41/59/21 116/56/21
f 117/60/22 44/61/22 41/59/22
f 45/62/23 46/63/23 44/61/23
f 118/64/24 47/65/24 46/63/24
f 48/66/25 119/67/25 47/65/25
f 120/68/26 49/69/26 119/67/26
f 50/70/27 51/71/27 49/69/27
f 52/72/28 114/73/28 51/71/28
f 71/74/12 110/31/12 109/75/12
f 113/76/15 112/77/15 115/44/15
f 105/78/12 107/29/12 104/79/12
f 103/80/12 102/81/12 108/82/12
f 114/83/15 43/46/15 49/84/15
f 109/75/12 110/31/12 81/30/12
f 84/1/1 85/4/1 4/2/1
f 85/4/2 87/6/2 86/5/2
f 87/6/3 10/8/3 88/7/3
f 10/8/4 89/10/4 12/9/4
f 89/10/5 15/12/5 90/11/5
f 15/12/6 18/14/6 91/13/6
f 18/14/7 92/16/7 20/15/7
f 92/16/8 93/18/8 23/17/8
f 93/18/9 95/51/9 94/19/9
f 98/20/10 99/23/10 96/25/10
f 99/23/11 33/35/11 100/24/11
f 18/85/12 15/86/12 19/33/12
f 15/86/12 89/26/12 79/87/12
f 21/88/12 92/89/12 18/85/12
f 89/26/12 10/90/12 9/27/12
f 10/90/12 87/91/12 104/79/12
f 3/92/12 85/93/12 84/94/12
f 87/91/12 85/93/12 105/78/12
f 69/95/12 84/94/12 101/96/12
f 101/96/12 33/97/12 103/80/12
f 33/97/12 99/98/12 102/81/12
f 99/98/12 98/99/12 66/100/12
f 33/97/12 102/81/12 103/80/12
f 98/99/12 36/101/12 58/102/12
f 36/101/12 72/103/12 54/104/12
f 36/101/12 54/104/12 56/105/12
f 101/96/12 103/80/12 69/95/12
f 85/93/12 3/92/12 6/106/12
f 84/94/12 69/95/12 3/92/12
f 92/89/12 21/88/12 74/32/12
f 74/32/12 93/107/12 92/89/12
f 95/108/12 93/107/12 26/109/12
f 95/108/12 26/109/12 28/110/12
f 71/74/12 106/111/12 38/112/12
f 106/111/12 95/108/12 32/113/12
f 38/112/12 106/111/12 35/114/12
f 35/114/12 106/111/12 32/113/12
f 93/107/12 74/32/12 24/115/12
f 36/101/12 56/105/12 58/102/12
f 98/99/12 58/102/12 60/116/12
f 98/99/12 60/116/12 62/117/12
f 30/118/12 32/113/12 95/108/12
f 28/110/12 30/118/12 95/108/12
f 98/99/12 62/117/12 64/119/12
f 98/99/12 64/119/12 66/100/12
f 26/109/12 93/107/12 24/115/12
f 66/100/12 102/81/12 99/98/12
f 21/88/12 18/85/12 19/33/12
f 85/93/12 6/106/12 105/78/12
f 19/33/12 15/86/12 16/120/12
f 16/120/12 15/86/12 79/87/12
f 87/91/12 105/78/12 104/79/12
f 10/90/12 104/79/12 9/27/12
f 13/28/12 79/87/12 89/26/12
f 110/31/12 71/74/12 38/112/12
f 38/112/12 35/114/12 110/31/12
f 35/114/12 32/113/12 80/34/12
f 110/31/12 35/114/12 80/34/12
f 32/113/12 30/118/12 80/34/12
f 30/118/12 28/110/12 80/34/12
f 28/110/12 26/109/12 80/34/12
f 26/109/12 24/115/12 80/34/12
f 24/115/12 74/32/12 80/34/12
f 80/34/12 19/33/12 16/120/12
f 16/120/12 79/87/12 80/34/12
f 79/121/12 13/28/12 110/31/12
f 13/28/12 9/27/12 107/29/12
f 9/27/12 104/79/12 107/29/12
f 107/29/12 105/78/12 81/30/12
f 105/78/12 6/106/12 108/82/12
f 81/30/12 105/78/12 108/82/12
f 6/106/12 3/92/12 108/82/12
f 3/92/12 69/95/12 108/82/12
f 69/95/12 103/80/12 108/82/12
f 108/82/12 102/81/12 66/100/12
f 66/100/12 64/119/12 108/82/12
f 64/119/12 62/117/12 108/82/12
f 62/117/12 60/116/12 109/75/12
f 60/116/12 58/102/12 109/75/12
f 58/102/12 56/105/12 109/75/12
f 56/105/12 54/104/12 109/75/12
f 54/104/12 72/103/12 109/75/12
f 109/75/12 81/30/12 108/82/12
f 13/28/12 107/29/12 110/31/12
f 108/82/12 62/117/12 109/75/12
f 80/34/12 79/121/12 110/31/12
f 74/32/12 21/88/12 19/33/12
f 33/35/13 101/37/13 111/36/13
f 101/37/14 84/1/14 2/3/14
f 96/122/15 100/123/15 75/43/15
f 100/123/15 111/124/15 76/125/15
f 76/125/15 111/124/15 68/126/15
f 111/124/15 2/127/15 68/126/15
f 2/127/15 4/128/15 1/47/15
f 68/126/15 2/127/15 1/47/15
f 4/128/15 86/39/15 5/38/15
f 86/39/15 88/129/15 7/40/15
f 4/128/15 5/38/15 1/47/15
f 88/129/15 12/130/15 73/131/15
f 12/130/15 90/132/15 11/133/15
f 88/129/15 8/134/15 7/40/15
f 90/132/15 91/135/15 17/136/15
f 91/135/15 20/137/15 113/76/15
f 112/77/15 20/137/15 22/138/15
f 20/137/15 23/139/15 22/138/15
f 23/139/15 94/140/15 25/45/15
f 25/45/15 94/140/15 27/141/15
f 94/140/15 40/142/15 31/143/15
f 40/142/15 70/144/15 37/145/15
f 40/142/15 37/145/15 34/146/15
f 20/137/15 112/77/15 113/76/15
f 8/134/15 88/129/15 73/131/15
f 42/147/15 97/148/15 57/149/15
f 83/150/15 63/151/15 97/148/15
f 42/147/15 57/149/15 55/152/15
f 53/153/15 114/83/15 42/147/15
f 55/152/15 53/153/15 42/147/15
f 40/142/15 34/146/15 31/143/15
f 57/149/15 97/148/15 59/154/15
f 59/154/15 97/148/15 61/155/15
f 94/140/15 31/143/15 29/156/15
f 94/140/15 29/156/15 27/141/15
f 97/148/15 82/157/15 61/155/15
f 23/139/15 25/45/15 22/138/15
f 65/158/15 63/151/15 96/122/15
f 113/76/15 17/136/15 91/135/15
f 75/43/15 65/158/15 96/122/15
f 67/159/15 75/43/15 100/123/15
f 90/132/15 17/136/15 14/160/15
f 76/125/15 67/159/15 100/123/15
f 90/132/15 14/160/15 11/133/15
f 11/133/15 73/131/15 12/130/15
f 75/43/15 67/159/15 77/41/15
f 67/159/15 76/125/15 77/41/15
f 73/131/15 11/133/15 43/46/15
f 11/133/15 14/160/15 115/44/15
f 43/46/15 11/133/15 115/44/15
f 14/160/15 17/136/15 115/44/15
f 17/136/15 113/76/15 115/44/15
f 115/44/15 112/77/15 22/138/15
f 37/145/15 70/144/15 43/46/15
f 31/143/15 34/146/15 43/46/15
f 34/146/15 37/145/15 43/46/15
f 27/141/15 29/156/15 43/46/15
f 29/156/15 31/143/15 43/46/15
f 22/138/15 25/45/15 115/44/15
f 25/45/15 27/141/15 43/46/15
f 76/125/15 68/126/15 77/41/15
f 68/126/15 1/47/15 77/41/15
f 1/47/15 5/38/15 78/42/15
f 5/38/15 7/40/15 43/46/15
f 78/42/15 5/38/15 43/46/15
f 7/40/15 8/134/15 43/46/15
f 8/134/15 73/131/15 43/46/15
f 43/46/15 114/83/15 53/153/15
f 55/152/15 43/46/15 53/153/15
f 55/152/15 57/149/15 78/42/15
f 57/149/15 59/154/15 78/42/15
f 59/154/15 61/155/15 78/42/15
f 82/157/15 78/42/15 61/155/15
f 63/151/15 65/158/15 78/42/15
f 65/158/15 75/43/15 78/42/15
f 43/46/15 55/152/15 78/42/15
f 94/48/16 106/50/16 40/52/16
f 98/51/17 42/52/17 36/161/17
f 106/49/18 71/162/18 70/53/18
f 36/54/19 42/163/19 114/53/19
f 116/56/20 70/164/20 71/57/20
f 39/58/21 117/60/21 41/59/21
f 117/60/22 45/62/22 44/61/22
f 45/62/23 118/64/23 46/63/23
f 118/64/24 48/66/24 47/65/24
f 48/66/25 120/68/25 119/67/25
f 120/68/26 50/70/26 49/69/26
f 50/70/27 52/72/27 51/71/27
f 52/72/28 72/165/28 114/73/28
f 72/103/12 52/166/12 109/75/12
f 52/166/12 50/167/12 109/75/12
f 50/167/12 120/168/12 109/75/12
f 120/168/12 48/169/12 109/75/12
f 48/169/12 118/170/12 109/75/12
f 118/170/12 45/171/12 109/75/12
f 45/171/12 117/172/12 109/75/12
f 117/172/12 39/173/12 109/75/12
f 39/173/12 71/74/12 109/75/12
f 43/46/15 70/144/15 41/174/15
f 70/144/15 116/175/15 41/174/15
f 41/174/15 44/176/15 43/46/15
f 44/176/15 46/177/15 43/46/15
f 46/177/15 47/178/15 43/46/15
f 47/178/15 119/179/15 43/46/15
f 119/179/15 49/84/15 43/46/15
f 49/84/15 51/180/15 114/83/15
f 98/20/10 96/25/10 83/21/10
f 83/150/15 96/122/15 63/151/15
f 97/148/15 63/151/15 82/157/15
f 82/157/15 63/151/15 78/42/15
