# Blender 4.5.3 LTS
# www.blender.org
o C2_C3_VL_AIR
v -21.410000 -30.319006 -9.519276
v -21.214909 -30.308723 -9.535508
v -21.027317 -30.278275 -9.583582
v -20.854429 -30.228828 -9.661649
v -20.702892 -30.162281 -9.766710
v -20.578529 -30.081196 -9.894728
v -20.486120 -29.988686 -10.040782
v -20.429214 -29.888308 -10.199260
v -20.410000 -29.783916 -10.364071
v -20.429214 -29.679525 -10.528882
v -20.486120 -29.579147 -10.687360
v -20.578529 -29.486637 -10.833414
v -20.702892 -29.405552 -10.961432
v -20.854429 -29.339005 -11.066492
v -21.027317 -29.289558 -11.144560
v -21.214909 -29.259109 -11.192634
v -21.410000 -29.248827 -11.208866
v -21.605091 -29.259109 -11.192634
v -21.792683 -29.289558 -11.144560
v -21.965570 -29.339005 -11.066492
v -22.117107 -29.405552 -10.961432
v -22.241470 -29.486637 -10.833414
v -22.333879 -29.579147 -10.687360
v -22.390785 -29.679525 -10.528882
v -22.410000 -29.783916 -10.364071
v -22.390785 -29.888308 -10.199260
v -22.333879 -29.988686 -10.040782
v -22.241470 -30.081196 -9.894728
v -22.117107 -30.162281 -9.766710
v -21.965570 -30.228828 -9.661649
v -21.792683 -30.278275 -9.583582
v -21.605091 -30.308723 -9.535508
v -21.410000 -15.535089 -0.155205
v -21.214909 -15.524808 -0.171437
v -21.027317 -15.494359 -0.219511
v -20.854429 -15.444912 -0.297578
v -20.702892 -15.378366 -0.402640
v -20.578529 -15.297280 -0.530657
v -20.486120 -15.204770 -0.676711
v -20.429214 -15.104391 -0.835189
v -20.410000 -15.000000 -1.000000
v -20.429214 -14.895609 -1.164811
v -20.486120 -14.795230 -1.323289
v -20.578529 -14.702720 -1.469343
v -20.702892 -14.621634 -1.597360
v -20.854429 -14.555089 -1.702422
v -21.027317 -14.505641 -1.780489
v -21.214909 -14.475192 -1.828563
v -21.410000 -14.464911 -1.844795
v -21.605091 -14.475192 -1.828563
v -21.792683 -14.505641 -1.780489
v -21.965570 -14.555089 -1.702422
v -22.117107 -14.621634 -1.597360
v -22.241470 -14.702720 -1.469343
v -22.333879 -14.795230 -1.323289
v -22.390785 -14.895609 -1.164811
v -22.410000 -15.000000 -1.000000
v -22.390785 -15.104391 -0.835189
v -22.333879 -15.204770 -0.676711
v -22.241470 -15.297280 -0.530657
v -22.117107 -15.378366 -0.402640
v -21.965570 -15.444912 -0.297578
v -21.792683 -15.494359 -0.219511
v -21.605091 -15.524808 -0.171437
v -21.214909 -22.916767 -4.853473
v -21.027317 -22.886316 -4.901546
v -20.854429 -22.836870 -4.979613
v -20.702892 -22.770325 -5.084675
v -20.578529 -22.689240 -5.212692
v -20.486120 -22.596729 -5.358747
v -20.429214 -22.496349 -5.517224
v -20.410000 -22.391958 -5.682035
v -20.429214 -22.287567 -5.846847
v -20.486120 -22.187187 -6.005324
v -20.578529 -22.094679 -6.151379
v -20.702892 -22.013592 -6.279396
v -20.854429 -21.947048 -6.384457
v -21.027317 -21.897600 -6.462525
v -21.214909 -21.867149 -6.510598
v -21.410000 -21.856869 -6.526831
v -21.605091 -21.867149 -6.510598
v -21.792683 -21.897600 -6.462525
v -21.965570 -21.947048 -6.384457
v -22.117107 -22.013592 -6.279396
v -22.241470 -22.094679 -6.151379
v -22.333879 -22.187187 -6.005324
v -22.390785 -22.287567 -5.846847
v -22.410000 -22.391958 -5.682035
v -22.390785 -22.496349 -5.517224
v -22.333879 -22.596729 -5.358747
v -22.241470 -22.689240 -5.212692
v -22.117107 -22.770325 -5.084675
v -21.965570 -22.836870 -4.979613
v -21.792683 -22.886316 -4.901546
v -21.605091 -22.916767 -4.853473
v -21.410000 -22.927048 -4.837240
v -21.214909 -26.612745 -7.194490
v -21.027317 -26.582296 -7.242564
v -20.854429 -26.532848 -7.320631
v -20.702892 -26.466303 -7.425693
v -20.578529 -26.385218 -7.553710
v -20.486120 -26.292707 -7.699764
v -20.429214 -26.192329 -7.858242
v -20.410000 -26.087936 -8.023053
v -20.429214 -25.983547 -8.187864
v -20.486120 -25.883167 -8.346342
v -20.578529 -25.790657 -8.492396
v -20.702892 -25.709572 -8.620414
v -20.854429 -25.643026 -8.725475
v -21.027317 -25.593578 -8.803543
v -21.214909 -25.563129 -8.851616
v -21.410000 -25.552849 -8.867848
v -21.605091 -25.563129 -8.851616
v -21.792683 -25.593578 -8.803543
v -21.965570 -25.643026 -8.725475
v -22.117107 -25.709572 -8.620414
v -22.241470 -25.790657 -8.492396
v -22.333879 -25.883167 -8.346342
v -22.390785 -25.983547 -8.187864
v -22.410000 -26.087936 -8.023053
v -22.390785 -26.192329 -7.858242
v -22.333879 -26.292707 -7.699764
v -22.241470 -26.385218 -7.553710
v -22.117107 -26.466303 -7.425693
v -21.965570 -26.532848 -7.320631
v -21.792683 -26.582296 -7.242564
v -21.605091 -26.612745 -7.194490
v -21.410000 -26.623028 -7.178258
v -21.410000 -19.231070 -2.496222
v -21.214909 -19.220787 -2.512455
v -21.027317 -19.190338 -2.560529
v -20.854429 -19.140890 -2.638595
v -20.702892 -19.074345 -2.743657
v -20.578529 -18.993259 -2.871674
v -20.486120 -18.900749 -3.017729
v -20.429214 -18.800369 -3.176206
v -20.410000 -18.695980 -3.341018
v -20.429214 -18.591589 -3.505829
v -20.486120 -18.491209 -3.664307
v -20.578529 -18.398699 -3.810361
v -20.702892 -18.317614 -3.938378
v -20.854429 -18.251068 -4.043439
v -21.027317 -18.201620 -4.121507
v -21.214909 -18.171171 -4.169580
v -21.410000 -18.160889 -4.185813
v -21.605091 -18.171171 -4.169580
v -21.792683 -18.201620 -4.121507
v -21.965570 -18.251068 -4.043439
v -22.117107 -18.317614 -3.938378
v -22.241470 -18.398699 -3.810361
v -22.333879 -18.491209 -3.664307
v -22.390785 -18.591589 -3.505829
v -22.410000 -18.695980 -3.341018
v -22.390785 -18.800369 -3.176206
v -22.333879 -18.900749 -3.017729
v -22.241470 -18.993259 -2.871674
v -22.117107 -19.074345 -2.743657
v -21.965570 -19.140890 -2.638595
v -21.792683 -19.190338 -2.560529
v -21.605091 -19.220787 -2.512455
vn -0.0000 -0.8448 -0.5351
vn -0.0980 -0.5325 0.8407
vn -0.2903 -0.5120 0.8084
vn -0.4714 -0.4719 0.7450
vn -0.6344 -0.4136 0.6530
vn -0.7730 -0.3395 0.5359
vn -0.8819 -0.2522 0.3982
vn -0.9569 -0.1553 0.2452
vn -0.9952 -0.0524 0.0828
vn -0.9952 0.0524 -0.0828
vn -0.9569 0.1553 -0.2452
vn -0.8819 0.2522 -0.3982
vn -0.7730 0.3395 -0.5359
vn -0.6344 0.4136 -0.6530
vn -0.4714 0.4719 -0.7450
vn -0.2903 0.5120 -0.8084
vn -0.0980 0.5325 -0.8407
vn 0.0980 0.5325 -0.8407
vn 0.2903 0.5120 -0.8084
vn 0.4714 0.4719 -0.7450
vn 0.6344 0.4136 -0.6530
vn 0.7730 0.3395 -0.5359
vn 0.8819 0.2522 -0.3982
vn 0.9569 0.1553 -0.2452
vn 0.9952 0.0524 -0.0828
vn 0.9952 -0.0524 0.0828
vn 0.9569 -0.1553 0.2452
vn 0.8819 -0.2522 0.3982
vn 0.7730 -0.3395 0.5359
vn 0.6344 -0.4136 0.6530
vn 0.4714 -0.4719 0.7450
vn 0.2903 -0.5120 0.8084
vn 0.0980 -0.5325 0.8407
vn -0.0000 0.8448 0.5351
vt -0.000000 0.273301
vt 0.224292 -0.000000
vt 0.497592 0.224292
vt 0.250000 0.666341
vt 0.312500 0.618274
vt 0.312500 0.666341
vt 0.250000 0.715349
vt 0.312500 0.715349
vt 0.250000 0.763416
vt 0.312500 0.763416
vt 0.250000 0.808695
vt 0.312500 0.808695
vt 0.250000 0.849444
vt 0.312500 0.849444
vt 0.750000 0.542871
vt 0.812500 0.497592
vt 0.812500 0.542871
vt 0.750000 0.590937
vt 0.812500 0.590937
vt 0.750000 0.639946
vt 0.812500 0.639946
vt 0.750000 0.688013
vt 0.812500 0.688013
vt 0.750000 0.733291
vt 0.812500 0.733291
vt 0.750000 0.774040
vt 0.812500 0.774040
vt 0.500000 0.538342
vt 0.562500 0.497592
vt 0.562500 0.538342
vt 0.500000 0.583620
vt 0.562500 0.583620
vt 0.500000 0.631687
vt 0.562500 0.631687
vt 0.500000 0.680695
vt 0.562500 0.680695
vt 0.500000 0.728762
vt 0.562500 0.728762
vt 0.500000 0.774040
vt 0.562500 0.774040
vt 0.500000 0.814789
vt 0.562500 0.814789
vt 0.500000 0.849444
vt 0.562500 0.849444
vt 0.000000 0.532247
vt 0.062500 0.497592
vt 0.062500 0.532247
vt 0.000000 0.572996
vt 0.062500 0.572996
vt 0.000000 0.618274
vt 0.062500 0.618274
vt 0.000000 0.666341
vt 0.062500 0.666341
vt 0.000000 0.715349
vt 0.062500 0.715349
vt 0.000000 0.763416
vt 0.062500 0.763416
vt 0.000000 0.808694
vt 0.062500 0.808694
vt 0.000000 0.849443
vt 0.062500 0.849443
vt 0.000000 0.884098
vt 0.062500 0.884098
vt 0.000000 0.911326
vt 0.062500 0.911326
vt 0.250000 0.532247
vt 0.312500 0.497592
vt 0.312500 0.532247
vt 0.250000 0.572996
vt 0.312500 0.572996
vt 0.250000 0.618274
vt 0.770893 0.000000
vt 0.995185 0.273300
vt 0.721884 0.497592
vt 0.375000 0.618274
vt 0.437500 0.572996
vt 0.437500 0.618274
vt 0.375000 0.572996
vt 0.437500 0.532247
vt 0.375000 0.532247
vt 0.437500 0.497592
vt 0.125000 0.911326
vt 0.187500 0.884098
vt 0.187500 0.911326
vt 0.125000 0.884098
vt 0.187500 0.849443
vt 0.125000 0.849443
vt 0.187500 0.808694
vt 0.125000 0.808694
vt 0.187500 0.763416
vt 0.125000 0.763416
vt 0.187500 0.715349
vt 0.125000 0.715349
vt 0.187500 0.666341
vt 0.125000 0.666341
vt 0.187500 0.618274
vt 0.125000 0.618274
vt 0.187500 0.572996
vt 0.125000 0.572996
vt 0.187500 0.532247
vt 0.125000 0.532247
vt 0.187500 0.497592
vt 0.625000 0.849444
vt 0.687500 0.814789
vt 0.687500 0.849444
vt 0.625000 0.814789
vt 0.687500 0.774040
vt 0.625000 0.774040
vt 0.687500 0.728762
vt 0.625000 0.728762
vt 0.687500 0.680695
vt 0.625000 0.680695
vt 0.687500 0.631687
vt 0.625000 0.631687
vt 0.687500 0.583620
vt 0.625000 0.583620
vt 0.687500 0.538342
vt 0.625000 0.538342
vt 0.687500 0.497592
vt 0.875000 0.774040
vt 0.937500 0.733291
vt 0.937500 0.774040
vt 0.875000 0.733291
vt 0.937500 0.688013
vt 0.875000 0.688013
vt 0.937500 0.639946
vt 0.875000 0.639946
vt 0.937500 0.590937
vt 0.875000 0.590937
vt 0.937500 0.542871
vt 0.875000 0.542871
vt 0.937500 0.497592
vt 0.375000 0.849444
vt 0.437500 0.808695
vt 0.437500 0.849444
vt 0.375000 0.808695
vt 0.437500 0.763416
vt 0.375000 0.763416
vt 0.437500 0.715349
vt 0.375000 0.715349
vt 0.437500 0.666341
vt 0.375000 0.666341
vt 0.500000 0.618274
vt 0.500000 0.666341
vt 0.500000 0.715349
vt 0.500000 0.763416
vt 0.500000 0.808695
vt 0.500000 0.849444
vt 1.000000 0.497592
vt 1.000000 0.542871
vt 1.000000 0.590937
vt 1.000000 0.639946
vt 1.000000 0.688013
vt 1.000000 0.733291
vt 1.000000 0.774040
vt 0.750000 0.497592
vt 0.750000 0.538342
vt 0.750000 0.583620
vt 0.750000 0.631687
vt 0.750000 0.680695
vt 0.750000 0.728762
vt 0.750000 0.774040
vt 0.750000 0.814789
vt 0.750000 0.849444
vt 0.250000 0.497592
vt 0.250000 0.532247
vt 0.250000 0.572996
vt 0.250000 0.618274
vt 0.250000 0.666341
vt 0.250000 0.715349
vt 0.250000 0.763416
vt 0.250000 0.808694
vt 0.250000 0.849443
vt 0.250000 0.884098
vt 0.250000 0.911326
vt 0.500000 0.497592
vt 0.500000 0.532247
vt 0.500000 0.572996
vt 0.375000 0.497592
vt 0.125000 0.497592
vt 0.625000 0.497592
vt 0.875000 0.497592
vt 0.273301 0.497592
vt 0.224292 0.497592
vt 0.176225 0.488031
vt 0.130947 0.469277
vt 0.090198 0.442049
vt 0.055543 0.407395
vt 0.028316 0.366646
vt 0.009561 0.321367
vt -0.000000 0.224292
vt 0.009561 0.176225
vt 0.028316 0.130947
vt 0.055543 0.090198
vt 0.090198 0.055544
vt 0.130947 0.028316
vt 0.176225 0.009561
vt 0.273300 0.000000
vt 0.321368 0.009561
vt 0.366645 0.028316
vt 0.407395 0.055544
vt 0.442049 0.090198
vt 0.469277 0.130947
vt 0.488031 0.176225
vt 0.497592 0.273300
vt 0.488031 0.321367
vt 0.469277 0.366645
vt 0.442049 0.407395
vt 0.407395 0.442049
vt 0.366646 0.469277
vt 0.321367 0.488031
vt 0.750000 0.497592
vt 0.500000 0.497592
vt 0.000000 0.497592
vt 0.250000 0.497592
vt 0.673817 0.488031
vt 0.628540 0.469277
vt 0.587790 0.442049
vt 0.553136 0.407395
vt 0.525908 0.366646
vt 0.507153 0.321367
vt 0.497592 0.273301
vt 0.497592 0.224292
vt 0.507153 0.176225
vt 0.525908 0.130947
vt 0.553136 0.090198
vt 0.587790 0.055544
vt 0.628539 0.028316
vt 0.673817 0.009561
vt 0.721884 -0.000000
vt 0.818960 0.009561
vt 0.864237 0.028316
vt 0.904987 0.055544
vt 0.939641 0.090198
vt 0.966869 0.130947
vt 0.985624 0.176225
vt 0.995185 0.224292
vt 0.985624 0.321367
vt 0.966869 0.366645
vt 0.939641 0.407395
vt 0.904987 0.442049
vt 0.864238 0.469277
vt 0.818960 0.488031
vt 0.770893 0.497592
s 0
f 8/1/1 24/3/1 16/2/1
f 64/4/2 160/6/2 129/5/2
f 63/7/3 159/8/3 160/6/3
f 62/9/4 158/10/4 159/8/4
f 61/11/5 157/12/5 158/10/5
f 60/13/6 156/14/6 157/12/6
f 59/15/7 155/17/7 156/16/7
f 58/18/8 154/19/8 155/17/8
f 57/20/9 153/21/9 154/19/9
f 56/22/10 152/23/10 153/21/10
f 55/24/11 151/25/11 152/23/11
f 54/26/12 150/27/12 151/25/12
f 53/28/13 149/30/13 150/29/13
f 52/31/14 148/32/14 149/30/14
f 51/33/15 147/34/15 148/32/15
f 50/35/16 146/36/16 147/34/16
f 49/37/17 145/38/17 146/36/17
f 48/39/18 144/40/18 145/38/18
f 47/41/19 143/42/19 144/40/19
f 46/43/20 142/44/20 143/42/20
f 45/45/21 141/47/21 142/46/21
f 44/48/22 140/49/22 141/47/22
f 43/50/23 139/51/23 140/49/23
f 42/52/24 138/53/24 139/51/24
f 41/54/25 137/55/25 138/53/25
f 40/56/26 136/57/26 137/55/26
f 39/58/27 135/59/27 136/57/27
f 38/60/28 134/61/28 135/59/28
f 37/62/29 133/63/29 134/61/29
f 36/64/30 132/65/30 133/63/30
f 35/66/31 131/68/31 132/67/31
f 34/69/32 130/70/32 131/68/32
f 33/71/33 129/5/33 130/70/33
f 49/72/34 33/74/34 41/73/34
f 96/75/33 128/77/33 97/76/33
f 65/78/32 97/76/32 98/79/32
f 66/80/31 98/79/31 99/81/31
f 67/82/30 99/84/30 100/83/30
f 68/85/29 100/83/29 101/86/29
f 69/87/28 101/86/28 102/88/28
f 70/89/27 102/88/27 103/90/27
f 71/91/26 103/90/26 104/92/26
f 72/93/25 104/92/25 105/94/25
f 73/95/24 105/94/24 106/96/24
f 74/97/23 106/96/23 107/98/23
f 75/99/22 107/98/22 108/100/22
f 76/101/21 108/100/21 109/102/21
f 77/103/20 109/105/20 110/104/20
f 78/106/19 110/104/19 111/107/19
f 79/108/18 111/107/18 112/109/18
f 80/110/17 112/109/17 113/111/17
f 81/112/16 113/111/16 114/113/16
f 82/114/15 114/113/15 115/115/15
f 83/116/14 115/115/14 116/117/14
f 84/118/13 116/117/13 117/119/13
f 85/120/12 117/122/12 118/121/12
f 86/123/11 118/121/11 119/124/11
f 87/125/10 119/124/10 120/126/10
f 88/127/9 120/126/9 121/128/9
f 89/129/8 121/128/8 122/130/8
f 90/131/7 122/130/7 123/132/7
f 91/133/6 123/135/6 124/134/6
f 92/136/5 124/134/5 125/137/5
f 93/138/4 125/137/4 126/139/4
f 94/140/3 126/139/3 127/141/3
f 95/142/2 127/141/2 128/77/2
f 127/141/2 32/144/2 1/143/2
f 126/139/3 31/145/3 32/144/3
f 125/137/4 30/146/4 31/145/4
f 124/134/5 29/147/5 30/146/5
f 123/135/6 28/148/6 29/147/6
f 122/130/7 27/150/7 28/149/7
f 121/128/8 26/151/8 27/150/8
f 120/126/9 25/152/9 26/151/9
f 119/124/10 24/153/10 25/152/10
f 118/121/11 23/154/11 24/153/11
f 117/122/12 22/155/12 23/154/12
f 116/117/13 21/157/13 22/156/13
f 115/115/14 20/158/14 21/157/14
f 114/113/15 19/159/15 20/158/15
f 113/111/16 18/160/16 19/159/16
f 112/109/17 17/161/17 18/160/17
f 111/107/18 16/162/18 17/161/18
f 110/104/19 15/163/19 16/162/19
f 109/105/20 14/164/20 15/163/20
f 108/100/21 13/166/21 14/165/21
f 107/98/22 12/167/22 13/166/22
f 106/96/23 11/168/23 12/167/23
f 105/94/24 10/169/24 11/168/24
f 104/92/25 9/170/25 10/169/25
f 103/90/26 8/171/26 9/170/26
f 102/88/27 7/172/27 8/171/27
f 101/86/28 6/173/28 7/172/28
f 100/83/29 5/174/29 6/173/29
f 99/84/30 4/175/30 5/174/30
f 98/79/31 3/177/31 4/176/31
f 97/76/32 2/178/32 3/177/32
f 128/77/33 1/143/33 2/178/33
f 129/5/33 96/75/33 65/78/33
f 130/70/32 65/78/32 66/80/32
f 131/68/31 66/80/31 67/179/31
f 132/65/30 67/82/30 68/85/30
f 133/63/29 68/85/29 69/87/29
f 134/61/28 69/87/28 70/89/28
f 135/59/27 70/89/27 71/91/27
f 136/57/26 71/91/26 72/93/26
f 137/55/25 72/93/25 73/95/25
f 138/53/24 73/95/24 74/97/24
f 139/51/23 74/97/23 75/99/23
f 140/49/22 75/99/22 76/101/22
f 141/47/21 76/101/21 77/180/21
f 142/44/20 77/103/20 78/106/20
f 143/42/19 78/106/19 79/108/19
f 144/40/18 79/108/18 80/110/18
f 145/38/17 80/110/17 81/112/17
f 146/36/16 81/112/16 82/114/16
f 147/34/15 82/114/15 83/116/15
f 148/32/14 83/116/14 84/118/14
f 149/30/13 84/118/13 85/181/13
f 150/27/12 85/120/12 86/123/12
f 151/25/11 86/123/11 87/125/11
f 152/23/10 87/125/10 88/127/10
f 153/21/9 88/127/9 89/129/9
f 154/19/8 89/129/8 90/131/8
f 155/17/7 90/131/7 91/182/7
f 156/14/6 91/133/6 92/136/6
f 157/12/5 92/136/5 93/138/5
f 158/10/4 93/138/4 94/140/4
f 159/8/3 94/140/3 95/142/3
f 160/6/2 95/142/2 96/75/2
f 32/183/1 2/185/1 1/184/1
f 2/185/1 32/183/1 3/186/1
f 3/186/1 32/183/1 4/187/1
f 4/187/1 8/1/1 5/188/1
f 5/188/1 8/1/1 6/189/1
f 6/189/1 8/1/1 7/190/1
f 8/1/1 10/192/1 9/191/1
f 10/192/1 8/1/1 11/193/1
f 11/193/1 8/1/1 12/194/1
f 12/194/1 14/196/1 13/195/1
f 14/196/1 16/2/1 15/197/1
f 16/2/1 18/199/1 17/198/1
f 18/199/1 16/2/1 19/200/1
f 19/200/1 16/2/1 20/201/1
f 20/201/1 22/203/1 21/202/1
f 22/203/1 20/201/1 23/204/1
f 23/204/1 20/201/1 24/3/1
f 24/3/1 26/206/1 25/205/1
f 26/206/1 28/208/1 27/207/1
f 28/208/1 30/210/1 29/209/1
f 30/210/1 28/208/1 31/211/1
f 31/211/1 28/208/1 32/183/1
f 12/194/1 8/1/1 14/196/1
f 14/196/1 8/1/1 16/2/1
f 24/3/1 32/183/1 26/206/1
f 26/206/1 32/183/1 28/208/1
f 32/183/1 8/1/1 4/187/1
f 16/2/1 24/3/1 20/201/1
f 32/183/1 24/3/1 8/1/1
f 64/4/2 129/5/2 33/71/2
f 63/7/3 160/6/3 64/4/3
f 62/9/4 159/8/4 63/7/4
f 61/11/5 158/10/5 62/9/5
f 60/13/6 157/12/6 61/11/6
f 59/15/7 156/16/7 60/212/7
f 58/18/8 155/17/8 59/15/8
f 57/20/9 154/19/9 58/18/9
f 56/22/10 153/21/10 57/20/10
f 55/24/11 152/23/11 56/22/11
f 54/26/12 151/25/12 55/24/12
f 53/28/13 150/29/13 54/213/13
f 52/31/14 149/30/14 53/28/14
f 51/33/15 148/32/15 52/31/15
f 50/35/16 147/34/16 51/33/16
f 49/37/17 146/36/17 50/35/17
f 48/39/18 145/38/18 49/37/18
f 47/41/19 144/40/19 48/39/19
f 46/43/20 143/42/20 47/41/20
f 45/45/21 142/46/21 46/214/21
f 44/48/22 141/47/22 45/45/22
f 43/50/23 140/49/23 44/48/23
f 42/52/24 139/51/24 43/50/24
f 41/54/25 138/53/25 42/52/25
f 40/56/26 137/55/26 41/54/26
f 39/58/27 136/57/27 40/56/27
f 38/60/28 135/59/28 39/58/28
f 37/62/29 134/61/29 38/60/29
f 36/64/30 133/63/30 37/62/30
f 35/66/31 132/67/31 36/215/31
f 34/69/32 131/68/32 35/66/32
f 33/71/33 130/70/33 34/69/33
f 33/74/34 63/217/34 64/216/34
f 63/217/34 61/219/34 62/218/34
f 61/219/34 59/221/34 60/220/34
f 59/221/34 57/223/34 58/222/34
f 57/223/34 55/225/34 56/224/34
f 55/225/34 53/227/34 54/226/34
f 53/227/34 51/229/34 52/228/34
f 51/229/34 49/72/34 50/230/34
f 49/72/34 47/232/34 48/231/34
f 47/232/34 45/234/34 46/233/34
f 45/234/34 43/236/34 44/235/34
f 43/236/34 41/73/34 42/237/34
f 41/73/34 39/239/34 40/238/34
f 39/239/34 37/241/34 38/240/34
f 37/241/34 35/243/34 36/242/34
f 35/243/34 33/74/34 34/244/34
f 33/74/34 57/223/34 63/217/34
f 63/217/34 57/223/34 61/219/34
f 61/219/34 57/223/34 59/221/34
f 57/223/34 53/227/34 55/225/34
f 53/227/34 57/223/34 51/229/34
f 51/229/34 57/223/34 49/72/34
f 49/72/34 41/73/34 47/232/34
f 47/232/34 41/73/34 45/234/34
f 45/234/34 41/73/34 43/236/34
f 41/73/34 37/241/34 39/239/34
f 37/241/34 41/73/34 35/243/34
f 35/243/34 41/73/34 33/74/34
f 33/74/34 49/72/34 57/223/34
f 96/75/33 97/76/33 65/78/33
f 65/78/32 98/79/32 66/80/32
f 66/80/31 99/81/31 67/179/31
f 67/82/30 100/83/30 68/85/30
f 68/85/29 101/86/29 69/87/29
f 69/87/28 102/88/28 70/89/28
f 70/89/27 103/90/27 71/91/27
f 71/91/26 104/92/26 72/93/26
f 72/93/25 105/94/25 73/95/25
f 73/95/24 106/96/24 74/97/24
f 74/97/23 107/98/23 75/99/23
f 75/99/22 108/100/22 76/101/22
f 76/101/21 109/102/21 77/180/21
f 77/103/20 110/104/20 78/106/20
f 78/106/19 111/107/19 79/108/19
f 79/108/18 112/109/18 80/110/18
f 80/110/17 113/111/17 81/112/17
f 81/112/16 114/113/16 82/114/16
f 82/114/15 115/115/15 83/116/15
f 83/116/14 116/117/14 84/118/14
f 84/118/13 117/119/13 85/181/13
f 85/120/12 118/121/12 86/123/12
f 86/123/11 119/124/11 87/125/11
f 87/125/10 120/126/10 88/127/10
f 88/127/9 121/128/9 89/129/9
f 89/129/8 122/130/8 90/131/8
f 90/131/7 123/132/7 91/182/7
f 91/133/6 124/134/6 92/136/6
f 92/136/5 125/137/5 93/138/5
f 93/138/4 126/139/4 94/140/4
f 94/140/3 127/141/3 95/142/3
f 95/142/2 128/77/2 96/75/2
f 127/141/2 1/143/2 128/77/2
f 126/139/3 32/144/3 127/141/3
f 125/137/4 31/145/4 126/139/4
f 124/134/5 30/146/5 125/137/5
f 123/135/6 29/147/6 124/134/6
f 122/130/7 28/149/7 123/132/7
f 121/128/8 27/150/8 122/130/8
f 120/126/9 26/151/9 121/128/9
f 119/124/10 25/152/10 120/126/10
f 118/121/11 24/153/11 119/124/11
f 117/122/12 23/154/12 118/121/12
f 116/117/13 22/156/13 117/119/13
f 115/115/14 21/157/14 116/117/14
f 114/113/15 20/158/15 115/115/15
f 113/111/16 19/159/16 114/113/16
f 112/109/17 18/160/17 113/111/17
f 111/107/18 17/161/18 112/109/18
f 110/104/19 16/162/19 111/107/19
f 109/105/20 15/163/20 110/104/20
f 108/100/21 14/165/21 109/102/21
f 107/98/22 13/166/22 108/100/22
f 106/96/23 12/167/23 107/98/23
f 105/94/24 11/168/24 106/96/24
f 104/92/25 10/169/25 105/94/25
f 103/90/26 9/170/26 104/92/26
f 102/88/27 8/171/27 103/90/27
f 101/86/28 7/172/28 102/88/28
f 100/83/29 6/173/29 101/86/29
f 99/84/30 5/174/30 100/83/30
f 98/79/31 4/176/31 99/81/31
f 97/76/32 3/177/32 98/79/32
f 128/77/33 2/178/33 97/76/33
f 129/5/33 65/78/33 130/70/33
f 130/70/32 66/80/32 131/68/32
f 131/68/31 67/179/31 132/67/31
f 132/65/30 68/85/30 133/63/30
f 133/63/29 69/87/29 134/61/29
f 134/61/28 70/89/28 135/59/28
f 135/59/27 71/91/27 136/57/27
f 136/57/26 72/93/26 137/55/26
f 137/55/25 73/95/25 138/53/25
f 138/53/24 74/97/24 139/51/24
f 139/51/23 75/99/23 140/49/23
f 140/49/22 76/101/22 141/47/22
f 141/47/21 77/180/21 142/46/21
f 142/44/20 78/106/20 143/42/20
f 143/42/19 79/108/19 144/40/19
f 144/40/18 80/110/18 145/38/18
f 145/38/17 81/112/17 146/36/17
f 146/36/16 82/114/16 147/34/16
f 147/34/15 83/116/15 148/32/15
f 148/32/14 84/118/14 149/30/14
f 149/30/13 85/181/13 150/29/13
f 150/27/12 86/123/12 151/25/12
f 151/25/11 87/125/11 152/23/11
f 152/23/10 88/127/10 153/21/10
f 153/21/9 89/129/9 154/19/9
f 154/19/8 90/131/8 155/17/8
f 155/17/7 91/182/7 156/16/7
f 156/14/6 92/136/6 157/12/6
f 157/12/5 93/138/5 158/10/5
f 158/10/4 94/140/4 159/8/4
f 159/8/3 95/142/3 160/6/3
f 160/6/2 96/75/2 129/5/2
