# Blender 4.5.3 LTS
# www.blender.org
o C2_C3_H_UW
v -21.407000 35.500000 9.750002
v -21.407000 -35.500000 9.749998
v -21.163137 35.500000 9.725983
v -21.163137 -35.500000 9.725980
v -20.928646 35.500000 9.654851
v -20.928646 -35.500000 9.654848
v -20.712536 35.500000 9.539339
v -20.712536 -35.500000 9.539335
v -20.523117 35.500000 9.383885
v -20.523117 -35.500000 9.383882
v -20.367662 35.500000 9.194465
v -20.367662 -35.500000 9.194461
v -20.252150 35.500000 8.978355
v -20.252150 -35.500000 8.978353
v -20.181019 35.500000 8.743864
v -20.181019 -35.500000 8.743861
v -20.157000 35.500000 8.500002
v -20.157000 -35.500000 8.499998
v -20.181019 35.500000 8.256139
v -20.181019 -35.500000 8.256136
v -20.252150 35.500000 8.021647
v -20.252150 -35.500000 8.021645
v -20.367662 35.500000 7.805539
v -20.367662 -35.500000 7.805536
v -20.523117 35.500000 7.616118
v -20.523117 -35.500000 7.616115
v -20.712536 35.500000 7.460665
v -20.712536 -35.500000 7.460661
v -20.928646 35.500000 7.345152
v -20.928646 -35.500000 7.345149
v -21.163137 35.500000 7.274020
v -21.163137 -35.500000 7.274017
v -21.407000 35.500000 7.250001
v -21.407000 -35.500000 7.249999
v -21.650862 35.500000 7.274020
v -21.650862 -35.500000 7.274017
v -21.885353 35.500000 7.345152
v -21.885353 -35.500000 7.345149
v -22.101463 35.500000 7.460665
v -22.101463 -35.500000 7.460661
v -22.290882 35.500000 7.616118
v -22.290882 -35.500000 7.616115
v -22.446337 35.500000 7.805539
v -22.446337 -35.500000 7.805536
v -22.561850 35.500000 8.021647
v -22.561850 -35.500000 8.021645
v -22.632980 35.500000 8.256139
v -22.632980 -35.500000 8.256136
v -22.657000 35.500000 8.500002
v -22.657000 -35.500000 8.499998
v -22.632980 35.500000 8.743864
v -22.632980 -35.500000 8.743861
v -22.561850 35.500000 8.978355
v -22.561850 -35.500000 8.978353
v -22.446337 35.500000 9.194465
v -22.446337 -35.500000 9.194461
v -22.290882 35.500000 9.383885
v -22.290882 -35.500000 9.383882
v -22.101463 35.500000 9.539339
v -22.101463 -35.500000 9.539335
v -21.885353 35.500000 9.654851
v -21.885353 -35.500000 9.654848
v -21.650862 35.500000 9.725983
v -21.650862 -35.500000 9.725980
v -21.407000 -0.000000 9.750000
v -21.163137 -0.000000 9.725982
v -20.928646 -0.000000 9.654849
v -20.712536 -0.000000 9.539337
v -20.523117 -0.000000 9.383883
v -20.367662 -0.000000 9.194463
v -20.252150 -0.000000 8.978354
v -20.181019 -0.000000 8.743863
v -20.157000 0.000000 8.500000
v -20.181019 0.000000 8.256137
v -20.252150 0.000000 8.021646
v -20.367662 0.000000 7.805537
v -20.523117 0.000000 7.616117
v -20.712536 0.000000 7.460663
v -20.928646 0.000000 7.345150
v -21.163137 0.000000 7.274018
v -21.407000 0.000000 7.250000
v -21.650862 0.000000 7.274018
v -21.885353 0.000000 7.345150
v -22.101463 0.000000 7.460663
v -22.290882 0.000000 7.616117
v -22.446337 0.000000 7.805537
v -22.561850 0.000000 8.021646
v -22.632980 0.000000 8.256137
v -22.657000 0.000000 8.500000
v -22.632980 -0.000000 8.743863
v -22.561850 -0.000000 8.978354
v -22.446337 -0.000000 9.194463
v -22.290882 -0.000000 9.383883
v -22.101463 -0.000000 9.539337
v -21.885353 -0.000000 9.654849
v -21.650862 -0.000000 9.725982
v -21.407000 -17.750000 9.749999
v -21.163137 -17.750000 9.725981
v -20.928646 -17.750000 9.654848
v -20.712536 -17.750000 9.539336
v -20.523117 -17.750000 9.383883
v -20.367662 -17.750000 9.194462
v -20.252150 -17.750000 8.978354
v -20.181019 -17.750000 8.743862
v -20.157000 -17.750000 8.499999
v -20.181019 -17.750000 8.256136
v -20.252150 -17.750000 8.021645
v -20.367662 -17.750000 7.805536
v -20.523117 -17.750000 7.616116
v -20.712536 -17.750000 7.460662
v -20.928646 -17.750000 7.345150
v -21.163137 -17.750000 7.274017
v -21.407000 -17.750000 7.249999
v -21.650862 -17.750000 7.274017
v -21.885353 -17.750000 7.345150
v -22.101463 -17.750000 7.460662
v -22.290882 -17.750000 7.616116
v -22.446337 -17.750000 7.805536
v -22.561850 -17.750000 8.021645
v -22.632980 -17.750000 8.256136
v -22.657000 -17.750000 8.499999
v -22.632980 -17.750000 8.743862
v -22.561850 -17.750000 8.978354
v -22.446337 -17.750000 9.194462
v -22.290882 -17.750000 9.383883
v -22.101463 -17.750000 9.539336
v -21.885353 -17.750000 9.654848
v -21.650862 -17.750000 9.725981
v -21.163137 17.750000 9.725983
v -20.928646 17.750000 9.654850
v -20.712536 17.750000 9.539338
v -20.523117 17.750000 9.383884
v -20.367662 17.750000 9.194464
v -20.252150 17.750000 8.978355
v -20.181019 17.750000 8.743864
v -20.157000 17.750000 8.500001
v -20.181019 17.750000 8.256138
v -20.252150 17.750000 8.021646
v -20.367662 17.750000 7.805538
v -20.523117 17.750000 7.616117
v -20.712536 17.750000 7.460664
v -20.928646 17.750000 7.345151
v -21.163137 17.750000 7.274019
v -21.407000 17.750000 7.250001
v -21.650862 17.750000 7.274019
v -21.885353 17.750000 7.345151
v -22.101463 17.750000 7.460664
v -22.290882 17.750000 7.616117
v -22.446337 17.750000 7.805538
v -22.561850 17.750000 8.021646
v -22.632980 17.750000 8.256138
v -22.657000 17.750000 8.500001
v -22.632980 17.750000 8.743864
v -22.561850 17.750000 8.978355
v -22.446337 17.750000 9.194464
v -22.290882 17.750000 9.383884
v -22.101463 17.750000 9.539338
v -21.885353 17.750000 9.654850
v -21.650862 17.750000 9.725983
v -21.407000 17.750000 9.750001
v -21.163137 -8.875000 9.725981
v -20.928646 -8.875000 9.654849
v -20.712536 -8.875000 9.539337
v -20.523117 -8.875000 9.383883
v -20.367662 -8.875000 9.194463
v -20.252150 -8.875000 8.978354
v -20.181019 -8.875000 8.743862
v -20.157000 -8.875000 8.500000
v -20.181019 -8.875000 8.256137
v -20.252150 -8.875000 8.021646
v -20.367662 -8.875000 7.805537
v -20.523117 -8.875000 7.616116
v -20.712536 -8.875000 7.460663
v -20.928646 -8.875000 7.345150
v -21.163137 -8.875000 7.274018
v -21.407000 -8.875000 7.250000
v -21.650862 -8.875000 7.274018
v -21.885353 -8.875000 7.345150
v -22.101463 -8.875000 7.460663
v -22.290882 -8.875000 7.616116
v -22.446337 -8.875000 7.805537
v -22.561850 -8.875000 8.021646
v -22.632980 -8.875000 8.256137
v -22.657000 -8.875000 8.500000
v -22.632980 -8.875000 8.743862
v -22.561850 -8.875000 8.978354
v -22.446337 -8.875000 9.194463
v -22.290882 -8.875000 9.383883
v -22.101463 -8.875000 9.539337
v -21.885353 -8.875000 9.654849
v -21.650862 -8.875000 9.725981
v -21.407000 -8.875000 9.750000
v -21.163137 26.625000 9.725983
v -20.928646 26.625000 9.654851
v -20.712536 26.625000 9.539338
v -20.523117 26.625000 9.383884
v -20.367662 26.625000 9.194464
v -20.252150 26.625000 8.978355
v -20.181019 26.625000 8.743864
v -20.157000 26.625000 8.500001
v -20.181019 26.625000 8.256138
v -20.252150 26.625000 8.021646
v -20.367662 26.625000 7.805538
v -20.523117 26.625000 7.616117
v -20.712536 26.625000 7.460664
v -20.928646 26.625000 7.345152
v -21.163137 26.625000 7.274020
v -21.407000 26.625000 7.250001
v -21.650862 26.625000 7.274020
v -21.885353 26.625000 7.345152
v -22.101463 26.625000 7.460664
v -22.290882 26.625000 7.616117
v -22.446337 26.625000 7.805538
v -22.561850 26.625000 8.021646
v -22.632980 26.625000 8.256138
v -22.657000 26.625000 8.500001
v -22.632980 26.625000 8.743864
v -22.561850 26.625000 8.978355
v -22.446337 26.625000 9.194464
v -22.290882 26.625000 9.383884
v -22.101463 26.625000 9.539338
v -21.885353 26.625000 9.654851
v -21.650862 26.625000 9.725983
v -21.407000 26.625000 9.750001
v -21.407000 -26.625000 9.749999
v -21.163137 -26.625000 9.725981
v -20.928646 -26.625000 9.654848
v -20.712536 -26.625000 9.539336
v -20.523117 -26.625000 9.383883
v -20.367662 -26.625000 9.194462
v -20.252150 -26.625000 8.978354
v -20.181019 -26.625000 8.743862
v -20.157000 -26.625000 8.499999
v -20.181019 -26.625000 8.256136
v -20.252150 -26.625000 8.021645
v -20.367662 -26.625000 7.805536
v -20.523117 -26.625000 7.616116
v -20.712536 -26.625000 7.460662
v -20.928646 -26.625000 7.345150
v -21.163137 -26.625000 7.274017
v -21.407000 -26.625000 7.249999
v -21.650862 -26.625000 7.274017
v -21.885353 -26.625000 7.345150
v -22.101463 -26.625000 7.460662
v -22.290882 -26.625000 7.616116
v -22.446337 -26.625000 7.805536
v -22.561850 -26.625000 8.021645
v -22.632980 -26.625000 8.256136
v -22.657000 -26.625000 8.499999
v -22.632980 -26.625000 8.743862
v -22.561850 -26.625000 8.978354
v -22.446337 -26.625000 9.194462
v -22.290882 -26.625000 9.383883
v -22.101463 -26.625000 9.539336
v -21.885353 -26.625000 9.654848
v -21.650862 -26.625000 9.725981
v -21.407000 8.875000 9.750000
v -21.163137 8.875000 9.725982
v -20.928646 8.875000 9.654850
v -20.712536 8.875000 9.539337
v -20.523117 8.875000 9.383883
v -20.367662 8.875000 9.194463
v -20.252150 8.875000 8.978354
v -20.181019 8.875000 8.743863
v -20.157000 8.875000 8.500000
v -20.181019 8.875000 8.256138
v -20.252150 8.875000 8.021646
v -20.367662 8.875000 7.805538
v -20.523117 8.875000 7.616117
v -20.712536 8.875000 7.460663
v -20.928646 8.875000 7.345151
v -21.163137 8.875000 7.274019
v -21.407000 8.875000 7.250000
v -21.650862 8.875000 7.274019
v -21.885353 8.875000 7.345151
v -22.101463 8.875000 7.460663
v -22.290882 8.875000 7.616117
v -22.446337 8.875000 7.805538
v -22.561850 8.875000 8.021646
v -22.632980 8.875000 8.256138
v -22.657000 8.875000 8.500000
v -22.632980 8.875000 8.743863
v -22.561850 8.875000 8.978354
v -22.446337 8.875000 9.194463
v -22.290882 8.875000 9.383883
v -22.101463 8.875000 9.539337
v -21.885353 8.875000 9.654850
v -21.650862 8.875000 9.725982
vn 0.0980 -0.0000 0.9952
vn 0.2903 -0.0000 0.9569
vn 0.4714 -0.0000 0.8819
vn 0.6344 -0.0000 0.7730
vn 0.7730 -0.0000 0.6344
vn 0.8819 -0.0000 0.4714
vn 0.9569 -0.0000 0.2903
vn 0.9952 -0.0000 0.0980
vn 0.9952 -0.0000 -0.0980
vn 0.9569 -0.0000 -0.2903
vn 0.8819 -0.0000 -0.4714
vn 0.7730 -0.0000 -0.6344
vn 0.6344 -0.0000 -0.7730
vn 0.4714 -0.0000 -0.8819
vn 0.2903 -0.0000 -0.9569
vn 0.0980 -0.0000 -0.9952
vn -0.0980 -0.0000 -0.9952
vn -0.2903 -0.0000 -0.9569
vn -0.4714 -0.0000 -0.8819
vn -0.6344 -0.0000 -0.7730
vn -0.7730 -0.0000 -0.6344
vn -0.8819 -0.0000 -0.4714
vn -0.9569 -0.0000 -0.2903
vn -0.9952 -0.0000 -0.0980
vn -0.9952 -0.0000 0.0980
vn -0.9569 -0.0000 0.2903
vn -0.8819 -0.0000 0.4714
vn -0.7730 -0.0000 0.6344
vn -0.6344 -0.0000 0.7730
vn -0.4714 -0.0000 0.8819
vn -0.0000 -1.0000 -0.0000
vn -0.2903 -0.0000 0.9569
vn -0.0980 -0.0000 0.9952
vn -0.0000 1.0000 -0.0000
vn 0.0001 -1.0000 -0.0000
vt 0.535360 0.032701
vt 0.539728 0.091714
vt 0.535360 0.091714
vt 0.539728 0.032701
vt 0.543442 0.091714
vt 0.468017 0.032701
vt 0.472385 0.091714
vt 0.468017 0.091714
vt 0.472385 0.032701
vt 0.477238 0.091714
vt 0.477238 0.032701
vt 0.482390 0.091714
vt 0.482390 0.032701
vt 0.487643 0.091714
vt 0.487643 0.032701
vt 0.492795 0.091714
vt 0.492795 0.032701
vt 0.497648 0.091714
vt 0.497648 0.032701
vt 0.502015 0.091714
vt 0.502015 0.032701
vt 0.505730 0.091714
vt 0.505730 0.504806
vt 0.510097 0.563819
vt 0.505730 0.563819
vt 0.510097 0.504806
vt 0.514950 0.563819
vt 0.514950 0.504806
vt 0.520102 0.563819
vt 0.520102 0.504806
vt 0.525355 0.563819
vt 0.525355 0.504806
vt 0.530507 0.563819
vt 0.530507 0.504806
vt 0.535360 0.563819
vt 0.535360 0.504806
vt 0.539728 0.563819
vt 0.539728 0.504806
vt 0.543442 0.563819
vt 0.468017 0.504806
vt 0.472385 0.563819
vt 0.468017 0.563819
vt 0.472385 0.504806
vt 0.477238 0.563819
vt 0.477238 0.504806
vt 0.482390 0.563819
vt 0.482390 0.504806
vt 0.487643 0.563819
vt 0.487643 0.504806
vt 0.492795 0.563819
vt 0.492795 0.504806
vt 0.497648 0.563819
vt 0.497648 0.504806
vt 0.502015 0.563819
vt 0.502015 0.504806
vt 0.505730 0.032701
vt 0.510097 0.091714
vt 0.510097 0.032701
vt 0.514950 0.091714
vt 0.514950 0.032701
vt 0.520102 0.091714
vt 0.520102 0.032701
vt 0.525355 0.091714
vt 0.205195 0.486551
vt 0.256901 0.657002
vt 0.086449 0.708708
vt 0.525355 0.032701
vt 0.530507 0.091714
vt 0.530507 0.032701
vt 0.187572 0.791693
vt 0.201230 0.930372
vt 0.062551 0.944031
vt 0.530507 0.268753
vt 0.535360 0.327766
vt 0.530507 0.327766
vt 0.525355 0.268753
vt 0.525355 0.327766
vt 0.520102 0.268753
vt 0.520102 0.327766
vt 0.514950 0.268753
vt 0.514950 0.327766
vt 0.510097 0.268753
vt 0.510097 0.327766
vt 0.505730 0.268753
vt 0.505730 0.327766
vt 0.502015 0.740859
vt 0.505730 0.799872
vt 0.502015 0.799872
vt 0.497648 0.740859
vt 0.497648 0.799872
vt 0.492795 0.740859
vt 0.492795 0.799872
vt 0.487643 0.740859
vt 0.487643 0.799872
vt 0.482390 0.740859
vt 0.482390 0.799872
vt 0.477238 0.740859
vt 0.477238 0.799872
vt 0.472385 0.740859
vt 0.472385 0.799872
vt 0.468017 0.740859
vt 0.468017 0.799872
vt 0.539728 0.740859
vt 0.543442 0.799872
vt 0.539728 0.799872
vt 0.535360 0.740859
vt 0.535360 0.799872
vt 0.530507 0.740859
vt 0.530507 0.799872
vt 0.525355 0.740859
vt 0.525355 0.799872
vt 0.520102 0.740859
vt 0.520102 0.799872
vt 0.514950 0.740859
vt 0.514950 0.799872
vt 0.510097 0.740859
vt 0.510097 0.799872
vt 0.505730 0.740859
vt 0.502015 0.268753
vt 0.505730 0.327766
vt 0.502015 0.327766
vt 0.497648 0.268753
vt 0.497648 0.327766
vt 0.492795 0.268753
vt 0.492795 0.327766
vt 0.487643 0.268753
vt 0.487643 0.327766
vt 0.482390 0.268753
vt 0.482390 0.327766
vt 0.477238 0.268753
vt 0.477238 0.327766
vt 0.472385 0.268753
vt 0.472385 0.327766
vt 0.468017 0.268753
vt 0.468017 0.327766
vt 0.539728 0.268753
vt 0.543442 0.327766
vt 0.539728 0.327766
vt 0.535360 0.268753
vt 0.530507 0.150727
vt 0.535360 0.209740
vt 0.530507 0.209740
vt 0.525355 0.150727
vt 0.525355 0.209740
vt 0.520102 0.150727
vt 0.520102 0.209740
vt 0.514950 0.150727
vt 0.514950 0.209740
vt 0.510097 0.150727
vt 0.510097 0.209740
vt 0.505730 0.150727
vt 0.505730 0.209740
vt 0.502015 0.622832
vt 0.505730 0.681845
vt 0.502015 0.681845
vt 0.497648 0.622832
vt 0.497648 0.681845
vt 0.492795 0.622832
vt 0.492795 0.681845
vt 0.487643 0.622832
vt 0.487643 0.681845
vt 0.482390 0.622832
vt 0.482390 0.681845
vt 0.477238 0.622832
vt 0.477238 0.681845
vt 0.472385 0.622832
vt 0.472385 0.681845
vt 0.468017 0.622832
vt 0.468017 0.681845
vt 0.539728 0.622832
vt 0.543442 0.681845
vt 0.539728 0.681845
vt 0.535360 0.622832
vt 0.535360 0.681845
vt 0.530507 0.622832
vt 0.530507 0.681845
vt 0.525355 0.622832
vt 0.525355 0.681845
vt 0.520102 0.622832
vt 0.520102 0.681845
vt 0.514950 0.622832
vt 0.514950 0.681845
vt 0.510097 0.622832
vt 0.510097 0.681845
vt 0.505730 0.622832
vt 0.505730 0.681845
vt 0.502015 0.150727
vt 0.505730 0.209740
vt 0.502015 0.209740
vt 0.497648 0.150727
vt 0.497648 0.209740
vt 0.492795 0.150727
vt 0.492795 0.209740
vt 0.487643 0.150727
vt 0.487643 0.209740
vt 0.482390 0.150727
vt 0.482390 0.209740
vt 0.477238 0.150727
vt 0.477238 0.209740
vt 0.472385 0.150727
vt 0.472385 0.209740
vt 0.468017 0.150727
vt 0.468017 0.209740
vt 0.539728 0.150727
vt 0.543442 0.209740
vt 0.539728 0.209740
vt 0.535360 0.150727
vt 0.535360 0.386779
vt 0.539728 0.445793
vt 0.535360 0.445793
vt 0.539728 0.386779
vt 0.543442 0.445793
vt 0.468017 0.386780
vt 0.472385 0.445793
vt 0.468017 0.445793
vt 0.472385 0.386780
vt 0.477238 0.445793
vt 0.477238 0.386780
vt 0.482390 0.445793
vt 0.482390 0.386780
vt 0.487643 0.445793
vt 0.487643 0.386780
vt 0.492795 0.445793
vt 0.492795 0.386780
vt 0.497648 0.445793
vt 0.497648 0.386780
vt 0.502015 0.445793
vt 0.502015 0.386780
vt 0.505730 0.445793
vt 0.505730 0.858885
vt 0.510097 0.917898
vt 0.505730 0.917898
vt 0.510097 0.858885
vt 0.514950 0.917898
vt 0.514950 0.858885
vt 0.520102 0.917898
vt 0.520102 0.858885
vt 0.525355 0.917898
vt 0.525355 0.858885
vt 0.530507 0.917898
vt 0.530507 0.858885
vt 0.535360 0.917898
vt 0.535360 0.858885
vt 0.539728 0.917898
vt 0.539728 0.858885
vt 0.543442 0.917898
vt 0.468017 0.858885
vt 0.472385 0.917898
vt 0.468017 0.917898
vt 0.472385 0.858885
vt 0.477238 0.917898
vt 0.477238 0.858885
vt 0.482390 0.917898
vt 0.482390 0.858885
vt 0.487643 0.917898
vt 0.487643 0.858885
vt 0.492795 0.917898
vt 0.492795 0.858885
vt 0.497648 0.917898
vt 0.497648 0.858885
vt 0.502015 0.917898
vt 0.502015 0.858885
vt 0.505730 0.917898
vt 0.505730 0.386779
vt 0.510097 0.445793
vt 0.505730 0.445793
vt 0.510097 0.386779
vt 0.514950 0.445793
vt 0.514950 0.386779
vt 0.520102 0.445793
vt 0.520102 0.386779
vt 0.525355 0.445793
vt 0.525355 0.386779
vt 0.530507 0.445793
vt 0.530507 0.386779
vt 0.543442 0.268753
vt 0.505730 0.268753
vt 0.543442 0.740859
vt 0.535360 0.504806
vt 0.530507 0.504806
vt 0.525355 0.504806
vt 0.520102 0.504806
vt 0.514950 0.504806
vt 0.510097 0.504806
vt 0.505730 0.504806
vt 0.505730 0.976911
vt 0.502015 0.976911
vt 0.497648 0.976911
vt 0.492795 0.976911
vt 0.487643 0.976911
vt 0.482390 0.976911
vt 0.477238 0.976911
vt 0.472385 0.976911
vt 0.468017 0.976911
vt 0.543442 0.976911
vt 0.539728 0.976911
vt 0.535360 0.976911
vt 0.530507 0.976911
vt 0.525355 0.976911
vt 0.520102 0.976911
vt 0.514950 0.976911
vt 0.510097 0.976911
vt 0.543442 0.504806
vt 0.539728 0.504806
vt 0.505730 0.622832
vt 0.543442 0.622832
vt 0.543442 0.150727
vt 0.543442 0.386779
vt 0.505730 0.386780
vt 0.543442 0.858885
vt 0.505730 0.858885
vt 0.543442 0.032701
vt 0.543442 0.504806
vt 0.065920 0.694990
vt 0.048461 0.677531
vt 0.034744 0.657002
vt 0.025295 0.634191
vt 0.020478 0.609975
vt 0.020478 0.585284
vt 0.025295 0.561068
vt 0.034744 0.538257
vt 0.048461 0.517727
vt 0.065920 0.500268
vt 0.086449 0.486551
vt 0.109261 0.477102
vt 0.133477 0.472285
vt 0.158167 0.472285
vt 0.182384 0.477102
vt 0.225724 0.500268
vt 0.266349 0.561068
vt 0.243183 0.517727
vt 0.256901 0.538257
vt 0.271166 0.585284
vt 0.271166 0.609975
vt 0.266349 0.634191
vt 0.243183 0.677531
vt 0.182384 0.718156
vt 0.225724 0.694990
vt 0.205195 0.708708
vt 0.158167 0.722973
vt 0.133477 0.722973
vt 0.109261 0.718156
vt 0.048892 0.930372
vt 0.038161 0.914311
vt 0.030769 0.896465
vt 0.027000 0.877520
vt 0.027000 0.858204
vt 0.030769 0.839259
vt 0.038161 0.821413
vt 0.048892 0.805352
vt 0.062551 0.791693
vt 0.078612 0.780962
vt 0.096458 0.773570
vt 0.115403 0.769801
vt 0.134719 0.769801
vt 0.153665 0.773570
vt 0.171511 0.780962
vt 0.201230 0.805352
vt 0.211962 0.821413
vt 0.219354 0.839259
vt 0.223122 0.858204
vt 0.223122 0.877520
vt 0.219354 0.896465
vt 0.211962 0.914311
vt 0.187572 0.944031
vt 0.171511 0.954763
vt 0.153665 0.962155
vt 0.134719 0.965923
vt 0.115403 0.965923
vt 0.096458 0.962155
vt 0.078612 0.954763
s 0
g off
f 2/1/1 226/2/1 225/3/1
f 4/4/2 227/5/2 226/2/2
f 6/6/3 228/7/3 227/8/3
f 8/9/4 229/10/4 228/7/4
f 10/11/5 230/12/5 229/10/5
f 12/13/6 231/14/6 230/12/6
f 14/15/7 232/16/7 231/14/7
f 16/17/8 233/18/8 232/16/8
f 18/19/9 234/20/9 233/18/9
f 20/21/10 235/22/10 234/20/10
f 22/23/11 236/24/11 235/25/11
f 24/26/12 237/27/12 236/24/12
f 26/28/13 238/29/13 237/27/13
f 28/30/14 239/31/14 238/29/14
f 30/32/15 240/33/15 239/31/15
f 32/34/16 241/35/16 240/33/16
f 34/36/17 242/37/17 241/35/17
f 36/38/18 243/39/18 242/37/18
f 38/40/19 244/41/19 243/42/19
f 40/43/20 245/44/20 244/41/20
f 42/45/21 246/46/21 245/44/21
f 44/47/22 247/48/22 246/46/22
f 46/49/23 248/50/23 247/48/23
f 48/51/24 249/52/24 248/50/24
f 50/53/25 250/54/25 249/52/25
f 52/55/26 251/25/26 250/54/26
f 54/56/27 252/57/27 251/22/27
f 56/58/28 253/59/28 252/57/28
f 58/60/29 254/61/29 253/59/29
f 60/62/30 255/63/30 254/61/30
f 38/64/31 22/65/31 6/66/31
f 62/67/32 256/68/32 255/63/32
f 64/69/33 225/3/33 256/68/33
f 31/70/34 47/71/34 63/72/34
f 96/73/33 257/74/33 288/75/33
f 95/76/32 288/75/32 287/77/32
f 94/78/30 287/77/30 286/79/30
f 93/80/29 286/79/29 285/81/29
f 92/82/28 285/81/28 284/83/28
f 91/84/27 284/83/27 283/85/27
f 90/86/26 283/87/26 282/88/26
f 89/89/25 282/88/25 281/90/25
f 88/91/24 281/90/24 280/92/24
f 87/93/23 280/92/23 279/94/23
f 86/95/22 279/94/22 278/96/22
f 85/97/21 278/96/21 277/98/21
f 84/99/20 277/98/20 276/100/20
f 83/101/19 276/100/19 275/102/19
f 82/103/18 275/104/18 274/105/18
f 81/106/17 274/105/17 273/107/17
f 80/108/16 273/107/16 272/109/16
f 79/110/15 272/109/15 271/111/15
f 78/112/14 271/111/14 270/113/14
f 77/114/13 270/113/13 269/115/13
f 76/116/12 269/115/12 268/117/12
f 75/118/11 268/117/11 267/87/11
f 74/119/10 267/120/10 266/121/10
f 73/122/9 266/121/9 265/123/9
f 72/124/8 265/123/8 264/125/8
f 71/126/7 264/125/7 263/127/7
f 70/128/6 263/127/6 262/129/6
f 69/130/5 262/129/5 261/131/5
f 68/132/4 261/131/4 260/133/4
f 67/134/3 260/133/3 259/135/3
f 66/136/2 259/137/2 258/138/2
f 65/139/1 258/138/1 257/74/1
f 128/140/33 192/141/33 191/142/33
f 127/143/32 191/142/32 190/144/32
f 126/145/30 190/144/30 189/146/30
f 125/147/29 189/146/29 188/148/29
f 124/149/28 188/148/28 187/150/28
f 123/151/27 187/150/27 186/152/27
f 122/153/26 186/154/26 185/155/26
f 121/156/25 185/155/25 184/157/25
f 120/158/24 184/157/24 183/159/24
f 119/160/23 183/159/23 182/161/23
f 118/162/22 182/161/22 181/163/22
f 117/164/21 181/163/21 180/165/21
f 116/166/20 180/165/20 179/167/20
f 115/168/19 179/167/19 178/169/19
f 114/170/18 178/171/18 177/172/18
f 113/173/17 177/172/17 176/174/17
f 112/175/16 176/174/16 175/176/16
f 111/177/15 175/176/15 174/178/15
f 110/179/14 174/178/14 173/180/14
f 109/181/13 173/180/13 172/182/13
f 108/183/12 172/182/12 171/184/12
f 107/185/11 171/184/11 170/186/11
f 106/187/10 170/188/10 169/189/10
f 105/190/9 169/189/9 168/191/9
f 104/192/8 168/191/8 167/193/8
f 103/194/7 167/193/7 166/195/7
f 102/196/6 166/195/6 165/197/6
f 101/198/5 165/197/5 164/199/5
f 100/200/4 164/199/4 163/201/4
f 99/202/3 163/201/3 162/203/3
f 98/204/2 162/205/2 161/206/2
f 97/207/1 161/206/1 192/141/1
f 160/208/1 193/209/1 224/210/1
f 129/211/2 194/212/2 193/209/2
f 130/213/3 195/214/3 194/215/3
f 131/216/4 196/217/4 195/214/4
f 132/218/5 197/219/5 196/217/5
f 133/220/6 198/221/6 197/219/6
f 134/222/7 199/223/7 198/221/7
f 135/224/8 200/225/8 199/223/8
f 136/226/9 201/227/9 200/225/9
f 137/228/10 202/229/10 201/227/10
f 138/230/11 203/231/11 202/232/11
f 139/233/12 204/234/12 203/231/12
f 140/235/13 205/236/13 204/234/13
f 141/237/14 206/238/14 205/236/14
f 142/239/15 207/240/15 206/238/15
f 143/241/16 208/242/16 207/240/16
f 144/243/17 209/244/17 208/242/17
f 145/245/18 210/246/18 209/244/18
f 146/247/19 211/248/19 210/249/19
f 147/250/20 212/251/20 211/248/20
f 148/252/21 213/253/21 212/251/21
f 149/254/22 214/255/22 213/253/22
f 150/256/23 215/257/23 214/255/23
f 151/258/24 216/259/24 215/257/24
f 152/260/25 217/261/25 216/259/25
f 153/262/26 218/263/26 217/261/26
f 154/264/27 219/265/27 218/266/27
f 155/267/28 220/268/28 219/265/28
f 156/269/29 221/270/29 220/268/29
f 157/271/30 222/272/30 221/270/30
f 158/273/32 223/274/32 222/272/32
f 159/275/33 224/210/33 223/274/33
f 192/141/1 66/136/1 65/139/1
f 161/206/2 67/276/2 66/136/2
f 162/203/3 68/132/3 67/134/3
f 163/201/4 69/130/4 68/132/4
f 164/199/5 70/128/5 69/130/5
f 165/197/6 71/126/6 70/128/6
f 166/195/7 72/124/7 71/126/7
f 167/193/8 73/122/8 72/124/8
f 168/191/9 74/119/9 73/122/9
f 169/189/10 75/277/10 74/119/10
f 170/186/11 76/116/11 75/118/11
f 171/184/12 77/114/12 76/116/12
f 172/182/13 78/112/13 77/114/13
f 173/180/14 79/110/14 78/112/14
f 174/178/15 80/108/15 79/110/15
f 175/176/16 81/106/16 80/108/16
f 176/174/17 82/103/17 81/106/17
f 177/172/18 83/278/18 82/103/18
f 178/169/19 84/99/19 83/101/19
f 179/167/20 85/97/20 84/99/20
f 180/165/21 86/95/21 85/97/21
f 181/163/22 87/93/22 86/95/22
f 182/161/23 88/91/23 87/93/23
f 183/159/24 89/89/24 88/91/24
f 184/157/25 90/86/25 89/89/25
f 185/155/26 91/118/26 90/86/26
f 186/152/27 92/82/27 91/84/27
f 187/150/28 93/80/28 92/82/28
f 188/148/29 94/78/29 93/80/29
f 189/146/30 95/76/30 94/78/30
f 190/144/32 96/73/32 95/76/32
f 191/142/33 65/139/33 96/73/33
f 223/274/33 1/279/33 63/280/33
f 222/272/32 63/280/32 61/281/32
f 221/270/30 61/281/30 59/282/30
f 220/268/29 59/282/29 57/283/29
f 219/265/28 57/283/28 55/284/28
f 218/266/27 55/284/27 53/285/27
f 217/261/26 53/286/26 51/287/26
f 216/259/25 51/287/25 49/288/25
f 215/257/24 49/288/24 47/289/24
f 214/255/23 47/289/23 45/290/23
f 213/253/22 45/290/22 43/291/22
f 212/251/21 43/291/21 41/292/21
f 211/248/20 41/292/20 39/293/20
f 210/249/19 39/293/19 37/294/19
f 209/244/18 37/295/18 35/296/18
f 208/242/17 35/296/17 33/297/17
f 207/240/16 33/297/16 31/298/16
f 206/238/15 31/298/15 29/299/15
f 205/236/14 29/299/14 27/300/14
f 204/234/13 27/300/13 25/301/13
f 203/231/12 25/301/12 23/302/12
f 202/232/11 23/302/11 21/286/11
f 201/227/10 21/23/10 19/55/10
f 200/225/9 19/55/9 17/53/9
f 199/223/8 17/53/8 15/51/8
f 198/221/7 15/51/7 13/49/7
f 197/219/6 13/49/6 11/47/6
f 196/217/5 11/47/5 9/45/5
f 195/214/4 9/45/4 7/43/4
f 194/215/3 7/43/3 5/40/3
f 193/209/2 5/303/2 3/304/2
f 224/210/1 3/304/1 1/279/1
f 256/68/33 97/207/33 128/140/33
f 255/63/32 128/140/32 127/143/32
f 254/61/30 127/143/30 126/145/30
f 253/59/29 126/145/29 125/147/29
f 252/57/28 125/147/28 124/149/28
f 251/22/27 124/149/27 123/151/27
f 250/54/26 123/305/26 122/153/26
f 249/52/25 122/153/25 121/156/25
f 248/50/24 121/156/24 120/158/24
f 247/48/23 120/158/23 119/160/23
f 246/46/22 119/160/22 118/162/22
f 245/44/21 118/162/21 117/164/21
f 244/41/20 117/164/20 116/166/20
f 243/42/19 116/166/19 115/168/19
f 242/37/18 115/306/18 114/170/18
f 241/35/17 114/170/17 113/173/17
f 240/33/16 113/173/16 112/175/16
f 239/31/15 112/175/15 111/177/15
f 238/29/14 111/177/14 110/179/14
f 237/27/13 110/179/13 109/181/13
f 236/24/12 109/181/12 108/183/12
f 235/25/11 108/183/11 107/185/11
f 234/20/10 107/151/10 106/187/10
f 233/18/9 106/187/9 105/190/9
f 232/16/8 105/190/8 104/192/8
f 231/14/7 104/192/7 103/194/7
f 230/12/6 103/194/6 102/196/6
f 229/10/5 102/196/5 101/198/5
f 228/7/4 101/198/4 100/200/4
f 227/8/3 100/200/3 99/202/3
f 226/2/2 99/307/2 98/204/2
f 225/3/1 98/204/1 97/207/1
f 257/74/1 129/211/1 160/208/1
f 258/138/2 130/308/2 129/211/2
f 259/135/3 131/216/3 130/213/3
f 260/133/4 132/218/4 131/216/4
f 261/131/5 133/220/5 132/218/5
f 262/129/6 134/222/6 133/220/6
f 263/127/7 135/224/7 134/222/7
f 264/125/8 136/226/8 135/224/8
f 265/123/9 137/228/9 136/226/9
f 266/121/10 138/309/10 137/228/10
f 267/87/11 139/233/11 138/230/11
f 268/117/12 140/235/12 139/233/12
f 269/115/13 141/237/13 140/235/13
f 270/113/14 142/239/14 141/237/14
f 271/111/15 143/241/15 142/239/15
f 272/109/16 144/243/16 143/241/16
f 273/107/17 145/245/17 144/243/17
f 274/105/18 146/310/18 145/245/18
f 275/102/19 147/250/19 146/247/19
f 276/100/20 148/252/20 147/250/20
f 277/98/21 149/254/21 148/252/21
f 278/96/22 150/256/22 149/254/22
f 279/94/23 151/258/23 150/256/23
f 280/92/24 152/260/24 151/258/24
f 281/90/25 153/262/25 152/260/25
f 282/88/26 154/311/26 153/262/26
f 283/85/27 155/267/27 154/264/27
f 284/83/28 156/269/28 155/267/28
f 285/81/29 157/271/29 156/269/29
f 286/79/30 158/273/30 157/271/30
f 287/77/32 159/275/32 158/273/32
f 288/75/33 160/208/33 159/275/33
f 2/1/1 4/4/1 226/2/1
f 4/4/2 6/312/2 227/5/2
f 6/6/3 8/9/3 228/7/3
f 8/9/4 10/11/4 229/10/4
f 10/11/5 12/13/5 230/12/5
f 12/13/6 14/15/6 231/14/6
f 14/15/7 16/17/7 232/16/7
f 16/17/8 18/19/8 233/18/8
f 18/19/9 20/21/9 234/20/9
f 20/21/10 22/56/10 235/22/10
f 22/23/11 24/26/11 236/24/11
f 24/26/12 26/28/12 237/27/12
f 26/28/13 28/30/13 238/29/13
f 28/30/14 30/32/14 239/31/14
f 30/32/15 32/34/15 240/33/15
f 32/34/16 34/36/16 241/35/16
f 34/36/17 36/38/17 242/37/17
f 36/38/18 38/313/18 243/39/18
f 38/40/19 40/43/19 244/41/19
f 40/43/20 42/45/20 245/44/20
f 42/45/21 44/47/21 246/46/21
f 44/47/22 46/49/22 247/48/22
f 46/49/23 48/51/23 248/50/23
f 48/51/24 50/53/24 249/52/24
f 50/53/25 52/55/25 250/54/25
f 52/55/26 54/23/26 251/25/26
f 54/56/27 56/58/27 252/57/27
f 56/58/28 58/60/28 253/59/28
f 58/60/29 60/62/29 254/61/29
f 60/62/30 62/67/30 255/63/30
f 6/66/31 4/314/31 2/315/31
f 2/315/31 64/316/31 6/66/31
f 64/316/31 62/317/31 6/66/31
f 62/317/31 60/318/31 58/319/31
f 58/319/31 56/320/31 54/321/31
f 54/321/31 52/322/31 50/323/31
f 50/323/31 48/324/31 54/321/31
f 48/324/31 46/325/31 54/321/31
f 46/325/31 44/326/31 42/327/31
f 42/327/31 40/328/31 38/64/31
f 38/64/31 36/329/31 30/330/31
f 36/329/31 34/331/31 30/330/31
f 34/331/31 32/332/31 30/330/31
f 30/330/31 28/333/31 26/334/31
f 26/334/31 24/335/31 22/65/31
f 22/65/31 20/336/31 14/337/31
f 20/336/35 18/338/35 14/337/35
f 18/338/31 16/339/31 14/337/31
f 14/337/31 12/340/31 10/341/31
f 10/341/31 8/342/31 6/66/31
f 62/317/31 58/319/31 6/66/31
f 58/319/31 54/321/31 6/66/31
f 46/325/31 42/327/31 54/321/31
f 42/327/31 38/64/31 54/321/31
f 30/330/31 26/334/31 38/64/31
f 26/334/31 22/65/31 38/64/31
f 14/337/31 10/341/31 22/65/31
f 10/341/31 6/66/31 22/65/31
f 6/66/31 54/321/31 38/64/31
f 62/67/32 64/69/32 256/68/32
f 64/69/33 2/1/33 225/3/33
f 63/72/34 1/343/34 3/344/34
f 3/344/34 5/345/34 7/346/34
f 7/346/34 9/347/34 11/348/34
f 11/348/34 13/349/34 15/350/34
f 15/350/34 17/351/34 19/352/34
f 19/352/34 21/353/34 23/354/34
f 23/354/34 25/355/34 27/356/34
f 27/356/34 29/357/34 31/70/34
f 31/70/34 33/358/34 35/359/34
f 35/359/34 37/360/34 39/361/34
f 39/361/34 41/362/34 43/363/34
f 43/363/34 45/364/34 47/71/34
f 47/71/34 49/365/34 51/366/34
f 51/366/34 53/367/34 55/368/34
f 55/368/34 57/369/34 59/370/34
f 59/370/34 61/371/34 63/72/34
f 63/72/34 3/344/34 15/350/34
f 3/344/34 7/346/34 15/350/34
f 7/346/34 11/348/34 15/350/34
f 15/350/34 19/352/34 31/70/34
f 19/352/34 23/354/34 31/70/34
f 23/354/34 27/356/34 31/70/34
f 31/70/34 35/359/34 47/71/34
f 35/359/34 39/361/34 47/71/34
f 39/361/34 43/363/34 47/71/34
f 47/71/34 51/366/34 63/72/34
f 51/366/34 55/368/34 63/72/34
f 55/368/34 59/370/34 63/72/34
f 63/72/34 15/350/34 31/70/34
f 96/73/33 65/139/33 257/74/33
f 95/76/32 96/73/32 288/75/32
f 94/78/30 95/76/30 287/77/30
f 93/80/29 94/78/29 286/79/29
f 92/82/28 93/80/28 285/81/28
f 91/84/27 92/82/27 284/83/27
f 90/86/26 91/118/26 283/87/26
f 89/89/25 90/86/25 282/88/25
f 88/91/24 89/89/24 281/90/24
f 87/93/23 88/91/23 280/92/23
f 86/95/22 87/93/22 279/94/22
f 85/97/21 86/95/21 278/96/21
f 84/99/20 85/97/20 277/98/20
f 83/101/19 84/99/19 276/100/19
f 82/103/18 83/278/18 275/104/18
f 81/106/17 82/103/17 274/105/17
f 80/108/16 81/106/16 273/107/16
f 79/110/15 80/108/15 272/109/15
f 78/112/14 79/110/14 271/111/14
f 77/114/13 78/112/13 270/113/13
f 76/116/12 77/114/12 269/115/12
f 75/118/11 76/116/11 268/117/11
f 74/119/10 75/277/10 267/120/10
f 73/122/9 74/119/9 266/121/9
f 72/124/8 73/122/8 265/123/8
f 71/126/7 72/124/7 264/125/7
f 70/128/6 71/126/6 263/127/6
f 69/130/5 70/128/5 262/129/5
f 68/132/4 69/130/4 261/131/4
f 67/134/3 68/132/3 260/133/3
f 66/136/2 67/276/2 259/137/2
f 65/139/1 66/136/1 258/138/1
f 128/140/33 97/207/33 192/141/33
f 127/143/32 128/140/32 191/142/32
f 126/145/30 127/143/30 190/144/30
f 125/147/29 126/145/29 189/146/29
f 124/149/28 125/147/28 188/148/28
f 123/151/27 124/149/27 187/150/27
f 122/153/26 123/305/26 186/154/26
f 121/156/25 122/153/25 185/155/25
f 120/158/24 121/156/24 184/157/24
f 119/160/23 120/158/23 183/159/23
f 118/162/22 119/160/22 182/161/22
f 117/164/21 118/162/21 181/163/21
f 116/166/20 117/164/20 180/165/20
f 115/168/19 116/166/19 179/167/19
f 114/170/18 115/306/18 178/171/18
f 113/173/17 114/170/17 177/172/17
f 112/175/16 113/173/16 176/174/16
f 111/177/15 112/175/15 175/176/15
f 110/179/14 111/177/14 174/178/14
f 109/181/13 110/179/13 173/180/13
f 108/183/12 109/181/12 172/182/12
f 107/185/11 108/183/11 171/184/11
f 106/187/10 107/151/10 170/188/10
f 105/190/9 106/187/9 169/189/9
f 104/192/8 105/190/8 168/191/8
f 103/194/7 104/192/7 167/193/7
f 102/196/6 103/194/6 166/195/6
f 101/198/5 102/196/5 165/197/5
f 100/200/4 101/198/4 164/199/4
f 99/202/3 100/200/3 163/201/3
f 98/204/2 99/307/2 162/205/2
f 97/207/1 98/204/1 161/206/1
f 160/208/1 129/211/1 193/209/1
f 129/211/2 130/308/2 194/212/2
f 130/213/3 131/216/3 195/214/3
f 131/216/4 132/218/4 196/217/4
f 132/218/5 133/220/5 197/219/5
f 133/220/6 134/222/6 198/221/6
f 134/222/7 135/224/7 199/223/7
f 135/224/8 136/226/8 200/225/8
f 136/226/9 137/228/9 201/227/9
f 137/228/10 138/309/10 202/229/10
f 138/230/11 139/233/11 203/231/11
f 139/233/12 140/235/12 204/234/12
f 140/235/13 141/237/13 205/236/13
f 141/237/14 142/239/14 206/238/14
f 142/239/15 143/241/15 207/240/15
f 143/241/16 144/243/16 208/242/16
f 144/243/17 145/245/17 209/244/17
f 145/245/18 146/310/18 210/246/18
f 146/247/19 147/250/19 211/248/19
f 147/250/20 148/252/20 212/251/20
f 148/252/21 149/254/21 213/253/21
f 149/254/22 150/256/22 214/255/22
f 150/256/23 151/258/23 215/257/23
f 151/258/24 152/260/24 216/259/24
f 152/260/25 153/262/25 217/261/25
f 153/262/26 154/311/26 218/263/26
f 154/264/27 155/267/27 219/265/27
f 155/267/28 156/269/28 220/268/28
f 156/269/29 157/271/29 221/270/29
f 157/271/30 158/273/30 222/272/30
f 158/273/32 159/275/32 223/274/32
f 159/275/33 160/208/33 224/210/33
f 192/141/1 161/206/1 66/136/1
f 161/206/2 162/205/2 67/276/2
f 162/203/3 163/201/3 68/132/3
f 163/201/4 164/199/4 69/130/4
f 164/199/5 165/197/5 70/128/5
f 165/197/6 166/195/6 71/126/6
f 166/195/7 167/193/7 72/124/7
f 167/193/8 168/191/8 73/122/8
f 168/191/9 169/189/9 74/119/9
f 169/189/10 170/188/10 75/277/10
f 170/186/11 171/184/11 76/116/11
f 171/184/12 172/182/12 77/114/12
f 172/182/13 173/180/13 78/112/13
f 173/180/14 174/178/14 79/110/14
f 174/178/15 175/176/15 80/108/15
f 175/176/16 176/174/16 81/106/16
f 176/174/17 177/172/17 82/103/17
f 177/172/18 178/171/18 83/278/18
f 178/169/19 179/167/19 84/99/19
f 179/167/20 180/165/20 85/97/20
f 180/165/21 181/163/21 86/95/21
f 181/163/22 182/161/22 87/93/22
f 182/161/23 183/159/23 88/91/23
f 183/159/24 184/157/24 89/89/24
f 184/157/25 185/155/25 90/86/25
f 185/155/26 186/154/26 91/118/26
f 186/152/27 187/150/27 92/82/27
f 187/150/28 188/148/28 93/80/28
f 188/148/29 189/146/29 94/78/29
f 189/146/30 190/144/30 95/76/30
f 190/144/32 191/142/32 96/73/32
f 191/142/33 192/141/33 65/139/33
f 223/274/33 224/210/33 1/279/33
f 222/272/32 223/274/32 63/280/32
f 221/270/30 222/272/30 61/281/30
f 220/268/29 221/270/29 59/282/29
f 219/265/28 220/268/28 57/283/28
f 218/266/27 219/265/27 55/284/27
f 217/261/26 218/263/26 53/286/26
f 216/259/25 217/261/25 51/287/25
f 215/257/24 216/259/24 49/288/24
f 214/255/23 215/257/23 47/289/23
f 213/253/22 214/255/22 45/290/22
f 212/251/21 213/253/21 43/291/21
f 211/248/20 212/251/20 41/292/20
f 210/249/19 211/248/19 39/293/19
f 209/244/18 210/246/18 37/295/18
f 208/242/17 209/244/17 35/296/17
f 207/240/16 208/242/16 33/297/16
f 206/238/15 207/240/15 31/298/15
f 205/236/14 206/238/14 29/299/14
f 204/234/13 205/236/13 27/300/13
f 203/231/12 204/234/12 25/301/12
f 202/232/11 203/231/11 23/302/11
f 201/227/10 202/229/10 21/23/10
f 200/225/9 201/227/9 19/55/9
f 199/223/8 200/225/8 17/53/8
f 198/221/7 199/223/7 15/51/7
f 197/219/6 198/221/6 13/49/6
f 196/217/5 197/219/5 11/47/5
f 195/214/4 196/217/4 9/45/4
f 194/215/3 195/214/3 7/43/3
f 193/209/2 194/212/2 5/303/2
f 224/210/1 193/209/1 3/304/1
f 256/68/33 225/3/33 97/207/33
f 255/63/32 256/68/32 128/140/32
f 254/61/30 255/63/30 127/143/30
f 253/59/29 254/61/29 126/145/29
f 252/57/28 253/59/28 125/147/28
f 251/22/27 252/57/27 124/149/27
f 250/54/26 251/25/26 123/305/26
f 249/52/25 250/54/25 122/153/25
f 248/50/24 249/52/24 121/156/24
f 247/48/23 248/50/23 120/158/23
f 246/46/22 247/48/22 119/160/22
f 245/44/21 246/46/21 118/162/21
f 244/41/20 245/44/20 117/164/20
f 243/42/19 244/41/19 116/166/19
f 242/37/18 243/39/18 115/306/18
f 241/35/17 242/37/17 114/170/17
f 240/33/16 241/35/16 113/173/16
f 239/31/15 240/33/15 112/175/15
f 238/29/14 239/31/14 111/177/14
f 237/27/13 238/29/13 110/179/13
f 236/24/12 237/27/12 109/181/12
f 235/25/11 236/24/11 108/183/11
f 234/20/10 235/22/10 107/151/10
f 233/18/9 234/20/9 106/187/9
f 232/16/8 233/18/8 105/190/8
f 231/14/7 232/16/7 104/192/7
f 230/12/6 231/14/6 103/194/6
f 229/10/5 230/12/5 102/196/5
f 228/7/4 229/10/4 101/198/4
f 227/8/3 228/7/3 100/200/3
f 226/2/2 227/5/2 99/307/2
f 225/3/1 226/2/1 98/204/1
f 257/74/1 258/138/1 129/211/1
f 258/138/2 259/137/2 130/308/2
f 259/135/3 260/133/3 131/216/3
f 260/133/4 261/131/4 132/218/4
f 261/131/5 262/129/5 133/220/5
f 262/129/6 263/127/6 134/222/6
f 263/127/7 264/125/7 135/224/7
f 264/125/8 265/123/8 136/226/8
f 265/123/9 266/121/9 137/228/9
f 266/121/10 267/120/10 138/309/10
f 267/87/11 268/117/11 139/233/11
f 268/117/12 269/115/12 140/235/12
f 269/115/13 270/113/13 141/237/13
f 270/113/14 271/111/14 142/239/14
f 271/111/15 272/109/15 143/241/15
f 272/109/16 273/107/16 144/243/16
f 273/107/17 274/105/17 145/245/17
f 274/105/18 275/104/18 146/310/18
f 275/102/19 276/100/19 147/250/19
f 276/100/20 277/98/20 148/252/20
f 277/98/21 278/96/21 149/254/21
f 278/96/22 279/94/22 150/256/22
f 279/94/23 280/92/23 151/258/23
f 280/92/24 281/90/24 152/260/24
f 281/90/25 282/88/25 153/262/25
f 282/88/26 283/87/26 154/311/26
f 283/85/27 284/83/27 155/267/27
f 284/83/28 285/81/28 156/269/28
f 285/81/29 286/79/29 157/271/29
f 286/79/30 287/77/30 158/273/30
f 287/77/32 288/75/32 159/275/32
f 288/75/33 257/74/33 160/208/33
