# Blender 4.5.3 LTS
# www.blender.org
o C2_C3_VL_UW
v -21.410000 -0.751173 9.208866
v -21.214909 -0.740891 9.192634
v -21.027317 -0.710443 9.144560
v -20.854429 -0.660995 9.066493
v -20.702892 -0.594449 8.961432
v -20.578529 -0.513364 8.833414
v -20.486120 -0.420854 8.687360
v -20.429214 -0.320475 8.528882
v -20.410000 -0.216084 8.364071
v -20.429214 -0.111692 8.199260
v -20.486120 -0.011313 8.040782
v -20.578529 0.081197 7.894728
v -20.702892 0.162282 7.766710
v -20.854429 0.228827 7.661650
v -21.027317 0.278275 7.583582
v -21.214909 0.308724 7.535508
v -21.410000 0.319006 7.519276
v -21.605091 0.308724 7.535508
v -21.792683 0.278275 7.583582
v -21.965570 0.228827 7.661650
v -22.117107 0.162282 7.766710
v -22.241470 0.081197 7.894728
v -22.333879 -0.011313 8.040782
v -22.390785 -0.111692 8.199260
v -22.410000 -0.216084 8.364071
v -22.390785 -0.320475 8.528882
v -22.333879 -0.420854 8.687360
v -22.241470 -0.513364 8.833414
v -22.117107 -0.594449 8.961432
v -21.965570 -0.660995 9.066493
v -21.792683 -0.710443 9.144560
v -21.605091 -0.740891 9.192634
v -21.410000 -15.535089 -0.155205
v -21.214909 -15.524808 -0.171437
v -21.027317 -15.494359 -0.219511
v -20.854429 -15.444912 -0.297578
v -20.702892 -15.378366 -0.402640
v -20.578529 -15.297280 -0.530657
v -20.486120 -15.204770 -0.676711
v -20.429214 -15.104391 -0.835189
v -20.410000 -15.000000 -1.000000
v -20.429214 -14.895609 -1.164811
v -20.486120 -14.795230 -1.323289
v -20.578529 -14.702720 -1.469343
v -20.702892 -14.621634 -1.597360
v -20.854429 -14.555089 -1.702422
v -21.027317 -14.505641 -1.780489
v -21.214909 -14.475192 -1.828563
v -21.410000 -14.464911 -1.844795
v -21.605091 -14.475192 -1.828563
v -21.792683 -14.505641 -1.780489
v -21.965570 -14.555089 -1.702422
v -22.117107 -14.621634 -1.597360
v -22.241470 -14.702720 -1.469343
v -22.333879 -14.795230 -1.323289
v -22.390785 -14.895609 -1.164811
v -22.410000 -15.000000 -1.000000
v -22.390785 -15.104391 -0.835189
v -22.333879 -15.204770 -0.676711
v -22.241470 -15.297280 -0.530657
v -22.117107 -15.378366 -0.402640
v -21.965570 -15.444912 -0.297578
v -21.792683 -15.494359 -0.219511
v -21.605091 -15.524808 -0.171437
v -21.410000 -8.143131 4.526831
v -21.214909 -8.132851 4.510598
v -21.027317 -8.102400 4.462525
v -20.854429 -8.052954 4.384458
v -20.702892 -7.986407 4.279396
v -20.578529 -7.905322 4.151379
v -20.486120 -7.812812 4.005324
v -20.429214 -7.712432 3.846847
v -20.410000 -7.608042 3.682035
v -20.429214 -7.503651 3.517224
v -20.486120 -7.403272 3.358747
v -20.578529 -7.310762 3.212692
v -20.702892 -7.229676 3.084675
v -20.854429 -7.163131 2.979614
v -21.027317 -7.113683 2.901546
v -21.214909 -7.083233 2.853472
v -21.410000 -7.072952 2.837240
v -21.605091 -7.083233 2.853472
v -21.792683 -7.113683 2.901546
v -21.965570 -7.163131 2.979614
v -22.117107 -7.229676 3.084675
v -22.241470 -7.310762 3.212692
v -22.333879 -7.403272 3.358747
v -22.390785 -7.503651 3.517224
v -22.410000 -7.608042 3.682035
v -22.390785 -7.712432 3.846847
v -22.333879 -7.812812 4.005324
v -22.241470 -7.905322 4.151379
v -22.117107 -7.986407 4.279396
v -21.965570 -8.052954 4.384458
v -21.792683 -8.102400 4.462525
v -21.605091 -8.132851 4.510598
v -21.410000 -4.447152 6.867848
v -21.214909 -4.436871 6.851616
v -21.027317 -4.406422 6.803543
v -20.854429 -4.356974 6.725476
v -20.702892 -4.290428 6.620414
v -20.578529 -4.209343 6.492397
v -20.486120 -4.116833 6.346342
v -20.429214 -4.016454 6.187865
v -20.410000 -3.912063 6.023053
v -20.429214 -3.807672 5.858242
v -20.486120 -3.707293 5.699764
v -20.578529 -3.614782 5.553710
v -20.702892 -3.533697 5.425693
v -20.854429 -3.467152 5.320632
v -21.027317 -3.417704 5.242564
v -21.214909 -3.387255 5.194490
v -21.410000 -3.376973 5.178258
v -21.605091 -3.387255 5.194490
v -21.792683 -3.417704 5.242564
v -21.965570 -3.467152 5.320632
v -22.117107 -3.533697 5.425693
v -22.241470 -3.614782 5.553710
v -22.333879 -3.707293 5.699764
v -22.390785 -3.807672 5.858242
v -22.410000 -3.912063 6.023053
v -22.390785 -4.016454 6.187865
v -22.333879 -4.116833 6.346342
v -22.241470 -4.209343 6.492397
v -22.117107 -4.290428 6.620414
v -21.965570 -4.356974 6.725476
v -21.792683 -4.406422 6.803543
v -21.605091 -4.436871 6.851616
v -21.214909 -11.828829 2.169581
v -21.027317 -11.798380 2.121507
v -20.854429 -11.748932 2.043440
v -20.702892 -11.682386 1.938378
v -20.578529 -11.601301 1.810361
v -20.486120 -11.508791 1.664307
v -20.429214 -11.408412 1.505829
v -20.410000 -11.304021 1.341018
v -20.429214 -11.199630 1.176206
v -20.486120 -11.099251 1.017729
v -20.578529 -11.006741 0.871675
v -20.702892 -10.925655 0.743657
v -20.854429 -10.859110 0.638596
v -21.027317 -10.809662 0.560529
v -21.214909 -10.779213 0.512455
v -21.410000 -10.768930 0.496222
v -21.605091 -10.779213 0.512455
v -21.792683 -10.809662 0.560529
v -21.965570 -10.859110 0.638596
v -22.117107 -10.925655 0.743657
v -22.241470 -11.006741 0.871675
v -22.333879 -11.099251 1.017729
v -22.390785 -11.199630 1.176206
v -22.410000 -11.304021 1.341018
v -22.390785 -11.408412 1.505829
v -22.333879 -11.508791 1.664307
v -22.241470 -11.601301 1.810361
v -22.117107 -11.682386 1.938378
v -21.965570 -11.748932 2.043440
v -21.792683 -11.798380 2.121507
v -21.605091 -11.828829 2.169581
v -21.410000 -11.839111 2.185813
vn 0.0980 -0.5325 0.8407
vn 0.2903 -0.5120 0.8084
vn 0.4714 -0.4719 0.7450
vn 0.6344 -0.4136 0.6530
vn 0.7730 -0.3395 0.5359
vn 0.8819 -0.2522 0.3982
vn 0.9569 -0.1553 0.2452
vn 0.9952 -0.0524 0.0828
vn 0.9952 0.0524 -0.0828
vn 0.9569 0.1553 -0.2452
vn 0.8819 0.2522 -0.3982
vn 0.7730 0.3395 -0.5359
vn 0.6344 0.4136 -0.6530
vn 0.4714 0.4719 -0.7450
vn 0.2903 0.5120 -0.8084
vn 0.0980 0.5325 -0.8407
vn -0.0980 0.5325 -0.8407
vn -0.2903 0.5120 -0.8084
vn -0.4714 0.4719 -0.7450
vn -0.6344 0.4136 -0.6530
vn -0.7730 0.3395 -0.5359
vn -0.8819 0.2522 -0.3982
vn -0.9569 0.1553 -0.2452
vn -0.9952 0.0524 -0.0828
vn -0.9952 -0.0524 0.0828
vn -0.9569 -0.1553 0.2452
vn -0.8819 -0.2522 0.3982
vn -0.7730 -0.3395 0.5359
vn -0.6344 -0.4136 0.6530
vn -0.4714 -0.4719 0.7450
vn -0.0000 0.8448 0.5351
vn -0.2903 -0.5120 0.8084
vn -0.0980 -0.5325 0.8407
vn -0.0000 -0.8448 -0.5351
vt 0.252271 0.881497
vt 0.313700 0.869910
vt 0.313700 0.881497
vt 0.252271 0.869910
vt 0.313700 0.859481
vt 0.252271 0.859481
vt 0.313700 0.850612
vt 0.006553 0.956496
vt 0.067983 0.949527
vt 0.067983 0.956496
vt 0.006553 0.949527
vt 0.067983 0.940659
vt 0.006553 0.940659
vt 0.067983 0.930230
vt 0.006553 0.930230
vt 0.067983 0.918642
vt 0.006553 0.918642
vt 0.067983 0.906341
vt 0.006553 0.906341
vt 0.067983 0.893799
vt 0.006553 0.893799
vt 0.067983 0.881497
vt 0.006553 0.881497
vt 0.067983 0.869910
vt 0.006553 0.869910
vt 0.067983 0.859481
vt 0.006553 0.859481
vt 0.067983 0.850612
vt 0.497988 0.940659
vt 0.559417 0.931790
vt 0.559417 0.940659
vt 0.497988 0.931790
vt 0.559417 0.921361
vt 0.497988 0.921361
vt 0.559417 0.909774
vt 0.497988 0.909774
vt 0.559417 0.897472
vt 0.497988 0.897472
vt 0.559417 0.884930
vt 0.497988 0.884930
vt 0.559417 0.872629
vt 0.497988 0.872629
vt 0.559417 0.861041
vt 0.497988 0.861041
vt 0.559417 0.850612
vt 0.743705 0.921361
vt 0.805135 0.910933
vt 0.805135 0.921361
vt 0.743705 0.910933
vt 0.805135 0.899345
vt 0.743705 0.899345
vt 0.805135 0.887044
vt 0.743705 0.887044
vt 0.805135 0.874501
vt 0.743705 0.874501
vt 0.805135 0.862200
vt 0.743705 0.862200
vt 0.805135 0.850612
vt 0.252271 0.940659
vt 0.313700 0.930230
vt 0.313700 0.940659
vt 0.252271 0.930230
vt 0.313700 0.918643
vt 0.252271 0.918643
vt 0.313700 0.906341
vt 0.176225 0.009561
vt 0.488031 0.176225
vt 0.321367 0.488031
vt 0.252271 0.906341
vt 0.313700 0.893799
vt 0.252271 0.893799
vt 0.673817 0.009561
vt 0.985624 0.176225
vt 0.818960 0.488031
vt 0.375129 0.893799
vt 0.436559 0.881497
vt 0.436559 0.893799
vt 0.375129 0.906341
vt 0.436559 0.906341
vt 0.375129 0.918643
vt 0.436559 0.918643
vt 0.375129 0.930230
vt 0.436559 0.930230
vt 0.375129 0.940659
vt 0.436559 0.940659
vt 0.866564 0.862200
vt 0.927994 0.850612
vt 0.927994 0.862200
vt 0.866564 0.874501
vt 0.927994 0.874501
vt 0.866564 0.887044
vt 0.927994 0.887044
vt 0.866564 0.899345
vt 0.927994 0.899345
vt 0.866564 0.910933
vt 0.927994 0.910933
vt 0.866564 0.921361
vt 0.927994 0.921361
vt 0.620847 0.861041
vt 0.682276 0.850612
vt 0.682276 0.861041
vt 0.620847 0.872629
vt 0.682276 0.872629
vt 0.620847 0.884930
vt 0.682276 0.884930
vt 0.620847 0.897472
vt 0.682276 0.897472
vt 0.620847 0.909774
vt 0.682276 0.909774
vt 0.620847 0.921361
vt 0.682276 0.921361
vt 0.620847 0.931790
vt 0.682276 0.931790
vt 0.620847 0.940659
vt 0.682276 0.940659
vt 0.129412 0.859481
vt 0.190841 0.850612
vt 0.190841 0.859481
vt 0.129412 0.869910
vt 0.190841 0.869910
vt 0.129412 0.881497
vt 0.190841 0.881497
vt 0.129412 0.893799
vt 0.190841 0.893799
vt 0.129412 0.906341
vt 0.190841 0.906341
vt 0.129412 0.918642
vt 0.190841 0.918642
vt 0.129412 0.930230
vt 0.190841 0.930230
vt 0.129412 0.940659
vt 0.190841 0.940659
vt 0.129412 0.949527
vt 0.190841 0.949527
vt 0.129412 0.956496
vt 0.190841 0.956496
vt 0.375129 0.859481
vt 0.436559 0.850612
vt 0.436559 0.859481
vt 0.375129 0.869910
vt 0.436559 0.869910
vt 0.375129 0.881497
vt 0.866564 0.850612
vt 0.620847 0.850612
vt 0.129412 0.850612
vt 0.375129 0.850612
vt 0.497988 0.869910
vt 0.497988 0.881497
vt 0.497988 0.859481
vt 0.497988 0.850612
vt 0.252271 0.949527
vt 0.252271 0.956496
vt 0.252271 0.940659
vt 0.252271 0.930230
vt 0.252271 0.918642
vt 0.252271 0.893799
vt 0.252271 0.869910
vt 0.252271 0.859481
vt 0.252271 0.850612
vt 0.743705 0.931790
vt 0.743705 0.940659
vt 0.743705 0.921361
vt 0.743705 0.909774
vt 0.743705 0.897472
vt 0.743705 0.884930
vt 0.743705 0.872629
vt 0.743705 0.861041
vt 0.743705 0.850612
vt 0.989423 0.910933
vt 0.989423 0.921361
vt 0.989423 0.899345
vt 0.989423 0.887044
vt 0.989423 0.874501
vt 0.989423 0.862200
vt 0.989423 0.850612
vt 0.497988 0.930230
vt 0.497988 0.918643
vt 0.497988 0.906341
vt 0.497988 0.893799
vt 0.006553 0.850612
vt 0.497988 0.850612
vt 0.273301 0.497592
vt 0.224292 0.497592
vt 0.176225 0.488031
vt 0.130947 0.469277
vt 0.090198 0.442049
vt 0.055543 0.407395
vt 0.028316 0.366646
vt 0.009561 0.321367
vt -0.000000 0.273301
vt -0.000000 0.224292
vt 0.009561 0.176225
vt 0.028316 0.130947
vt 0.055543 0.090198
vt 0.090198 0.055544
vt 0.130947 0.028316
vt 0.224292 -0.000000
vt 0.273300 0.000000
vt 0.321368 0.009561
vt 0.366645 0.028316
vt 0.407395 0.055544
vt 0.442049 0.090198
vt 0.469277 0.130947
vt 0.497592 0.224292
vt 0.497592 0.273300
vt 0.488031 0.321367
vt 0.469277 0.366645
vt 0.442049 0.407395
vt 0.407395 0.442049
vt 0.366646 0.469277
vt 0.770893 0.497592
vt 0.721884 0.497592
vt 0.673817 0.488031
vt 0.628540 0.469277
vt 0.587790 0.442049
vt 0.553136 0.407395
vt 0.525908 0.366646
vt 0.507153 0.321367
vt 0.497592 0.273301
vt 0.497592 0.224292
vt 0.507153 0.176225
vt 0.525908 0.130947
vt 0.553136 0.090198
vt 0.587790 0.055544
vt 0.628539 0.028316
vt 0.721884 -0.000000
vt 0.770893 0.000000
vt 0.818960 0.009561
vt 0.864237 0.028316
vt 0.904987 0.055544
vt 0.939641 0.090198
vt 0.966869 0.130947
vt 0.995185 0.224292
vt 0.995185 0.273300
vt 0.985624 0.321367
vt 0.966869 0.366645
vt 0.939641 0.407395
vt 0.904987 0.442049
vt 0.864238 0.469277
s 0
g off
f 1/1/1 97/3/1 98/2/1
f 2/4/2 98/2/2 99/5/2
f 3/6/3 99/5/3 100/7/3
f 4/8/4 100/10/4 101/9/4
f 5/11/5 101/9/5 102/12/5
f 6/13/6 102/12/6 103/14/6
f 7/15/7 103/14/7 104/16/7
f 8/17/8 104/16/8 105/18/8
f 9/19/9 105/18/9 106/20/9
f 10/21/10 106/20/10 107/22/10
f 11/23/11 107/22/11 108/24/11
f 12/25/12 108/24/12 109/26/12
f 13/27/13 109/26/13 110/28/13
f 14/29/14 110/31/14 111/30/14
f 15/32/15 111/30/15 112/33/15
f 16/34/16 112/33/16 113/35/16
f 17/36/17 113/35/17 114/37/17
f 18/38/18 114/37/18 115/39/18
f 19/40/19 115/39/19 116/41/19
f 20/42/20 116/41/20 117/43/20
f 21/44/21 117/43/21 118/45/21
f 22/46/22 118/48/22 119/47/22
f 23/49/23 119/47/23 120/50/23
f 24/51/24 120/50/24 121/52/24
f 25/53/25 121/52/25 122/54/25
f 26/55/26 122/54/26 123/56/26
f 27/57/27 123/56/27 124/58/27
f 28/59/28 124/61/28 125/60/28
f 29/62/29 125/60/29 126/63/29
f 30/64/30 126/63/30 127/65/30
f 19/66/31 3/68/31 11/67/31
f 31/69/32 127/65/32 128/70/32
f 32/71/33 128/70/33 97/3/33
f 47/72/34 63/74/34 55/73/34
f 96/75/33 159/77/33 160/76/33
f 95/78/32 158/79/32 159/77/32
f 94/80/30 157/81/30 158/79/30
f 93/82/29 156/83/29 157/81/29
f 92/84/28 155/85/28 156/83/28
f 91/86/27 154/88/27 155/87/27
f 90/89/26 153/90/26 154/88/26
f 89/91/25 152/92/25 153/90/25
f 88/93/24 151/94/24 152/92/24
f 87/95/23 150/96/23 151/94/23
f 86/97/22 149/98/22 150/96/22
f 85/99/21 148/101/21 149/100/21
f 84/102/20 147/103/20 148/101/20
f 83/104/19 146/105/19 147/103/19
f 82/106/18 145/107/18 146/105/18
f 81/108/17 144/109/17 145/107/17
f 80/110/16 143/111/16 144/109/16
f 79/112/15 142/113/15 143/111/15
f 78/114/14 141/115/14 142/113/14
f 77/116/13 140/118/13 141/117/13
f 76/119/12 139/120/12 140/118/12
f 75/121/11 138/122/11 139/120/11
f 74/123/10 137/124/10 138/122/10
f 73/125/9 136/126/9 137/124/9
f 72/127/8 135/128/8 136/126/8
f 71/129/7 134/130/7 135/128/7
f 70/131/6 133/132/6 134/130/6
f 69/133/5 132/134/5 133/132/5
f 68/135/4 131/136/4 132/134/4
f 67/137/3 130/139/3 131/138/3
f 66/140/2 129/141/2 130/139/2
f 65/142/1 160/76/1 129/141/1
f 128/70/33 96/75/33 65/142/33
f 127/65/32 95/78/32 96/75/32
f 126/63/30 94/80/30 95/78/30
f 125/60/29 93/82/29 94/80/29
f 124/61/28 92/84/28 93/82/28
f 123/56/27 91/86/27 92/143/27
f 122/54/26 90/89/26 91/86/26
f 121/52/25 89/91/25 90/89/25
f 120/50/24 88/93/24 89/91/24
f 119/47/23 87/95/23 88/93/23
f 118/48/22 86/97/22 87/95/22
f 117/43/21 85/99/21 86/144/21
f 116/41/20 84/102/20 85/99/20
f 115/39/19 83/104/19 84/102/19
f 114/37/18 82/106/18 83/104/18
f 113/35/17 81/108/17 82/106/17
f 112/33/16 80/110/16 81/108/16
f 111/30/15 79/112/15 80/110/15
f 110/31/14 78/114/14 79/112/14
f 109/26/13 77/116/13 78/145/13
f 108/24/12 76/119/12 77/116/12
f 107/22/11 75/121/11 76/119/11
f 106/20/10 74/123/10 75/121/10
f 105/18/9 73/125/9 74/123/9
f 104/16/8 72/127/8 73/125/8
f 103/14/7 71/129/7 72/127/7
f 102/12/6 70/131/6 71/129/6
f 101/9/5 69/133/5 70/131/5
f 100/10/4 68/135/4 69/133/4
f 99/5/3 67/137/3 68/146/3
f 98/2/2 66/140/2 67/137/2
f 97/3/1 65/142/1 66/140/1
f 160/76/1 33/148/1 34/147/1
f 129/141/2 34/147/2 35/149/2
f 130/139/3 35/149/3 36/150/3
f 131/136/4 36/152/4 37/151/4
f 132/134/5 37/151/5 38/153/5
f 133/132/6 38/153/6 39/154/6
f 134/130/7 39/154/7 40/155/7
f 135/128/8 40/155/8 41/69/8
f 136/126/9 41/69/9 42/156/9
f 137/124/10 42/156/10 43/1/10
f 138/122/11 43/1/11 44/157/11
f 139/120/12 44/157/12 45/158/12
f 140/118/13 45/158/13 46/159/13
f 141/115/14 46/161/14 47/160/14
f 142/113/15 47/160/15 48/162/15
f 143/111/16 48/162/16 49/163/16
f 144/109/17 49/163/17 50/164/17
f 145/107/18 50/164/18 51/165/18
f 146/105/19 51/165/19 52/166/19
f 147/103/20 52/166/20 53/167/20
f 148/101/21 53/167/21 54/168/21
f 149/98/22 54/170/22 55/169/22
f 150/96/23 55/169/23 56/171/23
f 151/94/24 56/171/24 57/172/24
f 152/92/25 57/172/25 58/173/25
f 153/90/26 58/173/26 59/174/26
f 154/88/27 59/174/27 60/175/27
f 155/85/28 60/29/28 61/176/28
f 156/83/29 61/176/29 62/177/29
f 157/81/30 62/177/30 63/178/30
f 158/79/32 63/178/32 64/179/32
f 159/77/33 64/179/33 33/148/33
f 1/1/1 98/2/1 2/4/1
f 2/4/2 99/5/2 3/6/2
f 3/6/3 100/7/3 4/159/3
f 4/8/4 101/9/4 5/11/4
f 5/11/5 102/12/5 6/13/5
f 6/13/6 103/14/6 7/15/6
f 7/15/7 104/16/7 8/17/7
f 8/17/8 105/18/8 9/19/8
f 9/19/9 106/20/9 10/21/9
f 10/21/10 107/22/10 11/23/10
f 11/23/11 108/24/11 12/25/11
f 12/25/12 109/26/12 13/27/12
f 13/27/13 110/28/13 14/180/13
f 14/29/14 111/30/14 15/32/14
f 15/32/15 112/33/15 16/34/15
f 16/34/16 113/35/16 17/36/16
f 17/36/17 114/37/17 18/38/17
f 18/38/18 115/39/18 19/40/18
f 19/40/19 116/41/19 20/42/19
f 20/42/20 117/43/20 21/44/20
f 21/44/21 118/45/21 22/181/21
f 22/46/22 119/47/22 23/49/22
f 23/49/23 120/50/23 24/51/23
f 24/51/24 121/52/24 25/53/24
f 25/53/25 122/54/25 26/55/25
f 26/55/26 123/56/26 27/57/26
f 27/57/27 124/58/27 28/168/27
f 28/59/28 125/60/28 29/62/28
f 29/62/29 126/63/29 30/64/29
f 30/64/30 127/65/30 31/69/30
f 3/68/31 1/183/31 2/182/31
f 1/183/31 31/185/31 32/184/31
f 31/185/31 29/187/31 30/186/31
f 29/187/31 27/189/31 28/188/31
f 27/189/31 25/191/31 26/190/31
f 25/191/31 23/193/31 24/192/31
f 23/193/31 21/195/31 22/194/31
f 21/195/31 23/193/31 20/196/31
f 20/196/31 23/193/31 19/66/31
f 19/66/31 17/198/31 18/197/31
f 17/198/31 15/200/31 16/199/31
f 15/200/31 11/67/31 14/201/31
f 14/201/31 11/67/31 13/202/31
f 13/202/31 11/67/31 12/203/31
f 11/67/31 9/205/31 10/204/31
f 9/205/31 7/207/31 8/206/31
f 7/207/31 5/209/31 6/208/31
f 5/209/31 3/68/31 4/210/31
f 3/68/31 31/185/31 1/183/31
f 31/185/31 27/189/31 29/187/31
f 27/189/31 19/66/31 25/191/31
f 25/191/31 19/66/31 23/193/31
f 19/66/31 15/200/31 17/198/31
f 11/67/31 3/68/31 9/205/31
f 9/205/31 3/68/31 7/207/31
f 7/207/31 3/68/31 5/209/31
f 3/68/31 27/189/31 31/185/31
f 19/66/31 11/67/31 15/200/31
f 3/68/31 19/66/31 27/189/31
f 31/69/32 128/70/32 32/71/32
f 32/71/33 97/3/33 1/1/33
f 63/74/34 33/212/34 64/211/34
f 33/212/34 35/214/34 34/213/34
f 35/214/34 37/216/34 36/215/34
f 37/216/34 39/218/34 38/217/34
f 39/218/34 41/220/34 40/219/34
f 41/220/34 43/222/34 42/221/34
f 43/222/34 45/224/34 44/223/34
f 45/224/34 43/222/34 46/225/34
f 46/225/34 43/222/34 47/72/34
f 47/72/34 49/227/34 48/226/34
f 49/227/34 51/229/34 50/228/34
f 51/229/34 55/73/34 52/230/34
f 52/230/34 55/73/34 53/231/34
f 53/231/34 55/73/34 54/232/34
f 55/73/34 57/234/34 56/233/34
f 57/234/34 59/236/34 58/235/34
f 59/236/34 61/238/34 60/237/34
f 61/238/34 63/74/34 62/239/34
f 63/74/34 35/214/34 33/212/34
f 35/214/34 39/218/34 37/216/34
f 39/218/34 47/72/34 41/220/34
f 41/220/34 47/72/34 43/222/34
f 47/72/34 51/229/34 49/227/34
f 55/73/34 63/74/34 57/234/34
f 57/234/34 63/74/34 59/236/34
f 59/236/34 63/74/34 61/238/34
f 63/74/34 39/218/34 35/214/34
f 47/72/34 55/73/34 51/229/34
f 63/74/34 47/72/34 39/218/34
f 96/75/33 160/76/33 65/142/33
f 95/78/32 159/77/32 96/75/32
f 94/80/30 158/79/30 95/78/30
f 93/82/29 157/81/29 94/80/29
f 92/84/28 156/83/28 93/82/28
f 91/86/27 155/87/27 92/143/27
f 90/89/26 154/88/26 91/86/26
f 89/91/25 153/90/25 90/89/25
f 88/93/24 152/92/24 89/91/24
f 87/95/23 151/94/23 88/93/23
f 86/97/22 150/96/22 87/95/22
f 85/99/21 149/100/21 86/144/21
f 84/102/20 148/101/20 85/99/20
f 83/104/19 147/103/19 84/102/19
f 82/106/18 146/105/18 83/104/18
f 81/108/17 145/107/17 82/106/17
f 80/110/16 144/109/16 81/108/16
f 79/112/15 143/111/15 80/110/15
f 78/114/14 142/113/14 79/112/14
f 77/116/13 141/117/13 78/145/13
f 76/119/12 140/118/12 77/116/12
f 75/121/11 139/120/11 76/119/11
f 74/123/10 138/122/10 75/121/10
f 73/125/9 137/124/9 74/123/9
f 72/127/8 136/126/8 73/125/8
f 71/129/7 135/128/7 72/127/7
f 70/131/6 134/130/6 71/129/6
f 69/133/5 133/132/5 70/131/5
f 68/135/4 132/134/4 69/133/4
f 67/137/3 131/138/3 68/146/3
f 66/140/2 130/139/2 67/137/2
f 65/142/1 129/141/1 66/140/1
f 128/70/33 65/142/33 97/3/33
f 127/65/32 96/75/32 128/70/32
f 126/63/30 95/78/30 127/65/30
f 125/60/29 94/80/29 126/63/29
f 124/61/28 93/82/28 125/60/28
f 123/56/27 92/143/27 124/58/27
f 122/54/26 91/86/26 123/56/26
f 121/52/25 90/89/25 122/54/25
f 120/50/24 89/91/24 121/52/24
f 119/47/23 88/93/23 120/50/23
f 118/48/22 87/95/22 119/47/22
f 117/43/21 86/144/21 118/45/21
f 116/41/20 85/99/20 117/43/20
f 115/39/19 84/102/19 116/41/19
f 114/37/18 83/104/18 115/39/18
f 113/35/17 82/106/17 114/37/17
f 112/33/16 81/108/16 113/35/16
f 111/30/15 80/110/15 112/33/15
f 110/31/14 79/112/14 111/30/14
f 109/26/13 78/145/13 110/28/13
f 108/24/12 77/116/12 109/26/12
f 107/22/11 76/119/11 108/24/11
f 106/20/10 75/121/10 107/22/10
f 105/18/9 74/123/9 106/20/9
f 104/16/8 73/125/8 105/18/8
f 103/14/7 72/127/7 104/16/7
f 102/12/6 71/129/6 103/14/6
f 101/9/5 70/131/5 102/12/5
f 100/10/4 69/133/4 101/9/4
f 99/5/3 68/146/3 100/7/3
f 98/2/2 67/137/2 99/5/2
f 97/3/1 66/140/1 98/2/1
f 160/76/1 34/147/1 129/141/1
f 129/141/2 35/149/2 130/139/2
f 130/139/3 36/150/3 131/138/3
f 131/136/4 37/151/4 132/134/4
f 132/134/5 38/153/5 133/132/5
f 133/132/6 39/154/6 134/130/6
f 134/130/7 40/155/7 135/128/7
f 135/128/8 41/69/8 136/126/8
f 136/126/9 42/156/9 137/124/9
f 137/124/10 43/1/10 138/122/10
f 138/122/11 44/157/11 139/120/11
f 139/120/12 45/158/12 140/118/12
f 140/118/13 46/159/13 141/117/13
f 141/115/14 47/160/14 142/113/14
f 142/113/15 48/162/15 143/111/15
f 143/111/16 49/163/16 144/109/16
f 144/109/17 50/164/17 145/107/17
f 145/107/18 51/165/18 146/105/18
f 146/105/19 52/166/19 147/103/19
f 147/103/20 53/167/20 148/101/20
f 148/101/21 54/168/21 149/100/21
f 149/98/22 55/169/22 150/96/22
f 150/96/23 56/171/23 151/94/23
f 151/94/24 57/172/24 152/92/24
f 152/92/25 58/173/25 153/90/25
f 153/90/26 59/174/26 154/88/26
f 154/88/27 60/175/27 155/87/27
f 155/85/28 61/176/28 156/83/28
f 156/83/29 62/177/29 157/81/29
f 157/81/30 63/178/30 158/79/30
f 158/79/32 64/179/32 159/77/32
f 159/77/33 33/148/33 160/76/33
