# Blender 4.5.3 LTS
# www.blender.org
o C2_C3_VR_UW
v -21.410000 0.751173 9.208866
v -21.214909 0.740891 9.192634
v -21.027317 0.710443 9.144560
v -20.854429 0.660995 9.066493
v -20.702892 0.594449 8.961432
v -20.578529 0.513364 8.833414
v -20.486120 0.420854 8.687360
v -20.429214 0.320475 8.528882
v -20.410000 0.216084 8.364071
v -20.429214 0.111692 8.199260
v -20.486120 0.011313 8.040782
v -20.578529 -0.081197 7.894728
v -20.702892 -0.162282 7.766710
v -20.854429 -0.228827 7.661650
v -21.027317 -0.278275 7.583582
v -21.214909 -0.308724 7.535508
v -21.410000 -0.319006 7.519276
v -21.605091 -0.308724 7.535508
v -21.792683 -0.278275 7.583582
v -21.965570 -0.228827 7.661650
v -22.117107 -0.162282 7.766710
v -22.241470 -0.081197 7.894728
v -22.333879 0.011313 8.040782
v -22.390785 0.111692 8.199260
v -22.410000 0.216084 8.364071
v -22.390785 0.320475 8.528882
v -22.333879 0.420854 8.687360
v -22.241470 0.513364 8.833414
v -22.117107 0.594449 8.961432
v -21.965570 0.660995 9.066493
v -21.792683 0.710443 9.144560
v -21.605091 0.740891 9.192634
v -21.410000 15.535089 -0.155205
v -21.214909 15.524808 -0.171437
v -21.027317 15.494359 -0.219511
v -20.854429 15.444912 -0.297578
v -20.702892 15.378366 -0.402640
v -20.578529 15.297280 -0.530657
v -20.486120 15.204770 -0.676711
v -20.429214 15.104391 -0.835189
v -20.410000 15.000000 -1.000000
v -20.429214 14.895609 -1.164811
v -20.486120 14.795230 -1.323289
v -20.578529 14.702720 -1.469343
v -20.702892 14.621634 -1.597360
v -20.854429 14.555089 -1.702422
v -21.027317 14.505641 -1.780489
v -21.214909 14.475192 -1.828563
v -21.410000 14.464911 -1.844795
v -21.605091 14.475192 -1.828563
v -21.792683 14.505641 -1.780489
v -21.965570 14.555089 -1.702422
v -22.117107 14.621634 -1.597360
v -22.241470 14.702720 -1.469343
v -22.333879 14.795230 -1.323289
v -22.390785 14.895609 -1.164811
v -22.410000 15.000000 -1.000000
v -22.390785 15.104391 -0.835189
v -22.333879 15.204770 -0.676711
v -22.241470 15.297280 -0.530657
v -22.117107 15.378366 -0.402640
v -21.965570 15.444912 -0.297578
v -21.792683 15.494359 -0.219511
v -21.605091 15.524808 -0.171437
v -21.410000 8.143131 4.526831
v -21.214909 8.132851 4.510598
v -21.027317 8.102400 4.462525
v -20.854429 8.052954 4.384458
v -20.702892 7.986407 4.279396
v -20.578529 7.905322 4.151379
v -20.486120 7.812812 4.005324
v -20.429214 7.712432 3.846847
v -20.410000 7.608042 3.682035
v -20.429214 7.503651 3.517224
v -20.486120 7.403272 3.358747
v -20.578529 7.310762 3.212692
v -20.702892 7.229676 3.084675
v -20.854429 7.163131 2.979614
v -21.027317 7.113683 2.901546
v -21.214909 7.083233 2.853472
v -21.410000 7.072952 2.837240
v -21.605091 7.083233 2.853472
v -21.792683 7.113683 2.901546
v -21.965570 7.163131 2.979614
v -22.117107 7.229676 3.084675
v -22.241470 7.310762 3.212692
v -22.333879 7.403272 3.358747
v -22.390785 7.503651 3.517224
v -22.410000 7.608042 3.682035
v -22.390785 7.712432 3.846847
v -22.333879 7.812812 4.005324
v -22.241470 7.905322 4.151379
v -22.117107 7.986407 4.279396
v -21.965570 8.052954 4.384458
v -21.792683 8.102400 4.462525
v -21.605091 8.132851 4.510598
v -21.214909 11.828829 2.169581
v -21.027317 11.798380 2.121507
v -20.854429 11.748932 2.043440
v -20.702892 11.682386 1.938378
v -20.578529 11.601301 1.810361
v -20.486120 11.508791 1.664307
v -20.429214 11.408412 1.505829
v -20.410000 11.304021 1.341018
v -20.429214 11.199630 1.176206
v -20.486120 11.099251 1.017729
v -20.578529 11.006741 0.871675
v -20.702892 10.925655 0.743657
v -20.854429 10.859110 0.638596
v -21.027317 10.809662 0.560529
v -21.214909 10.779213 0.512455
v -21.410000 10.768930 0.496222
v -21.605091 10.779213 0.512455
v -21.792683 10.809662 0.560529
v -21.965570 10.859110 0.638596
v -22.117107 10.925655 0.743657
v -22.241470 11.006741 0.871675
v -22.333879 11.099251 1.017729
v -22.390785 11.199630 1.176206
v -22.410000 11.304021 1.341018
v -22.390785 11.408412 1.505829
v -22.333879 11.508791 1.664307
v -22.241470 11.601301 1.810361
v -22.117107 11.682386 1.938378
v -21.965570 11.748932 2.043440
v -21.792683 11.798380 2.121507
v -21.605091 11.828829 2.169581
v -21.410000 11.839111 2.185813
v -21.410000 4.447152 6.867848
v -21.214909 4.436871 6.851616
v -21.027317 4.406422 6.803543
v -20.854429 4.356974 6.725476
v -20.702892 4.290428 6.620414
v -20.578529 4.209343 6.492397
v -20.486120 4.116833 6.346342
v -20.429214 4.016454 6.187865
v -20.410000 3.912063 6.023053
v -20.429214 3.807672 5.858242
v -20.486120 3.707293 5.699764
v -20.578529 3.614782 5.553710
v -20.702892 3.533697 5.425693
v -20.854429 3.467152 5.320632
v -21.027317 3.417704 5.242564
v -21.214909 3.387255 5.194490
v -21.410000 3.376973 5.178258
v -21.605091 3.387255 5.194490
v -21.792683 3.417704 5.242564
v -21.965570 3.467152 5.320632
v -22.117107 3.533697 5.425693
v -22.241470 3.614782 5.553710
v -22.333879 3.707293 5.699764
v -22.390785 3.807672 5.858242
v -22.410000 3.912063 6.023053
v -22.390785 4.016454 6.187865
v -22.333879 4.116833 6.346342
v -22.241470 4.209343 6.492397
v -22.117107 4.290428 6.620414
v -21.965570 4.356974 6.725476
v -21.792683 4.406422 6.803543
v -21.605091 4.436871 6.851616
vn 0.0980 0.5325 0.8407
vn 0.2903 0.5120 0.8084
vn 0.4714 0.4719 0.7450
vn 0.6344 0.4136 0.6530
vn 0.7730 0.3395 0.5359
vn 0.8819 0.2522 0.3982
vn 0.9569 0.1553 0.2452
vn 0.9952 0.0524 0.0828
vn 0.9952 -0.0524 -0.0828
vn 0.9569 -0.1553 -0.2452
vn 0.8819 -0.2522 -0.3982
vn 0.7730 -0.3395 -0.5359
vn 0.6344 -0.4136 -0.6530
vn 0.4714 -0.4719 -0.7450
vn 0.2903 -0.5120 -0.8084
vn 0.0980 -0.5325 -0.8407
vn -0.0980 -0.5325 -0.8407
vn -0.2903 -0.5120 -0.8084
vn -0.4714 -0.4719 -0.7450
vn -0.6344 -0.4136 -0.6530
vn -0.7730 -0.3395 -0.5359
vn -0.8819 -0.2522 -0.3982
vn -0.9569 -0.1553 -0.2452
vn -0.9952 -0.0524 -0.0828
vn -0.9952 0.0524 0.0828
vn -0.9569 0.1553 0.2452
vn -0.8819 0.2522 0.3982
vn -0.7730 0.3395 0.5359
vn -0.6344 0.4136 0.6530
vn -0.4714 0.4719 0.7450
vn -0.0000 -0.8448 0.5351
vn -0.2903 0.5120 0.8084
vn -0.0980 0.5325 0.8407
vn -0.0000 0.8448 -0.5351
vt 0.250000 0.728762
vt 0.312500 0.680695
vt 0.312500 0.728762
vt 0.250000 0.680695
vt 0.312500 0.631687
vt 0.250000 0.631687
vt 0.312500 0.583620
vt 0.250000 0.583620
vt 0.312500 0.538342
vt 0.250000 0.538342
vt 0.312500 0.497592
vt 0.750000 0.774040
vt 0.812500 0.728762
vt 0.812500 0.774040
vt 0.750000 0.728762
vt 0.812500 0.680695
vt 0.750000 0.680695
vt 0.812500 0.631687
vt 0.750000 0.631687
vt 0.812500 0.583620
vt 0.750000 0.583620
vt 0.812500 0.538342
vt 0.750000 0.538342
vt 0.812500 0.497592
vt 0.500000 0.849444
vt 0.562500 0.808694
vt 0.562500 0.849444
vt 0.500000 0.808694
vt 0.562500 0.763416
vt 0.500000 0.763416
vt 0.562500 0.715349
vt 0.500000 0.715349
vt 0.562500 0.666341
vt 0.500000 0.666341
vt 0.562500 0.618274
vt 0.500000 0.618274
vt 0.562500 0.572996
vt 0.500000 0.572996
vt 0.562500 0.532247
vt 0.500000 0.532247
vt 0.562500 0.497592
vt -0.000000 0.911326
vt 0.062500 0.876671
vt 0.062500 0.911326
vt -0.000000 0.876671
vt 0.062500 0.835922
vt -0.000000 0.835922
vt 0.062500 0.790644
vt -0.000000 0.790644
vt 0.062500 0.742577
vt 0.000000 0.742577
vt 0.062500 0.693569
vt 0.000000 0.693569
vt 0.062500 0.645502
vt 0.000000 0.645502
vt 0.062500 0.600224
vt 0.000000 0.600224
vt 0.062500 0.559475
vt 0.000000 0.559475
vt 0.062500 0.524820
vt 0.000000 0.524820
vt 0.062500 0.497592
vt 0.250000 0.849444
vt 0.312500 0.814789
vt 0.312500 0.849444
vt 0.176225 0.009561
vt 0.488031 0.176225
vt 0.321367 0.488031
vt 0.250000 0.814789
vt 0.312500 0.774040
vt 0.250000 0.774040
vt 0.673817 0.009561
vt 0.985624 0.176225
vt 0.818960 0.488031
vt 0.375000 0.774040
vt 0.437500 0.728762
vt 0.437500 0.774040
vt 0.375000 0.814789
vt 0.437500 0.814789
vt 0.375000 0.849444
vt 0.437500 0.849444
vt 0.125000 0.524820
vt 0.187500 0.497592
vt 0.187500 0.524820
vt 0.125000 0.559475
vt 0.187500 0.559475
vt 0.125000 0.600224
vt 0.187500 0.600224
vt 0.125000 0.645502
vt 0.187500 0.645502
vt 0.125000 0.693569
vt 0.187500 0.693569
vt 0.125000 0.742577
vt 0.187500 0.742577
vt 0.125000 0.790644
vt 0.187500 0.790644
vt 0.125000 0.835922
vt 0.187500 0.835922
vt 0.125000 0.876671
vt 0.187500 0.876671
vt 0.125000 0.911326
vt 0.187500 0.911326
vt 0.625000 0.532247
vt 0.687500 0.497592
vt 0.687500 0.532247
vt 0.625000 0.572996
vt 0.687500 0.572996
vt 0.625000 0.618274
vt 0.687500 0.618274
vt 0.625000 0.666341
vt 0.687500 0.666341
vt 0.625000 0.715349
vt 0.687500 0.715349
vt 0.625000 0.763416
vt 0.687500 0.763416
vt 0.625000 0.808694
vt 0.687500 0.808694
vt 0.625000 0.849444
vt 0.687500 0.849444
vt 0.875000 0.538342
vt 0.937500 0.497592
vt 0.937500 0.538342
vt 0.875000 0.583620
vt 0.937500 0.583620
vt 0.875000 0.631687
vt 0.937500 0.631687
vt 0.875000 0.680695
vt 0.937500 0.680695
vt 0.875000 0.728762
vt 0.937500 0.728762
vt 0.875000 0.774040
vt 0.937500 0.774040
vt 0.375000 0.538342
vt 0.437500 0.497592
vt 0.437500 0.538342
vt 0.375000 0.583620
vt 0.437500 0.583620
vt 0.375000 0.631687
vt 0.437500 0.631687
vt 0.375000 0.680695
vt 0.437500 0.680695
vt 0.375000 0.728762
vt 0.500000 0.680695
vt 0.500000 0.728762
vt 0.500000 0.631687
vt 0.500000 0.583620
vt 0.500000 0.538342
vt 0.500000 0.497592
vt 1.000000 0.728762
vt 1.000000 0.774040
vt 1.000000 0.680695
vt 1.000000 0.631687
vt 1.000000 0.583620
vt 1.000000 0.538342
vt 1.000000 0.497592
vt 0.750000 0.808694
vt 0.750000 0.849444
vt 0.750000 0.763416
vt 0.750000 0.715349
vt 0.750000 0.666341
vt 0.750000 0.618274
vt 0.750000 0.572996
vt 0.750000 0.532247
vt 0.750000 0.497592
vt 0.250000 0.876671
vt 0.250000 0.911326
vt 0.250000 0.835922
vt 0.250000 0.790644
vt 0.250000 0.742577
vt 0.250000 0.693569
vt 0.250000 0.645502
vt 0.250000 0.600224
vt 0.250000 0.559475
vt 0.250000 0.524820
vt 0.250000 0.497592
vt 0.500000 0.814789
vt 0.500000 0.849444
vt 0.500000 0.774040
vt 0.125000 0.497592
vt 0.625000 0.497592
vt 0.875000 0.497592
vt 0.375000 0.497592
vt 0.250000 0.497592
vt 0.750000 0.497592
vt 0.500000 0.497592
vt 0.000000 0.497592
vt 0.273301 0.497592
vt 0.224292 0.497592
vt 0.176225 0.488031
vt 0.130947 0.469277
vt 0.090198 0.442049
vt 0.055543 0.407395
vt 0.028316 0.366646
vt 0.009561 0.321367
vt -0.000000 0.273301
vt -0.000000 0.224292
vt 0.009561 0.176225
vt 0.028316 0.130947
vt 0.055543 0.090198
vt 0.090198 0.055544
vt 0.130947 0.028316
vt 0.224292 -0.000000
vt 0.273300 0.000000
vt 0.321368 0.009561
vt 0.366645 0.028316
vt 0.407395 0.055544
vt 0.442049 0.090198
vt 0.469277 0.130947
vt 0.497592 0.224292
vt 0.497592 0.273300
vt 0.488031 0.321367
vt 0.469277 0.366645
vt 0.442049 0.407395
vt 0.407395 0.442049
vt 0.366646 0.469277
vt 0.770893 0.497592
vt 0.721884 0.497592
vt 0.673817 0.488031
vt 0.628540 0.469277
vt 0.587790 0.442049
vt 0.553136 0.407395
vt 0.525908 0.366646
vt 0.507153 0.321367
vt 0.497592 0.273301
vt 0.497592 0.224292
vt 0.507153 0.176225
vt 0.525908 0.130947
vt 0.553136 0.090198
vt 0.587790 0.055544
vt 0.628539 0.028316
vt 0.721884 -0.000000
vt 0.770893 0.000000
vt 0.818960 0.009561
vt 0.864237 0.028316
vt 0.904987 0.055544
vt 0.939641 0.090198
vt 0.966869 0.130947
vt 0.995185 0.224292
vt 0.995185 0.273300
vt 0.985624 0.321367
vt 0.966869 0.366645
vt 0.939641 0.407395
vt 0.904987 0.442049
vt 0.864238 0.469277
s 0
f 1/1/1 130/2/1 129/3/1
f 2/4/2 131/5/2 130/2/2
f 3/6/3 132/7/3 131/5/3
f 4/8/4 133/9/4 132/7/4
f 5/10/5 134/11/5 133/9/5
f 6/12/6 135/13/6 134/14/6
f 7/15/7 136/16/7 135/13/7
f 8/17/8 137/18/8 136/16/8
f 9/19/9 138/20/9 137/18/9
f 10/21/10 139/22/10 138/20/10
f 11/23/11 140/24/11 139/22/11
f 12/25/12 141/26/12 140/27/12
f 13/28/13 142/29/13 141/26/13
f 14/30/14 143/31/14 142/29/14
f 15/32/15 144/33/15 143/31/15
f 16/34/16 145/35/16 144/33/16
f 17/36/17 146/37/17 145/35/17
f 18/38/18 147/39/18 146/37/18
f 19/40/19 148/41/19 147/39/19
f 20/42/20 149/43/20 148/44/20
f 21/45/21 150/46/21 149/43/21
f 22/47/22 151/48/22 150/46/22
f 23/49/23 152/50/23 151/48/23
f 24/51/24 153/52/24 152/50/24
f 25/53/25 154/54/25 153/52/25
f 26/55/26 155/56/26 154/54/26
f 27/57/27 156/58/27 155/56/27
f 28/59/28 157/60/28 156/58/28
f 29/61/29 158/62/29 157/60/29
f 30/63/30 159/64/30 158/65/30
f 19/66/31 11/67/31 3/68/31
f 31/69/32 160/70/32 159/64/32
f 32/71/33 129/3/33 160/70/33
f 47/72/34 55/73/34 63/74/34
f 96/75/33 128/76/33 127/77/33
f 95/78/32 127/77/32 126/79/32
f 94/80/30 126/79/30 125/81/30
f 93/82/29 125/83/29 124/84/29
f 92/85/28 124/84/28 123/86/28
f 91/87/27 123/86/27 122/88/27
f 90/89/26 122/88/26 121/90/26
f 89/91/25 121/90/25 120/92/25
f 88/93/24 120/92/24 119/94/24
f 87/95/23 119/94/23 118/96/23
f 86/97/22 118/96/22 117/98/22
f 85/99/21 117/98/21 116/100/21
f 84/101/20 116/100/20 115/102/20
f 83/103/19 115/104/19 114/105/19
f 82/106/18 114/105/18 113/107/18
f 81/108/17 113/107/17 112/109/17
f 80/110/16 112/109/16 111/111/16
f 79/112/15 111/111/15 110/113/15
f 78/114/14 110/113/14 109/115/14
f 77/116/13 109/115/13 108/117/13
f 76/118/12 108/117/12 107/119/12
f 75/120/11 107/121/11 106/122/11
f 74/123/10 106/122/10 105/124/10
f 73/125/9 105/124/9 104/126/9
f 72/127/8 104/126/8 103/128/8
f 71/129/7 103/128/7 102/130/7
f 70/131/6 102/130/6 101/132/6
f 69/133/5 101/134/5 100/135/5
f 68/136/4 100/135/4 99/137/4
f 67/138/3 99/137/3 98/139/3
f 66/140/2 98/139/2 97/141/2
f 65/142/1 97/141/1 128/76/1
f 128/76/1 34/143/1 33/144/1
f 97/141/2 35/145/2 34/143/2
f 98/139/3 36/146/3 35/145/3
f 99/137/4 37/147/4 36/146/4
f 100/135/5 38/148/5 37/147/5
f 101/132/6 39/149/6 38/150/6
f 102/130/7 40/151/7 39/149/7
f 103/128/8 41/152/8 40/151/8
f 104/126/9 42/153/9 41/152/9
f 105/124/10 43/154/10 42/153/10
f 106/122/11 44/155/11 43/154/11
f 107/119/12 45/156/12 44/157/12
f 108/117/13 46/158/13 45/156/13
f 109/115/14 47/159/14 46/158/14
f 110/113/15 48/160/15 47/159/15
f 111/111/16 49/161/16 48/160/16
f 112/109/17 50/162/17 49/161/17
f 113/107/18 51/163/18 50/162/18
f 114/105/19 52/164/19 51/163/19
f 115/102/20 53/165/20 52/166/20
f 116/100/21 54/167/21 53/165/21
f 117/98/22 55/168/22 54/167/22
f 118/96/23 56/169/23 55/168/23
f 119/94/24 57/170/24 56/169/24
f 120/92/25 58/171/25 57/170/25
f 121/90/26 59/172/26 58/171/26
f 122/88/27 60/173/27 59/172/27
f 123/86/28 61/174/28 60/173/28
f 124/84/29 62/175/29 61/174/29
f 125/81/30 63/176/30 62/177/30
f 126/79/32 64/178/32 63/176/32
f 127/77/33 33/144/33 64/178/33
f 160/70/33 65/142/33 96/75/33
f 159/64/32 96/75/32 95/78/32
f 158/65/30 95/78/30 94/80/30
f 157/60/29 94/179/29 93/82/29
f 156/58/28 93/82/28 92/85/28
f 155/56/27 92/85/27 91/87/27
f 154/54/26 91/87/26 90/89/26
f 153/52/25 90/89/25 89/91/25
f 152/50/24 89/91/24 88/93/24
f 151/48/23 88/93/23 87/95/23
f 150/46/22 87/95/22 86/97/22
f 149/43/21 86/97/21 85/99/21
f 148/44/20 85/99/20 84/101/20
f 147/39/19 84/180/19 83/103/19
f 146/37/18 83/103/18 82/106/18
f 145/35/17 82/106/17 81/108/17
f 144/33/16 81/108/16 80/110/16
f 143/31/15 80/110/15 79/112/15
f 142/29/14 79/112/14 78/114/14
f 141/26/13 78/114/13 77/116/13
f 140/27/12 77/116/12 76/118/12
f 139/22/11 76/181/11 75/120/11
f 138/20/10 75/120/10 74/123/10
f 137/18/9 74/123/9 73/125/9
f 136/16/8 73/125/8 72/127/8
f 135/13/7 72/127/7 71/129/7
f 134/14/6 71/129/6 70/131/6
f 133/9/5 70/182/5 69/133/5
f 132/7/4 69/133/4 68/136/4
f 131/5/3 68/136/3 67/138/3
f 130/2/2 67/138/2 66/140/2
f 129/3/1 66/140/1 65/142/1
f 1/1/1 2/4/1 130/2/1
f 2/4/2 3/6/2 131/5/2
f 3/6/3 4/8/3 132/7/3
f 4/8/4 5/10/4 133/9/4
f 5/10/5 6/183/5 134/11/5
f 6/12/6 7/15/6 135/13/6
f 7/15/7 8/17/7 136/16/7
f 8/17/8 9/19/8 137/18/8
f 9/19/9 10/21/9 138/20/9
f 10/21/10 11/23/10 139/22/10
f 11/23/11 12/184/11 140/24/11
f 12/25/12 13/28/12 141/26/12
f 13/28/13 14/30/13 142/29/13
f 14/30/14 15/32/14 143/31/14
f 15/32/15 16/34/15 144/33/15
f 16/34/16 17/36/16 145/35/16
f 17/36/17 18/38/17 146/37/17
f 18/38/18 19/40/18 147/39/18
f 19/40/19 20/185/19 148/41/19
f 20/42/20 21/45/20 149/43/20
f 21/45/21 22/47/21 150/46/21
f 22/47/22 23/49/22 151/48/22
f 23/49/23 24/51/23 152/50/23
f 24/51/24 25/53/24 153/52/24
f 25/53/25 26/55/25 154/54/25
f 26/55/26 27/57/26 155/56/26
f 27/57/27 28/59/27 156/58/27
f 28/59/28 29/61/28 157/60/28
f 29/61/29 30/186/29 158/62/29
f 30/63/30 31/69/30 159/64/30
f 3/68/31 2/187/31 1/188/31
f 1/188/31 32/189/31 31/190/31
f 31/190/31 30/191/31 29/192/31
f 29/192/31 28/193/31 27/194/31
f 27/194/31 26/195/31 25/196/31
f 25/196/31 24/197/31 23/198/31
f 23/198/31 22/199/31 21/200/31
f 21/200/31 20/201/31 23/198/31
f 20/201/31 19/66/31 23/198/31
f 19/66/31 18/202/31 17/203/31
f 17/203/31 16/204/31 15/205/31
f 15/205/31 14/206/31 11/67/31
f 14/206/31 13/207/31 11/67/31
f 13/207/31 12/208/31 11/67/31
f 11/67/31 10/209/31 9/210/31
f 9/210/31 8/211/31 7/212/31
f 7/212/31 6/213/31 5/214/31
f 5/214/31 4/215/31 3/68/31
f 3/68/31 1/188/31 31/190/31
f 31/190/31 29/192/31 27/194/31
f 27/194/31 25/196/31 19/66/31
f 25/196/31 23/198/31 19/66/31
f 19/66/31 17/203/31 15/205/31
f 11/67/31 9/210/31 3/68/31
f 9/210/31 7/212/31 3/68/31
f 7/212/31 5/214/31 3/68/31
f 3/68/31 31/190/31 27/194/31
f 19/66/31 15/205/31 11/67/31
f 3/68/31 27/194/31 19/66/31
f 31/69/32 32/71/32 160/70/32
f 32/71/33 1/1/33 129/3/33
f 63/74/34 64/216/34 33/217/34
f 33/217/34 34/218/34 35/219/34
f 35/219/34 36/220/34 37/221/34
f 37/221/34 38/222/34 39/223/34
f 39/223/34 40/224/34 41/225/34
f 41/225/34 42/226/34 43/227/34
f 43/227/34 44/228/34 45/229/34
f 45/229/34 46/230/34 43/227/34
f 46/230/34 47/72/34 43/227/34
f 47/72/34 48/231/34 49/232/34
f 49/232/34 50/233/34 51/234/34
f 51/234/34 52/235/34 55/73/34
f 52/235/34 53/236/34 55/73/34
f 53/236/34 54/237/34 55/73/34
f 55/73/34 56/238/34 57/239/34
f 57/239/34 58/240/34 59/241/34
f 59/241/34 60/242/34 61/243/34
f 61/243/34 62/244/34 63/74/34
f 63/74/34 33/217/34 35/219/34
f 35/219/34 37/221/34 39/223/34
f 39/223/34 41/225/34 47/72/34
f 41/225/34 43/227/34 47/72/34
f 47/72/34 49/232/34 51/234/34
f 55/73/34 57/239/34 63/74/34
f 57/239/34 59/241/34 63/74/34
f 59/241/34 61/243/34 63/74/34
f 63/74/34 35/219/34 39/223/34
f 47/72/34 51/234/34 55/73/34
f 63/74/34 39/223/34 47/72/34
f 96/75/33 65/142/33 128/76/33
f 95/78/32 96/75/32 127/77/32
f 94/80/30 95/78/30 126/79/30
f 93/82/29 94/179/29 125/83/29
f 92/85/28 93/82/28 124/84/28
f 91/87/27 92/85/27 123/86/27
f 90/89/26 91/87/26 122/88/26
f 89/91/25 90/89/25 121/90/25
f 88/93/24 89/91/24 120/92/24
f 87/95/23 88/93/23 119/94/23
f 86/97/22 87/95/22 118/96/22
f 85/99/21 86/97/21 117/98/21
f 84/101/20 85/99/20 116/100/20
f 83/103/19 84/180/19 115/104/19
f 82/106/18 83/103/18 114/105/18
f 81/108/17 82/106/17 113/107/17
f 80/110/16 81/108/16 112/109/16
f 79/112/15 80/110/15 111/111/15
f 78/114/14 79/112/14 110/113/14
f 77/116/13 78/114/13 109/115/13
f 76/118/12 77/116/12 108/117/12
f 75/120/11 76/181/11 107/121/11
f 74/123/10 75/120/10 106/122/10
f 73/125/9 74/123/9 105/124/9
f 72/127/8 73/125/8 104/126/8
f 71/129/7 72/127/7 103/128/7
f 70/131/6 71/129/6 102/130/6
f 69/133/5 70/182/5 101/134/5
f 68/136/4 69/133/4 100/135/4
f 67/138/3 68/136/3 99/137/3
f 66/140/2 67/138/2 98/139/2
f 65/142/1 66/140/1 97/141/1
f 128/76/1 97/141/1 34/143/1
f 97/141/2 98/139/2 35/145/2
f 98/139/3 99/137/3 36/146/3
f 99/137/4 100/135/4 37/147/4
f 100/135/5 101/134/5 38/148/5
f 101/132/6 102/130/6 39/149/6
f 102/130/7 103/128/7 40/151/7
f 103/128/8 104/126/8 41/152/8
f 104/126/9 105/124/9 42/153/9
f 105/124/10 106/122/10 43/154/10
f 106/122/11 107/121/11 44/155/11
f 107/119/12 108/117/12 45/156/12
f 108/117/13 109/115/13 46/158/13
f 109/115/14 110/113/14 47/159/14
f 110/113/15 111/111/15 48/160/15
f 111/111/16 112/109/16 49/161/16
f 112/109/17 113/107/17 50/162/17
f 113/107/18 114/105/18 51/163/18
f 114/105/19 115/104/19 52/164/19
f 115/102/20 116/100/20 53/165/20
f 116/100/21 117/98/21 54/167/21
f 117/98/22 118/96/22 55/168/22
f 118/96/23 119/94/23 56/169/23
f 119/94/24 120/92/24 57/170/24
f 120/92/25 121/90/25 58/171/25
f 121/90/26 122/88/26 59/172/26
f 122/88/27 123/86/27 60/173/27
f 123/86/28 124/84/28 61/174/28
f 124/84/29 125/83/29 62/175/29
f 125/81/30 126/79/30 63/176/30
f 126/79/32 127/77/32 64/178/32
f 127/77/33 128/76/33 33/144/33
f 160/70/33 129/3/33 65/142/33
f 159/64/32 160/70/32 96/75/32
f 158/65/30 159/64/30 95/78/30
f 157/60/29 158/62/29 94/179/29
f 156/58/28 157/60/28 93/82/28
f 155/56/27 156/58/27 92/85/27
f 154/54/26 155/56/26 91/87/26
f 153/52/25 154/54/25 90/89/25
f 152/50/24 153/52/24 89/91/24
f 151/48/23 152/50/23 88/93/23
f 150/46/22 151/48/22 87/95/22
f 149/43/21 150/46/21 86/97/21
f 148/44/20 149/43/20 85/99/20
f 147/39/19 148/41/19 84/180/19
f 146/37/18 147/39/18 83/103/18
f 145/35/17 146/37/17 82/106/17
f 144/33/16 145/35/16 81/108/16
f 143/31/15 144/33/15 80/110/15
f 142/29/14 143/31/14 79/112/14
f 141/26/13 142/29/13 78/114/13
f 140/27/12 141/26/12 77/116/12
f 139/22/11 140/24/11 76/181/11
f 138/20/10 139/22/10 75/120/10
f 137/18/9 138/20/9 74/123/9
f 136/16/8 137/18/8 73/125/8
f 135/13/7 136/16/7 72/127/7
f 134/14/6 135/13/6 71/129/6
f 133/9/5 134/11/5 70/182/5
f 132/7/4 133/9/4 69/133/4
f 131/5/3 132/7/3 68/136/3
f 130/2/2 131/5/2 67/138/2
f 129/3/1 130/2/1 66/140/1
