# Blender 4.5.3 LTS
# www.blender.org
o C2_C3_VR_AIR
v -21.410000 30.319006 -9.519276
v -21.214909 30.308723 -9.535508
v -21.027317 30.278275 -9.583582
v -20.854429 30.228828 -9.661649
v -20.702892 30.162281 -9.766710
v -20.578529 30.081196 -9.894728
v -20.486120 29.988686 -10.040782
v -20.429214 29.888308 -10.199260
v -20.410000 29.783916 -10.364071
v -20.429214 29.679525 -10.528882
v -20.486120 29.579147 -10.687360
v -20.578529 29.486637 -10.833414
v -20.702892 29.405552 -10.961432
v -20.854429 29.339005 -11.066492
v -21.027317 29.289558 -11.144560
v -21.214909 29.259109 -11.192634
v -21.410000 29.248827 -11.208866
v -21.605091 29.259109 -11.192634
v -21.792683 29.289558 -11.144560
v -21.965570 29.339005 -11.066492
v -22.117107 29.405552 -10.961432
v -22.241470 29.486637 -10.833414
v -22.333879 29.579147 -10.687360
v -22.390785 29.679525 -10.528882
v -22.410000 29.783916 -10.364071
v -22.390785 29.888308 -10.199260
v -22.333879 29.988686 -10.040782
v -22.241470 30.081196 -9.894728
v -22.117107 30.162281 -9.766710
v -21.965570 30.228828 -9.661649
v -21.792683 30.278275 -9.583582
v -21.605091 30.308723 -9.535508
v -21.410000 15.535089 -0.155205
v -21.214909 15.524808 -0.171437
v -21.027317 15.494359 -0.219511
v -20.854429 15.444912 -0.297578
v -20.702892 15.378366 -0.402640
v -20.578529 15.297280 -0.530657
v -20.486120 15.204770 -0.676711
v -20.429214 15.104391 -0.835189
v -20.410000 15.000000 -1.000000
v -20.429214 14.895609 -1.164811
v -20.486120 14.795230 -1.323289
v -20.578529 14.702720 -1.469343
v -20.702892 14.621634 -1.597360
v -20.854429 14.555089 -1.702422
v -21.027317 14.505641 -1.780489
v -21.214909 14.475192 -1.828563
v -21.410000 14.464911 -1.844795
v -21.605091 14.475192 -1.828563
v -21.792683 14.505641 -1.780489
v -21.965570 14.555089 -1.702422
v -22.117107 14.621634 -1.597360
v -22.241470 14.702720 -1.469343
v -22.333879 14.795230 -1.323289
v -22.390785 14.895609 -1.164811
v -22.410000 15.000000 -1.000000
v -22.390785 15.104391 -0.835189
v -22.333879 15.204770 -0.676711
v -22.241470 15.297280 -0.530657
v -22.117107 15.378366 -0.402640
v -21.965570 15.444912 -0.297578
v -21.792683 15.494359 -0.219511
v -21.605091 15.524808 -0.171437
v -21.214909 22.916767 -4.853473
v -21.027317 22.886316 -4.901546
v -20.854429 22.836870 -4.979613
v -20.702892 22.770325 -5.084675
v -20.578529 22.689240 -5.212692
v -20.486120 22.596729 -5.358747
v -20.429214 22.496349 -5.517224
v -20.410000 22.391958 -5.682035
v -20.429214 22.287567 -5.846847
v -20.486120 22.187187 -6.005324
v -20.578529 22.094679 -6.151379
v -20.702892 22.013592 -6.279396
v -20.854429 21.947048 -6.384457
v -21.027317 21.897600 -6.462525
v -21.214909 21.867149 -6.510598
v -21.410000 21.856869 -6.526831
v -21.605091 21.867149 -6.510598
v -21.792683 21.897600 -6.462525
v -21.965570 21.947048 -6.384457
v -22.117107 22.013592 -6.279396
v -22.241470 22.094679 -6.151379
v -22.333879 22.187187 -6.005324
v -22.390785 22.287567 -5.846847
v -22.410000 22.391958 -5.682035
v -22.390785 22.496349 -5.517224
v -22.333879 22.596729 -5.358747
v -22.241470 22.689240 -5.212692
v -22.117107 22.770325 -5.084675
v -21.965570 22.836870 -4.979613
v -21.792683 22.886316 -4.901546
v -21.605091 22.916767 -4.853473
v -21.410000 22.927048 -4.837240
v -21.410000 19.231070 -2.496222
v -21.214909 19.220787 -2.512455
v -21.027317 19.190338 -2.560529
v -20.854429 19.140890 -2.638595
v -20.702892 19.074345 -2.743657
v -20.578529 18.993259 -2.871674
v -20.486120 18.900749 -3.017729
v -20.429214 18.800369 -3.176206
v -20.410000 18.695980 -3.341018
v -20.429214 18.591589 -3.505829
v -20.486120 18.491209 -3.664307
v -20.578529 18.398699 -3.810361
v -20.702892 18.317614 -3.938378
v -20.854429 18.251068 -4.043439
v -21.027317 18.201620 -4.121507
v -21.214909 18.171171 -4.169580
v -21.410000 18.160889 -4.185813
v -21.605091 18.171171 -4.169580
v -21.792683 18.201620 -4.121507
v -21.965570 18.251068 -4.043439
v -22.117107 18.317614 -3.938378
v -22.241470 18.398699 -3.810361
v -22.333879 18.491209 -3.664307
v -22.390785 18.591589 -3.505829
v -22.410000 18.695980 -3.341018
v -22.390785 18.800369 -3.176206
v -22.333879 18.900749 -3.017729
v -22.241470 18.993259 -2.871674
v -22.117107 19.074345 -2.743657
v -21.965570 19.140890 -2.638595
v -21.792683 19.190338 -2.560529
v -21.605091 19.220787 -2.512455
v -21.214909 26.612745 -7.194490
v -21.027317 26.582296 -7.242564
v -20.854429 26.532848 -7.320631
v -20.702892 26.466303 -7.425693
v -20.578529 26.385218 -7.553710
v -20.486120 26.292707 -7.699764
v -20.429214 26.192329 -7.858242
v -20.410000 26.087936 -8.023053
v -20.429214 25.983547 -8.187864
v -20.486120 25.883167 -8.346342
v -20.578529 25.790657 -8.492396
v -20.702892 25.709572 -8.620414
v -20.854429 25.643026 -8.725475
v -21.027317 25.593578 -8.803543
v -21.214909 25.563129 -8.851616
v -21.410000 25.552849 -8.867848
v -21.605091 25.563129 -8.851616
v -21.792683 25.593578 -8.803543
v -21.965570 25.643026 -8.725475
v -22.117107 25.709572 -8.620414
v -22.241470 25.790657 -8.492396
v -22.333879 25.883167 -8.346342
v -22.390785 25.983547 -8.187864
v -22.410000 26.087936 -8.023053
v -22.390785 26.192329 -7.858242
v -22.333879 26.292707 -7.699764
v -22.241470 26.385218 -7.553710
v -22.117107 26.466303 -7.425693
v -21.965570 26.532848 -7.320631
v -21.792683 26.582296 -7.242564
v -21.605091 26.612745 -7.194490
v -21.410000 26.623028 -7.178258
vn -0.0000 0.8448 -0.5351
vn -0.0980 0.5325 0.8407
vn -0.2903 0.5120 0.8084
vn -0.4714 0.4719 0.7450
vn -0.6344 0.4136 0.6530
vn -0.7730 0.3395 0.5359
vn -0.8819 0.2522 0.3982
vn -0.9569 0.1553 0.2452
vn -0.9952 0.0524 0.0828
vn -0.9952 -0.0524 -0.0828
vn -0.9569 -0.1553 -0.2452
vn -0.8819 -0.2522 -0.3982
vn -0.7730 -0.3395 -0.5359
vn -0.6344 -0.4136 -0.6530
vn -0.4714 -0.4719 -0.7450
vn -0.2903 -0.5120 -0.8084
vn -0.0980 -0.5325 -0.8407
vn 0.0980 -0.5325 -0.8407
vn 0.2903 -0.5120 -0.8084
vn 0.4714 -0.4719 -0.7450
vn 0.6344 -0.4136 -0.6530
vn 0.7730 -0.3395 -0.5359
vn 0.8819 -0.2522 -0.3982
vn 0.9569 -0.1553 -0.2452
vn 0.9952 -0.0524 -0.0828
vn 0.9952 0.0524 0.0828
vn 0.9569 0.1553 0.2452
vn 0.8819 0.2522 0.3982
vn 0.7730 0.3395 0.5359
vn 0.6344 0.4136 0.6530
vn 0.4714 0.4719 0.7450
vn 0.2903 0.5120 0.8084
vn 0.0980 0.5325 0.8407
vn -0.0000 -0.8448 0.5351
vt -0.000000 0.273301
vt 0.224292 -0.000000
vt 0.497592 0.224292
vt 0.250000 0.774040
vt 0.312500 0.728762
vt 0.312500 0.774040
vt 0.250000 0.814789
vt 0.312500 0.814789
vt 0.250000 0.849444
vt 0.312500 0.849444
vt 0.000000 0.524820
vt 0.062500 0.497592
vt 0.062500 0.524820
vt 0.000000 0.559475
vt 0.062500 0.559475
vt 0.000000 0.600224
vt 0.062500 0.600224
vt 0.000000 0.645502
vt 0.062500 0.645502
vt 0.000000 0.693569
vt 0.062500 0.693569
vt -0.000000 0.742577
vt 0.062500 0.742577
vt -0.000000 0.790644
vt 0.062500 0.790644
vt -0.000000 0.835922
vt 0.062500 0.835922
vt -0.000000 0.876671
vt 0.062500 0.876671
vt -0.000000 0.911326
vt 0.062500 0.911326
vt 0.500000 0.532247
vt 0.562500 0.497592
vt 0.562500 0.532247
vt 0.500000 0.572996
vt 0.562500 0.572996
vt 0.500000 0.618274
vt 0.562500 0.618274
vt 0.500000 0.666341
vt 0.562500 0.666341
vt 0.500000 0.715349
vt 0.562500 0.715349
vt 0.500000 0.763416
vt 0.562500 0.763416
vt 0.500000 0.808694
vt 0.562500 0.808694
vt 0.500000 0.849444
vt 0.562500 0.849444
vt 0.750000 0.538342
vt 0.812500 0.497592
vt 0.812500 0.538342
vt 0.750000 0.583620
vt 0.812500 0.583620
vt 0.750000 0.631687
vt 0.812500 0.631687
vt 0.750000 0.680695
vt 0.812500 0.680695
vt 0.750000 0.728762
vt 0.812500 0.728762
vt 0.750000 0.774040
vt 0.812500 0.774040
vt 0.250000 0.538342
vt 0.312500 0.497592
vt 0.312500 0.538342
vt 0.250000 0.583620
vt 0.312500 0.583620
vt 0.250000 0.631687
vt 0.312500 0.631687
vt 0.250000 0.680695
vt 0.312500 0.680695
vt 0.250000 0.728762
vt 0.770893 0.000000
vt 0.995185 0.273300
vt 0.721884 0.497592
vt 0.375000 0.728762
vt 0.437500 0.680695
vt 0.437500 0.728762
vt 0.375000 0.680695
vt 0.437500 0.631687
vt 0.375000 0.631687
vt 0.437500 0.583620
vt 0.375000 0.583620
vt 0.437500 0.538342
vt 0.375000 0.538342
vt 0.437500 0.497592
vt 0.875000 0.774040
vt 0.937500 0.728762
vt 0.937500 0.774040
vt 0.875000 0.728762
vt 0.937500 0.680695
vt 0.875000 0.680695
vt 0.937500 0.631687
vt 0.875000 0.631687
vt 0.937500 0.583620
vt 0.875000 0.583620
vt 0.937500 0.538342
vt 0.875000 0.538342
vt 0.937500 0.497592
vt 0.625000 0.849444
vt 0.687500 0.808694
vt 0.687500 0.849444
vt 0.625000 0.808694
vt 0.687500 0.763416
vt 0.625000 0.763416
vt 0.687500 0.715349
vt 0.625000 0.715349
vt 0.687500 0.666341
vt 0.625000 0.666341
vt 0.687500 0.618274
vt 0.625000 0.618274
vt 0.687500 0.572996
vt 0.625000 0.572996
vt 0.687500 0.532247
vt 0.625000 0.532247
vt 0.687500 0.497592
vt 0.125000 0.911326
vt 0.187500 0.876671
vt 0.187500 0.911326
vt 0.125000 0.876671
vt 0.187500 0.835922
vt 0.125000 0.835922
vt 0.187500 0.790644
vt 0.125000 0.790644
vt 0.187500 0.742577
vt 0.125000 0.742577
vt 0.187500 0.693569
vt 0.125000 0.693569
vt 0.187500 0.645502
vt 0.125000 0.645502
vt 0.187500 0.600224
vt 0.125000 0.600224
vt 0.187500 0.559475
vt 0.125000 0.559475
vt 0.187500 0.524820
vt 0.125000 0.524820
vt 0.187500 0.497592
vt 0.375000 0.849444
vt 0.437500 0.814789
vt 0.437500 0.849444
vt 0.375000 0.814789
vt 0.437500 0.774040
vt 0.375000 0.774040
vt 0.375000 0.497592
vt 0.875000 0.497592
vt 0.625000 0.497592
vt 0.125000 0.497592
vt 0.500000 0.728762
vt 0.500000 0.774040
vt 0.500000 0.814789
vt 0.500000 0.849444
vt 0.250000 0.497592
vt 0.250000 0.524820
vt 0.250000 0.559475
vt 0.250000 0.600224
vt 0.250000 0.645502
vt 0.250000 0.693569
vt 0.250000 0.742577
vt 0.250000 0.790644
vt 0.250000 0.835922
vt 0.250000 0.876671
vt 0.250000 0.911326
vt 0.750000 0.497592
vt 0.750000 0.532247
vt 0.750000 0.572996
vt 0.750000 0.618274
vt 0.750000 0.666341
vt 0.750000 0.715349
vt 0.750000 0.763416
vt 0.750000 0.808694
vt 0.750000 0.849444
vt 1.000000 0.497592
vt 1.000000 0.538342
vt 1.000000 0.583620
vt 1.000000 0.631687
vt 1.000000 0.680695
vt 1.000000 0.728762
vt 1.000000 0.774040
vt 0.500000 0.497592
vt 0.500000 0.538342
vt 0.500000 0.583620
vt 0.500000 0.631687
vt 0.500000 0.680695
vt 0.273301 0.497592
vt 0.224292 0.497592
vt 0.176225 0.488031
vt 0.130947 0.469277
vt 0.090198 0.442049
vt 0.055543 0.407395
vt 0.028316 0.366646
vt 0.009561 0.321367
vt -0.000000 0.224292
vt 0.009561 0.176225
vt 0.028316 0.130947
vt 0.055543 0.090198
vt 0.090198 0.055544
vt 0.130947 0.028316
vt 0.176225 0.009561
vt 0.273300 0.000000
vt 0.321368 0.009561
vt 0.366645 0.028316
vt 0.407395 0.055544
vt 0.442049 0.090198
vt 0.469277 0.130947
vt 0.488031 0.176225
vt 0.497592 0.273300
vt 0.488031 0.321367
vt 0.469277 0.366645
vt 0.442049 0.407395
vt 0.407395 0.442049
vt 0.366646 0.469277
vt 0.321367 0.488031
vt 0.000000 0.497592
vt 0.500000 0.497592
vt 0.250000 0.497592
vt 0.673817 0.488031
vt 0.628540 0.469277
vt 0.587790 0.442049
vt 0.553136 0.407395
vt 0.525908 0.366646
vt 0.507153 0.321367
vt 0.497592 0.273301
vt 0.497592 0.224292
vt 0.507153 0.176225
vt 0.525908 0.130947
vt 0.553136 0.090198
vt 0.587790 0.055544
vt 0.628539 0.028316
vt 0.673817 0.009561
vt 0.721884 -0.000000
vt 0.818960 0.009561
vt 0.864237 0.028316
vt 0.904987 0.055544
vt 0.939641 0.090198
vt 0.966869 0.130947
vt 0.985624 0.176225
vt 0.995185 0.224292
vt 0.985624 0.321367
vt 0.966869 0.366645
vt 0.939641 0.407395
vt 0.904987 0.442049
vt 0.864238 0.469277
vt 0.818960 0.488031
vt 0.770893 0.497592
s 0
f 8/1/1 16/2/1 24/3/1
f 64/4/2 97/5/2 128/6/2
f 63/7/3 128/6/3 127/8/3
f 62/9/4 127/8/4 126/10/4
f 61/11/5 126/12/5 125/13/5
f 60/14/6 125/13/6 124/15/6
f 59/16/7 124/15/7 123/17/7
f 58/18/8 123/17/8 122/19/8
f 57/20/9 122/19/9 121/21/9
f 56/22/10 121/21/10 120/23/10
f 55/24/11 120/23/11 119/25/11
f 54/26/12 119/25/12 118/27/12
f 53/28/13 118/27/13 117/29/13
f 52/30/14 117/29/14 116/31/14
f 51/32/15 116/33/15 115/34/15
f 50/35/16 115/34/16 114/36/16
f 49/37/17 114/36/17 113/38/17
f 48/39/18 113/38/18 112/40/18
f 47/41/19 112/40/19 111/42/19
f 46/43/20 111/42/20 110/44/20
f 45/45/21 110/44/21 109/46/21
f 44/47/22 109/46/22 108/48/22
f 43/49/23 108/50/23 107/51/23
f 42/52/24 107/51/24 106/53/24
f 41/54/25 106/53/25 105/55/25
f 40/56/26 105/55/26 104/57/26
f 39/58/27 104/57/27 103/59/27
f 38/60/28 103/59/28 102/61/28
f 37/62/29 102/63/29 101/64/29
f 36/65/30 101/64/30 100/66/30
f 35/67/31 100/66/31 99/68/31
f 34/69/32 99/68/32 98/70/32
f 33/71/33 98/70/33 97/5/33
f 49/72/34 41/73/34 33/74/34
f 96/75/33 129/76/33 160/77/33
f 65/78/32 130/79/32 129/76/32
f 66/80/31 131/81/31 130/79/31
f 67/82/30 132/83/30 131/81/30
f 68/84/29 133/85/29 132/83/29
f 69/86/28 134/87/28 133/88/28
f 70/89/27 135/90/27 134/87/27
f 71/91/26 136/92/26 135/90/26
f 72/93/25 137/94/25 136/92/25
f 73/95/24 138/96/24 137/94/24
f 74/97/23 139/98/23 138/96/23
f 75/99/22 140/100/22 139/101/22
f 76/102/21 141/103/21 140/100/21
f 77/104/20 142/105/20 141/103/20
f 78/106/19 143/107/19 142/105/19
f 79/108/18 144/109/18 143/107/18
f 80/110/17 145/111/17 144/109/17
f 81/112/16 146/113/16 145/111/16
f 82/114/15 147/115/15 146/113/15
f 83/116/14 148/117/14 147/118/14
f 84/119/13 149/120/13 148/117/13
f 85/121/12 150/122/12 149/120/12
f 86/123/11 151/124/11 150/122/11
f 87/125/10 152/126/10 151/124/10
f 88/127/9 153/128/9 152/126/9
f 89/129/8 154/130/8 153/128/8
f 90/131/7 155/132/7 154/130/7
f 91/133/6 156/134/6 155/132/6
f 92/135/5 157/136/5 156/134/5
f 93/137/4 158/138/4 157/139/4
f 94/140/3 159/141/3 158/138/3
f 95/142/2 160/77/2 159/141/2
f 97/5/33 65/78/33 96/75/33
f 98/70/32 66/80/32 65/78/32
f 99/68/31 67/82/31 66/80/31
f 100/66/30 68/84/30 67/82/30
f 101/64/29 69/143/29 68/84/29
f 102/61/28 70/89/28 69/86/28
f 103/59/27 71/91/27 70/89/27
f 104/57/26 72/93/26 71/91/26
f 105/55/25 73/95/25 72/93/25
f 106/53/24 74/97/24 73/95/24
f 107/51/23 75/144/23 74/97/23
f 108/48/22 76/102/22 75/99/22
f 109/46/21 77/104/21 76/102/21
f 110/44/20 78/106/20 77/104/20
f 111/42/19 79/108/19 78/106/19
f 112/40/18 80/110/18 79/108/18
f 113/38/17 81/112/17 80/110/17
f 114/36/16 82/114/16 81/112/16
f 115/34/15 83/145/15 82/114/15
f 116/31/14 84/119/14 83/116/14
f 117/29/13 85/121/13 84/119/13
f 118/27/12 86/123/12 85/121/12
f 119/25/11 87/125/11 86/123/11
f 120/23/10 88/127/10 87/125/10
f 121/21/9 89/129/9 88/127/9
f 122/19/8 90/131/8 89/129/8
f 123/17/7 91/133/7 90/131/7
f 124/15/6 92/135/6 91/133/6
f 125/13/5 93/146/5 92/135/5
f 126/10/4 94/140/4 93/137/4
f 127/8/3 95/142/3 94/140/3
f 128/6/2 96/75/2 95/142/2
f 159/141/2 1/147/2 32/148/2
f 158/138/3 32/148/3 31/149/3
f 157/139/4 31/149/4 30/150/4
f 156/134/5 30/151/5 29/152/5
f 155/132/6 29/152/6 28/153/6
f 154/130/7 28/153/7 27/154/7
f 153/128/8 27/154/8 26/155/8
f 152/126/9 26/155/9 25/156/9
f 151/124/10 25/156/10 24/157/10
f 150/122/11 24/157/11 23/158/11
f 149/120/12 23/158/12 22/159/12
f 148/117/13 22/159/13 21/160/13
f 147/118/14 21/160/14 20/161/14
f 146/113/15 20/162/15 19/163/15
f 145/111/16 19/163/16 18/164/16
f 144/109/17 18/164/17 17/165/17
f 143/107/18 17/165/18 16/166/18
f 142/105/19 16/166/19 15/167/19
f 141/103/20 15/167/20 14/168/20
f 140/100/21 14/168/21 13/169/21
f 139/101/22 13/169/22 12/170/22
f 138/96/23 12/171/23 11/172/23
f 137/94/24 11/172/24 10/173/24
f 136/92/25 10/173/25 9/174/25
f 135/90/26 9/174/26 8/175/26
f 134/87/27 8/175/27 7/176/27
f 133/88/28 7/176/28 6/177/28
f 132/83/29 6/178/29 5/179/29
f 131/81/30 5/179/30 4/180/30
f 130/79/31 4/180/31 3/181/31
f 129/76/32 3/181/32 2/182/32
f 160/77/33 2/182/33 1/147/33
f 32/183/1 1/184/1 2/185/1
f 2/185/1 3/186/1 32/183/1
f 3/186/1 4/187/1 32/183/1
f 4/187/1 5/188/1 8/1/1
f 5/188/1 6/189/1 8/1/1
f 6/189/1 7/190/1 8/1/1
f 8/1/1 9/191/1 10/192/1
f 10/192/1 11/193/1 8/1/1
f 11/193/1 12/194/1 8/1/1
f 12/194/1 13/195/1 14/196/1
f 14/196/1 15/197/1 16/2/1
f 16/2/1 17/198/1 18/199/1
f 18/199/1 19/200/1 16/2/1
f 19/200/1 20/201/1 16/2/1
f 20/201/1 21/202/1 22/203/1
f 22/203/1 23/204/1 20/201/1
f 23/204/1 24/3/1 20/201/1
f 24/3/1 25/205/1 26/206/1
f 26/206/1 27/207/1 28/208/1
f 28/208/1 29/209/1 30/210/1
f 30/210/1 31/211/1 28/208/1
f 31/211/1 32/183/1 28/208/1
f 12/194/1 14/196/1 8/1/1
f 14/196/1 16/2/1 8/1/1
f 24/3/1 26/206/1 32/183/1
f 26/206/1 28/208/1 32/183/1
f 32/183/1 4/187/1 8/1/1
f 16/2/1 20/201/1 24/3/1
f 32/183/1 8/1/1 24/3/1
f 64/4/2 33/71/2 97/5/2
f 63/7/3 64/4/3 128/6/3
f 62/9/4 63/7/4 127/8/4
f 61/11/5 62/212/5 126/12/5
f 60/14/6 61/11/6 125/13/6
f 59/16/7 60/14/7 124/15/7
f 58/18/8 59/16/8 123/17/8
f 57/20/9 58/18/9 122/19/9
f 56/22/10 57/20/10 121/21/10
f 55/24/11 56/22/11 120/23/11
f 54/26/12 55/24/12 119/25/12
f 53/28/13 54/26/13 118/27/13
f 52/30/14 53/28/14 117/29/14
f 51/32/15 52/213/15 116/33/15
f 50/35/16 51/32/16 115/34/16
f 49/37/17 50/35/17 114/36/17
f 48/39/18 49/37/18 113/38/18
f 47/41/19 48/39/19 112/40/19
f 46/43/20 47/41/20 111/42/20
f 45/45/21 46/43/21 110/44/21
f 44/47/22 45/45/22 109/46/22
f 43/49/23 44/162/23 108/50/23
f 42/52/24 43/49/24 107/51/24
f 41/54/25 42/52/25 106/53/25
f 40/56/26 41/54/26 105/55/26
f 39/58/27 40/56/27 104/57/27
f 38/60/28 39/58/28 103/59/28
f 37/62/29 38/214/29 102/63/29
f 36/65/30 37/62/30 101/64/30
f 35/67/31 36/65/31 100/66/31
f 34/69/32 35/67/32 99/68/32
f 33/71/33 34/69/33 98/70/33
f 33/74/34 64/215/34 63/216/34
f 63/216/34 62/217/34 61/218/34
f 61/218/34 60/219/34 59/220/34
f 59/220/34 58/221/34 57/222/34
f 57/222/34 56/223/34 55/224/34
f 55/224/34 54/225/34 53/226/34
f 53/226/34 52/227/34 51/228/34
f 51/228/34 50/229/34 49/72/34
f 49/72/34 48/230/34 47/231/34
f 47/231/34 46/232/34 45/233/34
f 45/233/34 44/234/34 43/235/34
f 43/235/34 42/236/34 41/73/34
f 41/73/34 40/237/34 39/238/34
f 39/238/34 38/239/34 37/240/34
f 37/240/34 36/241/34 35/242/34
f 35/242/34 34/243/34 33/74/34
f 33/74/34 63/216/34 57/222/34
f 63/216/34 61/218/34 57/222/34
f 61/218/34 59/220/34 57/222/34
f 57/222/34 55/224/34 53/226/34
f 53/226/34 51/228/34 57/222/34
f 51/228/34 49/72/34 57/222/34
f 49/72/34 47/231/34 41/73/34
f 47/231/34 45/233/34 41/73/34
f 45/233/34 43/235/34 41/73/34
f 41/73/34 39/238/34 37/240/34
f 37/240/34 35/242/34 41/73/34
f 35/242/34 33/74/34 41/73/34
f 33/74/34 57/222/34 49/72/34
f 96/75/33 65/78/33 129/76/33
f 65/78/32 66/80/32 130/79/32
f 66/80/31 67/82/31 131/81/31
f 67/82/30 68/84/30 132/83/30
f 68/84/29 69/143/29 133/85/29
f 69/86/28 70/89/28 134/87/28
f 70/89/27 71/91/27 135/90/27
f 71/91/26 72/93/26 136/92/26
f 72/93/25 73/95/25 137/94/25
f 73/95/24 74/97/24 138/96/24
f 74/97/23 75/144/23 139/98/23
f 75/99/22 76/102/22 140/100/22
f 76/102/21 77/104/21 141/103/21
f 77/104/20 78/106/20 142/105/20
f 78/106/19 79/108/19 143/107/19
f 79/108/18 80/110/18 144/109/18
f 80/110/17 81/112/17 145/111/17
f 81/112/16 82/114/16 146/113/16
f 82/114/15 83/145/15 147/115/15
f 83/116/14 84/119/14 148/117/14
f 84/119/13 85/121/13 149/120/13
f 85/121/12 86/123/12 150/122/12
f 86/123/11 87/125/11 151/124/11
f 87/125/10 88/127/10 152/126/10
f 88/127/9 89/129/9 153/128/9
f 89/129/8 90/131/8 154/130/8
f 90/131/7 91/133/7 155/132/7
f 91/133/6 92/135/6 156/134/6
f 92/135/5 93/146/5 157/136/5
f 93/137/4 94/140/4 158/138/4
f 94/140/3 95/142/3 159/141/3
f 95/142/2 96/75/2 160/77/2
f 97/5/33 98/70/33 65/78/33
f 98/70/32 99/68/32 66/80/32
f 99/68/31 100/66/31 67/82/31
f 100/66/30 101/64/30 68/84/30
f 101/64/29 102/63/29 69/143/29
f 102/61/28 103/59/28 70/89/28
f 103/59/27 104/57/27 71/91/27
f 104/57/26 105/55/26 72/93/26
f 105/55/25 106/53/25 73/95/25
f 106/53/24 107/51/24 74/97/24
f 107/51/23 108/50/23 75/144/23
f 108/48/22 109/46/22 76/102/22
f 109/46/21 110/44/21 77/104/21
f 110/44/20 111/42/20 78/106/20
f 111/42/19 112/40/19 79/108/19
f 112/40/18 113/38/18 80/110/18
f 113/38/17 114/36/17 81/112/17
f 114/36/16 115/34/16 82/114/16
f 115/34/15 116/33/15 83/145/15
f 116/31/14 117/29/14 84/119/14
f 117/29/13 118/27/13 85/121/13
f 118/27/12 119/25/12 86/123/12
f 119/25/11 120/23/11 87/125/11
f 120/23/10 121/21/10 88/127/10
f 121/21/9 122/19/9 89/129/9
f 122/19/8 123/17/8 90/131/8
f 123/17/7 124/15/7 91/133/7
f 124/15/6 125/13/6 92/135/6
f 125/13/5 126/12/5 93/146/5
f 126/10/4 127/8/4 94/140/4
f 127/8/3 128/6/3 95/142/3
f 128/6/2 97/5/2 96/75/2
f 159/141/2 160/77/2 1/147/2
f 158/138/3 159/141/3 32/148/3
f 157/139/4 158/138/4 31/149/4
f 156/134/5 157/136/5 30/151/5
f 155/132/6 156/134/6 29/152/6
f 154/130/7 155/132/7 28/153/7
f 153/128/8 154/130/8 27/154/8
f 152/126/9 153/128/9 26/155/9
f 151/124/10 152/126/10 25/156/10
f 150/122/11 151/124/11 24/157/11
f 149/120/12 150/122/12 23/158/12
f 148/117/13 149/120/13 22/159/13
f 147/118/14 148/117/14 21/160/14
f 146/113/15 147/115/15 20/162/15
f 145/111/16 146/113/16 19/163/16
f 144/109/17 145/111/17 18/164/17
f 143/107/18 144/109/18 17/165/18
f 142/105/19 143/107/19 16/166/19
f 141/103/20 142/105/20 15/167/20
f 140/100/21 141/103/21 14/168/21
f 139/101/22 140/100/22 13/169/22
f 138/96/23 139/98/23 12/171/23
f 137/94/24 138/96/24 11/172/24
f 136/92/25 137/94/25 10/173/25
f 135/90/26 136/92/26 9/174/26
f 134/87/27 135/90/27 8/175/27
f 133/88/28 134/87/28 7/176/28
f 132/83/29 133/85/29 6/178/29
f 131/81/30 132/83/30 5/179/30
f 130/79/31 131/81/31 4/180/31
f 129/76/32 130/79/32 3/181/32
f 160/77/33 129/76/33 2/182/33
