# Blender 4.5.3 LTS
# www.blender.org
o C2_C3_H_AIR
v -21.407000 35.500000 -9.249998
v -21.407000 -35.500000 -9.250002
v -21.163137 35.500000 -9.274017
v -21.163137 -35.500000 -9.274020
v -20.928646 35.500000 -9.345149
v -20.928646 -35.500000 -9.345152
v -20.712536 35.500000 -9.460661
v -20.712536 -35.500000 -9.460665
v -20.523117 35.500000 -9.616115
v -20.523117 -35.500000 -9.616118
v -20.367662 35.500000 -9.805535
v -20.367662 -35.500000 -9.805539
v -20.252150 35.500000 -10.021645
v -20.252150 -35.500000 -10.021647
v -20.181019 35.500000 -10.256136
v -20.181019 -35.500000 -10.256139
v -20.157000 35.500000 -10.499998
v -20.157000 -35.500000 -10.500002
v -20.181019 35.500000 -10.743861
v -20.181019 -35.500000 -10.743864
v -20.252150 35.500000 -10.978353
v -20.252150 -35.500000 -10.978355
v -20.367662 35.500000 -11.194461
v -20.367662 -35.500000 -11.194465
v -20.523117 35.500000 -11.383882
v -20.523117 -35.500000 -11.383885
v -20.712536 35.500000 -11.539335
v -20.712536 -35.500000 -11.539339
v -20.928646 35.500000 -11.654848
v -20.928646 -35.500000 -11.654851
v -21.163137 35.500000 -11.725980
v -21.163137 -35.500000 -11.725983
v -21.407000 35.500000 -11.749998
v -21.407000 -35.500000 -11.750002
v -21.650862 35.500000 -11.725980
v -21.650862 -35.500000 -11.725983
v -21.885353 35.500000 -11.654848
v -21.885353 -35.500000 -11.654851
v -22.101463 35.500000 -11.539335
v -22.101463 -35.500000 -11.539339
v -22.290882 35.500000 -11.383882
v -22.290882 -35.500000 -11.383885
v -22.446337 35.500000 -11.194461
v -22.446337 -35.500000 -11.194465
v -22.561850 35.500000 -10.978353
v -22.561850 -35.500000 -10.978355
v -22.632980 35.500000 -10.743861
v -22.632980 -35.500000 -10.743864
v -22.657000 35.500000 -10.499998
v -22.657000 -35.500000 -10.500002
v -22.632980 35.500000 -10.256136
v -22.632980 -35.500000 -10.256139
v -22.561850 35.500000 -10.021645
v -22.561850 -35.500000 -10.021647
v -22.446337 35.500000 -9.805535
v -22.446337 -35.500000 -9.805539
v -22.290882 35.500000 -9.616115
v -22.290882 -35.500000 -9.616118
v -22.101463 35.500000 -9.460661
v -22.101463 -35.500000 -9.460665
v -21.885353 35.500000 -9.345149
v -21.885353 -35.500000 -9.345152
v -21.650862 35.500000 -9.274017
v -21.650862 -35.500000 -9.274020
v -21.407000 -0.000000 -9.250000
v -21.163137 -0.000000 -9.274018
v -20.928646 -0.000000 -9.345151
v -20.712536 -0.000000 -9.460663
v -20.523117 -0.000000 -9.616117
v -20.367662 -0.000000 -9.805537
v -20.252150 -0.000000 -10.021646
v -20.181019 -0.000000 -10.256137
v -20.157000 0.000000 -10.500000
v -20.181019 0.000000 -10.743863
v -20.252150 0.000000 -10.978354
v -20.367662 0.000000 -11.194463
v -20.523117 0.000000 -11.383883
v -20.712536 0.000000 -11.539337
v -20.928646 0.000000 -11.654849
v -21.163137 0.000000 -11.725982
v -21.407000 0.000000 -11.750000
v -21.650862 0.000000 -11.725982
v -21.885353 0.000000 -11.654849
v -22.101463 0.000000 -11.539337
v -22.290882 0.000000 -11.383883
v -22.446337 0.000000 -11.194463
v -22.561850 0.000000 -10.978354
v -22.632980 0.000000 -10.743863
v -22.657000 0.000000 -10.500000
v -22.632980 -0.000000 -10.256137
v -22.561850 -0.000000 -10.021646
v -22.446337 -0.000000 -9.805537
v -22.290882 -0.000000 -9.616117
v -22.101463 -0.000000 -9.460663
v -21.885353 -0.000000 -9.345151
v -21.650862 -0.000000 -9.274018
v -21.163137 17.750000 -9.274017
v -20.928646 17.750000 -9.345150
v -20.712536 17.750000 -9.460662
v -20.523117 17.750000 -9.616116
v -20.367662 17.750000 -9.805536
v -20.252150 17.750000 -10.021645
v -20.181019 17.750000 -10.256136
v -20.157000 17.750000 -10.499999
v -20.181019 17.750000 -10.743862
v -20.252150 17.750000 -10.978354
v -20.367662 17.750000 -11.194462
v -20.523117 17.750000 -11.383883
v -20.712536 17.750000 -11.539336
v -20.928646 17.750000 -11.654848
v -21.163137 17.750000 -11.725981
v -21.407000 17.750000 -11.749999
v -21.650862 17.750000 -11.725981
v -21.885353 17.750000 -11.654848
v -22.101463 17.750000 -11.539336
v -22.290882 17.750000 -11.383883
v -22.446337 17.750000 -11.194462
v -22.561850 17.750000 -10.978354
v -22.632980 17.750000 -10.743862
v -22.657000 17.750000 -10.499999
v -22.632980 17.750000 -10.256136
v -22.561850 17.750000 -10.021645
v -22.446337 17.750000 -9.805536
v -22.290882 17.750000 -9.616116
v -22.101463 17.750000 -9.460662
v -21.885353 17.750000 -9.345150
v -21.650862 17.750000 -9.274017
v -21.407000 17.750000 -9.249999
v -21.407000 -17.750000 -9.250001
v -21.163137 -17.750000 -9.274019
v -20.928646 -17.750000 -9.345152
v -20.712536 -17.750000 -9.460664
v -20.523117 -17.750000 -9.616117
v -20.367662 -17.750000 -9.805538
v -20.252150 -17.750000 -10.021646
v -20.181019 -17.750000 -10.256138
v -20.157000 -17.750000 -10.500001
v -20.181019 -17.750000 -10.743864
v -20.252150 -17.750000 -10.978355
v -20.367662 -17.750000 -11.194464
v -20.523117 -17.750000 -11.383884
v -20.712536 -17.750000 -11.539338
v -20.928646 -17.750000 -11.654850
v -21.163137 -17.750000 -11.725983
v -21.407000 -17.750000 -11.750001
v -21.650862 -17.750000 -11.725983
v -21.885353 -17.750000 -11.654850
v -22.101463 -17.750000 -11.539338
v -22.290882 -17.750000 -11.383884
v -22.446337 -17.750000 -11.194464
v -22.561850 -17.750000 -10.978355
v -22.632980 -17.750000 -10.743864
v -22.657000 -17.750000 -10.500001
v -22.632980 -17.750000 -10.256138
v -22.561850 -17.750000 -10.021646
v -22.446337 -17.750000 -9.805538
v -22.290882 -17.750000 -9.616117
v -22.101463 -17.750000 -9.460664
v -21.885353 -17.750000 -9.345152
v -21.650862 -17.750000 -9.274019
v -21.163137 -8.875000 -9.274019
v -20.928646 -8.875000 -9.345151
v -20.712536 -8.875000 -9.460663
v -20.523117 -8.875000 -9.616117
v -20.367662 -8.875000 -9.805537
v -20.252150 -8.875000 -10.021646
v -20.181019 -8.875000 -10.256138
v -20.157000 -8.875000 -10.500000
v -20.181019 -8.875000 -10.743863
v -20.252150 -8.875000 -10.978354
v -20.367662 -8.875000 -11.194463
v -20.523117 -8.875000 -11.383883
v -20.712536 -8.875000 -11.539337
v -20.928646 -8.875000 -11.654850
v -21.163137 -8.875000 -11.725982
v -21.407000 -8.875000 -11.750000
v -21.650862 -8.875000 -11.725982
v -21.885353 -8.875000 -11.654850
v -22.101463 -8.875000 -11.539337
v -22.290882 -8.875000 -11.383883
v -22.446337 -8.875000 -11.194463
v -22.561850 -8.875000 -10.978354
v -22.632980 -8.875000 -10.743863
v -22.657000 -8.875000 -10.500000
v -22.632980 -8.875000 -10.256138
v -22.561850 -8.875000 -10.021646
v -22.446337 -8.875000 -9.805537
v -22.290882 -8.875000 -9.616117
v -22.101463 -8.875000 -9.460663
v -21.885353 -8.875000 -9.345151
v -21.650862 -8.875000 -9.274019
v -21.407000 -8.875000 -9.250000
v -21.407000 8.875000 -9.250000
v -21.163137 8.875000 -9.274018
v -20.928646 8.875000 -9.345150
v -20.712536 8.875000 -9.460663
v -20.523117 8.875000 -9.616117
v -20.367662 8.875000 -9.805537
v -20.252150 8.875000 -10.021646
v -20.181019 8.875000 -10.256137
v -20.157000 8.875000 -10.500000
v -20.181019 8.875000 -10.743862
v -20.252150 8.875000 -10.978354
v -20.367662 8.875000 -11.194463
v -20.523117 8.875000 -11.383883
v -20.712536 8.875000 -11.539337
v -20.928646 8.875000 -11.654849
v -21.163137 8.875000 -11.725981
v -21.407000 8.875000 -11.750000
v -21.650862 8.875000 -11.725981
v -21.885353 8.875000 -11.654849
v -22.101463 8.875000 -11.539337
v -22.290882 8.875000 -11.383883
v -22.446337 8.875000 -11.194463
v -22.561850 8.875000 -10.978354
v -22.632980 8.875000 -10.743862
v -22.657000 8.875000 -10.500000
v -22.632980 8.875000 -10.256137
v -22.561850 8.875000 -10.021646
v -22.446337 8.875000 -9.805537
v -22.290882 8.875000 -9.616117
v -22.101463 8.875000 -9.460663
v -21.885353 8.875000 -9.345150
v -21.650862 8.875000 -9.274018
v -21.163137 26.625000 -9.274017
v -20.928646 26.625000 -9.345149
v -20.712536 26.625000 -9.460662
v -20.523117 26.625000 -9.616116
v -20.367662 26.625000 -9.805536
v -20.252150 26.625000 -10.021645
v -20.181019 26.625000 -10.256136
v -20.157000 26.625000 -10.499999
v -20.181019 26.625000 -10.743862
v -20.252150 26.625000 -10.978354
v -20.367662 26.625000 -11.194462
v -20.523117 26.625000 -11.383883
v -20.712536 26.625000 -11.539336
v -20.928646 26.625000 -11.654848
v -21.163137 26.625000 -11.725981
v -21.407000 26.625000 -11.749999
v -21.650862 26.625000 -11.725981
v -21.885353 26.625000 -11.654848
v -22.101463 26.625000 -11.539336
v -22.290882 26.625000 -11.383883
v -22.446337 26.625000 -11.194462
v -22.561850 26.625000 -10.978354
v -22.632980 26.625000 -10.743862
v -22.657000 26.625000 -10.499999
v -22.632980 26.625000 -10.256136
v -22.561850 26.625000 -10.021645
v -22.446337 26.625000 -9.805536
v -22.290882 26.625000 -9.616116
v -22.101463 26.625000 -9.460662
v -21.885353 26.625000 -9.345149
v -21.650862 26.625000 -9.274017
v -21.407000 26.625000 -9.249999
v -21.407000 -26.625000 -9.250001
v -21.163137 -26.625000 -9.274019
v -20.928646 -26.625000 -9.345152
v -20.712536 -26.625000 -9.460664
v -20.523117 -26.625000 -9.616117
v -20.367662 -26.625000 -9.805538
v -20.252150 -26.625000 -10.021646
v -20.181019 -26.625000 -10.256138
v -20.157000 -26.625000 -10.500001
v -20.181019 -26.625000 -10.743864
v -20.252150 -26.625000 -10.978355
v -20.367662 -26.625000 -11.194464
v -20.523117 -26.625000 -11.383884
v -20.712536 -26.625000 -11.539338
v -20.928646 -26.625000 -11.654851
v -21.163137 -26.625000 -11.725983
v -21.407000 -26.625000 -11.750001
v -21.650862 -26.625000 -11.725983
v -21.885353 -26.625000 -11.654851
v -22.101463 -26.625000 -11.539338
v -22.290882 -26.625000 -11.383884
v -22.446337 -26.625000 -11.194464
v -22.561850 -26.625000 -10.978355
v -22.632980 -26.625000 -10.743864
v -22.657000 -26.625000 -10.500001
v -22.632980 -26.625000 -10.256138
v -22.561850 -26.625000 -10.021646
v -22.446337 -26.625000 -9.805538
v -22.290882 -26.625000 -9.616117
v -22.101463 -26.625000 -9.460664
v -21.885353 -26.625000 -9.345152
v -21.650862 -26.625000 -9.274019
vn 0.0980 -0.0000 0.9952
vn 0.2903 -0.0000 0.9569
vn 0.4714 -0.0000 0.8819
vn 0.6344 -0.0000 0.7730
vn 0.7730 -0.0000 0.6344
vn 0.8819 -0.0000 0.4714
vn 0.9569 -0.0000 0.2903
vn 0.9952 -0.0000 0.0980
vn 0.9952 -0.0000 -0.0980
vn 0.9569 -0.0000 -0.2903
vn 0.8819 -0.0000 -0.4714
vn 0.7730 -0.0000 -0.6344
vn 0.6344 -0.0000 -0.7730
vn 0.4714 -0.0000 -0.8819
vn 0.2903 -0.0000 -0.9569
vn 0.0980 -0.0000 -0.9952
vn -0.0980 -0.0000 -0.9952
vn -0.2903 -0.0000 -0.9569
vn -0.4714 -0.0000 -0.8819
vn -0.6344 -0.0000 -0.7730
vn -0.7730 -0.0000 -0.6344
vn -0.8819 -0.0000 -0.4714
vn -0.9569 -0.0000 -0.2903
vn -0.9952 -0.0000 -0.0980
vn -0.9952 -0.0000 0.0980
vn -0.9569 -0.0000 0.2903
vn -0.8819 -0.0000 0.4714
vn -0.7730 -0.0000 0.6344
vn -0.6344 -0.0000 0.7730
vn -0.4714 -0.0000 0.8819
vn -0.0000 -1.0000 -0.0000
vn -0.2903 -0.0000 0.9569
vn -0.0980 -0.0000 0.9952
vn -0.0000 1.0000 -0.0000
vn 0.0001 -1.0000 -0.0000
vt 0.937232 0.000000
vt 0.971153 0.052027
vt 0.937232 0.052027
vt 0.971153 0.000000
vt 1.000000 0.052027
vt 0.414214 0.000000
vt 0.448135 0.052027
vt 0.414214 0.052027
vt 0.448135 0.000000
vt 0.485826 0.052027
vt 0.485826 0.000000
vt 0.525838 0.052027
vt 0.525838 0.000000
vt 0.566635 0.052027
vt 0.566635 0.000000
vt 0.606647 0.052027
vt 0.606647 0.000000
vt 0.644338 0.052027
vt 0.644338 0.000000
vt 0.678259 0.052027
vt 0.678259 0.000000
vt 0.707107 0.052027
vt 0.707107 0.416218
vt 0.741028 0.468245
vt 0.707107 0.468245
vt 0.741028 0.416218
vt 0.778719 0.468245
vt 0.778719 0.416218
vt 0.818731 0.468245
vt 0.818731 0.416218
vt 0.859528 0.468245
vt 0.859528 0.416218
vt 0.899541 0.468245
vt 0.899541 0.416218
vt 0.937232 0.468245
vt 0.937232 0.416218
vt 0.971153 0.468245
vt 0.971153 0.416218
vt 1.000000 0.468245
vt 0.414214 0.416218
vt 0.448135 0.468245
vt 0.414214 0.468245
vt 0.448135 0.416218
vt 0.485826 0.468245
vt 0.485826 0.416218
vt 0.525838 0.468245
vt 0.525838 0.416218
vt 0.566635 0.468245
vt 0.566635 0.416218
vt 0.606647 0.468245
vt 0.606647 0.416218
vt 0.644338 0.468245
vt 0.644338 0.416218
vt 0.678259 0.468245
vt 0.678259 0.416218
vt 0.707107 0.468245
vt 0.707107 0.000000
vt 0.741028 0.052027
vt 0.707107 0.052027
vt 0.741028 0.000000
vt 0.778719 0.052027
vt 0.778719 0.000000
vt 0.818731 0.052027
vt 0.818731 0.000000
vt 0.859528 0.052027
vt 0.305209 0.023571
vt 0.390642 0.305209
vt 0.109005 0.390642
vt 0.859528 0.000000
vt 0.899541 0.052027
vt 0.899541 0.000000
vt 0.339130 0.460450
vt 0.367977 0.753343
vt 0.075084 0.782191
vt 0.899541 0.208109
vt 0.937232 0.260136
vt 0.899541 0.260136
vt 0.859528 0.208109
vt 0.859528 0.260136
vt 0.818731 0.208109
vt 0.818731 0.260136
vt 0.778719 0.208109
vt 0.778719 0.260136
vt 0.741028 0.208109
vt 0.741028 0.260136
vt 0.707107 0.208109
vt 0.707107 0.260136
vt 0.678259 0.624327
vt 0.707107 0.676354
vt 0.678259 0.676354
vt 0.644338 0.624327
vt 0.644338 0.676354
vt 0.606647 0.624327
vt 0.606647 0.676354
vt 0.566635 0.624327
vt 0.566635 0.676354
vt 0.525838 0.624327
vt 0.525838 0.676354
vt 0.485826 0.624327
vt 0.485826 0.676354
vt 0.448135 0.624327
vt 0.448135 0.676354
vt 0.414214 0.624327
vt 0.414214 0.676354
vt 0.971153 0.624327
vt 1.000000 0.676354
vt 0.971153 0.676354
vt 0.937232 0.624327
vt 0.937232 0.676354
vt 0.899541 0.624327
vt 0.899541 0.676354
vt 0.859528 0.624327
vt 0.859528 0.676354
vt 0.818731 0.624327
vt 0.818731 0.676354
vt 0.778719 0.624327
vt 0.778719 0.676354
vt 0.741028 0.624327
vt 0.741028 0.676354
vt 0.707107 0.624327
vt 0.707107 0.676354
vt 0.678259 0.208109
vt 0.707107 0.260136
vt 0.678259 0.260136
vt 0.644338 0.208109
vt 0.644338 0.260136
vt 0.606647 0.208109
vt 0.606647 0.260136
vt 0.566635 0.208109
vt 0.566635 0.260136
vt 0.525838 0.208109
vt 0.525838 0.260136
vt 0.485826 0.208109
vt 0.485826 0.260136
vt 0.448135 0.208109
vt 0.448135 0.260136
vt 0.414214 0.208109
vt 0.414214 0.260136
vt 0.971153 0.208109
vt 1.000000 0.260136
vt 0.971153 0.260136
vt 0.937232 0.208109
vt 0.937232 0.312163
vt 0.971153 0.364191
vt 0.937232 0.364191
vt 0.971153 0.312163
vt 1.000000 0.364191
vt 0.414214 0.312163
vt 0.448135 0.364191
vt 0.414214 0.364191
vt 0.448135 0.312163
vt 0.485826 0.364191
vt 0.485826 0.312163
vt 0.525838 0.364191
vt 0.525838 0.312163
vt 0.566635 0.364191
vt 0.566635 0.312163
vt 0.606647 0.364191
vt 0.606647 0.312163
vt 0.644338 0.364191
vt 0.644338 0.312163
vt 0.678259 0.364191
vt 0.678259 0.312163
vt 0.707107 0.364191
vt 0.707107 0.728381
vt 0.741028 0.780408
vt 0.707107 0.780408
vt 0.741028 0.728381
vt 0.778719 0.780408
vt 0.778719 0.728381
vt 0.818731 0.780408
vt 0.818731 0.728381
vt 0.859528 0.780408
vt 0.859528 0.728381
vt 0.899541 0.780408
vt 0.899541 0.728381
vt 0.937232 0.780408
vt 0.937232 0.728381
vt 0.971153 0.780408
vt 0.971153 0.728381
vt 1.000000 0.780408
vt 0.414214 0.728381
vt 0.448135 0.780408
vt 0.414214 0.780408
vt 0.448135 0.728381
vt 0.485826 0.780408
vt 0.485826 0.728381
vt 0.525838 0.780408
vt 0.525838 0.728381
vt 0.566635 0.780408
vt 0.566635 0.728381
vt 0.606647 0.780408
vt 0.606647 0.728381
vt 0.644338 0.780408
vt 0.644338 0.728381
vt 0.678259 0.780408
vt 0.678259 0.728381
vt 0.707107 0.780408
vt 0.707107 0.312163
vt 0.741028 0.364191
vt 0.707107 0.364191
vt 0.741028 0.312163
vt 0.778719 0.364191
vt 0.778719 0.312163
vt 0.818731 0.364191
vt 0.818731 0.312163
vt 0.859528 0.364191
vt 0.859528 0.312163
vt 0.899541 0.364191
vt 0.899541 0.312163
vt 0.899541 0.104054
vt 0.937232 0.156082
vt 0.899541 0.156082
vt 0.859528 0.104054
vt 0.859528 0.156082
vt 0.818731 0.104054
vt 0.818731 0.156082
vt 0.778719 0.104054
vt 0.778719 0.156082
vt 0.741028 0.104054
vt 0.741028 0.156082
vt 0.707107 0.104054
vt 0.707107 0.156082
vt 0.678259 0.520272
vt 0.707107 0.572300
vt 0.678259 0.572300
vt 0.644338 0.520272
vt 0.644338 0.572300
vt 0.606647 0.520272
vt 0.606647 0.572300
vt 0.566635 0.520272
vt 0.566635 0.572300
vt 0.525838 0.520272
vt 0.525838 0.572300
vt 0.485826 0.520272
vt 0.485826 0.572300
vt 0.448135 0.520272
vt 0.448135 0.572300
vt 0.414214 0.520272
vt 0.414214 0.572300
vt 0.971153 0.520272
vt 1.000000 0.572299
vt 0.971153 0.572299
vt 0.937232 0.520272
vt 0.937232 0.572299
vt 0.899541 0.520272
vt 0.899541 0.572299
vt 0.859528 0.520272
vt 0.859528 0.572299
vt 0.818731 0.520272
vt 0.818731 0.572299
vt 0.778719 0.520272
vt 0.778719 0.572299
vt 0.741028 0.520272
vt 0.741028 0.572299
vt 0.707107 0.520272
vt 0.707107 0.572299
vt 0.678259 0.104054
vt 0.707107 0.156082
vt 0.678259 0.156082
vt 0.644338 0.104054
vt 0.644338 0.156082
vt 0.606647 0.104054
vt 0.606647 0.156082
vt 0.566635 0.104054
vt 0.566635 0.156082
vt 0.525838 0.104054
vt 0.525838 0.156082
vt 0.485826 0.104054
vt 0.485826 0.156082
vt 0.448135 0.104054
vt 0.448135 0.156082
vt 0.414214 0.104054
vt 0.414214 0.156082
vt 0.971153 0.104054
vt 1.000000 0.156082
vt 0.971153 0.156082
vt 0.937232 0.104054
vt 1.000000 0.208109
vt 0.707107 0.208109
vt 1.000000 0.624327
vt 0.707107 0.624327
vt 1.000000 0.312163
vt 0.707107 0.312163
vt 1.000000 0.728381
vt 0.707107 0.728381
vt 0.937232 0.416218
vt 0.899541 0.416218
vt 0.859528 0.416218
vt 0.818731 0.416218
vt 0.778719 0.416218
vt 0.741028 0.416218
vt 0.707107 0.416218
vt 0.707107 0.832436
vt 0.678259 0.832436
vt 0.644338 0.832436
vt 0.606647 0.832436
vt 0.566635 0.832436
vt 0.525838 0.832436
vt 0.485826 0.832436
vt 0.448135 0.832436
vt 0.414214 0.832436
vt 1.000000 0.832436
vt 0.971153 0.832436
vt 0.937232 0.832436
vt 0.899541 0.832436
vt 0.859528 0.832436
vt 0.818731 0.832436
vt 0.778719 0.832436
vt 0.741028 0.832436
vt 0.707107 0.832436
vt 0.707107 0.416218
vt 1.000000 0.416218
vt 0.971153 0.416218
vt 0.707107 0.520272
vt 1.000000 0.520272
vt 0.707107 0.104054
vt 1.000000 0.104054
vt 1.000000 0.000000
vt 0.707107 0.000000
vt 1.000000 0.416218
vt 0.075084 0.367977
vt 0.046236 0.339130
vt 0.023571 0.305209
vt 0.007959 0.267518
vt -0.000000 0.227505
vt -0.000000 0.186709
vt 0.007959 0.146696
vt 0.023571 0.109005
vt 0.046236 0.075084
vt 0.075084 0.046236
vt 0.109005 0.023571
vt 0.146696 0.007959
vt 0.186709 -0.000000
vt 0.227505 -0.000000
vt 0.267518 0.007959
vt 0.339130 0.046236
vt 0.406255 0.146696
vt 0.367977 0.075084
vt 0.390642 0.109005
vt 0.414214 0.186709
vt 0.414214 0.227505
vt 0.406255 0.267518
vt 0.367977 0.339130
vt 0.267518 0.406255
vt 0.339130 0.367977
vt 0.305209 0.390642
vt 0.227505 0.414214
vt 0.186709 0.414214
vt 0.146696 0.406255
vt 0.046236 0.753343
vt 0.023571 0.719422
vt 0.007959 0.681731
vt 0.000000 0.641719
vt 0.000000 0.600922
vt 0.007959 0.560910
vt 0.023571 0.523219
vt 0.046236 0.489298
vt 0.075084 0.460450
vt 0.109005 0.437785
vt 0.146696 0.422173
vt 0.186709 0.414214
vt 0.227505 0.414214
vt 0.267518 0.422173
vt 0.305209 0.437785
vt 0.367977 0.489298
vt 0.390642 0.523219
vt 0.406255 0.560910
vt 0.414214 0.600922
vt 0.414214 0.641719
vt 0.406255 0.681731
vt 0.390642 0.719422
vt 0.339130 0.782191
vt 0.305209 0.804856
vt 0.267518 0.820468
vt 0.227505 0.828427
vt 0.186709 0.828427
vt 0.146696 0.820468
vt 0.109005 0.804856
s 0
f 2/1/1 258/2/1 257/3/1
f 4/4/2 259/5/2 258/2/2
f 6/6/3 260/7/3 259/8/3
f 8/9/4 261/10/4 260/7/4
f 10/11/5 262/12/5 261/10/5
f 12/13/6 263/14/6 262/12/6
f 14/15/7 264/16/7 263/14/7
f 16/17/8 265/18/8 264/16/8
f 18/19/9 266/20/9 265/18/9
f 20/21/10 267/22/10 266/20/10
f 22/23/11 268/24/11 267/25/11
f 24/26/12 269/27/12 268/24/12
f 26/28/13 270/29/13 269/27/13
f 28/30/14 271/31/14 270/29/14
f 30/32/15 272/33/15 271/31/15
f 32/34/16 273/35/16 272/33/16
f 34/36/17 274/37/17 273/35/17
f 36/38/18 275/39/18 274/37/18
f 38/40/19 276/41/19 275/42/19
f 40/43/20 277/44/20 276/41/20
f 42/45/21 278/46/21 277/44/21
f 44/47/22 279/48/22 278/46/22
f 46/49/23 280/50/23 279/48/23
f 48/51/24 281/52/24 280/50/24
f 50/53/25 282/54/25 281/52/25
f 52/55/26 283/56/26 282/54/26
f 54/57/27 284/58/27 283/59/27
f 56/60/28 285/61/28 284/58/28
f 58/62/29 286/63/29 285/61/29
f 60/64/30 287/65/30 286/63/30
f 38/66/31 22/67/31 6/68/31
f 62/69/32 288/70/32 287/65/32
f 64/71/33 257/3/33 288/70/33
f 31/72/34 47/73/34 63/74/34
f 96/75/33 193/76/33 224/77/33
f 95/78/32 224/77/32 223/79/32
f 94/80/30 223/79/30 222/81/30
f 93/82/29 222/81/29 221/83/29
f 92/84/28 221/83/28 220/85/28
f 91/86/27 220/85/27 219/87/27
f 90/88/26 219/89/26 218/90/26
f 89/91/25 218/90/25 217/92/25
f 88/93/24 217/92/24 216/94/24
f 87/95/23 216/94/23 215/96/23
f 86/97/22 215/96/22 214/98/22
f 85/99/21 214/98/21 213/100/21
f 84/101/20 213/100/20 212/102/20
f 83/103/19 212/102/19 211/104/19
f 82/105/18 211/106/18 210/107/18
f 81/108/17 210/107/17 209/109/17
f 80/110/16 209/109/16 208/111/16
f 79/112/15 208/111/15 207/113/15
f 78/114/14 207/113/14 206/115/14
f 77/116/13 206/115/13 205/117/13
f 76/118/12 205/117/12 204/119/12
f 75/120/11 204/119/11 203/121/11
f 74/122/10 203/123/10 202/124/10
f 73/125/9 202/124/9 201/126/9
f 72/127/8 201/126/8 200/128/8
f 71/129/7 200/128/7 199/130/7
f 70/131/6 199/130/6 198/132/6
f 69/133/5 198/132/5 197/134/5
f 68/135/4 197/134/4 196/136/4
f 67/137/3 196/136/3 195/138/3
f 66/139/2 195/140/2 194/141/2
f 65/142/1 194/141/1 193/76/1
f 128/143/1 225/144/1 256/145/1
f 97/146/2 226/147/2 225/144/2
f 98/148/3 227/149/3 226/150/3
f 99/151/4 228/152/4 227/149/4
f 100/153/5 229/154/5 228/152/5
f 101/155/6 230/156/6 229/154/6
f 102/157/7 231/158/7 230/156/7
f 103/159/8 232/160/8 231/158/8
f 104/161/9 233/162/9 232/160/9
f 105/163/10 234/164/10 233/162/10
f 106/165/11 235/166/11 234/167/11
f 107/168/12 236/169/12 235/166/12
f 108/170/13 237/171/13 236/169/13
f 109/172/14 238/173/14 237/171/14
f 110/174/15 239/175/15 238/173/15
f 111/176/16 240/177/16 239/175/16
f 112/178/17 241/179/17 240/177/17
f 113/180/18 242/181/18 241/179/18
f 114/182/19 243/183/19 242/184/19
f 115/185/20 244/186/20 243/183/20
f 116/187/21 245/188/21 244/186/21
f 117/189/22 246/190/22 245/188/22
f 118/191/23 247/192/23 246/190/23
f 119/193/24 248/194/24 247/192/24
f 120/195/25 249/196/25 248/194/25
f 121/197/26 250/198/26 249/196/26
f 122/199/27 251/200/27 250/201/27
f 123/202/28 252/203/28 251/200/28
f 124/204/29 253/205/29 252/203/29
f 125/206/30 254/207/30 253/205/30
f 126/208/32 255/209/32 254/207/32
f 127/210/33 256/145/33 255/209/33
f 160/211/33 192/212/33 191/213/33
f 159/214/32 191/213/32 190/215/32
f 158/216/30 190/215/30 189/217/30
f 157/218/29 189/217/29 188/219/29
f 156/220/28 188/219/28 187/221/28
f 155/222/27 187/221/27 186/223/27
f 154/224/26 186/225/26 185/226/26
f 153/227/25 185/226/25 184/228/25
f 152/229/24 184/228/24 183/230/24
f 151/231/23 183/230/23 182/232/23
f 150/233/22 182/232/22 181/234/22
f 149/235/21 181/234/21 180/236/21
f 148/237/20 180/236/20 179/238/20
f 147/239/19 179/238/19 178/240/19
f 146/241/18 178/242/18 177/243/18
f 145/244/17 177/243/17 176/245/17
f 144/246/16 176/245/16 175/247/16
f 143/248/15 175/247/15 174/249/15
f 142/250/14 174/249/14 173/251/14
f 141/252/13 173/251/13 172/253/13
f 140/254/12 172/253/12 171/255/12
f 139/256/11 171/255/11 170/257/11
f 138/258/10 170/259/10 169/260/10
f 137/261/9 169/260/9 168/262/9
f 136/263/8 168/262/8 167/264/8
f 135/265/7 167/264/7 166/266/7
f 134/267/6 166/266/6 165/268/6
f 133/269/5 165/268/5 164/270/5
f 132/271/4 164/270/4 163/272/4
f 131/273/3 163/272/3 162/274/3
f 130/275/2 162/276/2 161/277/2
f 129/278/1 161/277/1 192/212/1
f 192/212/1 66/139/1 65/142/1
f 161/277/2 67/279/2 66/139/2
f 162/274/3 68/135/3 67/137/3
f 163/272/4 69/133/4 68/135/4
f 164/270/5 70/131/5 69/133/5
f 165/268/6 71/129/6 70/131/6
f 166/266/7 72/127/7 71/129/7
f 167/264/8 73/125/8 72/127/8
f 168/262/9 74/122/9 73/125/9
f 169/260/10 75/280/10 74/122/10
f 170/257/11 76/118/11 75/120/11
f 171/255/12 77/116/12 76/118/12
f 172/253/13 78/114/13 77/116/13
f 173/251/14 79/112/14 78/114/14
f 174/249/15 80/110/15 79/112/15
f 175/247/16 81/108/16 80/110/16
f 176/245/17 82/105/17 81/108/17
f 177/243/18 83/281/18 82/105/18
f 178/240/19 84/101/19 83/103/19
f 179/238/20 85/99/20 84/101/20
f 180/236/21 86/97/21 85/99/21
f 181/234/22 87/95/22 86/97/22
f 182/232/23 88/93/23 87/95/23
f 183/230/24 89/91/24 88/93/24
f 184/228/25 90/88/25 89/91/25
f 185/226/26 91/282/26 90/88/26
f 186/223/27 92/84/27 91/86/27
f 187/221/28 93/82/28 92/84/28
f 188/219/29 94/80/29 93/82/29
f 189/217/30 95/78/30 94/80/30
f 190/215/32 96/75/32 95/78/32
f 191/213/33 65/142/33 96/75/33
f 193/76/1 97/146/1 128/143/1
f 194/141/2 98/283/2 97/146/2
f 195/138/3 99/151/3 98/148/3
f 196/136/4 100/153/4 99/151/4
f 197/134/5 101/155/5 100/153/5
f 198/132/6 102/157/6 101/155/6
f 199/130/7 103/159/7 102/157/7
f 200/128/8 104/161/8 103/159/8
f 201/126/9 105/163/9 104/161/9
f 202/124/10 106/284/10 105/163/10
f 203/121/11 107/168/11 106/165/11
f 204/119/12 108/170/12 107/168/12
f 205/117/13 109/172/13 108/170/13
f 206/115/14 110/174/14 109/172/14
f 207/113/15 111/176/15 110/174/15
f 208/111/16 112/178/16 111/176/16
f 209/109/17 113/180/17 112/178/17
f 210/107/18 114/285/18 113/180/18
f 211/104/19 115/185/19 114/182/19
f 212/102/20 116/187/20 115/185/20
f 213/100/21 117/189/21 116/187/21
f 214/98/22 118/191/22 117/189/22
f 215/96/23 119/193/23 118/191/23
f 216/94/24 120/195/24 119/193/24
f 217/92/25 121/197/25 120/195/25
f 218/90/26 122/286/26 121/197/26
f 219/87/27 123/202/27 122/199/27
f 220/85/28 124/204/28 123/202/28
f 221/83/29 125/206/29 124/204/29
f 222/81/30 126/208/30 125/206/30
f 223/79/32 127/210/32 126/208/32
f 224/77/33 128/143/33 127/210/33
f 255/209/33 1/287/33 63/288/33
f 254/207/32 63/288/32 61/289/32
f 253/205/30 61/289/30 59/290/30
f 252/203/29 59/290/29 57/291/29
f 251/200/28 57/291/28 55/292/28
f 250/201/27 55/292/27 53/293/27
f 249/196/26 53/294/26 51/295/26
f 248/194/25 51/295/25 49/296/25
f 247/192/24 49/296/24 47/297/24
f 246/190/23 47/297/23 45/298/23
f 245/188/22 45/298/22 43/299/22
f 244/186/21 43/299/21 41/300/21
f 243/183/20 41/300/20 39/301/20
f 242/184/19 39/301/19 37/302/19
f 241/179/18 37/303/18 35/304/18
f 240/177/17 35/304/17 33/305/17
f 239/175/16 33/305/16 31/306/16
f 238/173/15 31/306/15 29/307/15
f 237/171/14 29/307/14 27/308/14
f 236/169/13 27/308/13 25/309/13
f 235/166/12 25/309/12 23/310/12
f 234/167/11 23/310/11 21/311/11
f 233/162/10 21/312/10 19/55/10
f 232/160/9 19/55/9 17/53/9
f 231/158/8 17/53/8 15/51/8
f 230/156/7 15/51/7 13/49/7
f 229/154/6 13/49/6 11/47/6
f 228/152/5 11/47/5 9/45/5
f 227/149/4 9/45/4 7/43/4
f 226/150/3 7/43/3 5/40/3
f 225/144/2 5/313/2 3/314/2
f 256/145/1 3/314/1 1/287/1
f 288/70/33 129/278/33 160/211/33
f 287/65/32 160/211/32 159/214/32
f 286/63/30 159/214/30 158/216/30
f 285/61/29 158/216/29 157/218/29
f 284/58/28 157/218/28 156/220/28
f 283/59/27 156/220/27 155/222/27
f 282/54/26 155/315/26 154/224/26
f 281/52/25 154/224/25 153/227/25
f 280/50/24 153/227/24 152/229/24
f 279/48/23 152/229/23 151/231/23
f 278/46/22 151/231/22 150/233/22
f 277/44/21 150/233/21 149/235/21
f 276/41/20 149/235/20 148/237/20
f 275/42/19 148/237/19 147/239/19
f 274/37/18 147/316/18 146/241/18
f 273/35/17 146/241/17 145/244/17
f 272/33/16 145/244/16 144/246/16
f 271/31/15 144/246/15 143/248/15
f 270/29/14 143/248/14 142/250/14
f 269/27/13 142/250/13 141/252/13
f 268/24/12 141/252/12 140/254/12
f 267/25/11 140/254/11 139/256/11
f 266/20/10 139/317/10 138/258/10
f 265/18/9 138/258/9 137/261/9
f 264/16/8 137/261/8 136/263/8
f 263/14/7 136/263/7 135/265/7
f 262/12/6 135/265/6 134/267/6
f 261/10/5 134/267/5 133/269/5
f 260/7/4 133/269/4 132/271/4
f 259/8/3 132/271/3 131/273/3
f 258/2/2 131/318/2 130/275/2
f 257/3/1 130/275/1 129/278/1
f 2/1/1 4/4/1 258/2/1
f 4/4/2 6/319/2 259/5/2
f 6/6/3 8/9/3 260/7/3
f 8/9/4 10/11/4 261/10/4
f 10/11/5 12/13/5 262/12/5
f 12/13/6 14/15/6 263/14/6
f 14/15/7 16/17/7 264/16/7
f 16/17/8 18/19/8 265/18/8
f 18/19/9 20/21/9 266/20/9
f 20/21/10 22/320/10 267/22/10
f 22/23/11 24/26/11 268/24/11
f 24/26/12 26/28/12 269/27/12
f 26/28/13 28/30/13 270/29/13
f 28/30/14 30/32/14 271/31/14
f 30/32/15 32/34/15 272/33/15
f 32/34/16 34/36/16 273/35/16
f 34/36/17 36/38/17 274/37/17
f 36/38/18 38/321/18 275/39/18
f 38/40/19 40/43/19 276/41/19
f 40/43/20 42/45/20 277/44/20
f 42/45/21 44/47/21 278/46/21
f 44/47/22 46/49/22 279/48/22
f 46/49/23 48/51/23 280/50/23
f 48/51/24 50/53/24 281/52/24
f 50/53/25 52/55/25 282/54/25
f 52/55/26 54/312/26 283/56/26
f 54/57/27 56/60/27 284/58/27
f 56/60/28 58/62/28 285/61/28
f 58/62/29 60/64/29 286/63/29
f 60/64/30 62/69/30 287/65/30
f 6/68/31 4/322/31 2/323/31
f 2/323/31 64/324/31 6/68/31
f 64/324/31 62/325/31 6/68/31
f 62/325/31 60/326/31 58/327/31
f 58/327/31 56/328/31 54/329/31
f 54/329/31 52/330/31 50/331/31
f 50/331/31 48/332/31 54/329/31
f 48/332/31 46/333/31 54/329/31
f 46/333/31 44/334/31 42/335/31
f 42/335/31 40/336/31 38/66/31
f 38/66/31 36/337/31 30/338/31
f 36/337/31 34/339/31 30/338/31
f 34/339/31 32/340/31 30/338/31
f 30/338/31 28/341/31 26/342/31
f 26/342/31 24/343/31 22/67/31
f 22/67/31 20/344/31 14/345/31
f 20/344/35 18/346/35 14/345/35
f 18/346/31 16/347/31 14/345/31
f 14/345/31 12/348/31 10/349/31
f 10/349/31 8/350/31 6/68/31
f 62/325/31 58/327/31 6/68/31
f 58/327/31 54/329/31 6/68/31
f 46/333/31 42/335/31 54/329/31
f 42/335/31 38/66/31 54/329/31
f 30/338/31 26/342/31 38/66/31
f 26/342/31 22/67/31 38/66/31
f 14/345/31 10/349/31 22/67/31
f 10/349/31 6/68/31 22/67/31
f 6/68/31 54/329/31 38/66/31
f 62/69/32 64/71/32 288/70/32
f 64/71/33 2/1/33 257/3/33
f 63/74/34 1/351/34 3/352/34
f 3/352/34 5/353/34 7/354/34
f 7/354/34 9/355/34 11/356/34
f 11/356/34 13/357/34 15/358/34
f 15/358/34 17/359/34 19/360/34
f 19/360/34 21/361/34 23/362/34
f 23/362/34 25/363/34 27/364/34
f 27/364/34 29/365/34 31/72/34
f 31/72/34 33/366/34 35/367/34
f 35/367/34 37/368/34 39/369/34
f 39/369/34 41/370/34 43/371/34
f 43/371/34 45/372/34 47/73/34
f 47/73/34 49/373/34 51/374/34
f 51/374/34 53/375/34 55/376/34
f 55/376/34 57/377/34 59/378/34
f 59/378/34 61/379/34 63/74/34
f 63/74/34 3/352/34 15/358/34
f 3/352/34 7/354/34 15/358/34
f 7/354/34 11/356/34 15/358/34
f 15/358/34 19/360/34 31/72/34
f 19/360/34 23/362/34 31/72/34
f 23/362/34 27/364/34 31/72/34
f 31/72/34 35/367/34 47/73/34
f 35/367/34 39/369/34 47/73/34
f 39/369/34 43/371/34 47/73/34
f 47/73/34 51/374/34 63/74/34
f 51/374/34 55/376/34 63/74/34
f 55/376/34 59/378/34 63/74/34
f 63/74/34 15/358/34 31/72/34
f 96/75/33 65/142/33 193/76/33
f 95/78/32 96/75/32 224/77/32
f 94/80/30 95/78/30 223/79/30
f 93/82/29 94/80/29 222/81/29
f 92/84/28 93/82/28 221/83/28
f 91/86/27 92/84/27 220/85/27
f 90/88/26 91/282/26 219/89/26
f 89/91/25 90/88/25 218/90/25
f 88/93/24 89/91/24 217/92/24
f 87/95/23 88/93/23 216/94/23
f 86/97/22 87/95/22 215/96/22
f 85/99/21 86/97/21 214/98/21
f 84/101/20 85/99/20 213/100/20
f 83/103/19 84/101/19 212/102/19
f 82/105/18 83/281/18 211/106/18
f 81/108/17 82/105/17 210/107/17
f 80/110/16 81/108/16 209/109/16
f 79/112/15 80/110/15 208/111/15
f 78/114/14 79/112/14 207/113/14
f 77/116/13 78/114/13 206/115/13
f 76/118/12 77/116/12 205/117/12
f 75/120/11 76/118/11 204/119/11
f 74/122/10 75/280/10 203/123/10
f 73/125/9 74/122/9 202/124/9
f 72/127/8 73/125/8 201/126/8
f 71/129/7 72/127/7 200/128/7
f 70/131/6 71/129/6 199/130/6
f 69/133/5 70/131/5 198/132/5
f 68/135/4 69/133/4 197/134/4
f 67/137/3 68/135/3 196/136/3
f 66/139/2 67/279/2 195/140/2
f 65/142/1 66/139/1 194/141/1
f 128/143/1 97/146/1 225/144/1
f 97/146/2 98/283/2 226/147/2
f 98/148/3 99/151/3 227/149/3
f 99/151/4 100/153/4 228/152/4
f 100/153/5 101/155/5 229/154/5
f 101/155/6 102/157/6 230/156/6
f 102/157/7 103/159/7 231/158/7
f 103/159/8 104/161/8 232/160/8
f 104/161/9 105/163/9 233/162/9
f 105/163/10 106/284/10 234/164/10
f 106/165/11 107/168/11 235/166/11
f 107/168/12 108/170/12 236/169/12
f 108/170/13 109/172/13 237/171/13
f 109/172/14 110/174/14 238/173/14
f 110/174/15 111/176/15 239/175/15
f 111/176/16 112/178/16 240/177/16
f 112/178/17 113/180/17 241/179/17
f 113/180/18 114/285/18 242/181/18
f 114/182/19 115/185/19 243/183/19
f 115/185/20 116/187/20 244/186/20
f 116/187/21 117/189/21 245/188/21
f 117/189/22 118/191/22 246/190/22
f 118/191/23 119/193/23 247/192/23
f 119/193/24 120/195/24 248/194/24
f 120/195/25 121/197/25 249/196/25
f 121/197/26 122/286/26 250/198/26
f 122/199/27 123/202/27 251/200/27
f 123/202/28 124/204/28 252/203/28
f 124/204/29 125/206/29 253/205/29
f 125/206/30 126/208/30 254/207/30
f 126/208/32 127/210/32 255/209/32
f 127/210/33 128/143/33 256/145/33
f 160/211/33 129/278/33 192/212/33
f 159/214/32 160/211/32 191/213/32
f 158/216/30 159/214/30 190/215/30
f 157/218/29 158/216/29 189/217/29
f 156/220/28 157/218/28 188/219/28
f 155/222/27 156/220/27 187/221/27
f 154/224/26 155/315/26 186/225/26
f 153/227/25 154/224/25 185/226/25
f 152/229/24 153/227/24 184/228/24
f 151/231/23 152/229/23 183/230/23
f 150/233/22 151/231/22 182/232/22
f 149/235/21 150/233/21 181/234/21
f 148/237/20 149/235/20 180/236/20
f 147/239/19 148/237/19 179/238/19
f 146/241/18 147/316/18 178/242/18
f 145/244/17 146/241/17 177/243/17
f 144/246/16 145/244/16 176/245/16
f 143/248/15 144/246/15 175/247/15
f 142/250/14 143/248/14 174/249/14
f 141/252/13 142/250/13 173/251/13
f 140/254/12 141/252/12 172/253/12
f 139/256/11 140/254/11 171/255/11
f 138/258/10 139/317/10 170/259/10
f 137/261/9 138/258/9 169/260/9
f 136/263/8 137/261/8 168/262/8
f 135/265/7 136/263/7 167/264/7
f 134/267/6 135/265/6 166/266/6
f 133/269/5 134/267/5 165/268/5
f 132/271/4 133/269/4 164/270/4
f 131/273/3 132/271/3 163/272/3
f 130/275/2 131/318/2 162/276/2
f 129/278/1 130/275/1 161/277/1
f 192/212/1 161/277/1 66/139/1
f 161/277/2 162/276/2 67/279/2
f 162/274/3 163/272/3 68/135/3
f 163/272/4 164/270/4 69/133/4
f 164/270/5 165/268/5 70/131/5
f 165/268/6 166/266/6 71/129/6
f 166/266/7 167/264/7 72/127/7
f 167/264/8 168/262/8 73/125/8
f 168/262/9 169/260/9 74/122/9
f 169/260/10 170/259/10 75/280/10
f 170/257/11 171/255/11 76/118/11
f 171/255/12 172/253/12 77/116/12
f 172/253/13 173/251/13 78/114/13
f 173/251/14 174/249/14 79/112/14
f 174/249/15 175/247/15 80/110/15
f 175/247/16 176/245/16 81/108/16
f 176/245/17 177/243/17 82/105/17
f 177/243/18 178/242/18 83/281/18
f 178/240/19 179/238/19 84/101/19
f 179/238/20 180/236/20 85/99/20
f 180/236/21 181/234/21 86/97/21
f 181/234/22 182/232/22 87/95/22
f 182/232/23 183/230/23 88/93/23
f 183/230/24 184/228/24 89/91/24
f 184/228/25 185/226/25 90/88/25
f 185/226/26 186/225/26 91/282/26
f 186/223/27 187/221/27 92/84/27
f 187/221/28 188/219/28 93/82/28
f 188/219/29 189/217/29 94/80/29
f 189/217/30 190/215/30 95/78/30
f 190/215/32 191/213/32 96/75/32
f 191/213/33 192/212/33 65/142/33
f 193/76/1 194/141/1 97/146/1
f 194/141/2 195/140/2 98/283/2
f 195/138/3 196/136/3 99/151/3
f 196/136/4 197/134/4 100/153/4
f 197/134/5 198/132/5 101/155/5
f 198/132/6 199/130/6 102/157/6
f 199/130/7 200/128/7 103/159/7
f 200/128/8 201/126/8 104/161/8
f 201/126/9 202/124/9 105/163/9
f 202/124/10 203/123/10 106/284/10
f 203/121/11 204/119/11 107/168/11
f 204/119/12 205/117/12 108/170/12
f 205/117/13 206/115/13 109/172/13
f 206/115/14 207/113/14 110/174/14
f 207/113/15 208/111/15 111/176/15
f 208/111/16 209/109/16 112/178/16
f 209/109/17 210/107/17 113/180/17
f 210/107/18 211/106/18 114/285/18
f 211/104/19 212/102/19 115/185/19
f 212/102/20 213/100/20 116/187/20
f 213/100/21 214/98/21 117/189/21
f 214/98/22 215/96/22 118/191/22
f 215/96/23 216/94/23 119/193/23
f 216/94/24 217/92/24 120/195/24
f 217/92/25 218/90/25 121/197/25
f 218/90/26 219/89/26 122/286/26
f 219/87/27 220/85/27 123/202/27
f 220/85/28 221/83/28 124/204/28
f 221/83/29 222/81/29 125/206/29
f 222/81/30 223/79/30 126/208/30
f 223/79/32 224/77/32 127/210/32
f 224/77/33 193/76/33 128/143/33
f 255/209/33 256/145/33 1/287/33
f 254/207/32 255/209/32 63/288/32
f 253/205/30 254/207/30 61/289/30
f 252/203/29 253/205/29 59/290/29
f 251/200/28 252/203/28 57/291/28
f 250/201/27 251/200/27 55/292/27
f 249/196/26 250/198/26 53/294/26
f 248/194/25 249/196/25 51/295/25
f 247/192/24 248/194/24 49/296/24
f 246/190/23 247/192/23 47/297/23
f 245/188/22 246/190/22 45/298/22
f 244/186/21 245/188/21 43/299/21
f 243/183/20 244/186/20 41/300/20
f 242/184/19 243/183/19 39/301/19
f 241/179/18 242/181/18 37/303/18
f 240/177/17 241/179/17 35/304/17
f 239/175/16 240/177/16 33/305/16
f 238/173/15 239/175/15 31/306/15
f 237/171/14 238/173/14 29/307/14
f 236/169/13 237/171/13 27/308/13
f 235/166/12 236/169/12 25/309/12
f 234/167/11 235/166/11 23/310/11
f 233/162/10 234/164/10 21/312/10
f 232/160/9 233/162/9 19/55/9
f 231/158/8 232/160/8 17/53/8
f 230/156/7 231/158/7 15/51/7
f 229/154/6 230/156/6 13/49/6
f 228/152/5 229/154/5 11/47/5
f 227/149/4 228/152/4 9/45/4
f 226/150/3 227/149/3 7/43/3
f 225/144/2 226/147/2 5/313/2
f 256/145/1 225/144/1 3/314/1
f 288/70/33 257/3/33 129/278/33
f 287/65/32 288/70/32 160/211/32
f 286/63/30 287/65/30 159/214/30
f 285/61/29 286/63/29 158/216/29
f 284/58/28 285/61/28 157/218/28
f 283/59/27 284/58/27 156/220/27
f 282/54/26 283/56/26 155/315/26
f 281/52/25 282/54/25 154/224/25
f 280/50/24 281/52/24 153/227/24
f 279/48/23 280/50/23 152/229/23
f 278/46/22 279/48/22 151/231/22
f 277/44/21 278/46/21 150/233/21
f 276/41/20 277/44/20 149/235/20
f 275/42/19 276/41/19 148/237/19
f 274/37/18 275/39/18 147/316/18
f 273/35/17 274/37/17 146/241/17
f 272/33/16 273/35/16 145/244/16
f 271/31/15 272/33/15 144/246/15
f 270/29/14 271/31/14 143/248/14
f 269/27/13 270/29/13 142/250/13
f 268/24/12 269/27/12 141/252/12
f 267/25/11 268/24/11 140/254/11
f 266/20/10 267/22/10 139/317/10
f 265/18/9 266/20/9 138/258/9
f 264/16/8 265/18/8 137/261/8
f 263/14/7 264/16/7 136/263/7
f 262/12/6 263/14/6 135/265/6
f 261/10/5 262/12/5 134/267/5
f 260/7/4 261/10/4 133/269/4
f 259/8/3 260/7/3 132/271/3
f 258/2/2 259/5/2 131/318/2
f 257/3/1 258/2/1 130/275/1
