# Blender 4.5.3 LTS
# www.blender.org
o C3_BASE
v -17.076872 37.500000 10.000000
v -10.581681 33.750000 10.000000
v -17.076872 37.500000 11.000000
v -12.009002 31.758179 10.000000
v -17.647800 36.703270 10.000000
v -12.009002 31.758179 11.000000
v -17.647800 36.703270 11.000000
v -18.363194 36.033234 10.000000
v -19.195557 35.515636 10.000000
v -19.195557 35.515636 11.000000
v -15.878389 28.789091 11.000000
v -20.112904 35.170372 10.000000
v -20.112904 35.170372 11.000000
v -20.589458 27.526764 10.000000
v -21.079983 35.010704 10.000000
v -20.589458 27.526764 11.000000
v -21.079983 35.010704 11.000000
v -22.059629 35.042778 10.000000
v -22.059629 35.042778 11.000000
v -23.014196 35.265350 11.000000
v -25.424992 28.163372 11.000000
v -23.907000 35.669872 10.000000
v -27.656998 29.174683 11.000000
v -23.907000 35.669872 11.000000
v -24.703728 36.240799 10.000000
v -29.648821 30.602001 10.000000
v -24.703728 36.240799 11.000000
v -25.373766 36.956192 10.000000
v -9.332928 43.235241 10.000000
v -25.373766 36.956192 11.000000
v -8.933764 40.817539 10.000000
v -25.891363 37.788555 10.000000
v -25.891363 37.788555 11.000000
v -26.236629 38.705906 10.000000
v -26.236629 38.705906 11.000000
v -26.396294 39.672985 10.000000
v -26.396294 39.672985 11.000000
v -20.508228 49.687298 11.000000
v -26.364223 40.652630 10.000000
v -26.364223 40.652630 11.000000
v -30.489752 43.432137 11.000000
v -25.737127 42.500000 10.000000
v -20.096821 37.906116 10.000000
v -25.737127 42.500000 11.000000
v -24.450806 43.966766 10.000000
v -23.618443 44.484364 10.000000
v -21.734016 44.989296 11.000000
v -19.799803 44.734650 10.000000
v -19.799803 44.734650 11.000000
v -18.907000 44.330128 10.000000
v -18.907000 44.330128 11.000000
v -18.110271 43.759201 10.000000
v -18.110271 43.759201 11.000000
v -17.440233 43.043808 10.000000
v -17.440233 43.043808 11.000000
v -16.922636 42.211445 10.000000
v -16.922636 42.211445 11.000000
v -16.577370 41.294094 10.000000
v -16.577370 41.294094 11.000000
v -16.417706 40.327015 10.000000
v -16.417706 40.327015 11.000000
v -16.449776 39.347370 10.000000
v -16.672348 38.392803 10.000000
v -16.672348 38.392803 11.000000
v -19.605932 35.361183 10.000000
v -23.350832 35.417877 11.000000
v -16.437651 39.717743 10.000000
v -16.571444 38.825565 10.000000
v -17.349463 38.622650 10.000000
v -18.120733 38.884464 10.000000
v -20.426807 35.149796 11.000000
v -21.931705 36.503036 11.000000
v -19.849751 37.970554 11.000000
v -10.581681 33.750000 11.000000
v -13.797482 30.083084 10.000000
v -13.797482 30.083084 11.000000
v -15.878389 28.789091 10.000000
v -18.171761 27.925928 10.000000
v -18.171761 27.925928 11.000000
v -23.038576 27.606939 10.000000
v -23.038576 27.606939 11.000000
v -25.424992 28.163372 10.000000
v -27.656998 29.174683 10.000000
v -29.648821 30.602001 11.000000
v -9.332928 43.235241 11.000000
v -8.933764 40.817539 11.000000
v -9.013939 38.368423 10.000000
v -9.013939 38.368423 11.000000
v -9.570373 35.982010 11.000000
v -20.339674 44.860531 11.000000
v -16.449776 39.347370 11.000000
v -16.571444 38.825565 11.000000
v -18.363194 36.033234 11.000000
v -18.060513 36.316727 11.000000
v -26.242676 41.173923 11.000000
v -18.959230 35.873528 11.000000
v -18.046213 38.440933 11.000000
v -20.110958 38.310966 11.000000
v -20.096821 37.906116 11.000000
v -9.570373 35.982010 10.000000
v -30.489752 43.432137 10.000000
v -26.242676 41.173923 10.000000
v -23.014196 35.265350 10.000000
v -22.489315 35.142963 10.000000
v -20.508228 49.687302 10.000000
v -20.339674 44.860531 10.000000
v -21.913252 35.808273 10.000000
v -26.141651 41.607197 11.000000
v -26.141651 41.607197 10.000000
v -25.166199 43.296730 10.000000
v -25.166199 43.296730 11.000000
v -24.450806 43.966766 11.000000
v -23.618443 44.484364 11.000000
v -22.701096 44.829628 10.000000
v -22.701096 44.829628 11.000000
v -21.734016 44.989296 10.000000
v -20.754370 44.957222 10.000000
v -20.754370 44.957222 11.000000
vn 0.8128 -0.5825 -0.0000
vn 0.6836 -0.7299 -0.0000
vn 0.5281 -0.8492 -0.0000
vn 0.3522 -0.9359 -0.0000
vn 0.1629 -0.9866 -0.0000
vn -0.0327 -0.9995 -0.0000
vn -0.2271 -0.9739 -0.0000
vn -0.4127 -0.9109 -0.0000
vn -0.5825 -0.8128 -0.0000
vn 0.9866 0.1629 -0.0000
vn 0.9995 -0.0327 -0.0000
vn -0.0000 -0.0000 1.0000
vn 0.9739 -0.2271 -0.0000
vn 0.9109 -0.4127 -0.0000
vn -0.0000 -0.0000 -1.0000
vn -0.9979 -0.0654 -0.0000
vn 0.5000 0.8660 -0.0000
vn 0.4695 0.8829 -0.0000
vn -0.9994 -0.0349 -0.0000
vn -0.9739 0.2271 -0.0000
vn -0.9109 0.4127 -0.0000
vn -0.8128 0.5825 -0.0000
vn -0.6836 0.7299 -0.0000
vn -0.5281 0.8492 -0.0000
vn -0.3523 0.9359 -0.0000
vn -0.1629 0.9866 -0.0000
vn 0.0327 0.9995 -0.0000
vn 0.2271 0.9739 -0.0000
vn 0.3523 -0.9359 -0.0000
vt 0.146658 0.898258
vt 0.176090 0.928465
vt 0.146658 0.928465
vt 0.176090 0.898258
vt 0.202233 0.928465
vt 0.202233 0.898258
vt 0.224081 0.928465
vt 0.224081 0.898258
vt 0.248418 0.928465
vt 0.248418 0.898258
vt 0.276513 0.928465
vt 0.276513 0.898258
vt 0.307285 0.928465
vt 0.307285 0.898258
vt 0.339552 0.928465
vt 0.339552 0.898258
vt 0.372074 0.928465
vt 0.372074 0.898258
vt 0.403601 0.928465
vt 0.019614 0.898258
vt 0.050300 0.928465
vt 0.019614 0.928465
vt 0.050300 0.898258
vt 0.082530 0.928465
vt 0.554513 0.261801
vt 0.468372 0.195267
vt 0.479141 0.186429
vt 0.462288 0.195632
vt 0.442806 0.169770
vt 0.445354 0.167187
vt 0.499104 0.144817
vt 0.494545 0.163375
vt 0.475663 0.154573
vt 0.082530 0.898258
vt 0.115066 0.928465
vt 0.115066 0.898258
vt 0.163790 0.205877
vt 0.109668 0.300312
vt 0.150459 0.201833
vt 0.189534 0.195910
vt 0.187276 0.184556
vt 0.209492 0.199351
vt 0.122463 0.159737
vt 0.107957 0.122318
vt 0.161192 0.167187
vt 0.177653 0.207243
vt 0.738922 0.928465
vt 0.738922 0.898258
vt 0.573060 0.898258
vt 0.403601 0.898258
vt 0.573060 0.928465
vt 0.801057 0.928465
vt 0.738922 0.928465
vt 0.861468 0.898258
vt 0.801057 0.928465
vt 0.801057 0.898258
vt 0.867362 0.928465
vt 0.861467 0.898258
vt 0.867362 0.898258
vt 0.880307 0.928465
vt 0.880307 0.898258
vt 0.892713 0.928465
vt 0.892713 0.898258
vt 0.904103 0.928465
vt 0.904103 0.898258
vt 0.914038 0.928465
vt 0.914038 0.898258
vt 0.924719 0.928465
vt 0.914038 0.928465
vt 0.924719 0.898258
vt 0.936651 0.928465
vt 0.936651 0.898258
vt 0.949375 0.928465
vt 0.949375 0.898258
vt 0.955035 0.928465
vt 0.448807 0.068321
vt 0.440472 0.164136
vt 0.110181 0.157375
vt 0.107957 0.150045
vt 0.450447 0.203544
vt 0.456087 0.201833
vt 0.408986 0.204044
vt 0.401699 0.201833
vt 0.424200 0.188625
vt 0.245062 0.114779
vt 0.236739 0.096702
vt 0.593023 0.204166
vt 0.576606 0.234880
vt 0.481625 0.182712
vt 0.498589 0.150045
vt 0.603133 0.170840
vt 0.527592 0.283895
vt 0.496878 0.300312
vt 0.428893 0.207243
vt 0.463551 0.310421
vt 0.428893 0.313835
vt 0.415029 0.205877
vt 0.394234 0.310421
vt 0.360908 0.300312
vt 0.330194 0.283895
vt 0.303273 0.261801
vt 0.389413 0.195267
vt 0.303273 0.078404
vt 0.359197 0.150045
vt 0.361484 0.114779
vt 0.359197 0.122318
vt 0.357832 0.136181
vt 0.442756 0.205877
vt 0.606546 0.136181
vt 0.603132 0.101523
vt 0.498589 0.122318
vt 0.494545 0.108987
vt 0.451193 -0.000000
vt 0.456087 0.070529
vt 0.479141 0.085933
vt 0.468372 0.077096
vt 0.499954 0.136181
vt 0.363241 0.163375
vt 0.369808 0.175661
vt 0.487978 0.096702
vt 0.378645 0.186429
vt 0.487978 0.175661
vt 0.276352 0.283895
vt 0.245638 0.300312
vt 0.212312 0.310421
vt 0.197560 0.204044
vt 0.191517 0.205877
vt 0.177653 0.313835
vt 0.142995 0.310421
vt 0.078954 0.283895
vt 0.052033 0.261801
vt 0.133356 0.191313
vt 0.029940 0.234880
vt 0.127405 0.186429
vt 0.138174 0.195267
vt 0.013523 0.204166
vt 0.112001 0.163375
vt 0.003414 0.170840
vt 0.106592 0.136181
vt 0.000000 0.136181
vt 0.003414 0.101523
vt 0.112001 0.108987
vt 0.155353 -0.000000
vt 0.127405 0.085933
vt 0.157739 0.068321
vt 0.150459 0.070529
vt 0.138174 0.077096
vt 0.303273 0.078404
vt 0.303273 0.261801
vt 0.247349 0.150045
vt 0.227901 0.186429
vt 0.248715 0.136181
vt 0.247349 0.122318
vt 0.243305 0.163375
vt 0.236739 0.175661
vt 0.118568 0.096702
vt 0.217133 0.195267
vt 0.204847 0.201833
vt 0.118568 0.175661
vt 0.861468 0.928465
vt 0.861467 0.928465
vt 0.955035 0.898258
vt 0.363241 0.108987
vt 0.369808 0.096702
vt 0.378645 0.085933
vt 0.389413 0.077096
vt 0.401699 0.070529
vt 0.415029 0.066485
vt 0.428893 0.065120
vt 0.442756 0.066485
vt 0.177653 0.065120
vt 0.163790 0.066485
vt 0.191517 0.066485
vt 0.204847 0.070529
vt 0.217133 0.077096
vt 0.227901 0.085933
vt 0.243305 0.108987
s 0
g off
f 74/1/1 4/2/1 2/3/1
f 6/4/2 75/5/2 4/2/2
f 76/6/3 77/7/3 75/5/3
f 11/8/4 78/9/4 77/7/4
f 79/10/5 14/11/5 78/9/5
f 16/12/6 80/13/6 14/11/6
f 81/14/7 82/15/7 80/13/7
f 21/16/8 83/17/8 82/15/8
f 23/18/9 26/19/9 83/17/9
f 85/20/10 31/21/10 29/22/10
f 86/23/11 87/24/11 31/21/11
f 79/25/12 10/26/12 13/27/12
f 96/28/12 73/29/12 99/30/12
f 66/31/12 19/32/12 72/33/12
f 88/34/13 100/35/13 87/24/13
f 89/36/14 2/3/14 100/35/14
f 5/37/15 75/38/15 8/39/15
f 69/40/15 70/41/15 67/42/15
f 107/43/15 25/44/15 43/45/15
f 70/41/15 69/40/15 1/46/15
f 26/47/16 84/48/16 41/49/16
f 85/50/17 29/19/17 105/51/17
f 41/48/18 102/52/18 101/53/18
f 38/54/19 106/55/19 90/56/19
f 109/57/20 95/58/20 108/59/20
f 108/59/21 42/60/21 109/57/21
f 44/61/22 110/62/22 42/60/22
f 111/63/23 45/64/23 110/62/23
f 112/65/24 46/66/24 45/64/24
f 113/67/25 114/68/25 46/69/25
f 115/70/26 116/71/26 114/68/26
f 47/72/27 117/73/27 116/71/27
f 118/74/28 106/75/28 117/73/28
f 95/76/12 99/30/12 98/77/12
f 104/78/15 103/79/15 107/43/15
f 94/80/12 96/28/12 93/81/12
f 92/82/12 91/83/12 97/84/12
f 106/85/15 43/45/15 116/86/15
f 98/77/12 99/30/12 73/29/12
f 74/1/1 6/4/1 4/2/1
f 6/4/2 76/6/2 75/5/2
f 76/6/3 11/8/3 77/7/3
f 11/8/29 79/10/29 78/9/29
f 79/10/5 16/12/5 14/11/5
f 16/12/6 81/14/6 80/13/6
f 81/14/7 21/16/7 82/15/7
f 21/16/8 23/18/8 83/17/8
f 23/18/9 84/50/9 26/19/9
f 85/20/10 86/23/10 31/21/10
f 86/23/11 88/34/11 87/24/11
f 81/87/12 16/88/12 19/32/12
f 16/88/12 79/25/12 71/89/12
f 20/90/12 21/91/12 81/87/12
f 79/25/12 11/92/12 10/26/12
f 11/92/12 76/93/12 93/81/12
f 3/94/12 6/95/12 74/96/12
f 76/93/12 6/95/12 94/80/12
f 64/97/12 74/96/12 89/98/12
f 89/98/12 88/99/12 92/82/12
f 88/99/12 86/100/12 91/83/12
f 86/100/12 85/101/12 61/102/12
f 88/99/12 91/83/12 92/82/12
f 85/101/12 38/103/12 53/104/12
f 38/103/12 90/105/12 49/106/12
f 38/103/12 49/106/12 51/107/12
f 89/98/12 92/82/12 64/97/12
f 6/95/12 3/94/12 7/108/12
f 74/96/12 64/97/12 3/94/12
f 21/91/12 20/90/12 66/31/12
f 66/31/12 23/109/12 21/91/12
f 84/110/12 23/109/12 27/111/12
f 84/110/12 27/111/12 30/112/12
f 95/76/12 41/113/12 40/114/12
f 41/113/12 84/110/12 35/115/12
f 40/114/12 41/113/12 37/116/12
f 37/116/12 41/113/12 35/115/12
f 23/109/12 66/31/12 24/117/12
f 38/103/12 51/107/12 53/104/12
f 85/101/12 53/104/12 55/118/12
f 85/101/12 55/118/12 57/119/12
f 33/120/12 35/115/12 84/110/12
f 30/112/12 33/120/12 84/110/12
f 85/101/12 57/119/12 59/121/12
f 85/101/12 59/121/12 61/102/12
f 27/111/12 23/109/12 24/117/12
f 61/102/12 91/83/12 86/100/12
f 20/90/12 81/87/12 19/32/12
f 6/95/12 7/108/12 94/80/12
f 19/32/12 16/88/12 17/122/12
f 17/122/12 16/88/12 71/89/12
f 76/93/12 94/80/12 93/81/12
f 11/92/12 93/81/12 10/26/12
f 13/27/12 71/89/12 79/25/12
f 99/30/12 95/76/12 40/114/12
f 40/114/12 37/116/12 99/30/12
f 37/116/12 35/115/12 72/33/12
f 99/30/12 37/116/12 72/33/12
f 35/115/12 33/120/12 72/33/12
f 33/120/12 30/112/12 72/33/12
f 30/112/12 27/111/12 72/33/12
f 27/111/12 24/117/12 72/33/12
f 24/117/12 66/31/12 72/33/12
f 72/33/12 19/32/12 17/122/12
f 17/122/12 71/89/12 72/33/12
f 71/89/12 13/27/12 99/30/12
f 13/27/12 10/26/12 96/28/12
f 10/26/12 93/81/12 96/28/12
f 96/28/12 94/80/12 73/29/12
f 94/80/12 7/108/12 97/84/12
f 73/29/12 94/80/12 97/84/12
f 7/108/12 3/94/12 97/84/12
f 3/94/12 64/97/12 97/84/12
f 64/97/12 92/82/12 97/84/12
f 97/84/12 91/83/12 61/102/12
f 61/102/12 59/121/12 97/84/12
f 59/121/12 57/119/12 97/84/12
f 57/119/12 55/118/12 98/77/12
f 55/118/12 53/104/12 98/77/12
f 53/104/12 51/107/12 98/77/12
f 51/107/12 49/106/12 98/77/12
f 49/106/12 90/105/12 98/77/12
f 98/77/12 73/29/12 97/84/12
f 13/27/12 96/28/12 99/30/12
f 97/84/12 57/119/12 98/77/12
f 72/33/12 71/89/12 99/30/12
f 66/31/12 20/90/12 19/32/12
f 88/34/13 89/36/13 100/35/13
f 89/36/14 74/1/14 2/3/14
f 31/123/15 87/124/15 67/42/15
f 87/124/15 100/125/15 68/126/15
f 68/126/15 100/125/15 63/127/15
f 100/125/15 2/128/15 63/127/15
f 2/128/15 4/129/15 1/46/15
f 63/127/15 2/128/15 1/46/15
f 4/129/15 75/38/15 5/37/15
f 75/38/15 77/130/15 8/39/15
f 4/129/15 5/37/15 1/46/15
f 77/130/15 78/131/15 65/132/15
f 78/131/15 14/133/15 12/134/15
f 77/130/15 9/135/15 8/39/15
f 14/133/15 80/136/15 18/137/15
f 80/136/15 82/138/15 104/78/15
f 103/79/15 82/138/15 22/139/15
f 82/138/15 83/140/15 22/139/15
f 83/140/15 26/141/15 25/44/15
f 25/44/15 26/141/15 28/142/15
f 26/141/15 101/143/15 34/144/15
f 101/143/15 102/145/15 39/146/15
f 101/143/15 39/146/15 36/147/15
f 82/138/15 103/79/15 104/78/15
f 9/135/15 77/130/15 65/132/15
f 105/148/15 29/149/15 52/150/15
f 29/149/15 31/123/15 58/151/15
f 105/148/15 52/150/15 50/152/15
f 48/153/15 106/85/15 105/148/15
f 50/152/15 48/153/15 105/148/15
f 101/143/15 36/147/15 34/144/15
f 52/150/15 29/149/15 54/154/15
f 54/154/15 29/149/15 56/155/15
f 26/141/15 34/144/15 32/156/15
f 26/141/15 32/156/15 28/142/15
f 56/155/15 29/149/15 58/151/15
f 83/140/15 25/44/15 22/139/15
f 60/157/15 58/151/15 31/123/15
f 104/78/15 18/137/15 80/136/15
f 67/42/15 60/157/15 31/123/15
f 62/158/15 67/42/15 87/124/15
f 14/133/15 18/137/15 15/159/15
f 68/126/15 62/158/15 87/124/15
f 14/133/15 15/159/15 12/134/15
f 12/134/15 65/132/15 78/131/15
f 67/42/15 62/158/15 69/40/15
f 62/158/15 68/126/15 69/40/15
f 65/132/15 12/134/15 43/45/15
f 12/134/15 15/159/15 107/43/15
f 43/45/15 12/134/15 107/43/15
f 15/159/15 18/137/15 107/43/15
f 18/137/15 104/78/15 107/43/15
f 107/43/15 103/79/15 22/139/15
f 39/146/15 102/145/15 43/45/15
f 34/144/15 36/147/15 43/45/15
f 36/147/15 39/146/15 43/45/15
f 28/142/15 32/156/15 43/45/15
f 32/156/15 34/144/15 43/45/15
f 22/139/15 25/44/15 107/43/15
f 25/44/15 28/142/15 43/45/15
f 68/126/15 63/127/15 69/40/15
f 63/127/15 1/46/15 69/40/15
f 1/46/15 5/37/15 70/41/15
f 5/37/15 8/39/15 43/45/15
f 70/41/15 5/37/15 43/45/15
f 8/39/15 9/135/15 43/45/15
f 9/135/15 65/132/15 43/45/15
f 43/45/15 106/85/15 48/153/15
f 50/152/15 43/45/15 48/153/15
f 50/152/15 52/150/15 70/41/15
f 52/150/15 54/154/15 70/41/15
f 54/154/15 56/155/15 70/41/15
f 56/155/15 58/151/15 70/41/15
f 58/151/15 60/157/15 70/41/15
f 60/157/15 67/42/15 70/41/15
f 43/45/15 50/152/15 70/41/15
f 26/47/16 41/49/16 101/51/16
f 85/50/17 105/51/17 38/49/17
f 41/48/18 95/56/18 102/52/18
f 38/54/19 105/160/19 106/55/19
f 109/57/20 102/161/20 95/58/20
f 108/59/21 44/61/21 42/60/21
f 44/61/22 111/63/22 110/62/22
f 111/63/23 112/65/23 45/64/23
f 112/65/24 113/67/24 46/66/24
f 113/67/25 115/70/25 114/68/25
f 115/70/26 47/72/26 116/71/26
f 47/72/27 118/74/27 117/73/27
f 118/74/28 90/162/28 106/75/28
f 90/105/12 118/163/12 98/77/12
f 118/163/12 47/164/12 98/77/12
f 47/164/12 115/165/12 98/77/12
f 115/165/12 113/166/12 98/77/12
f 113/166/12 112/167/12 98/77/12
f 112/167/12 111/168/12 98/77/12
f 111/168/12 44/169/12 98/77/12
f 44/169/12 108/170/12 98/77/12
f 108/170/12 95/76/12 98/77/12
f 43/45/15 102/145/15 42/171/15
f 102/145/15 109/172/15 42/171/15
f 42/171/15 110/173/15 43/45/15
f 110/173/15 45/174/15 43/45/15
f 45/174/15 46/175/15 43/45/15
f 46/175/15 114/176/15 43/45/15
f 114/176/15 116/86/15 43/45/15
f 116/86/15 117/177/15 106/85/15
