# Blender 4.5.3 LTS
# www.blender.org
o C3_UW
v -21.407000 45.000000 0.000000
v -21.407000 45.000000 10.000000
v -20.431547 44.903927 0.000000
v -20.431547 44.903927 10.000000
v -19.493582 44.619396 0.000000
v -19.493582 44.619396 10.000000
v -18.629148 44.157349 0.000000
v -18.629148 44.157349 10.000000
v -17.871466 43.535534 0.000000
v -17.871466 43.535534 10.000000
v -17.249651 42.777851 0.000000
v -17.249651 42.777851 10.000000
v -16.787601 41.913418 0.000000
v -16.787601 41.913418 10.000000
v -16.503073 40.975452 0.000000
v -16.503073 40.975452 10.000000
v -16.407000 40.000000 0.000000
v -16.407000 40.000000 10.000000
v -16.503073 39.024548 0.000000
v -16.503073 39.024548 10.000000
v -16.787601 38.086582 0.000000
v -16.787601 38.086582 10.000000
v -17.249651 37.222149 0.000000
v -17.249651 37.222149 10.000000
v -17.871466 36.464466 0.000000
v -17.871466 36.464466 10.000000
v -18.629148 35.842651 0.000000
v -18.629148 35.842651 10.000000
v -19.493582 35.380604 0.000000
v -19.493582 35.380604 10.000000
v -20.431547 35.096073 0.000000
v -20.431547 35.096073 10.000000
v -21.407000 35.000000 0.000000
v -21.407000 35.000000 10.000000
v -22.382452 35.096073 0.000000
v -22.382452 35.096073 10.000000
v -23.320417 35.380604 0.000000
v -23.320417 35.380604 10.000000
v -24.184851 35.842651 0.000000
v -24.184851 35.842651 10.000000
v -24.942533 36.464466 0.000000
v -24.942533 36.464466 10.000000
v -25.564348 37.222149 0.000000
v -25.564348 37.222149 10.000000
v -26.026398 38.086582 0.000000
v -26.026398 38.086582 10.000000
v -26.310926 39.024548 0.000000
v -26.310926 39.024548 10.000000
v -26.407000 40.000000 0.000000
v -26.407000 40.000000 10.000000
v -26.310926 40.975452 0.000000
v -26.310926 40.975452 10.000000
v -26.026398 41.913418 0.000000
v -26.026398 41.913418 10.000000
v -25.564348 42.777851 0.000000
v -25.564348 42.777851 10.000000
v -24.942533 43.535534 0.000000
v -24.942533 43.535534 10.000000
v -24.184851 44.157349 0.000000
v -24.184851 44.157349 10.000000
v -23.320417 44.619396 0.000000
v -23.320417 44.619396 10.000000
v -22.382452 44.903927 0.000000
v -22.382452 44.903927 10.000000
v -21.407000 45.000000 5.000000
v -20.431547 44.903927 5.000000
v -19.493582 44.619396 5.000000
v -18.629148 44.157349 5.000000
v -17.871466 43.535534 5.000000
v -17.249651 42.777851 5.000000
v -16.787601 41.913418 5.000000
v -16.503073 40.975452 5.000000
v -16.407000 40.000000 5.000000
v -16.503073 39.024548 5.000000
v -16.787601 38.086582 5.000000
v -17.249651 37.222149 5.000000
v -17.871466 36.464466 5.000000
v -18.629148 35.842651 5.000000
v -19.493582 35.380604 5.000000
v -20.431547 35.096073 5.000000
v -21.407000 35.000000 5.000000
v -22.382452 35.096073 5.000000
v -23.320417 35.380604 5.000000
v -24.184851 35.842651 5.000000
v -24.942533 36.464466 5.000000
v -25.564348 37.222149 5.000000
v -26.026398 38.086582 5.000000
v -26.310926 39.024548 5.000000
v -26.407000 40.000000 5.000000
v -26.310926 40.975452 5.000000
v -26.026398 41.913418 5.000000
v -25.564348 42.777851 5.000000
v -24.942533 43.535534 5.000000
v -24.184851 44.157349 5.000000
v -23.320417 44.619396 5.000000
v -22.382452 44.903927 5.000000
v -20.431547 44.903927 2.500000
v -19.493582 44.619396 2.500000
v -18.629148 44.157349 2.500000
v -17.871466 43.535534 2.500000
v -17.249651 42.777851 2.500000
v -16.787601 41.913418 2.500000
v -16.503073 40.975452 2.500000
v -16.407000 40.000000 2.500000
v -16.503073 39.024548 2.500000
v -16.787601 38.086582 2.500000
v -17.249651 37.222149 2.500000
v -17.871466 36.464466 2.500000
v -18.629148 35.842651 2.500000
v -19.493582 35.380604 2.500000
v -20.431547 35.096073 2.500000
v -21.407000 35.000000 2.500000
v -22.382452 35.096073 2.500000
v -23.320417 35.380604 2.500000
v -24.184851 35.842651 2.500000
v -24.942533 36.464466 2.500000
v -25.564348 37.222149 2.500000
v -26.026398 38.086582 2.500000
v -26.310926 39.024548 2.500000
v -26.407000 40.000000 2.500000
v -26.310926 40.975452 2.500000
v -26.026398 41.913418 2.500000
v -25.564348 42.777851 2.500000
v -24.942533 43.535534 2.500000
v -24.184851 44.157349 2.500000
v -23.320417 44.619396 2.500000
v -22.382452 44.903927 2.500000
v -21.407000 45.000000 2.500000
v -21.407000 45.000000 7.500000
v -20.431547 44.903927 7.500000
v -19.493582 44.619396 7.500000
v -18.629148 44.157349 7.500000
v -17.871466 43.535534 7.500000
v -17.249651 42.777851 7.500000
v -16.787601 41.913418 7.500000
v -16.503073 40.975452 7.500000
v -16.407000 40.000000 7.500000
v -16.503073 39.024548 7.500000
v -16.787601 38.086582 7.500000
v -17.249651 37.222149 7.500000
v -17.871466 36.464466 7.500000
v -18.629148 35.842651 7.500000
v -19.493582 35.380604 7.500000
v -20.431547 35.096073 7.500000
v -21.407000 35.000000 7.500000
v -22.382452 35.096073 7.500000
v -23.320417 35.380604 7.500000
v -24.184851 35.842651 7.500000
v -24.942533 36.464466 7.500000
v -25.564348 37.222149 7.500000
v -26.026398 38.086582 7.500000
v -26.310926 39.024548 7.500000
v -26.407000 40.000000 7.500000
v -26.310926 40.975452 7.500000
v -26.026398 41.913418 7.500000
v -25.564348 42.777851 7.500000
v -24.942533 43.535534 7.500000
v -24.184851 44.157349 7.500000
v -23.320417 44.619396 7.500000
v -22.382452 44.903927 7.500000
vn 0.0980 0.9952 -0.0000
vn 0.2903 0.9569 -0.0000
vn 0.4714 0.8819 -0.0000
vn 0.6344 0.7730 -0.0000
vn 0.7730 0.6344 -0.0000
vn 0.8819 0.4714 -0.0000
vn 0.9569 0.2903 -0.0000
vn 0.9952 0.0980 -0.0000
vn 0.9952 -0.0980 -0.0000
vn 0.9569 -0.2903 -0.0000
vn 0.8819 -0.4714 -0.0000
vn 0.7730 -0.6344 -0.0000
vn 0.6344 -0.7730 -0.0000
vn 0.4714 -0.8819 -0.0000
vn 0.2903 -0.9569 -0.0000
vn 0.0980 -0.9952 -0.0000
vn -0.0980 -0.9952 -0.0000
vn -0.2903 -0.9569 -0.0000
vn -0.4714 -0.8819 -0.0000
vn -0.6344 -0.7730 -0.0000
vn -0.7730 -0.6344 -0.0000
vn -0.8819 -0.4714 -0.0000
vn -0.9569 -0.2903 -0.0000
vn -0.9952 -0.0980 -0.0000
vn -0.9952 0.0980 -0.0000
vn -0.9569 0.2903 -0.0000
vn -0.8819 0.4714 -0.0000
vn -0.7730 0.6344 -0.0000
vn -0.6344 0.7730 -0.0000
vn -0.4714 0.8819 -0.0000
vn -0.0000 -0.0000 1.0000
vn -0.2903 0.9569 -0.0000
vn -0.0980 0.9952 -0.0000
vn -0.0000 -0.0000 -1.0000
vt 0.414214 0.000000
vt 0.443061 0.104054
vt 0.414214 0.104054
vt 0.443061 0.000000
vt 0.476982 0.104054
vt 0.476982 0.000000
vt 0.514673 0.104054
vt 0.514673 0.000000
vt 0.554686 0.104054
vt 0.554686 0.000000
vt 0.595482 0.104054
vt 0.595482 0.000000
vt 0.635495 0.104054
vt 0.635495 0.000000
vt 0.673186 0.104054
vt 0.673186 0.000000
vt 0.707107 0.104054
vt 0.707107 0.000000
vt 0.735954 0.104054
vt 0.707107 0.104054
vt 0.735954 0.000000
vt 0.769875 0.104054
vt 0.769875 0.000000
vt 0.807566 0.104054
vt 0.807566 0.000000
vt 0.847579 0.104054
vt 0.847579 0.000000
vt 0.888375 0.104054
vt 0.888375 0.000000
vt 0.928388 0.104054
vt 0.928388 0.000000
vt 0.966079 0.104054
vt 0.966079 0.000000
vt 1.000000 0.104054
vt 0.414214 0.416218
vt 0.443061 0.520272
vt 0.414214 0.520272
vt 0.443061 0.416218
vt 0.476982 0.520272
vt 0.476982 0.416218
vt 0.514673 0.520272
vt 0.514673 0.416218
vt 0.554686 0.520272
vt 0.554686 0.416218
vt 0.595482 0.520272
vt 0.595482 0.416218
vt 0.635495 0.520272
vt 0.635495 0.416218
vt 0.673186 0.520272
vt 0.673186 0.416218
vt 0.707107 0.520272
vt 0.707107 0.416218
vt 0.735954 0.520272
vt 0.707107 0.520272
vt 0.735954 0.416218
vt 0.769875 0.520272
vt 0.769875 0.416218
vt 0.807566 0.520272
vt 0.807566 0.416218
vt 0.847579 0.520272
vt 0.847579 0.416218
vt 0.888375 0.520272
vt 0.888375 0.416218
vt 0.928388 0.520272
vt 0.305209 0.023571
vt 0.390642 0.305209
vt 0.109005 0.390642
vt 0.928388 0.416218
vt 0.966079 0.520272
vt 0.966079 0.416218
vt 1.000000 0.520272
vt 0.339130 0.460450
vt 0.367977 0.753343
vt 0.075084 0.782191
vt 0.966079 0.624327
vt 1.000000 0.728381
vt 0.966079 0.728381
vt 0.928388 0.624327
vt 0.928388 0.728381
vt 0.888375 0.624327
vt 0.888375 0.728381
vt 0.847579 0.624327
vt 0.847579 0.728381
vt 0.807566 0.624327
vt 0.807566 0.728381
vt 0.769875 0.624327
vt 0.769875 0.728381
vt 0.735954 0.624327
vt 0.735954 0.728381
vt 0.707107 0.624327
vt 0.707107 0.728381
vt 0.673186 0.624327
vt 0.707107 0.728381
vt 0.673186 0.728381
vt 0.635495 0.624327
vt 0.635495 0.728381
vt 0.595482 0.624327
vt 0.595482 0.728381
vt 0.554686 0.624327
vt 0.554686 0.728381
vt 0.514673 0.624327
vt 0.514673 0.728381
vt 0.476982 0.624327
vt 0.476982 0.728381
vt 0.443061 0.624327
vt 0.443061 0.728381
vt 0.414214 0.624327
vt 0.414214 0.728381
vt 0.966079 0.208109
vt 1.000000 0.312163
vt 0.966079 0.312163
vt 0.928388 0.208109
vt 0.928388 0.312163
vt 0.888375 0.208109
vt 0.888375 0.312163
vt 0.847579 0.208109
vt 0.847579 0.312163
vt 0.807566 0.208109
vt 0.807566 0.312163
vt 0.769875 0.208109
vt 0.769875 0.312163
vt 0.735954 0.208109
vt 0.735954 0.312163
vt 0.707107 0.208109
vt 0.707107 0.312163
vt 0.673186 0.208109
vt 0.707107 0.312163
vt 0.673186 0.312163
vt 0.635495 0.208109
vt 0.635495 0.312163
vt 0.595482 0.208109
vt 0.595482 0.312163
vt 0.554686 0.208109
vt 0.554686 0.312163
vt 0.514673 0.208109
vt 0.514673 0.312163
vt 0.476982 0.208109
vt 0.476982 0.312163
vt 0.443061 0.208109
vt 0.443061 0.312163
vt 0.414214 0.208109
vt 0.414214 0.312163
vt 0.707107 0.416218
vt 1.000000 0.416218
vt 0.443061 0.832436
vt 0.414214 0.832436
vt 0.476982 0.832436
vt 0.514673 0.832436
vt 0.554686 0.832436
vt 0.595482 0.832436
vt 0.635495 0.832436
vt 0.673186 0.832436
vt 0.707107 0.832436
vt 0.735954 0.832436
vt 0.707107 0.832436
vt 0.769875 0.832436
vt 0.807566 0.832436
vt 0.847579 0.832436
vt 0.888375 0.832436
vt 0.928388 0.832436
vt 0.966079 0.832436
vt 1.000000 0.832436
vt 1.000000 0.624327
vt 0.707107 0.624327
vt 1.000000 0.208109
vt 0.707107 0.208109
vt 0.707107 0.000000
vt 1.000000 0.000000
vt 0.075084 0.367977
vt 0.046236 0.339130
vt 0.023571 0.305209
vt 0.007959 0.267518
vt -0.000000 0.227505
vt -0.000000 0.186709
vt 0.007959 0.146696
vt 0.023571 0.109005
vt 0.046236 0.075084
vt 0.075084 0.046236
vt 0.109005 0.023571
vt 0.146696 0.007959
vt 0.186709 -0.000000
vt 0.227505 -0.000000
vt 0.267518 0.007959
vt 0.339130 0.046236
vt 0.406255 0.146696
vt 0.367977 0.075084
vt 0.390642 0.109005
vt 0.414214 0.186709
vt 0.414214 0.227505
vt 0.406255 0.267518
vt 0.367977 0.339130
vt 0.267518 0.406255
vt 0.339130 0.367977
vt 0.305209 0.390642
vt 0.227505 0.414214
vt 0.186709 0.414214
vt 0.146696 0.406255
vt 0.046236 0.753343
vt 0.023571 0.719422
vt 0.007959 0.681731
vt 0.000000 0.641719
vt 0.000000 0.600922
vt 0.007959 0.560910
vt 0.023571 0.523219
vt 0.046236 0.489298
vt 0.075084 0.460450
vt 0.109005 0.437785
vt 0.146696 0.422173
vt 0.186709 0.414214
vt 0.227505 0.414214
vt 0.267518 0.422173
vt 0.305209 0.437785
vt 0.367977 0.489298
vt 0.390642 0.523219
vt 0.406255 0.560910
vt 0.414214 0.600922
vt 0.414214 0.641719
vt 0.406255 0.681731
vt 0.390642 0.719422
vt 0.339130 0.782191
vt 0.305209 0.804856
vt 0.267518 0.820468
vt 0.227505 0.828427
vt 0.186709 0.828427
vt 0.146696 0.820468
vt 0.109005 0.804856
s 0
f 2/1/1 130/2/1 129/3/1
f 4/4/2 131/5/2 130/2/2
f 6/6/3 132/7/3 131/5/3
f 8/8/4 133/9/4 132/7/4
f 10/10/5 134/11/5 133/9/5
f 12/12/6 135/13/6 134/11/6
f 14/14/7 136/15/7 135/13/7
f 16/16/8 137/17/8 136/15/8
f 18/18/9 138/19/9 137/20/9
f 20/21/10 139/22/10 138/19/10
f 22/23/11 140/24/11 139/22/11
f 24/25/12 141/26/12 140/24/12
f 26/27/13 142/28/13 141/26/13
f 28/29/14 143/30/14 142/28/14
f 30/31/15 144/32/15 143/30/15
f 32/33/16 145/34/16 144/32/16
f 34/35/17 146/36/17 145/37/17
f 36/38/18 147/39/18 146/36/18
f 38/40/19 148/41/19 147/39/19
f 40/42/20 149/43/20 148/41/20
f 42/44/21 150/45/21 149/43/21
f 44/46/22 151/47/22 150/45/22
f 46/48/23 152/49/23 151/47/23
f 48/50/24 153/51/24 152/49/24
f 50/52/25 154/53/25 153/54/25
f 52/55/26 155/56/26 154/53/26
f 54/57/27 156/58/27 155/56/27
f 56/59/28 157/60/28 156/58/28
f 58/61/29 158/62/29 157/60/29
f 60/63/30 159/64/30 158/62/30
f 38/65/31 22/66/31 6/67/31
f 62/68/32 160/69/32 159/64/32
f 64/70/33 129/71/33 160/69/33
f 31/72/34 47/73/34 63/74/34
f 96/75/33 128/76/33 127/77/33
f 95/78/32 127/77/32 126/79/32
f 94/80/30 126/79/30 125/81/30
f 93/82/29 125/81/29 124/83/29
f 92/84/28 124/83/28 123/85/28
f 91/86/27 123/85/27 122/87/27
f 90/88/26 122/87/26 121/89/26
f 89/90/25 121/89/25 120/91/25
f 88/92/24 120/93/24 119/94/24
f 87/95/23 119/94/23 118/96/23
f 86/97/22 118/96/22 117/98/22
f 85/99/21 117/98/21 116/100/21
f 84/101/20 116/100/20 115/102/20
f 83/103/19 115/102/19 114/104/19
f 82/105/18 114/104/18 113/106/18
f 81/107/17 113/106/17 112/108/17
f 80/109/16 112/110/16 111/111/16
f 79/112/15 111/111/15 110/113/15
f 78/114/14 110/113/14 109/115/14
f 77/116/13 109/115/13 108/117/13
f 76/118/12 108/117/12 107/119/12
f 75/120/11 107/119/11 106/121/11
f 74/122/10 106/121/10 105/123/10
f 73/124/9 105/123/9 104/125/9
f 72/126/8 104/127/8 103/128/8
f 71/129/7 103/128/7 102/130/7
f 70/131/6 102/130/6 101/132/6
f 69/133/5 101/132/5 100/134/5
f 68/135/4 100/134/4 99/136/4
f 67/137/3 99/136/3 98/138/3
f 66/139/2 98/138/2 97/140/2
f 65/141/1 97/140/1 128/142/1
f 128/142/1 3/38/1 1/35/1
f 97/140/2 5/40/2 3/38/2
f 98/138/3 7/42/3 5/40/3
f 99/136/4 9/44/4 7/42/4
f 100/134/5 11/46/5 9/44/5
f 101/132/6 13/48/6 11/46/6
f 102/130/7 15/50/7 13/48/7
f 103/128/8 17/143/8 15/50/8
f 104/125/9 19/55/9 17/52/9
f 105/123/10 21/57/10 19/55/10
f 106/121/11 23/59/11 21/57/11
f 107/119/12 25/61/12 23/59/12
f 108/117/13 27/63/13 25/61/13
f 109/115/14 29/68/14 27/63/14
f 110/113/15 31/70/15 29/68/15
f 111/111/16 33/144/16 31/70/16
f 112/108/17 35/145/17 33/146/17
f 113/106/18 37/147/18 35/145/18
f 114/104/19 39/148/19 37/147/19
f 115/102/20 41/149/20 39/148/20
f 116/100/21 43/150/21 41/149/21
f 117/98/22 45/151/22 43/150/22
f 118/96/23 47/152/23 45/151/23
f 119/94/24 49/153/24 47/152/24
f 120/91/25 51/154/25 49/155/25
f 121/89/26 53/156/26 51/154/26
f 122/87/27 55/157/27 53/156/27
f 123/85/28 57/158/28 55/157/28
f 124/83/29 59/159/29 57/158/29
f 125/81/30 61/160/30 59/159/30
f 126/79/32 63/161/32 61/160/32
f 127/77/33 1/162/33 63/161/33
f 160/69/33 65/163/33 96/75/33
f 159/64/32 96/75/32 95/78/32
f 158/62/30 95/78/30 94/80/30
f 157/60/29 94/80/29 93/82/29
f 156/58/28 93/82/28 92/84/28
f 155/56/27 92/84/27 91/86/27
f 154/53/26 91/86/26 90/88/26
f 153/54/25 90/88/25 89/90/25
f 152/49/24 89/164/24 88/92/24
f 151/47/23 88/92/23 87/95/23
f 150/45/22 87/95/22 86/97/22
f 149/43/21 86/97/21 85/99/21
f 148/41/20 85/99/20 84/101/20
f 147/39/19 84/101/19 83/103/19
f 146/36/18 83/103/18 82/105/18
f 145/37/17 82/105/17 81/107/17
f 144/32/16 81/165/16 80/109/16
f 143/30/15 80/109/15 79/112/15
f 142/28/14 79/112/14 78/114/14
f 141/26/13 78/114/13 77/116/13
f 140/24/12 77/116/12 76/118/12
f 139/22/11 76/118/11 75/120/11
f 138/19/10 75/120/10 74/122/10
f 137/20/9 74/122/9 73/124/9
f 136/15/8 73/166/8 72/126/8
f 135/13/7 72/126/7 71/129/7
f 134/11/6 71/129/6 70/131/6
f 133/9/5 70/131/5 69/133/5
f 132/7/4 69/133/4 68/135/4
f 131/5/3 68/135/3 67/137/3
f 130/2/2 67/137/2 66/139/2
f 129/3/1 66/139/1 65/141/1
f 2/1/1 4/4/1 130/2/1
f 4/4/2 6/6/2 131/5/2
f 6/6/3 8/8/3 132/7/3
f 8/8/4 10/10/4 133/9/4
f 10/10/5 12/12/5 134/11/5
f 12/12/6 14/14/6 135/13/6
f 14/14/7 16/16/7 136/15/7
f 16/16/8 18/167/8 137/17/8
f 18/18/9 20/21/9 138/19/9
f 20/21/10 22/23/10 139/22/10
f 22/23/11 24/25/11 140/24/11
f 24/25/12 26/27/12 141/26/12
f 26/27/13 28/29/13 142/28/13
f 28/29/14 30/31/14 143/30/14
f 30/31/15 32/33/15 144/32/15
f 32/33/16 34/168/16 145/34/16
f 34/35/17 36/38/17 146/36/17
f 36/38/18 38/40/18 147/39/18
f 38/40/19 40/42/19 148/41/19
f 40/42/20 42/44/20 149/43/20
f 42/44/21 44/46/21 150/45/21
f 44/46/22 46/48/22 151/47/22
f 46/48/23 48/50/23 152/49/23
f 48/50/24 50/143/24 153/51/24
f 50/52/25 52/55/25 154/53/25
f 52/55/26 54/57/26 155/56/26
f 54/57/27 56/59/27 156/58/27
f 56/59/28 58/61/28 157/60/28
f 58/61/29 60/63/29 158/62/29
f 60/63/30 62/68/30 159/64/30
f 6/67/31 4/169/31 2/170/31
f 2/170/31 64/171/31 6/67/31
f 64/171/31 62/172/31 6/67/31
f 62/172/31 60/173/31 58/174/31
f 58/174/31 56/175/31 54/176/31
f 54/176/31 52/177/31 50/178/31
f 50/178/31 48/179/31 54/176/31
f 48/179/31 46/180/31 54/176/31
f 46/180/31 44/181/31 42/182/31
f 42/182/31 40/183/31 38/65/31
f 38/65/31 36/184/31 30/185/31
f 36/184/31 34/186/31 30/185/31
f 34/186/31 32/187/31 30/185/31
f 30/185/31 28/188/31 26/189/31
f 26/189/31 24/190/31 22/66/31
f 22/66/31 20/191/31 14/192/31
f 20/191/31 18/193/31 14/192/31
f 18/193/31 16/194/31 14/192/31
f 14/192/31 12/195/31 10/196/31
f 10/196/31 8/197/31 6/67/31
f 62/172/31 58/174/31 6/67/31
f 58/174/31 54/176/31 6/67/31
f 46/180/31 42/182/31 54/176/31
f 42/182/31 38/65/31 54/176/31
f 30/185/31 26/189/31 38/65/31
f 26/189/31 22/66/31 38/65/31
f 14/192/31 10/196/31 22/66/31
f 10/196/31 6/67/31 22/66/31
f 6/67/31 54/176/31 38/65/31
f 62/68/32 64/70/32 160/69/32
f 64/70/33 2/144/33 129/71/33
f 63/74/34 1/198/34 3/199/34
f 3/199/34 5/200/34 7/201/34
f 7/201/34 9/202/34 11/203/34
f 11/203/34 13/204/34 15/205/34
f 15/205/34 17/206/34 19/207/34
f 19/207/34 21/208/34 23/209/34
f 23/209/34 25/210/34 27/211/34
f 27/211/34 29/212/34 31/72/34
f 31/72/34 33/213/34 35/214/34
f 35/214/34 37/215/34 39/216/34
f 39/216/34 41/217/34 43/218/34
f 43/218/34 45/219/34 47/73/34
f 47/73/34 49/220/34 51/221/34
f 51/221/34 53/222/34 55/223/34
f 55/223/34 57/224/34 59/225/34
f 59/225/34 61/226/34 63/74/34
f 63/74/34 3/199/34 15/205/34
f 3/199/34 7/201/34 15/205/34
f 7/201/34 11/203/34 15/205/34
f 15/205/34 19/207/34 31/72/34
f 19/207/34 23/209/34 31/72/34
f 23/209/34 27/211/34 31/72/34
f 31/72/34 35/214/34 47/73/34
f 35/214/34 39/216/34 47/73/34
f 39/216/34 43/218/34 47/73/34
f 47/73/34 51/221/34 63/74/34
f 51/221/34 55/223/34 63/74/34
f 55/223/34 59/225/34 63/74/34
f 63/74/34 15/205/34 31/72/34
f 96/75/33 65/163/33 128/76/33
f 95/78/32 96/75/32 127/77/32
f 94/80/30 95/78/30 126/79/30
f 93/82/29 94/80/29 125/81/29
f 92/84/28 93/82/28 124/83/28
f 91/86/27 92/84/27 123/85/27
f 90/88/26 91/86/26 122/87/26
f 89/90/25 90/88/25 121/89/25
f 88/92/24 89/164/24 120/93/24
f 87/95/23 88/92/23 119/94/23
f 86/97/22 87/95/22 118/96/22
f 85/99/21 86/97/21 117/98/21
f 84/101/20 85/99/20 116/100/20
f 83/103/19 84/101/19 115/102/19
f 82/105/18 83/103/18 114/104/18
f 81/107/17 82/105/17 113/106/17
f 80/109/16 81/165/16 112/110/16
f 79/112/15 80/109/15 111/111/15
f 78/114/14 79/112/14 110/113/14
f 77/116/13 78/114/13 109/115/13
f 76/118/12 77/116/12 108/117/12
f 75/120/11 76/118/11 107/119/11
f 74/122/10 75/120/10 106/121/10
f 73/124/9 74/122/9 105/123/9
f 72/126/8 73/166/8 104/127/8
f 71/129/7 72/126/7 103/128/7
f 70/131/6 71/129/6 102/130/6
f 69/133/5 70/131/5 101/132/5
f 68/135/4 69/133/4 100/134/4
f 67/137/3 68/135/3 99/136/3
f 66/139/2 67/137/2 98/138/2
f 65/141/1 66/139/1 97/140/1
f 128/142/1 97/140/1 3/38/1
f 97/140/2 98/138/2 5/40/2
f 98/138/3 99/136/3 7/42/3
f 99/136/4 100/134/4 9/44/4
f 100/134/5 101/132/5 11/46/5
f 101/132/6 102/130/6 13/48/6
f 102/130/7 103/128/7 15/50/7
f 103/128/8 104/127/8 17/143/8
f 104/125/9 105/123/9 19/55/9
f 105/123/10 106/121/10 21/57/10
f 106/121/11 107/119/11 23/59/11
f 107/119/12 108/117/12 25/61/12
f 108/117/13 109/115/13 27/63/13
f 109/115/14 110/113/14 29/68/14
f 110/113/15 111/111/15 31/70/15
f 111/111/16 112/110/16 33/144/16
f 112/108/17 113/106/17 35/145/17
f 113/106/18 114/104/18 37/147/18
f 114/104/19 115/102/19 39/148/19
f 115/102/20 116/100/20 41/149/20
f 116/100/21 117/98/21 43/150/21
f 117/98/22 118/96/22 45/151/22
f 118/96/23 119/94/23 47/152/23
f 119/94/24 120/93/24 49/153/24
f 120/91/25 121/89/25 51/154/25
f 121/89/26 122/87/26 53/156/26
f 122/87/27 123/85/27 55/157/27
f 123/85/28 124/83/28 57/158/28
f 124/83/29 125/81/29 59/159/29
f 125/81/30 126/79/30 61/160/30
f 126/79/32 127/77/32 63/161/32
f 127/77/33 128/76/33 1/162/33
f 160/69/33 129/71/33 65/163/33
f 159/64/32 160/69/32 96/75/32
f 158/62/30 159/64/30 95/78/30
f 157/60/29 158/62/29 94/80/29
f 156/58/28 157/60/28 93/82/28
f 155/56/27 156/58/27 92/84/27
f 154/53/26 155/56/26 91/86/26
f 153/54/25 154/53/25 90/88/25
f 152/49/24 153/51/24 89/164/24
f 151/47/23 152/49/23 88/92/23
f 150/45/22 151/47/22 87/95/22
f 149/43/21 150/45/21 86/97/21
f 148/41/20 149/43/20 85/99/20
f 147/39/19 148/41/19 84/101/19
f 146/36/18 147/39/18 83/103/18
f 145/37/17 146/36/17 82/105/17
f 144/32/16 145/34/16 81/165/16
f 143/30/15 144/32/15 80/109/15
f 142/28/14 143/30/14 79/112/14
f 141/26/13 142/28/13 78/114/13
f 140/24/12 141/26/12 77/116/12
f 139/22/11 140/24/11 76/118/11
f 138/19/10 139/22/10 75/120/10
f 137/20/9 138/19/9 74/122/9
f 136/15/8 137/17/8 73/166/8
f 135/13/7 136/15/7 72/126/7
f 134/11/6 135/13/6 71/129/6
f 133/9/5 134/11/5 70/131/5
f 132/7/4 133/9/4 69/133/4
f 131/5/3 132/7/3 68/135/3
f 130/2/2 131/5/2 67/137/2
f 129/3/1 130/2/1 66/139/1
