# Blender 4.5.3 LTS
# www.blender.org
o CV
v 26.297346 -8.999286 -12.526037
v 26.297346 -8.999286 5.473963
v 26.556068 -8.859540 -12.526037
v 26.556068 -8.859540 5.473963
v 26.837084 -8.772955 -12.526037
v 26.837084 -8.772955 5.473963
v 27.129591 -8.742856 -12.526037
v 27.129591 -8.742856 5.473963
v 27.422348 -8.770401 -12.526037
v 27.422348 -8.770401 5.473963
v 27.704107 -8.854531 -12.526037
v 27.704107 -8.854531 5.473963
v 27.964041 -8.992013 -12.526037
v 27.964041 -8.992013 5.473963
v 28.192158 -9.177564 -12.526037
v 28.192158 -9.177564 5.473963
v 28.379692 -9.404053 -12.526037
v 28.379692 -9.404053 5.473963
v 28.519436 -9.662775 -12.526037
v 28.519436 -9.662775 5.473963
v 28.606022 -9.943789 -12.526037
v 28.606022 -9.943789 5.473963
v 28.636120 -10.236297 -12.526037
v 28.636120 -10.236297 5.473963
v 28.608576 -10.529056 -12.526037
v 28.608576 -10.529056 5.473963
v 28.524446 -10.810815 -12.526037
v 28.524446 -10.810815 5.473963
v 28.386963 -11.070747 -12.526037
v 28.386963 -11.070747 5.473963
v 28.201412 -11.298863 -12.526037
v 28.201412 -11.298863 5.473963
v 27.974924 -11.486398 -12.526037
v 27.974924 -11.486398 5.473963
v 27.716202 -11.626143 -12.526037
v 27.716202 -11.626143 5.473963
v 27.435186 -11.712729 -12.526037
v 27.435186 -11.712729 5.473963
v 27.142679 -11.742827 -12.526037
v 27.142679 -11.742827 5.473963
v 26.849922 -11.715282 -12.526037
v 26.849922 -11.715282 5.473963
v 26.568163 -11.631152 -12.526037
v 26.568163 -11.631152 5.473963
v 26.308229 -11.493670 -12.526037
v 26.308229 -11.493670 5.473963
v 26.080112 -11.308120 -12.526037
v 26.080112 -11.308120 5.473963
v 25.892578 -11.081631 -12.526037
v 25.892578 -11.081631 5.473963
v 25.752834 -10.822908 -12.526037
v 25.752834 -10.822908 5.473963
v 25.666248 -10.541894 -12.526037
v 25.666248 -10.541894 5.473963
v 25.636150 -10.249387 -12.526037
v 25.636150 -10.249387 5.473963
v 25.663694 -9.956628 -12.526037
v 25.663694 -9.956628 5.473963
v 25.747824 -9.674869 -12.526037
v 25.747824 -9.674869 5.473963
v 25.885307 -9.414936 -12.526037
v 25.885307 -9.414936 5.473963
v 26.070858 -9.186820 -12.526037
v 26.070858 -9.186820 5.473963
v 26.740503 -9.299370 8.182111
v 26.564043 -9.394682 8.182111
v 26.932167 -9.240314 8.182111
v 27.131670 -9.219786 8.182111
v 27.331345 -9.238573 8.182111
v 27.523516 -9.295953 8.182111
v 27.700802 -9.389722 8.182111
v 27.856388 -9.516275 8.182111
v 27.984295 -9.670751 8.182111
v 28.079607 -9.847211 8.182111
v 28.138662 -10.038876 8.182111
v 28.159191 -10.238379 8.182111
v 28.140404 -10.438052 8.182111
v 28.083023 -10.630224 8.182111
v 27.989254 -10.807510 8.182111
v 27.862700 -10.963096 8.182111
v 27.708225 -11.091002 8.182111
v 27.531765 -11.186315 8.182111
v 27.340101 -11.245370 8.182111
v 27.140598 -11.265899 8.182111
v 26.940924 -11.247111 8.182111
v 26.748751 -11.189731 8.182111
v 26.571466 -11.095963 8.182111
v 26.415880 -10.969408 8.182111
v 26.287973 -10.814933 8.182111
v 26.192661 -10.638473 8.182111
v 26.133606 -10.446809 8.182111
v 26.113077 -10.247306 8.182111
v 26.131865 -10.047631 8.182111
v 26.189245 -9.855459 8.182111
v 26.283014 -9.678174 8.182111
v 26.409567 -9.522589 8.182111
v 26.740503 -9.299369 10.350845
v 26.564043 -9.394681 10.350845
v 26.932169 -9.240314 10.350845
v 27.131670 -9.219786 10.350845
v 27.331345 -9.238572 10.350845
v 27.523518 -9.295953 10.350845
v 27.700802 -9.389721 10.350845
v 27.856388 -9.516275 10.350845
v 27.984295 -9.670751 10.350845
v 28.079607 -9.847211 10.350845
v 28.138662 -10.038875 10.350845
v 28.159191 -10.238378 10.350845
v 28.140404 -10.438052 10.350845
v 28.083023 -10.630224 10.350845
v 27.989254 -10.807509 10.350845
v 27.862701 -10.963095 10.350845
v 27.708225 -11.091002 10.350845
v 27.531765 -11.186314 10.350845
v 27.340101 -11.245369 10.350845
v 27.140598 -11.265898 10.350845
v 26.940924 -11.247110 10.350845
v 26.748753 -11.189731 10.350845
v 26.571466 -11.095962 10.350845
v 26.415880 -10.969408 10.350845
v 26.287975 -10.814933 10.350845
v 26.192661 -10.638473 10.350845
v 26.133606 -10.446808 10.350845
v 26.113079 -10.247305 10.350845
v 26.131865 -10.047631 10.350845
v 26.189245 -9.855459 10.350845
v 26.283014 -9.678173 10.350845
v 26.409569 -9.522588 10.350845
v 26.297346 -8.999286 -3.526037
v 26.556068 -8.859540 -3.526037
v 26.837084 -8.772955 -3.526037
v 27.129591 -8.742856 -3.526037
v 27.422348 -8.770401 -3.526037
v 27.704107 -8.854531 -3.526037
v 27.964041 -8.992013 -3.526037
v 28.192158 -9.177564 -3.526037
v 28.379692 -9.404053 -3.526037
v 28.519436 -9.662775 -3.526037
v 28.606022 -9.943789 -3.526037
v 28.636120 -10.236297 -3.526037
v 28.608576 -10.529056 -3.526037
v 28.524446 -10.810815 -3.526037
v 28.386963 -11.070747 -3.526037
v 28.201412 -11.298863 -3.526037
v 27.974924 -11.486398 -3.526037
v 27.716202 -11.626143 -3.526037
v 27.435186 -11.712729 -3.526037
v 27.142679 -11.742827 -3.526037
v 26.849922 -11.715282 -3.526037
v 26.568163 -11.631152 -3.526037
v 26.308229 -11.493670 -3.526037
v 26.080112 -11.308120 -3.526037
v 25.892578 -11.081631 -3.526037
v 25.752834 -10.822908 -3.526037
v 25.666248 -10.541894 -3.526037
v 25.636150 -10.249387 -3.526037
v 25.663694 -9.956628 -3.526037
v 25.747824 -9.674869 -3.526037
v 25.885307 -9.414936 -3.526037
v 26.070858 -9.186820 -3.526037
v 26.297346 -8.999286 0.973963
v 26.556068 -8.859540 0.973963
v 26.837084 -8.772955 0.973963
v 27.129591 -8.742856 0.973963
v 27.422348 -8.770401 0.973963
v 27.704107 -8.854531 0.973963
v 27.964041 -8.992013 0.973963
v 28.192158 -9.177564 0.973963
v 28.379692 -9.404053 0.973963
v 28.519436 -9.662775 0.973963
v 28.606022 -9.943789 0.973963
v 28.636120 -10.236297 0.973963
v 28.608576 -10.529056 0.973963
v 28.524446 -10.810815 0.973963
v 28.386963 -11.070747 0.973963
v 28.201412 -11.298863 0.973963
v 27.974924 -11.486398 0.973963
v 27.716202 -11.626143 0.973963
v 27.435186 -11.712729 0.973963
v 27.142679 -11.742827 0.973963
v 26.849922 -11.715282 0.973963
v 26.568163 -11.631152 0.973963
v 26.308229 -11.493670 0.973963
v 26.080112 -11.308120 0.973963
v 25.892578 -11.081631 0.973963
v 25.752834 -10.822908 0.973963
v 25.666248 -10.541894 0.973963
v 25.636150 -10.249387 0.973963
v 25.663694 -9.956628 0.973963
v 25.747824 -9.674869 0.973963
v 25.885307 -9.414936 0.973963
v 26.070858 -9.186820 0.973963
v 26.556068 -8.859540 -8.026037
v 26.837084 -8.772955 -8.026037
v 27.129591 -8.742856 -8.026037
v 27.422348 -8.770401 -8.026037
v 27.704107 -8.854531 -8.026037
v 27.964041 -8.992013 -8.026037
v 28.192158 -9.177564 -8.026037
v 28.379692 -9.404053 -8.026037
v 28.519436 -9.662775 -8.026037
v 28.606022 -9.943789 -8.026037
v 28.636120 -10.236297 -8.026037
v 28.608576 -10.529056 -8.026037
v 28.524446 -10.810815 -8.026037
v 28.386963 -11.070747 -8.026037
v 28.201412 -11.298863 -8.026037
v 27.974924 -11.486398 -8.026037
v 27.716202 -11.626143 -8.026037
v 27.435186 -11.712729 -8.026037
v 27.142679 -11.742827 -8.026037
v 26.849922 -11.715282 -8.026037
v 26.568163 -11.631152 -8.026037
v 26.308229 -11.493670 -8.026037
v 26.080112 -11.308120 -8.026037
v 25.892578 -11.081631 -8.026037
v 25.752834 -10.822908 -8.026037
v 25.666248 -10.541894 -8.026037
v 25.636150 -10.249387 -8.026037
v 25.663694 -9.956628 -8.026037
v 25.747824 -9.674869 -8.026037
v 25.885307 -9.414936 -8.026037
v 26.070858 -9.186820 -8.026037
v 26.297346 -8.999286 -8.026037
vn -0.4752 0.8799 -0.0000
vn -0.2945 0.9557 -0.0000
vn -0.1024 0.9947 -0.0000
vn 0.0937 0.9956 -0.0000
vn 0.2861 0.9582 -0.0000
vn 0.4675 0.8840 -0.0000
vn 0.6310 0.7758 -0.0000
vn 0.7702 0.6378 -0.0000
vn 0.8799 0.4752 -0.0000
vn 0.9557 0.2945 -0.0000
vn 0.9947 0.1024 -0.0000
vn 0.9956 -0.0937 -0.0000
vn 0.9582 -0.2861 -0.0000
vn 0.8840 -0.4675 -0.0000
vn 0.7758 -0.6310 -0.0000
vn 0.6378 -0.7702 -0.0000
vn 0.4752 -0.8799 -0.0000
vn 0.2945 -0.9557 -0.0000
vn 0.1024 -0.9947 -0.0000
vn -0.0937 -0.9956 -0.0000
vn -0.2861 -0.9582 -0.0000
vn -0.4675 -0.8840 -0.0000
vn -0.6310 -0.7758 -0.0000
vn -0.7702 -0.6378 -0.0000
vn -0.8799 -0.4752 -0.0000
vn -0.9557 -0.2945 -0.0000
vn -0.9947 -0.1024 -0.0000
vn -0.9956 0.0937 -0.0000
vn -0.9582 0.2861 -0.0000
vn -0.8840 0.4675 -0.0000
vn 0.7587 0.6282 0.1726
vn -0.7758 0.6310 -0.0000
vn -0.6378 0.7702 -0.0000
vn -0.0000 -0.0000 -1.0000
vn 0.4681 -0.8666 0.1726
vn -0.9413 -0.2900 0.1726
vn 0.0923 0.9807 0.1726
vn 0.9438 -0.2818 0.1726
vn -0.4605 -0.8707 0.1726
vn -0.7641 0.6215 0.1726
vn 0.8666 0.4681 0.1726
vn 0.2900 -0.9413 0.1726
vn -0.9798 -0.1008 0.1726
vn 0.2818 0.9438 0.1726
vn 0.8707 -0.4605 0.1726
vn -0.6215 -0.7641 0.1726
vn -0.4681 0.8666 0.1726
vn -0.6282 0.7587 0.1726
vn 0.9413 0.2900 0.1726
vn 0.1008 -0.9798 0.1726
vn -0.9807 0.0923 0.1726
vn 0.4605 0.8707 0.1726
vn 0.7641 -0.6215 0.1726
vn -0.7587 -0.6282 0.1726
vn -0.2900 0.9413 0.1726
vn 0.9798 0.1008 0.1726
vn -0.0923 -0.9807 0.1726
vn -0.9438 0.2818 0.1726
vn 0.6215 0.7641 0.1726
vn 0.6282 -0.7587 0.1726
vn -0.8666 -0.4681 0.1726
vn -0.1008 0.9798 0.1726
vn 0.9807 -0.0923 0.1726
vn -0.2818 -0.9438 0.1726
vn -0.8707 0.4605 0.1726
vn -0.0000 -0.0000 1.0000
vn 0.0001 -0.0000 1.0000
vn -0.0001 -0.0000 1.0000
vt 0.636495 0.374654
vt 0.662461 0.468318
vt 0.636495 0.468318
vt 0.662461 0.374654
vt 0.692995 0.468318
vt 0.692995 0.374654
vt 0.726922 0.468318
vt 0.726922 0.374654
vt 0.762939 0.468318
vt 0.762939 0.374654
vt 0.799662 0.468318
vt 0.799662 0.374654
vt 0.835679 0.468318
vt 0.835679 0.374654
vt 0.869606 0.468318
vt 0.869606 0.374654
vt 0.900139 0.468318
vt 0.636495 0.000000
vt 0.662462 0.093664
vt 0.636495 0.093664
vt 0.662462 0.000000
vt 0.692995 0.093664
vt 0.692995 0.000000
vt 0.726922 0.093664
vt 0.726922 0.000000
vt 0.762939 0.093664
vt 0.762939 0.000000
vt 0.799662 0.093664
vt 0.799662 0.000000
vt 0.835679 0.093664
vt 0.835679 0.000000
vt 0.869606 0.093664
vt 0.869606 0.000000
vt 0.900140 0.093664
vt 0.372850 0.374654
vt 0.398817 0.468318
vt 0.372850 0.468318
vt 0.398817 0.374654
vt 0.429350 0.468318
vt 0.429350 0.374654
vt 0.463278 0.468318
vt 0.463278 0.374654
vt 0.499294 0.468318
vt 0.499294 0.374654
vt 0.536017 0.468318
vt 0.536017 0.374654
vt 0.572034 0.468318
vt 0.572034 0.374654
vt 0.605961 0.468318
vt 0.605961 0.374654
vt 0.636495 0.468318
vt 0.372850 0.000000
vt 0.398817 0.093664
vt 0.372850 0.093664
vt 0.398817 0.000000
vt 0.429350 0.093664
vt 0.429350 0.000000
vt 0.463278 0.093664
vt 0.463278 0.000000
vt 0.499294 0.093664
vt 0.499294 0.000000
vt 0.536017 0.093664
vt 0.536017 0.000000
vt 0.572034 0.093664
vt 0.274730 0.351633
vt 0.267478 0.285189
vt 0.305264 0.331231
vt 0.572034 0.000000
vt 0.605961 0.093664
vt 0.605961 0.000000
vt 0.636495 0.093664
vt 0.305264 0.414469
vt 0.331231 0.678114
vt 0.067586 0.704081
vt 0.417990 0.929125
vt 0.463131 0.908300
vt 0.463131 0.929125
vt 0.305264 0.041619
vt 0.285189 0.105371
vt 0.267478 0.087661
vt 0.021217 0.098120
vt 0.087661 0.105371
vt 0.073746 0.126197
vt 0.132047 0.365686
vt 0.173902 0.313575
vt 0.168064 0.372850
vt 0.372850 0.168064
vt 0.313575 0.198948
vt 0.313575 0.173902
vt 0.132047 0.007164
vt 0.173902 0.059275
vt 0.149337 0.064161
vt 0.007164 0.240803
vt 0.073746 0.246653
vt 0.021217 0.274730
vt 0.285189 0.267478
vt 0.331231 0.305264
vt 0.274730 0.021217
vt 0.246653 0.073746
vt 0.064161 0.149337
vt 0.007164 0.132047
vt 0.198948 0.313575
vt 0.204786 0.372850
vt 0.365686 0.132047
vt 0.308689 0.149337
vt 0.098120 0.021217
vt 0.126197 0.073746
vt 0.041619 0.305264
vt 0.105371 0.285189
vt 0.067586 0.331231
vt 0.087661 0.267478
vt 0.299104 0.246653
vt 0.351633 0.274730
vt 0.240803 0.007164
vt 0.223513 0.064161
vt 0.059275 0.173902
vt -0.000000 0.168064
vt 0.223513 0.308689
vt 0.240803 0.365686
vt 0.351633 0.098120
vt 0.299104 0.126197
vt 0.067586 0.041619
vt 0.105371 0.087661
vt 0.126197 0.299104
vt 0.098120 0.351633
vt 0.365686 0.240803
vt 0.308689 0.223513
vt 0.204786 -0.000000
vt 0.198948 0.059275
vt 0.059275 0.198948
vt -0.000000 0.204786
vt 0.246653 0.299104
vt 0.331231 0.067586
vt 0.041619 0.067586
vt 0.149337 0.308689
vt 0.372850 0.204786
vt 0.168064 -0.000000
vt 0.064161 0.223513
vt 0.208203 0.774086
vt 0.225914 0.953903
vt 0.046097 0.971614
vt 0.299440 0.856987
vt 0.344581 0.881552
vt 0.299440 0.881552
vt 0.417990 0.929125
vt 0.372850 0.911415
vt 0.417990 0.911415
vt 0.344581 0.904692
vt 0.299440 0.904692
vt 0.372850 0.890590
vt 0.417990 0.890590
vt 0.344581 0.925517
vt 0.299440 0.925517
vt 0.372850 0.867450
vt 0.417990 0.867450
vt 0.299440 0.907807
vt 0.254300 0.925517
vt 0.254300 0.907807
vt 0.372850 0.842885
vt 0.417990 0.842885
vt 0.299440 0.886981
vt 0.254300 0.886981
vt 0.372850 0.817838
vt 0.417990 0.817838
vt 0.299440 0.863842
vt 0.254300 0.863842
vt 0.372850 0.793273
vt 0.417990 0.793273
vt 0.417990 0.767019
vt 0.463131 0.749308
vt 0.463131 0.767019
vt 0.299440 0.839277
vt 0.254300 0.839276
vt 0.372850 0.770133
vt 0.417990 0.770133
vt 0.417990 0.787844
vt 0.463131 0.787844
vt 0.299440 0.814230
vt 0.254300 0.814230
vt 0.372850 0.749308
vt 0.417990 0.749308
vt 0.417990 0.810984
vt 0.463131 0.810984
vt 0.299440 0.789665
vt 0.254300 0.789665
vt 0.299440 0.745700
vt 0.344581 0.763410
vt 0.299440 0.763410
vt 0.417990 0.835549
vt 0.463131 0.835549
vt 0.299440 0.766525
vt 0.254300 0.766525
vt 0.344581 0.784236
vt 0.299440 0.784236
vt 0.417990 0.860595
vt 0.463131 0.860595
vt 0.299440 0.745700
vt 0.254300 0.745700
vt 0.344581 0.807375
vt 0.299440 0.807375
vt 0.417990 0.885160
vt 0.463131 0.885160
vt 0.344581 0.831941
vt 0.299440 0.831941
vt 0.417990 0.908300
vt 0.344581 0.856987
vt 0.605961 0.187327
vt 0.636495 0.280991
vt 0.605961 0.280991
vt 0.572034 0.187327
vt 0.572034 0.280991
vt 0.536017 0.187327
vt 0.536017 0.280991
vt 0.499294 0.187327
vt 0.499294 0.280991
vt 0.463278 0.187327
vt 0.463278 0.280991
vt 0.429350 0.187327
vt 0.429350 0.280991
vt 0.398817 0.187327
vt 0.398817 0.280991
vt 0.372850 0.187327
vt 0.372850 0.280991
vt 0.605961 0.561981
vt 0.636495 0.655645
vt 0.605961 0.655645
vt 0.572034 0.561981
vt 0.572034 0.655645
vt 0.536017 0.561981
vt 0.536017 0.655645
vt 0.499294 0.561981
vt 0.499294 0.655645
vt 0.463278 0.561981
vt 0.463278 0.655645
vt 0.429350 0.561981
vt 0.429350 0.655645
vt 0.398817 0.561981
vt 0.398817 0.655645
vt 0.372850 0.561981
vt 0.372850 0.655645
vt 0.869606 0.187327
vt 0.900140 0.280991
vt 0.869606 0.280991
vt 0.835679 0.187327
vt 0.835679 0.280991
vt 0.799662 0.187327
vt 0.799662 0.280991
vt 0.762939 0.187327
vt 0.762939 0.280991
vt 0.726922 0.187327
vt 0.726922 0.280991
vt 0.692995 0.187327
vt 0.692995 0.280991
vt 0.662462 0.187327
vt 0.662462 0.280991
vt 0.636495 0.187327
vt 0.636495 0.280991
vt 0.869606 0.561981
vt 0.900139 0.655645
vt 0.869606 0.655645
vt 0.835679 0.561981
vt 0.835679 0.655645
vt 0.799662 0.561981
vt 0.799662 0.655645
vt 0.762939 0.561981
vt 0.762939 0.655645
vt 0.726922 0.561981
vt 0.726922 0.655645
vt 0.692995 0.561981
vt 0.692995 0.655645
vt 0.662461 0.561981
vt 0.662461 0.655645
vt 0.636495 0.561981
vt 0.636495 0.655645
vt 0.636495 0.187327
vt 0.636495 0.561981
vt 0.900140 0.187327
vt 0.900139 0.561981
vt 0.662461 0.749308
vt 0.636495 0.749308
vt 0.692995 0.749308
vt 0.726922 0.749308
vt 0.762939 0.749308
vt 0.799662 0.749308
vt 0.835679 0.749308
vt 0.869606 0.749308
vt 0.900139 0.749308
vt 0.662462 0.374654
vt 0.636495 0.374654
vt 0.692995 0.374654
vt 0.726922 0.374654
vt 0.762939 0.374654
vt 0.799662 0.374654
vt 0.835679 0.374654
vt 0.869606 0.374654
vt 0.900140 0.374654
vt 0.398817 0.749308
vt 0.429350 0.749308
vt 0.463278 0.749308
vt 0.499294 0.749308
vt 0.536017 0.749308
vt 0.572034 0.749308
vt 0.605961 0.749308
vt 0.636495 0.749308
vt 0.398817 0.374654
vt 0.372850 0.374654
vt 0.429350 0.374654
vt 0.463278 0.374654
vt 0.499294 0.374654
vt 0.536017 0.374654
vt 0.572034 0.374654
vt 0.605961 0.374654
vt 0.636495 0.374654
vt 0.900139 0.374654
vt 0.900140 0.000000
vt 0.636495 0.374654
vt 0.636495 0.000000
vt 0.041619 0.678114
vt 0.021217 0.647580
vt 0.007164 0.613653
vt 0.000000 0.577636
vt 0.000000 0.540914
vt 0.007164 0.504897
vt 0.021217 0.470970
vt 0.041619 0.440436
vt 0.067586 0.414469
vt 0.098120 0.394067
vt 0.132047 0.380014
vt 0.168064 0.372850
vt 0.204786 0.372850
vt 0.240803 0.380014
vt 0.274730 0.394067
vt 0.331231 0.440436
vt 0.351633 0.470970
vt 0.365686 0.504897
vt 0.372850 0.540914
vt 0.372850 0.577636
vt 0.365686 0.613653
vt 0.351633 0.647580
vt 0.305264 0.704081
vt 0.274730 0.724483
vt 0.240803 0.738536
vt 0.204786 0.745700
vt 0.168064 0.745700
vt 0.132047 0.738536
vt 0.098120 0.724483
vt 0.028386 0.953903
vt 0.014471 0.933078
vt 0.004886 0.909938
vt -0.000000 0.885373
vt -0.000000 0.860327
vt 0.028386 0.791796
vt 0.004886 0.835762
vt 0.014471 0.812622
vt 0.046097 0.774086
vt 0.066922 0.760171
vt 0.090062 0.750586
vt 0.114627 0.745700
vt 0.139673 0.745700
vt 0.164238 0.750586
vt 0.187378 0.760171
vt 0.225914 0.791796
vt 0.239829 0.812622
vt 0.249414 0.835762
vt 0.254300 0.860327
vt 0.254300 0.885373
vt 0.249414 0.909938
vt 0.239829 0.933078
vt 0.208203 0.971614
vt 0.187378 0.985529
vt 0.164238 0.995114
vt 0.139673 1.000000
vt 0.114627 1.000000
vt 0.090062 0.995114
vt 0.066922 0.985529
vt 0.372850 0.929125
vt 0.299440 0.925517
vt 0.417990 0.749308
vt 0.344581 0.745700
s 0
f 2/1/1 162/2/1 161/3/1
f 4/4/2 163/5/2 162/2/2
f 6/6/3 164/7/3 163/5/3
f 8/8/4 165/9/4 164/7/4
f 10/10/5 166/11/5 165/9/5
f 12/12/6 167/13/6 166/11/6
f 14/14/7 168/15/7 167/13/7
f 16/16/8 169/17/8 168/15/8
f 18/18/9 170/19/9 169/20/9
f 20/21/10 171/22/10 170/19/10
f 22/23/11 172/24/11 171/22/11
f 24/25/12 173/26/12 172/24/12
f 26/27/13 174/28/13 173/26/13
f 28/29/14 175/30/14 174/28/14
f 30/31/15 176/32/15 175/30/15
f 32/33/16 177/34/16 176/32/16
f 34/35/17 178/36/17 177/37/17
f 36/38/18 179/39/18 178/36/18
f 38/40/19 180/41/19 179/39/19
f 40/42/20 181/43/20 180/41/20
f 42/44/21 182/45/21 181/43/21
f 44/46/22 183/47/22 182/45/22
f 46/48/23 184/49/23 183/47/23
f 48/50/24 185/51/24 184/49/24
f 50/52/25 186/53/25 185/54/25
f 52/55/26 187/56/26 186/53/26
f 54/57/27 188/58/27 187/56/27
f 56/59/28 189/60/28 188/58/28
f 58/61/29 190/62/29 189/60/29
f 60/63/30 191/64/30 190/62/30
f 16/65/31 73/66/31 18/67/31
f 62/68/32 192/69/32 191/64/32
f 64/70/33 161/71/33 192/69/33
f 31/72/34 47/73/34 63/74/34
f 73/75/8 104/76/8 105/77/8
f 36/78/35 81/79/35 82/80/35
f 54/81/36 90/82/36 91/83/36
f 8/84/37 69/85/37 10/86/37
f 28/87/38 77/88/38 78/89/38
f 46/90/39 86/91/39 87/92/39
f 62/93/40 96/94/40 64/95/40
f 18/67/41 74/96/41 20/97/41
f 38/98/42 82/80/42 83/99/42
f 54/81/43 92/100/43 56/101/43
f 10/86/44 70/102/44 12/103/44
f 30/104/45 78/89/45 79/105/45
f 48/106/46 87/92/46 88/107/46
f 2/108/47 65/109/47 4/110/47
f 64/95/48 66/111/48 2/108/48
f 20/97/49 75/112/49 22/113/49
f 40/114/50 83/99/50 84/115/50
f 56/101/51 93/116/51 58/117/51
f 12/103/52 71/118/52 14/119/52
f 32/120/53 79/105/53 80/121/53
f 50/122/54 88/107/54 89/123/54
f 4/110/55 67/124/55 6/125/55
f 24/126/56 75/112/56 76/127/56
f 42/128/57 84/115/57 85/129/57
f 58/117/58 94/130/58 60/131/58
f 14/119/59 72/132/59 16/65/59
f 34/133/60 80/121/60 81/79/60
f 52/134/61 89/123/61 90/82/61
f 6/125/62 68/135/62 8/84/62
f 26/136/63 76/127/63 77/88/63
f 44/137/64 85/129/64 86/91/64
f 60/131/65 95/138/65 62/93/65
f 115/139/66 107/140/66 99/141/66
f 86/142/22 119/143/22 87/144/22
f 73/145/9 106/146/9 74/147/9
f 87/144/23 120/148/23 88/149/23
f 74/147/10 107/150/10 75/151/10
f 88/149/24 121/152/24 89/153/24
f 75/151/11 108/154/11 76/155/11
f 90/156/25 121/157/25 122/158/25
f 76/155/12 109/159/12 77/160/12
f 91/161/26 122/158/26 123/162/26
f 77/160/13 110/163/13 78/164/13
f 92/165/27 123/162/27 124/166/27
f 78/164/14 111/167/14 79/168/14
f 65/169/1 98/170/1 97/171/1
f 93/172/28 124/166/28 125/173/28
f 79/168/15 112/174/15 80/175/15
f 67/176/2 97/171/2 99/177/2
f 94/178/29 125/173/29 126/179/29
f 80/175/16 113/180/16 81/181/16
f 68/182/3 99/177/3 100/183/3
f 95/184/30 126/179/30 127/185/30
f 81/186/17 114/187/17 82/188/17
f 69/189/4 100/183/4 101/190/4
f 96/191/32 127/185/32 128/192/32
f 82/188/18 115/193/18 83/194/18
f 70/195/5 101/190/5 102/196/5
f 66/197/33 128/192/33 98/198/33
f 83/194/19 116/199/19 84/200/19
f 71/201/6 102/196/6 103/202/6
f 84/200/20 117/203/20 85/204/20
f 72/205/7 103/202/7 104/76/7
f 85/204/21 118/206/21 86/142/21
f 160/207/33 224/208/33 223/209/33
f 159/210/32 223/209/32 222/211/32
f 158/212/30 222/211/30 221/213/30
f 157/214/29 221/213/29 220/215/29
f 156/216/28 220/215/28 219/217/28
f 155/218/27 219/217/27 218/219/27
f 154/220/26 218/219/26 217/221/26
f 153/222/25 217/221/25 216/223/25
f 152/224/24 216/225/24 215/226/24
f 151/227/23 215/226/23 214/228/23
f 150/229/22 214/228/22 213/230/22
f 149/231/21 213/230/21 212/232/21
f 148/233/20 212/232/20 211/234/20
f 147/235/19 211/234/19 210/236/19
f 146/237/18 210/236/18 209/238/18
f 145/239/17 209/238/17 208/240/17
f 144/241/16 208/242/16 207/243/16
f 143/244/15 207/243/15 206/245/15
f 142/246/14 206/245/14 205/247/14
f 141/248/13 205/247/13 204/249/13
f 140/250/12 204/249/12 203/251/12
f 139/252/11 203/251/11 202/253/11
f 138/254/10 202/253/10 201/255/10
f 137/256/9 201/255/9 200/257/9
f 136/258/8 200/259/8 199/260/8
f 135/261/7 199/260/7 198/262/7
f 134/263/6 198/262/6 197/264/6
f 133/265/5 197/264/5 196/266/5
f 132/267/4 196/266/4 195/268/4
f 131/269/3 195/268/3 194/270/3
f 130/271/2 194/270/2 193/272/2
f 129/273/1 193/272/1 224/274/1
f 192/69/33 129/275/33 160/207/33
f 191/64/32 160/207/32 159/210/32
f 190/62/30 159/210/30 158/212/30
f 189/60/29 158/212/29 157/214/29
f 188/58/28 157/214/28 156/216/28
f 187/56/27 156/216/27 155/218/27
f 186/53/26 155/218/26 154/220/26
f 185/54/25 154/220/25 153/222/25
f 184/49/24 153/276/24 152/224/24
f 183/47/23 152/224/23 151/227/23
f 182/45/22 151/227/22 150/229/22
f 181/43/21 150/229/21 149/231/21
f 180/41/20 149/231/20 148/233/20
f 179/39/19 148/233/19 147/235/19
f 178/36/18 147/235/18 146/237/18
f 177/37/17 146/237/17 145/239/17
f 176/32/16 145/277/16 144/241/16
f 175/30/15 144/241/15 143/244/15
f 174/28/14 143/244/14 142/246/14
f 173/26/13 142/246/13 141/248/13
f 172/24/12 141/248/12 140/250/12
f 171/22/11 140/250/11 139/252/11
f 170/19/10 139/252/10 138/254/10
f 169/20/9 138/254/9 137/256/9
f 168/15/8 137/278/8 136/258/8
f 167/13/7 136/258/7 135/261/7
f 166/11/6 135/261/6 134/263/6
f 165/9/5 134/263/5 133/265/5
f 164/7/4 133/265/4 132/267/4
f 163/5/3 132/267/3 131/269/3
f 162/2/2 131/269/2 130/271/2
f 161/3/1 130/271/1 129/273/1
f 224/274/1 3/279/1 1/280/1
f 193/272/2 5/281/2 3/279/2
f 194/270/3 7/282/3 5/281/3
f 195/268/4 9/283/4 7/282/4
f 196/266/5 11/284/5 9/283/5
f 197/264/6 13/285/6 11/284/6
f 198/262/7 15/286/7 13/285/7
f 199/260/8 17/287/8 15/286/8
f 200/257/9 19/288/9 17/289/9
f 201/255/10 21/290/10 19/288/10
f 202/253/11 23/291/11 21/290/11
f 203/251/12 25/292/12 23/291/12
f 204/249/13 27/293/13 25/292/13
f 205/247/14 29/294/14 27/293/14
f 206/245/15 31/295/15 29/294/15
f 207/243/16 33/296/16 31/295/16
f 208/240/17 35/297/17 33/180/17
f 209/238/18 37/298/18 35/297/18
f 210/236/19 39/299/19 37/298/19
f 211/234/20 41/300/20 39/299/20
f 212/232/21 43/301/21 41/300/21
f 213/230/22 45/302/22 43/301/22
f 214/228/23 47/303/23 45/302/23
f 215/226/24 49/304/24 47/303/24
f 216/223/25 51/305/25 49/306/25
f 217/221/26 53/307/26 51/305/26
f 218/219/27 55/308/27 53/307/27
f 219/217/28 57/309/28 55/308/28
f 220/215/29 59/310/29 57/309/29
f 221/213/30 61/311/30 59/310/30
f 222/211/32 63/312/32 61/311/32
f 223/209/33 1/313/33 63/312/33
f 2/1/1 4/4/1 162/2/1
f 4/4/2 6/6/2 163/5/2
f 6/6/3 8/8/3 164/7/3
f 8/8/4 10/10/4 165/9/4
f 10/10/5 12/12/5 166/11/5
f 12/12/6 14/14/6 167/13/6
f 14/14/7 16/16/7 168/15/7
f 16/16/8 18/314/8 169/17/8
f 18/18/9 20/21/9 170/19/9
f 20/21/10 22/23/10 171/22/10
f 22/23/11 24/25/11 172/24/11
f 24/25/12 26/27/12 173/26/12
f 26/27/13 28/29/13 174/28/13
f 28/29/14 30/31/14 175/30/14
f 30/31/15 32/33/15 176/32/15
f 32/33/16 34/315/16 177/34/16
f 34/35/17 36/38/17 178/36/17
f 36/38/18 38/40/18 179/39/18
f 38/40/19 40/42/19 180/41/19
f 40/42/20 42/44/20 181/43/20
f 42/44/21 44/46/21 182/45/21
f 44/46/22 46/48/22 183/47/22
f 46/48/23 48/50/23 184/49/23
f 48/50/24 50/316/24 185/51/24
f 50/52/25 52/55/25 186/53/25
f 52/55/26 54/57/26 187/56/26
f 54/57/27 56/59/27 188/58/27
f 56/59/28 58/61/28 189/60/28
f 58/61/29 60/63/29 190/62/29
f 60/63/30 62/68/30 191/64/30
f 16/65/31 72/132/31 73/66/31
f 62/68/32 64/70/32 192/69/32
f 64/70/33 2/317/33 161/71/33
f 63/74/34 1/318/34 3/319/34
f 3/319/34 5/320/34 7/321/34
f 7/321/34 9/322/34 11/323/34
f 11/323/34 13/324/34 15/325/34
f 15/325/34 17/326/34 19/327/34
f 19/327/34 21/328/34 23/329/34
f 23/329/34 25/330/34 27/331/34
f 27/331/34 29/332/34 31/72/34
f 31/72/34 33/333/34 35/334/34
f 35/334/34 37/335/34 39/336/34
f 39/336/34 41/337/34 43/338/34
f 43/338/34 45/339/34 47/73/34
f 47/73/34 49/340/34 51/341/34
f 51/341/34 53/342/34 55/343/34
f 55/343/34 57/344/34 59/345/34
f 59/345/34 61/346/34 63/74/34
f 63/74/34 3/319/34 15/325/34
f 3/319/34 7/321/34 15/325/34
f 7/321/34 11/323/34 15/325/34
f 15/325/34 19/327/34 31/72/34
f 19/327/34 23/329/34 31/72/34
f 23/329/34 27/331/34 31/72/34
f 31/72/34 35/334/34 47/73/34
f 35/334/34 39/336/34 47/73/34
f 39/336/34 43/338/34 47/73/34
f 47/73/34 51/341/34 63/74/34
f 51/341/34 55/343/34 63/74/34
f 55/343/34 59/345/34 63/74/34
f 63/74/34 15/325/34 31/72/34
f 73/75/8 72/205/8 104/76/8
f 36/78/35 34/133/35 81/79/35
f 54/81/36 52/134/36 90/82/36
f 8/84/37 68/135/37 69/85/37
f 28/87/38 26/136/38 77/88/38
f 46/90/39 44/137/39 86/91/39
f 62/93/40 95/138/40 96/94/40
f 18/67/41 73/66/41 74/96/41
f 38/98/42 36/78/42 82/80/42
f 54/81/43 91/83/43 92/100/43
f 10/86/44 69/85/44 70/102/44
f 30/104/45 28/87/45 78/89/45
f 48/106/46 46/90/46 87/92/46
f 2/108/47 66/111/47 65/109/47
f 64/95/48 96/94/48 66/111/48
f 20/97/49 74/96/49 75/112/49
f 40/114/50 38/98/50 83/99/50
f 56/101/51 92/100/51 93/116/51
f 12/103/52 70/102/52 71/118/52
f 32/120/53 30/104/53 79/105/53
f 50/122/54 48/106/54 88/107/54
f 4/110/55 65/109/55 67/124/55
f 24/126/56 22/113/56 75/112/56
f 42/128/57 40/114/57 84/115/57
f 58/117/58 93/116/58 94/130/58
f 14/119/59 71/118/59 72/132/59
f 34/133/60 32/120/60 80/121/60
f 52/134/61 50/122/61 89/123/61
f 6/125/62 67/124/62 68/135/62
f 26/136/63 24/126/63 76/127/63
f 44/137/64 42/128/64 85/129/64
f 60/131/65 94/130/65 95/138/65
f 99/141/66 97/347/66 98/348/66
f 98/348/66 128/349/66 127/350/66
f 127/350/66 126/351/66 123/352/66
f 126/351/66 125/353/66 123/352/66
f 125/353/66 124/354/66 123/352/66
f 123/352/66 122/355/66 121/356/66
f 121/356/66 120/357/66 123/352/66
f 120/357/66 119/358/66 123/352/66
f 119/358/66 118/359/66 117/360/66
f 117/360/66 116/361/66 115/139/66
f 115/139/66 114/362/66 113/363/66
f 113/363/66 112/364/66 115/139/66
f 112/364/66 111/365/66 115/139/66
f 111/365/66 110/366/66 107/140/66
f 110/366/66 109/367/66 107/140/66
f 109/367/66 108/368/66 107/140/66
f 107/140/66 106/369/66 105/370/66
f 105/370/67 104/371/67 107/140/67
f 104/371/68 103/372/68 107/140/68
f 103/372/66 102/373/66 99/141/66
f 102/373/66 101/374/66 99/141/66
f 101/374/66 100/375/66 99/141/66
f 99/141/66 98/348/66 127/350/66
f 119/358/66 117/360/66 123/352/66
f 117/360/66 115/139/66 123/352/66
f 99/141/66 127/350/66 115/139/66
f 127/350/66 123/352/66 115/139/66
f 115/139/66 111/365/66 107/140/66
f 107/140/66 103/372/66 99/141/66
f 86/142/22 118/206/22 119/143/22
f 73/145/9 105/376/9 106/146/9
f 87/144/23 119/143/23 120/148/23
f 74/147/10 106/146/10 107/150/10
f 88/149/24 120/148/24 121/152/24
f 75/151/11 107/150/11 108/154/11
f 90/156/25 89/377/25 121/157/25
f 76/155/12 108/154/12 109/159/12
f 91/161/26 90/156/26 122/158/26
f 77/160/13 109/159/13 110/163/13
f 92/165/27 91/161/27 123/162/27
f 78/164/14 110/163/14 111/167/14
f 65/169/1 66/378/1 98/170/1
f 93/172/28 92/165/28 124/166/28
f 79/168/15 111/167/15 112/174/15
f 67/176/2 65/169/2 97/171/2
f 94/178/29 93/172/29 125/173/29
f 80/175/16 112/174/16 113/180/16
f 68/182/3 67/176/3 99/177/3
f 95/184/30 94/178/30 126/179/30
f 81/186/17 113/379/17 114/187/17
f 69/189/4 68/182/4 100/183/4
f 96/191/32 95/184/32 127/185/32
f 82/188/18 114/187/18 115/193/18
f 70/195/5 69/189/5 101/190/5
f 66/197/33 96/191/33 128/192/33
f 83/194/19 115/193/19 116/199/19
f 71/201/6 70/195/6 102/196/6
f 84/200/20 116/199/20 117/203/20
f 72/205/7 71/201/7 103/202/7
f 85/204/21 117/203/21 118/206/21
f 160/207/33 129/275/33 224/208/33
f 159/210/32 160/207/32 223/209/32
f 158/212/30 159/210/30 222/211/30
f 157/214/29 158/212/29 221/213/29
f 156/216/28 157/214/28 220/215/28
f 155/218/27 156/216/27 219/217/27
f 154/220/26 155/218/26 218/219/26
f 153/222/25 154/220/25 217/221/25
f 152/224/24 153/276/24 216/225/24
f 151/227/23 152/224/23 215/226/23
f 150/229/22 151/227/22 214/228/22
f 149/231/21 150/229/21 213/230/21
f 148/233/20 149/231/20 212/232/20
f 147/235/19 148/233/19 211/234/19
f 146/237/18 147/235/18 210/236/18
f 145/239/17 146/237/17 209/238/17
f 144/241/16 145/277/16 208/242/16
f 143/244/15 144/241/15 207/243/15
f 142/246/14 143/244/14 206/245/14
f 141/248/13 142/246/13 205/247/13
f 140/250/12 141/248/12 204/249/12
f 139/252/11 140/250/11 203/251/11
f 138/254/10 139/252/10 202/253/10
f 137/256/9 138/254/9 201/255/9
f 136/258/8 137/278/8 200/259/8
f 135/261/7 136/258/7 199/260/7
f 134/263/6 135/261/6 198/262/6
f 133/265/5 134/263/5 197/264/5
f 132/267/4 133/265/4 196/266/4
f 131/269/3 132/267/3 195/268/3
f 130/271/2 131/269/2 194/270/2
f 129/273/1 130/271/1 193/272/1
f 192/69/33 161/71/33 129/275/33
f 191/64/32 192/69/32 160/207/32
f 190/62/30 191/64/30 159/210/30
f 189/60/29 190/62/29 158/212/29
f 188/58/28 189/60/28 157/214/28
f 187/56/27 188/58/27 156/216/27
f 186/53/26 187/56/26 155/218/26
f 185/54/25 186/53/25 154/220/25
f 184/49/24 185/51/24 153/276/24
f 183/47/23 184/49/23 152/224/23
f 182/45/22 183/47/22 151/227/22
f 181/43/21 182/45/21 150/229/21
f 180/41/20 181/43/20 149/231/20
f 179/39/19 180/41/19 148/233/19
f 178/36/18 179/39/18 147/235/18
f 177/37/17 178/36/17 146/237/17
f 176/32/16 177/34/16 145/277/16
f 175/30/15 176/32/15 144/241/15
f 174/28/14 175/30/14 143/244/14
f 173/26/13 174/28/13 142/246/13
f 172/24/12 173/26/12 141/248/12
f 171/22/11 172/24/11 140/250/11
f 170/19/10 171/22/10 139/252/10
f 169/20/9 170/19/9 138/254/9
f 168/15/8 169/17/8 137/278/8
f 167/13/7 168/15/7 136/258/7
f 166/11/6 167/13/6 135/261/6
f 165/9/5 166/11/5 134/263/5
f 164/7/4 165/9/4 133/265/4
f 163/5/3 164/7/3 132/267/3
f 162/2/2 163/5/2 131/269/2
f 161/3/1 162/2/1 130/271/1
f 224/274/1 193/272/1 3/279/1
f 193/272/2 194/270/2 5/281/2
f 194/270/3 195/268/3 7/282/3
f 195/268/4 196/266/4 9/283/4
f 196/266/5 197/264/5 11/284/5
f 197/264/6 198/262/6 13/285/6
f 198/262/7 199/260/7 15/286/7
f 199/260/8 200/259/8 17/287/8
f 200/257/9 201/255/9 19/288/9
f 201/255/10 202/253/10 21/290/10
f 202/253/11 203/251/11 23/291/11
f 203/251/12 204/249/12 25/292/12
f 204/249/13 205/247/13 27/293/13
f 205/247/14 206/245/14 29/294/14
f 206/245/15 207/243/15 31/295/15
f 207/243/16 208/242/16 33/296/16
f 208/240/17 209/238/17 35/297/17
f 209/238/18 210/236/18 37/298/18
f 210/236/19 211/234/19 39/299/19
f 211/234/20 212/232/20 41/300/20
f 212/232/21 213/230/21 43/301/21
f 213/230/22 214/228/22 45/302/22
f 214/228/23 215/226/23 47/303/23
f 215/226/24 216/225/24 49/304/24
f 216/223/25 217/221/25 51/305/25
f 217/221/26 218/219/26 53/307/26
f 218/219/27 219/217/27 55/308/27
f 219/217/28 220/215/28 57/309/28
f 220/215/29 221/213/29 59/310/29
f 221/213/30 222/211/30 61/311/30
f 222/211/32 223/209/32 63/312/32
f 223/209/33 224/208/33 1/313/33
