# Blender 4.5.3 LTS
# www.blender.org
o Pipe_Linear
v 6.855902 0.169734 -0.853312
v 6.855902 -0.000000 -1.002258
v 6.855902 -0.000000 -0.870035
v 6.855902 -0.332947 -0.803801
v 6.855902 -0.195531 -0.983001
v 6.855902 -0.383549 -0.925965
v 6.855902 -0.483364 -0.723406
v 6.855902 -0.556827 -0.833348
v 6.855902 -0.708708 -0.708706
v 6.855902 -0.615206 -0.615205
v 6.855902 -0.723408 -0.483363
v 6.855902 -0.833350 -0.556825
v 6.855902 -0.925967 -0.383547
v 6.855902 -0.803810 -0.332945
v 6.855902 -0.853314 -0.169733
v 6.855902 -0.983003 -0.195530
v 6.855902 -0.870037 0.000002
v 6.855902 -1.002259 0.000002
v 6.855902 -0.983003 0.195534
v 6.855902 -0.853314 0.169737
v 6.855902 -0.803810 0.332949
v 6.855902 -0.925967 0.383551
v 6.855902 -0.723408 0.483367
v 6.855902 -0.833350 0.556829
v 6.855902 -0.708708 0.708710
v 6.855902 -0.615206 0.615209
v 6.855902 -0.483364 0.723410
v 6.855902 -0.556827 0.833352
v 6.855902 -0.332947 0.803812
v 6.855902 -0.383549 0.925976
v 6.855902 -0.169735 0.853316
v 6.855902 -0.195531 0.983005
v 6.855902 0.000001 0.870039
v 6.855902 0.195533 0.983005
v 6.855902 0.169736 0.853316
v 6.855902 0.383550 0.925969
v 6.855902 0.332948 0.803812
v 6.855902 0.483366 0.723410
v 6.855902 0.556829 0.833352
v 6.855902 0.708708 0.708710
v 6.855902 0.615208 0.615209
v 6.855902 0.833350 0.556829
v 6.855902 0.723408 0.483367
v 6.855902 0.925974 0.383551
v 6.855902 0.803810 0.332949
v 6.855902 0.983003 0.195533
v 6.855902 0.853314 0.169736
v 6.855902 1.002260 0.000001
v 6.855902 0.870037 0.000001
v 6.855902 0.853314 -0.169734
v 6.855902 0.983003 -0.195531
v 6.855902 0.925967 -0.383548
v 6.855902 0.803803 -0.332947
v 6.855902 0.833350 -0.556826
v 6.855902 0.723408 -0.483363
v 6.855902 0.708708 -0.708706
v 6.855902 0.615207 -0.615206
v 6.855902 0.556827 -0.833348
v 6.855902 0.483364 -0.723406
v 6.855902 0.383549 -0.925972
v 6.855902 0.332947 -0.803808
v 6.855902 0.195531 -0.983001
v -6.822448 -0.320083 -0.772749
v 6.822442 -0.163176 -0.820342
v 6.822442 -0.320082 -0.772742
v 6.855902 -0.169735 -0.853312
v -6.822448 -0.464687 -0.695452
v 6.822442 -0.464687 -0.695452
v -6.822448 -0.591435 0.591437
v 6.822442 -0.695454 0.464690
v 6.822442 -0.591435 0.591437
v -6.822448 0.695454 0.464689
v 6.822442 0.591436 0.591437
v 6.822442 0.695455 0.464689
v -6.822448 0.320081 -0.772749
v 6.822442 0.464687 -0.695452
v 6.822442 0.320082 -0.772742
v -6.822448 -0.836416 0.000001
v 6.822442 -0.820344 -0.163174
v 6.822442 -0.836416 0.000002
v -6.822448 0.163177 0.820346
v 6.822442 0.000001 0.836418
v 6.822442 0.163177 0.820346
v -6.822448 0.772744 -0.320081
v 6.822442 0.820344 -0.163175
v 6.822442 0.772744 -0.320081
v -6.822448 -0.591435 -0.591434
v 6.822442 -0.591435 -0.591433
v -6.822448 -0.464687 0.695455
v 6.822442 -0.464687 0.695456
v -6.822448 0.772744 0.320083
v 6.822442 0.772744 0.320084
v -6.822448 0.163175 -0.820342
v 6.822442 0.163176 -0.820342
v -6.822448 -0.820344 0.163178
v 6.822442 -0.820344 0.163178
v -6.822448 0.320083 0.772746
v 6.822442 0.320083 0.772746
v -6.822448 0.695453 -0.464687
v 6.822442 0.695454 -0.464686
v -6.822448 -0.695454 -0.464686
v 6.822442 -0.695454 -0.464685
v -6.822448 -0.320082 0.772746
v 6.822442 -0.320082 0.772746
v -6.822448 0.820344 0.163177
v 6.822442 0.820344 0.163178
v -6.822448 -0.000000 -0.836414
v 6.822442 -0.000000 -0.836414
v -6.822448 -0.772744 0.320084
v 6.822442 -0.772744 0.320084
v -6.822448 0.464688 0.695455
v 6.822442 0.464688 0.695456
v -6.822448 0.591434 -0.591434
v 6.822442 0.591435 -0.591434
v -6.822448 -0.772744 -0.320081
v 6.822442 -0.772744 -0.320080
v -6.822448 -0.163176 0.820346
v 6.822442 -0.163176 0.820346
v -6.822448 0.836416 0.000001
v 6.822442 0.836416 0.000001
v 6.889355 0.202089 -1.015978
v 6.984645 -0.000000 -1.035879
v 6.889355 -0.000000 -1.035879
v -6.822448 -0.695454 0.464689
v -6.822448 0.591435 0.591436
v -6.822448 0.464686 -0.695453
v -6.822448 -0.820344 -0.163175
v -6.822448 0.820344 -0.163176
v 6.889355 0.861301 -0.575504
v 6.984645 0.732480 -0.732478
v 6.889355 0.732480 -0.732478
v 6.889355 -0.396414 0.957035
v 6.984645 -0.202090 1.015982
v 6.889355 -0.202090 1.015982
v 6.889355 -0.202090 -1.015978
v 6.984645 -0.396414 -0.957024
v 6.889355 -0.396414 -0.957024
v 6.984645 0.575504 -0.861299
v 6.889355 0.575504 -0.861299
v 6.984645 -0.575505 -0.861299
v 6.889355 -0.575505 -0.861299
v 6.984645 0.396414 -0.957031
v 6.889355 0.396414 -0.957031
v 6.889355 0.000001 1.035883
v 6.984645 0.202091 1.015982
v 6.889355 0.202091 1.015982
v 6.984645 -0.732480 -0.732478
v 6.889355 -0.732480 -0.732478
v 6.984645 0.202089 -1.015978
v 6.984645 0.396415 0.957035
v 6.889355 0.396415 0.957035
v 6.984645 -0.861301 -0.575503
v 6.889355 -0.861301 -0.575503
v 6.999997 -0.000000 -1.020451
v 6.999997 0.152602 -0.767184
v 6.999997 -0.000000 -0.782213
v 6.984645 0.575506 0.861303
v 6.889355 0.575506 0.861303
v 6.984645 -0.957033 -0.396412
v 6.889355 -0.957033 -0.396412
v 6.984645 -0.202090 -1.015978
v 6.984645 0.732480 0.732482
v 6.889355 0.732480 0.732482
v 6.984645 -1.015980 -0.202088
v 6.889355 -1.015980 -0.202088
v 6.984645 0.861301 0.575506
v 6.889355 0.861301 0.575506
v 6.984645 -1.035881 0.000002
v 6.889355 -1.035881 0.000002
v 6.984645 0.957033 0.396416
v 6.889355 0.957033 0.396416
v 6.984645 -1.015980 0.202093
v 6.889355 -1.015980 0.202093
v 6.984645 1.015980 0.202092
v 6.889355 1.015980 0.202092
v 6.984645 -0.957033 0.396417
v 6.889355 -0.957033 0.396417
v 6.984645 1.035881 0.000001
v 6.889355 1.035881 0.000001
v 6.984645 -0.861301 0.575507
v 6.889355 -0.861301 0.575507
v 6.984645 1.015980 -0.202090
v 6.889355 1.015980 -0.202090
v 6.984645 -0.732480 0.732482
v 6.889355 -0.732480 0.732482
v 6.984645 0.957026 -0.396414
v 6.889355 0.957026 -0.396414
v 6.984645 -0.575505 0.861303
v 6.889355 -0.575505 0.861303
v 6.984645 0.861301 -0.575504
v 6.984645 -0.396414 0.957035
v 6.999997 -0.566935 -0.848475
v 6.999997 -0.553110 -0.553108
v 6.999997 -0.721574 -0.721572
v 6.999997 0.199080 -1.000844
v 6.999997 0.299341 -0.722671
v 6.999997 0.390513 0.942783
v 6.999997 0.152603 0.767188
v 6.999997 0.299342 0.722675
v 6.999997 -0.650388 -0.434574
v 6.999997 -0.848477 -0.566933
v 6.999997 0.434577 0.650391
v 6.999997 0.566936 0.848479
v 6.999997 -0.942781 -0.390510
v 6.999997 -0.722673 -0.299339
v 6.999997 -0.152602 -0.767184
v 6.999997 -0.199081 -1.000844
v 6.999997 0.721574 0.721576
v 6.999997 0.553111 0.553112
v 6.999997 -0.767186 -0.152601
v 6.999997 -1.000846 -0.199079
v 6.999997 0.650389 0.434577
v 6.999997 0.848477 0.566937
v 6.999997 -0.782215 0.000002
v 6.999997 -1.020460 0.000002
v 6.999997 0.942781 0.390513
v 6.999997 0.722673 0.299343
v 6.999997 -0.767186 0.152605
v 6.999997 -1.000846 0.199083
v 6.999997 1.000847 0.199083
v 6.999997 0.767186 0.152604
v 6.999997 -0.722673 0.299343
v 6.999997 -0.942781 0.390514
v 6.999997 1.020453 0.000001
v 6.999997 0.782215 0.000001
v 6.999997 -0.650388 0.434578
v 6.999997 -0.848477 0.566937
v 6.999997 1.000847 -0.199080
v 6.999997 0.767186 -0.152602
v 6.999997 -0.553110 0.553112
v 6.999997 -0.721574 0.721576
v 6.999997 0.942781 -0.390511
v 6.999997 0.722673 -0.299340
v 6.999997 -0.434576 0.650391
v 6.999997 -0.566935 0.848479
v 6.999997 0.650389 -0.434575
v 6.999997 0.848477 -0.566934
v 6.999997 -0.299341 0.722675
v 6.999997 -0.390511 0.942783
v 6.999997 0.553110 -0.553109
v 6.999997 0.721574 -0.721572
v 6.999997 -0.152602 0.767188
v 6.999997 -0.199080 1.000848
v 6.999997 -0.299341 -0.722671
v 6.999997 -0.390511 -0.942779
v 6.999997 0.566935 -0.848475
v 6.999997 0.434576 -0.650388
v 6.999997 -0.434576 -0.650387
v 6.999997 0.390511 -0.942779
v 6.999997 0.199082 1.000848
v 6.999997 0.000001 0.782217
v -6.971661 -0.739256 -0.147046
v -6.971661 -0.753739 0.000001
v 6.971653 0.696365 0.288445
v -6.971661 0.696364 0.288445
v 6.971653 0.739256 -0.147046
v 6.971653 0.696364 -0.288442
v -6.971661 -0.418755 0.626713
v -6.971661 -0.288444 0.696366
v -6.971661 0.532974 -0.532973
v 6.971653 -0.147046 0.739258
v -6.971661 -0.147047 0.739258
v 6.971653 0.000001 0.753741
v 6.971653 -0.418754 -0.626709
v -6.971661 -0.418755 -0.626709
v 6.971653 0.288443 -0.696362
v 6.971653 -0.532974 -0.532972
v -6.971661 -0.532975 -0.532972
v 6.971653 0.147047 -0.739254
v -6.971661 0.147046 -0.739254
v 6.971653 0.288445 0.696366
v 6.971653 -0.000000 -0.753737
v 6.971653 0.418756 0.626713
v 6.971653 -0.696364 -0.288442
v -6.971661 0.532974 0.532975
v 6.971653 -0.739256 -0.147045
v -6.971661 -0.147047 -0.739254
v 6.971653 0.626712 0.418757
v 6.855902 0.000001 1.002262
v 6.984645 0.000001 1.035883
v 6.999997 0.000001 1.020462
v 6.971653 -0.147046 -0.739254
v 6.971653 -0.288443 -0.696362
v 6.971653 -0.626711 -0.418753
v 6.971653 -0.753739 0.000002
v 6.971653 -0.696364 0.288445
v 6.971653 -0.739256 0.147049
v 6.971653 -0.626711 0.418757
v 6.971653 -0.418754 0.626713
v 6.971653 -0.532974 0.532976
v 6.971653 -0.288443 0.696366
v 6.971653 0.147048 0.739258
v 6.971653 0.532975 0.532976
v 6.971653 0.753739 0.000001
v 6.971653 0.739256 0.147049
v 6.971653 0.626711 -0.418754
v 6.971653 0.532974 -0.532972
v 6.971653 0.418754 -0.626709
v -6.971661 -0.000000 -0.753737
v -6.855908 -0.000000 -1.002258
v -6.855908 0.169734 -0.853312
v -6.855908 -0.000000 -0.870035
v -6.855908 -0.383550 -0.925972
v -6.855908 -0.169735 -0.853312
v -6.855908 -0.332947 -0.803808
v -6.855908 -0.483365 -0.723406
v -6.855908 -0.708708 -0.708706
v -6.855908 -0.615207 -0.615206
v -6.855908 -0.723408 -0.483363
v -6.855908 -0.925967 -0.383548
v -6.855908 -0.803810 -0.332946
v -6.855908 -0.853314 -0.169734
v -6.855908 -0.870037 0.000001
v -6.855908 -0.983003 -0.195531
v -6.855908 -0.983003 0.195533
v -6.855908 -0.853314 0.169736
v -6.855908 -0.803810 0.332949
v -6.855908 -0.723408 0.483367
v -6.855908 -0.925967 0.383551
v -6.855908 -0.708708 0.708710
v -6.855908 -0.615207 0.615208
v -6.855908 -0.483365 0.723410
v -6.855908 -0.332947 0.803805
v -6.855908 -0.556828 0.833352
v -6.855908 -0.195532 0.983005
v -6.855908 -0.169735 0.853316
v -6.855908 0.195532 0.983005
v -6.855908 -0.000000 0.870039
v -6.855908 0.169735 0.853316
v -6.855908 0.383549 0.925969
v -6.855908 0.332948 0.803805
v -6.855908 0.483365 0.723410
v -6.855908 0.708708 0.708710
v -6.855908 0.615207 0.615208
v -6.855908 0.833350 0.556828
v -6.855908 0.723408 0.483366
v -6.855908 0.803810 0.332948
v -6.855908 0.983003 0.195532
v -6.855908 0.853314 0.169736
v -6.855908 1.002260 0.000001
v -6.855908 0.870037 0.000001
v -6.855908 0.983003 -0.195531
v -6.855908 0.853314 -0.169735
v -6.855908 0.925967 -0.383549
v -6.855908 0.803803 -0.332947
v -6.855908 0.833350 -0.556827
v -6.855908 0.723408 -0.483364
v -6.855908 0.708708 -0.708706
v -6.855908 0.615206 -0.615206
v -6.855908 0.556826 -0.833348
v -6.855908 0.483364 -0.723406
v -6.855908 0.383548 -0.925972
v -6.855908 0.332946 -0.803808
v -6.855908 0.195530 -0.983001
v -6.855908 -0.195532 -0.983001
v -6.984653 -0.000000 -1.035879
v -6.889361 0.202088 -1.015978
v -6.889361 -0.000000 -1.035879
v -6.984653 0.732480 -0.732478
v -6.889361 0.861301 -0.575505
v -6.889361 0.732480 -0.732478
v -6.984653 -0.202090 1.015982
v -6.889361 -0.396414 0.957035
v -6.889361 -0.202090 1.015982
v -6.984653 -0.396415 -0.957031
v -6.889361 -0.202091 -1.015978
v -6.889361 -0.396415 -0.957031
v -6.984653 0.575503 -0.861306
v -6.889361 0.575503 -0.861306
v -6.984653 -0.000000 1.035883
v -6.889361 -0.000000 1.035883
v -6.984653 -0.575505 -0.861299
v -6.889361 -0.575505 -0.861299
v -6.984653 0.396413 -0.957031
v -6.889361 0.396413 -0.957031
v -6.984653 0.202091 1.015982
v -6.889361 0.202091 1.015982
v -6.984653 -0.732480 -0.732478
v -6.889361 -0.732480 -0.732478
v -6.984653 0.202088 -1.015978
v -6.984653 0.396415 0.957028
v -6.889361 0.396415 0.957028
v -6.984653 -0.861301 -0.575503
v -6.889361 -0.861301 -0.575503
v -7.000003 -0.000000 -1.020458
v -7.000003 0.152601 -0.767184
v -7.000003 0.199080 -1.000844
v -6.984653 0.575505 0.861303
v -6.889361 0.575505 0.861303
v -6.984653 -0.957033 -0.396413
v -6.889361 -0.957033 -0.396413
v -6.984653 -0.202091 -1.015978
v -6.984653 0.732480 0.732482
v -6.889361 0.732480 0.732482
v -6.984653 -1.015980 -0.202089
v -6.889361 -1.015980 -0.202089
v -6.984653 0.861301 0.575506
v -6.889361 0.861301 0.575506
v -6.984653 -1.035881 0.000001
v -6.889361 -1.035881 0.000001
v -6.984653 0.957033 0.396415
v -6.889361 0.957033 0.396415
v -6.889361 -1.015980 0.202092
v -6.984653 1.015980 0.202091
v -6.889361 1.015980 0.202091
v -6.984653 -0.957033 0.396416
v -6.889361 -0.957033 0.396416
v -6.984653 1.035881 -0.000000
v -6.889361 1.035881 -0.000000
v -6.984653 -0.861301 0.575506
v -6.889361 -0.861301 0.575506
v -6.984653 1.015980 -0.202090
v -6.889361 1.015980 -0.202090
v -6.984653 -0.732480 0.732482
v -6.889361 -0.732480 0.732482
v -6.984653 0.957026 -0.396414
v -6.889361 0.957026 -0.396414
v -6.984653 -0.575505 0.861303
v -6.889361 -0.575505 0.861303
v -6.984653 0.861301 -0.575505
v -6.984653 -0.396414 0.957035
v -7.000003 -0.553110 -0.553109
v -7.000003 -0.566936 -0.848475
v -7.000003 -0.721574 -0.721572
v -7.000003 0.299340 -0.722671
v -7.000003 0.390510 -0.942779
v -7.000003 0.299342 0.722675
v -7.000003 0.199081 1.000848
v -7.000003 0.390512 0.942783
v -7.000003 -0.650389 -0.434574
v -7.000003 -0.848477 -0.566934
v -7.000003 0.434576 0.650390
v -7.000003 0.566935 0.848479
v -7.000003 -0.942781 -0.390511
v -7.000003 -0.152603 -0.767184
v -7.000003 -0.199082 -1.000844
v -7.000003 0.721574 0.721576
v -7.000003 -0.767186 -0.152602
v -7.000003 -1.000846 -0.199080
v -7.000003 0.650389 0.434577
v -7.000003 0.848477 0.566936
v -7.000003 -0.782215 0.000001
v -7.000003 -1.020460 0.000001
v -7.000003 0.942781 0.390512
v -7.000003 -0.767186 0.152604
v -7.000003 -1.000846 0.199083
v -7.000003 1.000846 0.199082
v -7.000003 0.722673 0.299342
v -7.000003 -0.722673 0.299342
v -7.000003 -0.942781 0.390513
v -7.000003 1.020453 -0.000000
v -7.000003 0.767186 0.152603
v -7.000003 -0.650389 0.434577
v -7.000003 -0.848477 0.566937
v -7.000003 1.000846 -0.199081
v -7.000003 0.782215 0.000001
v -7.000003 -0.553111 0.553112
v -7.000003 -0.721574 0.721576
v -7.000003 0.942781 -0.390511
v -7.000003 0.767186 -0.152602
v -7.000003 -0.434576 0.650390
v -7.000003 -0.566935 0.848479
v -7.000003 0.650388 -0.434576
v -7.000003 0.848477 -0.566935
v -7.000003 -0.299341 0.722675
v -7.000003 -0.390512 0.942783
v -7.000003 0.553110 -0.553109
v -7.000003 0.721574 -0.721572
v -7.000003 -0.152603 0.767188
v -7.000003 -0.199081 1.000848
v -7.000003 -0.299341 -0.722671
v -7.000003 -0.390512 -0.942779
v -7.000003 0.566934 -0.848475
v -7.000003 -0.000000 1.020455
v -7.000003 0.434575 -0.650388
v -7.000003 -0.000000 0.782217
v -6.822448 -0.163176 -0.820342
v -6.855908 -0.556828 -0.833348
v -6.855908 -0.833350 -0.556826
v -6.855908 -1.002260 0.000001
v -6.855908 -0.833350 0.556829
v -6.855908 0.556828 0.833352
v -6.855908 0.925974 0.383550
v -7.000003 -0.000000 -0.782213
v -6.971661 -0.288444 -0.696363
v -7.000003 -0.434576 -0.650387
v -6.971661 -0.626712 -0.418754
v -7.000003 -0.722673 -0.299340
v -6.971661 -0.696364 -0.288442
v -6.971661 -0.739256 0.147049
v -6.971661 -0.696364 0.288445
v -6.971661 -0.626712 0.418757
v -6.971661 -0.532975 0.532976
v -6.971661 -0.000000 0.753741
v -6.971661 0.147047 0.739258
v -7.000003 0.152603 0.767188
v -6.971661 0.288444 0.696365
v -6.971661 0.418755 0.626713
v -7.000003 0.553110 0.553111
v -6.971661 0.626711 0.418756
v -6.971661 0.739256 0.147048
v -6.971661 0.753739 0.000001
v -6.971661 0.739256 -0.147046
v -7.000003 0.722673 -0.299341
v -6.971661 0.696363 -0.288443
v -6.971661 0.626711 -0.418754
v -6.971661 0.418754 -0.626710
v -6.971661 0.288443 -0.696363
v -6.822448 -0.000000 0.836418
v -6.855908 -0.383550 0.925969
v -6.855908 -0.000000 1.002262
v -6.984653 -1.015980 0.202092
vn -0.9326 0.0704 -0.3540
vn -0.9159 -0.0000 -0.4015
vn -0.9326 -0.0000 -0.3608
vn -0.9326 -0.1381 -0.3334
vn -0.9159 -0.0783 -0.3938
vn -0.9158 -0.1537 -0.3710
vn -0.9326 -0.2005 -0.3000
vn -0.9158 -0.2231 -0.3339
vn -0.9158 -0.2839 -0.2839
vn -0.9326 -0.2552 -0.2552
vn -0.9326 -0.3000 -0.2005
vn -0.9158 -0.3339 -0.2231
vn -0.9159 -0.3709 -0.1536
vn -0.9326 -0.3334 -0.1381
vn -0.9326 -0.3539 -0.0704
vn -0.9159 -0.3938 -0.0783
vn -0.9326 -0.3608 -0.0000
vn -0.9159 -0.4015 -0.0000
vn -0.9159 -0.3938 0.0783
vn -0.9326 -0.3540 0.0704
vn -0.9326 -0.3333 0.1381
vn -0.9159 -0.3709 0.1536
vn -0.9326 -0.3000 0.2005
vn -0.9158 -0.3339 0.2231
vn -0.9158 -0.2839 0.2839
vn -0.9326 -0.2552 0.2552
vn -0.9326 -0.2005 0.3000
vn -0.9158 -0.2231 0.3339
vn -0.9326 -0.1381 0.3334
vn -0.9158 -0.1537 0.3710
vn -0.9326 -0.0704 0.3539
vn -0.9159 -0.0783 0.3938
vn -0.9326 -0.0000 0.3608
vn -0.9159 -0.0000 0.4015
vn -0.9159 0.0783 0.3938
vn -0.9326 0.0704 0.3540
vn -0.9159 0.1537 0.3709
vn -0.9326 0.1381 0.3334
vn -0.9326 0.2005 0.3000
vn -0.9158 0.2231 0.3339
vn -0.9158 0.2839 0.2839
vn -0.9326 0.2552 0.2552
vn -0.9158 0.3339 0.2231
vn -0.9326 0.3000 0.2005
vn -0.9158 0.3710 0.1537
vn -0.9326 0.3334 0.1381
vn -0.9159 0.3938 0.0783
vn -0.9326 0.3539 0.0704
vn -0.9159 0.4015 -0.0000
vn -0.9326 0.3609 -0.0000
vn -0.9326 0.3539 -0.0704
vn -0.9159 0.3938 -0.0783
vn -0.9158 0.3710 -0.1537
vn -0.9326 0.3334 -0.1381
vn -0.9158 0.3339 -0.2231
vn -0.9326 0.3000 -0.2005
vn -0.9158 0.2839 -0.2839
vn -0.9326 0.2552 -0.2552
vn -0.9158 0.2231 -0.3339
vn -0.9326 0.2005 -0.3000
vn -0.9158 0.1537 -0.3710
vn -0.9326 0.1381 -0.3333
vn -0.9159 0.0783 -0.3938
vn 0.3925 -0.3520 -0.8497
vn -0.3925 -0.1795 -0.9021
vn -0.3925 -0.3520 -0.8497
vn -0.9326 -0.0704 -0.3539
vn 0.3925 -0.5110 -0.7647
vn -0.3925 -0.5110 -0.7647
vn 0.3925 -0.6504 0.6504
vn -0.3925 -0.7647 0.5110
vn -0.3925 -0.6504 0.6504
vn 0.3925 0.7647 0.5110
vn -0.3925 0.6504 0.6504
vn -0.3925 0.7647 0.5110
vn 0.3925 0.3520 -0.8497
vn -0.3925 0.5110 -0.7647
vn -0.3926 0.3520 -0.8497
vn 0.3925 -0.9197 -0.0000
vn -0.3925 -0.9021 -0.1794
vn -0.3925 -0.9197 -0.0000
vn 0.3925 0.1794 0.9021
vn -0.3925 -0.0000 0.9197
vn -0.3925 0.1794 0.9021
vn 0.3925 0.8497 -0.3520
vn -0.3925 0.9021 -0.1794
vn -0.3925 0.8497 -0.3520
vn 0.3925 -0.6504 -0.6504
vn -0.3925 -0.6504 -0.6504
vn 0.3925 -0.5110 0.7647
vn -0.3925 -0.5110 0.7647
vn 0.3926 0.8497 0.3520
vn -0.3926 0.8497 0.3520
vn 0.3925 0.1794 -0.9021
vn -0.3925 0.1794 -0.9021
vn 0.3925 -0.9021 0.1794
vn -0.3925 -0.9021 0.1794
vn 0.3925 0.3520 0.8497
vn -0.3926 0.3520 0.8497
vn 0.3925 0.7647 -0.5110
vn -0.3925 0.7647 -0.5110
vn 0.3925 -0.7647 -0.5110
vn -0.3925 -0.7647 -0.5110
vn 0.3925 -0.3520 0.8497
vn -0.3926 -0.3520 0.8497
vn 0.3925 0.9021 0.1794
vn -0.3925 0.9021 0.1794
vn 0.3925 -0.0000 -0.9197
vn -0.3925 -0.0000 -0.9197
vn 0.3926 -0.8497 0.3520
vn -0.3926 -0.8497 0.3520
vn 0.3925 0.5110 0.7647
vn -0.3925 0.5110 0.7647
vn 0.3925 0.6504 -0.6504
vn -0.3925 0.6504 -0.6504
vn 0.3926 -0.8497 -0.3520
vn -0.3926 -0.8497 -0.3520
vn 0.3925 -0.1794 0.9021
vn -0.3925 -0.1794 0.9021
vn 0.3925 0.9197 -0.0000
vn -0.3925 0.9197 -0.0000
vn -0.3756 0.1808 -0.9090
vn 0.3756 -0.0000 -0.9268
vn -0.3756 -0.0000 -0.9268
vn 0.3925 -0.7647 0.5110
vn 0.3925 0.6504 0.6504
vn 0.3925 0.5110 -0.7647
vn 0.3925 -0.9021 -0.1794
vn 0.3925 -0.0000 0.9197
vn 0.3925 0.9021 -0.1794
vn -0.3756 0.7706 -0.5149
vn 0.3755 0.6553 -0.6554
vn -0.3756 0.6553 -0.6553
vn -0.3756 -0.3547 0.8562
vn 0.3756 -0.1808 0.9090
vn -0.3756 -0.1808 0.9090
vn -0.3756 -0.1808 -0.9090
vn 0.3755 -0.3547 -0.8563
vn -0.3756 -0.3547 -0.8562
vn 0.3755 0.5149 -0.7706
vn -0.3756 0.5149 -0.7706
vn 0.3755 -0.0000 0.9268
vn -0.3756 -0.0000 0.9268
vn 0.3755 -0.5149 -0.7706
vn -0.3756 -0.5149 -0.7706
vn 0.3756 0.3547 -0.8562
vn -0.3756 0.3547 -0.8562
vn 0.3756 0.1808 0.9090
vn -0.3756 0.1808 0.9090
vn 0.3755 -0.6554 -0.6553
vn -0.3756 -0.6553 -0.6553
vn 0.3756 0.1808 -0.9090
vn 0.3756 0.3547 0.8562
vn -0.3756 0.3547 0.8562
vn 0.3755 -0.7706 -0.5149
vn -0.3756 -0.7706 -0.5149
vn 0.9158 -0.0000 -0.4015
vn 0.9326 -0.0704 0.3539
vn 0.9326 -0.0000 0.3609
vn 0.3755 0.5149 0.7706
vn -0.3756 0.5149 0.7706
vn 0.3756 -0.8562 -0.3547
vn -0.3756 -0.8562 -0.3547
vn 0.3756 -0.1808 -0.9090
vn 0.3755 0.6554 0.6554
vn -0.3756 0.6553 0.6553
vn 0.3756 -0.9090 -0.1808
vn -0.3756 -0.9090 -0.1808
vn 0.3755 0.7706 0.5149
vn -0.3756 0.7706 0.5149
vn 0.3755 -0.9268 -0.0000
vn -0.3756 -0.9268 -0.0000
vn 0.3756 0.8562 0.3547
vn -0.3756 0.8562 0.3547
vn 0.3756 -0.9090 0.1808
vn -0.3756 -0.9090 0.1808
vn 0.3756 0.9090 0.1808
vn -0.3756 0.9090 0.1808
vn 0.3756 -0.8562 0.3547
vn -0.3756 -0.8562 0.3547
vn 0.3756 0.9268 -0.0000
vn -0.3756 0.9268 -0.0000
vn 0.3755 -0.7706 0.5149
vn -0.3756 -0.7706 0.5149
vn 0.3756 0.9090 -0.1808
vn -0.3756 0.9090 -0.1808
vn 0.3755 -0.6554 0.6554
vn -0.3756 -0.6553 0.6553
vn 0.3755 0.8563 -0.3547
vn -0.3756 0.8562 -0.3547
vn 0.3755 -0.5149 0.7706
vn -0.3756 -0.5149 0.7706
vn 0.3755 0.7706 -0.5149
vn 0.3756 -0.3547 0.8562
vn 0.9158 -0.2231 -0.3339
vn 0.9326 0.2552 0.2552
vn 0.9158 -0.2840 -0.2840
vn 0.9159 0.0783 -0.3938
vn 0.9326 -0.1381 0.3334
vn 0.9158 0.1537 0.3710
vn 0.9326 -0.0704 -0.3539
vn 0.9326 -0.1381 -0.3334
vn 0.9326 0.3001 0.2005
vn 0.9158 -0.3339 -0.2231
vn 0.9326 -0.2005 -0.3000
vn 0.9158 0.2231 0.3339
vn 0.9158 -0.3710 -0.1537
vn 0.9326 0.3334 0.1381
vn 0.9326 0.0704 0.3539
vn 0.9159 -0.0783 -0.3938
vn 0.9158 0.2840 0.2840
vn 0.9326 -0.2552 -0.2552
vn 0.9326 0.3539 0.0704
vn 0.9159 -0.3938 -0.0783
vn 0.9326 -0.3000 -0.2005
vn 0.9158 0.3339 0.2231
vn 0.9326 0.3609 -0.0000
vn 0.9158 -0.4016 -0.0000
vn 0.9158 0.3710 0.1537
vn 0.9326 -0.3334 -0.1381
vn 0.9326 0.3539 -0.0704
vn 0.9159 -0.3938 0.0783
vn 0.9159 0.3938 0.0783
vn 0.9326 -0.3539 -0.0704
vn 0.9326 0.3334 -0.1381
vn 0.9158 -0.3710 0.1537
vn 0.9158 0.4015 -0.0000
vn 0.9326 -0.3609 -0.0000
vn 0.9326 0.3001 -0.2005
vn 0.9158 -0.3339 0.2231
vn 0.9159 0.3938 -0.0783
vn 0.9326 -0.3539 0.0704
vn 0.9326 0.2552 -0.2552
vn 0.9158 -0.2840 0.2840
vn 0.9158 0.3711 -0.1537
vn 0.9326 -0.3334 0.1381
vn 0.9326 0.2005 -0.3000
vn 0.9158 -0.2231 0.3339
vn 0.9326 -0.3000 0.2005
vn 0.9158 0.3339 -0.2231
vn 0.9326 0.1381 -0.3334
vn 0.9158 -0.1537 0.3710
vn 0.9326 -0.2552 0.2552
vn 0.9158 0.2840 -0.2840
vn 0.9326 0.0704 -0.3539
vn 0.9159 -0.0783 0.3938
vn 0.9326 0.1381 0.3334
vn 0.9158 -0.1537 -0.3711
vn 0.9158 0.2231 -0.3339
vn 0.9326 -0.2005 0.3000
vn 0.9326 -0.0000 -0.3609
vn 0.9158 -0.0000 0.4016
vn 0.9326 0.2005 0.3000
vn 0.9158 0.1537 -0.3710
vn 0.9159 0.0783 0.3938
vn 0.3925 -0.8497 -0.3520
vn -0.3925 -0.8497 -0.3520
vn 0.3925 -0.8497 0.3520
vn -0.3925 -0.8497 0.3520
vn -0.3925 0.3520 -0.8497
vn -0.3925 0.3520 0.8497
vn -0.3925 -0.3520 0.8497
vn 0.3925 -0.1794 -0.9021
vn -0.3925 -0.1794 -0.9021
vn 0.3925 0.8497 0.3520
vn -0.3925 0.8497 0.3520
vn 0.9159 -0.0000 -0.4015
vn 0.9326 -0.0000 -0.3608
vn 0.9158 -0.1537 -0.3710
vn 0.9326 -0.0704 -0.3540
vn 0.9158 -0.2839 -0.2839
vn 0.9159 -0.3709 -0.1536
vn 0.9326 -0.3608 -0.0000
vn 0.9159 -0.3709 0.1536
vn 0.9158 -0.2839 0.2839
vn 0.9326 -0.0000 0.3608
vn 0.9326 0.0704 0.3540
vn 0.9158 0.2839 0.2839
vn 0.9326 0.3000 0.2005
vn 0.9159 0.4015 -0.0000
vn 0.9326 0.3608 -0.0000
vn 0.9158 0.3710 -0.1537
vn 0.9326 0.3000 -0.2005
vn 0.9158 0.2839 -0.2839
vn 0.9159 0.2231 -0.3338
vn -0.3755 -0.0000 -0.9268
vn -0.3756 0.6554 -0.6553
vn 0.3756 0.7706 -0.5149
vn 0.3756 0.6553 -0.6553
vn -0.3757 -0.1808 0.9090
vn 0.3756 -0.3547 -0.8562
vn 0.3756 0.5149 -0.7706
vn 0.3756 -0.0000 0.9268
vn 0.3756 -0.5149 -0.7706
vn -0.3757 0.1808 0.9089
vn 0.3756 -0.6553 -0.6553
vn -0.3755 0.3547 0.8563
vn 0.3756 -0.7706 -0.5149
vn -0.9158 -0.0000 -0.4016
vn 0.3756 0.5149 0.7706
vn 0.3756 0.6553 0.6553
vn -0.3757 -0.9090 -0.1808
vn 0.3756 0.7706 0.5149
vn -0.3755 -0.9268 -0.0000
vn 0.3756 -0.9268 -0.0000
vn 0.3756 -0.7706 0.5149
vn -0.3757 0.9090 -0.1808
vn -0.3756 -0.6553 0.6554
vn 0.3756 -0.6553 0.6553
vn -0.3755 0.8563 -0.3547
vn 0.3756 0.8562 -0.3547
vn 0.3756 -0.5149 0.7706
vn -0.9158 -0.2840 -0.2840
vn -0.9158 0.1537 0.3711
vn -0.9158 -0.3710 -0.1537
vn -0.9326 0.0704 0.3539
vn -0.9158 0.2840 0.2840
vn -0.9159 -0.3937 -0.0783
vn -0.9158 -0.4016 -0.0000
vn -0.9158 -0.3710 0.1537
vn -0.9326 -0.3609 -0.0000
vn -0.9158 -0.2839 0.2840
vn -0.9158 0.3711 -0.1537
vn -0.9326 -0.3539 0.0704
vn -0.9326 0.2005 -0.3001
vn -0.9326 0.1381 -0.3334
vn -0.9158 0.2840 -0.2840
vn -0.9326 0.0704 -0.3539
vn -0.9159 0.2230 -0.3338
vn -0.9326 -0.0000 -0.3609
vn 0.9159 -0.4015 -0.0000
vn -0.9326 -0.0000 0.3609
vn -0.9326 -0.3334 0.1381
vn 0.9159 -0.1536 0.3709
vn 0.9159 -0.0000 0.4015
vt 0.258272 0.057510
vt 0.243225 0.046582
vt 0.243306 0.057459
vt 0.213372 0.057341
vt 0.228260 0.046526
vt 0.213297 0.046466
vt 0.198409 0.057270
vt 0.198340 0.046401
vt 0.183392 0.046325
vt 0.183452 0.057187
vt 0.168503 0.057088
vt 0.168453 0.046230
vt 0.153542 0.046103
vt 0.153563 0.056966
vt 0.138608 0.056825
vt 0.138618 0.045988
vt 0.123641 0.056626
vt 0.123684 0.045770
vt 0.108771 0.045511
vt 0.108672 0.056370
vt 0.093690 0.056045
vt 0.093853 0.045175
vt 0.078677 0.055638
vt 0.078915 0.044742
vt 0.063927 0.044195
vt 0.063611 0.055141
vt 0.048460 0.054567
vt 0.048826 0.043534
vt 0.033177 0.053991
vt 0.033479 0.042807
vt 0.017708 0.053647
vt 0.017592 0.042178
vt 0.002101 0.054240
vt 0.000447 0.042199
vt 0.483801 0.055043
vt 0.467569 0.043182
vt 0.467959 0.054810
vt 0.451839 0.044186
vt 0.452486 0.055330
vt 0.437321 0.055946
vt 0.436706 0.045027
vt 0.421815 0.045664
vt 0.422324 0.056479
vt 0.407012 0.046118
vt 0.407412 0.056893
vt 0.392225 0.046425
vt 0.392535 0.057192
vt 0.377425 0.046620
vt 0.377665 0.057396
vt 0.362599 0.046734
vt 0.362789 0.057526
vt 0.347899 0.057600
vt 0.347746 0.046791
vt 0.332865 0.046808
vt 0.332992 0.057634
vt 0.317960 0.046797
vt 0.318071 0.057639
vt 0.303036 0.046770
vt 0.303136 0.057624
vt 0.288097 0.046731
vt 0.288189 0.057595
vt 0.273146 0.046685
vt 0.273234 0.057556
vt 0.258188 0.046635
vt 0.213237 0.939677
vt 0.228350 0.061593
vt 0.213382 0.061530
vt 0.228339 0.057403
vt 0.198271 0.939668
vt 0.198416 0.061458
vt 0.063371 0.941023
vt 0.078574 0.059848
vt 0.063484 0.059372
vt 0.407430 0.941214
vt 0.422489 0.060664
vt 0.407542 0.061060
vt 0.273104 0.939786
vt 0.288207 0.061780
vt 0.273249 0.061744
vt 0.123469 0.939900
vt 0.138588 0.061011
vt 0.123605 0.060816
vt 0.468008 0.943325
vt 0.483382 0.059426
vt 0.468025 0.059206
vt 0.332887 0.940049
vt 0.347940 0.061770
vt 0.333024 0.061809
vt 0.183312 0.939671
vt 0.183455 0.061373
vt 0.048222 0.941496
vt 0.048321 0.058829
vt 0.392515 0.940839
vt 0.392634 0.061353
vt 0.258141 0.939750
vt 0.258286 0.061700
vt 0.108484 0.940072
vt 0.108617 0.060562
vt 0.452607 0.942876
vt 0.452674 0.059614
vt 0.317956 0.939957
vt 0.318096 0.061818
vt 0.168359 0.939690
vt 0.168501 0.061272
vt 0.033002 0.941974
vt 0.033078 0.058291
vt 0.377614 0.940551
vt 0.377740 0.061557
vt 0.243174 0.939719
vt 0.243319 0.061649
vt 0.093484 0.940309
vt 0.093612 0.060243
vt 0.437425 0.942262
vt 0.437515 0.060165
vt 0.303014 0.939886
vt 0.303156 0.061806
vt 0.153414 0.939730
vt 0.153554 0.061151
vt 0.017760 0.942226
vt 0.017786 0.057997
vt 0.362714 0.940333
vt 0.362844 0.061691
vt 0.258205 0.043043
vt 0.243329 0.035882
vt 0.243242 0.042989
vt 0.078452 0.940623
vt 0.422386 0.941690
vt 0.288063 0.939831
vt 0.138450 0.939787
vt 0.002733 0.941676
vt 0.002571 0.058474
vt 0.347806 0.940171
vt 0.317970 0.043217
vt 0.303132 0.036097
vt 0.303050 0.043185
vt 0.033667 0.039065
vt 0.018242 0.030514
vt 0.017701 0.038261
vt 0.228277 0.042933
vt 0.213403 0.035771
vt 0.213315 0.042875
vt 0.288197 0.036047
vt 0.288112 0.043143
vt 0.000456 0.028832
vt 0.000134 0.037914
vt 0.198450 0.035715
vt 0.198360 0.042812
vt 0.273249 0.035993
vt 0.273163 0.043095
vt 0.484882 0.038007
vt 0.466660 0.031670
vt 0.467329 0.039270
vt 0.183512 0.035648
vt 0.183415 0.042738
vt 0.258292 0.035938
vt 0.451111 0.033283
vt 0.451606 0.040496
vt 0.168589 0.035568
vt 0.168480 0.042649
vt 0.243336 0.034247
vt 0.257997 0.013399
vt 0.243030 0.013339
vt 0.436178 0.034379
vt 0.436522 0.041432
vt 0.153690 0.035469
vt 0.153571 0.042561
vt 0.228365 0.035827
vt 0.421465 0.035113
vt 0.421682 0.042108
vt 0.138803 0.035307
vt 0.138661 0.042368
vt 0.406799 0.035589
vt 0.406922 0.042573
vt 0.123914 0.035125
vt 0.123743 0.042190
vt 0.392115 0.035885
vt 0.392168 0.042879
vt 0.109052 0.034875
vt 0.108848 0.041934
vt 0.377389 0.036056
vt 0.377393 0.043068
vt 0.094204 0.034538
vt 0.093952 0.041596
vt 0.362614 0.036143
vt 0.362585 0.043174
vt 0.079355 0.034087
vt 0.079043 0.041155
vt 0.347795 0.036174
vt 0.347743 0.043223
vt 0.064471 0.033489
vt 0.064085 0.040588
vt 0.332937 0.036168
vt 0.332870 0.043233
vt 0.049479 0.032709
vt 0.049011 0.039884
vt 0.318047 0.036139
vt 0.034208 0.031718
vt 0.198457 0.034081
vt 0.183231 0.013180
vt 0.183520 0.034016
vt 0.258298 0.034303
vt 0.272960 0.013467
vt 0.450958 0.031622
vt 0.462476 0.009915
vt 0.448542 0.011838
vt 0.168319 0.013119
vt 0.168598 0.033938
vt 0.434491 0.012912
vt 0.436075 0.032761
vt 0.153704 0.033841
vt 0.153458 0.013076
vt 0.228059 0.013284
vt 0.228371 0.034191
vt 0.421397 0.033509
vt 0.420302 0.013506
vt 0.138645 0.012971
vt 0.138823 0.033681
vt 0.405970 0.013817
vt 0.406757 0.033987
vt 0.123850 0.012829
vt 0.123938 0.033500
vt 0.392090 0.034279
vt 0.391503 0.013954
vt 0.109107 0.012633
vt 0.109085 0.033252
vt 0.377376 0.034446
vt 0.376917 0.013985
vt 0.094429 0.012354
vt 0.094250 0.032916
vt 0.362610 0.034527
vt 0.362231 0.013952
vt 0.079819 0.011946
vt 0.079416 0.032463
vt 0.347796 0.034553
vt 0.347465 0.013884
vt 0.065270 0.011349
vt 0.064552 0.031858
vt 0.332941 0.034543
vt 0.332637 0.013800
vt 0.050756 0.010471
vt 0.049583 0.031056
vt 0.317760 0.013711
vt 0.318052 0.034511
vt 0.036261 0.009199
vt 0.034338 0.030017
vt 0.302849 0.013624
vt 0.303138 0.034466
vt 0.021718 0.007177
vt 0.018411 0.028699
vt 0.213078 0.013235
vt 0.213409 0.034137
vt 0.288204 0.034414
vt 0.287913 0.013542
vt 0.007150 0.003877
vt 0.000756 0.026859
vt 0.198136 0.013227
vt 0.273256 0.034359
vt 0.466427 0.029924
vt 0.476127 0.006504
vt 0.622636 0.127772
vt 0.607944 0.986469
vt 0.622933 0.986546
vt 0.832476 0.128855
vt 0.817784 0.987552
vt 0.832772 0.987630
vt 0.637625 0.127849
vt 0.637921 0.986624
vt 0.847465 0.128933
vt 0.847761 0.987707
vt 0.652613 0.127927
vt 0.652910 0.986701
vt 0.862453 0.129010
vt 0.862750 0.987784
vt 0.667602 0.128004
vt 0.667899 0.986778
vt 0.877442 0.129088
vt 0.877738 0.987862
vt 0.682591 0.128081
vt 0.682887 0.986856
vt 0.892430 0.129165
vt 0.892727 0.987939
vt 0.697579 0.128159
vt 0.697876 0.986933
vt 0.907419 0.129242
vt 0.907715 0.988016
vt 0.712568 0.128236
vt 0.712864 0.987011
vt 0.922407 0.129320
vt 0.922704 0.988094
vt 0.727556 0.128313
vt 0.727853 0.987088
vt 0.937396 0.129397
vt 0.937692 0.988171
vt 0.742545 0.128391
vt 0.742841 0.987165
vt 0.547694 0.127385
vt 0.533001 0.986082
vt 0.547990 0.986160
vt 0.952384 0.129475
vt 0.952681 0.988248
vt 0.757533 0.128468
vt 0.757830 0.987243
vt 0.562682 0.127462
vt 0.562979 0.986237
vt 0.967373 0.129552
vt 0.967669 0.988326
vt 0.772522 0.128546
vt 0.772818 0.987320
vt 0.577671 0.127540
vt 0.577967 0.986314
vt 0.982361 0.129630
vt 0.982658 0.988403
vt 0.787511 0.128623
vt 0.787807 0.987397
vt 0.592659 0.127617
vt 0.592956 0.986392
vt 0.802499 0.128700
vt 0.802796 0.987475
vt 0.607648 0.127694
vt 0.532705 0.127307
vt 0.518013 0.986005
vt 0.817487 0.128778
vt 0.484854 0.042385
vt 0.483752 0.029112
vt 0.483339 0.027248
vt 0.228062 0.009305
vt 0.243034 0.009362
vt 0.213083 0.009246
vt 0.183236 0.009220
vt 0.198141 0.009277
vt 0.168330 0.009151
vt 0.138666 0.009040
vt 0.153475 0.009150
vt 0.123882 0.008908
vt 0.094507 0.008468
vt 0.109157 0.008729
vt 0.079939 0.008081
vt 0.051040 0.006628
vt 0.065455 0.007500
vt 0.036699 0.005376
vt 0.008281 0.000133
vt 0.022413 0.003355
vt 0.461768 0.006279
vt 0.474983 0.002981
vt 0.448142 0.008154
vt 0.434267 0.009182
vt 0.405906 0.009999
vt 0.420179 0.009731
vt 0.391475 0.010100
vt 0.362237 0.010042
vt 0.376910 0.010100
vt 0.347477 0.009954
vt 0.332650 0.009855
vt 0.317773 0.009754
vt 0.302860 0.009659
vt 0.272968 0.009494
vt 0.287922 0.009572
vt 0.258003 0.009424
vt 0.517716 0.127230
vt 0.503025 0.985928
vt 0.242998 0.954786
vt 0.258104 0.943939
vt 0.243138 0.943909
vt 0.213070 0.954739
vt 0.228171 0.943885
vt 0.213204 0.943866
vt 0.198242 0.943856
vt 0.183167 0.954718
vt 0.183286 0.943857
vt 0.168338 0.943874
vt 0.153318 0.954776
vt 0.153400 0.943914
vt 0.138447 0.943973
vt 0.123482 0.944088
vt 0.138396 0.954808
vt 0.108553 0.955117
vt 0.108516 0.944262
vt 0.093539 0.944506
vt 0.078533 0.944832
vt 0.093640 0.955370
vt 0.063734 0.956183
vt 0.063477 0.945250
vt 0.048341 0.945751
vt 0.033087 0.946262
vt 0.048653 0.956762
vt 0.017514 0.957948
vt 0.017674 0.946545
vt 0.002229 0.945863
vt 0.467493 0.959445
vt 0.483942 0.947609
vt 0.467934 0.947752
vt 0.451705 0.958350
vt 0.452404 0.947172
vt 0.437212 0.946488
vt 0.421631 0.956704
vt 0.422199 0.945878
vt 0.406815 0.956165
vt 0.407277 0.945384
vt 0.392392 0.945002
vt 0.377214 0.955493
vt 0.377517 0.944714
vt 0.362384 0.955294
vt 0.362635 0.944499
vt 0.347527 0.955153
vt 0.347741 0.944341
vt 0.332643 0.955052
vt 0.332832 0.944224
vt 0.317737 0.954979
vt 0.317908 0.944136
vt 0.302811 0.954924
vt 0.302971 0.944069
vt 0.287871 0.954880
vt 0.288023 0.944017
vt 0.272920 0.954844
vt 0.273066 0.943974
vt 0.257961 0.954814
vt 0.228033 0.954761
vt 0.243044 0.965486
vt 0.257958 0.958406
vt 0.242995 0.958379
vt 0.302848 0.965598
vt 0.317727 0.958559
vt 0.302805 0.958508
vt 0.018091 0.969563
vt 0.033508 0.961138
vt 0.017600 0.961847
vt 0.213119 0.965434
vt 0.228031 0.958354
vt 0.213069 0.958331
vt 0.287913 0.965565
vt 0.287867 0.958469
vt 0.000381 0.971111
vt 0.000133 0.962071
vt 0.198166 0.965410
vt 0.198114 0.958312
vt 0.272964 0.965537
vt 0.272917 0.958435
vt 0.466507 0.971005
vt 0.484877 0.964776
vt 0.467228 0.963375
vt 0.183228 0.965395
vt 0.183170 0.958304
vt 0.258007 0.965511
vt 0.450912 0.969283
vt 0.451451 0.962050
vt 0.168305 0.965393
vt 0.168236 0.958311
vt 0.243042 0.967121
vt 0.257591 0.988047
vt 0.258005 0.967146
vt 0.435949 0.968092
vt 0.436335 0.961026
vt 0.153407 0.965409
vt 0.153328 0.958317
vt 0.228080 0.965460
vt 0.421217 0.967267
vt 0.421477 0.960264
vt 0.138521 0.965488
vt 0.138419 0.958427
vt 0.406540 0.966702
vt 0.406704 0.959713
vt 0.123633 0.965586
vt 0.123503 0.958521
vt 0.391848 0.966319
vt 0.391943 0.959321
vt 0.108610 0.958693
vt 0.377116 0.966060
vt 0.377161 0.959046
vt 0.093930 0.966003
vt 0.093720 0.958947
vt 0.362338 0.965887
vt 0.362349 0.958854
vt 0.079088 0.966367
vt 0.078817 0.959303
vt 0.347516 0.965771
vt 0.347504 0.958720
vt 0.064217 0.966877
vt 0.063872 0.959785
vt 0.332656 0.965693
vt 0.332628 0.958626
vt 0.049245 0.967567
vt 0.048818 0.960405
vt 0.317764 0.965638
vt 0.034006 0.968464
vt 0.182824 0.987862
vt 0.198164 0.967043
vt 0.183227 0.967027
vt 0.272553 0.988060
vt 0.272962 0.967172
vt 0.448186 0.990768
vt 0.466261 0.972757
vt 0.450747 0.970948
vt 0.167911 0.987841
vt 0.168306 0.967022
vt 0.434115 0.989587
vt 0.435836 0.969712
vt 0.153412 0.967037
vt 0.227652 0.988002
vt 0.228077 0.967096
vt 0.421139 0.968872
vt 0.138235 0.987822
vt 0.138531 0.967114
vt 0.405572 0.988486
vt 0.406488 0.968305
vt 0.123440 0.987879
vt 0.123648 0.967211
vt 0.391813 0.967925
vt 0.108696 0.987988
vt 0.108798 0.967373
vt 0.377093 0.967671
vt 0.391100 0.988256
vt 0.094019 0.988177
vt 0.093966 0.967623
vt 0.362323 0.967503
vt 0.376511 0.988135
vt 0.079413 0.988491
vt 0.079140 0.967989
vt 0.347507 0.967392
vt 0.361824 0.988079
vt 0.064873 0.988991
vt 0.064287 0.968506
vt 0.332650 0.967318
vt 0.347057 0.988061
vt 0.050374 0.989767
vt 0.049339 0.969217
vt 0.317352 0.988065
vt 0.317761 0.967267
vt 0.035904 0.990931
vt 0.034125 0.970160
vt 0.302440 0.988069
vt 0.302845 0.967229
vt 0.021394 0.992840
vt 0.018247 0.971371
vt 0.212671 0.987969
vt 0.213116 0.967069
vt 0.287911 0.967198
vt 0.006856 0.996019
vt 0.000664 0.973077
vt 0.287505 0.988068
vt 0.475820 0.996342
vt 0.483235 0.975577
vt 0.228205 0.939695
vt 0.198114 0.954723
vt 0.168228 0.954730
vt 0.123463 0.954942
vt 0.078710 0.955719
vt 0.436540 0.957425
vt 0.392020 0.955773
vt 0.483664 0.973708
vt 0.242623 0.988027
vt 0.227634 0.991980
vt 0.242606 0.992004
vt 0.212654 0.991958
vt 0.197729 0.987896
vt 0.197712 0.991845
vt 0.182807 0.991821
vt 0.167901 0.991809
vt 0.153049 0.987801
vt 0.153044 0.991727
vt 0.138234 0.991754
vt 0.123449 0.991800
vt 0.108722 0.991892
vt 0.094072 0.992062
vt 0.079508 0.992355
vt 0.065031 0.992837
vt 0.050630 0.993605
vt 0.036312 0.994748
vt 0.022057 0.996655
vt 0.007954 0.999758
vt 0.461406 0.996447
vt 0.474642 0.999867
vt 0.462146 0.992805
vt 0.447758 0.994457
vt 0.433864 0.993322
vt 0.419913 0.988893
vt 0.419763 0.992671
vt 0.405483 0.992305
vt 0.391047 0.992111
vt 0.376481 0.992020
vt 0.361806 0.991990
vt 0.347046 0.991991
vt 0.332228 0.988060
vt 0.332219 0.992005
vt 0.317343 0.992021
vt 0.302430 0.992033
vt 0.287493 0.992037
vt 0.272539 0.992034
vt 0.257575 0.992022
vt 0.483555 0.943175
vt 0.502728 0.127152
vt 0.033339 0.957407
vt 0.000479 0.957813
vt 0.484885 0.960372
vt 0.108773 0.965752
s 1
f 1/1/1 2/2/2 3/3/3
f 4/4/4 5/5/5 6/6/6
f 7/7/7 6/6/6 8/8/8
f 7/7/7 9/9/9 10/10/10
f 11/11/11 9/9/9 12/12/12
f 11/11/11 13/13/13 14/14/14
f 15/15/15 13/13/13 16/16/16
f 17/17/17 16/16/16 18/18/18
f 17/17/17 19/19/19 20/20/20
f 21/21/21 19/19/19 22/22/22
f 23/23/23 22/22/22 24/24/24
f 23/23/23 25/25/25 26/26/26
f 27/27/27 25/25/25 28/28/28
f 29/29/29 28/28/28 30/30/30
f 31/31/31 30/30/30 32/32/32
f 33/33/33 32/32/32 279/34/34
f 33/35/33 34/36/35 35/37/36
f 35/37/36 36/38/37 37/39/38
f 38/40/39 36/38/37 39/41/40
f 38/40/39 40/42/41 41/43/42
f 41/43/42 42/44/43 43/45/44
f 43/45/44 44/46/45 45/47/46
f 45/47/46 46/48/47 47/49/48
f 47/49/48 48/50/49 49/51/50
f 50/52/51 48/50/49 51/53/52
f 50/52/51 52/54/53 53/55/54
f 53/55/54 54/56/55 55/57/56
f 55/57/56 56/58/57 57/59/58
f 57/59/58 58/60/59 59/61/60
f 59/61/60 60/62/61 61/63/62
f 61/63/62 62/64/63 1/1/1
f 63/65/64 64/66/65 65/67/66
f 3/3/3 5/5/5 66/68/67
f 67/69/68 65/67/66 68/70/69
f 69/71/70 70/72/71 71/73/72
f 72/74/73 73/75/74 74/76/75
f 75/77/76 76/78/77 77/79/78
f 78/80/79 79/81/80 80/82/81
f 81/83/82 82/84/83 83/85/84
f 84/86/85 85/87/86 86/88/87
f 87/89/88 68/70/69 88/90/89
f 89/91/90 71/73/72 90/92/91
f 91/93/92 74/76/75 92/94/93
f 93/95/94 77/79/78 94/96/95
f 95/97/96 80/82/81 96/98/97
f 97/99/98 83/85/84 98/100/99
f 99/101/100 86/88/87 100/102/101
f 101/103/102 88/90/89 102/104/103
f 103/105/104 90/92/91 104/106/105
f 105/107/106 92/94/93 106/108/107
f 107/109/108 94/96/95 108/110/109
f 109/111/110 96/98/97 110/112/111
f 111/113/112 98/100/99 112/114/113
f 113/115/114 100/102/101 114/116/115
f 115/117/116 102/104/103 116/118/117
f 117/119/118 104/106/105 118/120/119
f 119/121/120 106/108/107 120/122/121
f 121/123/122 122/124/123 123/125/124
f 124/126/125 110/112/111 70/72/71
f 125/127/126 112/114/113 73/75/74
f 126/128/127 114/116/115 76/78/77
f 127/129/128 116/118/117 79/81/80
f 509/130/129 118/120/119 82/131/83
f 128/132/130 120/122/121 85/87/86
f 129/133/131 130/134/132 131/135/133
f 132/136/134 133/137/135 134/138/136
f 135/139/137 136/140/138 137/141/139
f 131/135/133 138/142/140 139/143/141
f 134/138/136 280/144/142 144/145/143
f 137/141/139 140/146/144 141/147/145
f 139/143/141 142/148/146 143/149/147
f 144/150/143 145/151/148 146/152/149
f 141/147/145 147/153/150 148/154/151
f 143/149/147 149/155/152 121/123/122
f 146/152/149 150/156/153 151/157/154
f 148/154/151 152/158/155 153/159/156
f 154/160/157 155/161/158 156/162/159
f 151/157/154 157/163/160 158/164/161
f 153/159/156 159/165/162 160/166/163
f 123/125/124 161/167/164 135/139/137
f 158/164/161 162/168/165 163/169/166
f 160/166/163 164/170/167 165/171/168
f 163/169/166 166/172/169 167/173/170
f 165/171/168 168/174/171 169/175/172
f 167/173/170 170/176/173 171/177/174
f 169/175/172 172/178/175 173/179/176
f 171/177/174 174/180/177 175/181/178
f 173/179/176 176/182/179 177/183/180
f 175/181/178 178/184/181 179/185/182
f 177/183/180 180/186/183 181/187/184
f 179/185/182 182/188/185 183/189/186
f 181/187/184 184/190/187 185/191/188
f 183/189/186 186/192/189 187/193/190
f 185/191/188 188/194/191 189/195/192
f 187/193/190 190/196/193 129/133/131
f 189/195/192 191/197/194 132/136/134
f 192/198/195 193/199/196 194/200/197
f 195/201/198 196/202/199 155/161/158
f 197/203/200 198/204/201 199/205/202
f 194/200/197 200/206/203 201/207/204
f 197/203/200 202/208/205 203/209/206
f 204/210/207 200/206/203 205/211/208
f 154/160/157 206/212/209 207/213/210
f 208/214/211 202/208/205 209/215/212
f 204/210/207 210/216/213 211/217/214
f 208/214/211 212/218/215 213/219/216
f 211/217/214 214/220/217 215/221/218
f 216/222/219 212/218/215 217/223/220
f 215/221/218 218/224/221 219/225/222
f 220/226/223 217/223/220 221/227/224
f 219/225/222 222/228/225 223/229/226
f 224/230/227 221/227/224 225/231/228
f 223/229/226 226/232/229 227/233/230
f 228/234/231 225/231/228 229/235/232
f 227/233/230 230/236/233 231/237/234
f 232/238/235 229/235/232 233/239/236
f 231/237/234 234/240/237 235/241/238
f 232/238/235 236/242/239 237/243/240
f 235/241/238 238/244/241 239/245/242
f 237/243/240 240/246/243 241/247/244
f 239/245/242 242/248/245 243/249/246
f 207/213/210 244/250/247 245/251/248
f 246/252/249 240/246/243 247/253/250
f 243/249/246 251/254/251 281/255/252
f 192/198/195 244/250/247 248/256/253
f 249/257/254 247/253/250 196/202/199
f 250/258/255 251/259/251 198/204/201
f 285/260/120 252/261/107 253/262/121
f 254/263/256 500/264/103 255/265/257
f 287/266/130 253/262/121 490/267/86
f 295/268/128 255/265/257 501/269/80
f 286/270/85 490/267/86 491/271/87
f 294/272/79 501/269/80 502/273/81
f 288/274/100 491/271/87 492/275/101
f 256/276/96 502/273/81 503/277/97
f 290/278/114 492/275/101 493/279/115
f 257/280/258 503/277/97 505/281/259
f 289/282/127 493/279/115 258/283/77
f 296/284/125 505/281/259 506/285/71
f 291/286/76 258/283/77 259/287/260
f 297/288/70 506/285/71 260/289/72
f 261/290/94 259/287/260 262/291/95
f 298/292/90 260/289/72 507/293/91
f 263/294/108 262/291/95 494/295/109
f 264/296/112 485/297/261 265/298/113
f 266/299/104 507/293/91 508/300/262
f 292/301/263 494/295/109 495/302/264
f 267/303/126 265/298/113 268/304/74
f 269/305/118 508/300/262 270/306/119
f 271/307/64 495/302/264 497/308/66
f 284/309/73 268/304/74 487/310/75
f 272/311/129 270/306/119 299/312/83
f 273/313/68 497/308/66 498/314/69
f 274/315/265 487/310/75 489/316/266
f 293/317/88 498/314/69 275/318/89
f 276/319/106 489/316/266 252/261/107
f 283/320/98 277/321/84 485/297/261
f 278/322/102 275/318/89 500/264/103
f 3/3/3 64/66/65 108/110/109
f 66/68/67 65/67/66 64/66/65
f 7/7/7 65/67/66 4/4/4
f 10/10/10 68/70/69 7/7/7
f 10/10/10 102/104/103 88/90/89
f 14/14/14 102/104/103 11/11/11
f 15/15/15 116/118/117 14/14/14
f 15/15/15 80/82/81 79/81/80
f 17/17/17 96/98/97 80/82/81
f 21/21/21 96/98/97 20/20/20
f 21/21/21 70/72/71 110/112/111
f 26/26/26 70/72/71 23/23/23
f 26/26/26 90/92/91 71/73/72
f 27/27/27 104/106/105 90/92/91
f 31/31/31 104/106/105 29/29/29
f 31/31/31 82/131/83 118/120/119
f 33/35/33 83/85/84 82/84/83
f 37/39/38 83/85/84 35/37/36
f 38/40/39 98/100/99 37/39/38
f 38/40/39 73/75/74 112/114/113
f 43/45/44 73/75/74 41/43/42
f 45/47/46 74/76/75 43/45/44
f 47/49/48 92/94/93 45/47/46
f 47/49/48 120/122/121 106/108/107
f 50/52/51 120/122/121 49/51/50
f 53/55/54 85/87/86 50/52/51
f 53/55/54 100/102/101 86/88/87
f 57/59/58 100/102/101 55/57/56
f 59/61/60 114/116/115 57/59/58
f 61/63/62 76/78/77 59/61/60
f 61/63/62 94/96/95 77/79/78
f 3/3/3 94/96/95 1/1/1
f 135/139/137 2/2/2 123/125/124
f 135/139/137 6/6/6 5/5/5
f 137/141/139 8/8/8 6/6/6
f 148/154/151 8/8/8 141/147/145
f 153/159/156 9/9/9 148/154/151
f 160/166/163 12/12/12 153/159/156
f 160/166/163 16/16/16 13/13/13
f 169/175/172 16/16/16 165/171/168
f 173/179/176 18/18/18 169/175/172
f 173/179/176 22/22/22 19/19/19
f 177/183/180 24/24/24 22/22/22
f 185/191/188 24/24/24 181/187/184
f 185/191/188 28/28/28 25/25/25
f 132/136/134 28/28/28 189/195/192
f 132/136/134 32/32/32 30/30/30
f 144/145/143 32/32/32 134/138/136
f 144/150/143 34/36/35 279/323/34
f 151/157/154 34/36/35 146/152/149
f 158/164/161 36/38/37 151/157/154
f 163/169/166 39/41/40 158/164/161
f 167/173/170 40/42/41 163/169/166
f 171/177/174 42/44/43 167/173/170
f 175/181/178 44/46/45 171/177/174
f 179/185/182 46/48/47 175/181/178
f 179/185/182 51/53/52 48/50/49
f 187/193/190 51/53/52 183/189/186
f 187/193/190 54/56/55 52/54/53
f 131/135/133 54/56/55 129/133/131
f 139/143/141 56/58/57 131/135/133
f 143/149/147 58/60/59 139/143/141
f 121/123/122 60/62/61 143/149/147
f 123/125/124 62/64/63 121/123/122
f 207/213/210 122/124/123 154/160/157
f 245/251/248 161/167/164 207/213/210
f 192/198/195 136/140/138 245/251/248
f 194/200/197 140/146/144 192/198/195
f 201/207/204 147/153/150 194/200/197
f 204/210/207 152/158/155 201/207/204
f 211/217/214 159/165/162 204/210/207
f 215/221/218 164/170/167 211/217/214
f 219/225/222 168/174/171 215/221/218
f 223/229/226 172/178/175 219/225/222
f 227/233/230 176/182/179 223/229/226
f 227/233/230 184/190/187 180/186/183
f 235/241/238 184/190/187 231/237/234
f 239/245/242 188/194/191 235/241/238
f 243/249/246 191/197/194 239/245/242
f 281/255/252 133/137/135 243/249/246
f 250/258/255 280/324/142 281/325/252
f 197/203/200 145/151/148 250/258/255
f 197/203/200 157/163/160 150/156/153
f 203/209/206 162/168/165 157/163/160
f 208/214/211 166/172/169 162/168/165
f 213/219/216 170/176/173 166/172/169
f 220/226/223 170/176/173 216/222/219
f 220/226/223 178/184/181 174/180/177
f 224/230/227 182/188/185 178/184/181
f 228/234/231 186/192/189 182/188/185
f 232/238/235 190/196/193 186/192/189
f 237/243/240 130/134/132 190/196/193
f 246/252/249 130/134/132 241/247/244
f 249/257/254 138/142/140 246/252/249
f 195/201/198 142/148/146 249/257/254
f 154/160/157 149/155/152 195/201/198
f 282/326/82 156/162/159 272/327/129
f 283/328/98 206/212/209 282/326/82
f 283/328/98 248/256/253 244/250/247
f 267/329/126 248/256/253 264/330/112
f 284/331/73 193/199/196 267/329/126
f 284/331/73 205/211/208 200/206/203
f 276/332/106 205/211/208 274/333/265
f 285/334/120 210/216/213 276/332/106
f 285/334/120 218/224/221 214/220/217
f 286/335/85 218/224/221 287/336/130
f 288/337/100 222/228/225 286/335/85
f 288/337/100 230/236/233 226/232/229
f 289/338/127 230/236/233 290/339/114
f 289/338/127 238/244/241 234/240/237
f 291/340/76 242/248/245 238/244/241
f 263/341/108 242/248/245 261/342/94
f 292/343/263 251/259/251 263/344/108
f 271/345/64 198/204/201 292/343/263
f 273/346/68 199/205/202 271/345/64
f 273/346/68 209/215/212 202/208/205
f 278/347/102 209/215/212 293/348/88
f 254/349/256 212/218/215 278/347/102
f 254/349/256 221/227/224 217/223/220
f 294/350/79 221/227/224 295/351/128
f 294/350/79 229/235/232 225/231/228
f 256/352/96 233/239/236 229/235/232
f 257/353/258 236/242/239 233/239/236
f 296/354/125 240/246/243 236/242/239
f 297/355/70 247/253/250 240/246/243
f 266/356/104 247/253/250 298/357/90
f 269/358/118 196/202/199 266/356/104
f 272/327/129 155/161/158 269/358/118
f 282/359/82 299/360/83 277/321/84
f 300/361/267 301/362/245 302/363/268
f 303/364/269 304/365/270 305/366/202
f 306/367/205 303/364/269 305/366/202
f 307/368/271 306/367/205 308/369/212
f 309/370/215 307/368/271 308/369/212
f 310/371/272 309/370/215 311/372/220
f 312/373/224 310/371/272 311/372/220
f 313/374/273 314/375/214 312/373/224
f 315/376/222 313/374/273 316/377/232
f 317/378/236 315/376/222 316/377/232
f 318/379/239 319/380/274 317/378/236
f 320/381/275 318/379/239 321/382/243
f 322/383/250 320/381/275 321/382/243
f 323/384/199 324/385/238 322/383/250
f 325/386/246 323/384/199 326/387/158
f 328/388/276 325/386/246 326/387/158
f 327/389/255 328/390/276 329/391/277
f 330/392/200 329/391/277 331/393/247
f 332/394/253 330/392/200 331/393/247
f 333/395/278 332/394/253 334/396/196
f 335/397/216 334/396/196 336/398/279
f 337/399/208 335/397/216 336/398/279
f 338/400/223 337/399/208 339/401/213
f 340/402/280 339/401/213 341/403/281
f 342/404/231 341/403/281 343/405/221
f 344/406/282 343/405/221 345/407/225
f 346/408/240 345/407/225 347/409/283
f 348/410/284 347/409/283 349/411/233
f 350/412/285 349/411/233 351/413/237
f 352/414/254 351/413/237 353/415/241
f 354/416/198 353/415/241 301/362/245
f 355/417/210 302/363/268 304/365/270
f 356/418/286 357/419/152 358/420/123
f 359/421/287 360/422/288 361/423/289
f 362/424/290 363/425/194 364/426/135
f 365/427/139 366/428/164 367/429/291
f 368/430/141 361/423/289 369/431/292
f 370/432/143 364/426/135 371/433/293
f 372/434/145 367/429/291 373/435/294
f 374/436/147 369/431/292 375/437/146
f 376/438/295 371/439/293 377/440/148
f 378/441/151 373/435/294 379/442/296
f 380/443/122 375/437/146 357/419/152
f 381/444/297 377/440/148 382/445/153
f 383/446/156 379/442/296 384/447/298
f 385/448/299 386/449/31 387/450/63
f 388/451/161 382/445/153 389/452/300
f 390/453/163 384/447/298 391/454/162
f 392/455/137 358/420/123 366/428/164
f 393/456/166 389/452/300 394/457/301
f 395/458/302 391/454/162 396/459/167
f 397/460/170 394/457/301 398/461/303
f 399/462/304 396/459/167 400/463/305
f 401/464/174 398/461/303 402/465/173
f 403/466/175 399/462/304 400/463/305
f 404/467/178 402/465/173 405/468/177
f 406/469/180 403/466/175 407/470/179
f 408/471/182 405/468/177 409/472/181
f 410/473/184 407/470/179 411/474/306
f 412/475/307 409/472/181 413/476/185
f 414/477/308 411/474/306 415/478/309
f 416/479/310 413/476/185 417/480/311
f 418/481/192 415/478/309 419/482/312
f 420/483/131 417/480/311 360/422/288
f 421/484/134 419/482/312 363/425/194
f 422/485/42 423/486/8 424/487/313
f 387/450/63 425/488/29 426/489/61
f 427/490/4 428/491/35 429/492/314
f 430/493/44 424/487/313 431/494/12
f 432/495/7 429/492/314 433/496/40
f 434/497/315 430/493/44 431/494/12
f 435/498/316 385/448/299 436/499/5
f 437/500/317 432/495/7 433/496/40
f 438/501/48 434/497/315 439/502/318
f 440/503/11 437/500/317 441/504/43
f 442/505/50 439/502/318 443/506/319
f 444/507/45 440/503/11 441/504/43
f 445/508/51 443/506/319 446/509/19
f 447/510/47 448/511/14 444/507/45
f 449/512/54 446/509/19 450/513/320
f 451/514/49 452/515/15 447/510/47
f 453/516/56 450/513/320 454/517/24
f 455/518/52 456/519/321 451/514/49
f 457/520/58 454/517/24 458/521/322
f 459/522/323 460/523/324 455/518/52
f 461/524/325 458/521/322 462/525/28
f 463/526/23 459/522/323 464/527/55
f 465/528/326 462/525/28 466/529/30
f 467/530/26 464/527/55 468/531/327
f 469/532/328 466/529/30 470/533/32
f 471/534/38 436/499/5 472/535/6
f 473/536/329 467/530/26 468/531/327
f 476/537/330 470/533/32 474/538/34
f 423/486/8 471/534/38 472/535/6
f 426/489/61 475/539/27 473/536/329
f 428/491/35 476/540/330 474/541/34
f 302/363/268 477/542/263 304/365/270
f 477/542/263 305/366/202 304/365/270
f 63/65/64 306/367/205 305/366/202
f 67/69/68 308/369/212 306/367/205
f 87/89/88 309/370/215 308/369/212
f 101/103/102 311/372/220 309/370/215
f 115/117/116 312/373/224 311/372/220
f 312/373/224 78/80/79 313/374/273
f 313/374/273 95/97/96 316/377/232
f 316/377/232 109/111/110 317/378/236
f 109/111/110 318/379/239 317/378/236
f 124/126/125 321/382/243 318/379/239
f 321/382/243 89/91/90 322/383/250
f 322/383/250 103/105/104 323/384/199
f 103/105/104 326/387/158 323/384/199
f 117/119/118 328/388/276 326/387/158
f 328/390/276 81/83/82 329/391/277
f 81/83/82 331/393/247 329/391/277
f 97/99/98 332/394/253 331/393/247
f 332/394/253 125/127/126 334/396/196
f 125/127/126 336/398/279 334/396/196
f 72/74/73 337/399/208 336/398/279
f 91/93/92 339/401/213 337/399/208
f 105/107/106 341/403/281 339/401/213
f 119/121/120 343/405/221 341/403/281
f 128/132/130 345/407/225 343/405/221
f 345/407/225 99/101/100 347/409/283
f 347/409/283 113/115/114 349/411/233
f 113/115/114 351/413/237 349/411/233
f 126/128/127 353/415/241 351/413/237
f 353/415/241 93/95/94 301/362/245
f 301/362/245 107/109/108 302/363/268
f 300/361/267 366/428/164 358/420/123
f 366/428/164 303/364/269 367/429/291
f 367/429/291 478/543/195 373/435/294
f 373/435/294 307/368/271 379/442/296
f 307/368/271 384/447/298 379/442/296
f 479/544/204 391/454/162 384/447/298
f 391/454/162 314/375/214 396/459/167
f 314/375/214 400/463/305 396/459/167
f 480/545/331 403/466/175 400/463/305
f 403/466/175 319/380/274 407/470/179
f 407/470/179 481/546/230 411/474/306
f 481/546/230 415/478/309 411/474/306
f 415/478/309 324/385/238 419/482/312
f 324/385/238 363/425/194 419/482/312
f 363/425/194 325/386/246 364/426/135
f 325/386/246 371/433/293 364/426/135
f 371/439/293 327/389/255 377/440/148
f 327/389/255 382/445/153 377/440/148
f 330/392/200 389/452/300 382/445/153
f 482/547/206 394/457/301 389/452/300
f 333/395/278 398/461/303 394/457/301
f 335/397/216 402/465/173 398/461/303
f 483/548/219 405/468/177 402/465/173
f 338/400/223 409/472/181 405/468/177
f 340/402/280 413/476/185 409/472/181
f 342/404/231 417/480/311 413/476/185
f 344/406/282 360/422/288 417/480/311
f 346/408/240 361/423/289 360/422/288
f 361/423/289 350/412/285 369/431/292
f 350/412/285 375/437/146 369/431/292
f 352/414/254 357/419/152 375/437/146
f 354/416/198 358/420/123 357/419/152
f 356/418/286 436/499/5 385/448/299
f 392/455/137 472/535/6 436/499/5
f 365/427/139 423/486/8 472/535/6
f 423/486/8 378/441/151 424/487/313
f 378/441/151 431/494/12 424/487/313
f 383/446/156 434/497/315 431/494/12
f 390/453/163 439/502/318 434/497/315
f 395/458/302 443/506/319 439/502/318
f 399/462/304 446/509/19 443/506/319
f 446/509/19 406/469/180 450/513/320
f 406/469/180 454/517/24 450/513/320
f 454/517/24 414/477/308 458/521/322
f 414/477/308 462/525/28 458/521/322
f 418/481/192 466/529/30 462/525/28
f 421/484/134 470/533/32 466/529/30
f 362/424/290 474/538/34 470/533/32
f 370/549/143 428/491/35 474/541/34
f 428/491/35 381/444/297 429/492/314
f 429/492/314 388/451/161 433/496/40
f 433/496/40 393/456/166 437/500/317
f 437/500/317 397/460/170 441/504/43
f 397/460/170 444/507/45 441/504/43
f 401/464/174 447/510/47 444/507/45
f 447/510/47 408/471/182 451/514/49
f 408/471/182 455/518/52 451/514/49
f 412/475/307 459/522/323 455/518/52
f 459/522/323 420/483/131 464/527/55
f 464/527/55 359/421/287 468/531/327
f 468/531/327 368/430/141 473/536/329
f 368/430/141 426/489/61 473/536/329
f 374/436/147 387/450/63 426/489/61
f 380/443/122 385/448/299 387/450/63
f 484/550/332 277/551/84 299/552/83
f 277/551/84 471/534/38 485/553/261
f 485/553/261 486/554/39 265/555/113
f 486/554/39 268/556/74 265/555/113
f 422/485/42 487/557/75 268/556/74
f 487/557/75 488/558/46 489/559/266
f 488/558/46 252/560/107 489/559/266
f 438/501/48 253/561/121 252/560/107
f 253/561/121 445/508/51 490/562/86
f 445/508/51 491/563/87 490/562/86
f 449/512/54 492/564/101 491/563/87
f 453/516/56 493/565/115 492/564/101
f 457/520/58 258/566/77 493/565/115
f 258/566/77 465/528/326 259/567/260
f 259/567/260 469/532/328 262/568/95
f 469/532/328 494/569/109 262/568/95
f 476/540/330 495/570/264 494/571/109
f 496/572/67 497/573/66 495/570/264
f 427/490/4 498/574/69 497/573/66
f 498/574/69 499/575/10 275/576/89
f 499/575/10 500/577/103 275/576/89
f 440/503/11 255/578/257 500/577/103
f 255/578/257 452/515/15 501/579/80
f 452/515/15 502/580/81 501/579/80
f 502/580/81 460/523/324 503/581/97
f 503/581/97 504/582/333 505/583/259
f 505/583/259 463/526/23 506/584/71
f 506/584/71 467/530/26 260/585/72
f 260/585/72 475/539/27 507/586/91
f 475/539/27 508/587/262 507/586/91
f 508/587/262 386/449/31 270/588/119
f 386/449/31 299/552/83 270/588/119
f 477/542/263 108/110/109 64/66/65
f 1/1/1 62/64/63 2/2/2
f 4/4/4 66/68/67 5/5/5
f 7/7/7 4/4/4 6/6/6
f 7/7/7 8/8/8 9/9/9
f 11/11/11 10/10/10 9/9/9
f 11/11/11 12/12/12 13/13/13
f 15/15/15 14/14/14 13/13/13
f 17/17/17 15/15/15 16/16/16
f 17/17/17 18/18/18 19/19/19
f 21/21/21 20/20/20 19/19/19
f 23/23/23 21/21/21 22/22/22
f 23/23/23 24/24/24 25/25/25
f 27/27/27 26/26/26 25/25/25
f 29/29/29 27/27/27 28/28/28
f 31/31/31 29/29/29 30/30/30
f 33/33/33 31/31/31 32/32/32
f 33/35/33 279/323/34 34/36/35
f 35/37/36 34/36/35 36/38/37
f 38/40/39 37/39/38 36/38/37
f 38/40/39 39/41/40 40/42/41
f 41/43/42 40/42/41 42/44/43
f 43/45/44 42/44/43 44/46/45
f 45/47/46 44/46/45 46/48/47
f 47/49/48 46/48/47 48/50/49
f 50/52/51 49/51/50 48/50/49
f 50/52/51 51/53/52 52/54/53
f 53/55/54 52/54/53 54/56/55
f 55/57/56 54/56/55 56/58/57
f 57/59/58 56/58/57 58/60/59
f 59/61/60 58/60/59 60/62/61
f 61/63/62 60/62/61 62/64/63
f 63/65/64 477/542/263 64/66/65
f 3/3/3 2/2/2 5/5/5
f 67/69/68 63/65/64 65/67/66
f 69/71/70 124/126/125 70/72/71
f 72/74/73 125/127/126 73/75/74
f 75/77/76 126/128/127 76/78/77
f 78/80/79 127/129/128 79/81/80
f 81/83/82 509/589/129 82/84/83
f 84/86/85 128/132/130 85/87/86
f 87/89/88 67/69/68 68/70/69
f 89/91/90 69/71/70 71/73/72
f 91/93/92 72/74/73 74/76/75
f 93/95/94 75/77/76 77/79/78
f 95/97/96 78/80/79 80/82/81
f 97/99/98 81/83/82 83/85/84
f 99/101/100 84/86/85 86/88/87
f 101/103/102 87/89/88 88/90/89
f 103/105/104 89/91/90 90/92/91
f 105/107/106 91/93/92 92/94/93
f 107/109/108 93/95/94 94/96/95
f 109/111/110 95/97/96 96/98/97
f 111/113/112 97/99/98 98/100/99
f 113/115/114 99/101/100 100/102/101
f 115/117/116 101/103/102 102/104/103
f 117/119/118 103/105/104 104/106/105
f 119/121/120 105/107/106 106/108/107
f 121/123/122 149/155/152 122/124/123
f 124/126/125 109/111/110 110/112/111
f 125/127/126 111/113/112 112/114/113
f 126/128/127 113/115/114 114/116/115
f 127/129/128 115/117/116 116/118/117
f 509/130/129 117/119/118 118/120/119
f 128/132/130 119/121/120 120/122/121
f 129/133/131 190/196/193 130/134/132
f 132/136/134 191/197/194 133/137/135
f 135/139/137 161/167/164 136/140/138
f 131/135/133 130/134/132 138/142/140
f 134/138/136 133/137/135 280/144/142
f 137/141/139 136/140/138 140/146/144
f 139/143/141 138/142/140 142/148/146
f 144/150/143 280/324/142 145/151/148
f 141/147/145 140/146/144 147/153/150
f 143/149/147 142/148/146 149/155/152
f 146/152/149 145/151/148 150/156/153
f 148/154/151 147/153/150 152/158/155
f 154/160/157 195/201/198 155/161/158
f 151/157/154 150/156/153 157/163/160
f 153/159/156 152/158/155 159/165/162
f 123/125/124 122/124/123 161/167/164
f 158/164/161 157/163/160 162/168/165
f 160/166/163 159/165/162 164/170/167
f 163/169/166 162/168/165 166/172/169
f 165/171/168 164/170/167 168/174/171
f 167/173/170 166/172/169 170/176/173
f 169/175/172 168/174/171 172/178/175
f 171/177/174 170/176/173 174/180/177
f 173/179/176 172/178/175 176/182/179
f 175/181/178 174/180/177 178/184/181
f 177/183/180 176/182/179 180/186/183
f 179/185/182 178/184/181 182/188/185
f 181/187/184 180/186/183 184/190/187
f 183/189/186 182/188/185 186/192/189
f 185/191/188 184/190/187 188/194/191
f 187/193/190 186/192/189 190/196/193
f 189/195/192 188/194/191 191/197/194
f 192/198/195 248/256/253 193/199/196
f 195/201/198 249/257/254 196/202/199
f 197/203/200 250/258/255 198/204/201
f 194/200/197 193/199/196 200/206/203
f 197/203/200 199/205/202 202/208/205
f 204/210/207 201/207/204 200/206/203
f 154/160/157 156/162/159 206/212/209
f 208/214/211 203/209/206 202/208/205
f 204/210/207 205/211/208 210/216/213
f 208/214/211 209/215/212 212/218/215
f 211/217/214 210/216/213 214/220/217
f 216/222/219 213/219/216 212/218/215
f 215/221/218 214/220/217 218/224/221
f 220/226/223 216/222/219 217/223/220
f 219/225/222 218/224/221 222/228/225
f 224/230/227 220/226/223 221/227/224
f 223/229/226 222/228/225 226/232/229
f 228/234/231 224/230/227 225/231/228
f 227/233/230 226/232/229 230/236/233
f 232/238/235 228/234/231 229/235/232
f 231/237/234 230/236/233 234/240/237
f 232/238/235 233/239/236 236/242/239
f 235/241/238 234/240/237 238/244/241
f 237/243/240 236/242/239 240/246/243
f 239/245/242 238/244/241 242/248/245
f 207/213/210 206/212/209 244/250/247
f 246/252/249 241/247/244 240/246/243
f 243/249/246 242/248/245 251/254/251
f 192/198/195 245/251/248 244/250/247
f 249/257/254 246/252/249 247/253/250
f 250/258/255 281/325/252 251/259/251
f 285/260/120 276/319/106 252/261/107
f 254/263/256 278/322/102 500/264/103
f 287/266/130 285/260/120 253/262/121
f 295/268/128 254/263/256 255/265/257
f 286/270/85 287/266/130 490/267/86
f 294/272/79 295/268/128 501/269/80
f 288/274/100 286/270/85 491/271/87
f 256/276/96 294/272/79 502/273/81
f 290/278/114 288/274/100 492/275/101
f 257/280/258 256/276/96 503/277/97
f 289/282/127 290/278/114 493/279/115
f 296/284/125 257/280/258 505/281/259
f 291/286/76 289/282/127 258/283/77
f 297/288/70 296/284/125 506/285/71
f 261/290/94 291/286/76 259/287/260
f 298/292/90 297/288/70 260/289/72
f 263/294/108 261/290/94 262/291/95
f 264/296/112 283/320/98 485/297/261
f 266/299/104 298/292/90 507/293/91
f 292/301/263 263/294/108 494/295/109
f 267/303/126 264/296/112 265/298/113
f 269/305/118 266/299/104 508/300/262
f 271/307/64 292/301/263 495/302/264
f 284/309/73 267/303/126 268/304/74
f 272/311/129 269/305/118 270/306/119
f 273/313/68 271/307/64 497/308/66
f 274/315/265 284/309/73 487/310/75
f 293/317/88 273/313/68 498/314/69
f 276/319/106 274/315/265 489/316/266
f 283/320/98 282/359/82 277/321/84
f 278/322/102 293/317/88 275/318/89
f 3/3/3 66/68/67 64/66/65
f 66/68/67 4/4/4 65/67/66
f 7/7/7 68/70/69 65/67/66
f 10/10/10 88/90/89 68/70/69
f 10/10/10 11/11/11 102/104/103
f 14/14/14 116/118/117 102/104/103
f 15/15/15 79/81/80 116/118/117
f 15/15/15 17/17/17 80/82/81
f 17/17/17 20/20/20 96/98/97
f 21/21/21 110/112/111 96/98/97
f 21/21/21 23/23/23 70/72/71
f 26/26/26 71/73/72 70/72/71
f 26/26/26 27/27/27 90/92/91
f 27/27/27 29/29/29 104/106/105
f 31/31/31 118/120/119 104/106/105
f 31/31/31 33/33/33 82/131/83
f 33/35/33 35/37/36 83/85/84
f 37/39/38 98/100/99 83/85/84
f 38/40/39 112/114/113 98/100/99
f 38/40/39 41/43/42 73/75/74
f 43/45/44 74/76/75 73/75/74
f 45/47/46 92/94/93 74/76/75
f 47/49/48 106/108/107 92/94/93
f 47/49/48 49/51/50 120/122/121
f 50/52/51 85/87/86 120/122/121
f 53/55/54 86/88/87 85/87/86
f 53/55/54 55/57/56 100/102/101
f 57/59/58 114/116/115 100/102/101
f 59/61/60 76/78/77 114/116/115
f 61/63/62 77/79/78 76/78/77
f 61/63/62 1/1/1 94/96/95
f 3/3/3 108/110/109 94/96/95
f 135/139/137 5/5/5 2/2/2
f 135/139/137 137/141/139 6/6/6
f 137/141/139 141/147/145 8/8/8
f 148/154/151 9/9/9 8/8/8
f 153/159/156 12/12/12 9/9/9
f 160/166/163 13/13/13 12/12/12
f 160/166/163 165/171/168 16/16/16
f 169/175/172 18/18/18 16/16/16
f 173/179/176 19/19/19 18/18/18
f 173/179/176 177/183/180 22/22/22
f 177/183/180 181/187/184 24/24/24
f 185/191/188 25/25/25 24/24/24
f 185/191/188 189/195/192 28/28/28
f 132/136/134 30/30/30 28/28/28
f 132/136/134 134/138/136 32/32/32
f 144/145/143 279/34/34 32/32/32
f 144/150/143 146/152/149 34/36/35
f 151/157/154 36/38/37 34/36/35
f 158/164/161 39/41/40 36/38/37
f 163/169/166 40/42/41 39/41/40
f 167/173/170 42/44/43 40/42/41
f 171/177/174 44/46/45 42/44/43
f 175/181/178 46/48/47 44/46/45
f 179/185/182 48/50/49 46/48/47
f 179/185/182 183/189/186 51/53/52
f 187/193/190 52/54/53 51/53/52
f 187/193/190 129/133/131 54/56/55
f 131/135/133 56/58/57 54/56/55
f 139/143/141 58/60/59 56/58/57
f 143/149/147 60/62/61 58/60/59
f 121/123/122 62/64/63 60/62/61
f 123/125/124 2/2/2 62/64/63
f 207/213/210 161/167/164 122/124/123
f 245/251/248 136/140/138 161/167/164
f 192/198/195 140/146/144 136/140/138
f 194/200/197 147/153/150 140/146/144
f 201/207/204 152/158/155 147/153/150
f 204/210/207 159/165/162 152/158/155
f 211/217/214 164/170/167 159/165/162
f 215/221/218 168/174/171 164/170/167
f 219/225/222 172/178/175 168/174/171
f 223/229/226 176/182/179 172/178/175
f 227/233/230 180/186/183 176/182/179
f 227/233/230 231/237/234 184/190/187
f 235/241/238 188/194/191 184/190/187
f 239/245/242 191/197/194 188/194/191
f 243/249/246 133/137/135 191/197/194
f 281/255/252 280/144/142 133/137/135
f 250/258/255 145/151/148 280/324/142
f 197/203/200 150/156/153 145/151/148
f 197/203/200 203/209/206 157/163/160
f 203/209/206 208/214/211 162/168/165
f 208/214/211 213/219/216 166/172/169
f 213/219/216 216/222/219 170/176/173
f 220/226/223 174/180/177 170/176/173
f 220/226/223 224/230/227 178/184/181
f 224/230/227 228/234/231 182/188/185
f 228/234/231 232/238/235 186/192/189
f 232/238/235 237/243/240 190/196/193
f 237/243/240 241/247/244 130/134/132
f 246/252/249 138/142/140 130/134/132
f 249/257/254 142/148/146 138/142/140
f 195/201/198 149/155/152 142/148/146
f 154/160/157 122/124/123 149/155/152
f 282/326/82 206/212/209 156/162/159
f 283/328/98 244/250/247 206/212/209
f 283/328/98 264/330/112 248/256/253
f 267/329/126 193/199/196 248/256/253
f 284/331/73 200/206/203 193/199/196
f 284/331/73 274/333/265 205/211/208
f 276/332/106 210/216/213 205/211/208
f 285/334/120 214/220/217 210/216/213
f 285/334/120 287/336/130 218/224/221
f 286/335/85 222/228/225 218/224/221
f 288/337/100 226/232/229 222/228/225
f 288/337/100 290/339/114 230/236/233
f 289/338/127 234/240/237 230/236/233
f 289/338/127 291/340/76 238/244/241
f 291/340/76 261/342/94 242/248/245
f 263/341/108 251/254/251 242/248/245
f 292/343/263 198/204/201 251/259/251
f 271/345/64 199/205/202 198/204/201
f 273/346/68 202/208/205 199/205/202
f 273/346/68 293/348/88 209/215/212
f 278/347/102 212/218/215 209/215/212
f 254/349/256 217/223/220 212/218/215
f 254/349/256 295/351/128 221/227/224
f 294/350/79 225/231/228 221/227/224
f 294/350/79 256/352/96 229/235/232
f 256/352/96 257/353/258 233/239/236
f 257/353/258 296/354/125 236/242/239
f 296/354/125 297/355/70 240/246/243
f 297/355/70 298/357/90 247/253/250
f 266/356/104 196/202/199 247/253/250
f 269/358/118 155/161/158 196/202/199
f 272/327/129 156/162/159 155/161/158
f 282/359/82 272/590/129 299/360/83
f 300/361/267 354/416/198 301/362/245
f 303/364/269 355/417/210 304/365/270
f 306/367/205 478/543/195 303/364/269
f 307/368/271 478/543/195 306/367/205
f 309/370/215 479/544/204 307/368/271
f 310/371/272 479/544/204 309/370/215
f 312/373/224 314/375/214 310/371/272
f 313/374/273 480/545/331 314/375/214
f 315/376/222 480/545/331 313/374/273
f 317/378/236 319/380/274 315/376/222
f 318/379/239 481/546/230 319/380/274
f 320/381/275 481/546/230 318/379/239
f 322/383/250 324/385/238 320/381/275
f 323/384/199 510/591/334 324/385/238
f 325/386/246 510/591/334 323/384/199
f 328/388/276 511/592/335 325/386/246
f 327/389/255 511/593/335 328/390/276
f 330/392/200 327/389/255 329/391/277
f 332/394/253 482/547/206 330/392/200
f 333/395/278 482/547/206 332/394/253
f 335/397/216 333/395/278 334/396/196
f 337/399/208 483/548/219 335/397/216
f 338/400/223 483/548/219 337/399/208
f 340/402/280 338/400/223 339/401/213
f 342/404/231 340/402/280 341/403/281
f 344/406/282 342/404/231 343/405/221
f 346/408/240 344/406/282 345/407/225
f 348/410/284 346/408/240 347/409/283
f 350/412/285 348/410/284 349/411/233
f 352/414/254 350/412/285 351/413/237
f 354/416/198 352/414/254 353/415/241
f 355/417/210 300/361/267 302/363/268
f 356/418/286 380/443/122 357/419/152
f 359/421/287 420/483/131 360/422/288
f 362/424/290 421/484/134 363/425/194
f 365/427/139 392/455/137 366/428/164
f 368/430/141 359/421/287 361/423/289
f 370/432/143 362/424/290 364/426/135
f 372/434/145 365/427/139 367/429/291
f 374/436/147 368/430/141 369/431/292
f 376/438/295 370/549/143 371/439/293
f 378/441/151 372/434/145 373/435/294
f 380/443/122 374/436/147 375/437/146
f 381/444/297 376/438/295 377/440/148
f 383/446/156 378/441/151 379/442/296
f 385/448/299 484/550/332 386/449/31
f 388/451/161 381/444/297 382/445/153
f 390/453/163 383/446/156 384/447/298
f 392/455/137 356/418/286 358/420/123
f 393/456/166 388/451/161 389/452/300
f 395/458/302 390/453/163 391/454/162
f 397/460/170 393/456/166 394/457/301
f 399/462/304 395/458/302 396/459/167
f 401/464/174 397/460/170 398/461/303
f 403/466/175 512/594/176 399/462/304
f 404/467/178 401/464/174 402/465/173
f 406/469/180 512/594/176 403/466/175
f 408/471/182 404/467/178 405/468/177
f 410/473/184 406/469/180 407/470/179
f 412/475/307 408/471/182 409/472/181
f 414/477/308 410/473/184 411/474/306
f 416/479/310 412/475/307 413/476/185
f 418/481/192 414/477/308 415/478/309
f 420/483/131 416/479/310 417/480/311
f 421/484/134 418/481/192 419/482/312
f 422/485/42 486/554/39 423/486/8
f 387/450/63 386/449/31 425/488/29
f 427/490/4 496/572/67 428/491/35
f 430/493/44 422/485/42 424/487/313
f 432/495/7 427/490/4 429/492/314
f 434/497/315 488/558/46 430/493/44
f 435/498/316 484/550/332 385/448/299
f 437/500/317 499/575/10 432/495/7
f 438/501/48 488/558/46 434/497/315
f 440/503/11 499/575/10 437/500/317
f 442/505/50 438/501/48 439/502/318
f 444/507/45 448/511/14 440/503/11
f 445/508/51 442/505/50 443/506/319
f 447/510/47 452/515/15 448/511/14
f 449/512/54 445/508/51 446/509/19
f 451/514/49 456/519/321 452/515/15
f 453/516/56 449/512/54 450/513/320
f 455/518/52 460/523/324 456/519/321
f 457/520/58 453/516/56 454/517/24
f 459/522/323 504/582/333 460/523/324
f 461/524/325 457/520/58 458/521/322
f 463/526/23 504/582/333 459/522/323
f 465/528/326 461/524/325 462/525/28
f 467/530/26 463/526/23 464/527/55
f 469/532/328 465/528/326 466/529/30
f 471/534/38 435/498/316 436/499/5
f 473/536/329 475/539/27 467/530/26
f 476/537/330 469/532/328 470/533/32
f 423/486/8 486/554/39 471/534/38
f 426/489/61 425/488/29 475/539/27
f 428/491/35 496/572/67 476/540/330
f 302/363/268 107/109/108 477/542/263
f 477/542/263 63/65/64 305/366/202
f 63/65/64 67/69/68 306/367/205
f 67/69/68 87/89/88 308/369/212
f 87/89/88 101/103/102 309/370/215
f 101/103/102 115/117/116 311/372/220
f 115/117/116 127/129/128 312/373/224
f 312/373/224 127/129/128 78/80/79
f 313/374/273 78/80/79 95/97/96
f 316/377/232 95/97/96 109/111/110
f 109/111/110 124/126/125 318/379/239
f 124/126/125 69/71/70 321/382/243
f 321/382/243 69/71/70 89/91/90
f 322/383/250 89/91/90 103/105/104
f 103/105/104 117/119/118 326/387/158
f 117/119/118 509/130/129 328/388/276
f 328/390/276 509/589/129 81/83/82
f 81/83/82 97/99/98 331/393/247
f 97/99/98 111/113/112 332/394/253
f 332/394/253 111/113/112 125/127/126
f 125/127/126 72/74/73 336/398/279
f 72/74/73 91/93/92 337/399/208
f 91/93/92 105/107/106 339/401/213
f 105/107/106 119/121/120 341/403/281
f 119/121/120 128/132/130 343/405/221
f 128/132/130 84/86/85 345/407/225
f 345/407/225 84/86/85 99/101/100
f 347/409/283 99/101/100 113/115/114
f 113/115/114 126/128/127 351/413/237
f 126/128/127 75/77/76 353/415/241
f 353/415/241 75/77/76 93/95/94
f 301/362/245 93/95/94 107/109/108
f 300/361/267 355/417/210 366/428/164
f 366/428/164 355/417/210 303/364/269
f 367/429/291 303/364/269 478/543/195
f 373/435/294 478/543/195 307/368/271
f 307/368/271 479/544/204 384/447/298
f 479/544/204 310/371/272 391/454/162
f 391/454/162 310/371/272 314/375/214
f 314/375/214 480/545/331 400/463/305
f 480/545/331 315/376/222 403/466/175
f 403/466/175 315/376/222 319/380/274
f 407/470/179 319/380/274 481/546/230
f 481/546/230 320/381/275 415/478/309
f 415/478/309 320/381/275 324/385/238
f 324/385/238 510/591/334 363/425/194
f 363/425/194 510/591/334 325/386/246
f 325/386/246 511/592/335 371/433/293
f 371/439/293 511/593/335 327/389/255
f 327/389/255 330/392/200 382/445/153
f 330/392/200 482/547/206 389/452/300
f 482/547/206 333/395/278 394/457/301
f 333/395/278 335/397/216 398/461/303
f 335/397/216 483/548/219 402/465/173
f 483/548/219 338/400/223 405/468/177
f 338/400/223 340/402/280 409/472/181
f 340/402/280 342/404/231 413/476/185
f 342/404/231 344/406/282 417/480/311
f 344/406/282 346/408/240 360/422/288
f 346/408/240 348/410/284 361/423/289
f 361/423/289 348/410/284 350/412/285
f 350/412/285 352/414/254 375/437/146
f 352/414/254 354/416/198 357/419/152
f 354/416/198 300/361/267 358/420/123
f 356/418/286 392/455/137 436/499/5
f 392/455/137 365/427/139 472/535/6
f 365/427/139 372/434/145 423/486/8
f 423/486/8 372/434/145 378/441/151
f 378/441/151 383/446/156 431/494/12
f 383/446/156 390/453/163 434/497/315
f 390/453/163 395/458/302 439/502/318
f 395/458/302 399/462/304 443/506/319
f 399/462/304 512/594/176 446/509/19
f 446/509/19 512/594/176 406/469/180
f 406/469/180 410/473/184 454/517/24
f 454/517/24 410/473/184 414/477/308
f 414/477/308 418/481/192 462/525/28
f 418/481/192 421/484/134 466/529/30
f 421/484/134 362/424/290 470/533/32
f 362/424/290 370/432/143 474/538/34
f 370/549/143 376/438/295 428/491/35
f 428/491/35 376/438/295 381/444/297
f 429/492/314 381/444/297 388/451/161
f 433/496/40 388/451/161 393/456/166
f 437/500/317 393/456/166 397/460/170
f 397/460/170 401/464/174 444/507/45
f 401/464/174 404/467/178 447/510/47
f 447/510/47 404/467/178 408/471/182
f 408/471/182 412/475/307 455/518/52
f 412/475/307 416/479/310 459/522/323
f 459/522/323 416/479/310 420/483/131
f 464/527/55 420/483/131 359/421/287
f 468/531/327 359/421/287 368/430/141
f 368/430/141 374/436/147 426/489/61
f 374/436/147 380/443/122 387/450/63
f 380/443/122 356/418/286 385/448/299
f 484/550/332 435/498/316 277/551/84
f 277/551/84 435/498/316 471/534/38
f 485/553/261 471/534/38 486/554/39
f 486/554/39 422/485/42 268/556/74
f 422/485/42 430/493/44 487/557/75
f 487/557/75 430/493/44 488/558/46
f 488/558/46 438/501/48 252/560/107
f 438/501/48 442/505/50 253/561/121
f 253/561/121 442/505/50 445/508/51
f 445/508/51 449/512/54 491/563/87
f 449/512/54 453/516/56 492/564/101
f 453/516/56 457/520/58 493/565/115
f 457/520/58 461/524/325 258/566/77
f 258/566/77 461/524/325 465/528/326
f 259/567/260 465/528/326 469/532/328
f 469/532/328 476/537/330 494/569/109
f 476/540/330 496/572/67 495/570/264
f 496/572/67 427/490/4 497/573/66
f 427/490/4 432/495/7 498/574/69
f 498/574/69 432/495/7 499/575/10
f 499/575/10 440/503/11 500/577/103
f 440/503/11 448/511/14 255/578/257
f 255/578/257 448/511/14 452/515/15
f 452/515/15 456/519/321 502/580/81
f 502/580/81 456/519/321 460/523/324
f 503/581/97 460/523/324 504/582/333
f 505/583/259 504/582/333 463/526/23
f 506/584/71 463/526/23 467/530/26
f 260/585/72 467/530/26 475/539/27
f 475/539/27 425/488/29 508/587/262
f 508/587/262 425/488/29 386/449/31
f 386/449/31 484/550/332 299/552/83
f 477/542/263 107/109/108 108/110/109
