# Blender 4.5.3 LTS
# www.blender.org
o dome
v 0.347803 0.115457 0.023443
v 0.347832 0.117689 -0.013465
v 0.347810 0.069519 0.095914
v 0.347804 0.059539 0.071991
v 0.365383 0.074788 0.085116
v 0.347979 0.075979 0.054318
v 0.371229 0.095330 0.058475
v 0.365305 0.082344 0.030568
v 0.369927 0.110987 0.013043
v 0.370532 0.085184 0.000000
v 0.367883 0.081821 -0.028884
v 0.374902 0.103707 -0.036994
v 0.347859 0.080505 -0.047973
v 0.369988 0.081515 -0.077240
v 0.347814 0.059902 -0.071749
v 0.347850 0.031408 0.113926
v 0.347922 0.038749 0.085710
v 0.372739 0.046927 0.100162
v 0.369070 0.058400 0.063003
v 0.394501 0.086306 0.047016
v 0.385543 0.072319 0.019638
v 0.399724 0.091052 0.025535
v 0.391668 0.099776 0.000000
v 0.400679 0.090399 -0.024547
v 0.364316 0.046469 -0.074959
v 0.377153 0.041911 -0.100676
v 0.347981 0.037291 -0.112088
v 0.363762 0.025222 0.110976
v 0.394751 0.047723 0.086097
v 0.390823 0.054377 0.045642
v 0.394013 0.066702 -0.009459
v 0.419489 0.074811 -0.000000
v 0.384037 0.058131 -0.050583
v 0.409724 0.072055 -0.046224
v 0.392695 0.064018 -0.076518
v 0.348049 0.021166 -0.091447
v 0.360164 0.011437 0.088974
v 0.376736 0.014115 0.080456
v 0.389539 0.021581 0.069279
v 0.407426 0.064545 0.060392
v 0.410788 0.044036 0.009501
v 0.429190 0.055826 0.023657
v 0.405978 0.045105 -0.028120
v 0.429190 0.055826 -0.023657
v 0.408465 0.043135 -0.075987
v 0.379600 0.025576 -0.075782
v 0.391214 0.005335 0.101042
v 0.421205 0.027350 0.066957
v 0.405298 0.026471 0.047182
v 0.430849 0.034147 0.046224
v 0.440925 0.032957 0.000000
v 0.401964 0.021880 -0.053565
v 0.370056 0.009766 -0.111048
v 0.347813 -0.005956 0.117901
v 0.370658 -0.004497 0.111307
v 0.416773 0.006065 0.078475
v 0.413382 0.010273 0.036979
v 0.445063 0.007743 0.013861
v 0.420388 0.010479 0.012199
v 0.417075 0.010683 -0.028120
v 0.435240 0.032378 -0.037999
v 0.418090 0.008667 -0.076676
v 0.391611 -0.001006 -0.100412
v 0.347813 0.005956 -0.117901
v 0.404479 -0.009238 0.053565
v 0.435859 -0.008959 0.046224
v 0.420770 -0.011132 0.000000
v 0.442646 -0.011468 -0.023657
v 0.435859 -0.008959 -0.046224
v 0.399353 -0.002944 -0.062268
v 0.375859 -0.017007 -0.080456
v 0.360592 -0.010027 -0.088974
v 0.366817 -0.018903 0.085152
v 0.388604 -0.024511 0.068429
v 0.406789 -0.023252 0.085046
v 0.415829 -0.016337 0.028012
v 0.438148 -0.034199 0.023657
v 0.439698 -0.037002 0.000000
v 0.415829 -0.016337 -0.028012
v 0.414320 -0.027617 -0.076676
v 0.366259 -0.021305 -0.111111
v 0.375599 -0.043968 0.100570
v 0.402359 -0.038334 0.043404
v 0.424246 -0.034238 0.059652
v 0.409275 -0.046865 0.009502
v 0.407492 -0.042272 -0.028120
v 0.432371 -0.042178 -0.035015
v 0.390875 -0.031830 -0.063003
v 0.375599 -0.043968 -0.100570
v 0.348047 -0.036795 0.112320
v 0.396952 -0.059696 0.076676
v 0.385952 -0.051837 0.053565
v 0.412199 -0.069039 0.046224
v 0.416448 -0.074896 0.023657
v 0.416807 -0.078079 -0.000000
v 0.416448 -0.074896 -0.023657
v 0.412199 -0.069039 -0.046224
v 0.401190 -0.064796 -0.066957
v 0.386729 -0.058731 -0.085536
v 0.347807 -0.027131 0.089329
v 0.365433 -0.046187 0.074628
v 0.385036 -0.070622 0.028120
v 0.386670 -0.074353 -0.007138
v 0.384666 -0.060984 -0.045998
v 0.347872 -0.036271 -0.086805
v 0.368597 -0.081565 0.077837
v 0.364232 -0.075403 0.045824
v 0.377521 -0.098260 0.046238
v 0.380826 -0.104190 0.023657
v 0.379940 -0.107268 -0.000000
v 0.369660 -0.083352 -0.018925
v 0.380826 -0.104190 -0.023657
v 0.377521 -0.098260 -0.046238
v 0.371161 -0.088206 -0.067535
v 0.369255 -0.058445 -0.063137
v 0.347816 -0.069624 0.095900
v 0.347853 -0.067109 0.065889
v 0.360214 -0.089285 0.009459
v 0.347990 -0.082418 -0.045017
v 0.347814 -0.059902 -0.071749
v 0.347871 -0.071890 -0.094360
v 0.347832 -0.117689 0.013465
v 0.347803 -0.115457 -0.023443
v 0.347800 0.103447 -0.056736
v 0.347810 0.069519 -0.095914
v 0.347800 0.103447 0.056736
v 0.347850 -0.031408 -0.113926
v 0.347800 -0.103447 -0.056736
v 0.347800 -0.103447 0.056736
v 0.347800 0.089529 0.026371
v 0.347800 0.092718 -0.009438
v 0.347796 0.002186 0.093230
v 0.347796 0.002186 -0.093230
v 0.347800 -0.089529 0.026371
v 0.347800 -0.092718 -0.009438
vn 0.1409 0.7484 -0.6481
vn 0.2243 0.9727 0.0590
vn 0.2137 0.9279 -0.3056
vn 0.3662 0.5221 -0.7703
vn 0.6672 0.7436 0.0436
vn 0.5632 0.7316 -0.3841
vn 0.4488 0.5135 0.7314
vn 0.7602 0.6221 -0.1875
vn 0.6876 0.5060 -0.5208
vn 0.7145 0.3695 0.5941
vn 0.3239 0.2250 -0.9190
vn 0.2625 0.1747 -0.9490
vn 0.8901 0.4559 0.0008
vn 0.8114 0.4427 -0.3815
vn 0.4732 0.2282 0.8509
vn 0.9331 0.3292 -0.1446
vn 0.8242 0.2404 -0.5128
vn 0.6444 0.2059 0.7365
vn 0.9429 0.2721 0.1921
vn 0.8377 -0.0870 -0.5392
vn 0.6617 -0.0578 0.7475
vn 0.7886 -0.1340 0.6001
vn 0.4218 -0.0497 -0.9053
vn 0.9695 -0.1085 0.2197
vn 0.9863 -0.1435 0.0816
vn 0.9523 -0.2591 -0.1610
vn 0.9319 -0.1999 -0.3025
vn 0.5034 -0.1676 0.8476
vn 0.5765 -0.2120 -0.7891
vn 0.5866 -0.3283 0.7403
vn 0.2833 -0.1687 0.9441
vn 0.4341 -0.5239 0.7328
vn 0.3016 -0.2971 -0.9060
vn 0.3672 -0.6183 -0.6949
vn 0.1990 -0.7510 -0.6296
vn 0.1320 -0.7502 0.6479
vn -0.2565 -0.8704 -0.4204
vn -0.3636 -0.9209 0.1406
vn -0.3114 -0.6942 -0.6489
vn -0.1928 -0.4457 0.8742
vn -0.5684 -0.7266 -0.3860
vn -0.5747 -0.8051 0.1465
vn -0.1837 -0.1974 -0.9630
vn -0.6971 -0.6492 0.3044
vn -0.6066 -0.4491 -0.6560
vn -0.7595 -0.6432 -0.0969
vn -0.8303 -0.4489 -0.3302
vn -0.6811 -0.3879 0.6210
vn -0.8743 -0.2819 0.3952
vn -0.7087 -0.1659 0.6858
vn -0.4586 0.0114 -0.8886
vn -0.8937 0.0430 0.4466
vn -0.6971 0.0273 -0.7164
vn -0.9063 0.0577 -0.4186
vn -0.9623 0.0032 -0.2720
vn -0.9844 0.0729 -0.1601
vn -0.9852 0.0461 0.1652
vn -0.8677 0.2191 -0.4463
vn -0.9541 0.2758 -0.1170
vn -0.6666 0.1772 0.7240
vn -0.6960 0.3940 -0.6002
vn -0.1686 0.1621 0.9723
vn -0.2650 0.1271 -0.9558
vn -0.3786 0.2570 0.8892
vn -0.7751 0.5570 -0.2983
vn -0.7993 0.5908 0.1100
vn -0.5198 0.3303 -0.7879
vn -0.6098 0.4922 0.6212
vn -0.5862 0.4303 -0.6865
vn -0.5413 0.8332 -0.1132
vn -0.4533 0.7941 0.4049
vn -0.1704 0.4983 -0.8501
vn -0.4280 0.7551 0.4967
vn -0.2971 0.7293 0.6163
vn -0.4465 0.6374 -0.6280
vn -0.4069 0.8675 -0.2862
vn -0.2800 0.9225 0.2656
vn 0.3457 0.8032 -0.4851
vn 0.2880 0.9008 0.3250
vn 0.4128 0.9063 -0.0908
vn 0.3909 0.9156 -0.0943
vn 0.5140 0.8483 0.1277
vn 0.4429 0.8467 0.2948
vn 0.2273 0.4163 0.8804
vn 0.3316 0.5146 0.7907
vn 0.2680 0.4333 -0.8605
vn 0.5133 0.5799 0.6326
vn 0.5281 0.7147 -0.4586
vn 0.4221 0.5170 -0.7447
vn 0.5234 0.6497 0.5513
vn 0.6674 0.7437 -0.0391
vn 0.2935 0.3263 0.8986
vn 0.7203 0.6196 0.3120
vn 0.7573 0.6191 -0.2080
vn 0.5571 0.4022 -0.7265
vn 0.2722 0.0739 0.9594
vn 0.7580 0.6240 0.1899
vn 0.7861 0.3776 0.4894
vn 0.8108 0.4507 0.3734
vn 0.8901 0.4559 -0.0008
vn 0.7938 0.4191 -0.4408
vn 0.5155 0.2463 0.8207
vn 0.6168 0.1875 -0.7645
vn 0.4041 0.1039 0.9088
vn 0.6815 0.2334 0.6936
vn 0.8735 0.0781 0.4805
vn 0.5011 0.1636 -0.8498
vn 0.9408 0.2683 0.2073
vn 0.9885 0.0993 -0.1145
vn 0.9398 0.1092 0.3236
vn 0.7866 -0.3914 -0.4776
vn 0.9574 0.0701 -0.2801
vn 0.8840 0.1039 -0.4557
vn 0.6800 -0.0706 -0.7298
vn 0.8360 -0.0972 0.5400
vn 0.2997 -0.0347 -0.9534
vn 0.9930 -0.1179 -0.0036
vn 0.5040 -0.1847 -0.8437
vn 0.9077 -0.2309 0.3503
vn 0.2055 -0.1033 -0.9732
vn 0.8559 -0.2438 -0.4561
vn 0.5297 -0.1757 0.8298
vn 0.8199 -0.4974 -0.2835
vn 0.3375 -0.2075 0.9182
vn 0.8470 -0.4193 0.3267
vn 0.6558 -0.3991 -0.6408
vn 0.7031 -0.3339 0.6278
vn 0.5909 -0.3121 -0.7439
vn 0.7356 -0.4500 0.5064
vn 0.8768 -0.4675 0.1128
vn 0.8708 -0.4853 -0.0785
vn 0.5767 -0.6842 -0.4463
vn 0.5392 -0.6722 0.5074
vn 0.5012 -0.6282 -0.5951
vn 0.6138 -0.7283 0.3046
vn 0.6311 -0.7674 0.1128
vn 0.6188 -0.7816 -0.0785
vn 0.6091 -0.7407 -0.2836
vn 0.2872 -0.9153 0.2824
vn 0.2555 -0.4339 0.8640
vn 0.3613 -0.5308 0.7666
vn 0.3533 -0.5233 -0.7754
vn 0.2301 -0.4234 -0.8762
vn 0.3199 -0.7974 0.5116
vn 0.2861 -0.9565 -0.0581
vn 0.3476 -0.9314 0.1082
vn 0.2732 -0.9049 -0.3264
vn -0.3457 -0.9270 -0.1453
vn 0.3126 -0.8195 -0.4803
vn -0.4061 -0.6519 0.6404
vn -0.2196 -0.9301 0.2944
vn -0.5081 -0.8453 -0.1654
vn -0.4286 -0.7516 0.5014
vn -0.3568 -0.5160 -0.7788
vn -0.4787 -0.3924 -0.7854
vn -0.4188 -0.7531 -0.5074
vn -0.5097 -0.7194 -0.4719
vn -0.6261 -0.7791 -0.0318
vn -0.6357 -0.7103 0.3022
vn -0.8355 -0.5419 0.0914
vn -0.4016 -0.2841 -0.8706
vn -0.9602 -0.2685 0.0775
vn -0.5773 -0.4492 0.6819
vn -0.3860 -0.3165 0.8665
vn -0.7650 -0.5921 -0.2532
vn -0.7033 -0.3973 -0.5895
vn -0.7592 -0.4166 0.5000
vn -0.9218 -0.2849 -0.2630
vn -0.5041 -0.0503 0.8622
vn -0.5985 -0.0353 0.8004
vn -0.8376 -0.0775 -0.5407
vn -0.5969 0.0656 -0.7996
vn -0.3835 -0.0813 0.9199
vn -0.9947 -0.0636 0.0814
vn -0.8719 -0.0778 0.4835
vn 0.2136 0.7504 0.6255
vn -0.8018 -0.0873 -0.5911
vn -0.3521 0.0406 -0.9351
vn -0.9418 0.3254 0.0844
vn -0.8937 0.3568 -0.2721
vn -0.8366 0.2669 0.4784
vn -0.4577 0.4040 0.7920
vn -0.7804 0.2561 -0.5704
vn -0.7492 0.4455 0.4902
vn -0.7360 0.6688 -0.1049
vn -0.7251 0.6388 0.2572
vn -0.3440 0.3531 -0.8701
vn -0.7172 0.5727 -0.3970
vn -0.4638 0.6316 -0.6213
vn -0.5620 0.6750 -0.4781
vn -0.5963 0.7492 0.2885
vn -0.4802 0.8768 0.0235
vn -0.3512 0.5037 0.7892
vn -0.4342 0.8565 -0.2790
vn -0.1616 0.8584 -0.4868
vn -0.1391 0.9864 -0.0878
vn -0.3662 0.9277 0.0720
vn -0.9999 -0.0087 -0.0054
vn -0.9999 0.0103 -0.0023
vn 0.3225 0.8977 0.3001
vn 0.5065 0.8509 -0.1392
vn 0.4629 0.8421 0.2769
vn 0.5025 0.6278 0.5944
vn 0.5428 0.6844 -0.4867
vn 0.7405 0.6037 0.2954
vn 0.2199 0.1030 0.9701
vn 0.6021 0.1981 -0.7735
vn 0.8885 0.1033 0.4472
vn 0.9819 0.1172 -0.1487
vn 0.7723 -0.4015 -0.4923
vn 0.8479 -0.4521 0.2770
vn 0.8708 -0.4853 0.0785
vn 0.8770 -0.4666 -0.1145
vn 0.5433 -0.6849 -0.4856
vn 0.5630 -0.6679 0.4868
vn 0.6091 -0.7407 0.2836
vn 0.6188 -0.7816 0.0785
vn 0.6311 -0.7674 -0.1128
vn 0.6138 -0.7283 -0.3046
vn 0.2663 -0.9155 0.3015
vn 0.3203 -0.9409 -0.1104
vn 0.3080 -0.9081 -0.2836
vn -0.2814 -0.9558 -0.0851
vn -0.3871 -0.6964 0.6042
vn -0.4638 -0.3932 -0.7939
vn -0.9458 -0.3049 0.1122
vn -0.9188 -0.2893 -0.2687
vn -0.4309 -0.1022 0.8966
vn -0.6664 0.0273 -0.7451
vn 0.1729 0.7446 0.6447
vn -0.9463 0.3037 0.1105
vn -0.8376 0.2333 0.4940
vn -0.4981 0.4008 0.7689
vn -1.0000 -0.0056 -0.0010
vn -0.9997 0.0198 -0.0152
vn -0.9999 -0.0092 0.0077
vn -1.0000 0.0039 -0.0006
vn -1.0000 -0.0007 -0.0003
vn -1.0000 0.0016 0.0055
vn -0.9999 -0.0088 0.0067
vn -1.0000 -0.0005 0.0005
vn -1.0000 -0.0026 -0.0001
vn -1.0000 -0.0028 -0.0006
vn -1.0000 0.0002 0.0007
vn -0.9999 0.0007 -0.0132
vn -1.0000 0.0001 -0.0000
vn -1.0000 -0.0043 0.0020
vn -1.0000 0.0009 0.0068
vn -1.0000 0.0075 -0.0029
vn -0.9998 0.0122 0.0128
vn -0.9998 0.0013 0.0218
vn -1.0000 -0.0024 -0.0039
vn -1.0000 0.0023 0.0009
vn -1.0000 0.0022 -0.0015
vn -0.9999 0.0015 0.0111
vn -1.0000 -0.0004 -0.0012
vn -1.0000 0.0021 -0.0060
vn -1.0000 -0.0019 0.0005
vn -1.0000 0.0015 -0.0011
vn -1.0000 -0.0024 0.0027
vn -1.0000 0.0016 0.0011
vn -1.0000 -0.0022 -0.0073
vn -1.0000 -0.0012 0.0002
vn -1.0000 -0.0000 -0.0000
vn -0.9999 0.0036 0.0097
vt 0.671161 0.281978
vt 0.697891 0.207253
vt 0.715090 0.343802
vt 0.718919 0.562713
vt 0.687500 0.534558
vt 0.719198 0.464441
vt 0.679848 0.400199
vt 0.607817 0.187500
vt 0.656250 0.500000
vt 0.640625 0.562500
vt 0.606567 0.500000
vt 0.639064 0.437500
vt 0.612180 0.375000
vt 0.623673 0.812500
vt 0.595563 0.750000
vt 0.671198 0.750000
vt 0.578286 0.437500
vt 0.625000 0.281078
vt 0.577540 0.283466
vt 0.603325 0.667055
vt 0.544073 0.687500
vt 0.533916 0.125000
vt 0.661137 0.123820
vt 0.535950 0.066709
vt 0.578286 0.562500
vt 0.544067 0.500000
vt 0.543444 0.396147
vt 0.591734 0.875000
vt 0.512752 0.812500
vt 0.515588 0.281661
vt 0.510998 0.724803
vt 0.549680 0.625000
vt 0.509405 0.537235
vt 0.487179 0.375000
vt 0.453088 0.281661
vt 0.455926 0.750000
vt 0.445771 0.665313
vt 0.497588 0.187500
vt 0.424156 0.125000
vt 0.487180 0.625000
vt 0.453286 0.562500
vt 0.450317 0.500000
vt 0.437500 0.406180
vt 0.484536 0.437500
vt 0.484365 0.875000
vt 0.386049 0.812500
vt 0.386121 0.187500
vt 0.390588 0.718339
vt 0.464150 0.933284
vt 0.340502 0.876171
vt 0.328278 0.720989
vt 0.360516 0.106880
vt 0.326735 0.312500
vt 0.300476 0.216144
vt 0.378980 0.250000
vt 0.284910 0.343802
vt 0.301964 0.792135
vt 0.284910 0.656198
vt 0.678621 0.601722
vt 0.703257 0.687500
vt 0.709893 0.588087
vt 0.671875 0.500000
vt 0.711298 0.468763
vt 0.672580 0.407645
vt 0.648154 0.726960
vt 0.690717 0.767380
vt 0.617060 0.124552
vt 0.641092 0.218431
vt 0.690988 0.233416
vt 0.639064 0.562500
vt 0.609414 0.655822
vt 0.625000 0.468727
vt 0.640706 0.848224
vt 0.550047 0.875000
vt 0.513374 0.918719
vt 0.579601 0.406416
vt 0.624015 0.326328
vt 0.551381 0.750000
vt 0.576782 0.530835
vt 0.551363 0.662773
vt 0.568628 0.213234
vt 0.544073 0.312500
vt 0.517101 0.406417
vt 0.493625 0.277074
vt 0.542363 0.812500
vt 0.435610 0.844115
vt 0.468750 0.406181
vt 0.481573 0.687500
vt 0.441433 0.750000
vt 0.468750 0.593820
vt 0.518429 0.625000
vt 0.520566 0.543180
vt 0.481567 0.500000
vt 0.429111 0.646601
vt 0.420532 0.530835
vt 0.448549 0.187500
vt 0.429404 0.273040
vt 0.387823 0.687500
vt 0.360711 0.147473
vt 0.456296 0.125000
vt 0.513374 0.081281
vt 0.362982 0.876895
vt 0.360851 0.593583
vt 0.362635 0.479427
vt 0.423351 0.406417
vt 0.359704 0.780053
vt 0.354087 0.274751
vt 0.374740 0.344386
vt 0.312500 0.531273
vt 0.293797 0.349729
vt 0.328286 0.437500
vt 0.304249 0.736116
vt 0.309012 0.233416
vt 0.327853 0.655707
vt 0.290107 0.588087
vt 0.288702 0.468762
vt 0.678319 0.660608
vt 0.715090 0.656198
vt 0.642102 0.625000
vt 0.639484 0.893120
vt 0.697891 0.792747
vt 0.393429 0.375000
vt 0.390786 0.437500
vt 0.393429 0.625000
vt 0.387823 0.312500
vt 0.390786 0.562500
vt 0.387817 0.500000
vt 0.328125 0.375000
vt 0.328125 0.625000
vt 0.328286 0.562500
vt 0.328286 0.437500
vt 0.325317 0.500000
vt 0.280808 0.535691
vt 0.281081 0.437287
vt 0.705316 0.334740
vt 0.534723 0.575459
vt 0.561831 0.580519
vt 0.515304 0.549857
vt 0.471713 0.678119
vt 0.463361 0.691812
vt 0.493906 0.684871
vt 0.427733 0.599530
vt 0.442277 0.606583
vt 0.453743 0.586247
vt 0.469122 0.573322
vt 0.463361 0.558188
vt 0.438169 0.580519
vt 0.491326 0.549198
vt 0.536639 0.558188
vt 0.576321 0.628433
vt 0.573464 0.604928
vt 0.557774 0.643104
vt 0.572268 0.650470
vt 0.560230 0.623597
vt 0.493906 0.565129
vt 0.557723 0.606583
vt 0.516993 0.567268
vt 0.546356 0.586377
vt 0.439770 0.623597
vt 0.423679 0.620949
vt 0.426536 0.645072
vt 0.439540 0.671243
vt 0.484696 0.700143
vt 0.508709 0.700798
vt 0.536639 0.691812
vt 0.561736 0.669603
vt 0.541813 0.667909
vt 0.442243 0.643176
vt 0.516993 0.682732
vt 0.453743 0.663753
s 0
f 14/1/1 125/2/1 124/3/1
f 1/4/2 9/5/2 2/6/2
f 12/7/3 124/3/3 2/6/3
f 125/2/4 14/1/4 26/8/4
f 23/9/5 22/10/5 32/11/5
f 24/12/6 34/13/6 12/7/6
f 18/14/7 29/15/7 5/16/7
f 32/11/8 44/17/8 24/12/8
f 35/18/9 34/13/9 45/19/9
f 40/20/10 29/15/10 48/21/10
f 26/8/11 53/22/11 27/23/11
f 53/22/12 64/24/12 27/23/12
f 32/11/13 42/25/13 51/26/13
f 44/17/14 61/27/14 34/13/14
f 28/28/15 47/29/15 18/14/15
f 51/26/16 61/27/16 44/17/16
f 45/19/17 61/27/17 62/30/17
f 47/29/18 56/31/18 29/15/18
f 42/25/19 50/32/19 58/33/19
f 62/30/20 69/34/20 80/35/20
f 47/29/21 75/36/21 56/31/21
f 56/31/22 75/36/22 84/37/22
f 63/38/23 81/39/23 53/22/23
f 58/33/24 66/40/24 77/41/24
f 58/33/25 77/41/25 78/42/25
f 78/42/26 87/43/26 68/44/26
f 68/44/27 87/43/27 69/34/27
f 47/29/28 55/45/28 82/46/28
f 63/38/29 80/35/29 89/47/29
f 82/46/30 91/48/30 75/36/30
f 55/45/31 54/49/31 90/50/31
f 82/46/32 106/51/32 91/48/32
f 89/47/33 127/52/33 81/39/33
f 114/53/34 121/54/34 99/55/34
f 121/54/35 114/53/35 128/56/35
f 106/51/36 116/57/36 129/58/36
f 8/59/37 6/60/37 130/61/37
f 10/62/38 131/63/38 11/64/38
f 6/60/39 19/65/39 4/66/39
f 36/67/40 25/68/40 15/69/40
f 21/70/41 30/71/41 8/59/41
f 31/72/42 10/62/42 11/64/42
f 17/73/43 37/74/43 132/75/43
f 43/76/44 31/72/44 33/77/44
f 30/71/45 39/78/45 19/65/45
f 31/72/46 41/79/46 21/70/46
f 41/79/47 49/80/47 30/71/47
f 33/77/48 46/81/48 52/82/48
f 52/82/49 60/83/49 43/76/49
f 70/84/50 52/82/50 46/81/50
f 38/85/51 73/86/51 37/74/51
f 70/84/52 79/87/52 60/83/52
f 65/88/53 74/89/53 39/78/53
f 76/90/54 65/88/54 57/91/54
f 59/92/55 76/90/55 57/91/55
f 67/93/56 76/90/56 59/92/56
f 79/87/57 67/93/57 60/83/57
f 83/94/58 65/88/58 76/90/58
f 67/93/59 85/95/59 76/90/59
f 71/96/60 88/97/60 70/84/60
f 74/89/61 83/94/61 92/98/61
f 105/99/62 72/100/62 133/101/62
f 73/86/63 100/102/63 132/75/63
f 105/99/64 71/96/64 72/100/64
f 85/95/65 102/103/65 83/94/65
f 103/104/66 85/95/66 86/105/66
f 101/106/67 73/86/67 74/89/67
f 115/107/68 104/108/68 88/97/68
f 92/98/69 101/106/69 74/89/69
f 103/104/70 118/109/70 102/103/70
f 119/110/71 111/111/71 104/108/71
f 100/102/72 101/106/72 117/112/72
f 115/107/73 119/110/73 104/108/73
f 115/107/74 120/113/74 119/110/74
f 107/114/75 117/112/75 101/106/75
f 118/109/76 134/115/76 107/114/76
f 111/111/77 119/110/77 135/116/77
f 12/7/78 14/1/78 124/3/78
f 7/117/79 1/4/79 126/118/79
f 23/9/80 12/7/80 9/5/80
f 2/6/81 9/5/81 12/7/81
f 9/5/82 22/10/82 23/9/82
f 9/5/83 20/119/83 22/10/83
f 16/120/84 18/14/84 3/121/84
f 3/121/85 18/14/85 5/16/85
f 26/8/86 27/23/86 125/2/86
f 40/20/87 5/16/87 29/15/87
f 34/13/88 14/1/88 12/7/88
f 14/1/89 35/18/89 26/8/89
f 7/117/90 40/20/90 20/119/90
f 23/9/91 32/11/91 24/12/91
f 16/120/92 28/28/92 18/14/92
f 40/20/93 22/10/93 20/119/93
f 24/12/94 44/17/94 34/13/94
f 35/18/95 45/19/95 26/8/95
f 28/28/96 54/49/96 55/45/96
f 32/11/97 22/10/97 42/25/97
f 40/20/98 48/21/98 50/32/98
f 42/25/99 40/20/99 50/32/99
f 32/11/100 51/26/100 44/17/100
f 45/19/101 34/13/101 61/27/101
f 18/14/102 47/29/102 29/15/102
f 63/38/103 45/19/103 62/30/103
f 28/28/104 55/45/104 47/29/104
f 48/21/105 29/15/105 56/31/105
f 66/40/106 48/21/106 56/31/106
f 53/22/107 26/8/107 63/38/107
f 51/26/108 42/25/108 58/33/108
f 68/44/109 51/26/109 58/33/109
f 58/33/110 50/32/110 66/40/110
f 97/122/111 80/35/111 87/43/111
f 61/27/112 68/44/112 69/34/112
f 62/30/113 61/27/113 69/34/113
f 63/38/114 62/30/114 80/35/114
f 56/31/115 84/37/115 66/40/115
f 53/22/116 81/39/116 64/24/116
f 58/33/117 78/42/117 68/44/117
f 63/38/118 89/47/118 81/39/118
f 77/41/119 66/40/119 84/37/119
f 64/24/120 81/39/120 127/52/120
f 80/35/121 69/34/121 87/43/121
f 47/29/122 82/46/122 75/36/122
f 87/43/123 96/123/123 97/122/123
f 82/46/124 55/45/124 90/50/124
f 93/124/125 77/41/125 84/37/125
f 80/35/126 98/125/126 99/55/126
f 84/37/127 75/36/127 91/48/127
f 89/47/128 80/35/128 99/55/128
f 84/37/129 91/48/129 93/124/129
f 94/126/130 78/42/130 77/41/130
f 96/123/131 78/42/131 95/127/131
f 113/128/132 98/125/132 97/122/132
f 108/129/133 91/48/133 106/51/133
f 98/125/134 114/53/134 99/55/134
f 108/129/135 94/126/135 93/124/135
f 109/130/136 95/127/136 94/126/136
f 112/131/137 95/127/137 110/132/137
f 113/128/138 96/123/138 112/131/138
f 108/129/139 122/133/139 109/130/139
f 82/46/140 90/50/140 116/57/140
f 82/46/141 116/57/141 106/51/141
f 89/47/142 99/55/142 121/54/142
f 127/52/143 89/47/143 121/54/143
f 108/129/144 106/51/144 129/58/144
f 123/134/145 110/132/145 122/133/145
f 110/132/146 109/130/146 122/133/146
f 113/128/147 123/134/147 128/56/147
f 130/61/148 10/62/148 8/59/148
f 128/56/149 114/53/149 113/128/149
f 33/77/150 15/69/150 25/68/150
f 11/64/151 131/63/151 13/135/151
f 10/62/152 21/70/152 8/59/152
f 13/135/153 33/77/153 11/64/153
f 19/65/154 17/73/154 4/66/154
f 19/65/155 38/85/155 17/73/155
f 8/59/156 19/65/156 6/60/156
f 19/65/157 8/59/157 30/71/157
f 10/62/158 31/72/158 21/70/158
f 33/77/159 31/72/159 11/64/159
f 43/76/160 41/79/160 31/72/160
f 17/73/161 38/85/161 37/74/161
f 41/79/162 60/83/162 59/92/162
f 33/77/163 25/68/163 46/81/163
f 36/67/164 46/81/164 25/68/164
f 21/70/165 41/79/165 30/71/165
f 30/71/166 49/80/166 39/78/166
f 33/77/167 52/82/167 43/76/167
f 57/91/168 41/79/168 59/92/168
f 46/81/169 72/100/169 71/96/169
f 46/81/170 71/96/170 70/84/170
f 57/91/171 65/88/171 49/80/171
f 38/85/172 74/89/172 73/86/172
f 72/100/173 36/67/173 133/101/173
f 60/83/174 67/93/174 59/92/174
f 52/82/175 70/84/175 60/83/175
f 126/118/176 5/16/176 7/117/176
f 49/80/177 65/88/177 39/78/177
f 37/74/178 73/86/178 132/75/178
f 67/93/179 86/105/179 85/95/179
f 76/90/180 85/95/180 83/94/180
f 79/87/181 88/97/181 86/105/181
f 115/107/182 71/96/182 105/99/182
f 65/88/183 83/94/183 74/89/183
f 88/97/184 104/108/184 86/105/184
f 85/95/185 103/104/185 102/103/185
f 104/108/186 103/104/186 86/105/186
f 101/106/187 100/102/187 73/86/187
f 92/98/188 83/94/188 102/103/188
f 92/98/189 107/114/189 101/106/189
f 102/103/190 107/114/190 92/98/190
f 104/108/191 111/111/191 103/104/191
f 111/111/192 118/109/192 103/104/192
f 115/107/193 105/99/193 120/113/193
f 102/103/194 118/109/194 107/114/194
f 107/114/195 134/115/195 117/112/195
f 118/109/196 135/116/196 134/115/196
f 118/109/197 111/111/197 135/116/197
f 6/136/198 3/137/198 1/138/198
f 119/139/199 128/140/199 135/141/199
f 7/117/200 9/5/200 1/4/200
f 23/9/201 24/12/201 12/7/201
f 9/5/202 7/117/202 20/119/202
f 40/20/203 7/117/203 5/16/203
f 34/13/204 35/18/204 14/1/204
f 40/20/205 42/25/205 22/10/205
f 28/28/206 16/120/206 54/49/206
f 63/38/207 26/8/207 45/19/207
f 66/40/208 50/32/208 48/21/208
f 68/44/209 61/27/209 51/26/209
f 97/122/210 98/125/210 80/35/210
f 93/124/211 94/126/211 77/41/211
f 94/126/212 95/127/212 78/42/212
f 96/123/213 87/43/213 78/42/213
f 113/128/214 114/53/214 98/125/214
f 108/129/215 93/124/215 91/48/215
f 108/129/216 109/130/216 94/126/216
f 109/130/217 110/132/217 95/127/217
f 112/131/218 96/123/218 95/127/218
f 113/128/219 97/122/219 96/123/219
f 108/129/220 129/58/220 122/133/220
f 123/134/221 112/131/221 110/132/221
f 113/128/222 112/131/222 123/134/222
f 130/61/223 131/63/223 10/62/223
f 33/77/224 13/135/224 15/69/224
f 19/65/225 39/78/225 38/85/225
f 41/79/226 43/76/226 60/83/226
f 57/91/227 49/80/227 41/79/227
f 46/81/228 36/67/228 72/100/228
f 38/85/229 39/78/229 74/89/229
f 126/118/230 3/121/230 5/16/230
f 67/93/231 79/87/231 86/105/231
f 79/87/232 70/84/232 88/97/232
f 115/107/233 88/97/233 71/96/233
f 27/142/234 36/143/234 15/144/234
f 27/142/235 15/144/235 13/145/235
f 124/146/236 125/147/236 27/142/236
f 1/138/237 2/148/237 124/146/237
f 3/137/238 126/149/238 1/138/238
f 54/150/239 16/151/239 3/137/239
f 100/152/240 90/153/240 54/150/240
f 132/154/241 100/152/241 54/150/241
f 124/146/242 27/142/242 13/145/242
f 124/146/243 13/145/243 131/155/243
f 132/154/244 54/150/244 3/137/244
f 17/156/245 132/154/245 3/137/245
f 1/138/246 124/146/246 131/155/246
f 1/138/246 131/155/246 130/157/246
f 4/158/247 17/156/247 3/137/247
f 1/138/248 130/157/248 6/136/248
f 6/136/249 4/158/249 3/137/249
f 133/159/250 36/143/250 27/142/250
f 27/142/251 64/160/251 127/161/251
f 127/161/252 121/162/252 128/140/252
f 128/140/253 123/163/253 122/164/253
f 122/164/254 129/165/254 116/166/254
f 116/166/255 90/153/255 100/152/255
f 116/166/256 100/152/256 117/167/256
f 133/159/257 27/142/257 127/161/257
f 105/168/258 133/159/258 127/161/258
f 122/164/259 116/166/259 117/167/259
f 122/164/260 117/167/260 134/169/260
f 105/168/261 127/161/261 128/140/261
f 120/170/262 105/168/262 128/140/262
f 128/140/263 122/164/263 134/169/263
f 128/140/264 134/169/264 135/141/264
f 119/139/265 120/170/265 128/140/265
