# Blender 4.5.3 LTS
# www.blender.org
o LightR
v 0.320000 0.221884 -0.046541
v 0.320000 0.246251 -0.037717
v 0.320000 0.270277 -0.103451
v 0.330000 0.221884 -0.046541
v 0.330000 0.270277 -0.103451
v 0.330000 0.246251 -0.037717
v 0.320000 0.270193 -0.103496
v 0.320000 0.255903 0.002883
v 0.320000 0.254785 -0.182946
v 0.330000 0.255903 0.002883
v 0.330000 0.254785 -0.182946
v 0.320000 0.238359 -0.057881
v 0.330000 0.270193 -0.103496
v 0.320000 0.252767 -0.097077
v 0.330000 0.238359 -0.057881
v 0.320000 0.221819 -0.046610
v 0.330000 0.252767 -0.097077
v 0.330000 0.221819 -0.046610
v 0.320000 0.272378 -0.008457
v 0.320000 0.215914 -0.168798
v 0.330000 0.272378 -0.008457
v 0.320000 0.245761 -0.112388
v 0.330000 0.245761 -0.112388
v 0.330000 0.215914 -0.168798
v 0.345000 0.259165 -0.004872
v 0.320000 0.233912 -0.060831
v 0.345000 0.258190 -0.004968
v 0.320000 0.251611 -0.160507
v 0.320000 0.258099 -0.089274
v 0.345000 0.260141 -0.004968
v 0.345000 0.256387 -0.005715
v 0.320000 0.250601 -0.117573
v 0.345000 0.261943 -0.005715
v 0.320000 0.232175 -0.153433
v 0.345000 0.257252 -0.005252
v 0.320000 0.245883 -0.093721
v 0.345000 0.261079 -0.005252
v 0.320000 0.259357 -0.120760
v 0.345000 0.255008 -0.007094
v 0.320000 0.246128 -0.056385
v 0.330000 0.259357 -0.120760
v 0.345000 0.263323 -0.007094
v 0.330000 0.246128 -0.056385
v 0.345000 0.254261 -0.008896
v 0.345000 0.264069 -0.008896
v 0.330000 0.251611 -0.160507
v 0.330000 0.245883 -0.093721
v 0.345000 0.254546 -0.007959
v 0.345000 0.263785 -0.007959
v 0.330000 0.232175 -0.153433
v 0.345000 0.255630 -0.006336
v 0.330000 0.258099 -0.089274
v 0.345000 0.262701 -0.006336
v 0.330000 0.250601 -0.117573
v 0.330000 0.233912 -0.060831
v 0.345000 0.254261 -0.010847
v 0.345000 0.264069 -0.010847
v 0.330000 0.245404 -0.111407
v 0.345000 0.255008 -0.012650
v 0.320000 0.245404 -0.111407
v 0.345000 0.263323 -0.012650
v 0.330000 0.270161 -0.103408
v 0.330000 0.253744 -0.097433
v 0.345000 0.254546 -0.011785
v 0.330000 0.270099 -0.103386
v 0.345000 0.263785 -0.011785
v 0.320000 0.270161 -0.103408
v 0.345000 0.256387 -0.014029
v 0.345000 0.261943 -0.014029
v 0.330000 0.251365 -0.110349
v 0.345000 0.259165 -0.014872
v 0.320000 0.251365 -0.110349
v 0.345000 0.258190 -0.014776
v 0.330000 0.252479 -0.099803
v 0.345000 0.260141 -0.014776
v 0.345000 0.257252 -0.014491
v 0.345000 0.261079 -0.014491
v 0.345000 0.255630 -0.013407
v 0.345000 0.262701 -0.013407
v 0.345000 0.264165 -0.009872
v 0.345000 0.254165 -0.009872
v 0.330000 0.264165 -0.009872
v 0.330000 0.264069 -0.010847
v 0.330000 0.263785 -0.011785
v 0.330000 0.263323 -0.012650
v 0.330000 0.262701 -0.013407
v 0.330000 0.261943 -0.014029
v 0.330000 0.261079 -0.014491
v 0.330000 0.260141 -0.014776
v 0.330000 0.259165 -0.014872
v 0.330000 0.258190 -0.014776
v 0.330000 0.257252 -0.014491
v 0.330000 0.256387 -0.014029
v 0.330000 0.255630 -0.013407
v 0.330000 0.255008 -0.012650
v 0.330000 0.254546 -0.011785
v 0.330000 0.254261 -0.010847
v 0.330000 0.254165 -0.009872
v 0.330000 0.254261 -0.008896
v 0.330000 0.254546 -0.007959
v 0.330000 0.255008 -0.007094
v 0.330000 0.255630 -0.006336
v 0.330000 0.256387 -0.005715
v 0.330000 0.257252 -0.005252
v 0.330000 0.258190 -0.004968
v 0.330000 0.259165 -0.004872
v 0.330000 0.260141 -0.004968
v 0.330000 0.261079 -0.005252
v 0.330000 0.261943 -0.005715
v 0.330000 0.262701 -0.006336
v 0.330000 0.263323 -0.007094
v 0.330000 0.263785 -0.007959
v 0.330000 0.264069 -0.008896
v 0.330000 0.248319 -0.043411
v 0.330000 0.248322 -0.043407
v 0.320000 0.248322 -0.043407
v 0.320000 0.246193 -0.046499
v 0.320000 0.240850 -0.054262
v 0.330000 0.221927 -0.046571
v 0.320000 0.221927 -0.046571
v 0.330000 0.247443 -0.040991
v 0.330000 0.247344 -0.040721
v 0.330000 0.247537 -0.041251
v 0.330000 0.246438 -0.038230
v 0.330000 0.246655 -0.038828
v 0.330000 0.246863 -0.039397
v 0.330000 0.247051 -0.039914
v 0.330000 0.247213 -0.040360
v 0.330000 0.243938 -0.038559
v 0.330000 0.246179 -0.037743
v 0.330000 0.245321 -0.038056
v 0.320000 0.239554 -0.053741
v 0.330000 0.241742 -0.046164
v 0.330000 0.244737 -0.040554
v 0.330000 0.246212 -0.043652
v 0.330000 0.246025 -0.038142
v 0.330000 0.246245 -0.038700
v 0.330000 0.247212 -0.040362
v 0.330000 0.247050 -0.039916
v 0.330000 0.247343 -0.040724
v 0.330000 0.247441 -0.040994
v 0.330000 0.247536 -0.041254
v 0.330000 0.246862 -0.039399
v 0.330000 0.246655 -0.038829
v 0.330000 0.246238 -0.039787
v 0.355000 0.241040 0.041307
v 0.355000 0.206217 0.041307
v 0.345000 0.206217 0.041307
v 0.345000 0.241040 0.041307
v 0.355000 0.267398 -0.014278
v 0.355000 0.267398 0.014278
v 0.345000 0.267398 0.014278
v 0.345000 0.267398 -0.014278
v 0.355000 0.201689 -0.038693
v 0.355000 0.243589 -0.038693
v 0.345000 0.243589 -0.038693
v 0.345000 0.201689 -0.038693
v 0.355000 0.174004 0.022709
v 0.355000 0.174004 -0.022709
v 0.345000 0.174004 0.022709
v 0.345000 0.174004 -0.022709
v 0.345000 0.263746 0.018023
v 0.345000 0.261748 -0.020072
vn -0.0000 -0.0000 1.0000
vn -0.0000 1.0000 -0.0000
vn -0.0000 -0.0000 -1.0000
vn -1.0000 -0.0000 -0.0000
vn 1.0000 -0.0000 -0.0000
vn -0.0000 0.9952 -0.0980
vn -0.0000 0.9569 -0.2903
vn -0.0000 0.8819 -0.4714
vn -0.0000 0.7730 -0.6344
vn -0.0000 0.6344 -0.7730
vn -0.0000 0.4714 -0.8819
vn -0.0000 0.2903 -0.9569
vn -0.0000 0.0980 -0.9952
vn -0.0000 -0.0980 -0.9952
vn -0.0000 -0.2903 -0.9569
vn -0.0000 -0.4714 -0.8819
vn -0.0000 -0.6344 -0.7730
vn -0.0000 -0.7730 -0.6344
vn -0.0000 -0.8819 -0.4714
vn -0.0000 -0.9569 -0.2903
vn -0.0000 -0.9952 -0.0980
vn -0.0000 -0.9952 0.0980
vn -0.0000 -0.9569 0.2903
vn -0.0000 -0.8819 0.4714
vn -0.0000 -0.7730 0.6344
vn -0.0000 -0.6344 0.7730
vn -0.0000 -0.4714 0.8819
vn -0.0000 -0.2903 0.9569
vn -0.0000 -0.0980 0.9952
vn -0.0000 0.0980 0.9952
vn -0.0000 0.2903 0.9569
vn -0.0000 0.4714 0.8819
vn -0.0000 0.6344 0.7730
vn -0.0000 0.7730 0.6344
vn -0.0000 0.8819 0.4714
vn -0.0000 0.9569 0.2903
vn -0.0000 0.9952 0.0980
vn -0.0000 -0.8237 0.5670
vn -0.0000 0.5670 0.8237
vn -0.0000 0.8237 -0.5670
vn -0.0000 -0.5671 -0.8236
vn -0.0000 0.9815 -0.1913
vn -0.0000 -0.3420 -0.9397
vn -0.0000 -0.8895 0.4570
vn -0.0000 0.3421 0.9397
vn -0.0000 -0.9815 0.1913
vn -0.0000 0.3420 0.9397
vn -0.0000 0.8895 -0.4570
vn -0.0000 0.9397 0.3420
vn -0.0000 -0.9397 -0.3420
vn -0.0000 -0.3420 0.9397
vn -0.0000 0.3420 -0.9397
vn -0.0000 -0.5000 0.8660
vn -0.0000 -0.5000 -0.8660
vn -0.0000 -1.0000 -0.0000
vn -0.0000 0.7159 0.6982
vn -0.0000 0.7159 -0.6982
vn -0.0000 0.3419 0.9397
vn -0.0000 -0.3421 0.9397
vt 0.321065 0.768602
vt 0.401501 0.537204
vt 0.401501 0.768602
vt 0.628441 0.694889
vt 0.546117 0.926287
vt 0.546117 0.694889
vt 0.849877 0.694889
vt 0.753557 0.926287
vt 0.753557 0.694889
vt 0.692113 0.611526
vt 0.691891 0.608704
vt 0.699594 0.624271
vt 0.668973 0.611526
vt 0.669195 0.614347
vt 0.483482 0.517286
vt 0.699594 0.302712
vt 0.638601 0.463492
vt 0.483482 0.409697
vt 0.958123 0.115699
vt 0.960953 0.462796
vt 0.958123 0.462796
vt 0.960953 0.115699
vt 0.963711 0.462796
vt 0.963711 0.115699
vt 0.966290 0.462796
vt 0.966290 0.115699
vt 0.968591 0.462796
vt 0.968591 0.115699
vt 0.970526 0.462796
vt 0.970527 0.115699
vt 0.972361 0.462796
vt 0.972361 0.115699
vt 0.974423 0.462796
vt 0.974423 0.115699
vt 0.976633 0.462796
vt 0.976633 0.115699
vt 0.978907 0.462796
vt 0.978907 0.115699
vt 0.981158 0.462796
vt 0.981158 0.115699
vt 0.983298 0.462796
vt 0.983298 0.115699
vt 0.985245 0.462796
vt 0.946594 0.462796
vt 0.948662 0.809892
vt 0.946594 0.809892
vt 0.948662 0.462796
vt 0.951066 0.809892
vt 0.951066 0.462796
vt 0.953717 0.809892
vt 0.953717 0.462796
vt 0.956511 0.809892
vt 0.956511 0.462796
vt 0.959341 0.809892
vt 0.959341 0.462796
vt 0.962099 0.809892
vt 0.962099 0.462796
vt 0.964678 0.809892
vt 0.964678 0.462796
vt 0.966979 0.809892
vt 0.966979 0.462796
vt 0.968915 0.809892
vt 0.985245 0.115699
vt 0.987163 0.462796
vt 0.985245 0.462796
vt 0.987163 0.115699
vt 0.989280 0.462796
vt 0.989280 0.115699
vt 0.991517 0.462796
vt 0.991517 0.115699
vt 0.993787 0.462796
vt 0.993787 0.115699
vt 0.996002 0.462796
vt 0.996002 0.115699
vt 0.998078 0.462796
vt 0.998078 0.115699
vt 0.999936 0.462796
vt 0.948206 0.115699
vt 0.950273 0.462796
vt 0.948206 0.462796
vt 0.950273 0.115699
vt 0.952678 0.462796
vt 0.952678 0.115699
vt 0.955329 0.462796
vt 0.955329 0.115699
vt 0.699594 0.000000
vt 0.848485 0.231398
vt 0.699594 0.231398
vt 0.908201 0.231398
vt 0.948206 0.462796
vt 0.908201 0.462796
vt -0.000000 0.627518
vt 0.231398 0.522231
vt 0.231398 0.627518
vt 0.463013 0.768602
vt 0.462906 0.537204
vt 0.463013 0.537204
vt 0.237156 0.505902
vt 0.294298 0.418995
vt 0.349653 0.391312
vt 0.304938 0.370691
vt 0.310293 0.360010
vt 0.307992 0.372081
vt 0.349552 0.391231
vt 0.293450 0.393608
vt 0.288874 0.402736
vt 0.403183 0.417933
vt 0.422743 0.492230
vt 0.421578 0.494688
vt 0.408665 0.408896
vt 0.408414 0.409630
vt 0.408661 0.408887
vt 0.408157 0.410403
vt 0.408417 0.409639
vt 0.408160 0.410411
vt 0.407813 0.411436
vt 0.407388 0.412710
vt 0.405869 0.401837
vt 0.407815 0.411443
vt 0.400041 0.416354
vt 0.402112 0.410661
vt 0.406355 0.415821
vt 0.405391 0.416153
vt 0.406354 0.415818
vt 0.405296 0.418995
vt 0.405133 0.418912
vt 0.404820 0.417748
vt 0.405496 0.413011
vt 0.462438 0.505902
vt 0.438004 0.512895
vt 0.439825 0.511166
vt 0.468196 0.232094
vt 0.699594 0.000000
vt 0.699593 0.232094
vt 0.806446 0.462796
vt 0.900484 0.694194
vt 0.806446 0.694194
vt 0.231398 0.353367
vt 0.000000 0.182361
vt 0.231398 0.182361
vt 0.462663 0.537204
vt 0.462386 0.768602
vt 0.462386 0.537204
vt 0.231589 0.231014
vt 0.231398 0.231152
vt 0.275316 0.188576
vt 0.274358 0.209524
vt 0.231672 0.231264
vt 0.258337 -0.000000
vt 0.349797 0.037417
vt 0.313915 0.083281
vt 0.288023 0.205931
vt 0.272599 0.248008
vt 0.444878 0.180148
vt 0.468196 0.231152
vt 0.468005 0.231014
vt 0.467921 0.231264
vt 0.467776 0.231324
vt 0.429294 0.247067
vt 0.426995 0.248008
vt 0.426633 0.240104
vt 0.349797 0.037417
vt 0.441257 -0.000000
vt 0.385679 0.083281
vt 0.412505 0.203128
vt 0.425235 0.209524
vt 0.815641 0.462796
vt 0.699594 0.231398
vt 0.815641 0.231398
vt 0.946594 0.694194
vt 0.900484 0.462796
vt 0.946594 0.462796
vt 0.699594 0.694194
vt 0.231398 1.000000
vt 0.252579 0.768602
vt 0.252579 1.000000
vt 0.231398 0.353367
vt 0.000000 0.522231
vt 0.000000 0.353367
vt 0.000000 0.000000
vt 0.462906 0.768602
vt 0.462663 0.768602
vt 0.261141 0.271038
vt 0.320245 0.351085
vt 0.292495 0.365028
vt 0.389301 0.360010
vt 0.379349 0.351085
vt 0.407098 0.365028
vt 0.410703 0.257095
vt 0.411570 0.205931
vt 0.908201 0.462796
vt 0.908201 0.231398
vt 0.996368 0.694194
vt 0.968915 0.462796
vt 0.996368 0.462796
vt 0.848485 0.231398
vt 0.941046 0.000000
vt 0.941046 0.231398
vt 0.968915 0.925591
vt 0.995525 0.694194
vt 0.995525 0.925591
vt 0.472027 0.255437
vt 0.388694 0.348428
vt 0.472027 0.348428
vt 0.472027 0.268509
vt 0.388694 0.348428
vt 0.388694 0.268509
vt 0.472027 0.000000
vt 0.388694 0.000000
vt 0.388694 0.584810
vt 0.388694 0.597886
vt 0.472027 0.679195
vt 0.388694 0.605043
vt 0.472027 0.584810
vt 0.472027 0.670065
vt 0.321065 0.537204
vt 0.628441 0.926287
vt 0.849877 0.926287
vt 0.686519 0.641030
vt 0.682800 0.625710
vt 0.684971 0.624887
vt 0.691144 0.530841
vt 0.699594 0.541672
vt 0.684971 0.598164
vt 0.682800 0.597341
vt 0.686971 0.599501
vt 0.686971 0.623551
vt 0.688724 0.621752
vt 0.688724 0.601299
vt 0.690163 0.603491
vt 0.690163 0.619561
vt 0.691232 0.617060
vt 0.691232 0.605991
vt 0.691891 0.614347
vt 0.558022 0.463492
vt 0.680543 0.597063
vt 0.678286 0.597341
vt 0.547543 0.694889
vt 0.483482 0.648657
vt 0.644500 0.694889
vt 0.680543 0.625988
vt 0.678286 0.625710
vt 0.676115 0.598164
vt 0.676115 0.624887
vt 0.674115 0.623551
vt 0.674115 0.599501
vt 0.672362 0.601299
vt 0.672362 0.621752
vt 0.670923 0.603491
vt 0.669854 0.605991
vt 0.670923 0.619561
vt 0.669854 0.617060
vt 0.669195 0.608704
vt 0.483482 0.278326
vt 0.547543 0.232094
vt 0.644500 0.232094
vt 0.699594 0.385311
vt 0.558022 0.463492
vt 0.985245 0.115699
vt 0.999936 0.115699
vt 0.848485 0.000000
vt 0.948206 0.231398
vt 0.276517 0.537204
vt 0.427105 0.513811
vt 0.429242 0.514718
vt 0.423077 0.537204
vt 0.349940 0.391312
vt 0.350042 0.391231
vt 0.405785 0.417528
vt 0.406898 0.414193
vt 0.407391 0.412716
vt 0.410720 0.402736
vt 0.443276 0.503889
vt 0.443607 0.501078
vt 0.443494 0.498250
vt 0.442941 0.495513
vt 0.441969 0.492974
vt 0.440616 0.490728
vt 0.438933 0.488863
vt 0.425158 0.512399
vt 0.423475 0.510534
vt 0.436986 0.487450
vt 0.422122 0.508288
vt 0.421150 0.505748
vt 0.434849 0.486544
vt 0.432604 0.486179
vt 0.420597 0.503012
vt 0.430338 0.486370
vt 0.428137 0.487108
vt 0.420484 0.500184
vt 0.420815 0.497373
vt 0.426087 0.488367
vt 0.424266 0.490096
vt 0.410713 0.402723
vt 0.406896 0.414189
vt 0.395814 0.394177
vt 0.431487 0.515082
vt 0.433753 0.514892
vt 0.442513 0.506574
vt 0.441348 0.509031
vt 0.435954 0.514153
vt 0.468196 -0.000000
vt 0.900484 0.462796
vt 0.000000 0.353367
vt 0.254715 0.180148
vt 0.268185 0.064572
vt 0.287088 0.203128
vt 0.424278 0.188576
vt 0.431409 0.064572
vt 0.699594 0.462796
vt 0.900484 0.694194
vt 0.699594 0.462796
vt 0.231398 0.768602
vt 0.231398 0.000000
vt 0.349797 0.391108
vt 0.288891 0.257095
vt 0.438453 0.271038
vt 0.968915 0.694194
vt 0.388694 0.255437
vt 0.472027 0.348428
vt 0.388694 0.679195
vt 0.388694 0.670065
s 0
f 148/1/1 146/2/1 149/3/1
f 150/4/2 152/5/2 151/6/2
f 154/7/3 156/8/3 155/9/3
f 80/10/4 45/11/4 153/12/4
f 81/13/4 56/14/4 160/15/4
f 150/16/5 146/17/5 158/18/5
f 80/19/6 83/20/6 82/21/6
f 57/22/7 84/23/7 83/20/7
f 66/24/8 85/25/8 84/23/8
f 61/26/9 86/27/9 85/25/9
f 79/28/10 87/29/10 86/27/10
f 69/30/11 88/31/11 87/29/11
f 77/32/12 89/33/12 88/31/12
f 75/34/13 90/35/13 89/33/13
f 71/36/14 91/37/14 90/35/14
f 73/38/15 92/39/15 91/37/15
f 76/40/16 93/41/16 92/39/16
f 68/42/17 94/43/17 93/41/17
f 78/44/18 95/45/18 94/46/18
f 59/47/19 96/48/19 95/45/19
f 64/49/20 97/50/20 96/48/20
f 56/51/21 98/52/21 97/50/21
f 81/53/22 99/54/22 98/52/22
f 44/55/23 100/56/23 99/54/23
f 48/57/24 101/58/24 100/56/24
f 39/59/25 102/60/25 101/58/25
f 51/61/26 103/62/26 102/60/26
f 31/63/27 104/64/27 103/65/27
f 35/66/28 105/67/28 104/64/28
f 27/68/29 106/69/29 105/67/29
f 25/70/30 107/71/30 106/69/30
f 30/72/31 108/73/31 107/71/31
f 37/74/32 109/75/32 108/73/32
f 33/76/33 110/77/33 109/75/33
f 53/78/34 111/79/34 110/80/34
f 42/81/35 112/82/35 111/79/35
f 49/83/36 113/84/36 112/82/36
f 45/85/37 82/21/37 113/84/37
f 4/86/38 8/87/38 1/88/38
f 10/89/39 19/90/39 8/91/39
f 21/92/40 116/93/40 19/94/40
f 1/95/41 119/96/41 4/97/41
f 19/98/4 2/99/4 1/100/4
f 118/101/4 12/102/4 132/103/4
f 120/104/4 117/105/4 132/103/4
f 117/105/4 2/99/4 116/106/4
f 131/107/5 95/108/5 96/109/5
f 123/110/5 141/111/5 142/112/5
f 140/113/5 121/114/5 122/115/5
f 138/116/5 139/117/5 135/118/5
f 128/119/5 139/117/5 138/116/5
f 129/120/5 134/121/5 131/107/5
f 125/122/5 137/123/5 144/124/5
f 6/125/5 130/126/5 136/127/5
f 145/128/5 144/124/5 137/123/5
f 21/129/5 109/130/5 110/131/5
f 5/132/42 9/133/42 3/134/42
f 11/135/43 20/136/43 9/137/43
f 20/138/44 58/139/44 60/140/44
f 5/141/45 67/142/45 62/143/45
f 7/144/4 3/145/4 32/146/4
f 72/147/4 67/148/4 7/144/4
f 9/149/4 20/150/4 34/151/4
f 72/147/4 60/152/4 14/153/4
f 41/154/5 5/155/5 13/156/5
f 62/157/5 65/158/5 13/156/5
f 63/159/5 17/160/5 74/161/5
f 13/156/5 63/159/5 74/161/5
f 24/162/5 11/163/5 50/164/5
f 17/160/5 23/165/5 70/166/5
f 38/167/46 46/168/46 41/169/46
f 28/170/47 50/171/47 46/172/47
f 32/173/48 50/135/48 34/137/48
f 38/174/43 54/175/43 32/176/43
f 67/177/49 115/178/49 62/179/49
f 18/180/50 60/140/50 58/139/50
f 18/141/51 120/181/51 16/182/51
f 29/183/4 117/105/4 67/148/4
f 26/184/4 12/102/4 40/185/4
f 15/186/5 55/187/5 43/188/5
f 17/160/5 47/189/5 58/190/5
f 40/191/50 52/169/50 43/192/50
f 29/193/51 47/194/51 52/195/51
f 26/196/49 47/197/49 36/198/49
f 40/199/52 55/200/52 26/201/52
f 147/202/53 160/203/53 158/204/53
f 154/205/54 161/206/54 157/207/54
f 159/208/55 160/209/55 161/209/55
f 152/210/56 162/211/56 146/212/56
f 163/213/57 150/214/57 155/215/57
f 148/1/1 147/216/1 146/2/1
f 150/4/2 153/217/2 152/5/2
f 154/7/3 157/218/3 156/8/3
f 153/12/4 163/219/4 75/220/4
f 153/12/4 75/220/4 77/221/4
f 162/222/4 152/223/4 153/12/4
f 37/224/4 30/225/4 162/222/4
f 33/226/4 37/224/4 162/222/4
f 153/12/4 77/221/4 69/227/4
f 153/12/4 69/227/4 79/228/4
f 53/229/4 33/226/4 162/222/4
f 42/230/4 53/229/4 162/222/4
f 153/12/4 79/228/4 61/231/4
f 153/12/4 61/231/4 66/232/4
f 42/230/4 162/222/4 153/12/4
f 49/233/4 42/230/4 153/12/4
f 153/12/4 66/232/4 57/234/4
f 153/12/4 57/234/4 80/10/4
f 45/11/4 49/233/4 153/12/4
f 148/235/4 149/17/4 162/222/4
f 162/222/4 30/225/4 25/236/4
f 162/222/4 25/236/4 27/237/4
f 160/15/4 148/235/4 162/222/4
f 157/238/4 161/239/4 160/15/4
f 163/219/4 156/240/4 157/238/4
f 71/241/4 75/220/4 163/219/4
f 73/242/4 71/241/4 163/219/4
f 163/219/4 157/238/4 160/15/4
f 160/15/4 162/222/4 27/237/4
f 160/15/4 27/237/4 35/243/4
f 76/244/4 73/242/4 163/219/4
f 68/245/4 76/244/4 163/219/4
f 160/15/4 35/243/4 31/246/4
f 160/15/4 31/246/4 51/247/4
f 68/245/4 163/219/4 160/15/4
f 78/248/4 68/245/4 160/15/4
f 160/15/4 51/247/4 39/249/4
f 160/15/4 39/249/4 48/250/4
f 59/251/4 78/248/4 160/15/4
f 64/252/4 59/251/4 160/15/4
f 160/15/4 48/250/4 44/253/4
f 160/15/4 44/253/4 81/13/4
f 56/14/4 64/252/4 160/15/4
f 158/18/5 159/254/5 154/255/5
f 154/255/5 155/256/5 150/16/5
f 150/16/5 151/257/5 146/17/5
f 146/17/5 147/258/5 158/18/5
f 158/18/5 154/255/5 150/16/5
f 80/19/6 57/22/6 83/20/6
f 57/22/7 66/24/7 84/23/7
f 66/24/8 61/26/8 85/25/8
f 61/26/9 79/28/9 86/27/9
f 79/28/10 69/30/10 87/29/10
f 69/30/11 77/32/11 88/31/11
f 77/32/12 75/34/12 89/33/12
f 75/34/13 71/36/13 90/35/13
f 71/36/14 73/38/14 91/37/14
f 73/38/15 76/40/15 92/39/15
f 76/40/16 68/42/16 93/41/16
f 68/42/17 78/259/17 94/43/17
f 78/44/18 59/47/18 95/45/18
f 59/47/19 64/49/19 96/48/19
f 64/49/20 56/51/20 97/50/20
f 56/51/21 81/53/21 98/52/21
f 81/53/22 44/55/22 99/54/22
f 44/55/23 48/57/23 100/56/23
f 48/57/24 39/59/24 101/58/24
f 39/59/25 51/61/25 102/60/25
f 51/61/26 31/194/26 103/62/26
f 31/63/27 35/66/27 104/64/27
f 35/66/28 27/68/28 105/67/28
f 27/68/29 25/70/29 106/69/29
f 25/70/30 30/72/30 107/71/30
f 30/72/31 37/74/31 108/73/31
f 37/74/32 33/76/32 109/75/32
f 33/76/33 53/260/33 110/77/33
f 53/78/34 42/81/34 111/79/34
f 42/81/35 49/83/35 112/82/35
f 49/83/36 45/85/36 113/84/36
f 45/85/37 80/19/37 82/21/37
f 4/86/38 10/261/38 8/87/38
f 10/89/39 21/262/39 19/90/39
f 21/92/40 115/178/40 116/93/40
f 1/95/41 120/181/41 119/96/41
f 1/100/4 8/263/4 19/98/4
f 19/98/4 116/106/4 2/99/4
f 2/99/4 120/104/4 1/100/4
f 132/103/4 12/102/4 120/104/4
f 120/104/4 2/99/4 117/105/4
f 117/105/4 118/101/4 132/103/4
f 104/264/5 105/265/5 10/266/5
f 10/266/5 4/267/5 119/268/5
f 119/268/5 129/120/5 131/107/5
f 131/107/5 130/126/5 6/125/5
f 124/269/5 125/122/5 126/270/5
f 6/125/5 124/269/5 126/270/5
f 126/270/5 127/271/5 128/119/5
f 122/115/5 121/114/5 123/110/5
f 126/270/5 128/119/5 122/115/5
f 123/110/5 115/272/5 21/129/5
f 21/129/5 113/273/5 82/274/5
f 21/129/5 82/274/5 83/275/5
f 122/115/5 123/110/5 21/129/5
f 126/270/5 122/115/5 21/129/5
f 21/129/5 83/275/5 84/276/5
f 21/129/5 84/276/5 85/277/5
f 6/125/5 126/270/5 21/129/5
f 10/266/5 119/268/5 131/107/5
f 131/107/5 6/125/5 21/129/5
f 21/129/5 85/277/5 86/278/5
f 21/129/5 86/278/5 87/279/5
f 103/280/5 104/264/5 10/266/5
f 102/281/5 103/280/5 10/266/5
f 131/107/5 21/129/5 87/279/5
f 131/107/5 87/279/5 88/282/5
f 101/283/5 102/281/5 10/266/5
f 100/284/5 101/283/5 10/266/5
f 131/107/5 88/282/5 89/285/5
f 131/107/5 89/285/5 90/286/5
f 100/284/5 10/266/5 131/107/5
f 99/287/5 100/284/5 131/107/5
f 131/107/5 90/286/5 91/288/5
f 131/107/5 91/288/5 92/289/5
f 98/290/5 99/287/5 131/107/5
f 97/291/5 98/290/5 131/107/5
f 131/107/5 92/289/5 93/292/5
f 131/107/5 93/292/5 94/293/5
f 96/109/5 97/291/5 131/107/5
f 131/107/5 94/293/5 95/108/5
f 123/110/5 121/114/5 141/111/5
f 141/111/5 121/114/5 140/113/5
f 140/113/5 122/115/5 128/119/5
f 140/113/5 128/119/5 138/116/5
f 142/112/5 141/111/5 140/113/5
f 115/272/5 123/110/5 142/112/5
f 135/118/5 114/294/5 115/272/5
f 143/295/5 145/128/5 135/118/5
f 127/271/5 126/270/5 143/295/5
f 139/117/5 127/271/5 143/295/5
f 135/118/5 115/272/5 142/112/5
f 142/112/4 140/113/4 138/116/4
f 139/117/5 143/295/5 135/118/5
f 135/118/5 142/112/5 138/116/5
f 128/119/5 127/271/5 139/117/5
f 129/120/5 133/296/5 134/121/5
f 125/122/5 124/269/5 137/123/5
f 130/126/5 131/107/5 134/121/5
f 133/296/5 129/120/5 119/268/5
f 136/127/5 130/126/5 134/121/5
f 133/296/5 119/268/5 15/186/5
f 136/127/5 134/121/5 133/296/5
f 124/269/5 6/125/5 136/127/5
f 137/123/5 124/269/5 136/127/5
f 136/127/5 133/296/5 15/186/5
f 15/186/5 114/294/5 135/118/5
f 145/128/5 143/295/5 126/270/5
f 15/186/5 135/118/5 145/128/5
f 137/123/5 136/127/5 15/186/5
f 126/270/5 125/122/5 144/124/5
f 137/123/5 15/186/5 145/128/5
f 145/128/5 126/270/5 144/124/5
f 10/266/5 105/265/5 106/297/5
f 10/266/5 106/297/5 107/298/5
f 112/299/5 113/273/5 21/129/5
f 111/300/5 112/299/5 21/129/5
f 21/129/5 10/266/5 107/298/5
f 21/129/5 107/298/5 108/301/5
f 110/131/5 111/300/5 21/129/5
f 21/129/5 108/301/5 109/130/5
f 5/132/42 11/302/42 9/133/42
f 11/135/43 24/303/43 20/136/43
f 20/138/44 24/304/44 58/139/44
f 5/141/58 3/182/58 67/142/58
f 7/144/4 67/148/4 3/145/4
f 3/145/4 38/305/4 32/146/4
f 32/146/4 72/147/4 7/144/4
f 72/147/4 14/153/4 67/148/4
f 28/306/4 38/305/4 3/145/4
f 20/150/4 60/152/4 22/307/4
f 22/307/4 72/147/4 32/146/4
f 22/307/4 32/146/4 34/151/4
f 28/306/4 3/145/4 9/149/4
f 20/150/4 22/307/4 34/151/4
f 34/151/4 28/306/4 9/149/4
f 72/147/4 22/307/4 60/152/4
f 70/166/5 54/308/5 41/154/5
f 5/155/5 62/157/5 13/156/5
f 13/156/5 70/166/5 41/154/5
f 74/161/5 70/166/5 13/156/5
f 13/156/5 65/158/5 63/159/5
f 54/308/5 70/166/5 23/165/5
f 23/165/5 58/190/5 24/162/5
f 11/163/5 5/155/5 41/154/5
f 11/163/5 41/154/5 46/309/5
f 54/308/5 23/165/5 24/162/5
f 11/163/5 46/309/5 50/164/5
f 50/164/5 54/308/5 24/162/5
f 70/166/5 74/161/5 17/160/5
f 17/160/5 58/190/5 23/165/5
f 38/167/46 28/310/46 46/168/46
f 28/170/47 34/311/47 50/171/47
f 32/173/48 54/312/48 50/135/48
f 38/174/43 41/313/43 54/175/43
f 67/177/49 116/93/49 115/178/49
f 18/180/50 16/314/50 60/140/50
f 18/141/59 119/96/59 120/181/59
f 60/152/4 16/315/4 26/184/4
f 60/152/4 26/184/4 36/316/4
f 14/153/4 60/152/4 36/316/4
f 29/183/4 40/185/4 117/105/4
f 14/153/4 36/316/4 29/183/4
f 117/105/4 116/106/4 67/148/4
f 67/148/4 14/153/4 29/183/4
f 26/184/4 16/315/4 120/104/4
f 12/102/4 118/101/4 117/105/4
f 26/184/4 120/104/4 12/102/4
f 12/102/4 117/105/4 40/185/4
f 15/186/5 119/268/5 18/315/5
f 43/188/5 52/317/5 65/158/5
f 65/158/5 62/157/5 115/272/5
f 65/158/5 115/272/5 114/294/5
f 43/188/5 65/158/5 114/294/5
f 15/186/5 18/315/5 55/187/5
f 43/188/5 114/294/5 15/186/5
f 63/159/5 65/158/5 52/317/5
f 47/189/5 55/187/5 18/315/5
f 63/159/5 52/317/5 47/189/5
f 17/160/5 63/159/5 47/189/5
f 47/189/5 18/315/5 58/190/5
f 40/191/50 29/167/50 52/169/50
f 29/193/51 36/318/51 47/194/51
f 26/196/49 55/261/49 47/197/49
f 40/199/52 43/318/52 55/200/52
f 147/202/53 148/319/53 160/203/53
f 154/205/54 159/320/54 161/206/54
f 159/208/55 158/208/55 160/209/55
f 146/212/56 151/214/56 152/210/56
f 162/211/56 149/321/56 146/212/56
f 155/215/57 156/322/57 163/213/57
f 163/213/57 153/210/57 150/214/57
