<?xml version="1.0" encoding="utf-8"?>
<COLLADA xmlns="http://www.collada.org/2005/11/COLLADASchema" version="1.4.1" xmlns:xsi="http://www.w3.org/2001/XMLSchema-instance">
  <asset>
    <contributor>
      <author>Blender User</author>
      <authoring_tool>Blender 4.5.3 LTS commit date:2025-09-08, commit time:12:46, hash:67807e1800cc</authoring_tool>
    </contributor>
    <created>2025-12-23T12:14:40</created>
    <modified>2025-12-23T12:14:40</modified>
    <unit name="meter" meter="1"/>
    <up_axis>Z_UP</up_axis>
  </asset>
  <library_effects>
    <effect id="Material-effect">
      <profile_COMMON>
        <newparam sid="Light-surface">
          <surface type="2D">
            <init_from>Light</init_from>
          </surface>
        </newparam>
        <newparam sid="Light-sampler">
          <sampler2D>
            <source>Light-surface</source>
          </sampler2D>
        </newparam>
        <technique sid="common">
          <lambert>
            <emission>
              <color sid="emission">0 0 0 1</color>
            </emission>
            <diffuse>
              <texture texture="Light-sampler" texcoord="UVMap"/>
            </diffuse>
            <index_of_refraction>
              <float sid="ior">1.5</float>
            </index_of_refraction>
          </lambert>
        </technique>
      </profile_COMMON>
    </effect>
  </library_effects>
  <library_images>
    <image id="Light" name="Light">
      <init_from>Light.png</init_from>
    </image>
  </library_images>
  <library_materials>
    <material id="Material-material" name="Material">
      <instance_effect url="#Material-effect"/>
    </material>
  </library_materials>
  <library_geometries>
    <geometry id="Cube_032-mesh" name="Cube.032">
      <mesh>
        <source id="Cube_032-mesh-positions">
          <float_array id="Cube_032-mesh-positions-array" count="267">9.321865 0.9507609 6.795395 8.915351 0.7249293 -1.075142 4.123061 0.9049857 -1.070702 7.049484 0.9507609 6.795395 8.915351 0.7249293 0.9248581 9.321865 0.9507609 4.795395 7.239024 -0.194719 -1.071294 0.9430156 0.5957151 -1.070702 7.049484 0.9507609 4.795395 0.9430156 0.5957151 0.9292984 4.512046 0.4176717 -1.070702 7.916162 1.110602 -1.075142 9.915268 -0.6159079 6.795395 7.916162 1.110602 0.9248581 4.512046 0.4176717 0.9292984 9.915268 0.2007927 6.795395 9.915268 0.2007927 4.795395 6.239322 0.1913499 -1.071812 9.915268 -0.6159079 4.795395 1.50893 -0.181703 -1.070702 6.942172 -1.249239 6.795395 4.123558 0.9042617 0.9292984 1.50893 -0.181703 0.9292984 9.414153 -1.249239 6.795395 1.840577 0.5322213 -1.070702 9.414153 -1.249239 4.795395 3.557956 0.5120349 -1.070702 6.942172 -1.249239 4.795395 6.437007 0.1766881 6.795395 2.123535 0.1435122 -1.070702 3.430489 0.6871419 -1.070702 6.437007 -0.6107922 6.795395 3.430489 0.6871419 0.9292984 6.437007 -0.6107922 4.795395 6.437007 0.1766881 4.795395 3.804569 0.4080787 -1.070702 1.840577 0.5322213 0.9292984 2.123535 0.1435122 0.9292984 3.557956 0.5120349 0.9292984 3.804569 0.4080787 0.9292984 5.827616 0.1782574 -1.070702 4.689897 0.6619916 -1.070702 6.005466 0.4225774 -1.070702 6.005466 0.4225774 0.9292984 4.689897 0.6619916 0.9292984 5.827616 0.1782574 0.9292984 5.911196 0.2930743 0.9292984 5.911196 0.2930741 -1.070702 5.967544 0.01444947 -1.070702 5.967543 0.01444947 0.9292984 6.34724 0.5000462 0.9292984 6.345179 0.5000633 -1.070702 7.621579 0.287404 0.9292984 7.621579 0.2874041 0.9248581 7.237611 -0.1976364 0.928805 6.696936 0.4422135 0.9248581 6.696936 0.4422135 -1.070702 7.788922 0.7263215 0.9248581 7.803082 0.772134 0.9248581 7.812263 0.6874839 0.9248581 7.869037 0.6556447 0.9248581 7.869037 0.811753 0.9248581 7.989976 0.6315349 0.9248581 7.989976 0.8358628 0.9248581 8.114185 0.6463245 0.9248581 8.114185 0.8210731 0.9248581 8.179449 0.6724117 0.9248581 8.179448 0.7949865 0.9248581 8.22222 0.7515712 0.9248581 8.217258 0.7076205 0.9248581 7.790829 0.7158247 4.795395 7.795789 0.7597763 4.795395 7.8336 0.6724109 4.795395 7.833601 0.794987 4.795395 7.898862 0.6463245 4.795395 7.898862 0.8210731 4.795395 7.981041 0.8334571 4.795395 7.981041 0.6339406 4.795395 8.067249 0.8301908 4.795395 8.067249 0.6372069 4.795395 8.14401 0.6556445 4.795395 8.14401 0.8117532 4.795395 8.200785 0.7799136 4.795395 8.224126 0.7410738 4.795395 8.209964 0.6952621 4.795395 0.5350075 0.5328689 -1.070702 0.5350075 0.5328689 0.9292984 1.100922 -0.2445492 -1.070702 1.100922 -0.2445492 0.9292984</float_array>
          <technique_common>
            <accessor source="#Cube_032-mesh-positions-array" count="89" stride="3">
              <param name="X" type="float"/>
              <param name="Y" type="float"/>
              <param name="Z" type="float"/>
            </accessor>
          </technique_common>
        </source>
        <source id="Cube_032-mesh-normals">
          <float_array id="Cube_032-mesh-normals-array" count="546">0 0 1 0 0 -1 0 0 -1 0 0 1 0 0 1 3.82553e-4 -3.55469e-5 0.9999999 0.4809822 -0.8767303 0 0 0 1 0.7842093 -0.6204964 0 -0.1490129 -0.9888352 2.70613e-4 -0.3711655 -0.9285665 6.24131e-4 -0.7123538 -0.7018195 0.001193881 -0.8571117 -0.5151297 -9.74743e-4 -0.5149344 0.8572291 -0.001001119 -0.195508 0.9807018 -8.54983e-4 0.1182363 0.9929851 -9.05342e-4 0.3711638 0.9285671 -6.24173e-4 0.7123619 0.7018113 -0.001194059 0.8571289 0.5151011 9.74849e-4 0.5149267 -0.8572335 0.00100106 0.2335509 -0.9723443 5.41658e-4 0.03786206 -0.9992827 7.085e-4 -0.8084787 0.5885254 0 0 0 1 0.1788467 0.983877 -1.75996e-4 -0.1790444 -0.983841 0 0 0 -1 0 0 -1 0 0 1 0 0 1 -0.1790444 -0.983841 0 0 0 1 0.8084786 -0.5885255 0 0.1790446 0.983841 0 -0.8084786 0.5885257 0 -0.09655737 0.9953274 3.84323e-4 0.1522363 -0.9883441 0 0.248833 -0.9685464 0 0 0 -1 0 0 -1 0 0 1 0.09698039 -0.9952863 0 0.8084787 0.5885254 0 -0.2488329 0.9685464 0 -0.8084799 -0.5885238 0 -0.1623265 -0.9867359 -0.001553893 0.7840631 -0.6206811 -1.00863e-4 0.1651278 0.9862722 8.74573e-6 0 0 1 -0.008270561 0.006431579 -0.9999451 -0.4807077 0.8768803 0.00108838 0.3600926 0.9329166 0 -5.16771e-4 -0.002680063 -0.9999963 0 0 1 0 0 -1 0 1 0 1 0 0 0 -1 0 -1 0 0 0 0 -1 0 0 -1 0 0 1 -0.7842088 0.620497 0 -0.7842087 -0.6204972 0 0.7842091 0.6204966 0 -0.9936908 0.1121516 7.93706e-4 -0.195508 -0.9807018 -8.54974e-4 -0.4891405 -0.8722047 -7.00132e-4 0.993687 -0.1121856 -7.93693e-4 -0.6814874 0.7318291 0.001052498 -0.3711665 0.9285661 6.24108e-4 -0.1490128 0.9888352 2.70613e-4 0.03786206 0.9992827 7.085e-4 0.2335509 0.9723443 5.41642e-4 0.4891366 0.8722068 7.00101e-4 -0.8084792 -0.5885248 0 0.6814894 -0.7318273 -0.001052439 0.3711665 -0.9285662 -6.24182e-4 0.1182358 -0.9929851 -9.05332e-4 -0.1522363 0.9883441 0 0 0 1 0 0 -1 0 0 1 0 0 1 0 0 1 0 0 1 0 0 1 0 0 1 -7.98001e-5 -9.54078e-4 0.9999996 0.4818401 -0.8762587 -9.37761e-4 0 0 1 0 0 1 0 0 1 0.7842093 -0.6204964 0 -0.8084793 0.5885246 0 0.1792716 0.9837996 3.11565e-4 -0.1790444 -0.983841 0 0 0 -1 0 0 -1 0 0 -1 0 0 1 -0.1790444 -0.983841 0 0.8084794 -0.5885246 1.83987e-7 0.1790444 0.983841 0 -0.8084781 0.5885264 0 -0.09679681 0.9953042 0 0.1522363 -0.9883441 0 0.248833 -0.9685464 0 0 0 -1 0 0 -1 0 0 -1 0 0 -1 0 0 -1 0 0 -1 0 0 1 0.09698039 -0.9952863 0 0.8084787 0.5885254 0 -0.2488329 0.9685464 0 -0.8084799 -0.5885238 0 -0.1647073 -0.9863425 0 0.1622793 0.9867449 0 0.1631619 0.9865993 -1.59798e-4 0.1635054 0.9798678 0.1145653 5.59794e-4 0.003403842 -0.9999941 -0.001195669 -0.004438102 -0.9999895 -0.480711 0.8768791 0 -0.480711 0.8768791 0 0.3600926 0.9329166 0 -9.48109e-4 -0.002456307 -0.9999966 0 0 1 0 0 1 0 0 1 0 0 1 -0.003757536 0.01111125 0.9999312 0 0 1 0 0 1 0 0 1 0 0 1 0 0 1 0 0 1 0 0 1 0 0 1 0 0 -1 0 1 0 1 0 0 0 -1 0 -1 0 0 0 0 -1 0 0 -1 0 0 -1 0 0 -1 0 0 -1 0 0 -1 0 0 -1 0 0 -1 0 0 -1 0 0 -1 0 0 -1 0 0 -1 0 0 -1 0 0 -1 0 0 -1 0 0 -1 0 0 -1 0 0 -1 0 0 -1 0 0 -1 0 0 -1 0 0 1 0 0 1 0 0 1 0 0 1 0 0 1 -0.7842088 0.620497 0 -0.7842087 -0.6204972 0 0.7842091 0.6204966 0 -0.9554028 0.2953045 -8.57303e-4 0.9553899 -0.2953461 8.57336e-4 -0.8084792 -0.5885248 0 -0.1522363 0.9883441 0 0 0 1 0 0 -1</float_array>
          <technique_common>
            <accessor source="#Cube_032-mesh-normals-array" count="182" stride="3">
              <param name="X" type="float"/>
              <param name="Y" type="float"/>
              <param name="Z" type="float"/>
            </accessor>
          </technique_common>
        </source>
        <source id="Cube_032-mesh-map">
          <float_array id="Cube_032-mesh-map-array" count="1092">0.5115396 0.3850852 0.5277196 0.5385407 0.4886897 0.3327797 0.4443097 0.3018977 0.4886896 0.3338592 0.4416487 0.3674067 0.4231023 0.4962413 0.3970393 0.5000575 0.4128978 0.4879319 0.5340525 0.3684325 0.4886897 0.3327797 0.5344402 0.3028706 0.5150268 0.03785073 0.5874635 0.08973789 0.5215459 0.1209742 0.5929979 0.6205486 0.5346558 0.5068169 0.5724462 0.5030139 2.94415e-4 0.7755787 0.1853353 0.6231575 0.1856206 0.7756782 1.6622e-4 0.9045184 0.03251647 0.90767 0.03754854 0.9118044 0.9636792 0.8482091 0.7783338 0.7948576 0.96366 0.7948576 0.9402339 0.5439845 0.9410681 0.1853285 0.9487159 0.1853286 0.9515063 0.5439848 0.9487159 0.1853286 0.9548376 0.1853289 0.9568591 0.5439851 0.9548376 0.1853289 0.9589281 0.1853293 0.9568591 0.5439851 0.9589281 0.1853293 0.9591363 0.5439855 0.9636194 0.543985 0.9671318 0.185329 0.9705325 0.5439851 0.9705325 0.5439851 0.9731107 0.1853291 0.9800205 0.5439851 0.9800205 0.5439851 0.9847151 0.1853288 0.9871671 0.5439847 0.9885209 0.5440174 0.9886109 0.1853605 0.9915746 0.5440105 0.9915746 0.5440105 0.99211 0.1853519 0.9960005 0.5439986 0.9960005 0.5439986 0.99211 0.1853519 0.9959208 0.1853412 0.9228073 0.5439851 0.9200486 0.1853293 0.9260392 0.1853288 0.9287742 0.5439848 0.9260392 0.1853288 0.9330937 0.1853286 0.9402339 0.5439845 0.9330937 0.1853286 0.9410681 0.1853285 0.5866194 0.6564711 0.5719513 0.8417972 0.5719513 0.656471 0.5724462 0.5030139 0.5346558 0.5068169 0.5465888 0.49799 0.1859239 0.3777219 0.3711507 0.2589372 0.3712503 0.3777217 1.96526e-5 0.5046775 0.1854576 0.3032823 0.1853458 0.5047771 0.3970393 0.5000575 0.4416487 0.3674067 0.4128978 0.4879319 0.4633629 0.3850882 0.4886896 0.3338592 0.4400777 0.5374347 0.5571686 0.4901641 0.5724462 0.5030139 0.5465888 0.49799 0.5724462 0.5030139 0.5340525 0.3684325 0.5344402 0.3028706 0.7968567 0.3706548 0.9194104 0.1853306 0.9194104 0.3706569 0.5115396 0.3850852 0.4886897 0.3327797 0.5340525 0.3684325 0.180949 0.7756782 0.1602134 0.9610113 0.1602134 0.7756851 0.4886896 0.8418052 0.5589467 0.6564708 0.5589467 0.8417971 0.5719513 0.656471 0.5589467 0.8417971 0.5589467 0.6564708 0.1858245 0.2590861 0.3709709 0.03079485 0.3711507 0.2589372 0.1855636 0.09242355 2.56747e-4 0.05472296 0.1855829 0.0548225 0.1854576 0.3032823 2.37383e-4 0.09232401 0.1855636 0.09242355 0.4443097 0.3018977 0.4720069 0.2686848 0.4886896 0.3338592 0.4656471 0.1207975 0.4282616 0.1450291 0.4012531 0.0865302 0.5083171 0.2684058 0.5344402 0.3028706 0.4886897 0.3327797 0.9559726 0 0.8091825 0.1853285 0.8091825 2.25345e-6 0.1602134 0.7756863 0.1215832 0.9610044 0.1215832 0.7756782 0.7968567 0.3706625 0.9148151 0.5559831 0.7968567 0.5559887 0.7968567 3.86621e-7 0.8091825 0.1853285 0.7968567 0.1853266 0 0.6229358 0.1853458 0.5047771 0.1853353 0.6231575 0.5870308 0.6564708 0.5870308 0.6973304 0.5866194 0.6973266 0.3713081 0.4470425 0.3708966 0.4470428 0.3708547 0.3967786 0.5277196 0.5385407 0.5346558 0.5068169 0.5483258 0.6564708 0.3970393 0.5000575 0.4400777 0.5374347 0.4120442 0.5260916 0.1856206 0.5205032 0.1858025 0.3505249 0.1859399 0.3969121 0.07609438 0.9610044 0.1215832 0.7757104 0.1215832 0.9610366 0.4886896 0.6858559 0.3713081 0.6166549 0.4120442 0.5260916 0.05385434 0.8438442 0.0423606 0.889122 0.03500318 0.8803786 0.434612 0.5056134 0.3970393 0.5000575 0.4231023 0.4962413 0.370947 0.5205077 0.185629 0.6690222 0.1856207 0.5205032 0.9636571 0.7196185 0.7783338 0.7948576 0.7783308 0.7196186 0.7783308 0.8735567 0.5930037 0.644613 0.7783299 0.644613 0.3709469 0.8116304 0.185626 0.7598989 0.3709522 0.7599033 0.7968567 0.5896262 0.7859869 0.4653814 0.7968567 0.3790604 0.7678018 0.4733696 0.5929978 0.3691166 0.7674991 0.4653814 0.7251287 0.3223065 0.6521583 0.3223065 0.5929978 0.2754963 0.185629 0.6690222 0.3709522 0.7599033 0.185626 0.7598989 0.5930045 0.8735567 0.778324 0.9222403 0.5929978 0.9222403 0.778348 0.644613 0.9636571 0.7196185 0.7783308 0.7196186 0.9623477 0.1853288 0.9596846 0.5439846 0.9591364 0.1853285 0.9515063 0.5439848 0.9402339 0.5439845 0.9487159 0.1853286 0.9568591 0.5439851 0.9515063 0.5439848 0.9548376 0.1853289 0.9959208 0.1853412 1 0.5439864 0.9960005 0.5439986 0.9636194 0.543985 0.9623477 0.1853288 0.9671318 0.185329 0.9705325 0.5439851 0.9671318 0.185329 0.9731107 0.1853291 0.9800205 0.5439851 0.9731107 0.1853291 0.9792953 0.185329 0.9800205 0.5439851 0.9792953 0.185329 0.9847151 0.1853288 0.9871671 0.5439847 0.9847151 0.1853288 0.9885209 0.1853285 0.9915746 0.5440105 0.9886109 0.1853605 0.99211 0.1853519 0.1855829 0.0548225 2.94412e-4 0 0.1856206 9.95281e-5 0.9228073 0.5439851 0.9194102 0.5439855 0.9200486 0.1853293 0.9287742 0.5439848 0.9228073 0.5439851 0.9260392 0.1853288 0.9402339 0.5439845 0.9287742 0.5439848 0.9330937 0.1853286 0.3709709 0.03079485 0.1856206 1.33837e-4 0.3709469 0 0.5929979 0.05188715 0.5150268 0.03785073 0.5205611 0 0.3974846 0.0484631 0.4760239 0.03806704 0.4012531 0.0865302 0.5115396 0.3850852 0.5346558 0.5068169 0.5277196 0.5385407 0.5083171 0.2684058 0.4886897 0.3327797 0.5215459 0.1209742 0.4886897 0.3327797 0.5150268 0.03785073 0.5215459 0.1209742 0.5874635 0.08973789 0.5344402 0.3028706 0.5577643 0.1469178 0.5344402 0.3028706 0.5246329 0.280093 0.5577643 0.1469178 0.5874635 0.08973789 0.5577643 0.1469178 0.5215459 0.1209742 0.5929979 0.6205486 0.5483258 0.6564708 0.5346558 0.5068169 2.94415e-4 0.7755787 0 0.6229358 0.1853353 0.6231575 0.04298347 0.9133389 0.07609432 0.9684295 0.03754854 0.9118044 0.07609432 0.9684295 1.6622e-4 0.9045184 0.03754854 0.9118044 1.6622e-4 0.9045184 0.02576982 0.898245 0.03251647 0.90767 0.9636792 0.8482091 0.778353 0.8482091 0.7783338 0.7948576 0.5866194 0.6564711 0.5866193 0.8417974 0.5719513 0.8417972 0.1859239 0.3777219 0.1858245 0.2590861 0.3711507 0.2589372 1.96526e-5 0.5046775 1.31389e-4 0.3031828 0.1854576 0.3032823 0.3970393 0.5000575 0.4443097 0.3018977 0.4416487 0.3674067 0.4400777 0.5374347 0.434612 0.5056134 0.4633629 0.3850882 0.4633629 0.3850882 0.4416487 0.3674067 0.4886896 0.3338592 0.5724462 0.5030139 0.5571686 0.4901641 0.5340525 0.3684325 0.7968567 0.3706548 0.7968567 0.1853285 0.9194104 0.1853306 0.180949 0.7756782 0.180949 0.9610044 0.1602134 0.9610113 0.4886896 0.8418052 0.4886896 0.6564789 0.5589467 0.6564708 0.5719513 0.656471 0.5719513 0.8417972 0.5589467 0.8417971 0.1858245 0.2590861 0.1856447 0.03092867 0.3709709 0.03079485 0.1855636 0.09242355 2.37383e-4 0.09232401 2.56747e-4 0.05472296 0.1854576 0.3032823 1.31389e-4 0.3031828 2.37383e-4 0.09232401 0.4443097 0.3018977 0.4551654 0.2796007 0.4720069 0.2686848 0.4760239 0.03806704 0.4886896 0.3338592 0.4656471 0.1207975 0.4886896 0.3338592 0.4720069 0.2686848 0.4656471 0.1207975 0.4551654 0.2796007 0.4443097 0.3018977 0.4282616 0.1450291 0.4443097 0.3018977 0.4012531 0.0865302 0.4282616 0.1450291 0.4760239 0.03806704 0.4656471 0.1207975 0.4012531 0.0865302 0.5083171 0.2684058 0.5246329 0.280093 0.5344402 0.3028706 0.9559726 0 0.9559726 0.1853262 0.8091825 0.1853285 0.1602134 0.7756863 0.1602134 0.9610126 0.1215832 0.9610044 0.7968567 0.3706625 0.9148151 0.3706569 0.9148151 0.5559831 0.7968567 3.86621e-7 0.8091825 2.25345e-6 0.8091825 0.1853285 0 0.6229358 1.96526e-5 0.5046775 0.1853458 0.5047771 0.1859399 0.3969121 0.1859239 0.3777219 0.3708547 0.3967786 0.1859239 0.3777219 0.3712503 0.3777217 0.3708547 0.3967786 0.3712503 0.3777217 0.3713081 0.4470425 0.3708547 0.3967786 0.4400777 0.5374347 0.4329606 0.5696917 0.4120442 0.5260916 0.4120442 0.5260916 0.3713081 0.6166549 0.3970393 0.5000575 0.3708547 0.3967786 0.3709468 0.5203694 0.1859399 0.3969121 0.3709468 0.5203694 0.1856206 0.5205032 0.1859399 0.3969121 0.07609438 0.9610044 0.07609438 0.7756782 0.1215832 0.7757104 0.4886896 0.6858559 0.4479928 0.7763737 0.3713081 0.6166549 0.02232766 0.8873487 0.02576982 0.898245 1.6622e-4 0.9045184 1.6622e-4 0.9045184 0 0.7756782 0.02259975 0.8802244 0 0.7756782 0.05385434 0.8438442 0.02568739 0.8770291 0.02259975 0.8802244 0 0.7756782 0.02568739 0.8770291 0.05385434 0.8438442 0.07609432 0.7910107 0.07609432 0.9684295 0.07609432 0.9684295 0.04298347 0.9133389 0.04633057 0.9109737 0.07609432 0.9684295 0.04633057 0.9109737 0.04750126 0.9063316 0.02259975 0.8802244 0.02232766 0.8873487 1.6622e-4 0.9045184 0.05385434 0.8438442 0.07609432 0.9684295 0.04670554 0.8998677 0.07609432 0.9684295 0.04750126 0.9063316 0.04670554 0.8998677 0.02988302 0.8771904 0.02568739 0.8770291 0.05385434 0.8438442 0.05385434 0.8438442 0.04670554 0.8998677 0.0423606 0.889122 0.03500318 0.8803786 0.02988302 0.8771904 0.05385434 0.8438442 0.434612 0.5056134 0.4400777 0.5374347 0.3970393 0.5000575 0.370947 0.5205077 0.3709552 0.6690266 0.185629 0.6690222 0.9636571 0.7196185 0.96366 0.7948576 0.7783338 0.7948576 0.7783308 0.8735567 0.5930045 0.8735567 0.5930037 0.644613 0.3709469 0.8116304 0.1856207 0.8116259 0.185626 0.7598989 0.7968567 0.5896262 0.7774264 0.4879063 0.7810254 0.4857435 0.7968567 0.5896262 0.7810254 0.4857435 0.7839758 0.4804826 0.7824222 0.4517191 0.7791594 0.4482154 0.7968567 0.3790604 0.7848394 0.4577664 0.7824222 0.4517191 0.7968567 0.3790604 0.7968567 0.5896262 0.7839758 0.4804826 0.7856842 0.4733696 0.7859869 0.4653814 0.7848394 0.4577664 0.7968567 0.3790604 0.7968567 0.5896262 0.7856842 0.4733696 0.7859869 0.4653814 0.7731813 0.4865941 0.7774264 0.4879063 0.7968567 0.5896262 0.7968567 0.5896262 0.7273623 0.6446129 0.7731813 0.4865941 0.7273623 0.6446129 0.6516843 0.6446129 0.7731813 0.4865941 0.6516843 0.6446129 0.5929978 0.598178 0.7731813 0.4865941 0.5929978 0.598178 0.5929978 0.3691166 0.7678018 0.4733696 0.7695103 0.4804826 0.5929978 0.598178 0.7678018 0.4733696 0.5929978 0.3691166 0.6521583 0.3223065 0.7710639 0.4517191 0.6521583 0.3223065 0.7251287 0.3223065 0.7710639 0.4517191 0.5929978 0.3691166 0.7686466 0.4577665 0.7674991 0.4653814 0.7251287 0.3223065 0.7968567 0.3790604 0.7750867 0.4477557 0.7968567 0.3790604 0.7791594 0.4482154 0.7750867 0.4477557 0.5929978 0.598178 0.7695103 0.4804826 0.7731813 0.4865941 0.7686466 0.4577665 0.5929978 0.3691166 0.7710639 0.4517191 0.7251287 0.3223065 0.7750867 0.4477557 0.7710639 0.4517191 0.5929978 0.2754963 0.5929979 0.04643487 0.7968567 0.2655524 0.5929979 0.04643487 0.6516843 0 0.7273623 0 0.7968567 0.05498659 0.5929979 0.04643487 0.7273623 0 0.7968567 0.05498659 0.7968567 0.2655524 0.5929979 0.04643487 0.7968567 0.2655524 0.7251287 0.3223065 0.5929978 0.2754963 0.185629 0.6690222 0.3709552 0.6690266 0.3709522 0.7599033 0.5930045 0.8735567 0.7783308 0.8735567 0.778324 0.9222403 0.778348 0.644613 0.9636743 0.644613 0.9636571 0.7196185 0.9623477 0.1853288 0.9636194 0.543985 0.9596846 0.5439846 0.9959208 0.1853412 1 0.1853285 1 0.5439864 0.1855829 0.0548225 2.56747e-4 0.05472296 2.94412e-4 0 0.3709709 0.03079485 0.1856447 0.03092867 0.1856206 1.33837e-4 0.5929979 0.05188715 0.5874635 0.08973789 0.5150268 0.03785073 0.3974846 0.0484631 0.4722554 0 0.4760239 0.03806704</float_array>
          <technique_common>
            <accessor source="#Cube_032-mesh-map-array" count="546" stride="2">
              <param name="S" type="float"/>
              <param name="T" type="float"/>
            </accessor>
          </technique_common>
        </source>
        <vertices id="Cube_032-mesh-vertices">
          <input semantic="POSITION" source="#Cube_032-mesh-positions"/>
        </vertices>
        <triangles material="Material-material" count="182">
          <input semantic="VERTEX" source="#Cube_032-mesh-vertices" offset="0"/>
          <input semantic="NORMAL" source="#Cube_032-mesh-normals" offset="1"/>
          <input semantic="TEXCOORD" source="#Cube_032-mesh-map" offset="2" set="0"/>
          <p>44 0 0 50 0 1 21 0 2 35 1 3 2 1 4 10 1 5 47 2 6 48 2 7 40 2 8 14 3 9 21 3 10 39 3 11 9 4 12 22 4 13 36 4 14 54 5 15 43 5 16 49 5 17 4 6 18 6 6 19 1 6 20 13 7 21 65 7 22 67 7 23 23 8 24 18 8 25 12 8 26 62 9 27 77 9 28 74 9 29 60 10 30 74 10 31 72 10 32 59 11 33 72 11 34 70 11 35 59 12 36 70 12 37 57 12 38 58 13 39 73 13 40 61 13 41 61 14 42 75 14 43 63 14 44 63 15 45 78 15 46 65 15 47 65 16 48 81 16 49 67 16 50 67 17 51 82 17 52 68 17 53 68 18 54 82 18 55 83 18 56 66 19 57 84 19 58 80 19 59 64 20 60 80 20 61 79 20 62 62 21 63 79 21 64 77 21 65 43 22 66 47 22 67 46 22 68 49 23 69 43 23 70 46 23 71 51 24 72 21 24 73 50 24 74 49 25 75 35 25 76 48 25 77 48 26 78 10 26 79 40 26 80 41 27 81 2 27 82 51 27 83 45 28 84 49 28 85 46 28 86 49 29 87 14 29 88 39 29 89 42 30 90 44 30 91 41 30 92 44 31 93 21 31 94 14 31 95 14 32 96 41 32 97 44 32 98 10 33 99 45 33 100 40 33 101 46 34 102 40 34 103 45 34 104 2 35 105 9 35 106 21 35 107 19 36 108 88 36 109 87 36 110 35 37 111 22 37 112 19 37 113 35 38 114 30 38 115 2 38 116 24 39 117 29 39 118 19 39 119 32 40 120 39 40 121 21 40 122 36 41 123 30 41 124 32 41 125 37 42 126 24 42 127 36 42 128 37 43 129 26 43 130 29 43 131 38 44 132 30 44 133 26 44 134 54 45 135 48 45 136 6 45 137 54 46 138 53 46 139 52 46 140 52 47 141 53 47 142 55 47 143 50 48 144 43 48 145 52 48 146 48 49 147 51 49 148 17 49 149 11 50 150 17 50 151 56 50 152 11 51 153 4 51 154 1 51 155 11 52 156 6 52 157 17 52 158 53 53 159 62 53 160 60 53 161 42 54 162 48 54 163 47 54 164 5 55 165 3 55 166 0 55 167 15 56 168 18 56 169 16 56 170 20 57 171 25 57 172 23 57 173 33 58 174 28 58 175 34 58 176 5 59 177 76 59 178 8 59 179 79 60 180 27 60 181 77 60 182 28 61 183 31 61 184 20 61 185 3 62 186 34 62 187 28 62 188 27 63 189 31 63 190 33 63 191 5 64 192 15 64 193 16 64 194 71 65 195 57 65 196 70 65 197 60 66 198 62 66 199 74 66 200 59 67 201 60 67 202 72 67 203 83 68 204 69 68 205 68 68 206 58 69 207 71 69 208 73 69 209 61 70 210 73 70 211 75 70 212 63 71 213 75 71 214 76 71 215 63 72 216 76 72 217 78 72 218 65 73 219 78 73 220 81 73 221 67 74 222 81 74 223 82 74 224 87 75 225 86 75 226 85 75 227 66 76 228 69 76 229 84 76 230 64 77 231 66 77 232 80 77 233 62 78 234 64 78 235 79 78 236 9 79 237 85 79 238 86 79 239 88 80 240 9 80 241 86 80 242 87 81 243 7 81 244 19 81 245 44 82 246 43 82 247 50 82 248 32 83 249 21 83 250 36 83 251 21 84 252 9 84 253 36 84 254 22 85 255 39 85 256 37 85 257 39 86 258 38 86 259 37 86 260 22 87 261 37 87 262 36 87 263 54 88 264 52 88 265 43 88 266 4 89 267 54 89 268 6 89 269 68 90 270 4 90 271 67 90 272 4 91 273 13 91 274 67 91 275 13 92 276 63 92 277 65 92 278 23 93 279 25 93 280 18 93 281 43 94 282 42 94 283 47 94 284 51 95 285 2 95 286 21 95 287 49 96 288 39 96 289 35 96 290 48 97 291 35 97 292 10 97 293 51 98 294 42 98 295 41 98 296 41 99 297 10 99 298 2 99 299 49 100 300 45 100 301 14 100 302 42 101 303 43 101 304 44 101 305 14 102 306 10 102 307 41 102 308 10 103 309 14 103 310 45 103 311 46 104 312 47 104 313 40 104 314 2 105 315 7 105 316 9 105 317 19 106 318 22 106 319 88 106 320 35 107 321 39 107 322 22 107 323 35 108 324 26 108 325 30 108 326 7 109 327 2 109 328 24 109 329 2 110 330 30 110 331 24 110 332 26 111 333 35 111 334 29 111 335 35 112 336 19 112 337 29 112 338 7 113 339 24 113 340 19 113 341 32 114 342 38 114 343 39 114 344 36 115 345 24 115 346 30 115 347 37 116 348 29 116 349 24 116 350 37 117 351 38 117 352 26 117 353 38 118 354 32 118 355 30 118 356 54 119 357 49 119 358 48 119 359 56 120 360 51 120 361 55 120 362 51 121 363 50 121 364 55 121 365 50 122 366 52 122 367 55 122 368 51 123 369 56 123 370 17 123 371 17 124 372 6 124 373 48 124 374 55 125 375 13 125 376 56 125 377 13 126 378 11 126 379 56 126 380 11 127 381 13 127 382 4 127 383 11 128 384 1 128 385 6 128 386 61 129 387 63 129 388 13 129 389 13 130 390 55 130 391 58 130 392 55 131 393 53 131 394 57 131 395 58 132 396 55 132 397 57 132 398 53 133 399 54 133 400 4 133 401 4 134 402 68 134 403 69 134 404 4 135 405 69 135 406 66 135 407 58 136 408 61 136 409 13 136 410 53 137 411 4 137 412 64 137 413 4 138 414 66 138 415 64 138 416 59 139 417 57 139 418 53 139 419 53 140 420 64 140 421 62 140 422 60 141 423 59 141 424 53 141 425 42 142 426 51 142 427 48 142 428 5 143 429 8 143 430 3 143 431 15 144 432 12 144 433 18 144 434 20 145 435 27 145 436 25 145 437 33 146 438 31 146 439 28 146 440 5 147 441 83 147 442 82 147 443 5 148 444 82 148 445 81 148 446 73 149 447 71 149 448 8 149 449 75 150 450 73 150 451 8 150 452 5 151 453 81 151 454 78 151 455 76 152 456 75 152 457 8 152 458 5 153 459 78 153 460 76 153 461 84 154 462 83 154 463 5 154 464 5 155 465 16 155 466 84 155 467 16 156 468 18 156 469 84 156 470 18 157 471 25 157 472 84 157 473 25 158 474 27 158 475 79 158 476 80 159 477 25 159 478 79 159 479 27 160 480 33 160 481 72 160 482 33 161 483 34 161 484 72 161 485 27 162 486 74 162 487 77 162 488 34 163 489 8 163 490 70 163 491 8 164 492 71 164 493 70 164 494 25 165 495 80 165 496 84 165 497 74 166 498 27 166 499 72 166 500 34 167 501 70 167 502 72 167 503 20 168 504 23 168 505 3 168 506 23 169 507 12 169 508 15 169 509 0 170 510 23 170 511 15 170 512 0 171 513 3 171 514 23 171 515 3 172 516 28 172 517 20 172 518 3 173 519 8 173 520 34 173 521 27 174 522 20 174 523 31 174 524 5 175 525 0 175 526 15 175 527 71 176 528 58 176 529 57 176 530 83 177 531 84 177 532 69 177 533 87 178 534 88 178 535 86 178 536 9 179 537 7 179 538 85 179 539 88 180 540 22 180 541 9 180 542 87 181 543 85 181 544 7 181 545</p>
        </triangles>
      </mesh>
    </geometry>
  </library_geometries>
  <library_visual_scenes>
    <visual_scene id="Scene" name="Scene">
      <node id="LightL" name="LightL" type="NODE">
        <matrix sid="transform">1.73645e-9 0 0.005 0 0 -0.05 0 0 0.023 0 -3.77489e-10 0 0 0 0 1</matrix>
        <instance_geometry url="#Cube_032-mesh" name="LightL">
          <bind_material>
            <technique_common>
              <instance_material symbol="Material-material" target="#Material-material"/>
            </technique_common>
          </bind_material>
        </instance_geometry>
      </node>
    </visual_scene>
  </library_visual_scenes>
  <scene>
    <instance_visual_scene url="#Scene"/>
  </scene>
</COLLADA>