# Blender 4.5.3 LTS
# www.blender.org
o propeller
v 0.004264 0.002480 0.066808
v 0.004258 0.002381 0.060809
v 0.004899 -0.000060 0.060808
v 0.004988 -0.000000 0.066805
v 0.005338 0.003090 0.066809
v 0.006162 -0.000000 0.066805
v 0.004295 -0.002480 0.066806
v 0.004233 -0.002495 0.060808
v 0.002469 -0.004280 0.066807
v 0.002439 -0.004270 0.060808
v -0.005355 0.003090 0.066810
v -0.004223 0.002450 0.066809
v -0.002482 0.004300 0.066808
v -0.003093 0.005350 0.066812
v -0.006185 -0.000000 0.066806
v -0.004874 0.000010 0.066810
v -0.000017 0.005000 0.066805
v -0.000008 0.006170 0.066809
v -0.004853 -0.000010 0.060807
v -0.004219 -0.002430 0.066806
v -0.004212 -0.002452 0.060807
v -0.005355 -0.003090 0.066810
v -0.003093 -0.005350 0.066812
v -0.002440 -0.004220 0.066809
v -0.002437 -0.004246 0.060807
v 0.003077 0.005350 0.066807
v 0.002357 0.004400 0.066806
v -0.000002 -0.004911 0.060808
v -0.000002 -0.004870 0.066804
v -0.000008 -0.006170 0.066809
v 0.003077 -0.005350 0.066807
v 0.005338 -0.003090 0.066809
v -0.004188 0.002424 0.060807
v -0.002394 0.004200 0.060808
v 0.000048 0.004841 0.060808
v 0.002482 0.004175 0.060808
v 0.005680 0.009860 0.065873
v 0.009849 0.005690 0.065876
v 0.009633 0.016700 0.059092
v -0.000011 0.019290 0.059091
v -0.000010 0.015940 0.063191
v 0.007963 0.013810 0.063194
v 0.016691 -0.009640 0.059091
v 0.013794 -0.007970 0.063190
v 0.007963 -0.013810 0.063194
v 0.009633 -0.016700 0.059092
v 0.019277 -0.000000 0.059093
v 0.015930 -0.000000 0.063189
v -0.000010 -0.015940 0.063191
v -0.000011 -0.019290 0.059091
v -0.005703 0.009860 0.065872
v -0.009865 0.005690 0.065876
v -0.000008 0.011380 0.065876
v -0.013814 0.007970 0.063193
v -0.015950 -0.000000 0.063193
v -0.011391 -0.000000 0.065875
v 0.005680 -0.009860 0.065873
v 0.009849 -0.005690 0.065876
v 0.011375 -0.000000 0.065878
v -0.009865 -0.005690 0.065876
v -0.000008 -0.011380 0.065876
v -0.013814 -0.007970 0.063193
v -0.007984 0.013810 0.063188
v -0.016714 -0.009640 0.059092
v -0.009655 -0.016700 0.059090
v -0.007984 -0.013810 0.063188
v -0.019299 -0.000000 0.059089
v -0.005703 -0.009860 0.065872
v -0.016714 0.009640 0.059092
v 0.013794 0.007970 0.063190
v -0.009655 0.016700 0.059090
v 0.016691 0.009640 0.059091
v -0.000007 0.023500 -0.041690
v 0.011737 0.020350 -0.041696
v 0.011736 0.020350 -0.048696
v -0.000007 0.023500 -0.048690
v -0.011759 0.020350 -0.048691
v -0.011758 0.020350 -0.041691
v 0.016243 -0.028150 -0.041690
v -0.000007 -0.032500 -0.041690
v -0.000007 -0.023500 -0.041690
v 0.011737 -0.020350 -0.041696
v -0.020358 0.011750 -0.048689
v -0.020358 0.011750 -0.041690
v 0.032492 -0.000000 -0.041690
v 0.028137 -0.016250 -0.041691
v 0.020344 -0.011750 -0.041690
v 0.023488 -0.000000 -0.041695
v 0.020344 0.011750 -0.041690
v 0.028137 0.016250 -0.041691
v -0.000007 -0.023500 -0.048690
v -0.011758 -0.020350 -0.041691
v -0.011759 -0.020350 -0.048691
v 0.020344 -0.011750 -0.048691
v 0.023488 -0.000000 -0.048695
v -0.028159 -0.016250 -0.041695
v -0.020358 -0.011750 -0.041690
v -0.016257 -0.028150 -0.041690
v 0.020344 0.011750 -0.048691
v -0.023509 -0.000000 -0.041692
v -0.023509 -0.000000 -0.048692
v -0.020358 -0.011750 -0.048689
v -0.028159 0.016250 -0.041695
v -0.016257 0.028150 -0.041690
v -0.032514 -0.000000 -0.041696
v 0.011736 -0.020350 -0.048696
v -0.000007 0.032500 -0.041690
v 0.016243 0.028150 -0.041690
v 0.032491 -0.000000 0.034013
v 0.027485 -0.015940 0.034013
v 0.015959 -0.027790 0.034013
v -0.000008 -0.032500 0.034014
v -0.015975 -0.027790 0.034015
v -0.027501 -0.015940 0.034015
v -0.031697 -0.000000 0.034010
v -0.027501 0.015940 0.034015
v -0.015975 0.027790 0.034015
v -0.000008 0.032500 0.034014
v 0.015959 0.027790 0.034013
v 0.027485 0.015940 0.034013
v 0.015390 -0.029328 -0.024288
v 0.015090 -0.032250 -0.025669
v 0.016343 -0.028780 -0.028245
v 0.005979 -0.035088 -0.022817
v 0.006378 -0.032581 -0.025186
v 0.012086 -0.031867 -0.018678
v 0.012741 -0.030557 -0.017551
v -0.000761 -0.164413 -0.016756
v 0.013275 -0.170461 -0.024630
v 0.017641 -0.124948 -0.028855
v 0.007655 -0.120392 -0.020525
v -0.117726 -0.114490 0.015666
v -0.132395 -0.108245 0.024045
v -0.102762 -0.073331 0.028622
v -0.092041 -0.077841 0.019589
v -0.006534 -0.161977 -0.022362
v 0.000530 -0.117493 -0.025838
v -0.111723 -0.117059 0.021485
v -0.085432 -0.080695 0.025272
v -0.069115 -0.040750 0.028600
v -0.062332 -0.043587 0.019605
v -0.056161 -0.046150 0.025272
v 0.018221 -0.078252 -0.029166
v 0.011314 -0.075136 -0.019987
v 0.005721 -0.072563 -0.026215
v -0.029630 -0.019332 0.022115
v -0.033532 -0.011494 0.024732
v -0.031183 -0.013402 0.017744
v -0.019368 -0.061847 -0.015286
v -0.011067 -0.033385 -0.013808
v -0.024801 -0.022081 -0.000957
v -0.025117 -0.023394 0.000833
v -0.030724 -0.011926 0.016811
v -0.011333 -0.031384 -0.015447
v -0.031534 -0.103669 -0.015896
v -0.074197 -0.133071 0.012609
v -0.036324 -0.149234 0.000197
v -0.021448 -0.107974 -0.000477
v -0.052852 -0.094562 0.014952
v 0.000113 -0.033719 -0.002258
v -0.008242 -0.066602 -0.001979
v -0.015647 -0.031551 0.012436
v -0.014678 -0.029951 0.014547
v -0.028147 -0.017360 0.024543
v -0.031071 -0.056857 0.014351
v -0.062935 -0.090266 -0.000466
v -0.082444 -0.129550 -0.001132
v -0.041904 -0.052237 0.000804
v -0.045109 -0.145486 -0.013396
v 0.001099 -0.033157 0.000209
v 0.007091 -0.028611 -0.028119
v -0.011424 -0.027512 -0.017992
v -0.023562 -0.019000 -0.004689
v -0.028939 -0.008100 0.014528
v -0.031676 -0.009126 0.023682
v -0.029586 -0.005451 0.021545
v -0.029809 -0.002903 0.030000
v -0.031897 -0.008187 0.027310
v -0.023563 -0.018351 0.026490
v -0.013055 -0.026688 0.017822
v 0.002864 -0.031482 0.004969
v 0.014085 -0.026623 -0.014693
v 0.016910 -0.024471 -0.025841
v 0.017468 -0.023482 -0.031414
v -0.000009 -0.000000 -0.048692
v 0.009260 -0.195601 -0.020648
v -0.011056 -0.195449 -0.014815
v -0.055591 -0.187527 -0.004603
v -0.096671 -0.170013 0.003646
v -0.147459 -0.128709 0.019711
v -0.133027 -0.143634 0.013757
v 0.017690 0.028000 -0.024288
v 0.020370 0.029201 -0.025669
v 0.016739 0.028552 -0.028245
v 0.027384 0.022730 -0.022817
v 0.025013 0.021822 -0.025186
v 0.021540 0.026408 -0.018678
v 0.020079 0.026320 -0.017551
v 0.142752 0.081555 -0.016756
v 0.140972 0.096734 -0.024630
v 0.099374 0.077759 -0.028855
v 0.100421 0.066833 -0.020525
v 0.158000 -0.044701 0.015666
v 0.159926 -0.060527 0.024045
v 0.114873 -0.052321 0.028622
v 0.113419 -0.040781 0.019589
v 0.143530 0.075337 -0.022362
v 0.101473 0.059213 -0.025838
v 0.157224 -0.038218 0.021486
v 0.112586 -0.033631 0.025272
v 0.069834 -0.039473 0.028600
v 0.068900 -0.032180 0.019605
v 0.068033 -0.025554 0.025272
v 0.058644 0.054913 -0.029166
v 0.059399 0.047374 -0.019987
v 0.059966 0.041244 -0.026215
v 0.031543 -0.015987 0.022115
v 0.026706 -0.023284 0.024732
v 0.027184 -0.020297 0.017744
v 0.063231 0.014158 -0.015286
v 0.034431 0.007116 -0.013808
v 0.031510 -0.010430 -0.000957
v 0.032805 -0.010048 0.000833
v 0.025676 -0.020637 0.016811
v 0.032832 0.005885 -0.015447
v 0.105533 0.024533 -0.015896
v 0.152327 0.002286 0.012609
v 0.147389 0.043167 0.000197
v 0.104218 0.035421 -0.000477
v 0.108305 0.001517 0.014953
v 0.029131 0.016965 -0.002258
v 0.061786 0.026171 -0.001979
v 0.035134 0.002233 0.012436
v 0.033263 0.002272 0.014547
v 0.029094 -0.015688 0.024543
v 0.064761 0.001528 0.014351
v 0.109626 -0.009363 -0.000466
v 0.153402 -0.006616 -0.001132
v 0.066177 -0.010164 0.000804
v 0.148535 0.033686 -0.013396
v 0.028151 0.017538 0.000209
v 0.021219 0.020454 -0.028119
v 0.029524 0.003870 -0.017992
v 0.028222 -0.010897 -0.004689
v 0.021471 -0.021004 0.014528
v 0.023727 -0.022862 0.023682
v 0.019500 -0.022889 0.021545
v 0.017404 -0.024356 0.030000
v 0.023024 -0.023522 0.027310
v 0.027660 -0.011223 0.026490
v 0.029626 0.002045 0.017822
v 0.025818 0.018229 0.004969
v 0.016000 0.025518 -0.014693
v 0.012723 0.026888 -0.025841
v 0.011588 0.026877 -0.031414
v 0.164752 0.105827 -0.020648
v 0.174778 0.088157 -0.014815
v 0.190185 0.045628 -0.004603
v 0.195557 0.001295 0.003646
v 0.185180 -0.063341 0.019711
v 0.190890 -0.043380 0.013757
v -0.033108 0.001328 -0.024288
v -0.035488 0.003048 -0.025669
v -0.033110 0.000228 -0.028245
v -0.033391 0.012358 -0.022817
v -0.031419 0.010758 -0.025186
v -0.033654 0.005458 -0.018678
v -0.032847 0.004236 -0.017551
v -0.142019 0.082857 -0.016756
v -0.154275 0.073726 -0.024630
v -0.117042 0.047188 -0.028855
v -0.108104 0.053558 -0.020525
v -0.040302 0.159190 0.015666
v -0.027559 0.168771 0.024045
v -0.012139 0.125651 0.028622
v -0.021406 0.118622 0.019589
v -0.137023 0.086639 -0.022362
v -0.102030 0.058279 -0.025838
v -0.045528 0.155276 0.021485
v -0.027182 0.114326 0.025272
v -0.000746 0.080222 0.028600
v -0.006595 0.075766 0.019605
v -0.011900 0.071703 0.025272
v -0.076892 0.023338 -0.029166
v -0.070741 0.027761 -0.019987
v -0.065715 0.031318 -0.026215
v -0.001941 0.035318 0.022115
v 0.006798 0.034778 0.024732
v 0.003972 0.033698 0.017744
v -0.043891 0.047688 -0.015286
v -0.023392 0.026268 -0.013808
v -0.006736 0.032511 -0.000957
v -0.007715 0.033441 0.000833
v 0.005020 0.032563 0.016811
v -0.021527 0.025498 -0.015447
v -0.074026 0.079135 -0.015896
v -0.078157 0.130784 0.012609
v -0.111092 0.106066 0.000197
v -0.082798 0.072553 -0.000477
v -0.055481 0.093044 0.014952
v -0.029272 0.016753 -0.002258
v -0.053572 0.040431 -0.001979
v -0.019514 0.029318 0.012436
v -0.018613 0.027678 0.014547
v -0.000975 0.033048 0.024543
v -0.033718 0.055328 0.014351
v -0.046719 0.099628 -0.000466
v -0.070985 0.136165 -0.001132
v -0.024300 0.062400 0.000804
v -0.103454 0.111800 -0.013396
v -0.029278 0.015618 0.000209
v -0.028337 0.008157 -0.028119
v -0.018128 0.023642 -0.017992
v -0.004688 0.029897 -0.004689
v 0.007441 0.029104 0.014528
v 0.010059 0.028340 0.021545
v 0.007921 0.031987 0.023682
v 0.012377 0.027258 0.030000
v 0.008845 0.031708 0.027310
v -0.004125 0.029573 0.026490
v -0.016598 0.024642 0.017822
v -0.028710 0.013252 0.004969
v -0.030113 0.001105 -0.014693
v -0.029661 -0.002418 -0.025841
v -0.029084 -0.003395 -0.031414
v -0.174039 0.089773 -0.020648
v -0.163749 0.107291 -0.014815
v -0.134622 0.141899 -0.004603
v -0.098913 0.168717 0.003646
v -0.037749 0.192049 0.019711
v -0.057891 0.187014 0.013757
vn -0.9672 -0.2539 0.0052
vn -0.9598 -0.2802 0.0171
vn -0.0000 -0.0012 1.0000
vn -0.0001 -0.0011 1.0000
vn -0.9630 0.2694 0.0117
vn -0.9646 0.2637 0.0093
vn -0.7020 0.7121 0.0055
vn -0.7035 0.7107 0.0046
vn 0.0008 0.0001 1.0000
vn 0.0018 -0.0024 1.0000
vn -0.0033 0.0012 1.0000
vn -0.0001 -0.0014 1.0000
vn 0.0020 -0.0023 1.0000
vn 0.0018 -0.0041 1.0000
vn 0.9658 0.2592 0.0024
vn 0.9672 0.2539 0.0002
vn 0.0026 0.0021 1.0000
vn -0.0032 -0.0026 1.0000
vn 0.0012 0.0018 1.0000
vn 0.0018 0.0034 1.0000
vn 0.7107 0.7035 -0.0017
vn 0.7093 0.7049 -0.0026
vn -0.0012 -0.0006 1.0000
vn -0.0008 0.0003 1.0000
vn -0.0016 -0.0041 1.0000
vn 0.0002 -0.0016 1.0000
vn -0.2539 0.9672 0.0028
vn -0.2322 0.9726 -0.0067
vn 0.0006 0.0003 1.0000
vn -0.0025 0.0043 1.0000
vn -0.0001 0.0011 1.0000
vn -0.0022 0.0009 1.0000
vn -0.0020 0.0013 1.0000
vn 0.0005 0.0003 1.0000
vn 0.0019 0.0043 1.0000
vn 0.0023 0.0012 1.0000
vn 0.2576 0.9662 -0.0066
vn 0.2637 0.9646 -0.0039
vn 0.9646 -0.2637 0.0042
vn 0.9662 -0.2579 0.0067
vn 0.2539 -0.9670 0.0198
vn 0.2732 -0.9615 0.0285
vn 0.7035 -0.7107 0.0071
vn 0.7281 -0.6851 0.0221
vn -0.7095 -0.7046 0.0116
vn -0.7106 -0.7035 0.0123
vn -0.2449 -0.9691 0.0312
vn -0.2637 -0.9643 0.0227
vn 0.1287 0.1294 0.9832
vn 0.2036 0.7582 0.6194
vn 0.2027 0.7597 0.6178
vn 0.5560 -0.5547 0.6190
vn 0.5561 -0.5558 0.6179
vn 0.7582 -0.2035 0.6195
vn 0.7586 -0.2033 0.6190
vn 0.2027 -0.7598 0.6178
vn 0.2036 -0.7582 0.6194
vn -0.1289 0.1296 0.9831
vn -0.1301 0.1296 0.9830
vn -0.0480 0.1771 0.9830
vn -0.0461 0.1761 0.9833
vn -0.5025 0.1346 0.8541
vn -0.5026 0.1346 0.8540
vn 0.1287 -0.1294 0.9832
vn 0.1751 -0.0456 0.9835
vn 0.1760 -0.0474 0.9833
vn -0.1770 -0.0462 0.9831
vn -0.1759 -0.0469 0.9833
vn 0.0476 -0.1762 0.9832
vn 0.0475 -0.1761 0.9832
vn -0.5026 -0.1346 0.8540
vn -0.5025 -0.1346 0.8541
vn 0.1345 -0.5018 0.8545
vn 0.1340 -0.5028 0.8539
vn -0.3678 0.3680 0.8540
vn -0.3678 0.3679 0.8540
vn -0.5556 -0.5557 0.6185
vn -0.5556 -0.5552 0.6189
vn -0.7586 -0.2033 0.6190
vn -0.7585 -0.2032 0.6192
vn 0.3689 -0.3676 0.8537
vn 0.3670 -0.3675 0.8546
vn -0.1348 -0.5027 0.8539
vn -0.1346 -0.5025 0.8540
vn -0.2028 -0.7583 0.6196
vn -0.2039 -0.7590 0.6184
vn -0.7585 0.2032 0.6192
vn -0.7586 0.2033 0.6190
vn 0.1760 0.0474 0.9833
vn 0.1751 0.0456 0.9835
vn 0.3670 0.3675 0.8546
vn 0.3688 0.3676 0.8537
vn 0.5036 -0.1349 0.8533
vn 0.5031 -0.1351 0.8536
vn 0.0475 0.1761 0.9832
vn 0.0476 0.1762 0.9832
vn -0.1301 -0.1296 0.9830
vn -0.1289 -0.1296 0.9831
vn -0.1346 0.5025 0.8540
vn -0.1348 0.5027 0.8539
vn -0.5556 0.5552 0.6189
vn -0.5556 0.5557 0.6185
vn 0.5561 0.5558 0.6179
vn 0.5560 0.5547 0.6190
vn -0.1759 0.0469 0.9833
vn -0.1770 0.0462 0.9831
vn -0.3678 -0.3679 0.8540
vn -0.3678 -0.3680 0.8540
vn 0.7586 0.2033 0.6190
vn 0.7582 0.2035 0.6195
vn -0.2039 0.7590 0.6184
vn -0.2028 0.7583 0.6196
vn -0.0461 -0.1761 0.9833
vn -0.0480 -0.1771 0.9830
vn 0.5031 0.1351 0.8536
vn 0.5036 0.1349 0.8533
vn 0.1340 0.5028 0.8539
vn 0.1345 0.5018 0.8545
vn 0.2591 0.9659 -0.0000
vn -0.2589 0.9659 -0.0000
vn -0.0000 -0.0000 -1.0000
vn -0.0003 -0.0009 -1.0000
vn -0.7071 0.7071 0.0001
vn -0.7071 0.7071 -0.0000
vn -0.0000 0.0001 -1.0000
vn 0.0005 -0.0005 -1.0000
vn 0.0005 0.0005 -1.0000
vn -0.0000 -0.0001 -1.0000
vn -0.2589 -0.9659 -0.0000
vn 0.9660 -0.2585 -0.0000
vn 0.0004 0.0006 -1.0000
vn 0.0002 -0.0003 -1.0000
vn 0.9660 0.2585 -0.0000
vn -0.9659 -0.2590 -0.0000
vn -0.9659 -0.2591 0.0001
vn 0.0002 0.0003 -1.0000
vn 0.0004 -0.0006 -1.0000
vn 0.0001 -0.0002 -1.0000
vn -0.9659 0.2590 0.0001
vn -0.9659 0.2590 -0.0000
vn -0.7071 -0.7071 -0.0000
vn -0.7071 -0.7071 0.0001
vn 0.0009 -0.0002 -1.0000
vn -0.0001 -0.0000 -1.0000
vn 0.0007 -0.0000 -1.0000
vn 0.0005 -0.0001 -1.0000
vn 0.2591 -0.9659 -0.0000
vn 0.7068 0.7074 -0.0001
vn 0.7068 0.7074 -0.0000
vn 0.0001 0.0002 -1.0000
vn 0.7068 -0.7074 -0.0000
vn 0.7068 -0.7074 -0.0001
vn 0.0005 0.0001 -1.0000
vn 0.0009 0.0002 -1.0000
vn -0.0003 0.0009 -1.0000
vn 0.9659 -0.2589 -0.0000
vn 0.9540 -0.2996 0.0094
vn 0.7168 -0.6972 0.0090
vn 0.7073 -0.7069 0.0060
vn 0.2586 -0.9660 0.0056
vn 0.2829 -0.9591 -0.0000
vn -0.2586 -0.9660 -0.0000
vn -0.2829 -0.9591 0.0056
vn -0.7070 -0.7072 0.0060
vn -0.7168 -0.6972 0.0091
vn -0.9670 -0.2546 0.0094
vn -0.9659 -0.2589 0.0104
vn -0.9659 0.2589 0.0104
vn -0.9670 0.2546 0.0094
vn -0.7168 0.6972 0.0091
vn -0.7070 0.7071 0.0060
vn -0.2829 0.9591 0.0056
vn -0.2586 0.9660 -0.0000
vn 0.2829 0.9591 -0.0000
vn 0.2586 0.9660 0.0056
vn 0.7073 0.7069 0.0060
vn 0.7168 0.6972 0.0090
vn 0.9540 0.2996 0.0094
vn 0.9659 0.2589 -0.0000
vn 0.9593 -0.1949 0.2042
vn -0.0749 -0.5769 -0.8134
vn 0.0411 -0.6897 -0.7229
vn 0.6964 -0.6351 0.3340
vn 0.9169 -0.2435 0.3162
vn 0.4996 0.0324 0.8657
vn 0.6253 -0.0529 0.7786
vn -0.3261 0.3897 -0.8613
vn -0.4767 0.4169 -0.7739
vn -0.1929 -0.0460 -0.9802
vn -0.1461 -0.0775 -0.9862
vn 0.1114 -0.1823 0.9769
vn 0.0491 -0.1707 0.9841
vn -0.4490 0.4631 -0.7641
vn -0.5966 0.5177 -0.6132
vn 0.1842 -0.1561 0.9704
vn 0.1321 -0.1358 0.9819
vn 0.7981 -0.0059 0.6025
vn 0.6232 -0.0597 0.7798
vn -0.2222 0.0175 -0.9748
vn -0.1755 -0.0044 -0.9845
vn 0.2108 -0.0940 0.9730
vn 0.2577 -0.1882 0.9477
vn -0.1899 0.0900 -0.9777
vn -0.3127 0.0508 -0.9485
vn 0.9189 0.0327 0.3931
vn 0.7933 -0.0325 0.6079
vn -0.6091 0.6890 -0.3928
vn -0.5720 0.5529 -0.6058
vn -0.3413 0.1477 -0.9283
vn -0.4591 0.0834 -0.8845
vn -0.9553 -0.1314 -0.2650
vn -0.9339 0.0690 -0.3507
vn -0.4238 -0.5855 -0.6911
vn -0.4133 -0.6094 -0.6767
vn -0.7797 -0.4313 -0.4539
vn -0.7786 -0.4564 -0.4307
vn -0.2596 0.0895 -0.9616
vn -0.3858 0.0368 -0.9218
vn 0.2776 -0.0844 0.9570
vn 0.3415 -0.2445 0.9075
vn 0.8093 -0.0322 0.5865
vn 0.6320 -0.1542 0.7595
vn -0.1950 -0.7363 0.6479
vn -0.1634 -0.7147 0.6801
vn 0.5567 -0.0354 0.8300
vn 0.3836 -0.1234 0.9152
vn 0.3445 -0.1397 0.9283
vn 0.3777 -0.2694 0.8859
vn 0.5506 -0.0544 0.8330
vn 0.6256 -0.1721 0.7609
vn -0.4110 0.3769 -0.8301
vn -0.3541 0.1914 -0.9154
vn -0.3509 0.2244 -0.9091
vn -0.5255 0.1650 -0.8346
vn 0.2252 -0.1831 0.9570
vn 0.1422 -0.2037 0.9687
vn 0.2493 -0.1287 0.9598
vn 0.2948 -0.2498 0.9223
vn 0.5356 -0.1407 0.8327
vn 0.3639 -0.1957 0.9107
vn -0.5605 0.3270 -0.7609
vn -0.5142 0.1933 -0.8356
vn -0.2824 0.0344 -0.9587
vn -0.2414 -0.0374 -0.9697
vn 0.0029 -0.9752 0.2212
vn 0.3267 -0.8193 0.4712
vn 0.2875 -0.9523 0.1022
vn 0.6805 -0.6426 0.3520
vn -0.2536 0.1422 -0.9568
vn -0.4121 0.0795 -0.9077
vn -0.4185 0.3633 -0.8324
vn -0.5579 0.3339 -0.7598
vn -0.5952 0.5799 -0.5562
vn -0.5611 0.3274 -0.7603
vn 0.6610 -0.1617 0.7328
vn 0.4955 -0.2388 0.8352
vn -0.4478 -0.4779 -0.7557
vn -0.4380 -0.5010 -0.7464
vn -0.7876 -0.3206 -0.5263
vn -0.7927 -0.3478 -0.5007
vn -0.9488 -0.0008 -0.3158
vn -0.9070 0.2030 -0.3689
vn -0.9264 0.2860 -0.2449
vn -0.8974 0.3790 -0.2258
vn -0.8944 0.4211 -0.1505
vn -0.8852 0.4344 -0.1663
vn -0.2326 -0.3667 0.9008
vn -0.4296 -0.3617 0.8274
vn 0.0144 -0.7119 0.7022
vn -0.3767 -0.7887 0.4858
vn -0.0123 -0.9418 0.3360
vn 0.3603 -0.7440 0.5628
vn 0.5342 -0.8397 0.0974
vn 0.7360 -0.5442 0.4027
vn 0.8981 -0.4143 0.1476
vn 0.9257 -0.1841 0.3305
vn 0.9574 -0.2852 0.0453
vn 0.9719 -0.0724 0.2241
vn -0.0741 -0.5002 -0.8628
vn 0.0418 -0.5985 -0.8000
vn -0.6370 0.6370 0.4341
vn -0.6440 0.6263 0.4393
vn 0.6348 0.6346 0.4408
vn 0.6453 0.6277 0.4354
vn 0.8608 -0.2310 0.4535
vn 0.8581 -0.2695 0.4371
vn -0.8719 -0.2294 0.4327
vn -0.8716 -0.2337 0.4309
vn 0.8581 0.2695 0.4371
vn 0.8608 0.2310 0.4535
vn -0.8716 0.2337 0.4309
vn -0.8719 0.2294 0.4327
vn 0.2326 -0.8664 0.4418
vn 0.2525 -0.8561 0.4510
vn 0.2525 0.8561 0.4510
vn 0.2326 0.8664 0.4418
vn -0.2312 -0.8608 0.4534
vn -0.2535 -0.8594 0.4440
vn -0.6440 -0.6263 0.4393
vn -0.6370 -0.6370 0.4341
vn 0.6453 -0.6277 0.4354
vn 0.6348 -0.6346 0.4408
vn -0.2535 0.8594 0.4440
vn -0.2312 0.8608 0.4534
vn -0.0005 0.0001 -1.0000
vn 0.0003 -0.0004 -1.0000
vn -0.0001 0.0003 -1.0000
vn -0.0001 -0.0003 -1.0000
vn -0.0005 -0.0001 -1.0000
vn -0.0000 -0.0003 -1.0000
vn -0.0000 0.0002 -1.0000
vn -0.1668 -0.1282 -0.9776
vn -0.2729 -0.1764 -0.9457
vn 0.2751 0.1074 0.9554
vn 0.4553 -0.0957 0.8852
vn 0.2214 -0.0125 0.9751
vn 0.3165 -0.2731 0.9084
vn -0.2769 -0.1301 -0.9521
vn -0.2502 -0.1807 -0.9512
vn 0.1184 -0.1820 0.9761
vn 0.1656 -0.3265 0.9306
vn -0.3129 -0.0021 -0.9498
vn -0.2511 -0.1378 -0.9581
vn 0.0249 -0.2246 0.9741
vn 0.0578 -0.3212 0.9452
vn -0.1049 0.2793 -0.9544
vn -0.3915 0.2633 -0.8817
vn 0.1004 -0.2919 0.9512
vn 0.0403 -0.3087 0.9503
vn -0.1628 0.1494 -0.9753
vn -0.4159 0.0390 -0.9086
vn -0.3650 -0.4533 0.8132
vn -0.5613 -0.4407 0.7006
vn -0.9640 0.1715 -0.2034
vn -0.8004 0.4530 -0.3926
vn -0.8120 0.5511 -0.1921
vn -0.3108 0.9283 0.2042
vn 0.5370 0.2236 -0.8134
vn 0.5767 0.3805 -0.7229
vn 0.2018 0.9207 0.3340
vn -0.2475 0.9158 0.3162
vn -0.2779 0.4164 0.8657
vn -0.2669 0.5680 0.7786
vn -0.1744 -0.4772 -0.8613
vn -0.1227 -0.6213 -0.7739
vn 0.1362 -0.1440 -0.9801
vn 0.1402 -0.0878 -0.9862
vn 0.1021 0.1876 0.9769
vn 0.1233 0.1278 0.9841
vn -0.1766 -0.6204 -0.7641
vn -0.1501 -0.7755 -0.6133
vn 0.0431 0.2376 0.9704
vn 0.0515 0.1823 0.9819
vn -0.3939 0.6941 0.6025
vn -0.2600 0.5696 0.7798
vn 0.0960 -0.2012 -0.9748
vn 0.0915 -0.1498 -0.9845
vn -0.0240 0.2295 0.9730
vn 0.0341 0.3173 0.9477
vn 0.0170 -0.2094 -0.9777
vn 0.1124 -0.2963 -0.9485
vn -0.4878 0.7795 0.3930
vn -0.3685 0.7033 0.6079
vn -0.2921 -0.8720 -0.3928
vn -0.1928 -0.7719 -0.6059
vn 0.0427 -0.3694 -0.9283
vn 0.1574 -0.4393 -0.8845
vn 0.5914 -0.7616 -0.2650
vn 0.4072 -0.8433 -0.3507
vn 0.7190 -0.0742 -0.6911
vn 0.7343 -0.0532 -0.6767
vn 0.7634 -0.4596 -0.4539
vn 0.7845 -0.4461 -0.4307
vn 0.0522 -0.2695 -0.9616
vn 0.1610 -0.3526 -0.9218
vn -0.0657 0.2826 0.9570
vn 0.0410 0.4180 0.9075
vn -0.3768 0.7170 0.5865
vn -0.1825 0.6244 0.7595
vn 0.7352 0.1993 0.6479
vn 0.7007 0.2159 0.6801
vn -0.2477 0.4998 0.8300
vn -0.0850 0.3939 0.9152
vn -0.0512 0.3682 0.9283
vn 0.0444 0.4618 0.8859
vn -0.2282 0.5040 0.8330
vn -0.1638 0.6278 0.7609
vn -0.1209 -0.5444 -0.8300
vn 0.0113 -0.4024 -0.9154
vn -0.0189 -0.4161 -0.9091
vn 0.1198 -0.5376 -0.8346
vn 0.0459 0.2866 0.9570
vn 0.1053 0.2250 0.9687
vn -0.0132 0.2802 0.9598
vn 0.0689 0.3803 0.9223
vn -0.1459 0.5342 0.8327
vn -0.0125 0.4130 0.9107
vn -0.0029 -0.6488 -0.7609
vn 0.0896 -0.5419 -0.8356
vn 0.1114 -0.2618 -0.9587
vn 0.1531 -0.1903 -0.9697
vn 0.5712 0.6554 0.4941
vn 0.8203 0.5353 0.2016
vn 0.6810 0.7251 0.1022
vn 0.2163 0.9107 0.3520
vn 0.0037 -0.2907 -0.9568
vn 0.1372 -0.3966 -0.9077
vn -0.1054 -0.5441 -0.8324
vn -0.0102 -0.6501 -0.7598
vn -0.2046 -0.8055 -0.5562
vn -0.0029 -0.6496 -0.7603
vn -0.1904 0.6533 0.7328
vn -0.0409 0.5485 0.8352
vn 0.6378 -0.1489 -0.7557
vn 0.6529 -0.1288 -0.7464
vn 0.6714 -0.5218 -0.5263
vn 0.6976 -0.5126 -0.5007
vn 0.4473 -0.8467 -0.2882
vn 0.2938 -0.8673 -0.4018
vn 0.2155 -0.9453 -0.2449
vn 0.1205 -0.9667 -0.2258
vn 0.0825 -0.9852 -0.1505
vn 0.0664 -0.9838 -0.1663
vn 0.4339 -0.0181 0.9008
vn 0.5280 -0.1912 0.8274
vn 0.6093 0.3684 0.7022
vn 0.8714 0.0681 0.4858
vn 0.5117 0.6049 0.6101
vn 0.7807 0.5463 0.3033
vn 0.4601 0.8825 0.0974
vn 0.1033 0.9095 0.4027
vn -0.0170 0.9687 0.2476
vn -0.2722 0.9421 0.1958
vn -0.2724 0.9418 0.1968
vn -0.3465 0.9355 0.0688
vn 0.4702 0.1859 -0.8628
vn 0.4974 0.3355 -0.8000
vn 0.1944 -0.0804 -0.9776
vn 0.2892 -0.1481 -0.9457
vn -0.2306 0.1846 0.9554
vn -0.1448 0.4422 0.8852
vn -0.0999 0.1979 0.9751
vn 0.0783 0.4107 0.9084
vn 0.2511 -0.1748 -0.9521
vn 0.2816 -0.1264 -0.9512
vn 0.0984 0.1935 0.9761
vn 0.2000 0.3067 0.9306
vn 0.1583 -0.2699 -0.9498
vn 0.2449 -0.1486 -0.9581
vn 0.1821 0.1338 0.9741
vn 0.2493 0.2107 0.9452
vn -0.1895 -0.2305 -0.9544
vn -0.0323 -0.4707 -0.8817
vn 0.2026 0.2329 0.9512
vn 0.2472 0.1893 0.9503
vn -0.0479 -0.2157 -0.9753
vn 0.1742 -0.3797 -0.9086
vn 0.5750 -0.0894 0.8132
vn 0.6623 -0.2657 0.7006
vn 0.3335 -0.9206 -0.2034
vn 0.0078 -0.9197 -0.3926
vn -0.0712 -0.9788 -0.1921
vn -0.6485 -0.7334 0.2042
vn -0.4622 0.3533 -0.8134
vn -0.6179 0.3092 -0.7229
vn -0.8983 -0.2856 0.3340
vn -0.6694 -0.6723 0.3162
vn -0.2217 -0.4489 0.8657
vn -0.3585 -0.5151 0.7786
vn 0.5005 0.0876 -0.8613
vn 0.5994 0.2044 -0.7739
vn 0.0566 0.1900 -0.9802
vn 0.0059 0.1653 -0.9862
vn -0.2136 -0.0053 0.9769
vn -0.1724 0.0428 0.9841
vn 0.6256 0.1573 -0.7641
vn 0.7466 0.2578 -0.6132
vn -0.2273 -0.0815 0.9704
vn -0.1836 -0.0465 0.9819
vn -0.4042 -0.6882 0.6025
vn -0.3633 -0.5099 0.7798
vn 0.1262 0.1837 -0.9749
vn 0.0840 0.1542 -0.9845
vn -0.1868 -0.1355 0.9730
vn -0.2919 -0.1291 0.9477
vn 0.1728 0.1194 -0.9777
vn 0.2004 0.2454 -0.9485
vn -0.4312 -0.8122 0.3931
vn -0.4248 -0.6708 0.6079
vn 0.9012 0.1830 -0.3928
vn 0.7649 0.2189 -0.6058
vn 0.2986 0.2217 -0.9283
vn 0.3017 0.3559 -0.8845
vn 0.3638 0.8930 -0.2650
vn 0.5267 0.7743 -0.3507
vn -0.2952 0.6597 -0.6911
vn -0.3210 0.6626 -0.6767
vn 0.0163 0.8909 -0.4539
vn -0.0059 0.9025 -0.4307
vn 0.2073 0.1800 -0.9616
vn 0.2248 0.3157 -0.9218
vn -0.2119 -0.1982 0.9570
vn -0.3825 -0.1735 0.9075
vn -0.4325 -0.6848 0.5865
vn -0.4495 -0.4703 0.7595
vn -0.5402 0.5370 0.6479
vn -0.5373 0.4988 0.6801
vn -0.3090 -0.4644 0.8300
vn -0.2987 -0.2706 0.9152
vn -0.2932 -0.2285 0.9283
vn -0.4222 -0.1924 0.8859
vn -0.3224 -0.4496 0.8330
vn -0.4618 -0.4557 0.7609
vn 0.5319 0.1675 -0.8300
vn 0.3428 0.2110 -0.9154
vn 0.3698 0.1917 -0.9091
vn 0.4057 0.3726 -0.8346
vn -0.2711 -0.1035 0.9570
vn -0.2475 -0.0213 0.9687
vn -0.2361 -0.1515 0.9598
vn -0.3638 -0.1304 0.9223
vn -0.3897 -0.3935 0.8327
vn -0.3514 -0.2173 0.9107
vn 0.5634 0.3219 -0.7609
vn 0.4245 0.3486 -0.8356
vn 0.1710 0.2274 -0.9587
vn 0.0883 0.2278 -0.9697
vn -0.8737 0.4427 0.2016
vn -0.8532 0.1670 0.4941
vn -0.9685 0.2272 0.1022
vn -0.8968 -0.2680 0.3520
vn 0.2499 0.1485 -0.9568
vn 0.2749 0.3171 -0.9077
vn 0.5239 0.1807 -0.8324
vn 0.5681 0.3162 -0.7598
vn 0.7999 0.2255 -0.5562
vn 0.5641 0.3223 -0.7603
vn -0.4706 -0.4915 0.7328
vn -0.4545 -0.3097 0.8352
vn -0.1899 0.6268 -0.7557
vn -0.2149 0.6298 -0.7464
vn 0.1162 0.8424 -0.5263
vn 0.0951 0.8604 -0.5007
vn 0.4737 0.8221 -0.3158
vn 0.6293 0.6840 -0.3689
vn 0.7340 0.6480 -0.2033
vn 0.7542 0.5993 -0.2683
vn 0.8119 0.5641 -0.1505
vn 0.8188 0.5494 -0.1663
vn -0.2013 0.3848 0.9008
vn -0.0985 0.5529 0.8274
vn -0.6237 0.3434 0.7022
vn -0.4947 0.7206 0.4858
vn -0.8094 0.4816 0.3360
vn -0.8244 0.0600 0.5628
vn -0.9857 0.0707 0.1528
vn -0.8393 -0.4337 0.3278
vn -0.8078 -0.5707 0.1476
vn -0.6223 -0.7096 0.3304
vn -0.7257 -0.6865 0.0453
vn -0.5486 -0.8055 0.2242
vn -0.3961 0.3142 -0.8628
vn -0.5392 0.2630 -0.8000
vn -0.0276 0.2086 -0.9776
vn -0.0163 0.3245 -0.9457
vn -0.0446 -0.2920 0.9554
vn -0.3105 -0.3465 0.8852
vn -0.1215 -0.1855 0.9751
vn -0.3948 -0.1375 0.9084
vn 0.0258 0.3048 -0.9521
vn -0.0313 0.3070 -0.9512
vn -0.2168 -0.0116 0.9761
vn -0.3656 0.0198 0.9306
vn 0.1546 0.2720 -0.9498
vn 0.0062 0.2864 -0.9581
vn -0.2069 0.0908 0.9741
vn -0.3071 0.1106 0.9452
vn 0.2944 -0.0488 -0.9544
vn 0.4238 0.2074 -0.8817
vn -0.3030 0.0590 0.9512
vn -0.2875 0.1194 0.9503
vn 0.2108 0.0663 -0.9753
vn 0.2417 0.3407 -0.9086
vn -0.2101 0.5427 0.8132
vn -0.1010 0.7064 0.7006
vn 0.6305 0.7491 -0.2034
vn 0.7925 0.4666 -0.3926
vn 0.8833 0.4277 -0.1920
s 0
f 1//1 2//1 3//1
f 1//2 3//2 4//2
f 5//3 1//3 4//3
f 5//4 4//4 6//4
f 7//5 4//5 3//5
f 7//6 3//6 8//6
f 9//7 7//7 8//7
f 9//8 8//8 10//8
f 11//9 12//9 13//9
f 11//10 13//10 14//10
f 15//11 16//11 12//11
f 15//12 12//12 11//12
f 14//13 13//13 17//13
f 14//14 17//14 18//14
f 19//15 16//15 20//15
f 19//16 20//16 21//16
f 15//17 22//17 20//17
f 15//18 20//18 16//18
f 22//19 23//19 24//19
f 22//20 24//20 20//20
f 25//21 21//21 20//21
f 25//22 20//22 24//22
f 5//23 26//23 27//23
f 5//24 27//24 1//24
f 18//25 17//25 27//25
f 18//26 27//26 26//26
f 9//27 10//27 28//27
f 9//28 28//28 29//28
f 30//29 31//29 9//29
f 30//30 9//30 29//30
f 32//31 6//31 4//31
f 32//32 4//32 7//32
f 31//33 32//33 7//33
f 31//34 7//34 9//34
f 23//35 30//35 29//35
f 23//36 29//36 24//36
f 24//37 29//37 28//37
f 24//38 28//38 25//38
f 16//39 19//39 33//39
f 16//40 33//40 12//40
f 13//41 34//41 35//41
f 13//42 35//42 17//42
f 12//43 33//43 34//43
f 12//44 34//44 13//44
f 1//45 27//45 36//45
f 1//46 36//46 2//46
f 36//47 27//47 17//47
f 36//48 17//48 35//48
f 37//49 26//49 5//49
f 37//49 5//49 38//49
f 39//50 40//50 41//50
f 39//51 41//51 42//51
f 43//52 44//52 45//52
f 43//53 45//53 46//53
f 43//54 47//54 48//54
f 43//55 48//55 44//55
f 46//56 45//56 49//56
f 46//57 49//57 50//57
f 51//58 52//58 11//58
f 51//59 11//59 14//59
f 53//60 51//60 14//60
f 53//61 14//61 18//61
f 54//62 55//62 56//62
f 54//63 56//63 52//63
f 57//64 58//64 32//64
f 57//64 32//64 31//64
f 59//65 6//65 32//65
f 59//66 32//66 58//66
f 60//67 22//67 15//67
f 60//68 15//68 56//68
f 61//69 57//69 31//69
f 61//70 31//70 30//70
f 62//71 60//71 56//71
f 62//72 56//72 55//72
f 45//73 57//73 61//73
f 45//74 61//74 49//74
f 54//75 52//75 51//75
f 54//76 51//76 63//76
f 64//77 65//77 66//77
f 64//78 66//78 62//78
f 67//79 64//79 62//79
f 67//80 62//80 55//80
f 45//81 44//81 58//81
f 45//82 58//82 57//82
f 49//83 61//83 68//83
f 49//84 68//84 66//84
f 50//85 49//85 66//85
f 50//86 66//86 65//86
f 67//87 55//87 54//87
f 67//88 54//88 69//88
f 59//89 38//89 5//89
f 59//90 5//90 6//90
f 42//91 37//91 38//91
f 42//92 38//92 70//92
f 44//93 48//93 59//93
f 44//94 59//94 58//94
f 53//95 18//95 26//95
f 53//96 26//96 37//96
f 68//97 23//97 22//97
f 68//98 22//98 60//98
f 41//99 63//99 51//99
f 41//100 51//100 53//100
f 69//101 54//101 63//101
f 69//102 63//102 71//102
f 72//103 39//103 42//103
f 72//104 42//104 70//104
f 52//105 56//105 15//105
f 52//106 15//106 11//106
f 62//107 66//107 68//107
f 62//108 68//108 60//108
f 72//109 70//109 48//109
f 72//110 48//110 47//110
f 40//111 71//111 63//111
f 40//112 63//112 41//112
f 61//113 30//113 23//113
f 61//114 23//114 68//114
f 70//115 38//115 59//115
f 70//116 59//116 48//116
f 42//117 41//117 53//117
f 42//118 53//118 37//118
f 73//119 74//119 75//119
f 73//119 75//119 76//119
f 76//120 77//120 78//120
f 76//120 78//120 73//120
f 79//121 80//121 81//121
f 79//122 81//122 82//122
f 78//123 77//123 83//123
f 78//124 83//124 84//124
f 85//125 86//125 87//125
f 85//126 87//126 88//126
f 85//127 88//127 89//127
f 85//128 89//128 90//128
f 91//129 81//129 92//129
f 91//129 92//129 93//129
f 88//130 87//130 94//130
f 88//130 94//130 95//130
f 96//131 97//131 92//131
f 96//132 92//132 98//132
f 88//133 95//133 99//133
f 88//133 99//133 89//133
f 100//134 101//134 102//134
f 100//135 102//135 97//135
f 103//136 104//136 78//136
f 103//137 78//137 84//137
f 98//138 92//138 81//138
f 98//121 81//121 80//121
f 100//139 84//139 83//139
f 100//140 83//140 101//140
f 92//141 97//141 102//141
f 92//142 102//142 93//142
f 79//143 82//143 87//143
f 79//144 87//144 86//144
f 103//145 84//145 100//145
f 103//146 100//146 105//146
f 81//147 91//147 106//147
f 81//147 106//147 82//147
f 99//148 75//148 74//148
f 99//149 74//149 89//149
f 104//121 107//121 73//121
f 104//150 73//150 78//150
f 94//151 87//151 82//151
f 94//152 82//152 106//152
f 96//153 105//153 100//153
f 96//145 100//145 97//145
f 108//144 90//144 89//144
f 108//154 89//154 74//154
f 108//155 74//155 73//155
f 108//121 73//121 107//121
f 86//156 85//156 109//156
f 86//157 109//157 110//157
f 86//158 110//158 111//158
f 86//159 111//159 79//159
f 80//160 79//160 111//160
f 80//161 111//161 112//161
f 98//162 80//162 112//162
f 98//163 112//163 113//163
f 96//164 98//164 113//164
f 96//165 113//165 114//165
f 96//166 114//166 115//166
f 96//167 115//167 105//167
f 103//168 105//168 115//168
f 103//169 115//169 116//169
f 103//170 116//170 117//170
f 103//171 117//171 104//171
f 104//172 117//172 118//172
f 104//173 118//173 107//173
f 107//174 118//174 119//174
f 107//175 119//175 108//175
f 90//176 108//176 119//176
f 90//177 119//177 120//177
f 90//178 120//178 109//178
f 90//179 109//179 85//179
f 121//180 122//180 123//180
f 123//181 122//181 124//181
f 123//182 124//182 125//182
f 126//183 122//183 127//183
f 121//184 127//184 122//184
f 128//185 129//185 130//185
f 128//186 130//186 131//186
f 132//187 133//187 134//187
f 132//188 134//188 135//188
f 136//189 137//189 130//189
f 136//190 130//190 129//190
f 138//191 139//191 134//191
f 138//192 134//192 133//192
f 135//193 134//193 140//193
f 135//194 140//194 141//194
f 139//195 142//195 140//195
f 139//196 140//196 134//196
f 130//197 143//197 144//197
f 130//198 144//198 131//198
f 137//199 145//199 143//199
f 137//200 143//200 130//200
f 140//201 142//201 146//201
f 140//202 146//202 147//202
f 143//203 145//203 124//203
f 143//204 124//204 122//204
f 143//205 122//205 126//205
f 143//206 126//206 144//206
f 140//207 147//207 148//207
f 140//208 148//208 141//208
f 145//209 149//209 150//209
f 145//210 150//210 124//210
f 151//211 152//211 148//211
f 151//212 148//212 153//212
f 125//213 124//213 150//213
f 125//214 150//214 154//214
f 150//215 152//215 151//215
f 150//216 151//216 154//216
f 137//217 155//217 149//217
f 137//218 149//218 145//218
f 156//219 157//219 158//219
f 156//220 158//220 159//220
f 144//221 126//221 160//221
f 144//222 160//222 161//222
f 146//223 162//223 163//223
f 146//224 163//224 164//224
f 128//225 131//225 158//225
f 128//226 158//226 157//226
f 142//227 165//227 162//227
f 142//228 162//228 146//228
f 158//229 131//229 144//229
f 158//230 144//230 161//230
f 132//231 135//231 166//231
f 132//232 166//232 167//232
f 155//233 166//233 168//233
f 155//234 168//234 149//234
f 156//235 159//235 139//235
f 156//236 139//236 138//236
f 139//237 159//237 165//237
f 139//238 165//238 142//238
f 158//239 161//239 165//239
f 158//240 165//240 159//240
f 168//241 152//241 150//241
f 168//242 150//242 149//242
f 169//243 155//243 137//243
f 169//244 137//244 136//244
f 160//245 170//245 163//245
f 160//246 163//246 162//246
f 170//247 160//247 126//247
f 170//248 126//248 127//248
f 169//249 167//249 166//249
f 169//250 166//250 155//250
f 166//251 135//251 141//251
f 166//252 141//252 168//252
f 141//253 148//253 152//253
f 141//254 152//254 168//254
f 161//255 160//255 162//255
f 161//256 162//256 165//256
f 171//257 125//257 154//257
f 171//258 154//258 172//258
f 154//259 151//259 173//259
f 154//260 173//260 172//260
f 173//261 151//261 153//261
f 173//262 153//262 174//262
f 174//263 153//263 175//263
f 174//264 175//264 176//264
f 177//265 176//265 175//265
f 177//266 175//266 178//266
f 177//267 178//267 164//267
f 177//268 164//268 179//268
f 163//269 180//269 179//269
f 163//270 179//270 164//270
f 170//271 181//271 180//271
f 170//272 180//272 163//272
f 182//273 181//273 170//273
f 182//274 170//274 127//274
f 183//275 182//275 127//275
f 183//276 127//276 121//276
f 184//277 183//277 121//277
f 184//278 121//278 123//278
f 184//279 123//279 125//279
f 184//280 125//280 171//280
f 116//281 69//281 71//281
f 116//282 71//282 117//282
f 119//283 39//283 72//283
f 119//284 72//284 120//284
f 109//285 47//285 43//285
f 109//286 43//286 110//286
f 115//287 114//287 64//287
f 115//288 64//288 67//288
f 109//289 120//289 72//289
f 109//290 72//290 47//290
f 115//291 67//291 69//291
f 115//292 69//292 116//292
f 111//293 46//293 50//293
f 111//294 50//294 112//294
f 119//295 118//295 40//295
f 119//296 40//296 39//296
f 112//297 50//297 65//297
f 112//298 65//298 113//298
f 114//299 113//299 65//299
f 114//300 65//300 64//300
f 111//301 110//301 43//301
f 111//302 43//302 46//302
f 118//303 117//303 71//303
f 118//304 71//304 40//304
f 77//125 76//125 185//125
f 76//305 75//305 185//305
f 75//306 99//306 185//306
f 99//307 95//307 185//307
f 95//308 94//308 185//308
f 94//136 106//136 185//136
f 106//309 91//309 185//309
f 91//128 93//128 185//128
f 93//144 102//144 185//144
f 102//310 101//310 185//310
f 101//311 83//311 185//311
f 83//144 77//144 185//144
f 136//312 129//312 186//312
f 136//313 186//313 187//313
f 187//314 186//314 129//314
f 187//315 129//315 128//315
f 188//316 187//316 128//316
f 188//317 128//317 157//317
f 188//318 169//318 136//318
f 188//319 136//319 187//319
f 189//320 188//320 157//320
f 189//321 157//321 156//321
f 189//322 167//322 169//322
f 189//323 169//323 188//323
f 138//324 133//324 190//324
f 138//325 190//325 191//325
f 191//326 190//326 133//326
f 191//327 133//327 132//327
f 189//328 156//328 138//328
f 189//329 138//329 191//329
f 189//330 191//330 132//330
f 189//331 132//331 167//331
f 178//332 147//332 146//332
f 178//333 146//333 164//333
f 175//334 153//334 148//334
f 175//335 148//335 147//335
f 178//336 175//336 147//336
f 192//337 193//337 194//337
f 194//338 193//338 195//338
f 194//339 195//339 196//339
f 197//340 193//340 198//340
f 192//341 198//341 193//341
f 199//342 200//342 201//342
f 199//343 201//343 202//343
f 203//344 204//344 205//344
f 203//345 205//345 206//345
f 207//346 208//346 201//346
f 207//347 201//347 200//347
f 209//348 210//348 205//348
f 209//349 205//349 204//349
f 206//350 205//350 211//350
f 206//351 211//351 212//351
f 210//352 213//352 211//352
f 210//353 211//353 205//353
f 201//354 214//354 215//354
f 201//355 215//355 202//355
f 208//356 216//356 214//356
f 208//357 214//357 201//357
f 211//358 213//358 217//358
f 211//359 217//359 218//359
f 214//360 216//360 195//360
f 214//361 195//361 193//361
f 214//362 193//362 197//362
f 214//363 197//363 215//363
f 211//364 218//364 219//364
f 211//365 219//365 212//365
f 216//366 220//366 221//366
f 216//367 221//367 195//367
f 222//368 223//368 219//368
f 222//369 219//369 224//369
f 196//370 195//370 221//370
f 196//371 221//371 225//371
f 221//372 223//372 222//372
f 221//373 222//373 225//373
f 208//374 226//374 220//374
f 208//375 220//375 216//375
f 227//376 228//376 229//376
f 227//377 229//377 230//377
f 215//378 197//378 231//378
f 215//379 231//379 232//379
f 217//380 233//380 234//380
f 217//381 234//381 235//381
f 199//382 202//382 229//382
f 199//383 229//383 228//383
f 213//384 236//384 233//384
f 213//385 233//385 217//385
f 229//386 202//386 215//386
f 229//387 215//387 232//387
f 203//388 206//388 237//388
f 203//389 237//389 238//389
f 226//390 237//390 239//390
f 226//391 239//391 220//391
f 227//392 230//392 210//392
f 227//393 210//393 209//393
f 210//394 230//394 236//394
f 210//395 236//395 213//395
f 229//396 232//396 236//396
f 229//397 236//397 230//397
f 239//398 223//398 221//398
f 239//399 221//399 220//399
f 240//400 226//400 208//400
f 240//401 208//401 207//401
f 241//402 234//402 233//402
f 241//403 233//403 231//403
f 241//404 231//404 197//404
f 241//405 197//405 198//405
f 240//406 238//406 237//406
f 240//407 237//407 226//407
f 237//408 206//408 212//408
f 237//409 212//409 239//409
f 212//410 219//410 223//410
f 212//411 223//411 239//411
f 232//412 231//412 233//412
f 232//413 233//413 236//413
f 242//414 196//414 225//414
f 242//415 225//415 243//415
f 225//416 222//416 244//416
f 225//417 244//417 243//417
f 245//418 244//418 222//418
f 245//419 222//419 224//419
f 245//420 224//420 246//420
f 245//421 246//421 247//421
f 248//422 247//422 246//422
f 248//423 246//423 249//423
f 248//424 249//424 235//424
f 248//425 235//425 250//425
f 234//426 251//426 250//426
f 234//427 250//427 235//427
f 252//428 251//428 234//428
f 252//429 234//429 241//429
f 253//430 252//430 241//430
f 253//431 241//431 198//431
f 253//432 198//432 192//432
f 253//433 192//433 254//433
f 254//434 192//434 194//434
f 254//435 194//435 255//435
f 255//436 194//436 196//436
f 255//437 196//437 242//437
f 207//438 200//438 256//438
f 207//439 256//439 257//439
f 257//440 256//440 200//440
f 257//441 200//441 199//441
f 258//442 257//442 199//442
f 258//443 199//443 228//443
f 258//444 240//444 207//444
f 258//445 207//445 257//445
f 259//446 258//446 228//446
f 259//447 228//447 227//447
f 259//448 238//448 240//448
f 259//449 240//449 258//449
f 209//450 204//450 260//450
f 209//451 260//451 261//451
f 261//452 260//452 204//452
f 261//453 204//453 203//453
f 259//454 227//454 209//454
f 259//455 209//455 261//455
f 259//456 261//456 203//456
f 259//457 203//457 238//457
f 249//458 218//458 217//458
f 249//459 217//459 235//459
f 246//460 224//460 219//460
f 246//461 219//461 218//461
f 249//462 246//462 218//462
f 262//463 263//463 264//463
f 264//464 263//464 265//464
f 264//465 265//465 266//465
f 267//466 263//466 268//466
f 262//467 268//467 263//467
f 269//468 270//468 271//468
f 269//469 271//469 272//469
f 273//470 274//470 275//470
f 273//471 275//471 276//471
f 277//472 278//472 271//472
f 277//473 271//473 270//473
f 279//474 280//474 275//474
f 279//475 275//475 274//475
f 276//476 275//476 281//476
f 276//477 281//477 282//477
f 280//478 283//478 281//478
f 280//479 281//479 275//479
f 271//480 284//480 285//480
f 271//481 285//481 272//481
f 278//482 286//482 284//482
f 278//483 284//483 271//483
f 281//484 283//484 287//484
f 281//485 287//485 288//485
f 284//486 286//486 265//486
f 284//487 265//487 263//487
f 284//488 263//488 267//488
f 284//489 267//489 285//489
f 281//490 288//490 289//490
f 281//491 289//491 282//491
f 286//492 290//492 291//492
f 286//493 291//493 265//493
f 292//494 293//494 289//494
f 292//495 289//495 294//495
f 266//496 265//496 291//496
f 266//497 291//497 295//497
f 291//498 293//498 292//498
f 291//499 292//499 295//499
f 278//500 296//500 290//500
f 278//501 290//501 286//501
f 297//502 298//502 299//502
f 297//503 299//503 300//503
f 285//504 267//504 301//504
f 285//505 301//505 302//505
f 287//506 303//506 304//506
f 287//507 304//507 305//507
f 269//508 272//508 299//508
f 269//509 299//509 298//509
f 283//510 306//510 303//510
f 283//511 303//511 287//511
f 299//512 272//512 285//512
f 299//513 285//513 302//513
f 273//514 276//514 307//514
f 273//515 307//515 308//515
f 296//516 307//516 309//516
f 296//517 309//517 290//517
f 297//518 300//518 280//518
f 297//519 280//519 279//519
f 280//520 300//520 306//520
f 280//521 306//521 283//521
f 299//522 302//522 306//522
f 299//523 306//523 300//523
f 309//524 293//524 291//524
f 309//525 291//525 290//525
f 310//526 296//526 278//526
f 310//527 278//527 277//527
f 303//528 301//528 311//528
f 303//529 311//529 304//529
f 311//530 301//530 267//530
f 311//531 267//531 268//531
f 310//532 308//532 307//532
f 310//533 307//533 296//533
f 307//534 276//534 282//534
f 307//535 282//535 309//535
f 282//536 289//536 293//536
f 282//537 293//537 309//537
f 302//538 301//538 303//538
f 302//539 303//539 306//539
f 312//540 266//540 295//540
f 312//541 295//541 313//541
f 295//542 292//542 314//542
f 295//543 314//543 313//543
f 314//544 292//544 294//544
f 314//545 294//545 315//545
f 316//546 315//546 294//546
f 316//547 294//547 317//547
f 318//548 316//548 317//548
f 318//549 317//549 319//549
f 318//550 319//550 305//550
f 318//551 305//551 320//551
f 304//552 321//552 320//552
f 304//553 320//553 305//553
f 311//554 322//554 321//554
f 311//555 321//555 304//555
f 322//556 311//556 268//556
f 322//557 268//557 323//557
f 324//558 323//558 268//558
f 324//559 268//559 262//559
f 325//560 324//560 262//560
f 325//561 262//561 264//561
f 325//562 264//562 266//562
f 325//563 266//563 312//563
f 277//564 270//564 326//564
f 277//565 326//565 327//565
f 327//566 326//566 270//566
f 327//567 270//567 269//567
f 328//568 327//568 269//568
f 328//569 269//569 298//569
f 328//570 310//570 277//570
f 328//571 277//571 327//571
f 329//572 328//572 298//572
f 329//573 298//573 297//573
f 329//574 308//574 310//574
f 329//575 310//575 328//575
f 279//576 274//576 330//576
f 279//577 330//577 331//577
f 331//578 330//578 274//578
f 331//579 274//579 273//579
f 329//580 297//580 279//580
f 329//581 279//581 331//581
f 329//582 331//582 273//582
f 329//583 273//583 308//583
f 319//584 288//584 287//584
f 319//585 287//585 305//585
f 317//586 294//586 289//586
f 317//587 289//587 288//587
f 319//588 317//588 288//588
