# Blender 4.5.3 LTS
# www.blender.org
o EquipmentPhy
v -1.355000 -0.202500 -0.410637
v -1.355000 -0.225000 -0.375637
v -1.480000 -0.202500 -0.375637
v -1.355000 -0.209454 -0.408923
v -1.355000 -0.215723 -0.403955
v -1.393634 -0.202500 -0.408923
v -1.394659 -0.209679 -0.406894
v -1.393366 -0.215418 -0.402204
v -1.428461 -0.202500 -0.403955
v -1.426832 -0.209424 -0.402179
v -1.421140 -0.214405 -0.398855
v -1.393634 -0.223898 -0.375637
v -1.428461 -0.220704 -0.375637
v -1.355000 -0.223898 -0.386455
v -1.394882 -0.222594 -0.386742
v -1.426768 -0.219579 -0.386380
v -1.355000 -0.220704 -0.396206
v -1.393465 -0.219563 -0.395750
v -1.421140 -0.217426 -0.394156
v -1.473880 -0.202500 -0.386455
v -1.456136 -0.202500 -0.396206
v -1.473880 -0.209454 -0.375637
v -1.466632 -0.209639 -0.386804
v -1.449881 -0.209406 -0.395732
v -1.456136 -0.215723 -0.375637
v -1.449793 -0.215430 -0.386407
v -1.437922 -0.214405 -0.394156
v -1.355000 -0.225000 0.254363
v -1.355000 -0.202500 0.289363
v -1.480000 -0.202500 0.254363
v -1.355000 -0.223898 0.265180
v -1.355000 -0.220704 0.274932
v -1.393634 -0.223898 0.254363
v -1.394659 -0.222594 0.265530
v -1.393366 -0.219579 0.274458
v -1.428461 -0.220704 0.254363
v -1.426832 -0.219563 0.265133
v -1.421140 -0.217426 0.272882
v -1.393634 -0.202500 0.287649
v -1.428461 -0.202500 0.282681
v -1.355000 -0.209454 0.287649
v -1.394882 -0.209639 0.285620
v -1.426768 -0.209406 0.280930
v -1.355000 -0.215723 0.282681
v -1.393465 -0.215430 0.280905
v -1.421140 -0.214405 0.277581
v -1.473880 -0.209454 0.254363
v -1.456136 -0.215723 0.254363
v -1.473880 -0.202500 0.265180
v -1.466632 -0.209679 0.265467
v -1.449881 -0.215418 0.265105
v -1.456136 -0.202500 0.274932
v -1.449793 -0.209424 0.274476
v -1.437922 -0.214405 0.272882
v -1.355000 0.202500 -0.410637
v -1.480000 0.202500 -0.375637
v -1.355000 0.225000 -0.375637
v -1.393634 0.202500 -0.408923
v -1.428461 0.202500 -0.403955
v -1.355000 0.209454 -0.408923
v -1.394882 0.209639 -0.406894
v -1.426768 0.209406 -0.402204
v -1.355000 0.215723 -0.403955
v -1.393465 0.215430 -0.402179
v -1.421140 0.214405 -0.398855
v -1.473880 0.209454 -0.375637
v -1.456136 0.215723 -0.375637
v -1.473880 0.202500 -0.386455
v -1.466632 0.209679 -0.386742
v -1.449881 0.215418 -0.386380
v -1.456136 0.202500 -0.396206
v -1.449793 0.209424 -0.395750
v -1.437922 0.214405 -0.394156
v -1.355000 0.223898 -0.386455
v -1.355000 0.220704 -0.396206
v -1.393634 0.223898 -0.375637
v -1.394659 0.222594 -0.386804
v -1.393366 0.219579 -0.395732
v -1.428461 0.220704 -0.375637
v -1.426832 0.219563 -0.386407
v -1.421140 0.217426 -0.394156
v -1.355000 0.202500 0.289363
v -1.355000 0.225000 0.254363
v -1.480000 0.202500 0.254363
v -1.355000 0.209454 0.287649
v -1.355000 0.215723 0.282681
v -1.393634 0.202500 0.287649
v -1.394659 0.209679 0.285620
v -1.393366 0.215418 0.280930
v -1.428461 0.202500 0.282681
v -1.426832 0.209424 0.280905
v -1.421140 0.214405 0.277581
v -1.393634 0.223898 0.254363
v -1.428461 0.220704 0.254363
v -1.355000 0.223898 0.265180
v -1.394882 0.222594 0.265467
v -1.426768 0.219579 0.265105
v -1.355000 0.220704 0.274932
v -1.393465 0.219563 0.274476
v -1.421140 0.217426 0.272882
v -1.473880 0.202500 0.265180
v -1.456136 0.202500 0.274932
v -1.473880 0.209454 0.254363
v -1.466632 0.209639 0.265530
v -1.449881 0.209406 0.274458
v -1.456136 0.215723 0.254363
v -1.449793 0.215430 0.265133
v -1.437922 0.214405 0.272882
v 0.895000 -0.202500 -0.410637
v 1.020000 -0.202500 -0.375637
v 0.895000 -0.225000 -0.375637
v 0.933634 -0.202500 -0.408923
v 0.968461 -0.202500 -0.403955
v 0.895000 -0.209454 -0.408923
v 0.934882 -0.209639 -0.406894
v 0.966768 -0.209406 -0.402204
v 0.895000 -0.215723 -0.403955
v 0.933465 -0.215430 -0.402179
v 0.961140 -0.214405 -0.398855
v 1.013880 -0.209454 -0.375637
v 0.996136 -0.215723 -0.375637
v 1.013880 -0.202500 -0.386455
v 1.006632 -0.209679 -0.386742
v 0.989881 -0.215418 -0.386380
v 0.996136 -0.202500 -0.396206
v 0.989792 -0.209424 -0.395750
v 0.977922 -0.214405 -0.394156
v 0.895000 -0.223898 -0.386455
v 0.895000 -0.220704 -0.396206
v 0.933634 -0.223898 -0.375637
v 0.934659 -0.222594 -0.386804
v 0.933366 -0.219579 -0.395732
v 0.968461 -0.220704 -0.375637
v 0.966832 -0.219563 -0.386407
v 0.961140 -0.217426 -0.394156
v 0.895000 -0.202500 0.289363
v 0.895000 -0.225000 0.254363
v 1.020000 -0.202500 0.254363
v 0.895000 -0.209454 0.287649
v 0.895000 -0.215723 0.282681
v 0.933634 -0.202500 0.287649
v 0.934659 -0.209679 0.285620
v 0.933366 -0.215418 0.280930
v 0.968461 -0.202500 0.282681
v 0.966832 -0.209424 0.280905
v 0.961140 -0.214405 0.277581
v 0.933634 -0.223898 0.254363
v 0.968461 -0.220704 0.254363
v 0.895000 -0.223898 0.265180
v 0.934882 -0.222594 0.265467
v 0.966768 -0.219579 0.265105
v 0.895000 -0.220704 0.274932
v 0.933465 -0.219563 0.274476
v 0.961140 -0.217426 0.272882
v 1.013880 -0.202500 0.265180
v 0.996136 -0.202500 0.274932
v 1.013880 -0.209454 0.254363
v 1.006632 -0.209639 0.265530
v 0.989881 -0.209406 0.274458
v 0.996136 -0.215723 0.254363
v 0.989792 -0.215430 0.265133
v 0.977922 -0.214405 0.272882
v 0.895000 0.202500 -0.410637
v 0.895000 0.225000 -0.375637
v 1.020000 0.202500 -0.375637
v 0.895000 0.209454 -0.408923
v 0.895000 0.215723 -0.403955
v 0.933634 0.202500 -0.408923
v 0.934659 0.209679 -0.406894
v 0.933366 0.215418 -0.402204
v 0.968461 0.202500 -0.403955
v 0.966832 0.209424 -0.402179
v 0.961140 0.214405 -0.398855
v 0.933634 0.223898 -0.375637
v 0.968461 0.220704 -0.375637
v 0.895000 0.223898 -0.386455
v 0.934882 0.222594 -0.386742
v 0.966768 0.219579 -0.386380
v 0.895000 0.220704 -0.396206
v 0.933465 0.219563 -0.395750
v 0.961140 0.217426 -0.394156
v 1.013880 0.202500 -0.386455
v 0.996136 0.202500 -0.396206
v 1.013880 0.209454 -0.375637
v 1.006632 0.209639 -0.386804
v 0.989881 0.209406 -0.395732
v 0.996136 0.215723 -0.375637
v 0.989792 0.215430 -0.386407
v 0.977922 0.214405 -0.394156
v 0.895000 0.202500 0.289363
v 1.020000 0.202500 0.254363
v 0.895000 0.225000 0.254363
v 0.933634 0.202500 0.287649
v 0.968461 0.202500 0.282681
v 0.895000 0.209454 0.287649
v 0.934882 0.209639 0.285620
v 0.966768 0.209406 0.280930
v 0.895000 0.215723 0.282681
v 0.933465 0.215430 0.280905
v 0.961140 0.214405 0.277581
v 1.013880 0.209454 0.254363
v 0.996136 0.215723 0.254363
v 1.013880 0.202500 0.265180
v 1.006632 0.209679 0.265467
v 0.989881 0.215418 0.265105
v 0.996136 0.202500 0.274932
v 0.989792 0.209424 0.274476
v 0.977922 0.214405 0.272882
v 0.895000 0.223898 0.265180
v 0.895000 0.220704 0.274932
v 0.933634 0.223898 0.254363
v 0.934659 0.222594 0.265530
v 0.933366 0.219579 0.274458
v 0.968461 0.220704 0.254363
v 0.966832 0.219563 0.265133
v 0.961140 0.217426 0.272882
vn -0.0430 -0.2390 -0.9701
vn -0.0366 -0.6207 -0.7832
vn -0.0314 -0.8408 -0.5405
vn -0.1367 -0.2514 -0.9582
vn -0.1164 -0.6398 -0.7596
vn -0.0955 -0.8369 -0.5389
vn -0.0284 -0.9945 -0.1013
vn -0.0908 -0.9902 -0.1061
vn -0.1757 -0.9758 -0.1300
vn -0.0288 -0.9499 -0.3111
vn -0.0916 -0.9394 -0.3305
vn -0.1642 -0.9137 -0.3717
vn -0.6909 -0.6081 -0.3909
vn -0.4398 -0.4074 -0.8003
vn -0.2575 -0.2964 -0.9197
vn -0.3266 -0.9245 -0.1967
vn -0.2674 -0.8130 -0.5172
vn -0.1958 -0.6886 -0.6982
vn -0.1497 -0.8317 -0.5347
vn -0.0284 -0.9945 0.1013
vn -0.0285 -0.9499 0.3111
vn -0.0314 -0.8408 0.5405
vn -0.0908 -0.9901 0.1073
vn -0.0926 -0.9404 0.3273
vn -0.0954 -0.8377 0.5377
vn -0.0430 -0.2390 0.9701
vn -0.1368 -0.2487 0.9589
vn -0.2575 -0.2964 0.9197
vn -0.0370 -0.6207 0.7832
vn -0.1147 -0.6439 0.7564
vn -0.1954 -0.6880 0.6989
vn -0.6909 -0.6081 0.3909
vn -0.3268 -0.9249 0.1946
vn -0.1757 -0.9758 0.1300
vn -0.4390 -0.4113 0.7988
vn -0.2685 -0.8078 0.5248
vn -0.1647 -0.9134 0.3722
vn -0.1497 -0.8317 0.5347
vn -0.0430 0.2390 -0.9701
vn -0.1368 0.2487 -0.9589
vn -0.2575 0.2964 -0.9197
vn -0.0370 0.6207 -0.7832
vn -0.1147 0.6439 -0.7564
vn -0.1954 0.6880 -0.6989
vn -0.6909 0.6081 -0.3909
vn -0.3268 0.9249 -0.1946
vn -0.1757 0.9758 -0.1300
vn -0.4390 0.4113 -0.7988
vn -0.2685 0.8078 -0.5248
vn -0.1647 0.9134 -0.3722
vn -0.0284 0.9945 -0.1013
vn -0.0285 0.9499 -0.3111
vn -0.0314 0.8408 -0.5405
vn -0.0908 0.9901 -0.1073
vn -0.0926 0.9404 -0.3273
vn -0.0954 0.8377 -0.5377
vn -0.1497 0.8317 -0.5347
vn -0.0430 0.2390 0.9701
vn -0.0366 0.6207 0.7832
vn -0.0314 0.8408 0.5405
vn -0.1367 0.2514 0.9582
vn -0.1164 0.6398 0.7596
vn -0.0955 0.8369 0.5389
vn -0.0284 0.9945 0.1013
vn -0.0908 0.9902 0.1061
vn -0.1757 0.9758 0.1300
vn -0.0288 0.9499 0.3111
vn -0.0916 0.9394 0.3305
vn -0.1642 0.9137 0.3717
vn -0.6909 0.6081 0.3909
vn -0.4398 0.4074 0.8003
vn -0.2575 0.2964 0.9197
vn -0.3266 0.9245 0.1967
vn -0.2674 0.8130 0.5172
vn -0.1958 0.6886 0.6982
vn -0.1497 0.8317 0.5347
vn 0.0430 -0.2390 -0.9701
vn 0.1368 -0.2487 -0.9589
vn 0.2575 -0.2964 -0.9197
vn 0.0370 -0.6207 -0.7832
vn 0.1147 -0.6439 -0.7564
vn 0.1954 -0.6880 -0.6989
vn 0.6909 -0.6081 -0.3909
vn 0.3268 -0.9249 -0.1946
vn 0.1757 -0.9758 -0.1300
vn 0.4390 -0.4113 -0.7988
vn 0.2685 -0.8078 -0.5248
vn 0.1647 -0.9134 -0.3722
vn 0.0284 -0.9945 -0.1013
vn 0.0285 -0.9499 -0.3111
vn 0.0314 -0.8408 -0.5405
vn 0.0908 -0.9901 -0.1073
vn 0.0926 -0.9404 -0.3273
vn 0.0954 -0.8377 -0.5377
vn 0.1497 -0.8317 -0.5347
vn 0.0430 -0.2390 0.9701
vn 0.0366 -0.6207 0.7832
vn 0.0314 -0.8408 0.5405
vn 0.1367 -0.2514 0.9582
vn 0.1164 -0.6398 0.7596
vn 0.0955 -0.8369 0.5389
vn 0.0284 -0.9945 0.1013
vn 0.0908 -0.9902 0.1061
vn 0.1757 -0.9758 0.1300
vn 0.0288 -0.9499 0.3111
vn 0.0916 -0.9394 0.3305
vn 0.1642 -0.9137 0.3717
vn 0.6909 -0.6081 0.3909
vn 0.4398 -0.4074 0.8003
vn 0.2575 -0.2964 0.9197
vn 0.3266 -0.9245 0.1967
vn 0.2674 -0.8130 0.5172
vn 0.1958 -0.6886 0.6982
vn 0.1497 -0.8317 0.5347
vn 0.0430 0.2390 -0.9701
vn 0.0366 0.6207 -0.7832
vn 0.0314 0.8408 -0.5405
vn 0.1367 0.2514 -0.9582
vn 0.1164 0.6398 -0.7596
vn 0.0955 0.8369 -0.5389
vn 0.0284 0.9945 -0.1013
vn 0.0908 0.9902 -0.1061
vn 0.1757 0.9758 -0.1300
vn 0.0288 0.9499 -0.3111
vn 0.0916 0.9394 -0.3305
vn 0.1642 0.9137 -0.3717
vn 0.6909 0.6081 -0.3909
vn 0.4398 0.4074 -0.8003
vn 0.2575 0.2964 -0.9197
vn 0.3266 0.9245 -0.1967
vn 0.2674 0.8130 -0.5172
vn 0.1958 0.6886 -0.6982
vn 0.1497 0.8317 -0.5347
vn 0.0430 0.2390 0.9701
vn 0.1368 0.2487 0.9589
vn 0.2575 0.2964 0.9197
vn 0.0370 0.6207 0.7832
vn 0.1147 0.6439 0.7564
vn 0.1954 0.6880 0.6989
vn 0.6909 0.6081 0.3909
vn 0.3268 0.9249 0.1946
vn 0.1757 0.9758 0.1300
vn 0.4390 0.4113 0.7988
vn 0.2685 0.8078 0.5248
vn 0.1647 0.9134 0.3722
vn 0.0284 0.9945 0.1013
vn 0.0285 0.9499 0.3111
vn 0.0314 0.8408 0.5405
vn 0.0908 0.9901 0.1073
vn 0.0926 0.9404 0.3273
vn 0.0954 0.8377 0.5377
vn 0.1497 0.8317 0.5347
vn -0.0443 -0.0000 -0.9990
vn -0.1412 -0.0000 -0.9900
vn -0.2696 -0.0000 -0.9630
vn -0.4816 -0.0000 -0.8764
vn -0.8704 -0.0000 -0.4924
vn -0.0285 -0.9996 -0.0000
vn -0.0913 -0.9958 -0.0000
vn -0.1772 -0.9842 -0.0000
vn -0.3331 -0.9429 -0.0000
vn -0.7507 -0.6607 -0.0000
vn -0.0443 -0.0000 0.9990
vn -0.1412 -0.0000 0.9900
vn -0.2696 -0.0000 0.9630
vn -0.4816 -0.0000 0.8764
vn -0.8704 -0.0000 0.4924
vn -0.0285 0.9996 -0.0000
vn -0.0913 0.9958 -0.0000
vn -0.1772 0.9842 -0.0000
vn -0.3331 0.9429 -0.0000
vn -0.7507 0.6607 -0.0000
vn -0.0000 0.2393 -0.9710
vn -0.0000 0.6211 -0.7837
vn -0.0000 0.8412 -0.5408
vn -0.0000 0.9503 -0.3113
vn -0.0000 0.9949 -0.1013
vn -0.0000 0.2393 0.9710
vn -0.0000 0.6211 0.7837
vn -0.0000 0.8412 0.5408
vn -0.0000 0.9503 0.3113
vn -0.0000 0.9949 0.1013
vn 0.7507 0.6607 -0.0000
vn 0.3331 0.9429 -0.0000
vn 0.1772 0.9842 -0.0000
vn 0.0913 0.9958 -0.0000
vn 0.0285 0.9996 -0.0000
vn 0.0443 -0.0000 -0.9990
vn 0.1412 -0.0000 -0.9900
vn 0.2696 -0.0000 -0.9630
vn 0.4816 -0.0000 -0.8764
vn 0.8704 -0.0000 -0.4924
vn 0.0443 -0.0000 0.9990
vn 0.1412 -0.0000 0.9900
vn 0.2696 -0.0000 0.9630
vn 0.4816 -0.0000 0.8764
vn 0.8704 -0.0000 0.4924
vn 0.0285 -0.9996 -0.0000
vn 0.0913 -0.9958 -0.0000
vn 0.1772 -0.9842 -0.0000
vn 0.3331 -0.9429 -0.0000
vn 0.7507 -0.6607 -0.0000
vn -0.0000 -0.2393 -0.9710
vn -0.0000 -0.6211 -0.7837
vn -0.0000 -0.8412 -0.5408
vn -0.0000 -0.9503 -0.3113
vn -0.0000 -0.9949 -0.1013
vn -0.0000 -0.2393 0.9710
vn -0.0000 -0.6211 0.7837
vn -0.0000 -0.8412 0.5408
vn -0.0000 -0.9503 0.3113
vn -0.0000 -0.9949 0.1013
vn -0.0000 -0.0000 -1.0000
vn -1.0000 -0.0000 -0.0000
vn -0.0000 -1.0000 -0.0000
vn -0.0000 -0.0000 1.0000
vn -0.0000 1.0000 -0.0000
vn 1.0000 -0.0000 -0.0000
vn -0.0478 -0.2654 -0.9630
vn -0.0402 -0.6377 -0.7693
vn -0.0314 -0.8408 -0.5404
vn -0.1415 -0.2771 -0.9504
vn -0.1147 -0.6440 -0.7564
vn -0.0956 -0.8373 -0.5383
vn -0.0317 -0.9931 -0.1131
vn -0.0948 -0.9884 -0.1185
vn -0.0319 -0.9458 -0.3232
vn -0.0926 -0.9404 -0.3273
vn -0.1644 -0.9133 -0.3726
vn -0.6496 -0.6395 -0.4111
vn -0.4190 -0.4342 -0.7974
vn -0.2575 -0.2965 -0.9197
vn -0.3135 -0.9261 -0.2099
vn -0.2685 -0.8078 -0.5248
vn -0.1954 -0.6890 -0.6979
vn -0.0317 -0.9931 0.1131
vn -0.0318 -0.9456 0.3239
vn -0.0314 -0.8407 0.5406
vn -0.0946 -0.9884 0.1191
vn -0.0916 -0.9394 0.3305
vn -0.0956 -0.8373 0.5383
vn -0.0478 -0.2654 0.9630
vn -0.1418 -0.2759 0.9507
vn -0.2575 -0.2965 0.9196
vn -0.0404 -0.6368 0.7700
vn -0.1164 -0.6398 0.7596
vn -0.1954 -0.6890 0.6979
vn -0.6496 -0.6395 0.4111
vn -0.3130 -0.9266 0.2085
vn -0.1756 -0.9758 0.1300
vn -0.4192 -0.4365 0.7960
vn -0.2674 -0.8131 0.5171
vn -0.1644 -0.9133 0.3726
vn -0.0478 0.2654 -0.9630
vn -0.1418 0.2759 -0.9507
vn -0.2575 0.2965 -0.9196
vn -0.0404 0.6368 -0.7700
vn -0.1164 0.6398 -0.7596
vn -0.1954 0.6890 -0.6979
vn -0.6496 0.6395 -0.4111
vn -0.3130 0.9266 -0.2085
vn -0.1756 0.9758 -0.1300
vn -0.4192 0.4365 -0.7960
vn -0.2674 0.8131 -0.5171
vn -0.1644 0.9133 -0.3726
vn -0.0317 0.9931 -0.1131
vn -0.0318 0.9456 -0.3239
vn -0.0314 0.8407 -0.5406
vn -0.0946 0.9884 -0.1191
vn -0.0916 0.9394 -0.3305
vn -0.0956 0.8373 -0.5383
vn -0.0478 0.2654 0.9630
vn -0.0402 0.6377 0.7693
vn -0.0314 0.8408 0.5404
vn -0.1415 0.2771 0.9504
vn -0.1147 0.6440 0.7564
vn -0.0956 0.8373 0.5383
vn -0.0317 0.9931 0.1131
vn -0.0948 0.9884 0.1185
vn -0.0319 0.9458 0.3232
vn -0.0926 0.9404 0.3273
vn -0.1644 0.9133 0.3726
vn -0.6496 0.6395 0.4111
vn -0.4190 0.4342 0.7974
vn -0.2575 0.2965 0.9197
vn -0.3135 0.9261 0.2099
vn -0.2685 0.8078 0.5248
vn -0.1954 0.6890 0.6979
vn 0.0478 -0.2654 -0.9630
vn 0.1418 -0.2759 -0.9507
vn 0.2575 -0.2965 -0.9196
vn 0.0404 -0.6368 -0.7700
vn 0.1164 -0.6398 -0.7596
vn 0.1954 -0.6890 -0.6979
vn 0.6496 -0.6395 -0.4111
vn 0.3130 -0.9266 -0.2085
vn 0.1756 -0.9758 -0.1300
vn 0.4192 -0.4365 -0.7960
vn 0.2674 -0.8131 -0.5171
vn 0.1644 -0.9133 -0.3726
vn 0.0317 -0.9931 -0.1131
vn 0.0318 -0.9456 -0.3239
vn 0.0314 -0.8407 -0.5406
vn 0.0946 -0.9884 -0.1191
vn 0.0916 -0.9394 -0.3305
vn 0.0956 -0.8373 -0.5383
vn 0.0478 -0.2654 0.9630
vn 0.0402 -0.6377 0.7693
vn 0.0314 -0.8408 0.5404
vn 0.1415 -0.2771 0.9504
vn 0.1147 -0.6440 0.7564
vn 0.0956 -0.8373 0.5383
vn 0.0317 -0.9931 0.1131
vn 0.0948 -0.9884 0.1185
vn 0.0319 -0.9458 0.3232
vn 0.0926 -0.9404 0.3273
vn 0.1644 -0.9133 0.3726
vn 0.6496 -0.6395 0.4111
vn 0.4190 -0.4342 0.7974
vn 0.2575 -0.2965 0.9197
vn 0.3135 -0.9261 0.2099
vn 0.2685 -0.8078 0.5248
vn 0.1954 -0.6890 0.6979
vn 0.0478 0.2654 -0.9630
vn 0.0402 0.6377 -0.7693
vn 0.0314 0.8408 -0.5404
vn 0.1415 0.2771 -0.9504
vn 0.1147 0.6440 -0.7564
vn 0.0956 0.8373 -0.5383
vn 0.0317 0.9931 -0.1131
vn 0.0948 0.9884 -0.1185
vn 0.0319 0.9458 -0.3232
vn 0.0926 0.9404 -0.3273
vn 0.1644 0.9133 -0.3726
vn 0.6496 0.6395 -0.4111
vn 0.4190 0.4342 -0.7974
vn 0.2575 0.2965 -0.9197
vn 0.3135 0.9261 -0.2099
vn 0.2685 0.8078 -0.5248
vn 0.1954 0.6890 -0.6979
vn 0.0478 0.2654 0.9630
vn 0.1418 0.2759 0.9507
vn 0.2575 0.2965 0.9196
vn 0.0404 0.6368 0.7700
vn 0.1164 0.6398 0.7596
vn 0.1954 0.6890 0.6979
vn 0.6496 0.6395 0.4111
vn 0.3130 0.9266 0.2085
vn 0.1756 0.9758 0.1300
vn 0.4192 0.4365 0.7960
vn 0.2674 0.8131 0.5171
vn 0.1644 0.9133 0.3726
vn 0.0317 0.9931 0.1131
vn 0.0318 0.9456 0.3239
vn 0.0314 0.8407 0.5406
vn 0.0946 0.9884 0.1191
vn 0.0916 0.9394 0.3305
vn 0.0956 0.8373 0.5383
vt 0.137500 0.741363
vt 0.133637 0.737500
vt 0.137500 0.737500
vt 0.137500 0.744846
vt 0.133534 0.741488
vt 0.137500 0.750000
vt 0.133663 0.744677
vt 0.130154 0.737500
vt 0.130886 0.744114
vt 0.130317 0.741346
vt 0.133653 0.750000
vt 0.387500 0.991364
vt 0.383637 0.987500
vt 0.387500 0.987500
vt 0.387500 1.000000
vt 0.383534 0.991488
vt 0.387500 0.005154
vt 0.383663 0.000000
vt 0.387500 0.000000
vt 0.375000 0.987500
vt 0.375000 0.994114
vt 0.375000 0.991346
vt 0.383653 0.005317
vt 0.375000 0.000000
vt 0.383637 0.012500
vt 0.387500 0.008637
vt 0.387500 0.012500
vt 0.375000 0.012500
vt 0.383512 0.008534
vt 0.125000 0.741337
vt 0.125000 0.737500
vt 0.375000 0.005886
vt 0.125000 0.744114
vt 0.130886 0.750000
vt 0.616363 0.987500
vt 0.612500 0.991364
vt 0.612500 0.987500
vt 0.619846 0.987500
vt 0.616488 0.991466
vt 0.625000 0.987500
vt 0.619677 0.991337
vt 0.612500 1.000000
vt 0.619114 1.000000
vt 0.616346 1.000000
vt 0.625000 0.991346
vt 0.866363 0.737500
vt 0.862500 0.741363
vt 0.862500 0.737500
vt 0.875000 0.737500
vt 0.866488 0.741466
vt 0.619846 0.012500
vt 0.625000 0.008663
vt 0.625000 0.012500
vt 0.862500 0.750000
vt 0.875000 0.744114
vt 0.866346 0.750000
vt 0.619683 0.008653
vt 0.625000 0.005886
vt 0.612500 0.008637
vt 0.616363 0.012500
vt 0.612500 0.012500
vt 0.612500 0.005154
vt 0.616466 0.008512
vt 0.612500 0.000000
vt 0.616337 0.005323
vt 0.619114 0.005886
vt 0.616346 0.000000
vt 0.619114 0.000000
vt 0.133637 0.512500
vt 0.137500 0.508637
vt 0.137500 0.512500
vt 0.130154 0.512500
vt 0.133512 0.508534
vt 0.125000 0.512500
vt 0.130323 0.508663
vt 0.137500 0.505154
vt 0.130886 0.505886
vt 0.133653 0.505317
vt 0.125000 0.508654
vt 0.387500 0.241363
vt 0.383637 0.237500
vt 0.387500 0.237500
vt 0.387500 0.244846
vt 0.383534 0.241488
vt 0.387500 0.255154
vt 0.383663 0.244677
vt 0.375000 0.237500
vt 0.375000 0.244114
vt 0.375000 0.241347
vt 0.383653 0.255317
vt 0.383637 0.262500
vt 0.387500 0.258637
vt 0.387500 0.262500
vt 0.375000 0.262500
vt 0.383512 0.258534
vt 0.133663 0.500000
vt 0.137500 0.500000
vt 0.375000 0.255886
vt 0.130886 0.500000
vt 0.125000 0.505886
vt 0.862500 0.508637
vt 0.866363 0.512500
vt 0.862500 0.512500
vt 0.862500 0.500000
vt 0.866466 0.508512
vt 0.619846 0.262500
vt 0.625000 0.258663
vt 0.625000 0.262500
vt 0.875000 0.512500
vt 0.875000 0.505886
vt 0.875000 0.508653
vt 0.619683 0.258653
vt 0.625000 0.246690
vt 0.612500 0.258637
vt 0.616363 0.262500
vt 0.612500 0.262500
vt 0.612500 0.255154
vt 0.616466 0.258512
vt 0.612500 0.244846
vt 0.616337 0.255323
vt 0.619114 0.255083
vt 0.616347 0.244683
vt 0.616363 0.237500
vt 0.612500 0.241363
vt 0.612500 0.237500
vt 0.619846 0.237500
vt 0.616488 0.241466
vt 0.625000 0.237500
vt 0.619677 0.241337
vt 0.619114 0.244114
vt 0.625000 0.241346
vt 0.366363 0.737500
vt 0.362500 0.741363
vt 0.362500 0.737500
vt 0.369846 0.737500
vt 0.366488 0.741466
vt 0.380154 0.737500
vt 0.369677 0.741337
vt 0.362500 0.744846
vt 0.369114 0.744114
vt 0.366347 0.744683
vt 0.380317 0.741346
vt 0.387500 0.741363
vt 0.383637 0.737500
vt 0.387500 0.737500
vt 0.387500 0.744846
vt 0.383534 0.741488
vt 0.387500 0.755154
vt 0.383663 0.744677
vt 0.380083 0.744114
vt 0.383653 0.755317
vt 0.383637 0.762500
vt 0.387500 0.758637
vt 0.387500 0.762500
vt 0.368749 0.756249
vt 0.383512 0.758534
vt 0.370979 0.754643
vt 0.372889 0.753775
vt 0.637500 0.741363
vt 0.633637 0.737500
vt 0.637500 0.737500
vt 0.631249 0.756251
vt 0.633534 0.741488
vt 0.619846 0.762500
vt 0.629643 0.754021
vt 0.630154 0.737500
vt 0.628775 0.752111
vt 0.630317 0.741346
vt 0.619683 0.758653
vt 0.612500 0.758637
vt 0.616364 0.762500
vt 0.612500 0.762500
vt 0.612500 0.755154
vt 0.616466 0.758512
vt 0.612500 0.744846
vt 0.616337 0.755323
vt 0.619114 0.755886
vt 0.616346 0.744683
vt 0.616363 0.737500
vt 0.612500 0.741364
vt 0.612500 0.737500
vt 0.619846 0.737500
vt 0.616488 0.741466
vt 0.619677 0.741337
vt 0.619114 0.744917
vt 0.362500 0.508637
vt 0.366363 0.512500
vt 0.362500 0.512500
vt 0.362500 0.505154
vt 0.366466 0.508512
vt 0.368750 0.493750
vt 0.366337 0.505323
vt 0.369846 0.512500
vt 0.369114 0.505886
vt 0.369683 0.508653
vt 0.370994 0.495352
vt 0.387500 0.491363
vt 0.383637 0.487500
vt 0.387500 0.487500
vt 0.387500 0.494846
vt 0.383534 0.491488
vt 0.387500 0.505154
vt 0.383663 0.494677
vt 0.372889 0.496225
vt 0.383653 0.505317
vt 0.383637 0.512500
vt 0.387500 0.508637
vt 0.387500 0.512500
vt 0.380154 0.512500
vt 0.383512 0.508534
vt 0.380323 0.508663
vt 0.380083 0.505886
vt 0.633637 0.512500
vt 0.637500 0.508637
vt 0.637500 0.512500
vt 0.630154 0.512500
vt 0.633512 0.508534
vt 0.619846 0.512500
vt 0.630323 0.508663
vt 0.631250 0.493750
vt 0.628775 0.497889
vt 0.629648 0.495994
vt 0.619683 0.508654
vt 0.612500 0.508637
vt 0.616363 0.512500
vt 0.612500 0.512500
vt 0.612500 0.505154
vt 0.616466 0.508512
vt 0.612500 0.494846
vt 0.616337 0.505323
vt 0.619114 0.505083
vt 0.616346 0.494683
vt 0.616363 0.487500
vt 0.612500 0.491363
vt 0.612500 0.487500
vt 0.619846 0.487500
vt 0.616488 0.491466
vt 0.619677 0.491337
vt 0.619114 0.494114
vt 0.383663 1.000000
vt 0.375000 0.008663
vt 0.625000 1.000000
vt 0.875000 0.741337
vt 0.375000 0.258663
vt 0.866337 0.500000
s 0
f 4/1/1 6/2/1 1/3/1
f 5/4/2 7/5/2 4/1/2
f 17/6/3 8/7/3 5/4/3
f 7/5/4 9/8/4 6/2/4
f 7/5/5 11/9/5 10/10/5
f 18/11/6 11/9/6 8/7/6
f 12/12/7 14/13/7 2/14/7
f 13/15/8 15/16/8 12/12/8
f 25/17/9 16/18/9 13/19/9
f 15/16/10 17/20/10 14/13/10
f 15/16/11 19/21/11 18/22/11
f 26/23/12 19/24/12 16/18/12
f 20/25/13 22/26/13 3/27/13
f 21/28/14 23/29/14 20/25/14
f 9/8/15 24/30/15 21/31/15
f 23/29/16 25/17/16 22/26/16
f 23/29/17 27/32/17 26/23/17
f 10/10/18 27/33/18 24/30/18
f 11/9/19 19/34/19 27/33/19
f 31/35/20 33/36/20 28/37/20
f 32/38/21 34/39/21 31/35/21
f 44/40/22 35/41/22 32/38/22
f 34/39/23 36/42/23 33/36/23
f 34/39/24 38/43/24 37/44/24
f 45/45/25 38/43/25 35/41/25
f 39/46/26 41/47/26 29/48/26
f 40/49/27 42/50/27 39/46/27
f 52/51/28 43/52/28 40/53/28
f 42/50/29 44/54/29 41/47/29
f 42/50/30 46/55/30 45/56/30
f 53/57/31 46/58/31 43/52/31
f 47/59/32 49/60/32 30/61/32
f 48/62/33 50/63/33 47/59/33
f 36/64/34 51/65/34 48/62/34
f 50/63/35 52/51/35 49/60/35
f 50/63/36 54/66/36 53/57/36
f 37/67/37 54/66/37 51/65/37
f 38/68/38 46/58/38 54/66/38
f 58/69/39 60/70/39 55/71/39
f 59/72/40 61/73/40 58/69/40
f 71/74/41 62/75/41 59/72/41
f 61/73/42 63/76/42 60/70/42
f 61/73/43 65/77/43 64/78/43
f 72/79/44 65/77/44 62/75/44
f 66/80/45 68/81/45 56/82/45
f 67/83/46 69/84/46 66/80/46
f 79/85/47 70/86/47 67/83/47
f 69/84/48 71/87/48 68/81/48
f 69/84/49 73/88/49 72/89/49
f 80/90/50 73/88/50 70/86/50
f 74/91/51 76/92/51 57/93/51
f 75/94/52 77/95/52 74/91/52
f 63/76/53 78/96/53 75/97/53
f 77/95/54 79/85/54 76/92/54
f 77/95/55 81/98/55 80/90/55
f 64/78/56 81/99/56 78/96/56
f 65/77/57 73/100/57 81/99/57
f 85/101/58 87/102/58 82/103/58
f 86/104/59 88/105/59 85/101/59
f 98/106/60 89/107/60 86/108/60
f 88/105/61 90/109/61 87/102/61
f 88/105/62 92/110/62 91/111/62
f 99/112/63 92/113/63 89/107/63
f 93/114/64 95/115/64 83/116/64
f 94/117/65 96/118/65 93/114/65
f 106/119/66 97/120/66 94/117/66
f 96/118/67 98/106/67 95/115/67
f 96/118/68 100/121/68 99/112/68
f 107/122/69 100/121/69 97/120/69
f 101/123/70 103/124/70 84/125/70
f 102/126/71 104/127/71 101/123/71
f 90/128/72 105/129/72 102/126/72
f 104/127/73 106/119/73 103/124/73
f 104/127/74 108/130/74 107/122/74
f 91/131/75 108/130/75 105/129/75
f 92/113/76 100/121/76 108/130/76
f 112/132/77 114/133/77 109/134/77
f 113/135/78 115/136/78 112/132/78
f 125/137/79 116/138/79 113/135/79
f 115/136/80 117/139/80 114/133/80
f 115/136/81 119/140/81 118/141/81
f 126/142/82 119/140/82 116/138/82
f 120/143/83 122/144/83 110/145/83
f 121/146/84 123/147/84 120/143/84
f 133/148/85 124/149/85 121/146/85
f 123/147/86 125/137/86 122/144/86
f 123/147/87 127/150/87 126/142/87
f 134/151/88 127/150/88 124/149/88
f 128/152/89 130/153/89 111/154/89
f 129/155/90 131/156/90 128/152/90
f 117/139/91 132/157/91 129/155/91
f 131/156/92 133/148/92 130/153/92
f 131/156/93 135/158/93 134/151/93
f 118/141/94 135/158/94 132/157/94
f 119/140/95 127/150/95 135/158/95
f 139/159/96 141/160/96 136/161/96
f 140/162/97 142/163/97 139/159/97
f 152/164/98 143/165/98 140/162/98
f 142/163/99 144/166/99 141/160/99
f 142/163/100 146/167/100 145/168/100
f 153/169/101 146/167/101 143/165/101
f 147/170/102 149/171/102 137/172/102
f 148/173/103 150/174/103 147/170/103
f 160/175/104 151/176/104 148/173/104
f 150/174/105 152/164/105 149/171/105
f 150/174/106 154/177/106 153/169/106
f 161/178/107 154/177/107 151/176/107
f 155/179/108 157/180/108 138/181/108
f 156/182/109 158/183/109 155/179/109
f 144/166/110 159/184/110 156/182/110
f 158/183/111 160/175/111 157/180/111
f 158/183/112 162/185/112 161/178/112
f 145/168/113 162/185/113 159/184/113
f 146/167/114 154/177/114 162/185/114
f 166/186/115 168/187/115 163/188/115
f 167/189/116 169/190/116 166/186/116
f 179/191/117 170/192/117 167/189/117
f 169/190/118 171/193/118 168/187/118
f 169/190/119 173/194/119 172/195/119
f 180/196/120 173/194/120 170/192/120
f 174/197/121 176/198/121 164/199/121
f 175/200/122 177/201/122 174/197/122
f 187/202/123 178/203/123 175/200/123
f 177/201/124 179/191/124 176/198/124
f 177/201/125 181/204/125 180/196/125
f 188/205/126 181/204/126 178/203/126
f 182/206/127 184/207/127 165/208/127
f 183/209/128 185/210/128 182/206/128
f 171/193/129 186/211/129 183/209/129
f 185/210/130 187/202/130 184/207/130
f 185/210/131 189/212/131 188/205/131
f 172/195/132 189/212/132 186/211/132
f 173/194/133 181/204/133 189/212/133
f 193/213/134 195/214/134 190/215/134
f 194/216/135 196/217/135 193/213/135
f 206/218/136 197/219/136 194/216/136
f 196/217/137 198/220/137 195/214/137
f 196/217/138 200/221/138 199/222/138
f 207/223/139 200/221/139 197/219/139
f 201/224/140 203/225/140 191/226/140
f 202/227/141 204/228/141 201/224/141
f 214/229/142 205/230/142 202/227/142
f 204/228/143 206/218/143 203/225/143
f 204/228/144 208/231/144 207/223/144
f 215/232/145 208/231/145 205/230/145
f 209/233/146 211/234/146 192/235/146
f 210/236/147 212/237/147 209/233/147
f 198/220/148 213/238/148 210/236/148
f 212/237/149 214/229/149 211/234/149
f 212/237/150 216/239/150 215/232/150
f 199/222/151 216/239/151 213/238/151
f 200/221/152 208/231/152 216/239/152
f 1/3/153 58/69/153 55/71/153
f 6/2/154 59/72/154 58/69/154
f 9/8/155 71/74/155 59/72/155
f 21/28/156 68/81/156 71/87/156
f 20/25/157 56/82/157 68/81/157
f 28/37/158 12/12/158 2/14/158
f 33/36/159 13/15/159 12/12/159
f 36/64/160 25/17/160 13/19/160
f 48/62/161 22/26/161 25/17/161
f 47/59/162 3/27/162 22/26/162
f 82/103/163 39/46/163 29/48/163
f 87/102/164 40/49/164 39/46/164
f 90/128/165 52/51/165 40/53/165
f 102/126/166 49/60/166 52/51/166
f 101/123/167 30/61/167 49/60/167
f 57/93/168 93/114/168 83/116/168
f 76/92/169 94/117/169 93/114/169
f 79/85/170 106/119/170 94/117/170
f 67/83/171 103/124/171 106/119/171
f 66/80/172 84/125/172 103/124/172
f 55/71/173 166/186/173 163/188/173
f 60/70/174 167/189/174 166/186/174
f 63/76/175 179/191/175 167/189/175
f 75/94/176 176/198/176 179/191/176
f 74/91/177 164/199/177 176/198/177
f 190/215/178 85/101/178 82/103/178
f 195/214/179 86/104/179 85/101/179
f 198/220/180 98/106/180 86/108/180
f 210/236/181 95/115/181 98/106/181
f 209/233/182 83/116/182 95/115/182
f 165/208/183 201/224/183 191/226/183
f 184/207/184 202/227/184 201/224/184
f 187/202/185 214/229/185 202/227/185
f 175/200/186 211/234/186 214/229/186
f 174/197/187 192/235/187 211/234/187
f 163/188/188 112/132/188 109/134/188
f 168/187/189 113/135/189 112/132/189
f 171/193/190 125/137/190 113/135/190
f 183/209/191 122/144/191 125/137/191
f 182/206/192 110/145/192 122/144/192
f 136/161/193 193/213/193 190/215/193
f 141/160/194 194/216/194 193/213/194
f 144/166/195 206/218/195 194/216/195
f 156/182/196 203/225/196 206/218/196
f 155/179/197 191/226/197 203/225/197
f 111/154/198 147/170/198 137/172/198
f 130/153/199 148/173/199 147/170/199
f 133/148/200 160/175/200 148/173/200
f 121/146/201 157/180/201 160/175/201
f 120/143/202 138/181/202 157/180/202
f 109/134/203 4/1/203 1/3/203
f 114/133/204 5/4/204 4/1/204
f 117/139/205 17/6/205 5/4/205
f 129/155/206 14/13/206 17/20/206
f 128/152/207 2/14/207 14/13/207
f 29/48/208 139/159/208 136/161/208
f 41/47/209 140/162/209 139/159/209
f 44/40/210 152/164/210 140/162/210
f 32/38/211 149/171/211 152/164/211
f 31/35/212 137/172/212 149/171/212
f 163/188/213 1/3/213 55/71/213
f 30/61/214 56/82/214 3/27/214
f 137/172/215 2/14/215 111/154/215
f 82/103/216 136/161/216 190/215/216
f 83/116/217 164/199/217 57/93/217
f 191/226/218 110/145/218 165/208/218
f 4/1/219 7/5/219 6/2/219
f 5/4/220 8/7/220 7/5/220
f 17/6/221 18/11/221 8/7/221
f 7/5/222 10/10/222 9/8/222
f 7/5/223 8/7/223 11/9/223
f 18/11/224 19/34/224 11/9/224
f 12/12/225 15/16/225 14/13/225
f 13/15/226 16/240/226 15/16/226
f 25/17/9 26/23/9 16/18/9
f 15/16/227 18/22/227 17/20/227
f 15/16/228 16/240/228 19/21/228
f 26/23/229 27/32/229 19/24/229
f 20/25/230 23/29/230 22/26/230
f 21/28/231 24/241/231 23/29/231
f 9/8/232 10/10/232 24/30/232
f 23/29/233 26/23/233 25/17/233
f 23/29/234 24/241/234 27/32/234
f 10/10/235 11/9/235 27/33/235
f 31/35/236 34/39/236 33/36/236
f 32/38/237 35/41/237 34/39/237
f 44/40/238 45/45/238 35/41/238
f 34/39/239 37/44/239 36/42/239
f 34/39/240 35/41/240 38/43/240
f 45/45/241 46/242/241 38/43/241
f 39/46/242 42/50/242 41/47/242
f 40/49/243 43/243/243 42/50/243
f 52/51/244 53/57/244 43/52/244
f 42/50/245 45/56/245 44/54/245
f 42/50/246 43/243/246 46/55/246
f 53/57/247 54/66/247 46/58/247
f 47/59/248 50/63/248 49/60/248
f 48/62/249 51/65/249 50/63/249
f 36/64/250 37/67/250 51/65/250
f 50/63/251 53/57/251 52/51/251
f 50/63/252 51/65/252 54/66/252
f 37/67/253 38/68/253 54/66/253
f 58/69/254 61/73/254 60/70/254
f 59/72/255 62/75/255 61/73/255
f 71/74/256 72/79/256 62/75/256
f 61/73/257 64/78/257 63/76/257
f 61/73/258 62/75/258 65/77/258
f 72/79/259 73/100/259 65/77/259
f 66/80/260 69/84/260 68/81/260
f 67/83/261 70/86/261 69/84/261
f 79/85/262 80/90/262 70/86/262
f 69/84/263 72/89/263 71/87/263
f 69/84/264 70/86/264 73/88/264
f 80/90/265 81/98/265 73/88/265
f 74/91/266 77/95/266 76/92/266
f 75/94/267 78/244/267 77/95/267
f 63/76/268 64/78/268 78/96/268
f 77/95/269 80/90/269 79/85/269
f 77/95/270 78/244/270 81/98/270
f 64/78/271 65/77/271 81/99/271
f 85/101/272 88/105/272 87/102/272
f 86/104/273 89/245/273 88/105/273
f 98/106/274 99/112/274 89/107/274
f 88/105/275 91/111/275 90/109/275
f 88/105/276 89/245/276 92/110/276
f 99/112/277 100/121/277 92/113/277
f 93/114/278 96/118/278 95/115/278
f 94/117/279 97/120/279 96/118/279
f 106/119/66 107/122/66 97/120/66
f 96/118/280 99/112/280 98/106/280
f 96/118/281 97/120/281 100/121/281
f 107/122/282 108/130/282 100/121/282
f 101/123/283 104/127/283 103/124/283
f 102/126/284 105/129/284 104/127/284
f 90/128/285 91/131/285 105/129/285
f 104/127/286 107/122/286 106/119/286
f 104/127/287 105/129/287 108/130/287
f 91/131/288 92/113/288 108/130/288
f 112/132/289 115/136/289 114/133/289
f 113/135/290 116/138/290 115/136/290
f 125/137/291 126/142/291 116/138/291
f 115/136/292 118/141/292 117/139/292
f 115/136/293 116/138/293 119/140/293
f 126/142/294 127/150/294 119/140/294
f 120/143/295 123/147/295 122/144/295
f 121/146/296 124/149/296 123/147/296
f 133/148/297 134/151/297 124/149/297
f 123/147/298 126/142/298 125/137/298
f 123/147/299 124/149/299 127/150/299
f 134/151/300 135/158/300 127/150/300
f 128/152/301 131/156/301 130/153/301
f 129/155/302 132/157/302 131/156/302
f 117/139/303 118/141/303 132/157/303
f 131/156/304 134/151/304 133/148/304
f 131/156/305 132/157/305 135/158/305
f 118/141/306 119/140/306 135/158/306
f 139/159/307 142/163/307 141/160/307
f 140/162/308 143/165/308 142/163/308
f 152/164/309 153/169/309 143/165/309
f 142/163/310 145/168/310 144/166/310
f 142/163/311 143/165/311 146/167/311
f 153/169/312 154/177/312 146/167/312
f 147/170/313 150/174/313 149/171/313
f 148/173/314 151/176/314 150/174/314
f 160/175/104 161/178/104 151/176/104
f 150/174/315 153/169/315 152/164/315
f 150/174/316 151/176/316 154/177/316
f 161/178/317 162/185/317 154/177/317
f 155/179/318 158/183/318 157/180/318
f 156/182/319 159/184/319 158/183/319
f 144/166/320 145/168/320 159/184/320
f 158/183/321 161/178/321 160/175/321
f 158/183/322 159/184/322 162/185/322
f 145/168/323 146/167/323 162/185/323
f 166/186/324 169/190/324 168/187/324
f 167/189/325 170/192/325 169/190/325
f 179/191/326 180/196/326 170/192/326
f 169/190/327 172/195/327 171/193/327
f 169/190/328 170/192/328 173/194/328
f 180/196/329 181/204/329 173/194/329
f 174/197/330 177/201/330 176/198/330
f 175/200/331 178/203/331 177/201/331
f 187/202/123 188/205/123 178/203/123
f 177/201/332 180/196/332 179/191/332
f 177/201/333 178/203/333 181/204/333
f 188/205/334 189/212/334 181/204/334
f 182/206/335 185/210/335 184/207/335
f 183/209/336 186/211/336 185/210/336
f 171/193/337 172/195/337 186/211/337
f 185/210/338 188/205/338 187/202/338
f 185/210/339 186/211/339 189/212/339
f 172/195/340 173/194/340 189/212/340
f 193/213/341 196/217/341 195/214/341
f 194/216/342 197/219/342 196/217/342
f 206/218/343 207/223/343 197/219/343
f 196/217/344 199/222/344 198/220/344
f 196/217/345 197/219/345 200/221/345
f 207/223/346 208/231/346 200/221/346
f 201/224/347 204/228/347 203/225/347
f 202/227/348 205/230/348 204/228/348
f 214/229/349 215/232/349 205/230/349
f 204/228/350 207/223/350 206/218/350
f 204/228/351 205/230/351 208/231/351
f 215/232/352 216/239/352 208/231/352
f 209/233/353 212/237/353 211/234/353
f 210/236/354 213/238/354 212/237/354
f 198/220/355 199/222/355 213/238/355
f 212/237/356 215/232/356 214/229/356
f 212/237/357 213/238/357 216/239/357
f 199/222/358 200/221/358 216/239/358
f 1/3/153 6/2/153 58/69/153
f 6/2/154 9/8/154 59/72/154
f 9/8/155 21/31/155 71/74/155
f 21/28/156 20/25/156 68/81/156
f 20/25/157 3/27/157 56/82/157
f 28/37/158 33/36/158 12/12/158
f 33/36/159 36/42/159 13/15/159
f 36/64/160 48/62/160 25/17/160
f 48/62/161 47/59/161 22/26/161
f 47/59/162 30/61/162 3/27/162
f 82/103/163 87/102/163 39/46/163
f 87/102/164 90/109/164 40/49/164
f 90/128/165 102/126/165 52/51/165
f 102/126/166 101/123/166 49/60/166
f 101/123/167 84/125/167 30/61/167
f 57/93/168 76/92/168 93/114/168
f 76/92/169 79/85/169 94/117/169
f 79/85/170 67/83/170 106/119/170
f 67/83/171 66/80/171 103/124/171
f 66/80/172 56/82/172 84/125/172
f 55/71/173 60/70/173 166/186/173
f 60/70/174 63/76/174 167/189/174
f 63/76/175 75/97/175 179/191/175
f 75/94/176 74/91/176 176/198/176
f 74/91/177 57/93/177 164/199/177
f 190/215/178 195/214/178 85/101/178
f 195/214/179 198/220/179 86/104/179
f 198/220/180 210/236/180 98/106/180
f 210/236/181 209/233/181 95/115/181
f 209/233/182 192/235/182 83/116/182
f 165/208/183 184/207/183 201/224/183
f 184/207/184 187/202/184 202/227/184
f 187/202/185 175/200/185 214/229/185
f 175/200/186 174/197/186 211/234/186
f 174/197/187 164/199/187 192/235/187
f 163/188/188 168/187/188 112/132/188
f 168/187/189 171/193/189 113/135/189
f 171/193/190 183/209/190 125/137/190
f 183/209/191 182/206/191 122/144/191
f 182/206/192 165/208/192 110/145/192
f 136/161/193 141/160/193 193/213/193
f 141/160/194 144/166/194 194/216/194
f 144/166/195 156/182/195 206/218/195
f 156/182/196 155/179/196 203/225/196
f 155/179/197 138/181/197 191/226/197
f 111/154/198 130/153/198 147/170/198
f 130/153/199 133/148/199 148/173/199
f 133/148/200 121/146/200 160/175/200
f 121/146/201 120/143/201 157/180/201
f 120/143/202 110/145/202 138/181/202
f 109/134/203 114/133/203 4/1/203
f 114/133/204 117/139/204 5/4/204
f 117/139/205 129/155/205 17/6/205
f 129/155/206 128/152/206 14/13/206
f 128/152/207 111/154/207 2/14/207
f 29/48/208 41/47/208 139/159/208
f 41/47/209 44/54/209 140/162/209
f 44/40/210 32/38/210 152/164/210
f 32/38/211 31/35/211 149/171/211
f 31/35/212 28/37/212 137/172/212
f 163/188/213 109/134/213 1/3/213
f 30/61/214 84/125/214 56/82/214
f 137/172/215 28/37/215 2/14/215
f 82/103/216 29/48/216 136/161/216
f 83/116/217 192/235/217 164/199/217
f 191/226/218 138/181/218 110/145/218
