# Blender 4.5.3 LTS
# www.blender.org
g bluerov2_cube_phy_Mesh
v -0.160521 -0.144697 -0.107332
v -0.160521 -0.182641 -0.082990
v -0.202614 -0.144697 -0.082990
v -0.160521 -0.159218 -0.105479
v -0.160521 -0.171528 -0.100203
v -0.176629 -0.144697 -0.105479
v -0.177033 -0.159582 -0.103243
v -0.176195 -0.169598 -0.098965
v -0.184823 -0.166604 -0.097044
v -0.176629 -0.179753 -0.082990
v -0.190285 -0.171528 -0.082990
v -0.160521 -0.179753 -0.092306
v -0.177033 -0.176267 -0.092539
v -0.188145 -0.169598 -0.092055
v -0.199410 -0.144697 -0.092306
v -0.190285 -0.144697 -0.100203
v -0.199410 -0.159218 -0.082990
v -0.195543 -0.159582 -0.092539
v -0.188145 -0.158826 -0.098965
v -0.160521 -0.182641 0.102665
v -0.160521 -0.144697 0.127008
v -0.202614 -0.144697 0.102665
v -0.160521 -0.179753 0.111981
v -0.160521 -0.171528 0.119878
v -0.176629 -0.179753 0.102665
v -0.177033 -0.176267 0.112214
v -0.176195 -0.169598 0.118640
v -0.184823 -0.166604 0.116719
v -0.176629 -0.144697 0.125155
v -0.190285 -0.144697 0.119878
v -0.160521 -0.159218 0.125155
v -0.177033 -0.159582 0.122918
v -0.188145 -0.158826 0.118640
v -0.199410 -0.159218 0.102665
v -0.190285 -0.171528 0.102665
v -0.199410 -0.144697 0.111981
v -0.195543 -0.159582 0.112214
v -0.188145 -0.169598 0.111730
v -0.160521 0.144697 -0.107332
v -0.202614 0.144697 -0.082990
v -0.160521 0.182641 -0.082990
v -0.176629 0.144697 -0.105479
v -0.190285 0.144697 -0.100203
v -0.160521 0.159218 -0.105479
v -0.177033 0.159582 -0.103243
v -0.188145 0.158826 -0.098965
v -0.184823 0.166604 -0.097044
v -0.199410 0.159218 -0.082990
v -0.190285 0.171528 -0.082990
v -0.199410 0.144697 -0.092306
v -0.195543 0.159582 -0.092539
v -0.188145 0.169598 -0.092055
v -0.160521 0.179753 -0.092306
v -0.160521 0.171528 -0.100203
v -0.176629 0.179753 -0.082990
v -0.177033 0.176267 -0.092539
v -0.176195 0.169598 -0.098965
v -0.160521 0.144697 0.127008
v -0.160521 0.182641 0.102665
v -0.202614 0.144697 0.102665
v -0.160521 0.159218 0.125155
v -0.160521 0.171528 0.119878
v -0.176629 0.144697 0.125155
v -0.177033 0.159582 0.122918
v -0.176195 0.169598 0.118640
v -0.184823 0.166604 0.116719
v -0.176629 0.179753 0.102665
v -0.190285 0.171528 0.102665
v -0.160521 0.179753 0.111981
v -0.177033 0.176267 0.112214
v -0.188145 0.169598 0.111730
v -0.199410 0.144697 0.111981
v -0.190285 0.144697 0.119878
v -0.199410 0.159218 0.102665
v -0.195543 0.159582 0.112214
v -0.188145 0.158826 0.118640
v 0.160521 -0.144697 -0.107332
v 0.202614 -0.144697 -0.082990
v 0.160521 -0.182641 -0.082990
v 0.176629 -0.144697 -0.105479
v 0.190285 -0.144697 -0.100203
v 0.160521 -0.159218 -0.105479
v 0.177033 -0.159582 -0.103243
v 0.188145 -0.158826 -0.098965
v 0.184823 -0.166604 -0.097044
v 0.199410 -0.159218 -0.082990
v 0.190285 -0.171528 -0.082990
v 0.199410 -0.144697 -0.092306
v 0.195543 -0.159582 -0.092539
v 0.188145 -0.169598 -0.092055
v 0.160521 -0.179753 -0.092306
v 0.160521 -0.171528 -0.100203
v 0.176629 -0.179753 -0.082990
v 0.177033 -0.176267 -0.092539
v 0.176195 -0.169598 -0.098965
v 0.160521 -0.144697 0.127008
v 0.160521 -0.182641 0.102665
v 0.202614 -0.144697 0.102665
v 0.160521 -0.159218 0.125155
v 0.160521 -0.171528 0.119878
v 0.176629 -0.144697 0.125155
v 0.177033 -0.159582 0.122918
v 0.176195 -0.169598 0.118640
v 0.184823 -0.166604 0.116719
v 0.176629 -0.179753 0.102665
v 0.190285 -0.171528 0.102665
v 0.160521 -0.179753 0.111981
v 0.177033 -0.176267 0.112214
v 0.188145 -0.169598 0.111730
v 0.199410 -0.144697 0.111981
v 0.190285 -0.144697 0.119878
v 0.199410 -0.159218 0.102665
v 0.195543 -0.159582 0.112214
v 0.188145 -0.158826 0.118640
v 0.160521 0.144697 -0.107332
v 0.160521 0.182641 -0.082990
v 0.202614 0.144697 -0.082990
v 0.160521 0.159218 -0.105479
v 0.160521 0.171528 -0.100203
v 0.176629 0.144697 -0.105479
v 0.177033 0.159582 -0.103243
v 0.176195 0.169598 -0.098965
v 0.184823 0.166604 -0.097044
v 0.176629 0.179753 -0.082990
v 0.190285 0.171528 -0.082990
v 0.160521 0.179753 -0.092306
v 0.177033 0.176267 -0.092539
v 0.188145 0.169598 -0.092055
v 0.199410 0.144697 -0.092306
v 0.190285 0.144697 -0.100203
v 0.199410 0.159218 -0.082990
v 0.195543 0.159582 -0.092539
v 0.188145 0.158826 -0.098965
v 0.160521 0.144697 0.127008
v 0.202614 0.144697 0.102665
v 0.160521 0.182641 0.102665
v 0.176629 0.144697 0.125155
v 0.190285 0.144697 0.119878
v 0.160521 0.159218 0.125155
v 0.177033 0.159582 0.122918
v 0.188145 0.158826 0.118640
v 0.184823 0.166604 0.116719
v 0.199410 0.159218 0.102665
v 0.190285 0.171528 0.102665
v 0.199410 0.144697 0.111981
v 0.195543 0.159582 0.112214
v 0.188145 0.169598 0.111730
v 0.160521 0.179753 0.111981
v 0.160521 0.171528 0.119878
v 0.176629 0.179753 0.102665
v 0.177033 0.176267 0.112214
v 0.176195 0.169598 0.118640
v 0.000000 0.144697 -0.107332
v 0.000000 0.159218 -0.105479
v 0.000000 0.171528 -0.100203
v 0.000000 0.179753 -0.092306
v 0.000000 0.182641 -0.082990
v 0.000000 0.144697 0.127008
v 0.000000 0.159218 0.125155
v 0.000000 0.171528 0.119878
v 0.000000 0.179753 0.111981
v 0.000000 0.182641 0.102665
v 0.000000 -0.144697 -0.107332
v 0.000000 -0.159218 -0.105479
v 0.000000 -0.171528 -0.100203
v 0.000000 -0.179753 -0.092306
v 0.000000 -0.182641 -0.082990
v 0.000000 -0.144697 0.127008
v 0.000000 -0.159218 0.125155
v 0.000000 -0.171528 0.119878
v 0.000000 -0.179753 0.111981
v 0.000000 -0.182641 0.102665
v -0.160521 0.000000 -0.107332
v -0.176629 0.000000 -0.105479
v -0.190285 0.000000 -0.100203
v -0.199410 0.000000 -0.092306
v -0.202614 0.000000 -0.082990
v -0.160521 0.000000 0.127008
v -0.176629 0.000000 0.125155
v -0.190285 0.000000 0.119878
v -0.199410 0.000000 0.111981
v -0.202614 0.000000 0.102665
v 0.160521 0.000000 -0.107332
v 0.176629 0.000000 -0.105479
v 0.190285 0.000000 -0.100203
v 0.199410 0.000000 -0.092306
v 0.202614 0.000000 -0.082990
v 0.160521 0.000000 0.127008
v 0.176629 0.000000 0.125155
v 0.190285 0.000000 0.119878
v 0.199410 0.000000 0.111981
v 0.202614 0.000000 0.102665
v 0.000000 0.000000 0.127008
v 0.000000 0.000000 -0.107332
v -0.176629 0.072349 -0.105479
v -0.190285 0.072349 -0.100203
v -0.199410 0.072349 -0.092306
v -0.202614 0.072349 -0.082990
v -0.160521 0.072349 0.127008
v 0.160521 0.072349 -0.107332
v 0.176629 0.072349 0.125155
v 0.190285 0.072349 0.119878
v 0.199410 0.072349 0.111981
v 0.202614 0.072349 0.102665
v -0.160521 0.072349 -0.107332
v -0.176629 0.072349 0.125155
v -0.190285 0.072349 0.119878
v -0.199410 0.072349 0.111981
v -0.202614 0.072349 0.102665
v 0.176629 0.072349 -0.105479
v 0.190285 0.072349 -0.100203
v 0.199410 0.072349 -0.092306
v 0.202614 0.072349 -0.082990
v 0.160521 0.072349 0.127008
v 0.000000 0.072349 0.127008
v 0.000000 0.072349 -0.107332
v -0.160521 -0.072349 -0.107332
v -0.176629 -0.072349 0.125155
v -0.190285 -0.072349 0.119878
v -0.199410 -0.072349 0.111981
v -0.202614 -0.072349 0.102665
v 0.176629 -0.072349 -0.105479
v 0.190285 -0.072349 -0.100203
v 0.199410 -0.072349 -0.092306
v 0.202614 -0.072349 -0.082990
v 0.160521 -0.072349 0.127008
v 0.000000 -0.072349 0.127008
v 0.000000 -0.072349 -0.107332
v -0.176629 -0.072349 -0.105479
v -0.190285 -0.072349 -0.100203
v -0.199410 -0.072349 -0.092306
v -0.202614 -0.072349 -0.082990
v -0.160521 -0.072349 0.127008
v 0.160521 -0.072349 -0.107332
v 0.176629 -0.072349 0.125155
v 0.190285 -0.072349 0.119878
v 0.199410 -0.072349 0.111981
v 0.202614 -0.072349 0.102665
v -0.080260 0.144697 -0.107332
v -0.080260 0.159218 0.125155
v -0.080260 0.171528 0.119878
v -0.080260 0.179753 0.111981
v -0.080260 0.182641 0.102665
v -0.080260 -0.159218 -0.105479
v -0.080260 -0.171528 -0.100203
v -0.080260 -0.179753 -0.092306
v -0.080260 -0.182641 -0.082990
v -0.080260 -0.144697 0.127008
v -0.080260 0.159218 -0.105479
v -0.080260 0.171528 -0.100203
v -0.080260 0.179753 -0.092306
v -0.080260 0.182641 -0.082990
v -0.080260 0.144697 0.127008
v -0.080260 -0.144697 -0.107332
v -0.080260 -0.159218 0.125155
v -0.080260 -0.171528 0.119878
v -0.080260 -0.179753 0.111981
v -0.080260 -0.182641 0.102665
v -0.080260 0.000000 -0.107332
v -0.080260 0.000000 0.127008
v -0.080260 0.072349 0.127008
v -0.080260 0.072349 -0.107332
v -0.080260 -0.072349 -0.107332
v -0.080260 -0.072349 0.127008
v 0.080260 0.159218 -0.105479
v 0.080260 0.171528 -0.100203
v 0.080260 0.179753 -0.092306
v 0.080260 0.182641 -0.082990
v 0.080260 0.144697 0.127008
v 0.080260 -0.144697 -0.107332
v 0.080260 -0.159218 0.125155
v 0.080260 -0.171528 0.119878
v 0.080260 -0.179753 0.111981
v 0.080260 -0.182641 0.102665
v 0.080260 0.144697 -0.107332
v 0.080260 0.159218 0.125155
v 0.080260 0.171528 0.119878
v 0.080260 0.179753 0.111981
v 0.080260 0.182641 0.102665
v 0.080260 -0.159218 -0.105479
v 0.080260 -0.171528 -0.100203
v 0.080260 -0.179753 -0.092306
v 0.080260 -0.182641 -0.082990
v 0.080260 -0.144697 0.127008
v 0.080260 0.000000 0.127008
v 0.080260 0.000000 -0.107332
v 0.080260 0.072349 -0.107332
v 0.080260 0.072349 0.127008
v 0.080260 -0.072349 0.127008
v 0.080260 -0.072349 -0.107332
v -0.160521 -0.182641 0.009838
v -0.176629 -0.179753 0.009838
v -0.190285 -0.171528 0.009838
v -0.199410 -0.159218 0.009838
v -0.202614 -0.144697 0.009838
v -0.160521 0.182641 0.009838
v -0.176629 0.179753 0.009838
v -0.190285 0.171528 0.009838
v -0.199410 0.159218 0.009838
v -0.202614 0.144697 0.009838
v 0.202614 0.144697 0.009838
v 0.199410 0.159218 0.009838
v 0.190285 0.171528 0.009838
v 0.176629 0.179753 0.009838
v 0.160521 0.182641 0.009838
v 0.160521 -0.182641 0.009838
v 0.176629 -0.179753 0.009838
v 0.190285 -0.171528 0.009838
v 0.199410 -0.159218 0.009838
v 0.202614 -0.144697 0.009838
v 0.000000 0.182641 0.009838
v 0.000000 -0.182641 0.009838
v 0.202614 0.000000 0.009838
v -0.202614 0.000000 0.009838
v 0.202614 0.072349 0.009838
v -0.202614 0.072349 0.009838
v -0.202614 -0.072349 0.009838
v 0.202614 -0.072349 0.009838
v -0.080260 0.182641 0.009838
v -0.080260 -0.182641 0.009838
v 0.080260 -0.182641 0.009838
v 0.080260 0.182641 0.009838
vn -0.1134 -0.1258 -0.9856
vn -0.1150 -0.3914 -0.9130
vn -0.3574 -0.1293 -0.9250
vn -0.3561 -0.3645 -0.8604
vn -0.1688 -0.9414 -0.2919
vn -0.4954 -0.8225 -0.2793
vn -0.1348 -0.6863 -0.7148
vn -0.3693 -0.6203 -0.6920
vn -0.9257 -0.2043 -0.3184
vn -0.6464 -0.1562 -0.7469
vn -0.7689 -0.5700 -0.2897
vn -0.5838 -0.4634 -0.6667
vn -0.1688 -0.9414 0.2919
vn -0.1348 -0.6863 0.7148
vn -0.4954 -0.8225 0.2793
vn -0.4100 -0.6355 0.6542
vn -0.1134 -0.1258 0.9856
vn -0.3574 -0.1293 0.9250
vn -0.1150 -0.3914 0.9130
vn -0.3279 -0.3941 0.8586
vn -0.9257 -0.2043 0.3184
vn -0.7689 -0.5700 0.2897
vn -0.6464 -0.1562 0.7469
vn -0.5709 -0.4183 0.7065
vn -0.1134 0.1258 -0.9856
vn -0.3574 0.1293 -0.9250
vn -0.1150 0.3914 -0.9130
vn -0.3279 0.3941 -0.8586
vn -0.9257 0.2043 -0.3184
vn -0.7689 0.5700 -0.2897
vn -0.6464 0.1562 -0.7469
vn -0.5709 0.4183 -0.7065
vn -0.1688 0.9414 -0.2919
vn -0.1348 0.6863 -0.7148
vn -0.4954 0.8225 -0.2793
vn -0.4100 0.6355 -0.6542
vn -0.1134 0.1258 0.9856
vn -0.1150 0.3914 0.9130
vn -0.3574 0.1293 0.9250
vn -0.3561 0.3645 0.8604
vn -0.1688 0.9414 0.2919
vn -0.4954 0.8225 0.2793
vn -0.1348 0.6863 0.7148
vn -0.3693 0.6203 0.6920
vn -0.9257 0.2043 0.3184
vn -0.6464 0.1562 0.7469
vn -0.7689 0.5700 0.2897
vn -0.5838 0.4634 0.6667
vn 0.1134 -0.1258 -0.9856
vn 0.3574 -0.1293 -0.9250
vn 0.1150 -0.3914 -0.9130
vn 0.3279 -0.3941 -0.8586
vn 0.9257 -0.2043 -0.3184
vn 0.7689 -0.5700 -0.2897
vn 0.6464 -0.1562 -0.7469
vn 0.5709 -0.4183 -0.7065
vn 0.1688 -0.9414 -0.2919
vn 0.1348 -0.6863 -0.7148
vn 0.4954 -0.8225 -0.2793
vn 0.4100 -0.6355 -0.6542
vn 0.1134 -0.1258 0.9856
vn 0.1150 -0.3914 0.9130
vn 0.3574 -0.1293 0.9250
vn 0.3561 -0.3645 0.8604
vn 0.1688 -0.9414 0.2919
vn 0.4954 -0.8225 0.2793
vn 0.1348 -0.6863 0.7148
vn 0.3693 -0.6203 0.6920
vn 0.9257 -0.2043 0.3184
vn 0.6464 -0.1562 0.7469
vn 0.7689 -0.5700 0.2897
vn 0.5838 -0.4634 0.6667
vn 0.1134 0.1258 -0.9856
vn 0.1150 0.3914 -0.9130
vn 0.3574 0.1293 -0.9250
vn 0.3561 0.3645 -0.8604
vn 0.1688 0.9414 -0.2919
vn 0.4954 0.8225 -0.2793
vn 0.1348 0.6863 -0.7148
vn 0.3693 0.6203 -0.6920
vn 0.9257 0.2043 -0.3184
vn 0.6464 0.1562 -0.7469
vn 0.7689 0.5700 -0.2897
vn 0.5838 0.4634 -0.6667
vn 0.1134 0.1258 0.9856
vn 0.3574 0.1293 0.9250
vn 0.1150 0.3914 0.9130
vn 0.3279 0.3941 0.8586
vn 0.9257 0.2043 0.3184
vn 0.7689 0.5700 0.2897
vn 0.6464 0.1562 0.7469
vn 0.5709 0.4183 0.7065
vn 0.1688 0.9414 0.2919
vn 0.1348 0.6863 0.7148
vn 0.4954 0.8225 0.2793
vn 0.4100 0.6355 0.6542
vn -0.1143 -0.0000 -0.9934
vn -0.3604 -0.0000 -0.9328
vn -0.6544 -0.0000 -0.7561
vn -0.9456 -0.0000 -0.3253
vn -0.1765 -0.9843 -0.0000
vn -0.5160 -0.8566 -0.0000
vn -0.8034 -0.5955 -0.0000
vn -0.9765 -0.2155 -0.0000
vn -0.1143 -0.0000 0.9934
vn -0.3604 -0.0000 0.9328
vn -0.6544 -0.0000 0.7561
vn -0.9456 -0.0000 0.3253
vn -0.1765 0.9843 -0.0000
vn -0.5160 0.8566 -0.0000
vn -0.8034 0.5955 -0.0000
vn -0.9765 0.2155 -0.0000
vn -0.0000 0.1266 -0.9920
vn -0.0000 0.3940 -0.9191
vn -0.0000 0.6926 -0.7213
vn -0.0000 0.9551 -0.2961
vn -0.0000 0.1266 0.9920
vn -0.0000 0.3940 0.9191
vn -0.0000 0.6926 0.7213
vn -0.0000 0.9551 0.2961
vn 0.9765 0.2155 -0.0000
vn 0.8034 0.5955 -0.0000
vn 0.5160 0.8566 -0.0000
vn 0.1765 0.9843 -0.0000
vn 0.1143 -0.0000 -0.9934
vn 0.3604 -0.0000 -0.9328
vn 0.6544 -0.0000 -0.7561
vn 0.9456 -0.0000 -0.3253
vn 0.1143 -0.0000 0.9934
vn 0.3604 -0.0000 0.9328
vn 0.6544 -0.0000 0.7561
vn 0.9456 -0.0000 0.3253
vn 0.1765 -0.9843 -0.0000
vn 0.5160 -0.8566 -0.0000
vn 0.8034 -0.5955 -0.0000
vn 0.9765 -0.2155 -0.0000
vn -0.0000 -0.1266 -0.9920
vn -0.0000 -0.3940 -0.9191
vn -0.0000 -0.6926 -0.7213
vn -0.0000 -0.9551 -0.2961
vn -0.0000 -0.1266 0.9920
vn -0.0000 -0.3940 0.9191
vn -0.0000 -0.6926 0.7213
vn -0.0000 -0.9551 0.2961
vn -0.0000 -0.0000 -1.0000
vn -1.0000 -0.0000 -0.0000
vn -0.0000 -1.0000 -0.0000
vn -0.0000 -0.0000 1.0000
vn -0.0000 1.0000 -0.0000
vn 1.0000 -0.0000 -0.0000
vn -0.1297 -0.1439 -0.9811
vn -0.1209 -0.3984 -0.9092
vn -0.3640 -0.1359 -0.9214
vn -0.3279 -0.3941 -0.8586
vn -0.1906 -0.9247 -0.3295
vn -0.5015 -0.8144 -0.2918
vn -0.1404 -0.6778 -0.7217
vn -0.4100 -0.6355 -0.6542
vn -0.9051 -0.2295 -0.3578
vn -0.6375 -0.1626 -0.7531
vn -0.7598 -0.5758 -0.3020
vn -0.5709 -0.4183 -0.7065
vn -0.1906 -0.9247 0.3295
vn -0.1404 -0.6778 0.7217
vn -0.5015 -0.8144 0.2918
vn -0.3693 -0.6203 0.6920
vn -0.1297 -0.1439 0.9811
vn -0.3640 -0.1359 0.9214
vn -0.1209 -0.3985 0.9092
vn -0.3561 -0.3645 0.8604
vn -0.9051 -0.2295 0.3578
vn -0.7598 -0.5758 0.3020
vn -0.6375 -0.1626 0.7531
vn -0.5838 -0.4634 0.6667
vn -0.1297 0.1439 -0.9811
vn -0.3640 0.1359 -0.9214
vn -0.1209 0.3985 -0.9092
vn -0.3561 0.3645 -0.8604
vn -0.9051 0.2295 -0.3578
vn -0.7598 0.5758 -0.3020
vn -0.6375 0.1626 -0.7531
vn -0.5838 0.4634 -0.6667
vn -0.1906 0.9247 -0.3295
vn -0.1404 0.6778 -0.7217
vn -0.5015 0.8144 -0.2918
vn -0.3693 0.6203 -0.6920
vn -0.1297 0.1439 0.9811
vn -0.1209 0.3984 0.9092
vn -0.3640 0.1359 0.9214
vn -0.3279 0.3941 0.8586
vn -0.1906 0.9247 0.3295
vn -0.5015 0.8144 0.2918
vn -0.1404 0.6778 0.7217
vn -0.4100 0.6355 0.6542
vn -0.9051 0.2295 0.3578
vn -0.6375 0.1626 0.7531
vn -0.7598 0.5758 0.3020
vn -0.5709 0.4183 0.7065
vn 0.1297 -0.1439 -0.9811
vn 0.3640 -0.1359 -0.9214
vn 0.1209 -0.3985 -0.9092
vn 0.3561 -0.3645 -0.8604
vn 0.9051 -0.2295 -0.3578
vn 0.7598 -0.5758 -0.3020
vn 0.6375 -0.1626 -0.7531
vn 0.5838 -0.4634 -0.6667
vn 0.1906 -0.9247 -0.3295
vn 0.1404 -0.6778 -0.7217
vn 0.5015 -0.8144 -0.2918
vn 0.3693 -0.6203 -0.6920
vn 0.1297 -0.1439 0.9811
vn 0.1209 -0.3984 0.9092
vn 0.3640 -0.1359 0.9214
vn 0.3279 -0.3941 0.8586
vn 0.1906 -0.9247 0.3295
vn 0.5015 -0.8144 0.2918
vn 0.1404 -0.6778 0.7217
vn 0.4100 -0.6355 0.6542
vn 0.9051 -0.2295 0.3578
vn 0.6375 -0.1626 0.7531
vn 0.7598 -0.5758 0.3020
vn 0.5709 -0.4183 0.7065
vn 0.1297 0.1439 -0.9811
vn 0.1209 0.3984 -0.9092
vn 0.3640 0.1359 -0.9214
vn 0.3279 0.3941 -0.8586
vn 0.1906 0.9247 -0.3295
vn 0.5015 0.8144 -0.2918
vn 0.1404 0.6778 -0.7217
vn 0.4100 0.6355 -0.6542
vn 0.9051 0.2295 -0.3578
vn 0.6375 0.1626 -0.7531
vn 0.7598 0.5758 -0.3020
vn 0.5709 0.4183 -0.7065
vn 0.1297 0.1439 0.9811
vn 0.3640 0.1359 0.9214
vn 0.1209 0.3985 0.9092
vn 0.3561 0.3645 0.8604
vn 0.9051 0.2295 0.3578
vn 0.7598 0.5758 0.3020
vn 0.6375 0.1626 0.7531
vn 0.5838 0.4634 0.6667
vn 0.1906 0.9247 0.3295
vn 0.1404 0.6778 0.7217
vn 0.5015 0.8144 0.2918
vn 0.3693 0.6203 0.6920
vt 0.150969 0.733969
vt 0.141031 0.724031
vt 0.150969 0.724031
vt 0.150969 0.750000
vt 0.140782 0.734218
vt 0.125000 0.724031
vt 0.135976 0.750000
vt 0.125000 0.733701
vt 0.400969 0.983969
vt 0.391031 0.974031
vt 0.400969 0.974031
vt 0.400969 1.000000
vt 0.390782 0.984218
vt 0.375000 0.974031
vt 0.385976 1.000000
vt 0.375000 0.983701
vt 0.391031 0.025969
vt 0.400969 0.016031
vt 0.400969 0.025969
vt 0.375000 0.025969
vt 0.390782 0.015782
vt 0.400969 0.000000
vt 0.375000 0.010976
vt 0.391299 0.000000
vt 0.608969 0.974031
vt 0.599031 0.983969
vt 0.599031 0.974031
vt 0.625000 0.974031
vt 0.609218 0.984218
vt 0.599031 1.000000
vt 0.625000 0.989024
vt 0.608701 1.000000
vt 0.858969 0.724031
vt 0.849031 0.733969
vt 0.849031 0.724031
vt 0.875000 0.724031
vt 0.859218 0.734218
vt 0.849031 0.750000
vt 0.875000 0.739024
vt 0.858701 0.750000
vt 0.599031 0.016031
vt 0.608969 0.025969
vt 0.599031 0.025969
vt 0.599031 0.000000
vt 0.609218 0.015782
vt 0.625000 0.025969
vt 0.614024 0.000000
vt 0.625000 0.016299
vt 0.141031 0.525969
vt 0.150969 0.516031
vt 0.150969 0.525969
vt 0.125000 0.525969
vt 0.140782 0.515782
vt 0.150969 0.500000
vt 0.125000 0.510976
vt 0.141299 0.500000
vt 0.400969 0.233969
vt 0.391031 0.224031
vt 0.400969 0.224031
vt 0.400969 0.250000
vt 0.390782 0.234218
vt 0.375000 0.224031
vt 0.380488 0.255488
vt 0.375000 0.233701
vt 0.391031 0.275969
vt 0.400969 0.266031
vt 0.400969 0.275969
vt 0.375000 0.275969
vt 0.390782 0.265782
vt 0.391299 0.250000
vt 0.849031 0.516031
vt 0.858969 0.525969
vt 0.849031 0.525969
vt 0.849031 0.500000
vt 0.859218 0.515782
vt 0.875000 0.525969
vt 0.864024 0.500000
vt 0.875000 0.516299
vt 0.599031 0.266031
vt 0.608969 0.275969
vt 0.599031 0.275969
vt 0.599031 0.250000
vt 0.609218 0.265782
vt 0.625000 0.275969
vt 0.619512 0.244512
vt 0.625000 0.266299
vt 0.608969 0.224031
vt 0.599031 0.233969
vt 0.599031 0.224031
vt 0.625000 0.224031
vt 0.609218 0.234218
vt 0.608701 0.250000
vt 0.358969 0.724031
vt 0.349031 0.733969
vt 0.349031 0.724031
vt 0.375000 0.724031
vt 0.359218 0.734218
vt 0.362016 0.762984
vt 0.378659 0.750000
vt 0.366851 0.758149
vt 0.400969 0.733969
vt 0.391031 0.724031
vt 0.400969 0.724031
vt 0.400969 0.750000
vt 0.390782 0.734218
vt 0.375000 0.733701
vt 0.391031 0.775969
vt 0.400969 0.766031
vt 0.400969 0.775969
vt 0.390782 0.765782
vt 0.391299 0.750000
vt 0.650969 0.733969
vt 0.641031 0.724031
vt 0.650969 0.724031
vt 0.637984 0.762984
vt 0.640782 0.734218
vt 0.625000 0.724031
vt 0.625000 0.746341
vt 0.625000 0.733701
vt 0.599031 0.766031
vt 0.608969 0.775969
vt 0.599031 0.775969
vt 0.599031 0.750000
vt 0.609218 0.765782
vt 0.633150 0.758149
vt 0.608969 0.724031
vt 0.599031 0.733969
vt 0.599031 0.724031
vt 0.609218 0.734218
vt 0.608701 0.750000
vt 0.349031 0.516031
vt 0.358969 0.525969
vt 0.349031 0.525969
vt 0.362016 0.487016
vt 0.359218 0.515782
vt 0.375000 0.525969
vt 0.375000 0.503659
vt 0.375000 0.516299
vt 0.400969 0.483969
vt 0.391031 0.474031
vt 0.400969 0.474031
vt 0.400969 0.500000
vt 0.390782 0.484218
vt 0.366851 0.491851
vt 0.391031 0.525969
vt 0.400969 0.516031
vt 0.400969 0.525969
vt 0.390782 0.515782
vt 0.391299 0.500000
vt 0.641031 0.525969
vt 0.650969 0.516031
vt 0.650969 0.525969
vt 0.625000 0.525969
vt 0.640782 0.515782
vt 0.637984 0.487016
vt 0.621341 0.500000
vt 0.633149 0.491851
vt 0.599031 0.516031
vt 0.608969 0.525969
vt 0.599031 0.525969
vt 0.599031 0.500000
vt 0.609218 0.515782
vt 0.625000 0.516299
vt 0.608969 0.474031
vt 0.599031 0.483969
vt 0.599031 0.474031
vt 0.609218 0.484218
vt 0.608701 0.500000
vt 0.141031 0.674516
vt 0.150969 0.674516
vt 0.125000 0.674516
vt 0.391031 0.075484
vt 0.375000 0.075484
vt 0.400969 0.075484
vt 0.500000 0.983969
vt 0.500000 0.974031
vt 0.500000 1.000000
vt 0.500000 0.016031
vt 0.500000 0.000000
vt 0.500000 0.025969
vt 0.858969 0.575484
vt 0.849031 0.575484
vt 0.875000 0.575484
vt 0.608969 0.174516
vt 0.625000 0.174516
vt 0.599031 0.174516
vt 0.500000 0.266031
vt 0.500000 0.275969
vt 0.500000 0.250000
vt 0.500000 0.233969
vt 0.500000 0.224031
vt 0.200484 0.516031
vt 0.200484 0.525969
vt 0.203731 0.496754
vt 0.391031 0.325484
vt 0.371754 0.328731
vt 0.400969 0.325484
vt 0.700484 0.516031
vt 0.700484 0.525969
vt 0.690746 0.490262
vt 0.608969 0.424516
vt 0.634738 0.434254
vt 0.599031 0.424516
vt 0.500000 0.516031
vt 0.500000 0.525969
vt 0.500000 0.500000
vt 0.500000 0.483969
vt 0.500000 0.474031
vt 0.358969 0.575484
vt 0.349031 0.575484
vt 0.375000 0.575484
vt 0.391031 0.575484
vt 0.400969 0.575484
vt 0.641031 0.674516
vt 0.650969 0.674516
vt 0.625000 0.674516
vt 0.608969 0.674516
vt 0.599031 0.674516
vt 0.500000 0.766031
vt 0.500000 0.775969
vt 0.500000 0.750000
vt 0.500000 0.733969
vt 0.500000 0.724031
vt 0.299516 0.733969
vt 0.299516 0.724031
vt 0.309254 0.759738
vt 0.391031 0.825484
vt 0.365262 0.815746
vt 0.400969 0.825484
vt 0.799516 0.733969
vt 0.799516 0.724031
vt 0.796270 0.753246
vt 0.608969 0.924516
vt 0.628246 0.921269
vt 0.599031 0.924516
vt 0.349031 0.674516
vt 0.299516 0.674516
vt 0.500000 0.174516
vt 0.500000 0.924516
vt 0.849031 0.674516
vt 0.799516 0.674516
vt 0.500000 0.424516
vt 0.500000 0.674516
vt 0.599031 0.325484
vt 0.500000 0.375000
vt 0.500000 0.325484
vt 0.750000 0.674516
vt 0.700484 0.724031
vt 0.700484 0.674516
vt 0.599031 0.825484
vt 0.500000 0.875000
vt 0.500000 0.825484
vt 0.250000 0.674516
vt 0.200484 0.724031
vt 0.200484 0.674516
vt 0.608969 0.875000
vt 0.608969 0.825484
vt 0.631492 0.868508
vt 0.634738 0.815746
vt 0.750000 0.733969
vt 0.690746 0.759738
vt 0.700484 0.733969
vt 0.750000 0.724031
vt 0.391031 0.875000
vt 0.400969 0.924516
vt 0.391031 0.924516
vt 0.368508 0.868508
vt 0.371754 0.921269
vt 0.250000 0.733969
vt 0.203731 0.753246
vt 0.200484 0.733969
vt 0.250000 0.724031
vt 0.608969 0.375000
vt 0.608969 0.325484
vt 0.631492 0.381492
vt 0.628246 0.328731
vt 0.750000 0.516031
vt 0.796269 0.496754
vt 0.799515 0.516031
vt 0.750000 0.525969
vt 0.799516 0.525969
vt 0.391031 0.375000
vt 0.400969 0.424516
vt 0.391031 0.424516
vt 0.368508 0.381492
vt 0.365262 0.434254
vt 0.250000 0.516031
vt 0.309254 0.490262
vt 0.299516 0.516031
vt 0.250000 0.525969
vt 0.299516 0.525969
vt 0.250000 0.575484
vt 0.200484 0.625000
vt 0.200484 0.575484
vt 0.750000 0.575484
vt 0.700484 0.625000
vt 0.700484 0.575484
vt 0.599031 0.575484
vt 0.500000 0.625000
vt 0.500000 0.575484
vt 0.799516 0.625000
vt 0.799516 0.575484
vt 0.599031 0.075484
vt 0.500000 0.125000
vt 0.500000 0.075484
vt 0.299516 0.625000
vt 0.299516 0.575484
vt 0.608969 0.625000
vt 0.608969 0.575484
vt 0.625000 0.625000
vt 0.625000 0.575484
vt 0.641031 0.625000
vt 0.641031 0.575484
vt 0.650969 0.625000
vt 0.650969 0.575484
vt 0.391031 0.625000
vt 0.400969 0.674516
vt 0.391031 0.674516
vt 0.375000 0.625000
vt 0.375000 0.674516
vt 0.358969 0.625000
vt 0.358969 0.674516
vt 0.349031 0.625000
vt 0.608969 0.125000
vt 0.608969 0.075484
vt 0.625000 0.125000
vt 0.625000 0.075484
vt 0.858969 0.625000
vt 0.875000 0.674516
vt 0.858969 0.674516
vt 0.849031 0.625000
vt 0.391031 0.125000
vt 0.400969 0.174516
vt 0.391031 0.174516
vt 0.375000 0.125000
vt 0.375000 0.174516
vt 0.141031 0.625000
vt 0.125000 0.575484
vt 0.141031 0.575484
vt 0.150969 0.625000
vt 0.150969 0.575484
vt 0.599031 0.125000
vt 0.400969 0.625000
vt 0.875000 0.625000
vt 0.250000 0.625000
vt 0.750000 0.625000
vt 0.599031 0.625000
vt 0.400969 0.125000
vt 0.125000 0.625000
vt 0.599031 0.875000
vt 0.743508 0.756492
vt 0.400969 0.375000
vt 0.256492 0.493508
vt 0.599031 0.375000
vt 0.400969 0.875000
vt 0.256492 0.756492
vt 0.743508 0.493508
vt 0.141299 0.750000
vt 0.391299 1.000000
vt 0.375000 0.016299
vt 0.625000 0.983701
vt 0.875000 0.733701
vt 0.608701 0.000000
vt 0.125000 0.516299
vt 0.375000 0.266299
vt 0.858701 0.500000
vt 0.625000 0.233701
s 0
g off
f 4/1/1 6/2/1 1/3/1
f 5/4/2 7/5/2 4/1/2
f 7/5/3 16/6/3 6/2/3
f 7/5/4 9/7/4 19/8/4
f 10/9/5 12/10/5 2/11/5
f 11/12/6 13/13/6 10/9/6
f 13/13/7 5/14/7 12/10/7
f 13/13/8 9/15/8 8/16/8
f 15/17/9 17/18/9 3/19/9
f 16/20/10 18/21/10 15/17/10
f 18/21/11 11/22/11 17/18/11
f 18/21/12 9/23/12 14/24/12
f 23/25/13 25/26/13 20/27/13
f 24/28/14 26/29/14 23/25/14
f 26/29/15 35/30/15 25/26/15
f 26/29/16 28/31/16 38/32/16
f 29/33/17 31/34/17 21/35/17
f 30/36/18 32/37/18 29/33/18
f 32/37/19 24/38/19 31/34/19
f 32/37/20 28/39/20 27/40/20
f 34/41/21 36/42/21 22/43/21
f 35/44/22 37/45/22 34/41/22
f 37/45/23 30/46/23 36/42/23
f 37/45/24 28/47/24 33/48/24
f 42/49/25 44/50/25 39/51/25
f 43/52/26 45/53/26 42/49/26
f 45/53/27 54/54/27 44/50/27
f 45/53/28 47/55/28 57/56/28
f 48/57/29 50/58/29 40/59/29
f 49/60/30 51/61/30 48/57/30
f 51/61/31 43/62/31 50/58/31
f 51/61/32 47/63/32 46/64/32
f 53/65/33 55/66/33 41/67/33
f 54/68/34 56/69/34 53/65/34
f 56/69/35 49/60/35 55/66/35
f 56/69/36 47/63/36 52/70/36
f 61/71/37 63/72/37 58/73/37
f 62/74/38 64/75/38 61/71/38
f 64/75/39 73/76/39 63/72/39
f 64/75/40 66/77/40 76/78/40
f 67/79/41 69/80/41 59/81/41
f 68/82/42 70/83/42 67/79/42
f 70/83/43 62/84/43 69/80/43
f 70/83/44 66/85/44 65/86/44
f 72/87/45 74/88/45 60/89/45
f 73/90/46 75/91/46 72/87/46
f 75/91/47 68/82/47 74/88/47
f 75/91/48 66/85/48 71/92/48
f 80/93/49 82/94/49 77/95/49
f 81/96/50 83/97/50 80/93/50
f 83/97/51 92/98/51 82/94/51
f 83/97/52 85/99/52 95/100/52
f 86/101/53 88/102/53 78/103/53
f 87/104/54 89/105/54 86/101/54
f 89/105/55 81/96/55 88/102/55
f 89/105/56 85/99/56 84/106/56
f 91/107/57 93/108/57 79/109/57
f 92/98/58 94/110/58 91/107/58
f 94/110/59 87/104/59 93/108/59
f 94/110/60 85/99/60 90/111/60
f 99/112/61 101/113/61 96/114/61
f 100/115/62 102/116/62 99/112/62
f 102/116/63 111/117/63 101/113/63
f 102/116/64 104/118/64 114/119/64
f 105/120/65 107/121/65 97/122/65
f 106/123/66 108/124/66 105/120/66
f 108/124/67 100/115/67 107/121/67
f 108/124/68 104/118/68 103/125/68
f 110/126/69 112/127/69 98/128/69
f 111/117/70 113/129/70 110/126/70
f 113/129/71 106/123/71 112/127/71
f 113/129/72 104/118/72 109/130/72
f 118/131/73 120/132/73 115/133/73
f 119/134/74 121/135/74 118/131/74
f 121/135/75 130/136/75 120/132/75
f 121/135/76 123/137/76 133/138/76
f 124/139/77 126/140/77 116/141/77
f 125/142/78 127/143/78 124/139/78
f 127/143/79 119/134/79 126/140/79
f 127/143/80 123/137/80 122/144/80
f 129/145/81 131/146/81 117/147/81
f 130/136/82 132/148/82 129/145/82
f 132/148/83 125/142/83 131/146/83
f 132/148/84 123/137/84 128/149/84
f 137/150/85 139/151/85 134/152/85
f 138/153/86 140/154/86 137/150/86
f 140/154/87 149/155/87 139/151/87
f 140/154/88 142/156/88 152/157/88
f 143/158/89 145/159/89 135/160/89
f 144/161/90 146/162/90 143/158/90
f 146/162/91 138/153/91 145/159/91
f 146/162/92 142/156/92 141/163/92
f 148/164/93 150/165/93 136/166/93
f 149/155/94 151/167/94 148/164/94
f 151/167/95 144/161/95 150/165/95
f 151/167/96 142/156/96 147/168/96
f 1/3/97 229/169/97 217/170/97
f 6/2/98 230/171/98 229/169/98
f 16/20/99 231/172/99 230/173/99
f 15/17/100 232/174/100 231/172/100
f 20/27/101 292/175/101 291/176/101
f 25/26/102 293/177/102 292/175/102
f 35/44/103 294/178/103 293/179/103
f 34/41/104 295/180/104 294/178/104
f 58/73/105 206/181/105 199/182/105
f 63/72/106 207/183/106 206/181/106
f 73/90/107 208/184/107 207/185/107
f 72/87/108 209/186/108 208/184/108
f 41/67/109 297/187/109 296/188/109
f 55/66/110 298/189/110 297/187/110
f 49/60/111 299/190/111 298/189/111
f 48/57/112 300/191/112 299/190/112
f 39/51/113 249/192/113 239/193/113
f 44/50/114 250/194/114 249/192/114
f 54/68/115 251/195/115 250/196/115
f 53/65/116 252/197/116 251/195/116
f 134/152/117 276/198/117 269/199/117
f 139/151/118 277/200/118 276/198/118
f 149/155/119 278/201/119 277/202/119
f 148/164/120 279/203/120 278/201/120
f 117/147/121 302/204/121 301/205/121
f 131/146/122 303/206/122 302/204/122
f 125/142/123 304/207/123 303/206/123
f 124/139/124 305/208/124 304/207/124
f 115/133/125 210/209/125 200/210/125
f 120/132/126 211/211/126 210/209/126
f 130/136/127 212/212/127 211/211/127
f 129/145/128 213/213/128 212/212/128
f 96/114/129 235/214/129 226/215/129
f 101/113/130 236/216/130 235/214/130
f 111/117/131 237/217/131 236/216/131
f 110/126/132 238/218/132 237/217/132
f 79/109/133 307/219/133 306/220/133
f 93/108/134 308/221/134 307/219/134
f 87/104/135 309/222/135 308/221/135
f 86/101/136 310/223/136 309/222/136
f 77/95/137 280/224/137 270/225/137
f 82/94/138 281/226/138 280/224/138
f 92/98/139 282/227/139 281/228/139
f 91/107/140 283/229/140 282/227/140
f 21/35/141 255/230/141 248/231/141
f 31/34/142 256/232/142 255/230/142
f 24/28/143 257/233/143 256/234/143
f 23/25/144 258/235/144 257/233/144
f 234/236/145 270/225/145 290/237/145
f 209/186/146 300/191/146 316/238/146
f 258/235/147 291/176/147 320/239/147
f 233/240/148 248/231/148 264/241/148
f 279/203/149 305/208/149 322/242/149
f 238/218/150 310/223/150 318/243/150
f 243/244/149 311/245/149 319/246/149
f 227/247/148 284/248/148 289/249/148
f 274/250/147 312/251/147 321/252/147
f 228/253/145 254/254/145 263/255/145
f 171/256/144 274/250/144 273/257/144
f 170/258/143 273/257/143 272/259/143
f 169/260/142 272/261/142 271/262/142
f 168/263/141 271/262/141 284/248/141
f 166/264/140 247/265/140 246/266/140
f 165/267/139 246/266/139 245/268/139
f 164/269/138 245/270/138 244/271/138
f 163/272/137 244/271/137 254/254/137
f 161/273/120 243/244/120 242/274/120
f 160/275/119 242/274/119 241/276/119
f 159/277/118 241/278/118 240/279/118
f 158/280/117 240/279/117 253/281/117
f 156/282/116 268/283/116 267/284/116
f 155/285/115 267/284/115 266/286/115
f 154/287/114 266/288/114 265/289/114
f 153/290/113 265/289/113 275/291/113
f 216/292/145 259/293/145 262/294/145
f 215/295/148 285/296/148 288/297/148
f 204/298/150 313/299/150 315/300/150
f 199/182/148 260/301/148 261/302/148
f 221/303/146 314/304/146 317/305/146
f 200/210/145 286/306/145 287/307/145
f 191/308/132 204/298/132 203/309/132
f 190/310/131 203/309/131 202/311/131
f 189/312/130 202/311/130 201/313/130
f 188/314/129 201/313/129 214/315/129
f 186/316/128 225/317/128 224/318/128
f 185/319/127 224/318/127 223/320/127
f 184/321/126 223/320/126 222/322/126
f 183/323/125 222/322/125 234/236/125
f 181/324/108 221/303/108 220/325/108
f 180/326/107 220/325/107 219/327/107
f 179/328/106 219/329/106 218/330/106
f 178/331/105 218/330/105 233/240/105
f 176/332/100 198/333/100 197/334/100
f 175/335/99 197/334/99 196/336/99
f 174/337/98 196/338/98 195/339/98
f 173/340/97 195/339/97 205/341/97
f 205/341/97 42/49/97 39/51/97
f 195/339/98 43/52/98 42/49/98
f 196/336/99 50/58/99 43/62/99
f 197/334/100 40/59/100 50/58/100
f 214/315/129 137/150/129 134/152/129
f 201/313/130 138/153/130 137/150/130
f 202/311/131 145/159/131 138/153/131
f 203/309/132 135/160/132 145/159/132
f 115/133/145 287/307/145 275/291/145
f 58/73/148 261/302/148 253/281/148
f 135/160/150 315/300/150 301/205/150
f 158/280/148 288/297/148 269/199/148
f 153/290/145 262/294/145 239/193/145
f 182/342/146 316/238/146 314/304/146
f 212/212/128 187/343/128 186/316/128
f 211/211/127 186/316/127 185/319/127
f 210/209/126 185/319/126 184/321/126
f 200/210/125 184/321/125 183/323/125
f 208/184/108 182/342/108 181/324/108
f 207/185/107 181/324/107 180/326/107
f 206/181/106 180/344/106 179/328/106
f 199/182/105 179/328/105 178/331/105
f 233/240/105 29/33/105 21/35/105
f 218/330/106 30/36/106 29/33/106
f 219/327/107 36/42/107 30/46/107
f 220/325/108 22/43/108 36/42/108
f 234/236/125 80/93/125 77/95/125
f 222/322/126 81/96/126 80/93/126
f 223/320/127 88/102/127 81/96/127
f 224/318/128 78/103/128 88/102/128
f 22/43/146 317/305/146 295/180/146
f 194/345/145 263/255/145 259/293/145
f 193/346/148 289/249/148 285/296/148
f 192/347/150 318/243/150 313/299/150
f 178/331/148 264/241/148 260/301/148
f 183/323/145 290/237/145 286/306/145
f 237/217/132 192/347/132 191/308/132
f 236/216/131 191/308/131 190/310/131
f 235/214/130 190/310/130 189/312/130
f 226/215/129 189/312/129 188/314/129
f 231/172/100 177/348/100 176/332/100
f 230/173/99 176/332/99 175/335/99
f 229/169/98 175/349/98 174/337/98
f 217/170/97 174/337/97 173/340/97
f 260/301/148 227/247/148 193/346/148
f 259/293/145 217/170/145 173/340/145
f 239/193/145 205/341/145 39/51/145
f 253/281/148 215/295/148 158/280/148
f 261/302/148 193/346/148 215/295/148
f 262/294/145 173/340/145 205/341/145
f 253/281/117 61/71/117 58/73/117
f 240/279/118 62/74/118 61/71/118
f 241/276/119 69/80/119 62/84/119
f 242/274/120 59/81/120 69/80/120
f 254/254/137 4/1/137 1/3/137
f 244/271/138 5/4/138 4/1/138
f 245/268/139 12/10/139 5/14/139
f 246/266/140 2/11/140 12/10/140
f 263/255/145 1/3/145 217/170/145
f 59/81/149 319/246/149 296/188/149
f 264/241/148 168/263/148 227/247/148
f 172/350/147 320/239/147 312/251/147
f 257/233/144 172/350/144 171/256/144
f 256/234/143 171/256/143 170/258/143
f 255/230/142 170/351/142 169/260/142
f 248/231/141 169/260/141 168/263/141
f 251/195/116 157/352/116 156/282/116
f 250/196/115 156/282/115 155/285/115
f 249/192/114 155/353/114 154/287/114
f 239/193/113 154/287/113 153/290/113
f 286/306/145 228/253/145 194/345/145
f 285/296/148 226/215/148 188/314/148
f 269/199/148 214/315/148 134/152/148
f 275/291/145 216/292/145 153/290/145
f 287/307/145 194/345/145 216/292/145
f 288/297/148 188/314/148 214/315/148
f 275/291/113 118/131/113 115/133/113
f 265/289/114 119/134/114 118/131/114
f 266/286/115 126/140/115 119/134/115
f 267/284/116 116/141/116 126/140/116
f 284/248/141 99/112/141 96/114/141
f 271/262/142 100/115/142 99/112/142
f 272/259/143 107/121/143 100/115/143
f 273/257/144 97/122/144 107/121/144
f 97/122/147 321/252/147 306/220/147
f 289/249/148 96/114/148 226/215/148
f 162/354/149 322/242/149 311/245/149
f 290/237/145 163/272/145 228/253/145
f 282/227/140 167/355/140 166/264/140
f 281/228/139 166/264/139 165/267/139
f 280/224/138 165/356/138 164/269/138
f 270/225/137 164/269/137 163/272/137
f 278/201/120 162/354/120 161/273/120
f 277/202/119 161/273/119 160/275/119
f 276/198/118 160/357/118 159/277/118
f 269/199/117 159/277/117 158/280/117
f 311/245/149 268/283/149 157/352/149
f 306/220/147 283/229/147 79/109/147
f 312/251/147 247/265/147 167/355/147
f 296/188/149 252/197/149 41/67/149
f 313/299/150 225/317/150 187/343/150
f 295/180/146 232/174/146 3/19/146
f 314/304/146 198/333/146 177/348/146
f 301/205/150 213/213/150 117/147/150
f 317/305/146 177/348/146 232/174/146
f 315/300/150 187/343/150 213/213/150
f 321/252/147 167/355/147 283/229/147
f 319/246/149 157/352/149 252/197/149
f 318/243/150 78/103/150 225/317/150
f 322/242/149 116/141/149 268/283/149
f 320/239/147 2/11/147 247/265/147
f 316/238/146 40/59/146 198/333/146
f 309/222/136 98/128/136 112/127/136
f 308/221/135 112/127/135 106/123/135
f 307/219/134 106/123/134 105/120/134
f 306/220/133 105/120/133 97/122/133
f 304/207/124 136/166/124 150/165/124
f 303/206/123 150/165/123 144/161/123
f 302/204/122 144/161/122 143/158/122
f 301/205/121 143/158/121 135/160/121
f 299/190/112 60/89/112 74/88/112
f 298/189/111 74/88/111 68/82/111
f 297/187/110 68/82/110 67/79/110
f 296/188/109 67/79/109 59/81/109
f 294/178/104 3/19/104 17/18/104
f 293/179/103 17/18/103 11/22/103
f 292/175/102 11/12/102 10/9/102
f 291/176/101 10/9/101 2/11/101
f 4/1/151 7/5/151 6/2/151
f 5/4/152 8/358/152 7/5/152
f 7/5/153 19/8/153 16/6/153
f 7/5/154 8/358/154 9/7/154
f 10/9/155 13/13/155 12/10/155
f 11/12/156 14/359/156 13/13/156
f 13/13/157 8/16/157 5/14/157
f 13/13/158 14/359/158 9/15/158
f 15/17/159 18/21/159 17/18/159
f 16/20/160 19/360/160 18/21/160
f 18/21/161 14/24/161 11/22/161
f 18/21/162 19/360/162 9/23/162
f 23/25/163 26/29/163 25/26/163
f 24/28/164 27/361/164 26/29/164
f 26/29/165 38/32/165 35/30/165
f 26/29/166 27/361/166 28/31/166
f 29/33/167 32/37/167 31/34/167
f 30/36/168 33/362/168 32/37/168
f 32/37/169 27/40/169 24/38/169
f 32/37/170 33/362/170 28/39/170
f 34/41/171 37/45/171 36/42/171
f 35/44/172 38/363/172 37/45/172
f 37/45/173 33/48/173 30/46/173
f 37/45/174 38/363/174 28/47/174
f 42/49/175 45/53/175 44/50/175
f 43/52/176 46/364/176 45/53/176
f 45/53/177 57/56/177 54/54/177
f 45/53/178 46/364/178 47/55/178
f 48/57/179 51/61/179 50/58/179
f 49/60/180 52/70/180 51/61/180
f 51/61/181 46/64/181 43/62/181
f 51/61/182 52/70/182 47/63/182
f 53/65/183 56/69/183 55/66/183
f 54/68/184 57/365/184 56/69/184
f 56/69/185 52/70/185 49/60/185
f 56/69/186 57/365/186 47/63/186
f 61/71/187 64/75/187 63/72/187
f 62/74/188 65/366/188 64/75/188
f 64/75/189 76/78/189 73/76/189
f 64/75/190 65/366/190 66/77/190
f 67/79/191 70/83/191 69/80/191
f 68/82/192 71/92/192 70/83/192
f 70/83/193 65/86/193 62/84/193
f 70/83/194 71/92/194 66/85/194
f 72/87/195 75/91/195 74/88/195
f 73/90/196 76/367/196 75/91/196
f 75/91/197 71/92/197 68/82/197
f 75/91/198 76/367/198 66/85/198
f 80/93/199 83/97/199 82/94/199
f 81/96/200 84/106/200 83/97/200
f 83/97/201 95/100/201 92/98/201
f 83/97/202 84/106/202 85/99/202
f 86/101/203 89/105/203 88/102/203
f 87/104/204 90/111/204 89/105/204
f 89/105/205 84/106/205 81/96/205
f 89/105/206 90/111/206 85/99/206
f 91/107/207 94/110/207 93/108/207
f 92/98/208 95/100/208 94/110/208
f 94/110/209 90/111/209 87/104/209
f 94/110/210 95/100/210 85/99/210
f 99/112/211 102/116/211 101/113/211
f 100/115/212 103/125/212 102/116/212
f 102/116/213 114/119/213 111/117/213
f 102/116/214 103/125/214 104/118/214
f 105/120/215 108/124/215 107/121/215
f 106/123/216 109/130/216 108/124/216
f 108/124/217 103/125/217 100/115/217
f 108/124/218 109/130/218 104/118/218
f 110/126/219 113/129/219 112/127/219
f 111/117/220 114/119/220 113/129/220
f 113/129/221 109/130/221 106/123/221
f 113/129/222 114/119/222 104/118/222
f 118/131/223 121/135/223 120/132/223
f 119/134/224 122/144/224 121/135/224
f 121/135/225 133/138/225 130/136/225
f 121/135/226 122/144/226 123/137/226
f 124/139/227 127/143/227 126/140/227
f 125/142/228 128/149/228 127/143/228
f 127/143/229 122/144/229 119/134/229
f 127/143/230 128/149/230 123/137/230
f 129/145/231 132/148/231 131/146/231
f 130/136/232 133/138/232 132/148/232
f 132/148/233 128/149/233 125/142/233
f 132/148/234 133/138/234 123/137/234
f 137/150/235 140/154/235 139/151/235
f 138/153/236 141/163/236 140/154/236
f 140/154/237 152/157/237 149/155/237
f 140/154/238 141/163/238 142/156/238
f 143/158/239 146/162/239 145/159/239
f 144/161/240 147/168/240 146/162/240
f 146/162/241 141/163/241 138/153/241
f 146/162/242 147/168/242 142/156/242
f 148/164/243 151/167/243 150/165/243
f 149/155/244 152/157/244 151/167/244
f 151/167/245 147/168/245 144/161/245
f 151/167/246 152/157/246 142/156/246
f 1/3/97 6/2/97 229/169/97
f 6/2/98 16/6/98 230/171/98
f 16/20/99 15/17/99 231/172/99
f 15/17/100 3/19/100 232/174/100
f 20/27/101 25/26/101 292/175/101
f 25/26/102 35/30/102 293/177/102
f 35/44/103 34/41/103 294/178/103
f 34/41/104 22/43/104 295/180/104
f 58/73/105 63/72/105 206/181/105
f 63/72/106 73/76/106 207/183/106
f 73/90/107 72/87/107 208/184/107
f 72/87/108 60/89/108 209/186/108
f 41/67/109 55/66/109 297/187/109
f 55/66/110 49/60/110 298/189/110
f 49/60/111 48/57/111 299/190/111
f 48/57/112 40/59/112 300/191/112
f 39/51/113 44/50/113 249/192/113
f 44/50/114 54/54/114 250/194/114
f 54/68/115 53/65/115 251/195/115
f 53/65/116 41/67/116 252/197/116
f 134/152/117 139/151/117 276/198/117
f 139/151/118 149/155/118 277/200/118
f 149/155/119 148/164/119 278/201/119
f 148/164/120 136/166/120 279/203/120
f 117/147/121 131/146/121 302/204/121
f 131/146/122 125/142/122 303/206/122
f 125/142/123 124/139/123 304/207/123
f 124/139/124 116/141/124 305/208/124
f 115/133/125 120/132/125 210/209/125
f 120/132/126 130/136/126 211/211/126
f 130/136/127 129/145/127 212/212/127
f 129/145/128 117/147/128 213/213/128
f 96/114/129 101/113/129 235/214/129
f 101/113/130 111/117/130 236/216/130
f 111/117/131 110/126/131 237/217/131
f 110/126/132 98/128/132 238/218/132
f 79/109/133 93/108/133 307/219/133
f 93/108/134 87/104/134 308/221/134
f 87/104/135 86/101/135 309/222/135
f 86/101/136 78/103/136 310/223/136
f 77/95/137 82/94/137 280/224/137
f 82/94/138 92/98/138 281/226/138
f 92/98/139 91/107/139 282/227/139
f 91/107/140 79/109/140 283/229/140
f 21/35/141 31/34/141 255/230/141
f 31/34/142 24/38/142 256/232/142
f 24/28/143 23/25/143 257/233/143
f 23/25/144 20/27/144 258/235/144
f 234/236/145 77/95/145 270/225/145
f 209/186/146 60/89/146 300/191/146
f 258/235/147 20/27/147 291/176/147
f 233/240/148 21/35/148 248/231/148
f 279/203/149 136/166/149 305/208/149
f 238/218/150 98/128/150 310/223/150
f 243/244/149 162/354/149 311/245/149
f 227/247/148 168/263/148 284/248/148
f 274/250/147 172/350/147 312/251/147
f 228/253/145 163/272/145 254/254/145
f 171/256/144 172/350/144 274/250/144
f 170/258/143 171/256/143 273/257/143
f 169/260/142 170/351/142 272/261/142
f 168/263/141 169/260/141 271/262/141
f 166/264/140 167/355/140 247/265/140
f 165/267/139 166/264/139 246/266/139
f 164/269/138 165/356/138 245/270/138
f 163/272/137 164/269/137 244/271/137
f 161/273/120 162/354/120 243/244/120
f 160/275/119 161/273/119 242/274/119
f 159/277/118 160/357/118 241/278/118
f 158/280/117 159/277/117 240/279/117
f 156/282/116 157/352/116 268/283/116
f 155/285/115 156/282/115 267/284/115
f 154/287/114 155/353/114 266/288/114
f 153/290/113 154/287/113 265/289/113
f 216/292/145 194/345/145 259/293/145
f 215/295/148 193/346/148 285/296/148
f 204/298/150 192/347/150 313/299/150
f 199/182/148 178/331/148 260/301/148
f 221/303/146 182/342/146 314/304/146
f 200/210/145 183/323/145 286/306/145
f 191/308/132 192/347/132 204/298/132
f 190/310/131 191/308/131 203/309/131
f 189/312/130 190/310/130 202/311/130
f 188/314/129 189/312/129 201/313/129
f 186/316/128 187/343/128 225/317/128
f 185/319/127 186/316/127 224/318/127
f 184/321/126 185/319/126 223/320/126
f 183/323/125 184/321/125 222/322/125
f 181/324/108 182/342/108 221/303/108
f 180/326/107 181/324/107 220/325/107
f 179/328/106 180/344/106 219/329/106
f 178/331/105 179/328/105 218/330/105
f 176/332/100 177/348/100 198/333/100
f 175/335/99 176/332/99 197/334/99
f 174/337/98 175/349/98 196/338/98
f 173/340/97 174/337/97 195/339/97
f 205/341/97 195/339/97 42/49/97
f 195/339/98 196/338/98 43/52/98
f 196/336/99 197/334/99 50/58/99
f 197/334/100 198/333/100 40/59/100
f 214/315/129 201/313/129 137/150/129
f 201/313/130 202/311/130 138/153/130
f 202/311/131 203/309/131 145/159/131
f 203/309/132 204/298/132 135/160/132
f 115/133/145 200/210/145 287/307/145
f 58/73/148 199/182/148 261/302/148
f 135/160/150 204/298/150 315/300/150
f 158/280/148 215/295/148 288/297/148
f 153/290/145 216/292/145 262/294/145
f 182/342/146 209/186/146 316/238/146
f 212/212/128 213/213/128 187/343/128
f 211/211/127 212/212/127 186/316/127
f 210/209/126 211/211/126 185/319/126
f 200/210/125 210/209/125 184/321/125
f 208/184/108 209/186/108 182/342/108
f 207/185/107 208/184/107 181/324/107
f 206/181/106 207/183/106 180/344/106
f 199/182/105 206/181/105 179/328/105
f 233/240/105 218/330/105 29/33/105
f 218/330/106 219/329/106 30/36/106
f 219/327/107 220/325/107 36/42/107
f 220/325/108 221/303/108 22/43/108
f 234/236/125 222/322/125 80/93/125
f 222/322/126 223/320/126 81/96/126
f 223/320/127 224/318/127 88/102/127
f 224/318/128 225/317/128 78/103/128
f 22/43/146 221/303/146 317/305/146
f 194/345/145 228/253/145 263/255/145
f 193/346/148 227/247/148 289/249/148
f 192/347/150 238/218/150 318/243/150
f 178/331/148 233/240/148 264/241/148
f 183/323/145 234/236/145 290/237/145
f 237/217/132 238/218/132 192/347/132
f 236/216/131 237/217/131 191/308/131
f 235/214/130 236/216/130 190/310/130
f 226/215/129 235/214/129 189/312/129
f 231/172/100 232/174/100 177/348/100
f 230/173/99 231/172/99 176/332/99
f 229/169/98 230/171/98 175/349/98
f 217/170/97 229/169/97 174/337/97
f 260/301/148 264/241/148 227/247/148
f 259/293/145 263/255/145 217/170/145
f 239/193/145 262/294/145 205/341/145
f 253/281/148 261/302/148 215/295/148
f 261/302/148 260/301/148 193/346/148
f 262/294/145 259/293/145 173/340/145
f 253/281/117 240/279/117 61/71/117
f 240/279/118 241/278/118 62/74/118
f 241/276/119 242/274/119 69/80/119
f 242/274/120 243/244/120 59/81/120
f 254/254/137 244/271/137 4/1/137
f 244/271/138 245/270/138 5/4/138
f 245/268/139 246/266/139 12/10/139
f 246/266/140 247/265/140 2/11/140
f 263/255/145 254/254/145 1/3/145
f 59/81/149 243/244/149 319/246/149
f 264/241/148 248/231/148 168/263/148
f 172/350/147 258/235/147 320/239/147
f 257/233/144 258/235/144 172/350/144
f 256/234/143 257/233/143 171/256/143
f 255/230/142 256/232/142 170/351/142
f 248/231/141 255/230/141 169/260/141
f 251/195/116 252/197/116 157/352/116
f 250/196/115 251/195/115 156/282/115
f 249/192/114 250/194/114 155/353/114
f 239/193/113 249/192/113 154/287/113
f 286/306/145 290/237/145 228/253/145
f 285/296/148 289/249/148 226/215/148
f 269/199/148 288/297/148 214/315/148
f 275/291/145 287/307/145 216/292/145
f 287/307/145 286/306/145 194/345/145
f 288/297/148 285/296/148 188/314/148
f 275/291/113 265/289/113 118/131/113
f 265/289/114 266/288/114 119/134/114
f 266/286/115 267/284/115 126/140/115
f 267/284/116 268/283/116 116/141/116
f 284/248/141 271/262/141 99/112/141
f 271/262/142 272/261/142 100/115/142
f 272/259/143 273/257/143 107/121/143
f 273/257/144 274/250/144 97/122/144
f 97/122/147 274/250/147 321/252/147
f 289/249/148 284/248/148 96/114/148
f 162/354/149 279/203/149 322/242/149
f 290/237/145 270/225/145 163/272/145
f 282/227/140 283/229/140 167/355/140
f 281/228/139 282/227/139 166/264/139
f 280/224/138 281/226/138 165/356/138
f 270/225/137 280/224/137 164/269/137
f 278/201/120 279/203/120 162/354/120
f 277/202/119 278/201/119 161/273/119
f 276/198/118 277/200/118 160/357/118
f 269/199/117 276/198/117 159/277/117
f 311/245/149 322/242/149 268/283/149
f 306/220/147 321/252/147 283/229/147
f 312/251/147 320/239/147 247/265/147
f 296/188/149 319/246/149 252/197/149
f 313/299/150 318/243/150 225/317/150
f 295/180/146 317/305/146 232/174/146
f 314/304/146 316/238/146 198/333/146
f 301/205/150 315/300/150 213/213/150
f 317/305/146 314/304/146 177/348/146
f 315/300/150 313/299/150 187/343/150
f 321/252/147 312/251/147 167/355/147
f 319/246/149 311/245/149 157/352/149
f 318/243/150 310/223/150 78/103/150
f 322/242/149 305/208/149 116/141/149
f 320/239/147 291/176/147 2/11/147
f 316/238/146 300/191/146 40/59/146
f 309/222/136 310/223/136 98/128/136
f 308/221/135 309/222/135 112/127/135
f 307/219/134 308/221/134 106/123/134
f 306/220/133 307/219/133 105/120/133
f 304/207/124 305/208/124 136/166/124
f 303/206/123 304/207/123 150/165/123
f 302/204/122 303/206/122 144/161/122
f 301/205/121 302/204/121 143/158/121
f 299/190/112 300/191/112 60/89/112
f 298/189/111 299/190/111 74/88/111
f 297/187/110 298/189/110 68/82/110
f 296/188/109 297/187/109 67/79/109
f 294/178/104 295/180/104 3/19/104
f 293/179/103 294/178/103 17/18/103
f 292/175/102 293/177/102 11/12/102
f 291/176/101 292/175/101 10/9/101
