# Blender 4.5.3 LTS
# www.blender.org
o RockA.006
v 1.116583 -1.015675 0.270907
v 1.327600 1.147738 0.287077
v 1.282652 1.296256 -0.698012
v -1.295305 -0.832808 0.261459
v -1.366974 -0.937707 -0.895609
v -1.255718 1.273815 -0.594634
v 1.610908 0.832935 0.363904
v 1.701087 0.558716 0.332507
v 1.594344 0.317971 0.372515
v 1.613439 -0.010645 0.347569
v 1.556206 -0.555204 0.346683
v 1.521496 -0.689173 0.319909
v 1.467801 -0.890150 0.212142
v 1.458334 -0.981379 0.146246
v 1.725666 -0.980245 -0.273846
v 1.602128 -1.179295 -0.337094
v 1.629419 -1.148256 -0.414274
v 1.703079 -1.028898 -0.554567
v 1.454253 -1.089628 -0.689960
v 1.548142 -0.720598 -0.917787
v 1.732634 -0.439479 -0.920411
v 1.712631 -0.115682 -1.011661
v 1.738526 0.261608 -1.009341
v 1.695509 0.579865 -0.994331
v 1.385999 0.660263 -1.021719
v 1.594783 1.164823 -0.731281
v 1.453929 1.332593 -0.668351
v 1.731633 1.326135 -0.609181
v 1.682749 1.497704 -0.513000
v 1.714828 1.614216 -0.380343
v 1.755341 1.663147 -0.170671
v 1.805817 1.585347 -0.114367
v 1.361439 1.460694 0.165063
v -1.136954 1.202237 0.444934
v -1.043551 1.498701 0.329697
v -0.837945 1.706448 0.291049
v -0.379830 1.721137 0.419236
v 0.046707 1.603596 0.505764
v 0.225530 1.645521 0.475433
v 0.633153 1.562643 0.427326
v 0.797580 1.351048 0.432877
v 1.175196 1.245692 0.300390
v 0.809044 1.378606 -0.731656
v 0.534799 1.553884 -0.806357
v 0.283717 1.665563 -0.865969
v 0.047337 1.511642 -1.008954
v -0.616818 1.591938 -0.848476
v -0.792821 1.429681 -0.826857
v -0.936477 1.340229 -0.785430
v -1.037951 1.229861 -0.788429
v -1.368948 1.442094 -0.470609
v -1.559233 1.285901 -0.489245
v -1.703644 1.437209 -0.226634
v -1.608782 1.527310 -0.156273
v -1.540029 1.497300 0.006070
v -1.541237 1.349913 0.131591
v -1.413094 1.304526 0.255315
v -1.487250 -0.559124 0.213362
v -1.655562 0.085455 0.401043
v -1.750776 0.143651 0.364478
v -1.577350 0.735689 0.417666
v -1.315068 1.220858 0.350614
v -1.269641 1.043440 -0.802278
v -1.360530 0.958314 -0.821616
v -1.475957 0.873281 -0.838029
v -1.516591 0.146773 -1.078457
v -1.573451 0.027944 -1.087284
v -1.667070 -0.170150 -1.018102
v -1.485614 -0.576132 -0.981880
v -1.480326 -1.062476 -0.669529
v -1.529119 -1.097844 -0.537498
v -1.547521 -1.122670 -0.401043
v -1.557288 -1.112703 -0.241892
v -1.489606 -1.058980 -0.032830
v -1.457022 -1.022499 0.042903
v -1.398426 -0.956305 0.134629
v -1.313417 -0.894067 0.229998
v 0.359570 -1.149546 0.478423
v 0.235826 -1.131731 0.492321
v 0.072256 -1.363805 0.266682
v -0.171080 -1.227892 0.268900
v -0.405201 -1.040803 0.331098
v -0.687651 -1.022352 0.253100
v -0.903540 -1.029693 0.219987
v -1.218830 -1.043083 -0.858726
v -0.437571 -1.194310 -1.032151
v -0.266025 -1.204073 -1.035348
v 0.315852 -1.256833 -1.018867
v 0.539223 -1.160729 -1.030872
v 1.702369 -0.819609 -0.094061
v 1.770575 -0.987302 -0.505525
v 1.585882 -0.802034 0.141591
v 1.801929 -0.920299 -0.597274
v 1.610685 -0.896182 -0.767336
v 1.944764 -0.735319 -0.324017
v 1.943340 -0.765113 -0.438109
v 1.759470 -0.622862 0.096091
v 1.772769 -0.720733 -0.076280
v 1.882724 -0.826276 -0.570216
v 1.793293 -0.771763 -0.745866
v 1.718759 -0.674238 -0.863160
v 1.725537 -0.451296 0.317757
v 1.968153 -0.666247 -0.253532
v 1.668463 -0.479916 0.340980
v 1.853044 -0.446210 0.195267
v 2.001611 -0.568303 -0.165738
v 1.997417 -0.651536 -0.305949
v 1.977890 -0.668517 -0.395301
v 1.940835 -0.334570 -0.712800
v 2.031130 -0.484713 -0.085401
v 2.031424 -0.562860 -0.219152
v 1.992312 -0.415487 -0.514629
v 2.056463 -0.494736 -0.156177
v 1.786223 -0.436232 -0.886901
v 1.832213 -0.383708 0.237170
v 1.953180 -0.387895 0.144174
v 2.022448 -0.393506 0.051712
v 2.073967 -0.407054 -0.035702
v 2.081279 -0.415096 -0.129651
v 1.972787 -0.304646 0.128184
v 2.109947 -0.303736 0.024845
v 2.126208 -0.272154 -0.047868
v 2.115002 -0.275905 -0.140556
v 2.070691 -0.242922 -0.335891
v 2.018234 -0.160597 -0.661219
v 1.811797 0.037135 0.188144
v 2.159665 -0.155259 -0.027899
v 2.083492 -0.114183 -0.515026
v 2.218431 0.033180 -0.184542
v 1.992931 0.040716 -0.824659
v 1.818283 -0.082203 -0.976008
v 2.143323 0.115566 -0.024008
v 2.196290 0.011901 -0.066725
v 2.205985 0.041549 -0.279818
v 1.829100 0.183598 0.166502
v 2.099487 0.183947 0.009235
v 2.101624 0.137497 -0.709533
v 1.849223 0.032748 -0.961850
v 2.221419 0.120912 -0.209982
v 2.235270 0.128861 -0.317426
v 2.197762 0.132764 -0.486436
v 1.942085 0.132975 -0.880064
v 2.048964 0.268575 0.045353
v 2.196426 0.216007 -0.479877
v 2.166671 0.227831 -0.567476
v 1.975192 0.366656 0.099797
v 2.097909 0.534022 -0.151850
v 2.158269 0.483905 -0.385466
v 1.900564 0.453341 0.164272
v 1.977601 0.477167 0.070211
v 2.133616 0.556972 -0.270043
v 1.861053 0.892479 -0.802328
v 1.814268 0.518425 0.237621
v 2.020805 0.927120 -0.577346
v 1.947739 0.912059 -0.694963
v 1.971627 0.621525 0.040781
v 2.053516 1.090749 -0.299731
v 2.063595 1.024260 -0.372696
v 2.048845 1.030877 -0.439298
v 1.751128 0.818317 -0.875686
v 1.994083 1.006239 -0.062351
v 2.057328 0.980631 -0.199123
v 1.742989 1.024907 0.232098
v 1.898853 0.978402 0.082335
v 2.006065 1.014109 -0.521525
v 1.779674 1.147322 -0.697194
v 1.867809 1.237834 0.057207
v 2.008638 1.187974 -0.177992
v 2.026514 1.144999 -0.351454
v 1.804041 1.174072 0.139471
v 1.923761 1.241710 -0.026749
v 2.008535 1.227790 -0.283299
v 1.629294 1.293149 0.144820
v 1.947420 1.365469 -0.168935
v 1.964766 1.333753 -0.229562
v 1.815945 1.321188 0.060677
v 1.843751 1.386218 0.011697
v 1.878711 1.472289 -0.104283
v 1.749609 1.408298 -0.518083
v 1.825333 1.492342 -0.048458
v 1.851222 1.534375 -0.163267
v 1.752715 1.519972 -0.414682
v 1.097619 1.752134 0.151779
v 1.424723 1.837285 -0.065141
v 1.684864 1.730919 -0.163166
v 1.645932 1.697142 -0.322188
v 1.282027 1.846981 0.008773
v 1.476661 1.831160 -0.247969
v 1.317573 1.834087 -0.384469
v 1.110908 1.723448 -0.555716
v 1.182965 1.516380 -0.627946
v 1.106249 1.405000 -0.669467
v 1.202925 1.798808 0.081134
v 1.496091 1.836206 -0.137368
v 0.987121 1.686111 0.231788
v 1.303398 1.921481 -0.235276
v 1.087068 1.911793 -0.419992
v 0.947753 1.926796 -0.469789
v 1.146950 1.950634 -0.070445
v 1.206260 1.949928 -0.177238
v 0.938351 1.442343 -0.683652
v 0.876456 1.983410 -0.029995
v 1.121871 1.939076 -0.350914
v 0.853440 1.924528 -0.511241
v 0.869632 1.661142 -0.652173
v 0.822897 1.953999 0.022026
v 0.776418 2.004214 -0.071032
v 0.623475 2.007188 -0.229799
v 0.741799 1.924531 -0.555365
v 0.638284 1.916548 -0.607946
v 0.542378 1.991540 0.070582
v 0.458971 2.043542 0.034290
v 0.512183 2.039818 -0.021441
v 0.503475 1.924240 -0.647218
v 0.370911 1.993017 -0.505509
v 0.062182 1.833892 -0.862778
v 0.305305 2.064328 -0.217147
v 0.289052 1.937980 -0.716898
v 0.035685 1.979535 0.256522
v 0.068009 2.096429 0.123007
v -0.058998 2.133430 0.035801
v 0.057411 1.939699 -0.791179
v 0.017557 1.752128 0.453691
v -0.194305 2.171695 -0.183742
v -0.189935 2.163131 -0.288669
v -0.287022 2.148979 -0.465103
v -0.063448 1.691779 -0.966805
v -0.103137 1.856972 0.396953
v -0.073555 1.972901 0.288024
v -0.072322 2.085169 0.127227
v -0.082378 2.148900 -0.080713
v -0.094935 2.026092 -0.689240
v -0.058146 1.865401 -0.844952
v -0.183255 2.131715 -0.029165
v -0.187356 2.082849 -0.598665
v -0.174244 2.010731 -0.687751
v -0.221988 1.692519 -0.938257
v -0.696928 1.806916 0.208442
v -0.303865 2.153111 -0.180741
v -0.320036 2.182194 -0.299788
v -0.339831 2.128875 -0.522228
v -0.292589 2.072334 -0.595297
v -0.512888 1.764069 0.353009
v -0.766792 1.936983 -0.054508
v -0.823894 2.016227 -0.262302
v -0.778201 2.045605 -0.324644
v -0.445530 2.162031 -0.427231
v -0.469587 1.725664 -0.852907
v -0.621943 2.102866 -0.378139
v -0.525627 2.046814 -0.560261
v -0.630124 1.919022 -0.624112
v -0.931284 1.970683 -0.218467
v -0.928129 1.887123 -0.439089
v -0.822055 1.753902 -0.629624
v -1.150627 1.870209 -0.132196
v -0.996032 1.944142 -0.257907
v -0.996588 1.685040 0.255022
v -1.207860 1.735185 0.095053
v -1.246033 1.800023 -0.035808
v -1.006544 1.616701 -0.587411
v -1.157689 1.701473 0.158979
v -1.353016 1.518770 0.162079
v -1.423647 1.656907 -0.240305
v -1.503166 1.534009 -0.324073
v -1.274323 1.620063 -0.412148
v -1.197433 1.320365 -0.596584
v -1.389626 1.670045 -0.019798
v -1.205965 1.528887 -0.507486
v -1.457343 1.654274 -0.106796
v -1.807444 1.208419 -0.033910
v -1.817968 1.272911 -0.148066
v -1.755949 1.365072 -0.269455
v -1.806311 1.128280 0.044659
v -1.824358 1.167733 -0.439407
v -1.473298 1.053685 -0.700806
v -1.829423 1.277043 -0.284866
v -1.805883 1.256397 -0.359823
v -1.851540 1.189161 -0.324074
v -1.704981 1.022501 -0.629758
v -1.827396 0.753625 0.264533
v -1.791633 0.989251 0.158527
v -1.875730 0.971254 -0.104083
v -1.893197 0.977357 -0.375702
v -1.857369 1.109558 -0.457098
v -1.831433 1.036990 -0.550622
v -1.873586 0.880566 0.066809
v -1.901785 0.845673 -0.232859
v -1.880596 1.006239 -0.517824
v -1.748191 0.658266 0.356860
v -1.887196 0.940696 -0.568564
v -1.864015 0.790407 -0.719518
v -1.954052 0.634854 0.098869
v -1.923336 0.785826 -0.035217
v -1.963480 0.748552 -0.440991
v -1.663486 0.691000 -0.876076
v -1.945701 0.711476 -0.234842
v -1.911791 0.694146 -0.733687
v -2.005193 0.585790 -0.080425
v -1.964218 0.706267 -0.594263
v -1.896910 0.575445 -0.827217
v -1.877216 0.530634 0.305438
v -2.055731 0.523582 -0.358058
v -1.940157 0.456175 0.261696
v -2.052998 0.313939 0.164981
v -2.205198 0.126197 -0.538745
v -1.820376 0.371533 -0.941363
v -1.906125 0.348564 0.298745
v -2.141716 0.220605 0.049180
v -2.173427 0.221027 -0.054491
v -2.140654 0.133809 -0.687623
v -1.993311 0.320638 0.256403
v -2.240109 0.131595 -0.206722
v -2.236944 0.128206 -0.393578
v -1.951168 0.234650 -0.904235
v -1.860249 0.191268 0.315011
v -1.989248 0.224541 0.234571
v -2.098150 0.217623 0.131548
v -2.019025 0.133748 -0.860199
v -1.817588 0.145570 -1.004457
v -1.945457 -0.035099 0.143908
v -2.129292 0.130851 0.046380
v -2.208627 0.120976 -0.075359
v -1.797757 -0.044581 0.253310
v -2.045657 -0.066960 0.019423
v -2.229752 0.025124 -0.246192
v -2.231092 0.024135 -0.435792
v -2.145020 0.018011 -0.657669
v -1.794739 0.029486 -1.001315
v -2.117712 -0.239870 -0.367207
v -2.113518 -0.195600 -0.518345
v -2.027746 -0.200422 -0.680199
v -1.923300 -0.220191 -0.794433
v -2.088029 -0.168329 -0.125046
v -2.111646 -0.223207 -0.262589
v -1.702921 -0.455974 -0.880272
v -1.481542 -0.302705 0.339227
v -1.652046 -0.421151 0.140382
v -1.847841 -0.584441 -0.163109
v -1.799691 -0.804530 -0.443477
v -1.798515 -0.667294 -0.642099
v -1.898201 -0.599583 -0.264612
v -1.774943 -0.802222 -0.531891
v -1.684100 -0.699072 -0.761521
v -1.743657 -0.624938 -0.066359
v -1.737147 -0.918118 -0.332852
v -1.635492 -1.026003 -0.191397
v -1.553665 -0.975847 -0.032302
v -1.640471 -1.049913 -0.250627
v -1.553887 -0.991017 -0.691284
v -1.643249 -1.053272 -0.441801
v -1.335556 -1.020566 0.120241
v -1.400345 -1.139779 -0.170535
v -1.254526 -1.109562 -0.754136
v -1.097064 -1.051895 0.188114
v -1.005786 -1.109741 0.136724
v -1.112329 -1.150686 -0.047369
v -1.140376 -1.207251 -0.220457
v -0.943616 -1.307485 -0.602652
v -1.040069 -1.270972 -0.313476
v -1.007391 -1.303485 -0.406985
v -0.897760 -1.342650 -0.518849
v -0.952347 -1.173299 0.018734
v -0.490368 -1.425511 -0.749478
v -0.873733 -1.177122 0.079659
v -0.916142 -1.202190 -0.152319
v -0.910351 -1.273836 -0.245146
v -0.814468 -1.221392 0.042505
v -0.851550 -1.229865 -0.151473
v -0.779862 -1.364914 -0.298385
v -0.648889 -1.157406 0.113198
v -0.712187 -1.270601 0.023417
v -0.754395 -1.339130 -0.216457
v -0.741157 -1.412373 -0.398558
v -0.690462 -1.229345 -0.903091
v -0.542590 -1.455833 -0.163657
v -0.437613 -1.513036 -0.613371
v -0.539508 -1.193201 0.114636
v -0.461475 -1.443840 -0.026554
v -0.392378 -1.358223 0.063103
v -0.305677 -1.608557 -0.304035
v -0.282838 -1.618109 -0.425011
v -0.340252 -1.267350 -1.002706
v -0.306661 -1.543894 -0.056371
v -0.253118 -1.605888 -0.157048
v -0.087840 -1.589687 -0.724993
v 0.022827 -1.502925 -0.895378
v -0.182398 -1.328122 -0.995444
v 0.142377 -1.574952 0.103461
v -0.117055 -1.628720 -0.071310
v -0.072513 -1.678042 -0.515792
v 0.048486 -1.621954 0.008503
v -0.068471 -1.680352 -0.156086
v -0.074913 -1.696195 -0.390996
v -0.059346 -1.394414 -0.974881
v 0.054191 -1.668248 -0.070222
v 0.038745 -1.682082 -0.266346
v 0.041099 -1.597719 -0.722092
v 0.090528 -1.454244 -0.956141
v 0.098546 -1.378708 -0.986548
v 0.159530 -1.636445 0.018917
v 0.424716 -1.598623 -0.366035
v 0.445004 -1.565030 -0.599577
v 0.576877 -1.497385 -0.741092
v 0.439549 -1.468126 -0.845482
v 0.232750 -1.455759 -0.920342
v 0.261842 -1.544979 0.179724
v 0.256125 -1.613538 0.054817
v 0.354725 -1.316659 -0.992017
v 0.364759 -1.270305 0.414981
v 0.375633 -1.550116 0.185678
v 0.576228 -1.556887 0.058770
v 0.519777 -1.533561 0.137202
v 0.711844 -1.551071 -0.013557
v 0.556203 -1.432154 -0.831877
v 0.620745 -1.325159 0.277655
v 0.713360 -1.562294 -0.107598
v 0.783126 -1.509317 -0.610674
v 0.752061 -1.307310 -0.860591
v 0.816406 -1.356178 0.159413
v 0.725929 -1.491584 0.068251
v 0.946910 -1.532667 -0.369809
v 0.735376 -1.468841 -0.707606
v 0.815159 -1.527422 -0.052207
v 0.855072 -1.545064 -0.147243
v 0.884370 -1.515173 -0.517375
v 1.074123 -1.361094 -0.000266
v 1.152131 -1.406894 -0.149070
v 0.959444 -1.527771 -0.240730
v 1.002733 -1.427041 -0.583077
v 1.077489 -1.289163 -0.714653
v 1.293934 -1.363179 -0.297748
v 1.284176 -1.353214 -0.422690
v 1.359662 -1.011567 -0.816569
v 1.452819 -1.063458 0.077895
v 1.446637 -1.186956 -0.053631
v 1.425069 -1.206917 -0.564877
v 1.507459 -1.221084 -0.188361
v 0.640052 1.469801 0.457508
v 0.339268 1.539246 0.481121
v -0.563524 1.455452 0.472842
v -0.867864 1.219209 0.494217
v 0.758284 1.301203 0.457196
v 0.151790 1.216421 0.514657
v -0.083647 1.344094 0.546085
v -0.699020 1.327704 0.488320
v -1.061708 1.127394 0.496048
v 0.872664 1.189203 0.454799
v 0.398090 1.189322 0.480134
v 0.956312 1.096828 0.456085
v 1.039216 1.013255 0.460593
v -0.166056 1.080497 0.573808
v 1.115164 0.945170 0.462020
v 0.575324 0.959158 0.441667
v 0.225779 0.886112 0.479477
v -0.276660 0.934988 0.581607
v 1.427721 0.693357 0.492848
v 1.306954 0.778752 0.483894
v 1.199422 0.869313 0.471324
v 0.422879 0.730324 0.415182
v -0.295700 0.636981 0.623906
v -1.264579 0.743948 0.549234
v -0.172096 0.849984 0.583549
v -1.162842 0.702961 0.569950
v 0.759831 0.776664 0.436665
v 0.468060 0.652957 0.394730
v 0.070713 0.632513 0.532233
v -0.195393 0.561482 0.615820
v -0.545569 0.553278 0.625943
v 1.433344 0.543634 0.507652
v 1.345651 0.416028 0.539128
v 0.918681 0.520532 0.491549
v 0.330885 0.550244 0.465769
v 0.745175 0.446683 0.488350
v -0.235212 0.399669 0.647003
v -0.849572 0.155263 0.689687
v -1.079483 0.461268 0.618395
v 0.488987 0.175977 0.580854
v 0.191748 0.310358 0.578261
v -0.025659 0.305031 0.625956
v -1.429816 0.297086 0.477040
v -0.990446 0.246175 0.660633
v 1.352476 0.287232 0.538522
v 1.230706 0.152257 0.585443
v 0.976121 0.121910 0.589890
v -0.538512 0.015269 0.710875
v -0.149016 -0.137334 0.745904
v 1.479364 -0.116769 0.453548
v 1.104037 0.049787 0.582063
v 0.931169 0.008734 0.609578
v 0.816514 -0.030800 0.625570
v 0.571728 -0.161330 0.670911
v 0.100259 -0.160859 0.717933
v -0.379856 -0.072770 0.732868
v -0.788635 0.015819 0.704549
v -0.996651 0.031862 0.672349
v -1.521458 0.034446 0.456264
v 1.060886 -0.267998 0.494885
v 0.691086 -0.110902 0.645428
v -0.603959 -0.066651 0.699431
v -1.122354 -0.071264 0.615428
v -0.353492 -0.158787 0.708905
v -1.194809 -0.283410 0.512120
v 0.479198 -0.266149 0.680255
v -0.025627 -0.272706 0.734233
v -0.193179 -0.282363 0.697421
v -0.637079 -0.385077 0.544177
v 0.063834 -0.474558 0.684199
v -0.985781 -0.404437 0.477327
v 1.229499 -0.453095 0.417968
v 0.963217 -0.471984 0.480591
v -0.314869 -0.507273 0.572080
v 0.147482 -0.653854 0.645239
v -1.240072 -0.478252 0.418721
v 0.489460 -0.799620 0.592224
v -0.173167 -0.678517 0.543526
v 0.955317 -0.795811 0.446676
v 0.385303 -0.861791 0.594354
v -0.803200 -0.756248 0.301777
v -1.277313 -0.652369 0.335437
v 1.388393 -0.705770 0.353717
v 0.268729 -0.884881 0.600407
v -0.621680 -0.805412 0.322368
v 0.238883 -1.032904 0.549549
v 1.004211 -0.880422 0.390651
v -0.736308 -0.847563 0.280011
v -1.278880 -0.958605 0.217645
v -0.515610 1.344750 -0.916137
v -0.061223 1.451234 -1.045756
v 0.929510 1.247594 -0.706962
v -1.106403 1.170909 -0.786623
v -0.949891 1.287948 -0.801919
v 0.658614 1.297400 -0.836834
v 0.722122 1.127102 -0.898822
v 1.216803 1.086866 -0.806147
v -1.179447 1.098914 -0.796379
v -0.919446 0.994992 -0.818989
v -0.804258 1.018764 -0.838424
v -0.375718 1.147113 -0.995697
v 0.036740 1.184796 -1.130193
v 0.175749 0.997822 -1.159430
v 0.454055 1.172710 -0.990698
v 0.930392 1.078144 -0.851722
v -0.009702 0.842590 -1.191082
v 1.221765 0.910277 -0.914795
v -0.520987 0.912543 -0.989333
v 0.736921 0.957382 -0.993621
v -0.886837 0.929530 -0.840919
v -0.177069 0.721191 -1.172951
v 0.053848 0.907579 -1.195770
v 0.412175 0.882694 -1.133024
v 1.093370 0.750286 -1.027034
v -1.308130 0.594485 -0.955185
v -0.308653 0.622945 -1.164521
v 0.725182 0.838870 -1.060951
v -0.944701 0.550514 -1.021712
v -0.692576 0.693682 -1.012750
v -0.092091 0.676949 -1.197279
v 0.220281 0.666710 -1.132753
v 0.584902 0.774707 -1.097324
v 0.874248 0.743467 -1.070187
v 1.127256 0.664897 -1.053941
v -0.443506 0.445966 -1.186314
v -0.186725 0.561795 -1.206177
v 1.254244 0.562562 -1.044536
v 1.486990 0.574094 -1.037615
v -0.306791 0.456463 -1.215767
v -0.180403 0.422418 -1.196651
v 0.455297 0.360704 -1.025767
v 0.751070 0.325549 -0.992405
v 1.637251 0.479915 -1.026378
v -1.014801 0.136398 -1.169383
v -0.584405 0.195380 -1.233267
v 0.531982 0.246529 -0.987992
v 1.407418 0.244013 -1.028106
v -0.433200 0.280523 -1.239083
v -0.312986 0.294136 -1.221809
v -0.054820 0.210448 -1.156032
v 0.682804 0.152908 -0.973851
v 1.146716 0.098702 -1.015268
v -0.558855 0.087537 -1.268589
v -0.428296 0.065900 -1.246500
v 0.522920 0.111137 -0.992077
v -1.022006 0.033918 -1.182894
v -0.572406 0.017892 -1.272433
v -0.037115 -0.107159 -1.162437
v 1.428732 -0.350421 -1.038470
v 1.536563 -0.264651 -1.026563
v -1.567032 -0.199418 -1.046995
v -0.933262 -0.297603 -1.137290
v 0.907106 -0.190162 -1.032487
v -0.484356 -0.239100 -1.248746
v -0.277429 -0.297900 -1.223220
v 0.701771 -0.418945 -1.081315
v 1.225349 -0.399140 -1.052347
v 0.316940 -0.279859 -1.104467
v -1.472255 -0.497435 -1.014562
v -0.087902 -0.374738 -1.194779
v -0.603672 -0.585016 -1.177053
v -0.162737 -0.618802 -1.142618
v 0.327285 -0.596671 -1.146112
v -1.332999 -0.738228 -1.007685
v 0.207191 -0.580662 -1.146297
v 1.328927 -0.486745 -1.043849
v -1.210533 -0.844760 -1.019400
v 1.172471 -0.623947 -1.065531
v -0.725850 -0.947176 -1.109426
v 0.975293 -0.772407 -1.087158
v 1.204522 -0.729049 -1.039235
v 0.635052 -0.996318 -1.083024
v 0.751744 -0.887221 -1.106328
v 0.466150 -1.106264 -1.057083
v 1.078964 -0.985361 -0.949877
v -1.067549 -0.958450 -1.001942
v -0.662803 -1.067200 -1.058581
v -0.569404 -1.052946 -1.077533
v -0.445733 -1.132752 -1.058261
vn 0.5556 -0.5441 0.6287
vn 0.7068 -0.5368 0.4607
vn 0.4991 -0.5270 0.6878
vn 0.7144 -0.5209 0.4673
vn 0.4301 -0.6597 -0.6163
vn 0.4356 -0.5738 -0.6935
vn 0.6588 -0.6150 -0.4333
vn 0.6769 -0.6097 0.4124
vn 0.6585 -0.4217 -0.6234
vn 0.8411 -0.4300 -0.3280
vn 0.5801 -0.2334 0.7804
vn 0.7915 -0.5630 0.2379
vn 0.7013 -0.6045 0.3779
vn 0.3880 -0.2695 0.8814
vn 0.4147 -0.4187 0.8079
vn 0.9480 -0.2712 -0.1663
vn 0.9130 -0.4073 0.0232
vn 0.9004 -0.4270 -0.0839
vn 0.8517 -0.2575 -0.4565
vn 0.6743 -0.6143 0.4099
vn 0.7213 -0.5858 0.3695
vn 0.6599 -0.5979 0.4551
vn 0.9109 -0.4063 0.0717
vn 0.5106 -0.3556 -0.7829
vn 0.4178 -0.2362 -0.8773
vn 0.6681 -0.2410 -0.7039
vn 0.8951 -0.4154 0.1619
vn 0.9353 -0.2257 -0.2724
vn 0.6268 -0.4696 0.6218
vn 0.6129 -0.0652 0.7874
vn 0.6580 -0.4893 0.5724
vn 0.6879 -0.2988 0.6614
vn 0.8021 -0.5236 0.2873
vn 0.9432 -0.3319 -0.0179
vn 0.6006 0.0482 0.7981
vn 0.6280 -0.0042 0.7782
vn 0.9531 -0.3026 0.0049
vn 0.8228 -0.2326 0.5185
vn 0.9327 -0.2936 -0.2093
vn 0.5734 0.0842 0.8149
vn 0.8860 -0.1264 0.4460
vn 0.8765 -0.2879 -0.3859
vn 0.9054 -0.3487 -0.2421
vn 0.9866 -0.1632 -0.0057
vn 0.9406 -0.2878 -0.1802
vn 0.5190 -0.1288 -0.8450
vn 0.7647 -0.1585 -0.6246
vn 0.7307 0.1366 0.6689
vn 0.8918 0.0081 0.4525
vn 0.9348 -0.3308 -0.1290
vn 0.6885 0.1015 0.7181
vn 0.5700 -0.0322 0.8210
vn 0.8406 -0.0638 -0.5379
vn 0.9823 0.0803 0.1691
vn 0.9956 -0.0812 -0.0477
vn 0.9420 -0.1739 -0.2869
vn 0.6730 0.0662 -0.7367
vn 0.5470 -0.0147 -0.8370
vn 0.5902 -0.0770 0.8036
vn 0.9644 0.1210 -0.2353
vn 0.6478 0.0556 0.7598
vn 0.6416 0.0307 0.7664
vn 0.8949 0.1748 0.4107
vn 0.7856 0.1758 0.5932
vn 0.6654 0.0268 0.7460
vn 0.9819 0.1885 -0.0195
vn 0.9640 0.1741 0.2011
vn 0.8074 0.1128 0.5791
vn 0.9135 0.1030 -0.3937
vn 0.8386 0.2940 -0.4587
vn 0.3876 0.2358 -0.8912
vn 0.5483 0.3405 -0.7638
vn 0.6084 0.0067 0.7936
vn 0.6616 0.0039 0.7498
vn 0.4538 0.2615 0.8519
vn 0.9664 0.2275 -0.1194
vn 0.9672 0.2538 0.0138
vn 0.7469 0.3239 -0.5807
vn 0.9499 0.1568 0.2705
vn 0.7665 0.1218 0.6306
vn 0.5019 0.2665 0.8229
vn 0.7188 0.4932 -0.4901
vn 0.4733 0.4899 -0.7322
vn 0.2546 0.4037 -0.8788
vn 0.8660 0.1437 0.4789
vn 0.7269 0.2934 0.6209
vn 0.9272 0.2576 0.2719
vn 0.8656 0.3592 -0.3489
vn 0.8509 0.4124 -0.3255
vn 0.5310 0.2981 0.7932
vn 0.8316 0.2514 0.4952
vn 0.8993 0.4145 -0.1397
vn 0.5128 0.3791 0.7703
vn 0.8994 0.3905 0.1965
vn 0.8211 0.4541 0.3457
vn 0.6049 0.6295 -0.4877
vn 0.4845 0.4897 -0.7249
vn 0.6876 0.4740 -0.5500
vn 0.2935 0.3771 0.8784
vn 0.5740 0.5066 0.6434
vn 0.6198 0.3870 0.6827
vn 0.8862 0.4460 -0.1256
vn 0.8263 0.5609 -0.0513
vn 0.6537 0.6157 0.4400
vn 0.4546 0.5545 -0.6970
vn 0.7102 0.4773 -0.5175
vn 0.1594 0.4605 -0.8732
vn 0.3206 -0.5054 0.8011
vn 0.6248 -0.7586 -0.1847
vn 0.7364 -0.6652 -0.1230
vn 0.6615 -0.7454 0.0824
vn 0.5556 -0.7123 -0.4289
vn 0.3660 -0.5653 -0.7392
vn 0.3515 -0.3724 -0.8589
vn 0.2541 -0.1084 -0.9611
vn 0.3800 0.0589 -0.9231
vn 0.1172 0.3313 -0.9362
vn 0.2791 0.3850 0.8797
vn 0.2627 0.5480 0.7941
vn 0.4043 0.7384 0.5397
vn 0.3281 0.6715 0.6644
vn 0.5094 0.7560 -0.4111
vn 0.4473 0.8434 -0.2976
vn 0.6066 0.7771 0.1678
vn 0.3598 0.7286 -0.5828
vn 0.2535 0.4646 -0.8484
vn 0.0417 0.4007 -0.9153
vn 0.0743 0.2492 -0.9656
vn 0.1431 0.4437 -0.8847
vn 0.2875 0.5818 0.7608
vn 0.4576 0.8690 0.1886
vn 0.2817 0.4943 0.8224
vn 0.2713 0.2838 0.9197
vn 0.3068 0.7466 -0.5903
vn 0.1509 0.3343 -0.9303
vn 0.2390 0.9706 0.0297
vn 0.2195 0.9026 0.3703
vn 0.3513 0.9200 -0.1739
vn 0.1664 0.9001 0.4026
vn 0.1786 0.7444 0.6434
vn 0.2248 0.9225 -0.3139
vn 0.2061 0.8209 -0.5325
vn 0.1955 0.1713 -0.9656
vn 0.2728 0.3164 -0.9085
vn 0.3413 0.2740 0.8991
vn 0.3377 0.3349 0.8797
vn 0.1383 0.9902 0.0186
vn 0.2109 0.8363 -0.5061
vn 0.2381 0.7200 -0.6518
vn 0.2270 0.8300 -0.5095
vn 0.1432 0.9761 -0.1634
vn 0.2193 0.7143 0.6646
vn 0.1830 0.9799 0.0790
vn 0.2111 0.9153 0.3431
vn 0.1870 0.9535 -0.2362
vn 0.1930 0.9716 -0.1369
vn 0.3169 0.3785 -0.8697
vn 0.1846 0.5023 -0.8447
vn 0.1223 0.8730 0.4722
vn 0.2476 0.4511 0.8574
vn 0.1686 0.7056 0.6883
vn 0.0685 0.4784 0.8755
vn 0.2443 0.7444 -0.6215
vn 0.1088 0.9466 -0.3034
vn 0.2219 0.7927 -0.5678
vn -0.0448 0.7546 0.6547
vn -0.0512 0.5858 0.8088
vn -0.1522 0.8375 0.5249
vn -0.0273 0.9606 0.2766
vn 0.0883 0.9898 0.1117
vn 0.1479 0.9847 -0.0925
vn -0.0151 0.9984 0.0538
vn 0.0199 0.8309 -0.5560
vn 0.1205 0.7132 -0.6905
vn -0.1019 0.6128 -0.7836
vn 0.0280 0.4317 -0.9016
vn -0.2019 0.9175 0.3427
vn 0.1642 0.9058 -0.3907
vn -0.1667 0.6926 -0.7018
vn -0.2155 0.4322 -0.8757
vn -0.2604 0.8092 0.5267
vn -0.2020 0.9471 0.2494
vn -0.0475 0.9964 0.0699
vn -0.1217 0.7666 -0.6305
vn -0.0268 0.8509 -0.5247
vn -0.2524 0.6486 0.7180
vn -0.2659 0.8547 0.4459
vn -0.4019 0.9070 -0.1255
vn -0.3159 0.9114 0.2638
vn -0.2339 0.9432 -0.2361
vn -0.2980 0.4754 -0.8277
vn -0.3232 0.7215 -0.6123
vn -0.3790 0.9094 -0.1713
vn -0.4021 0.6043 -0.6879
vn -0.1834 0.4193 0.8891
vn -0.2515 0.6134 0.7487
vn -0.3139 0.9232 0.2218
vn -0.4737 0.5023 -0.7234
vn -0.4781 0.8555 -0.1986
vn -0.2946 0.6219 0.7255
vn -0.3137 0.4170 0.8530
vn -0.4058 0.7123 0.5726
vn -0.4319 0.8946 0.1150
vn -0.4650 0.8246 0.3222
vn -0.3790 0.2527 -0.8903
vn -0.4993 0.4088 -0.7639
vn -0.3660 0.6292 0.6857
vn -0.4879 0.6773 -0.5507
vn -0.5691 0.7563 -0.3227
vn -0.4979 0.5040 0.7057
vn -0.4627 0.5131 -0.7230
vn -0.6027 0.6520 0.4601
vn -0.4596 0.4454 -0.7684
vn -0.4525 0.3966 -0.7987
vn -0.4906 0.4077 -0.7701
vn -0.6456 0.7510 0.1387
vn -0.3185 0.3831 0.8671
vn -0.6363 0.5787 0.5101
vn 0.7378 0.6748 -0.0156
vn -0.3116 0.4222 -0.8513
vn -0.3078 0.5583 -0.7704
vn -0.5123 0.6356 -0.5775
vn -0.6857 0.7160 0.1313
vn -0.5761 0.4798 0.6617
vn -0.4694 0.4305 0.7709
vn -0.8136 0.4323 0.3888
vn -0.7043 0.6968 -0.1361
vn -0.6540 0.6694 -0.3524
vn -0.7797 0.3977 0.4836
vn -0.3569 0.5356 -0.7653
vn -0.3041 0.5919 -0.7465
vn -0.8679 0.4776 -0.1362
vn -0.8688 0.4454 0.2165
vn -0.6841 0.5685 -0.4569
vn -0.9495 0.2964 -0.1026
vn -0.4379 0.4873 -0.7555
vn -0.3547 0.5642 -0.7456
vn -0.6848 0.3412 0.6439
vn -0.6482 0.4012 0.6472
vn -0.9044 0.2226 -0.3640
vn -0.9745 0.2104 0.0778
vn -0.7978 0.4684 -0.3795
vn -0.9724 0.2298 0.0410
vn -0.5316 0.5447 -0.6486
vn -0.9669 0.2469 0.0650
vn -0.8616 0.3909 -0.3240
vn -0.4570 0.1847 0.8701
vn -0.8243 0.3926 -0.4079
vn -0.5411 0.4874 -0.6853
vn -0.9434 0.3209 0.0844
vn -0.9431 0.3324 0.0111
vn -0.9218 0.3826 0.0628
vn -0.7743 0.3759 -0.5091
vn -0.9107 0.3417 -0.2323
vn -0.9044 0.4174 0.0884
vn -0.8891 0.3501 0.2947
vn -0.6046 0.3512 -0.7149
vn -0.2709 0.4042 -0.8737
vn -0.5851 0.1498 0.7970
vn -0.9039 0.4271 0.0219
vn -0.8289 0.2090 0.5189
vn -0.7303 0.2158 0.6482
vn -0.4442 0.0145 0.8958
vn -0.9256 0.1018 0.3646
vn -0.9144 0.2957 0.2763
vn -0.9408 0.1344 -0.3111
vn -0.9788 0.1851 -0.0878
vn -0.8697 0.1068 -0.4818
vn -0.9846 0.1394 0.1057
vn -0.3318 0.2780 -0.9015
vn -0.6329 0.1939 -0.7496
vn -0.4407 -0.1511 0.8848
vn -0.3678 0.0240 0.9296
vn -0.6260 -0.2116 0.7506
vn -0.5055 -0.1908 0.8415
vn -0.6708 0.0210 0.7413
vn -0.7916 -0.0685 0.6072
vn -0.7273 -0.0322 -0.6856
vn -0.6116 -0.4017 0.6816
vn -0.8038 -0.2571 0.5364
vn -0.9104 -0.0767 0.4066
vn -0.4182 0.0788 -0.9049
vn -0.5399 -0.3787 0.7517
vn -0.4359 -0.1682 0.8841
vn -0.6982 -0.4210 0.5790
vn -0.9469 -0.2875 0.1438
vn -0.9635 -0.2135 -0.1615
vn -0.5314 -0.3544 0.7694
vn -0.7882 -0.4431 0.4270
vn -0.8604 -0.4209 -0.2874
vn -0.8895 -0.4567 -0.0134
vn -0.8451 -0.2402 -0.4776
vn -0.8612 -0.4570 0.2223
vn -0.7667 -0.3840 -0.5145
vn -0.6716 -0.3408 -0.6579
vn -0.4963 -0.1928 -0.8465
vn -0.5973 -0.3444 -0.7243
vn -0.4459 -0.2396 -0.8624
vn -0.7326 -0.4211 0.5348
vn -0.6037 -0.4090 0.6843
vn -0.6142 -0.3257 0.7188
vn -0.8294 -0.4666 0.3073
vn -0.7602 -0.4390 -0.4790
vn -0.7978 -0.4959 -0.3428
vn -0.6562 -0.4129 -0.6315
vn -0.6939 -0.3227 0.6438
vn -0.7263 -0.5645 0.3923
vn -0.8564 -0.4978 -0.1369
vn -0.8516 -0.5171 0.0862
vn -0.5515 -0.4318 0.7137
vn -0.7002 -0.4118 0.5832
vn -0.4939 -0.3545 0.7939
vn -0.7256 -0.6648 0.1777
vn -0.6183 -0.5790 -0.5314
vn -0.4486 -0.5430 -0.7099
vn -0.7008 -0.6889 -0.1849
vn -0.1934 0.2321 -0.9533
vn -0.4725 -0.8221 -0.3176
vn -0.4498 -0.8899 -0.0760
vn -0.4670 -0.8619 0.1976
vn -0.4667 -0.7506 0.4677
vn -0.5217 -0.5895 0.6167
vn -0.3050 -0.3170 0.8981
vn -0.3456 -0.7249 0.5958
vn -0.1571 -0.6802 0.7160
vn -0.3135 -0.5060 0.8036
vn -0.2424 -0.9198 0.3086
vn -0.1842 -0.9332 0.3085
vn -0.1482 -0.9017 0.4061
vn -0.0679 -0.4959 0.8657
vn -0.2617 -0.9130 0.3129
vn -0.3280 -0.9388 0.1053
vn -0.3683 -0.9228 -0.1130
vn -0.3526 -0.8902 -0.2885
vn -0.2899 -0.9237 0.2504
vn -0.1591 -0.8131 0.5600
vn -0.1878 -0.7946 0.5774
vn -0.3011 -0.7850 0.5414
vn -0.2681 -0.8987 0.3471
vn -0.4261 -0.8334 0.3521
vn -0.2603 -0.8416 0.4731
vn -0.4216 -0.8465 0.3252
vn -0.1586 -0.6582 0.7360
vn -0.3457 -0.7455 0.5698
vn -0.4833 -0.7558 0.4418
vn -0.4166 -0.9021 0.1128
vn -0.3154 -0.8053 -0.5019
vn -0.3499 -0.8832 -0.3124
vn -0.3141 -0.4871 0.8149
vn -0.1940 -0.4853 0.8525
vn -0.2684 -0.6134 0.7428
vn -0.4783 -0.8281 0.2924
vn -0.3952 -0.7171 0.5740
vn -0.3456 -0.5463 0.7630
vn -0.3689 -0.9241 -0.0998
vn -0.3935 -0.8864 0.2438
vn -0.3545 -0.6394 0.6823
vn -0.1950 -0.8671 -0.4583
vn -0.2909 -0.7069 -0.6447
vn -0.0810 -0.7984 -0.5967
vn -0.1795 -0.5970 -0.7819
vn -0.1331 -0.5152 -0.8467
vn -0.3684 -0.7833 0.5007
vn -0.2913 -0.8283 0.4785
vn -0.0810 -0.9698 -0.2303
vn -0.2728 -0.6047 0.7482
vn -0.3948 -0.9149 0.0840
vn -0.1764 -0.9633 0.2023
vn -0.0622 -0.9961 -0.0631
vn -0.1398 -0.5216 -0.8417
vn 0.1480 -0.9890 0.0049
vn -0.0139 -0.9617 0.2736
vn 0.0717 -0.9144 -0.3985
vn 0.0263 -0.3107 -0.9501
vn 0.0715 -0.6150 -0.7853
vn 0.0459 -0.3111 -0.9493
vn -0.2133 -0.7981 0.5635
vn 0.0189 -0.9223 0.3861
vn 0.2107 -0.8591 -0.4664
vn 0.1593 -0.9619 -0.2221
vn 0.1538 -0.7051 -0.6922
vn 0.2182 -0.7537 -0.6199
vn -0.1413 -0.7440 0.6531
vn -0.1461 -0.5244 0.8389
vn -0.1986 -0.7486 0.6326
vn 0.0738 -0.9358 0.3446
vn 0.1622 -0.9848 -0.0627
vn 0.1714 -0.4835 -0.8584
vn 0.0862 -0.5578 0.8255
vn 0.1725 -0.4366 0.8830
vn 0.1219 -0.7986 0.5894
vn 0.2674 -0.7893 0.5527
vn 0.3177 -0.5713 0.7567
vn 0.2673 -0.9129 0.3086
vn 0.2556 -0.8896 -0.3785
vn 0.2892 -0.6675 -0.6862
vn 0.3007 -0.9464 -0.1179
vn 0.3107 -0.7597 -0.5712
vn 0.3581 -0.7374 0.5728
vn 0.3603 -0.6323 0.6858
vn 0.1161 -0.9888 0.0940
vn 0.3300 -0.8623 0.3840
vn 0.2600 -0.9501 0.1722
vn 0.2874 -0.9089 -0.3021
vn 0.4037 -0.7284 0.5536
vn 0.4436 -0.8343 0.3274
vn 0.3444 -0.9317 0.1152
vn 0.4014 -0.7905 -0.4625
vn 0.4644 -0.8501 -0.2481
vn 0.4801 -0.8764 0.0383
vn 0.5765 -0.5689 0.5865
vn 0.3768 -0.6826 -0.6261
vn 0.4583 -0.7588 -0.4628
vn 0.5557 -0.6640 0.5004
vn 0.6184 -0.7211 0.3123
vn -0.1694 -0.5238 -0.8348
vn -0.0196 -0.2866 -0.9579
vn 0.1922 -0.4358 -0.8793
vn 0.3104 -0.5960 -0.7406
vn 0.3014 -0.4844 -0.8213
vn 0.7294 -0.5290 0.4337
vn 0.1283 0.1409 0.9817
vn 0.1519 -0.0140 0.9883
vn 0.2103 0.2015 0.9566
vn 0.0161 0.1200 0.9926
vn -0.1886 0.2898 0.9383
vn 0.1552 0.0998 0.9828
vn 0.1827 0.1478 0.9720
vn 0.1168 -0.0666 0.9909
vn 0.1412 0.1841 0.9727
vn 0.0096 -0.1003 0.9949
vn 0.1623 0.1795 0.9703
vn -0.1533 0.2689 0.9509
vn -0.0349 0.1105 0.9933
vn 0.0547 0.0688 0.9961
vn -0.4139 0.4032 0.8162
vn -0.4158 0.2574 0.8723
vn 0.2821 0.2286 0.9317
vn 0.1118 0.2876 0.9512
vn 0.1068 0.2695 0.9570
vn -0.1024 0.0206 0.9945
vn 0.2242 -0.0756 0.9716
vn 0.2097 -0.1089 0.9717
vn 0.1623 0.0686 0.9844
vn -0.1305 0.2819 0.9505
vn 0.0555 0.1314 0.9898
vn -0.0993 0.1722 0.9800
vn -0.2926 0.1600 0.9428
vn 0.1282 0.2199 0.9671
vn 0.0892 0.1022 0.9908
vn 0.2792 0.1494 0.9485
vn 0.2054 0.1400 0.9686
vn -0.0284 0.1584 0.9870
vn 0.4061 0.0411 0.9129
vn 0.1460 0.0955 0.9847
vn -0.1019 0.1825 0.9779
vn -0.0747 0.2881 0.9547
vn 0.0869 0.1560 0.9839
vn -0.0815 0.1114 0.9904
vn -0.2253 0.0917 0.9700
vn 0.1854 0.2693 0.9450
vn 0.2552 0.2905 0.9222
vn 0.1960 0.2112 0.9576
vn 0.0232 0.1744 0.9844
vn 0.1820 -0.0378 0.9826
vn 0.0749 0.3020 0.9504
vn -0.0526 0.0711 0.9961
vn -0.2377 0.0906 0.9671
vn 0.4540 -0.0209 0.8908
vn 0.3964 -0.0987 0.9128
vn 0.1457 -0.1688 0.9748
vn 0.1351 0.0014 0.9908
vn 0.1643 -0.0736 0.9837
vn 0.1871 0.0394 0.9816
vn 0.1163 0.1310 0.9845
vn -0.0159 -0.0138 0.9998
vn -0.0885 -0.0607 0.9942
vn -0.2470 -0.0970 0.9641
vn -0.1042 -0.1558 0.9823
vn -0.4263 -0.1463 0.8927
vn 0.2341 -0.2322 0.9441
vn 0.1798 0.0021 0.9837
vn -0.1263 -0.2696 0.9547
vn -0.2945 -0.2426 0.9244
vn -0.2771 -0.3602 0.8908
vn 0.1787 -0.1072 0.9780
vn -0.2011 -0.3292 0.9226
vn -0.0278 -0.1645 0.9860
vn -0.1715 -0.3392 0.9250
vn -0.1893 -0.4357 0.8800
vn -0.2773 -0.3790 0.8829
vn -0.1057 -0.4520 0.8857
vn 0.1992 -0.1682 0.9654
vn 0.2748 -0.1517 0.9495
vn 0.1914 -0.1996 0.9610
vn -0.2542 -0.3930 0.8837
vn -0.0858 -0.2386 0.9673
vn -0.0687 -0.2615 0.9627
vn 0.2252 -0.2446 0.9431
vn 0.2740 -0.2743 0.9218
vn -0.1164 -0.3918 0.9126
vn 0.2418 -0.2830 0.9281
vn -0.0098 -0.2760 0.9611
vn 0.1519 -0.2745 0.9495
vn -0.2705 -0.3427 0.8997
vn -0.2894 -0.3477 0.8918
vn -0.0706 -0.3972 0.9150
vn 0.2905 -0.4423 0.8485
vn -0.1689 -0.2710 0.9476
vn 0.1658 0.3901 0.9057
vn 0.0157 0.2325 0.9725
vn -0.1753 0.2952 0.9392
vn -0.3088 -0.3618 0.8796
vn -0.2865 0.2009 -0.9368
vn -0.3532 0.3147 -0.8810
vn -0.3759 0.3186 -0.8702
vn -0.0964 0.2697 -0.9581
vn -0.3133 0.1196 -0.9421
vn 0.3751 0.2123 -0.9024
vn 0.4272 0.3592 -0.8297
vn 0.3666 0.2843 -0.8859
vn 0.2180 0.3896 -0.8948
vn 0.3576 0.4856 -0.7977
vn 0.0616 0.5128 -0.8563
vn -0.1029 0.1873 -0.9769
vn -0.2743 0.3747 -0.8857
vn -0.2863 0.1741 -0.9422
vn -0.0261 0.2705 -0.9624
vn -0.3447 0.1740 -0.9225
vn 0.2143 0.2582 -0.9420
vn 0.2345 0.3418 -0.9100
vn 0.3371 0.3746 -0.8637
vn 0.2096 0.5776 -0.7890
vn -0.0372 0.1619 -0.9861
vn -0.2073 0.4430 -0.8722
vn 0.2695 0.4757 -0.8373
vn 0.1169 0.4940 -0.8615
vn -0.1775 0.3404 -0.9234
vn -0.1904 0.4420 -0.8766
vn -0.3508 0.2736 -0.8956
vn -0.0185 0.0694 -0.9974
vn 0.2191 0.1394 -0.9657
vn 0.1621 0.4310 -0.8877
vn -0.1011 0.3651 -0.9255
vn -0.2305 0.4531 -0.8612
vn -0.2518 0.2309 -0.9398
vn -0.2540 0.2957 -0.9209
vn 0.1908 0.3610 -0.9128
vn -0.2621 0.3879 -0.8836
vn -0.1520 0.4202 -0.8946
vn 0.1853 -0.1439 -0.9721
vn 0.1550 -0.0689 -0.9855
vn 0.1071 0.0920 -0.9900
vn 0.0213 0.0453 -0.9987
vn -0.0916 0.0646 -0.9937
vn -0.2041 0.2835 -0.9370
vn -0.0063 0.0837 -0.9965
vn 0.0244 -0.0066 -0.9997
vn 0.0662 0.1000 -0.9928
vn 0.1054 0.1709 -0.9796
vn -0.0782 0.1193 -0.9898
vn 0.1986 -0.0502 -0.9788
vn 0.2113 -0.1695 -0.9626
vn -0.0153 -0.1301 -0.9914
vn 0.1959 0.0719 -0.9780
vn -0.1761 0.2312 -0.9568
vn 0.1587 -0.0915 -0.9831
vn -0.0006 -0.0197 -0.9998
vn -0.1255 0.2560 -0.9585
vn 0.1405 0.0550 -0.9886
vn -0.0133 0.1833 -0.9830
vn 0.2520 -0.0072 -0.9677
vn -0.0500 0.0168 -0.9986
vn 0.0039 0.0362 -0.9993
vn 0.1617 0.0427 -0.9859
vn 0.0272 0.1909 -0.9812
vn 0.1687 0.0993 -0.9806
vn -0.2458 -0.0177 -0.9692
vn -0.0451 -0.0295 -0.9985
vn 0.2261 0.0598 -0.9723
vn 0.1901 -0.1172 -0.9747
vn -0.1948 -0.1467 -0.9698
vn -0.1821 -0.0180 -0.9831
vn 0.0026 0.1413 -0.9900
vn 0.1686 -0.0747 -0.9829
vn -0.0269 -0.1240 -0.9919
vn 0.1240 -0.0922 -0.9880
vn 0.0851 0.1575 -0.9838
vn 0.0558 0.0595 -0.9967
vn 0.1721 0.1503 -0.9735
vn -0.3507 -0.2073 -0.9133
vn -0.2570 -0.1935 -0.9468
vn -0.0774 -0.1646 -0.9833
vn 0.1171 -0.0478 -0.9920
vn 0.0343 -0.2027 -0.9786
vn 0.2125 -0.0989 -0.9721
vn 0.1705 -0.0592 -0.9836
vn 0.0558 -0.0317 -0.9979
vn -0.1365 -0.2991 -0.9444
vn 0.2849 -0.2997 -0.9105
vn 0.1898 -0.2038 -0.9604
vn -0.3538 -0.2568 -0.8994
vn -0.5006 -0.3158 -0.8060
vn -0.0175 -0.2230 -0.9747
vn 0.0807 -0.2935 -0.9526
vn 0.0331 -0.2599 -0.9651
vn 0.1492 -0.2415 -0.9588
vn -0.2915 -0.3218 -0.9008
vn -0.2785 -0.5576 -0.7820
vn -0.0283 -0.3044 -0.9521
vn -0.2776 -0.6175 -0.7360
vn -0.2106 -0.5345 -0.8185
vn -0.3206 -0.7029 -0.6349
vn -0.4431 -0.7635 -0.4698
vn -0.3439 -0.7787 -0.5247
vn 0.2350 -0.8977 0.3727
vt 0.408756 0.000245
vt 0.411777 0.021768
vt 0.394296 0.006892
vt 0.459400 0.020982
vt 0.581838 0.004144
vt 0.597243 0.013860
vt 0.560488 0.021237
vt 0.426362 0.042252
vt 0.586335 0.033844
vt 0.556755 0.032264
vt 0.390446 0.062556
vt 0.517069 0.038221
vt 0.498904 0.046574
vt 0.382779 0.059940
vt 0.377621 0.033756
vt 0.526957 0.046875
vt 0.510761 0.048796
vt 0.533632 0.037529
vt 0.586680 0.071065
vt 0.481034 0.054620
vt 0.465813 0.062451
vt 0.456318 0.034885
vt 0.493715 0.056400
vt 0.607262 0.043412
vt 0.617326 0.065733
vt 0.608763 0.066995
vt 0.479736 0.062500
vt 0.550097 0.068917
vt 0.412493 0.062330
vt 0.404795 0.070313
vt 0.441726 0.070313
vt 0.424543 0.070313
vt 0.458177 0.070312
vt 0.474313 0.070312
vt 0.381774 0.095686
vt 0.426239 0.078279
vt 0.460938 0.082679
vt 0.450278 0.080216
vt 0.516089 0.084113
vt 0.398992 0.105589
vt 0.457685 0.094745
vt 0.571903 0.090779
vt 0.548765 0.094710
vt 0.488062 0.108950
vt 0.477619 0.082043
vt 0.616518 0.099382
vt 0.594168 0.109313
vt 0.455059 0.116538
vt 0.464966 0.108201
vt 0.504108 0.109355
vt 0.447053 0.122522
vt 0.405808 0.121541
vt 0.574003 0.118419
vt 0.491396 0.117436
vt 0.510581 0.117514
vt 0.539980 0.117188
vt 0.598822 0.120208
vt 0.614749 0.110217
vt 0.376606 0.133185
vt 0.375365 0.117188
vt 0.535675 0.124915
vt 0.439876 0.129770
vt 0.425851 0.137699
vt 0.474145 0.152329
vt 0.430367 0.146427
vt 0.410927 0.146153
vt 0.524105 0.147884
vt 0.504127 0.154514
vt 0.440569 0.162628
vt 0.554944 0.125361
vt 0.555937 0.186759
vt 0.623956 0.158089
vt 0.597231 0.185250
vt 0.382626 0.156333
vt 0.398921 0.154268
vt 0.379207 0.184622
vt 0.520855 0.193628
vt 0.506956 0.199451
vt 0.581723 0.185012
vt 0.489187 0.190652
vt 0.432457 0.194423
vt 0.402468 0.199996
vt 0.548495 0.195420
vt 0.587152 0.211318
vt 0.613102 0.178996
vt 0.459966 0.194557
vt 0.441334 0.217065
vt 0.485625 0.208371
vt 0.532889 0.195000
vt 0.518713 0.204377
vt 0.423867 0.213804
vt 0.457840 0.215541
vt 0.505093 0.211241
vt 0.441340 0.226542
vt 0.483927 0.223526
vt 0.474569 0.233273
vt 0.521143 0.249867
vt 0.567913 0.229371
vt 0.549148 0.234198
vt 0.411965 0.233668
vt 0.463534 0.237327
vt 0.455881 0.229690
vt 0.494918 0.220628
vt 0.484752 0.238792
vt 0.476563 0.243843
vt 0.547074 0.245333
vt 0.528168 0.242108
vt 0.602106 0.218798
vt 0.375000 0.000000
vt 0.531773 0.000000
vt 0.545213 0.014628
vt 0.515258 0.004821
vt 0.553880 0.006864
vt 0.618124 0.002798
vt 0.623022 0.037494
vt 0.625000 0.094721
vt 0.625000 0.127804
vt 0.625000 0.190259
vt 0.376247 0.220664
vt 0.424011 0.294862
vt 0.470262 0.277880
vt 0.459539 0.286465
vt 0.510956 0.258626
vt 0.498132 0.272298
vt 0.485360 0.258728
vt 0.517231 0.283088
vt 0.562516 0.292378
vt 0.619211 0.258903
vt 0.612451 0.279794
vt 0.600188 0.246263
vt 0.442507 0.289951
vt 0.480963 0.273753
vt 0.406095 0.301148
vt 0.406305 0.261538
vt 0.528400 0.301189
vt 0.586666 0.279775
vt 0.486038 0.296478
vt 0.468923 0.298708
vt 0.495894 0.288185
vt 0.460938 0.317082
vt 0.449156 0.321444
vt 0.515120 0.300117
vt 0.544653 0.317763
vt 0.614464 0.298075
vt 0.588432 0.310083
vt 0.378365 0.305697
vt 0.377558 0.275683
vt 0.472013 0.324138
vt 0.537823 0.311137
vt 0.561173 0.332996
vt 0.552957 0.324974
vt 0.496434 0.334617
vt 0.439645 0.340838
vt 0.463676 0.342363
vt 0.452999 0.346471
vt 0.541650 0.351721
vt 0.494137 0.356949
vt 0.613785 0.359935
vt 0.597351 0.373677
vt 0.442747 0.374085
vt 0.376655 0.329349
vt 0.421578 0.374432
vt 0.386627 0.375150
vt 0.576981 0.358139
vt 0.529218 0.396347
vt 0.570265 0.342339
vt 0.417137 0.382825
vt 0.397378 0.385035
vt 0.442612 0.383172
vt 0.457207 0.381820
vt 0.473106 0.382812
vt 0.503670 0.389747
vt 0.488639 0.390494
vt 0.566132 0.382813
vt 0.583175 0.374888
vt 0.594224 0.382812
vt 0.618677 0.382216
vt 0.465477 0.390771
vt 0.551839 0.390625
vt 0.566659 0.391150
vt 0.615483 0.393678
vt 0.420453 0.427886
vt 0.488210 0.398438
vt 0.506089 0.398468
vt 0.551392 0.398665
vt 0.539263 0.400461
vt 0.398438 0.415771
vt 0.464335 0.431145
vt 0.510806 0.430458
vt 0.499449 0.434170
vt 0.524546 0.406250
vt 0.603986 0.413735
vt 0.546582 0.414734
vt 0.518412 0.419087
vt 0.564091 0.423082
vt 0.388108 0.405662
vt 0.401841 0.441909
vt 0.491554 0.442514
vt 0.576068 0.439932
vt 0.498380 0.447280
vt 0.407369 0.456251
vt 0.384844 0.463375
vt 0.440755 0.469457
vt 0.480265 0.459798
vt 0.460962 0.469043
vt 0.624896 0.439670
vt 0.576307 0.463319
vt 0.424775 0.467337
vt 0.533836 0.443157
vt 0.488529 0.484109
vt 0.414945 0.489792
vt 0.537755 0.479623
vt 0.455718 0.483816
vt 0.601313 0.489598
vt 0.562166 0.481400
vt 0.623783 0.465258
vt 0.472065 0.488204
vt 0.374818 0.492188
vt 0.448122 0.502736
vt 0.485900 0.250000
vt 0.554910 0.496054
vt 0.553186 0.513600
vt 0.509922 0.500064
vt 0.479856 0.504014
vt 0.421645 0.513683
vt 0.390397 0.513395
vt 0.456540 0.535825
vt 0.491007 0.514661
vt 0.502369 0.521933
vt 0.441228 0.540420
vt 0.602293 0.503338
vt 0.604827 0.536356
vt 0.505187 0.531250
vt 0.478249 0.530964
vt 0.520254 0.531250
vt 0.513385 0.539169
vt 0.536200 0.539007
vt 0.577151 0.547911
vt 0.407114 0.576956
vt 0.420583 0.554822
vt 0.439312 0.565840
vt 0.465620 0.558468
vt 0.539400 0.546875
vt 0.526202 0.558553
vt 0.558560 0.550574
vt 0.494781 0.568079
vt 0.550731 0.554787
vt 0.391738 0.585658
vt 0.559933 0.562915
vt 0.582715 0.573628
vt 0.454421 0.574417
vt 0.535555 0.578216
vt 0.494572 0.581625
vt 0.581173 0.583716
vt 0.566374 0.589008
vt 0.466516 0.592273
vt 0.433430 0.588573
vt 0.596968 0.595993
vt 0.615031 0.582922
vt 0.404684 0.597668
vt 0.517977 0.597526
vt 0.430054 0.616849
vt 0.414063 0.604538
vt 0.406054 0.613772
vt 0.449616 0.624860
vt 0.465892 0.624689
vt 0.544583 0.632498
vt 0.516578 0.630545
vt 0.567351 0.632398
vt 0.488745 0.631705
vt 0.609375 0.612056
vt 0.597459 0.624325
vt 0.388446 0.631495
vt 0.357289 0.617055
vt 0.418307 0.625000
vt 0.402314 0.628037
vt 0.416530 0.617188
vt 0.436930 0.625257
vt 0.590332 0.633178
vt 0.425557 0.648751
vt 0.449433 0.632813
vt 0.470334 0.633001
vt 0.612944 0.632012
vt 0.403294 0.648839
vt 0.379935 0.637307
vt 0.448957 0.649631
vt 0.497267 0.641311
vt 0.527764 0.640625
vt 0.373745 0.675075
vt 0.477400 0.656888
vt 0.542322 0.660281
vt 0.521037 0.663654
vt 0.561179 0.640926
vt 0.499977 0.662618
vt 0.570090 0.660742
vt 0.589108 0.663181
vt 0.615197 0.641244
vt 0.607926 0.686732
vt 0.623512 0.659227
vt 0.476730 0.698368
vt 0.410592 0.686510
vt 0.389237 0.705207
vt 0.500509 0.697653
vt 0.572024 0.705277
vt 0.552217 0.717937
vt 0.593758 0.711873
vt 0.454154 0.704829
vt 0.477904 0.738765
vt 0.534987 0.717498
vt 0.517727 0.727773
vt 0.411166 0.747807
vt 0.451224 0.740611
vt 0.386735 0.747846
vt 0.499350 0.742029
vt 0.579728 0.741880
vt 0.623973 0.742302
vt 0.534113 0.742188
vt 0.637360 0.631631
vt 0.558681 0.751029
vt 0.534069 0.751334
vt 0.502976 0.751181
vt 0.455744 0.751671
vt 0.436308 0.750000
vt 0.373287 0.740170
vt 0.417217 0.757808
vt 0.398475 0.778566
vt 0.394919 0.758900
vt 0.475819 0.761626
vt 0.449884 0.780799
vt 0.486790 0.782542
vt 0.384410 0.795655
vt 0.510723 0.791294
vt 0.532712 0.794603
vt 0.550794 0.804424
vt 0.566493 0.798759
vt 0.431406 0.794062
vt 0.409769 0.787733
vt 0.418515 0.800498
vt 0.496907 0.800836
vt 0.468604 0.796847
vt 0.469332 0.804389
vt 0.428851 0.806314
vt 0.508746 0.812848
vt 0.407130 0.818092
vt 0.437095 0.816014
vt 0.489781 0.813710
vt 0.529538 0.818149
vt 0.587867 0.833403
vt 0.559957 0.840916
vt 0.375010 0.836095
vt 0.378179 0.815182
vt 0.409657 0.831372
vt 0.476330 0.831982
vt 0.448436 0.838951
vt 0.431771 0.841305
vt 0.527718 0.852244
vt 0.485243 0.854710
vt 0.395107 0.856076
vt 0.571967 0.866170
vt 0.613928 0.820632
vt 0.590928 0.873466
vt 0.617188 0.847624
vt 0.613095 0.859289
vt 0.464110 0.850244
vt 0.468681 0.864063
vt 0.548790 0.868167
vt 0.407077 0.876798
vt 0.507319 0.851012
vt 0.483717 0.867187
vt 0.521083 0.867276
vt 0.606997 0.867188
vt 0.501339 0.874985
vt 0.471510 0.875505
vt 0.569431 0.875008
vt 0.609375 0.878863
vt 0.601563 0.878256
vt 0.621139 0.894283
vt 0.456734 0.874887
vt 0.455964 0.882813
vt 0.575802 0.912534
vt 0.554416 0.902040
vt 0.597026 0.888615
vt 0.588711 0.902110
vt 0.430389 0.890625
vt 0.377774 0.888900
vt 0.440977 0.882130
vt 0.449841 0.890821
vt 0.515582 0.902255
vt 0.613183 0.896999
vt 0.394174 0.902213
vt 0.379195 0.898597
vt 0.430274 0.898438
vt 0.434801 0.908891
vt 0.405642 0.918104
vt 0.457579 0.921538
vt 0.558725 0.926751
vt 0.590107 0.911278
vt 0.519216 0.937430
vt 0.573406 0.924813
vt 0.385629 0.964027
vt 0.444636 0.923841
vt 0.422265 0.933607
vt 0.474236 0.921216
vt 0.464407 0.929829
vt 0.481180 0.931206
vt 0.543460 0.934093
vt 0.450009 0.951056
vt 0.479839 0.954684
vt 0.496632 0.938527
vt 0.556883 0.944826
vt 0.410676 0.997720
vt 0.530168 0.965484
vt 0.507393 0.965515
vt 0.428485 0.990643
vt 0.583019 0.954132
vt 0.581943 0.988971
vt 0.557825 0.981876
vt 0.457887 0.984277
vt 0.488191 0.985485
vt 0.513714 0.993147
vt 0.529440 0.995786
vt 0.625000 0.840441
vt 0.625000 0.852350
vt 0.625000 0.907753
vt 0.604220 0.930583
vt 0.625000 0.947804
vt 0.612643 0.981592
vt 0.560364 1.000000
vt 0.493116 1.000000
vt 0.468750 1.000000
vt 0.375000 0.867188
vt 0.228142 0.509433
vt 0.240321 0.539531
vt 0.204521 0.510891
vt 0.260019 0.527532
vt 0.344532 0.530703
vt 0.333807 0.540874
vt 0.334966 0.504350
vt 0.191170 0.519155
vt 0.196726 0.526656
vt 0.186511 0.534554
vt 0.224020 0.539250
vt 0.154504 0.517685
vt 0.173293 0.551995
vt 0.135755 0.531422
vt 0.209829 0.559128
vt 0.179983 0.543885
vt 0.306425 0.524991
vt 0.273350 0.565025
vt 0.264840 0.550914
vt 0.369751 0.522911
vt 0.374622 0.578261
vt 0.146307 0.580906
vt 0.128867 0.569521
vt 0.155559 0.573764
vt 0.162768 0.564458
vt 0.196356 0.572974
vt 0.235734 0.566689
vt 0.221959 0.576300
vt 0.264584 0.570993
vt 0.319630 0.532394
vt 0.272110 0.587569
vt 0.333778 0.582688
vt 0.343903 0.578708
vt 0.168046 0.558727
vt 0.218229 0.586097
vt 0.247282 0.591293
vt 0.265383 0.596908
vt 0.290560 0.598359
vt 0.148155 0.596111
vt 0.126917 0.593484
vt 0.158092 0.607532
vt 0.187910 0.598649
vt 0.131837 0.616518
vt 0.199897 0.604178
vt 0.273027 0.610213
vt 0.310172 0.629938
vt 0.327888 0.605340
vt 0.237360 0.617587
vt 0.229411 0.595733
vt 0.252869 0.617661
vt 0.185001 0.631996
vt 0.165013 0.630650
vt 0.219246 0.623188
vt 0.288226 0.640474
vt 0.320996 0.622809
vt 0.156075 0.619253
vt 0.128728 0.646035
vt 0.143082 0.654223
vt 0.175600 0.640625
vt 0.198360 0.645098
vt 0.187339 0.643063
vt 0.213083 0.656730
vt 0.245529 0.655268
vt 0.262607 0.653329
vt 0.278174 0.648439
vt 0.320779 0.640625
vt 0.306829 0.641825
vt 0.366845 0.641862
vt 0.176647 0.665959
vt 0.205482 0.652984
vt 0.293627 0.648597
vt 0.331251 0.648479
vt 0.341070 0.670255
vt 0.220139 0.664577
vt 0.266164 0.665269
vt 0.254606 0.664063
vt 0.276698 0.656250
vt 0.301665 0.679365
vt 0.350015 0.691024
vt 0.326376 0.682006
vt 0.156764 0.688948
vt 0.183007 0.687404
vt 0.125079 0.699151
vt 0.129942 0.674802
vt 0.275855 0.688670
vt 0.244224 0.697986
vt 0.246486 0.680646
vt 0.217901 0.712449
vt 0.178032 0.717860
vt 0.323567 0.721031
vt 0.139396 0.713341
vt 0.234375 0.717950
vt 0.226815 0.716639
vt 0.301258 0.722594
vt 0.266172 0.704064
vt 0.235832 0.734381
vt 0.284756 0.747331
vt 0.172632 0.732795
vt 0.226060 0.743980
vt 0.199900 0.746518
vt 0.236282 0.744403
vt 0.353709 0.746156
vt 0.314726 0.733287
vt 0.195313 0.500000
vt 0.203703 0.500000
vt 0.236812 0.500000
vt 0.250951 0.503837
vt 0.309230 0.500000
vt 0.295780 0.512595
vt 0.284477 0.500000
vt 0.359352 0.711069
vt 0.320312 0.750000
vt 0.310395 0.750000
vt 0.142474 0.750000
vt 0.126540 0.721407
vt 0.125000 0.671875
vt 0.666349 0.506347
vt 0.666846 0.515716
vt 0.657598 0.520324
vt 0.684096 0.505018
vt 0.714066 0.501992
vt 0.742173 0.518528
vt 0.704638 0.519575
vt 0.815038 0.503437
vt 0.800835 0.520018
vt 0.787926 0.507858
vt 0.827502 0.513878
vt 0.802391 0.538379
vt 0.860194 0.504180
vt 0.851419 0.531587
vt 0.670186 0.548556
vt 0.650124 0.525635
vt 0.683401 0.546362
vt 0.749865 0.544549
vt 0.718994 0.544055
vt 0.765717 0.502860
vt 0.759219 0.562068
vt 0.751009 0.511592
vt 0.781293 0.540039
vt 0.820664 0.540918
vt 0.644906 0.534241
vt 0.635458 0.541812
vt 0.802261 0.558239
vt 0.871417 0.545520
vt 0.842819 0.558463
vt 0.677885 0.559451
vt 0.632768 0.551960
vt 0.709998 0.565528
vt 0.750476 0.569216
vt 0.776602 0.569619
vt 0.826932 0.577846
vt 0.652528 0.588687
vt 0.623479 0.561831
vt 0.734233 0.584129
vt 0.725751 0.591806
vt 0.799332 0.570312
vt 0.695928 0.581565
vt 0.678469 0.595229
vt 0.765708 0.588606
vt 0.788172 0.578652
vt 0.808174 0.580005
vt 0.742234 0.588174
vt 0.746292 0.574394
vt 0.716404 0.607066
vt 0.734375 0.597439
vt 0.848865 0.585454
vt 0.837492 0.595856
vt 0.827802 0.586809
vt 0.872937 0.595076
vt 0.855243 0.593753
vt 0.726562 0.605966
vt 0.735091 0.609162
vt 0.778502 0.613050
vt 0.800954 0.614632
vt 0.866621 0.602108
vt 0.678068 0.629890
vt 0.784358 0.622635
vt 0.848206 0.623738
vt 0.708842 0.623904
vt 0.726655 0.618987
vt 0.718750 0.620193
vt 0.744808 0.627075
vt 0.829171 0.634393
vt 0.799033 0.631084
vt 0.719109 0.637462
vt 0.710920 0.635643
vt 0.784282 0.636451
vt 0.634669 0.640646
vt 0.707500 0.645034
vt 0.745469 0.648983
vt 0.873168 0.654307
vt 0.860582 0.668957
vt 0.681083 0.670967
vt 0.677262 0.640625
vt 0.812765 0.659708
vt 0.852840 0.677024
vt 0.713833 0.663431
vt 0.728664 0.666450
vt 0.796671 0.679185
vt 0.837049 0.678809
vt 0.768205 0.665636
vt 0.636462 0.687349
vt 0.632892 0.661413
vt 0.704779 0.692396
vt 0.740289 0.673182
vt 0.732955 0.695362
vt 0.874221 0.684040
vt 0.846600 0.689654
vt 0.833562 0.699285
vt 0.771062 0.690812
vt 0.695154 0.724975
vt 0.838928 0.710768
vt 0.819160 0.711925
vt 0.871664 0.713761
vt 0.640684 0.714525
vt 0.629778 0.697792
vt 0.762251 0.694601
vt 0.792670 0.730738
vt 0.779433 0.738847
vt 0.801164 0.719074
vt 0.728179 0.749423
vt 0.830937 0.740138
vt 0.652188 0.724684
vt 0.663862 0.735682
vt 0.714712 0.741472
vt 0.705791 0.734375
vt 0.785713 0.746592
vt 0.868403 0.743115
vt 0.632812 0.500000
vt 0.734375 0.500000
vt 0.835938 0.500000
vt 0.828125 0.500000
vt 0.875000 0.526520
vt 0.773138 0.750000
vt 0.715441 0.750000
vt 0.698525 0.738614
vt 0.677659 0.750000
vt 0.642543 0.750000
vt 0.501748 0.014028
vt 0.447359 0.000000
vt 0.593750 0.000000
vt 0.375000 0.050814
vt 0.623743 0.309486
vt 0.615660 0.332790
vt 0.375735 0.362073
vt 0.614974 0.425948
vt 0.625000 0.367188
vt 0.625000 0.484375
vt 0.375000 0.445313
vt 0.375000 0.375470
vt 0.581805 0.751364
vt 0.596274 0.768027
vt 0.616109 0.770564
vt 0.447948 0.912275
vt 0.387870 0.998414
vt 0.335938 0.750000
vt 0.273438 0.750000
vt 0.265625 0.750000
vt 0.874123 0.622081
vt 0.742785 0.500000
vt 0.875000 0.570313
s 1
f 14/1/1 92/2/2 13/3/3
f 90/4/4 92/2/2 14/1/1
f 19/5/5 94/6/6 93/7/7
f 90/4/4 97/8/8 92/2/2
f 93/7/7 100/9/9 99/10/10
f 92/2/2 102/11/11 13/3/3
f 95/12/12 103/13/13 90/4/4
f 102/11/11 104/14/14 12/15/15
f 95/12/12 108/16/16 107/17/17
f 96/18/18 109/19/19 108/16/16
f 106/20/20 110/21/21 98/22/22
f 103/13/13 107/17/17 111/23/23
f 101/24/24 21/25/25 114/26/26
f 106/20/20 111/23/23 113/27/27
f 112/28/28 111/23/23 107/17/17
f 100/9/9 114/26/26 109/19/19
f 105/29/29 115/30/30 102/11/11
f 105/29/29 117/31/31 116/32/32
f 97/8/8 118/33/33 117/31/31
f 110/21/21 119/34/34 118/33/33
f 111/23/23 119/34/34 113/27/27
f 115/30/30 10/35/35 102/11/11
f 116/32/32 120/36/36 115/30/30
f 117/31/31 120/36/36 116/32/32
f 118/33/33 122/37/37 121/38/38
f 119/34/34 122/37/37 118/33/33
f 111/23/23 124/39/39 119/34/34
f 112/28/28 124/39/39 111/23/23
f 120/36/36 126/40/40 10/35/35
f 121/38/38 127/41/41 120/36/36
f 112/28/28 125/42/42 128/43/43
f 122/37/37 127/41/41 121/38/38
f 122/37/37 129/44/44 127/41/41
f 123/45/45 124/39/39 129/44/44
f 114/26/26 131/46/46 130/47/47
f 120/36/36 132/48/48 126/40/40
f 127/41/41 133/49/49 132/48/48
f 124/39/39 134/50/50 129/44/44
f 128/43/43 134/50/50 124/39/39
f 126/40/40 136/51/51 135/52/52
f 130/47/47 137/53/53 125/42/42
f 134/50/50 139/54/54 129/44/44
f 128/43/43 140/55/55 134/50/50
f 125/42/42 141/56/56 128/43/43
f 130/47/47 142/57/57 137/53/53
f 130/47/47 138/58/58 142/57/57
f 135/52/52 9/59/59 10/60/35
f 141/56/56 144/61/60 140/55/55
f 143/62/61 146/63/62 135/52/52
f 136/51/51 147/64/63 150/65/64
f 133/49/49 139/54/54 147/64/63
f 146/63/62 149/66/65 135/52/52
f 140/55/55 148/67/66 151/68/67
f 147/64/63 156/69/68 150/65/64
f 139/54/54 151/68/67 147/64/63
f 145/70/69 154/71/70 144/61/60
f 24/72/71 152/73/72 142/57/57
f 8/74/73 153/75/74 7/76/75
f 149/66/65 156/69/68 153/75/74
f 148/67/66 158/77/76 157/78/77
f 148/67/66 144/61/60 158/77/76
f 137/53/53 154/71/70 145/70/69
f 155/79/78 154/71/70 137/53/53
f 152/73/72 155/79/78 137/53/53
f 151/68/67 162/80/79 147/64/63
f 153/75/74 164/81/80 163/82/81
f 155/79/78 165/83/82 154/71/70
f 152/73/72 166/84/83 155/79/78
f 160/85/84 166/84/83 152/73/72
f 164/81/80 161/86/85 167/87/86
f 162/80/79 168/88/87 161/86/85
f 158/77/76 159/89/88 169/90/89
f 164/81/80 167/87/86 170/91/90
f 168/88/87 171/92/91 161/86/85
f 157/78/77 169/90/89 172/93/92
f 159/89/88 166/84/83 169/90/89
f 165/83/82 166/84/83 159/89/88
f 171/92/91 176/94/93 167/87/86
f 174/95/94 178/96/95 171/92/91
f 172/93/92 169/90/89 30/97/96
f 28/98/97 179/99/98 169/90/89
f 170/91/90 176/94/93 173/100/99
f 178/96/95 180/101/100 177/102/101
f 175/103/102 30/97/96 181/104/103
f 178/96/95 181/104/103 32/105/104
f 179/99/98 29/106/105 182/107/106
f 28/98/97 29/106/105 179/99/98
f 26/108/107 28/98/97 166/84/83
f 1/109/108 13/3/3 12/15/15
f 17/110/109 91/111/110 16/112/111
f 17/110/109 18/113/112 91/111/110
f 433/114/113 20/115/114 101/24/24
f 21/25/25 22/116/115 131/46/46
f 131/46/46 22/116/115 138/58/58
f 138/58/58 23/117/116 142/57/57
f 23/117/116 24/72/71 142/57/57
f 25/118/117 26/108/107 160/85/84
f 182/107/106 29/106/105 30/97/96
f 7/76/75 163/82/81 2/119/118
f 176/94/93 177/102/101 183/120/119
f 177/102/101 184/121/120 187/122/121
f 186/123/122 188/124/123 185/125/124
f 29/106/105 189/126/125 30/97/96
f 28/98/97 190/127/126 29/106/105
f 3/128/127 192/129/128 27/130/129
f 187/122/121 193/131/130 177/102/101
f 188/124/123 194/132/131 185/125/124
f 183/120/119 195/133/132 33/134/133
f 29/106/105 197/135/134 189/126/125
f 191/136/135 190/127/126 28/98/97
f 184/121/120 200/137/136 199/138/137
f 194/132/131 196/139/138 200/137/136
f 189/126/125 196/139/138 188/124/123
f 187/122/121 202/140/139 206/141/140
f 187/122/121 199/138/137 202/140/139
f 189/126/125 203/142/141 196/139/138
f 197/135/134 203/142/141 189/126/125
f 190/127/126 204/143/142 29/106/105
f 191/136/135 201/144/143 205/145/144
f 195/133/132 41/146/145 42/147/146
f 193/131/130 206/141/140 183/120/119
f 203/142/141 207/148/147 200/137/136
f 197/135/134 198/149/148 203/142/141
f 190/127/126 210/150/149 209/151/150
f 190/127/126 205/145/144 210/150/149
f 198/149/148 208/152/151 203/142/141
f 206/141/140 211/153/152 195/133/132
f 206/141/140 213/154/153 212/155/154
f 202/140/139 207/148/147 213/154/153
f 210/150/149 215/156/155 209/151/150
f 207/148/147 217/157/156 213/154/153
f 215/156/155 217/157/156 208/152/151
f 205/145/144 45/158/157 216/159/158
f 211/153/152 212/155/154 220/160/159
f 40/161/160 219/162/161 223/163/162
f 218/164/163 226/165/164 214/166/165
f 219/162/161 229/167/166 228/168/167
f 219/162/161 230/169/168 229/167/166
f 221/170/169 230/169/168 220/160/159
f 212/155/154 231/171/170 221/170/169
f 217/157/156 225/172/171 224/173/172
f 218/164/163 232/174/173 226/165/164
f 222/175/174 232/174/173 218/164/163
f 222/175/174 233/176/175 232/174/173
f 216/159/158 233/176/175 222/175/174
f 227/177/176 233/176/175 216/159/158
f 231/171/170 234/178/177 221/170/169
f 231/171/170 224/173/172 234/178/177
f 232/174/173 235/179/178 226/165/164
f 232/174/173 236/180/179 235/179/178
f 233/176/175 236/180/179 232/174/173
f 227/177/176 237/181/180 233/176/175
f 230/169/168 238/182/181 229/167/166
f 225/172/171 239/183/182 224/173/172
f 225/172/171 226/165/164 240/184/183
f 226/165/164 242/185/184 241/186/185
f 236/180/179 242/185/184 235/179/178
f 229/167/166 243/187/186 228/168/167
f 234/178/177 244/188/187 230/169/168
f 239/183/182 246/189/188 245/190/189
f 226/165/164 247/191/190 240/184/183
f 226/165/164 241/186/185 247/191/190
f 237/181/180 248/192/191 236/180/179
f 234/178/177 245/190/189 244/188/187
f 241/186/185 250/193/192 247/191/190
f 242/185/184 250/193/192 241/186/185
f 236/180/179 250/193/192 242/185/184
f 240/184/183 249/194/193 246/189/188
f 248/192/191 251/195/194 250/193/192
f 37/196/195 243/187/186 36/197/196
f 245/190/189 252/198/197 244/188/187
f 250/193/192 246/189/188 249/194/193
f 248/192/191 254/199/198 251/195/194
f 246/189/188 256/200/199 245/190/189
f 36/197/196 257/201/200 35/202/201
f 244/188/187 258/203/202 238/182/181
f 255/204/203 259/205/204 244/188/187
f 48/206/205 260/207/206 254/199/198
f 36/197/196 261/208/207 257/201/200
f 238/182/181 258/203/202 261/208/207
f 253/209/208 263/210/209 256/200/199
f 257/201/200 261/208/207 262/211/210
f 254/199/198 265/212/211 253/209/208
f 259/205/204 267/213/212 258/203/202
f 266/214/213 268/215/214 260/207/206
f 49/216/215 266/214/213 260/207/206
f 258/203/202 262/211/210 261/208/207
f 255/204/203 269/217/216 259/205/204
f 263/210/209 269/217/216 255/204/203
f 35/202/201 262/211/210 34/218/217
f 267/213/212 55/219/218 258/203/202
f 2/119/118 33/134/133 42/147/146
f 180/101/100 185/125/124 184/121/120
f 31/220/219 185/125/124 32/105/104
f 31/220/219 186/123/122 185/125/124
f 265/212/211 51/221/220 52/222/221
f 265/212/211 52/222/221 264/223/222
f 263/210/209 54/224/223 269/217/216
f 269/217/216 55/219/218 267/213/212
f 55/219/218 56/225/224 262/211/210
f 262/211/210 57/226/225 34/218/217
f 56/225/224 57/226/225 262/211/210
f 54/224/223 270/227/226 55/219/218
f 53/228/227 264/223/222 272/229/228
f 270/227/226 273/230/229 55/219/218
f 6/231/230 275/232/231 52/222/221
f 53/228/227 276/233/232 271/234/233
f 272/229/228 277/235/234 276/233/232
f 277/235/234 278/236/235 276/233/232
f 277/235/234 274/237/236 278/236/235
f 52/222/221 279/238/237 264/223/222
f 52/222/221 275/232/231 279/238/237
f 56/225/224 280/239/238 57/226/225
f 273/230/229 281/240/239 56/225/224
f 271/234/233 286/241/240 270/227/226
f 278/236/235 282/242/241 271/234/233
f 278/236/235 284/243/242 283/244/243
f 264/223/222 285/245/244 284/243/242
f 270/227/226 286/241/240 273/230/229
f 278/236/235 283/244/243 287/246/245
f 284/243/242 288/247/246 283/244/243
f 285/245/244 288/247/246 284/243/242
f 280/239/238 289/248/247 57/226/225
f 285/245/244 290/249/248 288/247/246
f 285/245/244 291/250/249 290/249/248
f 273/230/229 280/239/238 281/240/239
f 282/242/241 293/251/250 286/241/240
f 283/244/243 294/252/251 287/246/245
f 288/247/246 290/249/248 294/252/251
f 294/252/251 296/253/252 287/246/245
f 290/249/248 297/254/253 299/255/254
f 293/251/250 298/256/255 292/257/256
f 291/250/249 300/258/257 297/254/253
f 291/250/249 295/259/258 300/258/257
f 280/239/238 301/260/259 289/248/247
f 294/252/251 302/261/260 296/253/252
f 280/239/238 304/262/261 303/263/262
f 303/263/262 307/264/263 301/260/259
f 292/257/256 308/265/264 304/262/261
f 292/257/256 309/266/265 308/265/264
f 305/267/266 313/268/267 299/255/254
f 297/254/253 310/269/268 299/255/254
f 300/258/257 310/269/268 297/254/253
f 298/256/255 312/270/269 309/266/265
f 299/255/254 312/270/269 302/261/260
f 300/258/257 306/271/270 314/272/271
f 307/264/263 60/273/272 480/274/273
f 307/264/263 316/275/274 315/276/275
f 304/262/261 316/275/274 311/277/276
f 304/262/261 308/265/264 317/278/277
f 314/272/271 318/279/278 300/258/257
f 316/275/274 317/278/277 320/280/279
f 309/266/265 321/281/280 308/265/264
f 309/266/265 312/270/269 322/282/281
f 319/283/282 318/279/278 314/272/271
f 60/273/272 323/284/283 59/285/284
f 315/276/275 320/280/279 323/284/283
f 317/278/277 324/286/285 320/280/279
f 321/281/280 322/282/281 324/286/285
f 313/268/267 325/287/286 312/270/269
f 305/267/266 326/288/287 313/268/267
f 59/285/284 323/284/283 336/289/288
f 322/282/281 333/290/289 324/286/285
f 326/288/287 330/291/290 329/292/291
f 326/288/287 327/293/292 330/291/290
f 325/287/286 329/292/291 334/294/293
f 327/293/292 331/295/294 330/291/290
f 327/293/292 332/296/295 331/295/294
f 328/297/296 335/298/297 318/279/278
f 68/299/298 335/298/297 328/297/296
f 320/280/279 338/300/299 337/301/300
f 336/289/288 337/301/300 58/302/301
f 334/294/293 329/292/291 341/303/302
f 330/291/290 340/304/303 342/305/304
f 332/296/295 340/304/303 331/295/294
f 335/298/297 343/306/305 332/296/295
f 337/301/300 344/307/306 58/302/301
f 341/303/302 346/308/307 338/300/299
f 339/309/308 345/310/309 329/292/291
f 58/302/301 344/307/306 76/311/310
f 338/300/299 347/312/311 344/307/306
f 58/302/301 76/311/310 77/313/312
f 344/307/306 347/312/311 76/311/310
f 345/310/309 348/314/313 346/308/307
f 340/304/303 349/315/314 342/305/304
f 343/306/305 349/315/314 340/304/303
f 5/316/315 349/315/314 343/306/305
f 339/309/308 350/317/316 345/310/309
f 342/305/304 350/317/316 339/309/308
f 349/315/314 350/317/316 342/305/304
f 51/221/220 6/231/230 52/222/221
f 295/259/258 66/318/317 319/283/282
f 349/315/314 71/319/318 350/317/316
f 350/317/316 71/319/318 72/320/319
f 350/317/316 72/320/319 73/321/320
f 346/308/307 73/321/320 74/322/321
f 347/312/311 74/322/321 75/323/322
f 58/302/301 77/313/312 4/324/323
f 301/260/259 480/274/273 289/248/247
f 351/325/324 354/326/325 526/327/326
f 352/328/327 356/329/328 74/322/321
f 352/328/327 357/330/329 356/329/328
f 354/326/325 84/331/330 526/327/326
f 352/328/327 359/332/331 357/330/329
f 73/321/320 360/333/332 359/332/331
f 72/320/319 361/334/333 360/333/332
f 72/320/319 358/335/334 361/334/333
f 356/329/328 362/336/335 355/337/336
f 362/336/335 364/338/337 355/337/336
f 357/330/329 366/339/338 365/340/339
f 362/336/335 368/341/340 367/342/341
f 365/340/339 366/339/338 368/341/340
f 360/333/332 369/343/342 359/332/331
f 355/337/336 370/344/343 84/331/330
f 364/338/337 370/344/343 355/337/336
f 364/338/337 367/342/341 370/344/343
f 367/342/341 368/341/340 371/345/344
f 366/339/338 372/346/345 368/341/340
f 369/343/342 372/346/345 366/339/338
f 361/334/333 373/347/346 360/333/332
f 367/342/341 371/345/344 370/344/343
f 363/348/347 376/349/348 358/335/334
f 370/344/343 82/350/349 83/351/350
f 371/345/344 377/352/351 370/344/343
f 368/341/340 375/353/352 371/345/344
f 378/354/353 379/355/354 377/352/351
f 371/345/344 375/353/352 378/354/353
f 369/343/342 375/353/352 372/346/345
f 361/334/333 381/356/355 373/347/346
f 373/347/346 384/357/356 375/353/352
f 379/355/354 81/358/357 377/352/351
f 363/348/347 385/359/358 376/349/348
f 374/360/359 386/361/360 363/348/347
f 382/362/361 387/363/362 374/360/359
f 383/364/363 384/357/356 389/365/364
f 385/359/358 390/366/365 376/349/348
f 379/355/354 80/367/366 81/358/357
f 378/354/353 80/367/366 379/355/354
f 380/368/367 392/369/368 384/357/356
f 381/356/355 393/370/369 380/368/367
f 387/363/362 394/371/370 386/361/360
f 392/369/368 396/372/371 395/373/372
f 386/361/360 397/374/373 385/359/358
f 394/371/370 399/375/374 398/376/375
f 394/371/370 88/377/376 399/375/374
f 391/378/377 395/373/372 400/379/378
f 393/370/369 390/366/365 396/372/371
f 397/374/373 403/380/379 402/381/380
f 386/361/360 405/382/381 404/383/382
f 386/361/360 398/376/375 405/382/381
f 80/367/366 406/384/383 79/385/384
f 388/386/385 406/384/383 80/367/366
f 388/386/385 407/387/386 406/384/383
f 395/373/372 407/387/386 400/379/378
f 396/372/371 390/366/365 401/388/387
f 397/374/373 404/383/382 403/380/379
f 399/375/374 405/382/381 398/376/375
f 88/377/376 408/389/388 399/375/374
f 79/385/384 409/390/389 78/391/390
f 406/384/383 410/392/391 409/390/389
f 407/387/386 410/392/391 406/384/383
f 390/366/365 402/381/380 401/388/387
f 408/389/388 404/383/382 405/382/381
f 410/392/391 412/393/392 415/394/393
f 407/387/386 412/393/392 410/392/391
f 395/373/372 413/395/394 407/387/386
f 401/388/387 413/395/394 395/373/372
f 403/380/379 417/396/395 402/381/380
f 408/389/388 414/397/396 404/383/382
f 401/388/387 402/381/380 421/398/397
f 414/397/396 422/399/398 403/380/379
f 409/390/389 415/394/393 1/400/108
f 412/393/392 420/401/399 419/402/400
f 416/403/401 423/404/402 413/395/394
f 416/403/401 421/398/397 424/405/403
f 417/396/395 425/406/404 402/381/380
f 423/404/402 426/407/405 413/395/394
f 424/405/403 427/408/406 423/404/402
f 421/398/397 428/409/407 424/405/403
f 417/396/395 422/399/398 429/410/408
f 415/394/393 14/411/1 1/400/108
f 427/408/406 426/407/405 423/404/402
f 428/409/407 427/408/406 424/405/403
f 415/394/393 419/402/400 14/411/1
f 421/398/397 432/412/409 431/413/410
f 425/406/404 429/410/408 432/412/409
f 426/407/405 434/414/411 419/402/400
f 430/415/412 19/416/5 436/417/413
f 419/402/400 434/414/411 14/411/1
f 427/408/406 435/418/414 426/407/405
f 431/413/410 437/419/415 427/408/406
f 431/413/410 16/420/111 437/419/415
f 432/412/409 17/421/109 16/420/111
f 432/412/409 436/417/413 17/421/109
f 435/418/414 437/419/415 434/414/411
f 77/313/312 526/327/326 4/324/323
f 77/313/312 351/325/324 526/327/326
f 75/323/322 74/322/321 351/325/324
f 374/360/359 86/422/416 382/362/361
f 382/362/361 87/423/417 387/363/362
f 387/363/362 87/423/417 88/377/376
f 89/424/418 418/425/419 408/389/388
f 612/426/420 433/427/113 418/425/419
f 436/417/413 19/416/5 18/428/112
f 437/419/415 16/420/111 15/429/421
f 434/414/411 15/429/421 90/430/4
f 82/431/349 80/367/366 79/385/384
f 439/432/422 443/433/423 438/434/424
f 439/432/422 444/435/425 443/433/423
f 34/436/217 446/437/426 35/438/201
f 41/439/145 442/440/427 447/441/428
f 438/434/424 448/442/429 442/440/427
f 42/443/146 450/444/430 2/445/118
f 442/440/427 453/446/431 447/441/428
f 447/441/428 453/446/431 449/447/432
f 445/448/433 455/449/434 451/450/435
f 62/451/436 61/452/437 34/436/217
f 2/445/118 456/453/438 7/454/75
f 2/445/118 457/455/439 456/453/438
f 2/445/118 458/456/440 457/455/439
f 449/447/432 464/457/441 450/444/430
f 449/447/432 453/446/431 464/457/441
f 448/442/429 454/458/442 459/459/443
f 443/433/423 451/450/435 454/458/442
f 455/449/434 462/460/444 451/450/435
f 441/461/445 460/462/446 445/448/433
f 446/437/426 463/463/447 441/461/445
f 461/464/448 463/463/447 446/437/426
f 61/452/437 461/464/448 34/436/217
f 452/465/449 464/457/441 458/456/440
f 453/446/431 459/459/443 465/466/450
f 454/458/442 462/460/444 459/459/443
f 459/459/443 466/467/451 465/466/450
f 462/460/444 467/468/452 466/467/451
f 455/449/434 467/468/452 462/460/444
f 463/463/447 468/469/453 460/462/446
f 61/452/437 289/248/247 461/464/448
f 7/454/75 469/470/454 8/471/73
f 456/453/438 470/472/455 469/470/454
f 458/456/440 471/473/456 457/455/439
f 8/471/73 469/470/454 9/474/59
f 457/455/439 471/473/456 470/472/455
f 471/473/456 465/466/450 473/475/457
f 468/469/453 474/476/458 460/462/446
f 463/463/447 475/477/459 468/469/453
f 461/464/448 476/478/460 463/463/447
f 466/467/451 478/479/461 472/480/462
f 467/468/452 479/481/463 466/467/451
f 461/464/448 480/274/273 476/478/460
f 289/248/247 480/274/273 461/464/448
f 471/473/456 484/482/464 470/472/455
f 471/473/456 473/475/457 484/482/464
f 470/472/455 484/482/464 483/483/465
f 473/475/457 477/484/466 484/482/464
f 475/477/459 485/485/467 474/476/458
f 480/274/273 481/486/468 476/478/460
f 482/487/469 10/488/35 9/474/59
f 483/483/465 487/489/470 482/487/469
f 484/482/464 488/490/471 483/483/465
f 484/482/464 490/491/472 489/492/473
f 478/479/461 491/493/474 477/484/466
f 479/481/463 492/494/475 478/479/461
f 486/495/476 492/494/475 479/481/463
f 474/476/458 485/485/467 493/496/477
f 475/477/459 495/497/478 494/498/479
f 481/486/468 496/499/480 495/497/478
f 488/490/471 497/500/481 487/489/470
f 477/484/466 498/501/482 490/491/472
f 485/485/467 499/502/483 493/496/477
f 485/485/467 494/498/479 499/502/483
f 490/491/472 497/500/481 489/492/473
f 500/503/484 496/499/480 502/504/485
f 491/493/474 497/500/481 498/501/482
f 492/494/475 503/505/486 491/493/474
f 486/495/476 505/506/487 504/507/488
f 501/508/489 505/506/487 486/495/476
f 501/508/489 506/509/490 505/506/487
f 500/503/484 502/504/485 494/498/479
f 496/499/480 336/289/288 513/510/491
f 491/493/474 503/505/486 497/500/481
f 494/498/479 502/504/485 508/511/492
f 497/500/481 509/512/493 487/489/470
f 503/505/486 510/513/494 497/500/481
f 509/512/493 11/514/495 104/515/14
f 511/516/496 512/517/497 507/518/498
f 503/505/486 514/519/499 510/513/494
f 510/513/494 516/520/500 509/512/493
f 508/511/492 513/510/491 518/521/501
f 509/512/493 520/522/502 11/514/495
f 514/519/499 516/520/500 510/513/494
f 512/517/497 521/523/503 517/524/504
f 506/509/490 518/521/501 522/525/505
f 516/520/500 520/522/502 509/512/493
f 515/526/506 523/527/507 512/517/497
f 515/526/506 82/528/349 523/527/507
f 515/526/506 522/525/505 82/528/349
f 514/519/499 524/529/508 516/520/500
f 517/524/504 78/530/390 514/519/499
f 521/523/503 78/530/390 517/524/504
f 78/530/390 409/531/389 524/529/508
f 523/527/507 82/528/349 79/532/384
f 518/521/501 526/533/326 525/534/509
f 195/535/132 438/434/424 41/439/145
f 40/536/160 439/432/422 438/434/424
f 39/537/510 38/538/511 439/432/422
f 36/539/196 440/540/512 37/541/195
f 336/289/288 58/302/301 519/542/513
f 525/534/509 84/543/330 83/544/350
f 522/525/505 83/544/350 82/528/349
f 409/531/389 1/545/108 524/529/508
f 524/529/508 1/545/108 12/546/15
f 487/489/470 102/547/11 10/488/35
f 49/548/215 531/549/514 50/550/515
f 49/548/215 48/551/205 531/549/514
f 47/552/516 528/553/517 527/554/518
f 43/555/519 532/556/520 44/557/521
f 529/558/522 533/559/523 532/556/520
f 3/560/127 534/561/524 529/558/522
f 50/550/515 536/562/525 530/563/526
f 50/550/515 531/549/514 536/562/525
f 48/551/205 527/554/518 537/564/527
f 527/554/518 539/565/528 538/566/529
f 45/567/157 540/568/530 46/569/531
f 44/557/521 541/570/532 45/567/157
f 532/556/520 541/570/532 44/557/521
f 534/561/524 542/571/533 529/558/522
f 530/563/526 536/562/525 535/572/534
f 531/549/514 537/564/527 536/562/525
f 535/572/534 536/562/525 63/573/535
f 527/554/518 538/566/529 537/564/527
f 541/570/532 540/568/530 45/567/157
f 542/571/533 546/574/536 533/559/523
f 26/575/107 544/576/537 534/561/524
f 63/573/535 547/577/538 64/578/539
f 537/564/527 545/579/540 547/577/538
f 540/568/530 549/580/541 539/565/528
f 546/574/536 550/581/542 541/570/532
f 544/576/537 551/582/543 542/571/533
f 64/578/539 552/583/544 65/584/545
f 545/579/540 548/585/546 553/586/547
f 550/581/542 549/580/541 540/568/530
f 551/582/543 554/587/548 546/574/536
f 547/577/538 556/588/549 555/589/550
f 550/581/542 558/590/551 549/580/541
f 554/587/548 559/591/552 550/581/542
f 551/582/543 560/592/553 554/587/548
f 547/577/538 555/589/550 552/583/544
f 545/579/540 553/586/547 556/588/549
f 558/590/551 557/593/554 543/594/555
f 556/588/549 562/595/556 555/589/550
f 553/586/547 562/595/556 556/588/549
f 548/585/546 557/593/554 563/596/557
f 25/597/117 564/598/558 561/599/559
f 24/600/71 565/601/560 25/597/117
f 553/586/547 563/596/557 566/602/561
f 558/590/551 567/603/562 557/593/554
f 559/591/552 568/604/563 558/590/551
f 561/599/559 569/605/564 560/592/553
f 24/600/71 570/606/565 565/601/560
f 552/583/544 571/607/566 295/259/258
f 560/592/553 573/608/567 559/591/552
f 565/601/560 574/609/568 564/598/558
f 570/606/565 574/609/568 565/601/560
f 295/259/258 571/607/566 66/318/317
f 562/595/556 572/610/569 555/589/550
f 562/595/556 576/611/570 575/612/571
f 567/603/562 576/611/570 566/602/561
f 568/604/563 577/613/572 567/603/562
f 574/609/568 579/614/573 564/598/558
f 569/605/564 579/614/573 578/615/574
f 572/610/569 581/616/575 580/617/576
f 576/611/570 581/616/575 575/612/571
f 577/613/572 581/616/575 576/611/570
f 573/608/567 578/615/574 582/618/577
f 571/607/566 67/619/578 66/318/317
f 580/617/576 584/620/579 571/607/566
f 577/613/572 585/621/580 581/616/575
f 577/613/572 582/618/577 585/621/580
f 570/606/565 22/622/115 587/623/581
f 584/620/579 589/624/582 583/625/583
f 581/616/575 584/620/579 580/617/576
f 578/615/574 579/614/573 590/626/584
f 574/609/568 587/623/581 586/627/585
f 581/616/575 591/628/586 584/620/579
f 581/616/575 592/629/587 591/628/586
f 581/616/575 585/621/580 592/629/587
f 578/615/574 590/626/584 593/630/588
f 579/614/573 594/631/589 590/626/584
f 579/614/573 586/627/585 594/631/589
f 585/621/580 595/632/590 592/629/587
f 582/618/577 593/630/588 595/632/590
f 589/624/582 596/633/591 588/634/592
f 591/628/586 598/635/593 589/624/582
f 592/629/587 598/635/593 591/628/586
f 597/636/594 599/637/595 592/629/587
f 590/626/584 594/631/589 593/630/588
f 587/623/581 21/638/25 586/627/585
f 586/627/585 21/638/25 603/639/596
f 594/631/589 603/639/596 605/640/597
f 593/630/588 605/640/597 600/641/598
f 599/637/595 606/642/599 598/635/593
f 605/640/597 608/643/600 607/644/601
f 603/639/596 20/645/114 608/643/600
f 601/646/602 5/316/315 69/647/603
f 602/648/604 609/649/605 611/650/606
f 600/641/598 610/651/607 609/649/605
f 602/648/604 87/652/417 599/637/595
f 602/648/604 611/650/606 87/652/417
f 607/644/601 612/653/420 610/651/607
f 608/643/600 20/645/114 612/653/420
f 604/654/608 5/316/315 601/646/602
f 606/642/599 613/655/609 604/654/608
f 616/656/610 615/657/611 606/642/599
f 610/651/607 612/653/420 89/658/418
f 20/645/114 433/659/113 612/653/420
f 266/660/213 50/550/515 6/231/230
f 237/661/180 528/553/517 47/552/516
f 192/662/128 529/558/522 201/663/143
f 3/560/127 529/558/522 192/662/128
f 27/664/129 534/561/524 3/560/127
f 22/622/115 21/638/25 587/623/581
f 611/650/606 89/658/418 88/665/376
f 616/656/610 86/666/416 614/667/612
f 614/667/612 374/668/359 613/655/609
f 613/655/609 85/669/613 5/316/315
f 588/634/592 69/647/603 68/299/298
f 66/318/317 67/619/578 319/283/282
f 6/231/230 530/563/526 63/573/535
f 18/113/112 93/7/7 91/111/110
f 18/113/112 19/5/5 93/7/7
f 90/4/4 15/670/421 95/12/12
f 15/670/421 16/112/111 95/12/12
f 16/112/111 91/111/110 96/18/18
f 94/6/6 433/114/113 101/24/24
f 90/4/4 98/22/22 97/8/8
f 16/112/111 96/18/18 95/12/12
f 91/111/110 99/10/10 96/18/18
f 91/111/110 93/7/7 99/10/10
f 93/7/7 94/6/6 100/9/9
f 100/9/9 94/6/6 101/24/24
f 13/3/3 102/11/11 12/15/15
f 90/4/4 103/13/13 98/22/22
f 97/8/8 105/29/29 92/2/2
f 98/22/22 103/13/13 106/20/20
f 95/12/12 107/17/17 103/13/13
f 95/12/12 96/18/18 108/16/16
f 96/18/18 99/10/10 109/19/19
f 99/10/10 100/9/9 109/19/19
f 92/2/2 105/29/29 102/11/11
f 97/8/8 98/22/22 110/21/21
f 103/13/13 111/23/23 106/20/20
f 108/16/16 112/28/28 107/17/17
f 108/16/16 109/19/19 112/28/28
f 100/9/9 101/24/24 114/26/26
f 101/24/24 20/115/114 21/25/25
f 106/20/20 113/27/27 110/21/21
f 105/29/29 116/32/32 115/30/30
f 105/29/29 97/8/8 117/31/31
f 97/8/8 110/21/21 118/33/33
f 110/21/21 113/27/27 119/34/34
f 115/30/30 120/36/36 10/35/35
f 117/31/31 121/38/38 120/36/36
f 117/31/31 118/33/33 121/38/38
f 119/34/34 123/45/45 122/37/37
f 119/34/34 124/39/39 123/45/45
f 112/28/28 109/19/19 125/42/42
f 112/28/28 128/43/43 124/39/39
f 114/26/26 21/25/25 131/46/46
f 122/37/37 123/45/45 129/44/44
f 125/42/42 109/19/19 130/47/47
f 109/19/19 114/26/26 130/47/47
f 120/36/36 127/41/41 132/48/48
f 126/40/40 132/48/48 136/51/51
f 127/41/41 129/44/44 133/49/49
f 130/47/47 131/46/46 138/58/58
f 126/40/40 135/52/52 10/60/35
f 133/49/49 129/44/44 139/54/54
f 134/50/50 140/55/55 139/54/54
f 128/43/43 141/56/56 140/55/55
f 125/42/42 137/53/53 141/56/56
f 136/51/51 143/62/61 135/52/52
f 141/56/56 145/70/69 144/61/60
f 141/56/56 137/53/53 145/70/69
f 136/51/51 150/65/64 143/62/61
f 136/51/51 132/48/48 147/64/63
f 132/48/48 133/49/49 147/64/63
f 140/55/55 144/61/60 148/67/66
f 146/63/62 143/62/61 150/65/64
f 139/54/54 140/55/55 151/68/67
f 137/53/53 142/57/57 152/73/72
f 135/52/52 149/66/65 153/75/74
f 149/66/65 146/63/62 150/65/64
f 149/66/65 150/65/64 156/69/68
f 151/68/67 148/67/66 157/78/77
f 144/61/60 159/89/88 158/77/76
f 24/72/71 160/85/84 152/73/72
f 147/64/63 161/86/85 156/69/68
f 147/64/63 162/80/79 161/86/85
f 151/68/67 157/78/77 162/80/79
f 144/61/60 154/71/70 159/89/88
f 7/76/75 153/75/74 163/82/81
f 153/75/74 156/69/68 164/81/80
f 164/81/80 156/69/68 161/86/85
f 159/89/88 154/71/70 165/83/82
f 155/79/78 166/84/83 165/83/82
f 162/80/79 157/78/77 168/88/87
f 158/77/76 169/90/89 157/78/77
f 163/82/81 164/81/80 170/91/90
f 167/87/86 161/86/85 171/92/91
f 157/78/77 172/93/92 168/88/87
f 160/85/84 26/108/107 166/84/83
f 2/119/118 163/82/81 173/100/99
f 163/82/81 170/91/90 173/100/99
f 168/88/87 174/95/94 171/92/91
f 168/88/87 175/103/102 174/95/94
f 168/88/87 172/93/92 175/103/102
f 166/84/83 28/98/97 169/90/89
f 170/91/90 167/87/86 176/94/93
f 171/92/91 177/102/101 176/94/93
f 171/92/91 178/96/95 177/102/101
f 175/103/102 172/93/92 30/97/96
f 178/96/95 174/95/94 181/104/103
f 174/95/94 175/103/102 181/104/103
f 30/97/96 169/90/89 182/107/106
f 178/96/95 32/105/104 180/101/100
f 169/90/89 179/99/98 182/107/106
f 26/108/107 27/130/129 28/98/97
f 434/671/411 90/4/4 14/1/1
f 19/5/5 433/672/113 94/6/6
f 138/58/58 22/116/115 23/117/116
f 181/104/103 30/97/96 31/220/219
f 181/104/103 31/220/219 32/105/104
f 173/100/99 33/134/133 2/119/118
f 9/59/59 153/75/74 8/74/73
f 9/59/59 135/52/52 153/75/74
f 12/15/15 104/14/14 11/673/495
f 173/100/99 176/94/93 183/120/119
f 30/97/96 189/126/125 186/123/122
f 27/130/129 192/129/128 191/136/135
f 177/102/101 193/131/130 183/120/119
f 185/125/124 194/132/131 184/121/120
f 186/123/122 189/126/125 188/124/123
f 27/130/129 191/136/135 28/98/97
f 33/134/133 195/133/132 42/147/146
f 188/124/123 196/139/138 194/132/131
f 29/106/105 198/149/148 197/135/134
f 187/122/121 184/121/120 199/138/137
f 184/121/120 194/132/131 200/137/136
f 191/136/135 192/129/128 201/144/143
f 193/131/130 187/122/121 206/141/140
f 196/139/138 203/142/141 200/137/136
f 29/106/105 204/143/142 198/149/148
f 190/127/126 191/136/135 205/145/144
f 202/140/139 199/138/137 207/148/147
f 199/138/137 200/137/136 207/148/147
f 203/142/141 208/152/151 207/148/147
f 204/143/142 190/127/126 209/151/150
f 205/145/144 201/144/143 43/674/519
f 183/120/119 206/141/140 195/133/132
f 205/145/144 43/674/519 44/675/521
f 195/133/132 211/153/152 40/161/160
f 198/149/148 204/143/142 208/152/151
f 206/141/140 212/155/154 211/153/152
f 206/141/140 202/140/139 213/154/153
f 204/143/142 209/151/150 208/152/151
f 209/151/150 215/156/155 208/152/151
f 210/150/149 214/166/165 215/156/155
f 214/166/165 210/150/149 216/159/158
f 210/150/149 205/145/144 216/159/158
f 205/145/144 44/675/521 45/158/157
f 207/148/147 208/152/151 217/157/156
f 214/166/165 216/159/158 218/164/163
f 211/153/152 219/162/161 40/161/160
f 39/676/510 40/161/160 223/163/162
f 211/153/152 220/160/159 219/162/161
f 220/160/159 212/155/154 221/170/169
f 218/164/163 216/159/158 222/175/174
f 212/155/154 213/154/153 224/173/172
f 213/154/153 217/157/156 224/173/172
f 217/157/156 215/156/155 225/172/171
f 215/156/155 226/165/164 225/172/171
f 215/156/155 214/166/165 226/165/164
f 216/159/158 45/158/157 227/177/176
f 223/163/162 219/162/161 228/168/167
f 219/162/161 220/160/159 230/169/168
f 212/155/154 224/173/172 231/171/170
f 223/163/162 228/168/167 37/196/195
f 221/170/169 234/178/177 230/169/168
f 233/176/175 237/181/180 236/180/179
f 234/178/177 224/173/172 239/183/182
f 225/172/171 240/184/183 239/183/182
f 226/165/164 235/179/178 242/185/184
f 37/196/195 228/168/167 243/187/186
f 229/167/166 238/182/181 243/187/186
f 230/169/168 244/188/187 238/182/181
f 234/178/177 239/183/182 245/190/189
f 239/183/182 240/184/183 246/189/188
f 237/181/180 47/677/516 248/192/191
f 240/184/183 247/191/190 249/194/193
f 247/191/190 250/193/192 249/194/193
f 236/180/179 248/192/191 250/193/192
f 250/193/192 253/209/208 246/189/188
f 250/193/192 251/195/194 253/209/208
f 248/192/191 47/677/516 254/199/198
f 243/187/186 238/182/181 36/197/196
f 251/195/194 254/199/198 253/209/208
f 252/198/197 255/204/203 244/188/187
f 252/198/197 245/190/189 256/200/199
f 246/189/188 253/209/208 256/200/199
f 47/677/516 48/206/205 254/199/198
f 252/198/197 256/200/199 255/204/203
f 254/199/198 260/207/206 265/212/211
f 48/206/205 49/216/215 260/207/206
f 36/197/196 238/182/181 261/208/207
f 244/188/187 259/205/204 258/203/202
f 35/202/201 257/201/200 262/211/210
f 256/200/199 263/210/209 255/204/203
f 253/209/208 264/223/222 263/210/209
f 253/209/208 265/212/211 264/223/222
f 260/207/206 268/215/214 265/212/211
f 259/205/204 269/217/216 267/213/212
f 258/203/202 55/219/218 262/211/210
f 263/210/209 264/223/222 53/228/227
f 265/212/211 268/215/214 51/221/220
f 268/215/214 266/214/213 51/221/220
f 33/134/133 173/100/99 183/120/119
f 177/102/101 180/101/100 184/121/120
f 180/101/100 32/105/104 185/125/124
f 31/220/219 30/97/96 186/123/122
f 45/158/157 46/678/531 227/177/176
f 49/216/215 50/679/515 266/214/213
f 51/221/220 266/214/213 6/231/230
f 263/210/209 53/228/227 54/224/223
f 269/217/216 54/224/223 55/219/218
f 445/680/433 36/197/196 35/202/201
f 38/681/511 223/163/162 37/196/195
f 39/676/510 223/163/162 38/681/511
f 54/224/223 271/234/233 270/227/226
f 54/224/223 53/228/227 271/234/233
f 55/219/218 273/230/229 56/225/224
f 275/232/231 6/231/230 63/573/535
f 53/228/227 272/229/228 276/233/232
f 272/229/228 264/223/222 277/235/234
f 264/223/222 274/237/236 277/235/234
f 271/234/233 276/233/232 278/236/235
f 56/225/224 281/240/239 280/239/238
f 271/234/233 282/242/241 286/241/240
f 278/236/235 274/237/236 284/243/242
f 274/237/236 264/223/222 284/243/242
f 264/223/222 279/238/237 285/245/244
f 278/236/235 287/246/245 282/242/241
f 279/238/237 275/232/231 65/584/545
f 275/232/231 64/578/539 65/584/545
f 57/226/225 289/248/247 61/452/437
f 285/245/244 279/238/237 291/250/249
f 279/238/237 65/584/545 291/250/249
f 273/230/229 292/257/256 280/239/238
f 273/230/229 286/241/240 292/257/256
f 282/242/241 287/246/245 293/251/250
f 283/244/243 288/247/246 294/252/251
f 291/250/249 65/584/545 295/259/258
f 293/251/250 287/246/245 296/253/252
f 290/249/248 291/250/249 297/254/253
f 286/241/240 293/251/250 292/257/256
f 293/251/250 296/253/252 298/256/255
f 290/249/248 299/255/254 294/252/251
f 294/252/251 299/255/254 302/261/260
f 301/260/259 280/239/238 303/263/262
f 280/239/238 292/257/256 304/262/261
f 298/256/255 296/253/252 302/261/260
f 300/258/257 295/259/258 306/271/270
f 303/263/262 311/277/276 307/264/263
f 303/263/262 304/262/261 311/277/276
f 292/257/256 298/256/255 309/266/265
f 298/256/255 302/261/260 312/270/269
f 299/255/254 313/268/267 312/270/269
f 299/255/254 310/269/268 305/267/266
f 306/271/270 295/259/258 319/283/282
f 307/264/263 315/276/275 60/273/272
f 307/264/263 311/277/276 316/275/274
f 304/262/261 317/278/277 316/275/274
f 300/258/257 318/279/278 310/269/268
f 314/272/271 306/271/270 319/283/282
f 316/275/274 320/280/279 315/276/275
f 308/265/264 321/281/280 317/278/277
f 309/266/265 322/282/281 321/281/280
f 60/273/272 315/276/275 323/284/283
f 317/278/277 321/281/280 324/286/285
f 312/270/269 325/287/286 322/282/281
f 313/268/267 326/288/287 325/287/286
f 305/267/266 327/293/292 326/288/287
f 305/267/266 310/269/268 327/293/292
f 310/269/268 318/279/278 327/293/292
f 318/279/278 319/283/282 328/297/296
f 322/282/281 325/287/286 333/290/289
f 325/287/286 326/288/287 329/292/291
f 327/293/292 318/279/278 332/296/295
f 333/290/289 325/287/286 334/294/293
f 318/279/278 335/298/297 332/296/295
f 336/289/288 323/284/283 337/301/300
f 323/284/283 320/280/279 337/301/300
f 320/280/279 324/286/285 338/300/299
f 324/286/285 333/290/289 338/300/299
f 329/292/291 330/291/290 339/309/308
f 330/291/290 331/295/294 340/304/303
f 68/299/298 69/647/603 335/298/297
f 338/300/299 333/290/289 341/303/302
f 333/290/289 334/294/293 341/303/302
f 339/309/308 330/291/290 342/305/304
f 332/296/295 343/306/305 340/304/303
f 337/301/300 338/300/299 344/307/306
f 329/292/291 345/310/309 341/303/302
f 341/303/302 345/310/309 346/308/307
f 335/298/297 5/316/315 343/306/305
f 338/300/299 346/308/307 347/312/311
f 345/310/309 350/317/316 348/314/313
f 319/283/282 67/619/578 328/297/296
f 67/619/578 68/299/298 328/297/296
f 69/647/603 5/316/315 335/298/297
f 349/315/314 5/316/315 70/682/614
f 349/315/314 70/682/614 71/319/318
f 348/314/313 350/317/316 73/321/320
f 346/308/307 348/314/313 73/321/320
f 347/312/311 346/308/307 74/322/321
f 76/311/310 347/312/311 75/323/322
f 496/499/480 59/285/284 336/289/288
f 301/260/259 307/264/263 480/274/273
f 57/226/225 61/452/437 62/451/436
f 351/325/324 355/337/336 354/326/325
f 351/325/324 74/322/321 355/337/336
f 72/320/319 71/319/318 358/335/334
f 71/319/318 70/682/614 358/335/334
f 74/322/321 356/329/328 355/337/336
f 352/328/327 73/321/320 359/332/331
f 73/321/320 72/320/319 360/333/332
f 354/326/325 355/337/336 84/331/330
f 356/329/328 357/330/329 365/340/339
f 358/335/334 70/682/614 363/348/347
f 70/682/614 353/683/615 363/348/347
f 356/329/328 365/340/339 362/336/335
f 357/330/329 359/332/331 366/339/338
f 362/336/335 367/342/341 364/338/337
f 362/336/335 365/340/339 368/341/340
f 359/332/331 369/343/342 366/339/338
f 84/331/330 370/344/343 83/351/350
f 360/333/332 373/347/346 369/343/342
f 363/348/347 353/683/615 374/360/359
f 353/683/615 85/684/613 374/360/359
f 368/341/340 372/346/345 375/353/352
f 358/335/334 376/349/348 361/334/333
f 370/344/343 377/352/351 82/350/349
f 371/345/344 378/354/353 377/352/351
f 369/343/342 373/347/346 375/353/352
f 373/347/346 381/356/355 380/368/367
f 378/354/353 375/353/352 383/364/363
f 373/347/346 380/368/367 384/357/356
f 361/334/333 376/349/348 381/356/355
f 375/353/352 384/357/356 383/364/363
f 363/348/347 386/361/360 385/359/358
f 374/360/359 387/363/362 386/361/360
f 378/354/353 383/364/363 388/386/385
f 376/349/348 390/366/365 381/356/355
f 378/354/353 388/386/385 80/367/366
f 383/364/363 389/365/364 391/378/377
f 384/357/356 392/369/368 389/365/364
f 380/368/367 393/370/369 392/369/368
f 381/356/355 390/366/365 393/370/369
f 383/364/363 391/378/377 388/386/385
f 389/365/364 395/373/372 391/378/377
f 389/365/364 392/369/368 395/373/372
f 392/369/368 393/370/369 396/372/371
f 390/366/365 385/359/358 397/374/373
f 394/371/370 398/376/375 386/361/360
f 394/371/370 387/363/362 88/377/376
f 391/378/377 400/379/378 388/386/385
f 390/366/365 397/374/373 402/381/380
f 397/374/373 386/361/360 404/383/382
f 388/386/385 400/379/378 407/387/386
f 396/372/371 401/388/387 395/373/372
f 399/375/374 408/389/388 405/382/381
f 79/385/384 406/384/383 409/390/389
f 409/390/389 410/392/391 415/394/393
f 407/387/386 411/685/616 412/393/392
f 407/387/386 413/395/394 411/685/616
f 401/388/387 416/403/401 413/395/394
f 403/380/379 404/383/382 414/397/396
f 408/389/388 418/425/419 414/397/396
f 415/394/393 412/393/392 419/402/400
f 412/393/392 411/685/616 420/401/399
f 411/685/616 413/395/394 420/401/399
f 416/403/401 401/388/387 421/398/397
f 403/380/379 422/399/398 417/396/395
f 414/397/396 418/425/419 422/399/398
f 416/403/401 424/405/403 423/404/402
f 402/381/380 425/406/404 421/398/397
f 413/395/394 426/407/405 420/401/399
f 425/406/404 417/396/395 429/410/408
f 418/425/419 430/415/412 422/399/398
f 420/401/399 426/407/405 419/402/400
f 428/409/407 421/398/397 431/413/410
f 421/398/397 425/406/404 432/412/409
f 429/410/408 422/399/398 430/415/412
f 418/425/419 433/427/113 430/415/412
f 428/409/407 431/413/410 427/408/406
f 432/412/409 429/410/408 436/417/413
f 429/410/408 430/415/412 436/417/413
f 426/407/405 435/418/414 434/414/411
f 427/408/406 437/419/415 435/418/414
f 430/415/412 433/427/113 19/416/5
f 1/400/108 14/411/1 13/686/3
f 431/413/410 432/412/409 16/420/111
f 77/313/312 76/311/310 351/325/324
f 76/311/310 75/323/322 351/325/324
f 74/322/321 73/321/320 352/328/327
f 70/682/614 5/316/315 353/683/615
f 5/316/315 85/684/613 353/683/615
f 382/362/361 86/422/416 87/423/417
f 88/377/376 89/424/418 408/389/388
f 89/424/418 612/426/420 418/425/419
f 17/421/109 436/417/413 18/428/112
f 434/414/411 437/419/415 15/429/421
f 82/350/349 377/352/351 81/358/357
f 38/538/511 440/540/512 444/435/425
f 35/438/201 441/461/445 445/448/433
f 41/439/145 438/434/424 442/440/427
f 439/432/422 38/538/511 444/435/425
f 440/540/512 445/448/433 444/435/425
f 35/438/201 446/437/426 441/461/445
f 42/443/146 41/439/145 447/441/428
f 438/434/424 443/433/423 448/442/429
f 42/443/146 447/441/428 449/447/432
f 444/435/425 445/448/433 451/450/435
f 42/443/146 449/447/432 450/444/430
f 442/440/427 448/442/429 453/446/431
f 443/433/423 444/435/425 451/450/435
f 2/445/118 450/444/430 452/465/449
f 448/442/429 443/433/423 454/458/442
f 2/445/118 452/465/449 458/456/440
f 453/446/431 448/442/429 459/459/443
f 445/448/433 460/462/446 455/449/434
f 34/436/217 461/464/448 446/437/426
f 454/458/442 451/450/435 462/460/444
f 452/465/449 450/444/430 464/457/441
f 464/457/441 453/446/431 465/466/450
f 441/461/445 463/463/447 460/462/446
f 459/459/443 462/460/444 466/467/451
f 455/449/434 460/462/446 467/468/452
f 7/454/75 456/453/438 469/470/454
f 456/453/438 457/455/439 470/472/455
f 458/456/440 464/457/441 471/473/456
f 464/457/441 465/466/450 471/473/456
f 465/466/450 466/467/451 472/480/462
f 460/462/446 474/476/458 467/468/452
f 463/463/447 476/478/460 475/477/459
f 473/475/457 465/466/450 477/484/466
f 472/480/462 477/484/466 465/466/450
f 472/480/462 478/479/461 477/484/466
f 466/467/451 479/481/463 478/479/461
f 469/470/454 470/472/455 482/487/469
f 467/468/452 474/476/458 479/481/463
f 468/469/453 475/477/459 474/476/458
f 476/478/460 481/486/468 475/477/459
f 9/474/59 469/470/454 482/487/469
f 482/487/469 470/472/455 483/483/465
f 474/476/458 486/495/476 479/481/463
f 480/274/273 60/273/272 59/285/284
f 482/487/469 487/489/470 10/488/35
f 483/483/465 488/490/471 487/489/470
f 484/482/464 489/492/473 488/490/471
f 484/482/464 477/484/466 490/491/472
f 478/479/461 492/494/475 491/493/474
f 486/495/476 474/476/458 493/496/477
f 475/477/459 494/498/479 485/485/467
f 475/477/459 481/486/468 495/497/478
f 481/486/468 480/274/273 496/499/480
f 480/274/273 59/285/284 496/499/480
f 488/490/471 489/492/473 497/500/481
f 477/484/466 491/493/474 498/501/482
f 494/498/479 495/497/478 500/503/484
f 495/497/478 496/499/480 500/503/484
f 490/491/472 498/501/482 497/500/481
f 486/495/476 493/496/477 501/508/489
f 493/496/477 499/502/483 501/508/489
f 492/494/475 504/507/488 503/505/486
f 492/494/475 486/495/476 504/507/488
f 501/508/489 499/502/483 506/509/490
f 499/502/483 494/498/479 506/509/490
f 502/504/485 496/499/480 513/510/491
f 504/507/488 507/518/498 503/505/486
f 504/507/488 505/506/487 507/518/498
f 506/509/490 494/498/479 508/511/492
f 487/489/470 509/512/493 104/515/14
f 497/500/481 510/513/494 509/512/493
f 505/506/487 511/516/496 507/518/498
f 505/506/487 506/509/490 511/516/496
f 507/518/498 512/517/497 503/505/486
f 508/511/492 502/504/485 513/510/491
f 503/505/486 512/517/497 514/519/499
f 511/516/496 515/526/506 512/517/497
f 513/510/491 336/289/288 519/542/513
f 512/517/497 517/524/504 514/519/499
f 506/509/490 508/511/492 518/521/501
f 515/526/506 511/516/496 522/525/505
f 511/516/496 506/509/490 522/525/505
f 518/521/501 513/510/491 519/542/513
f 512/517/497 523/527/507 521/523/503
f 516/520/500 524/529/508 520/522/502
f 522/525/505 518/521/501 525/534/509
f 518/521/501 519/542/513 4/324/323
f 520/522/502 524/529/508 12/546/15
f 514/519/499 78/530/390 524/529/508
f 521/523/503 523/527/507 78/530/390
f 518/521/501 4/324/323 526/533/326
f 523/527/507 79/532/384 78/530/390
f 195/535/132 40/536/160 438/434/424
f 40/536/160 39/537/510 439/432/422
f 37/541/195 440/540/512 38/538/511
f 36/539/196 445/448/433 440/540/512
f 57/226/225 62/451/436 34/436/217
f 519/542/513 58/302/301 4/324/323
f 525/534/509 526/533/326 84/687/330
f 522/525/505 525/534/509 83/544/350
f 82/528/349 81/688/357 80/689/366
f 11/514/495 520/522/502 12/546/15
f 487/489/470 104/515/14 102/547/11
f 6/231/230 50/550/515 530/563/526
f 43/555/519 529/558/522 532/556/520
f 63/573/535 530/563/526 535/572/534
f 531/549/514 48/551/205 537/564/527
f 527/554/518 528/553/517 539/565/528
f 528/553/517 46/569/531 539/565/528
f 46/569/531 540/568/530 539/565/528
f 529/558/522 542/571/533 533/559/523
f 532/556/520 533/559/523 541/570/532
f 538/566/529 539/565/528 543/594/555
f 534/561/524 544/576/537 542/571/533
f 536/562/525 537/564/527 547/577/538
f 537/564/527 538/566/529 545/579/540
f 533/559/523 546/574/536 541/570/532
f 63/573/535 536/562/525 547/577/538
f 545/579/540 538/566/529 548/585/546
f 538/566/529 543/594/555 548/585/546
f 543/594/555 539/565/528 549/580/541
f 540/568/530 541/570/532 550/581/542
f 542/571/533 551/582/543 546/574/536
f 26/575/107 25/597/117 544/576/537
f 64/578/539 547/577/538 552/583/544
f 547/577/538 545/579/540 556/588/549
f 546/574/536 554/587/548 550/581/542
f 543/594/555 557/593/554 548/585/546
f 549/580/541 558/590/551 543/594/555
f 550/581/542 559/591/552 558/590/551
f 554/587/548 560/592/553 559/591/552
f 544/576/537 25/597/117 551/582/543
f 551/582/543 561/599/559 560/592/553
f 551/582/543 25/597/117 561/599/559
f 548/585/546 563/596/557 553/586/547
f 25/597/117 565/601/560 564/598/558
f 553/586/547 566/602/561 562/595/556
f 557/593/554 567/603/562 563/596/557
f 552/583/544 555/589/550 572/610/569
f 566/602/561 563/596/557 567/603/562
f 558/590/551 568/604/563 567/603/562
f 559/591/552 573/608/567 568/604/563
f 560/592/553 569/605/564 573/608/567
f 569/605/564 561/599/559 564/598/558
f 552/583/544 572/610/569 571/607/566
f 562/595/556 575/612/571 572/610/569
f 562/595/556 566/602/561 576/611/570
f 567/603/562 577/613/572 576/611/570
f 568/604/563 573/608/567 577/613/572
f 573/608/567 569/605/564 578/615/574
f 569/605/564 564/598/558 579/614/573
f 572/610/569 580/617/576 571/607/566
f 572/610/569 575/612/571 581/616/575
f 577/613/572 573/608/567 582/618/577
f 570/606/565 23/690/116 22/622/115
f 571/607/566 583/625/583 67/619/578
f 571/607/566 584/620/579 583/625/583
f 579/614/573 574/609/568 586/627/585
f 574/609/568 570/606/565 587/623/581
f 583/625/583 589/624/582 67/619/578
f 67/619/578 589/624/582 588/634/592
f 584/620/579 591/628/586 589/624/582
f 585/621/580 582/618/577 595/632/590
f 582/618/577 578/615/574 593/630/588
f 592/629/587 595/632/590 597/636/594
f 592/629/587 599/637/595 598/635/593
f 597/636/594 595/632/590 600/641/598
f 589/624/582 601/646/602 596/633/591
f 597/636/594 602/648/604 599/637/595
f 597/636/594 600/641/598 602/648/604
f 594/631/589 586/627/585 603/639/596
f 595/632/590 593/630/588 600/641/598
f 593/630/588 594/631/589 605/640/597
f 603/639/596 21/638/25 20/645/114
f 596/633/591 601/646/602 69/647/603
f 589/624/582 604/654/608 601/646/602
f 589/624/582 598/635/593 604/654/608
f 605/640/597 603/639/596 608/643/600
f 600/641/598 605/640/597 607/644/601
f 599/637/595 616/656/610 606/642/599
f 602/648/604 600/641/598 609/649/605
f 600/641/598 607/644/601 610/651/607
f 598/635/593 606/642/599 604/654/608
f 599/637/595 87/652/417 616/656/610
f 607/644/601 608/643/600 612/653/420
f 604/654/608 613/655/609 5/316/315
f 606/642/599 614/667/612 613/655/609
f 606/642/599 615/657/611 614/667/612
f 615/657/611 616/656/610 614/667/612
f 611/650/606 609/649/605 89/658/418
f 609/649/605 610/651/607 89/658/418
f 48/551/205 47/552/516 527/554/518
f 237/661/180 227/691/176 528/553/517
f 227/691/176 46/569/531 528/553/517
f 201/663/143 529/558/522 43/555/519
f 27/664/129 26/575/107 534/561/524
f 160/692/84 24/600/71 25/597/117
f 24/600/71 23/690/116 570/606/565
f 87/652/417 611/650/606 88/665/376
f 616/656/610 87/652/417 86/666/416
f 614/667/612 86/666/416 374/668/359
f 613/655/609 374/668/359 85/669/613
f 588/634/592 596/633/591 69/647/603
f 67/619/578 588/634/592 68/299/298
f 295/259/258 65/584/545 552/583/544
f 275/232/231 63/573/535 64/578/539
